<?xml version="1.0" encoding="utf-8"?>
<!-- Generator: Adobe Illustrator 24.3.0, SVG Export Plug-In . SVG Version: 6.00 Build 0)  -->
<svg version="1.1" id="Layer_1" xmlns="http://www.w3.org/2000/svg" xmlns:xlink="http://www.w3.org/1999/xlink" x="0px" y="0px"
	 viewBox="0 0 890 869" style="enable-background:new 0 0 890 869;" xml:space="preserve">
<style type="text/css">
	.st0{fill:#894818;stroke:#1F1F1F;stroke-width:4.5;stroke-linecap:round;stroke-linejoin:round;}
	.st1{fill:#010201;}
	.st2{fill:none;stroke:url(#SVGID_1_);stroke-width:2;stroke-linecap:round;stroke-linejoin:round;}
	.st3{fill:none;stroke:url(#SVGID_2_);stroke-width:2;stroke-linecap:round;stroke-linejoin:round;}
	.st4{opacity:0.32;fill:url(#SVGID_3_);}
	.st5{fill:url(#SVGID_4_);}
	.st6{fill:none;stroke:#D6D6E6;stroke-linecap:round;stroke-linejoin:round;stroke-miterlimit:10;}
	.st7{fill:#FFFFFF;}
	.st8{fill:#1F1F1F;stroke:#1F1F1F;stroke-width:4.5;stroke-linecap:round;stroke-linejoin:round;}
	.st9{stroke:#1F1F1F;stroke-width:4.5;stroke-linecap:round;stroke-linejoin:round;}
	.st10{fill:#3C0E40;stroke:#3C2370;stroke-width:4.5;stroke-miterlimit:10;}
	.st11{fill:none;stroke:#1F1F1F;stroke-width:4.5;stroke-linecap:round;stroke-linejoin:round;}
</style>
<g>
	<g>
		<g>
			<path class="st0" d="M144.1,542c8.4,0.5,10.2,5.1,9.1,10.1c-0.9,4-8.9,7.5-15,8.4c-7.3,1.1-13.5,3.7-21.8,8.2
				c-8.4,4.4-10.5,9.2-17.9,10.6c-8.2,1.5-15-11.3-6-19.4c7.8-7.1,19-10.8,28.5-13S136.8,541.6,144.1,542L144.1,542z"/>
			<path class="st0" d="M115.5,528.4c16.1-4.4,34.9-5.1,45.6-2.2c9.2,2.5,9.9,12.1,5.4,15.8c-3.7,3-14.9,3.2-20.3,2.5
				c-9-1.2-32.9,7.4-41.8,14.1c-8.9,6.7-20.3,2.5-20.6-7.4S94,534.3,115.5,528.4z"/>
			<path class="st0" d="M115.8,509c14.3-4,31.1-4.6,40.6-2c8.2,2.2,8.8,10.8,4.9,14.1c-3.3,2.7-13.2,2.9-18.1,2.2
				c-8-1.1-29.4,6.6-37.3,12.6s-18.1,2.2-18.3-6.6C87.3,520.5,96.5,514.3,115.8,509L115.8,509z"/>
		</g>
		<path class="st0" d="M94.8,509.3c19.2-12.6,39.3-23.3,48.6-24.1c10.6-0.9,14.6,8.2,7.3,14.1c-5.9,4.8-11,8.4-11,8.4
			c5.7,3.1,6.2,12.4,0,17.9C126,537.7,104.3,559,104.3,559c1.3,33.1-21.2,63.5-21.2,63.5s1.3,19.9,14.6,49
			c12.3,27.1,29.6,56.9,61.8,60c38.7,3.7,56.5-25.6,77.3-53.4c1.7-2.3,3.5-5.1,5.5-8.2c20.7,1.5,43.7,10.5,75.5,31
			c9.4,6.1,18.4,12.9,26.8,20.4l-1.4,2.4c-14.1,23.7-42.1,53.8-74,77.5C220.8,837,167,831.6,136,818.9c-46.3-19-79.7-59.9-94-115.2
			C23.3,631,42.8,543.4,94.8,509.3L94.8,509.3z"/>
	</g>
	<g>
		<path class="st1" d="M182.4,262.7l50.2,411.7c0.5,4.5-2.7,8.6-7.2,9.2l-91.6,11.2c-4.5,0.5-8.6-2.7-9.2-7.2L74.4,275.9
			c-0.5-4.5,2.7-8.6,7.2-9.2l91.6-11.2C177.7,255,181.8,258.2,182.4,262.7z"/>
		<g>
			
				<linearGradient id="SVGID_1_" gradientUnits="userSpaceOnUse" x1="154.7791" y1="587.6777" x2="156.1372" y2="587.6777" gradientTransform="matrix(10.923 -11.6914 -11.6914 -10.923 5341.1763 8888.8721)">
				<stop  offset="0" style="stop-color:#F8E7F8"/>
				<stop  offset="0.5" style="stop-color:#B6A9B7"/>
			</linearGradient>
			<circle class="st2" cx="171.5" cy="648.9" r="16.6"/>
			
				<linearGradient id="SVGID_2_" gradientUnits="userSpaceOnUse" x1="167.991" y1="613.9384" x2="169.3491" y2="613.9384" gradientTransform="matrix(-0.647 -5.3107 -5.3107 0.647 3556.1421 1128.2263)">
				<stop  offset="0" style="stop-color:#B6A9B7"/>
				<stop  offset="0.5" style="stop-color:#837484"/>
			</linearGradient>
			<line class="st3" x1="191.4" y1="623.5" x2="181.7" y2="635.9"/>
		</g>
		<g>
			
				<linearGradient id="SVGID_3_" gradientUnits="userSpaceOnUse" x1="563.7642" y1="69.8176" x2="501.452" y2="143.0098" gradientTransform="matrix(-0.1209 -0.9927 0.9927 -0.1209 91.5732 848.4167)">
				<stop  offset="0" style="stop-color:#161329"/>
				<stop  offset="0.5055" style="stop-color:#000000"/>
				<stop  offset="1" style="stop-color:#FFFFFF"/>
			</linearGradient>
			<path class="st4" d="M98.1,270.5l60-7.3c6.7-0.8,12.9,4,13.7,10.7l6.8,55.9c0.8,6.7-4,12.9-10.7,13.7l-60,7.3
				c-6.7,0.8-12.9-4-13.7-10.7l-6.8-55.9C86.5,277.4,91.3,271.3,98.1,270.5z"/>
			
				<linearGradient id="SVGID_4_" gradientUnits="userSpaceOnUse" x1="532.4733" y1="66.4242" x2="532.4733" y2="146.7317" gradientTransform="matrix(-0.1209 -0.9927 0.9927 -0.1209 91.5732 848.4167)">
				<stop  offset="0" style="stop-color:#161329"/>
				<stop  offset="0.5055" style="stop-color:#000000"/>
				<stop  offset="1" style="stop-color:#1D1B4B"/>
			</linearGradient>
			<path class="st5" d="M169.8,275.2l6.6,53.8c0.8,6.2-3.7,11.8-9.8,12.6l-57.9,7.1c-6.2,0.8-11.8-3.7-12.6-9.8L89.5,285
				c-0.8-6.2,3.7-11.8,9.8-12.6l57.9-7.1C163.5,264.6,169.1,269,169.8,275.2z"/>
			<path class="st6" d="M114,323.9l-3.5-28.8c-0.3-2.4,1.3-4.6,3.7-4.9l4.6-0.6c1.7-0.2,3.9,0.6,5.1,1.6l9.1,8.4
				c1.2,1.2,3.4,1.8,5.1,1.6l9-1.1c1.3-0.2,3,0.5,3.8,1.5l2.2,2.8c2,2.6,0.6,6.8-2.8,7.2l-11.1,1.4c-1.5,0.2-3.3,1.3-4.2,2.3
				l-7.4,9.3c-0.9,1.2-2.7,2.3-3.9,2.5l-4.8,0.6C116.4,328,114.3,326.3,114,323.9z"/>
		</g>
		<g>
			<g>
				<path class="st7" d="M182.4,593.5l-20.4,2.5l-1-7.8c-0.1-1.2-0.2-2.3-0.1-3.2c0.1-1,0.3-1.8,0.7-2.6c0.3-0.7,0.8-1.3,1.5-1.8
					c0.6-0.5,1.4-0.7,2.4-0.9c0.8-0.1,1.5,0,2.1,0.2c0.6,0.3,1.2,0.7,1.7,1.3c0.5,0.6,0.9,1.5,1.1,2.6l0.4-0.1
					c-0.1-1.9,0.3-3.4,1-4.4c0.7-1,1.8-1.6,3.2-1.7c1.2-0.1,2.2,0,3.1,0.5c0.9,0.5,1.6,1.3,2.1,2.4c0.6,1.1,0.9,2.6,1.2,4.3
					L182.4,593.5z M170.4,591.6l-0.4-3.4c-0.2-1.9-0.7-3.3-1.3-4.1c-0.6-0.9-1.5-1.2-2.5-1.1c-1,0.1-1.7,0.6-2.1,1.5
					c-0.4,0.9-0.5,2.1-0.3,3.7l0.5,4.2L170.4,591.6z M179.2,590.5l-0.7-5.5c-0.2-1.5-0.6-2.6-1.1-3.2c-0.6-0.7-1.4-0.9-2.4-0.8
					c-1.2,0.1-2,0.7-2.5,1.8c-0.5,1-0.6,2.5-0.3,4.5l0.5,4L179.2,590.5z"/>
				<path class="st7" d="M179.9,573.1l-21.8,2.7l-0.4-3.3l21.8-2.7L179.9,573.1z"/>
				<path class="st7" d="M178.4,558c0.2,1.5,0,3-0.5,4.2c-0.5,1.3-1.4,2.3-2.5,3.1c-1.2,0.8-2.7,1.3-4.5,1.6
					c-1.9,0.2-3.5,0.1-4.8-0.5c-1.3-0.5-2.4-1.4-3.1-2.5c-0.8-1.1-1.3-2.4-1.4-3.9c-0.2-1.5,0-2.9,0.5-4.2c0.5-1.3,1.3-2.3,2.5-3.2
					s2.7-1.4,4.5-1.6c1.9-0.2,3.5-0.1,4.8,0.5c1.3,0.5,2.4,1.4,3.1,2.5C177.8,555.2,178.3,556.6,178.4,558z M175.8,558.2
					c-0.1-0.9-0.4-1.7-1-2.3s-1.2-1-2.1-1.3c-0.9-0.2-1.9-0.3-3.1-0.2c-1.2,0.2-2.3,0.5-3.1,0.9c-0.8,0.5-1.5,1.1-1.8,1.8
					c-0.4,0.7-0.5,1.6-0.4,2.6c0.1,0.9,0.4,1.6,0.9,2.3c0.5,0.6,1.2,1.1,2.1,1.3c0.9,0.2,1.9,0.3,3.1,0.2c1.9-0.2,3.3-0.8,4.2-1.8
					C175.6,560.9,176,559.7,175.8,558.2z"/>
				<path class="st7" d="M181.4,539.6c0.2,1.7,0.2,3.1,0.1,4.3c-0.1,1.1-0.4,2-0.9,2.6c-0.5,0.6-1.1,0.9-1.9,1
					c-0.9,0.1-1.7-0.2-2.5-0.8c-0.7-0.7-1.2-1.8-1.6-3.2l-0.6,0.1c0.1,1.1,0.1,2-0.1,2.6c-0.2,0.6-0.6,0.9-1.1,1
					c-0.6,0.1-1.1-0.2-1.6-0.7c-0.5-0.5-1-1.4-1.4-2.6l-0.6,0.1c0.1,1.2-0.2,2.2-0.8,3c-0.6,0.8-1.6,1.2-2.7,1.4
					c-1.1,0.1-2,0-2.9-0.5c-0.9-0.5-1.6-1.2-2.2-2.3c-0.6-1-1-2.3-1.1-3.9l-0.9-7.8l2.7-0.3l-0.1,5l0.6-0.1c0.1-1.2,0.3-2.2,0.8-2.9
					c0.5-0.7,1.2-1.1,2.1-1.2c0.9-0.1,1.7,0.1,2.4,0.5c0.7,0.5,1.3,1.2,1.8,2.1c0.5,1,0.8,2.2,1,3.6c0,0.3,0.1,0.6,0.1,0.9
					c0,0.3,0,0.8,0,1.4c0.4,0.5,0.7,0.8,1,1.1c0.3,0.3,0.6,0.4,0.8,0.4c0.2,0,0.4-0.2,0.4-0.4c0.1-0.3,0.1-0.6,0.1-1
					c0-0.4,0-0.8-0.1-1.1l-0.5-3.9c-0.1-0.4-0.1-1-0.1-1.6c0-0.6,0.1-1.3,0.3-2c0.2-0.7,0.5-1.3,1.1-1.8c0.5-0.5,1.3-0.8,2.3-1
					c1.1-0.1,2.1,0.1,2.9,0.7c0.8,0.6,1.5,1.5,2,2.8C180.8,536.2,181.2,537.7,181.4,539.6z M168,540.9c-0.1-1.2-0.5-2.1-1.1-2.6
					c-0.6-0.5-1.3-0.8-2.2-0.7c-0.9,0.1-1.7,0.5-2.2,1.2c-0.5,0.7-0.7,1.7-0.6,2.9c0.1,1.2,0.5,2,1.2,2.6c0.7,0.6,1.5,0.8,2.4,0.7
					c0.6-0.1,1.1-0.3,1.5-0.6c0.4-0.3,0.7-0.8,0.9-1.4C168.1,542.4,168.1,541.7,168,540.9z M178.6,539.7c-0.2-1.3-0.4-2.4-0.6-3.2
					c-0.3-0.8-0.6-1.3-1-1.7c-0.4-0.3-0.9-0.5-1.4-0.4c-0.5,0.1-0.9,0.2-1.1,0.5c-0.2,0.3-0.4,0.6-0.5,1s-0.1,0.8-0.1,1.1
					c0,0.4,0.1,0.7,0.1,0.9l0.5,3.7c0.3,1.1,0.7,1.8,1.2,2.2c0.5,0.4,1,0.5,1.5,0.5c0.6-0.1,0.9-0.3,1.2-0.7
					c0.2-0.4,0.3-0.9,0.4-1.6C178.8,541.4,178.7,540.6,178.6,539.7z"/>
				<path class="st7" d="M173.1,514.5c0.1,1.1,0.1,2.1,0,3c-0.1,0.9-0.4,1.6-0.7,2.3c-0.3,0.6-0.8,1.2-1.3,1.6
					c-0.5,0.4-1.2,0.7-1.9,0.8l-1.2-2.6c0.6-0.1,1.1-0.4,1.5-0.8c0.4-0.4,0.7-1,0.9-1.7c0.2-0.7,0.2-1.6,0.1-2.5
					c-0.1-1.1-0.4-2-0.9-2.6c-0.4-0.6-1-0.8-1.7-0.7c-0.5,0.1-0.9,0.3-1.1,0.7c-0.2,0.4-0.4,0.9-0.5,1.5c-0.1,0.7-0.2,1.4-0.3,2.3
					c-0.1,0.8-0.1,1.5-0.3,2.3c-0.1,0.8-0.3,1.5-0.6,2.2c-0.3,0.7-0.7,1.3-1.2,1.7c-0.5,0.4-1.2,0.7-2.1,0.8c-0.9,0.1-1.8,0-2.6-0.5
					c-0.8-0.4-1.4-1.1-2-2c-0.5-0.9-0.9-2.1-1-3.5c-0.2-1.3-0.1-2.5,0.2-3.5c0.3-1,0.7-1.8,1.4-2.5c0.6-0.7,1.4-1.1,2.4-1.3l1.2,2.7
					c-0.7,0.1-1.2,0.4-1.6,0.8c-0.4,0.4-0.6,0.9-0.8,1.5c-0.2,0.6-0.2,1.3-0.1,2.1c0.1,1,0.4,1.8,0.9,2.4c0.4,0.5,1,0.8,1.7,0.7
					c0.5-0.1,0.9-0.3,1.1-0.7c0.3-0.4,0.4-0.9,0.5-1.6s0.2-1.4,0.3-2.2c0-0.8,0.1-1.6,0.3-2.4s0.3-1.5,0.6-2.2
					c0.3-0.7,0.6-1.2,1.2-1.6c0.5-0.4,1.2-0.7,2.1-0.8c1.1-0.1,2,0,2.8,0.5c0.8,0.5,1.4,1.2,1.9,2.2S173,513,173.1,514.5z"/>
				<path class="st7" d="M171,497c0.2,1.3,0.1,2.4-0.1,3.5s-0.7,1.9-1.3,2.7s-1.4,1.4-2.4,1.8c-1,0.5-2.1,0.8-3.4,0.9
					c-1.3,0.2-2.4,0.1-3.6-0.1c-1.1-0.2-2.1-0.6-2.9-1.1c-0.9-0.6-1.6-1.3-2.1-2.2c-0.6-0.9-0.9-2-1-3.2c-0.1-1.1-0.1-2.2,0.2-3.1
					c0.3-0.9,0.7-1.8,1.4-2.5c0.7-0.7,1.5-1.3,2.6-1.7c1.1-0.4,2.4-0.7,3.9-0.9l1.7,12.6l-2.1,0.3l-1.4-10.6l1.4,1
					c-1.2,0-2.2,0.3-3,0.7c-0.8,0.4-1.3,1-1.6,1.6c-0.3,0.7-0.4,1.4-0.3,2.2c0.1,0.9,0.4,1.6,1,2.3c0.5,0.6,1.3,1.1,2.2,1.3
					c0.9,0.3,2,0.3,3.3,0.2c1.9-0.2,3.2-0.8,4.1-1.7c0.8-0.9,1.2-2.2,1-3.7c-0.1-0.6-0.2-1.2-0.4-1.6c-0.2-0.4-0.5-0.8-0.8-1.1
					c-0.3-0.3-0.6-0.5-1-0.7c-0.4-0.2-0.8-0.3-1.2-0.3l0.3-3c0.8,0.1,1.5,0.3,2.1,0.6c0.6,0.3,1.2,0.7,1.7,1.2
					c0.5,0.5,0.9,1.2,1.2,1.9C170.7,495.1,170.9,495.9,171,497z"/>
				<path class="st7" d="M169.6,485.7c0.1,0.8,0,1.4-0.3,1.8c-0.3,0.4-0.8,0.7-1.4,0.8c-0.7,0.1-1.3,0-1.7-0.4s-0.6-0.9-0.7-1.7
					c-0.1-0.8,0-1.4,0.3-1.8c0.3-0.4,0.8-0.7,1.5-0.8C168.7,483.5,169.4,484.2,169.6,485.7z"/>
				<path class="st7" d="M168.9,479.7c0.1,0.8,0,1.4-0.3,1.8c-0.3,0.4-0.8,0.7-1.4,0.8c-0.7,0.1-1.3,0-1.7-0.4s-0.6-0.9-0.7-1.7
					c-0.1-0.8,0-1.4,0.3-1.8c0.3-0.4,0.8-0.7,1.5-0.8C167.9,477.4,168.7,478.1,168.9,479.7z"/>
				<path class="st7" d="M168.1,473.6c0.1,0.8,0,1.4-0.3,1.8c-0.3,0.4-0.8,0.7-1.4,0.8c-0.7,0.1-1.3,0-1.7-0.4s-0.6-0.9-0.7-1.7
					c-0.1-0.8,0-1.4,0.3-1.8c0.3-0.4,0.8-0.7,1.5-0.8C167.2,471.3,167.9,472,168.1,473.6z"/>
				<path class="st7" d="M167.4,467.5c0.1,0.8,0,1.4-0.3,1.8c-0.3,0.4-0.8,0.7-1.4,0.8c-0.7,0.1-1.3,0-1.7-0.4s-0.6-0.9-0.7-1.7
					c-0.1-0.8,0-1.4,0.3-1.8c0.3-0.4,0.8-0.7,1.5-0.8C166.4,465.3,167.2,466,167.4,467.5z"/>
			</g>
		</g>
	</g>
	<g>
		<path class="st8" d="M198.5,663.1c1.2-7.6,6.4-9.2,16.1-9.7c23.6-1.1,48.7,7.1,86.1,31.1c32.4,20.9,58.9,50.8,58.9,64.7
			s-10,20.2-26.2,21.2c0,0-35.6,1.6-83.1-31.5C221.3,718.7,196.6,687.4,198.5,663.1L198.5,663.1z"/>
		<path class="st8" d="M635,657.1c13.7-9.1,41.1-23.2,64.2-32.4c20.8-8.3,62.9-17.9,67.9,0.6c3.1,21.3-12,47.8-40.7,66.9
			c-34.9,23.3-63.9,30.4-70.2,31.8L635,657.1z"/>
		<g>
			<path class="st9" d="M503.4,340.1c-5,24.2,3.2,46.3,23.6,56.3c18.9,9.3,36.8-2.3,46-15.5c4.7-6.8,15.2-21.4,11.4-44.7
				c-3.6-22-22.2-39.9-46.2-34.7C520.3,305.3,507.8,318.9,503.4,340.1L503.4,340.1z"/>
			<path class="st0" d="M359.4,371c-3.6,4-1.7,7.6,3.7,9.3c2.4,0.7,4.8,1.1,7.3,1.3c0,0,4.6,21.4,9.9,31.7
				c5.3,10.3,18.6,4.4,30.2,4.4c11.6,0,16.9-1.7,16.9-1.7s4.9,5.1,3.9,23.9c-1.2,21.8-9.5,30.7-9.5,30.7s-16.4-2.3-26.1-3.4
				c20.4,16.8,57.6,39.8,91.9,36.3c44.7-4.6,64.3-38.5,66.4-58.6c-7.7,2.4-15.3,5.3-22.7,8.6c-14.9-10.3-31.1-26.1-37.4-41.7
				c-6.3-15.6-3.7-26.5,2.3-45.4s8.6-30.1,6.3-51.3c-2.4-22-13-36.8-29.5-48.7c-15.6-11.3-35.1-13.2-54.6-8.9
				c-19.5,4.3-39.1,19.2-48,36.7c-8.9,17.5-8.2,41.5-6.2,51.8c2,10.3,2.9,14.2-0.8,18.2L359.4,371z M641.9,677.4l45.2,143.3
				c31-8.5,59.9-29.5,69.2-69.2c8.7-37.3-18.4-99.5-34.9-132.5c-7.3,1.7-14.4,4-21.4,6.7c-23.1,9.3-50.5,23.4-64.2,32.4L641.9,677.4
				L641.9,677.4z"/>
			<path class="st9" d="M366.7,315.7c0.1-7.7,2-15.2,5.4-22.1c8.9-17.5,28.5-32.4,48-36.7c19.5-4.3,39.1-2.3,54.6,8.9
				c16.5,11.9,27.1,26.6,29.5,48.7c2.3,21.2-0.3,32.5-6.3,51.3c-3.2,10-5.4,17.7-5.8,25.1c-12.3,4.2-31.5,2.7-41.8-6.9
				c-7.6-7.2-11-25.7-7.9-40.1c2.9-14-3-27.5-12.9-30.5c-12.5-3.7-18.2,7.8-20.4,14.5c-2.2,6.6-8.4,9.3-19.4,6.2
				C380.3,331.6,371.8,323.3,366.7,315.7z"/>
			<ellipse cx="382.8" cy="348.5" rx="5.7" ry="7.7"/>
			<path class="st0" d="M425.6,335c3.2,6.4,1.2,13.3-3.3,15.8c-4.1,2.3-9,0.1-9.6-0.2"/>
			<path class="st0" d="M388.5,396.4c-6,3.1-11.3,3-13,0.7c-0.3-0.5-2.2-2.1-1.9-3.9"/>
		</g>
		<path class="st10" d="M763.4,614.1c-23.5-44.5-80.8-129.8-119.2-157.6c-38.4-27.8-78.1-19.9-113.9-4s-59.6,25.2-59.6,25.2
			s-70.2-13.2-115.2-14.6c-45-1.3-67.5,15.9-96.7,74.2c-29.1,58.3-47.7,91.4-58.3,116.5c-10.6,25.2,16.9,62.2,49.7,85.1
			c47.5,33.1,83.1,31.5,83.1,31.5l-6.9,88.7h372.1l-42.4-135c0,0,30.5-5.3,70.2-31.8C760.4,669.6,775.3,636.6,763.4,614.1z"/>
	</g>
	<g>
		<path class="st11" d="M140.2,506.3c-6-3.1-9.9-0.4-16.6,4.2c-6.6,4.6-43.7,31.8-43.7,31.8"/>
		<path class="st0" d="M79.9,542.2l52.2-36.8c0,0,19.3,0.4,8.1,19.7l-35.8,33.5c0,0-2.5,35.8-13.2,50.5"/>
	</g>
</g>
</svg>
