<?xml version="1.0" encoding="utf-8"?>
<!-- Generator: Adobe Illustrator 24.3.0, SVG Export Plug-In . SVG Version: 6.00 Build 0)  -->
<svg version="1.1" id="Layer_1" xmlns="http://www.w3.org/2000/svg" xmlns:xlink="http://www.w3.org/1999/xlink" x="0px" y="0px"
	 viewBox="0 0 890 869" style="enable-background:new 0 0 890 869;" xml:space="preserve">
<style type="text/css">
	.st0{stroke:#1F1F1F;stroke-width:4.5;stroke-linecap:round;stroke-linejoin:round;}
	.st1{fill:#874819;stroke:#1F1F1F;stroke-width:4.5;stroke-linecap:round;stroke-linejoin:round;}
	.st2{fill:#AA8156;stroke:#894818;stroke-miterlimit:10;}
	.st3{fill:#5C3731;}
	.st4{fill:#1A2E35;}
	.st5{fill:#3C0E40;stroke:#1F1F1F;stroke-width:4.5;stroke-linecap:round;stroke-linejoin:round;}
	.st6{fill-rule:evenodd;clip-rule:evenodd;fill:#1F1F1F;}
	.st7{fill:#FF5860;}
	.st8{fill:#FF5860;stroke:#1F1F1F;stroke-width:3;stroke-miterlimit:10;}
	.st9{fill:#FFFFFF;stroke:#1F1F1F;stroke-width:4.5;stroke-linecap:round;stroke-linejoin:round;}
	.st10{fill:none;stroke:#1F1F1F;stroke-width:4.5;stroke-linecap:round;stroke-linejoin:round;}
	.st11{fill:#B82836;}
	.st12{fill:#1F1F1F;}
	.st13{fill:#F7DCDA;stroke:#1F1F1F;stroke-width:4.5;stroke-linecap:round;stroke-linejoin:round;}
	.st14{fill:#913223;stroke:#1F1F1F;stroke-width:4.5;stroke-linecap:round;stroke-linejoin:round;}
	.st15{fill:#1F1F1F;stroke:#1F1F1F;stroke-width:4.5;stroke-linecap:round;stroke-linejoin:round;}
	.st16{fill:#FFFFFF;}
	.st17{fill:#FB0026;}
	.st18{fill:#F0592A;}
	.st19{fill:url(#SVGID_2_);}
	.st20{fill:url(#SVGID_3_);}
	.st21{fill:url(#SVGID_4_);}
	.st22{fill:url(#SVGID_5_);}
	.st23{fill:url(#SVGID_6_);}
	.st24{fill:url(#SVGID_7_);}
	.st25{fill:url(#SVGID_8_);}
	.st26{fill:url(#SVGID_9_);}
	.st27{fill:#ECECEC;}
	.st28{fill:#ECECEC;stroke:#894818;stroke-width:2;stroke-linecap:round;stroke-linejoin:round;stroke-miterlimit:10;}
</style>
<g>
	<g>
		<path class="st0" d="M774.1,369.8c-6.9,11.3-6.8,23.9,1.6,32.6c7.8,8.1,18.9,5.5,25.9,0.6c3.6-2.6,11.5-8,13.9-20.4
			c2.2-11.7-3.9-24.1-16.9-25.9C788.9,355.4,780.1,360,774.1,369.8L774.1,369.8z"/>
		<path class="st1" d="M756.2,404.2c0.1,3.7,1.1,7.7,2.6,11.7c-0.7-0.6-1.3-1.1-2-1.6c-9-6.6-22-9.2-37.2-7.3c0,0,0,0,0-0.1
			c2.4-5.6,2.7-9.1,2.7-11c0-1.2-0.3-1.8-0.3-1.8s-3-0.1-8.8-2.2c-5.8-2.1-13.6-1.6-14.4-7.7c-0.8-6.1,0.8-17.7,0.8-17.7
			c-1.2-0.5-2.4-1.2-3.4-2c-2.4-1.8-2.7-4-0.2-5.3l3.2-2.7c2.5-1.3,2.8-3.5,3.7-9c0.7-4.7,3.7-14.2,9.3-21.4c1-1.3,2.1-2.5,3.2-3.6
			c6.6-6.2,16.8-10,26.3-10c0.2,0,0.5,0,0.7,0c1.3,0,2.6,0.1,3.8,0.3c1.9,0.2,3.8,0.6,5.6,1.1c0,0,0,0,0,0
			c8.3,2.1,15.5,6.4,20.2,13.4c5.2,7.6,7.9,15.5,6.9,24.8c0,0,0,0,0,0.1c-0.2,1.6-0.5,3.3-0.9,5c-2.7,11.1-6.1,16.3-12.5,24.7
			c-2.7,3.6-4.9,6.6-6.5,9.5c-0.4,0.7-0.7,1.3-1,2C756.7,396.6,756.1,400,756.2,404.2z"/>
		<path class="st0" d="M709.7,332.7c1.5-3.8,3.8-7.3,6.7-10.1c7.7-7.2,20.2-11.2,30.8-9.8c10.6,1.4,20.1,5.9,25.9,14.4
			c6.1,9,8.8,18.3,6,29.8c-2.7,11.1-6.1,16.3-12.5,24.7c-3.4,4.5-5.9,8-7.5,11.6c-7-0.1-16.4-4.4-19.8-11.1
			c-2.5-5-0.9-14.9,3.3-21.6c4-6.5,3.5-14.4-1-17.7c-5.6-4.2-10.6,0.6-12.9,3.6s-5.9,3.1-10.9-0.4
			C713.7,343.2,710.9,337.5,709.7,332.7z"/>
		<ellipse transform="matrix(0.3398 -0.9405 0.9405 0.3398 138.7436 901.9928)" cx="711.9" cy="352.2" rx="4.1" ry="3.1"/>
		<path class="st1" d="M735.9,353.1c0.4,3.8-1.8,6.9-4.5,7.3c-2.5,0.4-4.6-1.6-4.8-1.9"/>
		<path class="st1" d="M699,375c3.6-0.5,6.2,0.5,6.7,2c0.1,0.3,0.7,1.5,0.2,2.3"/>
	</g>
	<g>
		<g>
			<g>
				
					<rect x="119.4" y="571.5" transform="matrix(0.5369 0.8436 -0.8436 0.5369 579.5927 156.1641)" class="st2" width="56.4" height="69.2"/>
				
					<rect x="102.2" y="531.1" transform="matrix(0.5369 0.8436 -0.8436 0.5369 533.6777 159.1443)" class="st2" width="39.3" height="69.2"/>
				
					<rect x="140.1" y="546.1" transform="matrix(0.5369 0.8436 -0.8436 0.5369 531.8149 130.4462)" class="st3" width="13.9" height="7.1"/>
				<g>
					<g>
						<path class="st4" d="M93.3,578L93.3,578c-0.1-0.1,0-0.2,0.1-0.3l4.8-2.9c0.1-0.1,0.2,0,0.3,0.1h0c0.1,0.1,0,0.2-0.1,0.3
							l-4.8,2.9C93.5,578.1,93.3,578.1,93.3,578z"/>
						<path class="st4" d="M93.8,578.8L93.8,578.8c-0.1-0.1,0-0.2,0.1-0.3l4.8-2.9c0.1-0.1,0.2,0,0.3,0.1l0,0c0.1,0.1,0,0.2-0.1,0.3
							l-4.8,2.9C94,578.9,93.8,578.9,93.8,578.8z"/>
						<path class="st4" d="M94.3,579.7L94.3,579.7c-0.1-0.1,0-0.2,0.1-0.3l4.8-2.9c0.1-0.1,0.2,0,0.3,0.1l0,0c0.1,0.1,0,0.2-0.1,0.3
							l-4.8,2.9C94.5,579.8,94.3,579.7,94.3,579.7z"/>
						<path class="st4" d="M94.8,580.5L94.8,580.5c-0.1-0.1,0-0.2,0.1-0.3l4.8-2.9c0.1-0.1,0.2,0,0.3,0.1l0,0c0.1,0.1,0,0.2-0.1,0.3
							l-4.8,2.9C95,580.6,94.9,580.6,94.8,580.5z"/>
						<path class="st4" d="M95.3,581.3L95.3,581.3c-0.1-0.1,0-0.2,0.1-0.3l4.8-2.9c0.1-0.1,0.2,0,0.3,0.1l0,0c0.1,0.1,0,0.2-0.1,0.3
							l-4.8,2.9C95.5,581.4,95.4,581.4,95.3,581.3z"/>
						<path class="st4" d="M95.8,582.1L95.8,582.1c-0.1-0.1,0-0.2,0.1-0.3l4.8-2.9c0.1-0.1,0.2,0,0.3,0.1l0,0c0.1,0.1,0,0.2-0.1,0.3
							l-4.8,2.9C96,582.3,95.9,582.2,95.8,582.1z"/>
						<path class="st4" d="M96.3,583L96.3,583c-0.1-0.1,0-0.2,0.1-0.3l4.8-2.9c0.1-0.1,0.2,0,0.3,0.1l0,0c0.1,0.1,0,0.2-0.1,0.3
							l-4.8,2.9C96.5,583.1,96.4,583.1,96.3,583z"/>
						<path class="st4" d="M96.8,583.8L96.8,583.8c-0.1-0.1,0-0.2,0.1-0.3l4.8-2.9c0.1-0.1,0.2,0,0.3,0.1l0,0c0.1,0.1,0,0.2-0.1,0.3
							l-4.8,2.9C97,583.9,96.9,583.9,96.8,583.8z"/>
						<path class="st4" d="M97.3,584.6L97.3,584.6c-0.1-0.1,0-0.2,0.1-0.3l4.8-2.9c0.1-0.1,0.2,0,0.3,0.1h0c0.1,0.1,0,0.2-0.1,0.3
							l-4.8,2.9C97.5,584.8,97.4,584.7,97.3,584.6z"/>
					</g>
					<path class="st4" d="M91.5,574.2l0.4,1.6l-1.2-1.9c-0.1-0.2,0.1-0.4,0.3-0.3l0,0c0.1,0.1,0.2,0.1,0.2,0l1.7-1.1
						c-0.5-1,0.3-2,2-3.1l1.9,3.1c-1.7,1-2.9,1.3-3.6,0.4L91.5,574.2z"/>
					<path class="st4" d="M91.8,570l-0.2-0.3c-0.1-0.1-0.2-0.1-0.3-0.1l-2.3,1.4l-1.3-2.1l2.3-1.4c0.1-0.1,0.1-0.2,0.1-0.3L90,567
						c-0.1-0.1,0-0.3,0.2-0.3l3.3,0.2l-1.3,3.1C92.1,570.2,91.9,570.2,91.8,570z"/>
				</g>
			</g>
			<g>
				<polyline class="st3" points="140.4,545.7 139.8,546.5 141,546.5 140.3,547.3 141.4,547.1 140.8,548.1 141.9,548 141.3,548.9 
					142.4,548.8 141.8,549.7 142.9,549.5 				"/>
				<polyline class="st3" points="142.9,549.6 142.3,550.5 143.5,550.4 142.8,551.2 143.9,551.1 143.3,552.1 144.4,552 143.8,552.8 
					144.9,552.7 144.3,553.6 145.4,553.5 				"/>
				<polyline class="st3" points="145.5,553.5 144.8,554.4 146,554.3 145.3,555.2 146.4,555 145.8,556 147,555.9 146.3,556.8 
					147.4,556.7 146.8,557.6 147.9,557.4 				"/>
			</g>
		</g>
	</g>
	<path class="st5" d="M667.6,451.6c-16.3-10.2-81-61.6-109.8-77.6s-62.3-29.5-62.3-29.5c5.7,0,9.9-4.6,11.9-13
		c1.9-8.4,8-40.1,8-40.1c36,15.7,80.7,41.7,114,62c33.3,20.3,78.4,54.3,98.6,68.8C746.3,435.4,693.9,468.1,667.6,451.6L667.6,451.6z
		"/>
	<path class="st6" d="M691.7,710.6c-0.8-0.4-1.8-0.1-2.2,0.6l-15,24.6l-21.1,34.6l0,0c-4,6.6-6.2,11.8-6.9,16.4
		c-0.7,4.6,0.2,8.5,2.3,12.2c0.1,0.1,0.1,0.2,0.2,0.3c1.3,1.5,2.9,2.8,4.6,3.8c1.1,0.8,2.6,1.1,3.9,1.3c1.4,0.1,2.9,0.1,4.1,0.1
		c7.4-0.1,18.4-5.6,26.4-18c3.9-6,12.5-20.4,20.2-33.2c4.4-7.4,8.8-14.7,13.2-22.2l0.9-1.5l0.3-0.5l0,0c0.4-0.8,0.2-1.8-0.6-2.3H722
		L691.7,710.6L691.7,710.6z M661.6,804.5L661.6,804.5v-1.6V804.5L661.6,804.5z M653.6,803L653.6,803l1-1.4l-0.8,1.4H653.6z
		 M689.5,711.2c0,0,0,0,1.4,0.9L689.5,711.2z"/>
	<path class="st7" d="M523.5,615.8c-13.8,3.5-41,41-30.9,65.1c10.1,24.1,35.6,41.5,53.3,53.3c17.8,11.8,105.1,66.4,105.1,66.4
		c-4.9-7.1-3-14.7,3.8-29.4c6.9-14.7,35.9-60,35.9-60L523.5,615.8z"/>
	<path class="st8" d="M426.2,755.7c2.6-27.6,8.6-126.3,16.1-161.4c7.7-36.4,33.2-51,81.4-48.2c44.7,2.6,95.8,4,143.1,14.7
		c45.2,10.2,75.4,24.1,75.4,24.1s-14.1,32.1-22.7,45.9c-7.7,12.4-15.2,18-38.7,16.6c-44.9-2.7-147.2-10.2-147.2-10.2l6.1,128.9
		c0,0-47-12.1-74.6-15.8C446.4,747.8,427.1,747.4,426.2,755.7L426.2,755.7z"/>
	<path class="st5" d="M748.5,407.8c-11.9-5.1-28.3-3.5-45.5,5.7c-8.9,4.8-23.8,14.5-37.1,25.3c2.7-14.6,4.9-26,4.9-26l-51.6-0.4
		c0,0-42.1,58.5-45.5,98.3c-1.7,19.3,19.1,22.9,29.8,17.6c4-2,12.1-6,20.6-10.5c-3.2,13.3-5.9,27.3-6.9,35.1
		c16.8,2.7,33.5,4.5,49.4,8.1c45.2,10.2,75.4,24.1,75.4,24.1s-2.4,5.5-5.7,12.8c0.2-0.1,0.4-0.4,0.6-0.7c6.1-11.1,13-35.1,14.1-44.3
		c1.2-9.2,9.6-88,11.5-109.3C764.6,421.9,759.3,412.4,748.5,407.8L748.5,407.8z"/>
	<path class="st1" d="M629.3,392.5c3,5.5,4.4,13,4.2,20l33.7,0.2c1.5-7.9,2-16.4-6-22.5c-9.9-7.7-51.3-34.4-56.2-37.5
		c-4.9-3.1-10.7-1.2-5,5.7C605.5,365.3,625.1,384.8,629.3,392.5z"/>
	<path class="st6" d="M465.5,748.7c-9.4-1.3-18.9-1.9-26.2-1.1c-3.6,0.4-6.9,1.1-9.3,2.4c-2.4,1.3-4.3,3.3-4.6,6
		c-0.6,5,1.5,9.6,5.2,13.4c3.6,3.8,8.7,7.1,14.4,9.7l0,0c20,8.7,36,12.5,65.1,15.3c10,1,17.5,1.1,22.5,1c2.5-0.1,4.4-0.1,5.7-0.3
		c0.6-0.1,1.2-0.1,1.8-0.1h0.1h0.1l0,0l0,0l0,0l-0.2-1.6l0.2,1.6c0.8-0.1,1.4-0.8,1.4-1.6H540h1.6l0,0v-0.1V793v-0.3
		c0.1-2.9,0.1-5.7,0.1-8.5c0-5.4-0.1-12.2-0.4-18.1l0,0c-0.3-0.9-1-1.5-1.1-1.5h-0.1l0,0l0,0l0,0l0,0l0,0h-0.1l0,0
		c-0.7-0.1-1.3-0.4-1.9-0.5c-1.3-0.4-3.3-0.8-5.7-1.4c-6.4-1.5-12.8-3.1-19.2-4.6C498.1,754.5,479.3,750.5,465.5,748.7z"/>
	<path class="st9" d="M484.1,753.5c-5.5,35.9-59.1,50.8-78.5,58.2c-19.4,7.4-22.9,10.9-20.6,19.1h153.3c2.4-17,1.8-47.7,1.5-64.7
		C539.8,766,510.1,758.5,484.1,753.5z"/>
	<path class="st10" d="M363.1,830.8h403.5"/>
	<path class="st9" d="M619.8,785.5c-1.2-37.9-1.2-79.1-1.2-131.9h-12c0,52.7,0,94.1-1.2,131.9c-0.9,30-32.1,39-67.1,45.3h148.5
		C651.8,824.5,620.6,815.5,619.8,785.5z"/>
	<path class="st6" d="M533.7,635.5c-0.9,0-1.6,0.7-1.6,1.6l0,0c0,12.2,4.7,20.1,11.4,25c6.6,4.8,15,6.5,22.3,6.5h90.2
		c14.7,0,22.5-1.3,34.2-6.3l0,0c9.8-4.2,16.8-9.8,26.5-24.3c0.5-0.7,0.3-1.8-0.4-2.3c-0.3-0.1-0.6-0.3-1-0.3L533.7,635.5
		L533.7,635.5z"/>
	<path class="st11" d="M42.6,667.8c0,0,7.3,75.9,13.6,116.3c4.8,30.5,19.7,45.9,36.4,45.9h60.8c16.6,0,31.6-15.4,36.4-45.9
		c6.3-40.4,13.6-116.3,13.6-116.3L42.6,667.8L42.6,667.8z"/>
	<path class="st10" d="M35.6,829.3c0,0,127.1,0.5,275.3,1 M715.4,637.1c8.3-12.5,19.7-33.4,30.6-62.6"/>
	<path class="st6" d="M782.4,468c0.5-2.8-1.2-5.2-3.3-6.8c-2.2-1.6-5.3-2.7-8.5-3.2c-6.5-0.8-14.3,1.2-17.8,9
		c-0.6,1.4-1.8,3.7-3.2,6.8c-6.5,13.3-19.4,40.1-24.8,60.8l0,0c-2.2,8.7-3.2,15.3-2.6,20.7c0.7,5.5,3,9.6,7.4,13.1l0,0
		c4.1,3.3,8.1,5.2,11.1,6.3c1.2,0.4,2.4,0.8,3.7,1.1c0.4,0.1,0.7,0.1,1,0.2c0.1,0,0.2,0.1,0.3,0.1h0.1l0,0l0,0l0,0l0,0
		c0,0,0,0,0.2-1.6l-0.2,1.6c0.7,0.1,1.5-0.4,1.8-1c7.7-20.5,16.4-47.2,23.1-68.8c3.4-10.8,6.3-20.3,8.4-27.2c1-3.4,1.8-6.1,2.4-8
		c0.3-1,0.5-1.7,0.7-2.1c0.1-0.1,0.1-0.2,0.1-0.3c0-0.1,0.1-0.1,0.1-0.2l0.1-0.2l0,0l-1.6-0.4l1.6,0.4
		C782.4,468.1,782.4,468.1,782.4,468L782.4,468z M532.4,560c-4,0-6.9,1.5-8.3,4.2c-1.3,2.6-1,5.8,0.4,8.8c2.7,5.9,9.9,11.6,20,11.6
		h128c9.3,0,16.4-5.7,19.7-11.4c1.6-2.8,2.5-5.9,2-8.5c-0.3-1.3-0.9-2.5-2.1-3.4c-1.1-0.9-2.6-1.3-4.2-1.3L532.4,560L532.4,560z"/>
	<path class="st12" d="M624.7,580.5c0,0,2.3,25.8,8.6,57.9L624.7,580.5z"/>
	<path class="st10" d="M624.7,580.5c0,0,2.3,25.8,8.6,57.9"/>
	<path class="st9" d="M751.7,744.8C746.5,741.7,691,712,691,712s-18.4,30.9-28.7,48.8c3.5,5.8,5.4,13.3,4.2,23.9
		c-1.7,15.3-22.4,25.2-33.5,29.8c-11.1,4.6-16.4,9.4-15.8,16.2h112.4c0,0,23.2-53.2,27-64.4C760.3,755.1,757.4,748.3,751.7,744.8
		L751.7,744.8z"/>
	<path class="st13" d="M729.7,830.8c0,0,23.2-53.2,27-64.4c3.4-10.2,1.3-16.8-3.4-20.5c-2.9-1.4-7.9,0.3-11.7,6.6
		c-5.4,8.8-35.6,58.6-47.7,78.4L729.7,830.8L729.7,830.8z"/>
	<path class="st10" d="M607.1,483.4l58.9-44.7 M624.3,517.6c14.1-8.2,60.8-41.5,74.6-54.4"/>
	<path class="st1" d="M448.7,273.5c-8.3,0-27.9,5.7-30.9,7.8c-3,2.1-3.8,5.7,1.9,6.5c2.5,0.4,5,0.2,7.4-0.4c0,0-1.3,5.4,6.3,5.2
		c7.4-0.1,15.6-2.4,23.5-3.8c6.5-1.2,11.3-1.9,14.4-2.3c0.8-0.1,1.5-0.7,1.8-1.5c0.3-0.8,0.1-1.7-0.5-2.2c-1.6-1.6-3.5-2.9-5.5-4.1
		C460.1,275.1,448.7,273.5,448.7,273.5L448.7,273.5z"/>
	<path class="st14" d="M427,287.4l28.7-6.5C449.7,281.5,434.3,285.5,427,287.4z"/>
	<path class="st15" d="M507.3,331.6c1.9-8.3,7.9-39.3,8-40.1c-4.6-2.2-10.4-4.5-15.5-6.6c-10.6-4.3-14.4-1.9-13.9,11.1
		c0.3,10.8,4.3,40.3,6.2,45.2c0.6,1.5,1.8,2.7,3.4,3.3C501.2,344.6,505.4,340,507.3,331.6L507.3,331.6z"/>
	<path class="st10" d="M495.7,344.7l0.4,0.2"/>
	<path class="st1" d="M515.4,291.5c-12.6-6.1-60-24.1-77.6-26.4c-9.9-1.3-10.2,3.6-2.5,7.1c7.7,3.5,29.2,12.5,35.7,17
		c6.5,4.6,4.2,9-1.5,10.9c-5.7,1.9-19.9,3-25.6,5.4s-4.8,7.7,5.5,7.4c22.8-0.4,60.7,5.3,60.7,5.3L515.4,291.5L515.4,291.5z"/>
	<path class="st10" d="M165.7,509.7c8.6-56.8,31.8-119.6,72.3-143.7c40.4-24.1,68.8-11.2,80.9,9.5c8.9,15.3,3.4,38.4-17.2,42.1
		c-18.9,3.5-26.7-16.4-21.5-36.1s42.1-72.3,110.9-95.5"/>
	<path class="st10" d="M539.8,766c-1.2-43.3-6.1-128.9-6.1-128.9 M42.6,667.8h160.7"/>
	<g>
		<g>
			<path class="st16" d="M92,786.1c-1.1,0-2.1-0.2-3-0.7s-1.6-1.1-2.1-2c-0.5-0.8-0.7-1.8-0.7-2.9c0-1.1,0.2-2,0.7-2.9
				c0.5-0.8,1.2-1.5,2.1-2c0.9-0.5,1.9-0.7,3-0.7c1,0,1.9,0.2,2.6,0.6s1.4,1,1.8,1.7l-1.5,1c-0.4-0.5-0.8-0.9-1.3-1.2
				c-0.5-0.3-1.1-0.4-1.7-0.4c-0.7,0-1.4,0.2-1.9,0.5s-1,0.8-1.3,1.3c-0.3,0.6-0.5,1.2-0.5,2c0,0.8,0.2,1.5,0.5,2
				c0.3,0.6,0.8,1,1.3,1.3c0.6,0.3,1.2,0.5,1.9,0.5c0.6,0,1.1-0.1,1.7-0.4c0.5-0.3,1-0.6,1.3-1.2l1.5,0.9c-0.4,0.8-1,1.3-1.8,1.7
				S93,786.1,92,786.1z"/>
			<path class="st16" d="M102.2,786.1c-0.8,0-1.5-0.1-2.1-0.4c-0.6-0.3-1.1-0.7-1.4-1.1c-0.3-0.5-0.5-1-0.5-1.7
				c0-0.6,0.1-1.1,0.4-1.6c0.3-0.5,0.7-0.9,1.4-1.2c0.6-0.3,1.5-0.4,2.6-0.4h3.5v1.4h-3.4c-1,0-1.7,0.2-2,0.5
				c-0.3,0.3-0.5,0.7-0.5,1.2c0,0.5,0.2,1,0.6,1.3c0.4,0.3,1,0.5,1.8,0.5c0.7,0,1.4-0.2,1.9-0.5s1-0.8,1.2-1.4l0.4,1.4
				c-0.3,0.6-0.7,1.2-1.4,1.5S103.2,786.1,102.2,786.1z M105.8,785.9v-2.3l-0.1-0.4v-3.9c0-0.8-0.2-1.5-0.7-1.9
				c-0.5-0.5-1.2-0.7-2.2-0.7c-0.6,0-1.3,0.1-1.9,0.3c-0.6,0.2-1.1,0.5-1.6,0.9l-0.8-1.5c0.6-0.5,1.2-0.8,2-1s1.6-0.4,2.5-0.4
				c1.5,0,2.7,0.4,3.5,1.1s1.2,1.8,1.2,3.3v6.6H105.8z"/>
			<path class="st16" d="M117.2,774.9c0.9,0,1.7,0.2,2.4,0.5s1.2,0.9,1.6,1.6c0.4,0.7,0.6,1.6,0.6,2.7v6.3h-2v-6.1
				c0-1.1-0.3-1.9-0.8-2.4c-0.5-0.5-1.2-0.8-2.2-0.8c-0.7,0-1.3,0.1-1.8,0.4c-0.5,0.3-0.9,0.7-1.2,1.2c-0.3,0.5-0.4,1.2-0.4,2v5.6
				h-2V775h1.9v2.9l-0.3-0.8c0.4-0.7,0.9-1.3,1.6-1.7C115.3,775.1,116.2,774.9,117.2,774.9z"/>
			<path class="st16" d="M130.1,786.1c-1.1,0-2.1-0.2-3-0.7s-1.6-1.1-2.1-2c-0.5-0.8-0.7-1.8-0.7-2.9c0-1.1,0.2-2,0.7-2.9
				c0.5-0.8,1.2-1.5,2.1-2c0.9-0.5,1.9-0.7,3-0.7c1,0,1.9,0.2,2.6,0.6s1.4,1,1.8,1.7l-1.5,1c-0.4-0.5-0.8-0.9-1.3-1.2
				c-0.5-0.3-1.1-0.4-1.7-0.4c-0.7,0-1.4,0.2-1.9,0.5s-1,0.8-1.3,1.3c-0.3,0.6-0.5,1.2-0.5,2c0,0.8,0.2,1.5,0.5,2
				c0.3,0.6,0.8,1,1.3,1.3c0.6,0.3,1.2,0.5,1.9,0.5c0.6,0,1.1-0.1,1.7-0.4c0.5-0.3,1-0.6,1.3-1.2l1.5,0.9c-0.4,0.8-1,1.3-1.8,1.7
				S131.1,786.1,130.1,786.1z"/>
			<path class="st16" d="M142,786.1c-1.2,0-2.2-0.2-3.1-0.7c-0.9-0.5-1.6-1.1-2.1-2c-0.5-0.8-0.7-1.8-0.7-2.9c0-1.1,0.2-2,0.7-2.9
				c0.5-0.8,1.1-1.5,2-2c0.8-0.5,1.8-0.7,2.8-0.7c1.1,0,2,0.2,2.8,0.7c0.8,0.5,1.4,1.1,1.9,2c0.5,0.8,0.7,1.8,0.7,3
				c0,0.1,0,0.2,0,0.3c0,0.1,0,0.2,0,0.3h-9.3v-1.4h8.3l-0.8,0.5c0-0.7-0.1-1.3-0.4-1.9c-0.3-0.5-0.7-1-1.2-1.3
				c-0.5-0.3-1.1-0.5-1.8-0.5c-0.7,0-1.3,0.2-1.8,0.5c-0.5,0.3-1,0.7-1.3,1.3s-0.5,1.2-0.5,1.9v0.3c0,0.7,0.2,1.4,0.5,1.9
				c0.3,0.6,0.8,1,1.4,1.3c0.6,0.3,1.3,0.5,2.1,0.5c0.6,0,1.2-0.1,1.8-0.3c0.5-0.2,1-0.5,1.4-1l1.1,1.3c-0.5,0.6-1.1,1-1.8,1.3
				C143.7,785.9,142.9,786.1,142,786.1z"/>
			<path class="st16" d="M149.7,785.9v-15.3h2v15.3H149.7z"/>
			<path class="st16" d="M97.7,810.8c-1.1,0-2.1-0.2-2.9-0.7s-1.5-1.1-2-2s-0.7-1.8-0.7-2.9c0-1.1,0.2-2,0.7-2.9s1.2-1.5,2-2
				c0.9-0.5,1.8-0.7,2.9-0.7c1.1,0,2.1,0.2,2.9,0.7c0.9,0.5,1.5,1.1,2,2c0.5,0.8,0.7,1.8,0.7,2.9c0,1.1-0.2,2-0.7,2.9
				c-0.5,0.8-1.2,1.5-2,2S98.8,810.8,97.7,810.8z M97.7,809.1c0.7,0,1.3-0.2,1.9-0.5c0.6-0.3,1-0.8,1.3-1.3c0.3-0.6,0.5-1.3,0.5-2
				c0-0.8-0.2-1.5-0.5-2c-0.3-0.6-0.8-1-1.3-1.3s-1.2-0.5-1.9-0.5c-0.7,0-1.3,0.2-1.9,0.5c-0.5,0.3-1,0.8-1.3,1.3
				c-0.3,0.6-0.5,1.2-0.5,2c0,0.8,0.2,1.4,0.5,2c0.3,0.6,0.8,1,1.3,1.3C96.4,808.9,97,809.1,97.7,809.1z"/>
			<path class="st16" d="M106.1,810.7v-10.9h1.9v3l-0.2-0.7c0.3-0.8,0.8-1.3,1.5-1.7c0.7-0.4,1.6-0.6,2.6-0.6v1.9
				c-0.1,0-0.2,0-0.2,0c-0.1,0-0.1,0-0.2,0c-1.1,0-1.9,0.3-2.5,0.9c-0.6,0.6-0.9,1.5-0.9,2.7v5.4H106.1z"/>
			<path class="st16" d="M119.1,810.8c-1.1,0-2-0.2-2.8-0.7c-0.8-0.5-1.5-1.1-2-2c-0.5-0.8-0.7-1.8-0.7-2.9c0-1.1,0.2-2.1,0.7-2.9
				c0.5-0.8,1.1-1.5,2-1.9c0.8-0.5,1.8-0.7,2.8-0.7c0.9,0,1.8,0.2,2.5,0.6c0.7,0.4,1.3,1,1.8,1.9c0.4,0.8,0.7,1.9,0.7,3.1
				c0,1.2-0.2,2.3-0.6,3.1c-0.4,0.8-1,1.4-1.8,1.9C120.9,810.6,120,810.8,119.1,810.8z M119.2,809.1c0.7,0,1.3-0.2,1.9-0.5
				c0.6-0.3,1-0.8,1.3-1.3c0.3-0.6,0.5-1.3,0.5-2c0-0.8-0.2-1.5-0.5-2c-0.3-0.6-0.8-1-1.3-1.3s-1.2-0.5-1.9-0.5
				c-0.7,0-1.3,0.2-1.9,0.5c-0.5,0.3-1,0.8-1.3,1.3c-0.3,0.6-0.5,1.2-0.5,2c0,0.8,0.2,1.4,0.5,2c0.3,0.6,0.8,1,1.3,1.3
				C117.9,808.9,118.5,809.1,119.2,809.1z M123,810.7v-2.9l0.1-2.5l-0.2-2.5v-7.3h2v15.3H123z"/>
			<path class="st16" d="M133.5,810.8c-1.2,0-2.2-0.2-3.1-0.7c-0.9-0.5-1.6-1.1-2.1-2c-0.5-0.8-0.7-1.8-0.7-2.9c0-1.1,0.2-2,0.7-2.9
				c0.5-0.8,1.1-1.5,2-2c0.8-0.5,1.8-0.7,2.8-0.7c1.1,0,2,0.2,2.8,0.7c0.8,0.5,1.4,1.1,1.9,2c0.5,0.8,0.7,1.8,0.7,3
				c0,0.1,0,0.2,0,0.3c0,0.1,0,0.2,0,0.3h-9.3v-1.4h8.3l-0.8,0.5c0-0.7-0.1-1.3-0.4-1.9c-0.3-0.5-0.7-1-1.2-1.3
				c-0.5-0.3-1.1-0.5-1.8-0.5c-0.7,0-1.3,0.2-1.8,0.5c-0.5,0.3-1,0.7-1.3,1.3s-0.5,1.2-0.5,1.9v0.3c0,0.7,0.2,1.4,0.5,1.9
				c0.3,0.6,0.8,1,1.4,1.3c0.6,0.3,1.3,0.5,2.1,0.5c0.6,0,1.2-0.1,1.8-0.3c0.5-0.2,1-0.5,1.4-1l1.1,1.3c-0.5,0.6-1.1,1-1.8,1.3
				C135.2,810.7,134.4,810.8,133.5,810.8z"/>
			<path class="st16" d="M141.2,810.7v-10.9h1.9v3l-0.2-0.7c0.3-0.8,0.8-1.3,1.5-1.7c0.7-0.4,1.6-0.6,2.6-0.6v1.9
				c-0.1,0-0.2,0-0.2,0c-0.1,0-0.1,0-0.2,0c-1.1,0-1.9,0.3-2.5,0.9c-0.6,0.6-0.9,1.5-0.9,2.7v5.4H141.2z"/>
		</g>
	</g>
	<g>
		<g>
			
				<image style="overflow:visible;opacity:0.25;" width="136" height="136" xlink:href="94114961.png"  transform="matrix(1 0 0 1 55.9693 652.8571)">
			</image>
			<g>
				<circle class="st4" cx="122.9" cy="719.5" r="37.4"/>
			</g>
		</g>
		<circle class="st17" cx="123.2" cy="719.9" r="35.4"/>
		<g>
			<g>
				
					<image style="overflow:visible;opacity:0.75;" width="180" height="182" xlink:href="94114963.png"  transform="matrix(1 0 0 1 39.9693 635.8571)">
				</image>
				<g>
					<g>
						<path class="st18" d="M138.7,736.7L138.7,736.7c-2.1,1.9-5.3,1.8-7.2-0.3l-24.2-26.2c-1.9-2.1-1.8-5.3,0.3-7.2l0,0
							c2.1-1.9,5.3-1.8,7.2,0.3l24.2,26.2C140.9,731.6,140.8,734.8,138.7,736.7z"/>
						
							<linearGradient id="SVGID_2_" gradientUnits="userSpaceOnUse" x1="1055.2668" y1="898.5897" x2="1069.8535" y2="921.1989" gradientTransform="matrix(3.921558e-02 -0.9992 0.9992 3.921558e-02 -832.6558 1748.8555)">
							<stop  offset="0.3604" style="stop-color:#F0592A;stop-opacity:0"/>
							<stop  offset="0.3909" style="stop-color:#F66B36;stop-opacity:6.110073e-02"/>
							<stop  offset="0.4233" style="stop-color:#FA763D;stop-opacity:0.1261"/>
							<stop  offset="0.4602" style="stop-color:#FB793F;stop-opacity:0.2"/>
							<stop  offset="0.8241" style="stop-color:#FFC39D"/>
						</linearGradient>
						<path class="st19" d="M138.7,736.7L138.7,736.7c-2.1,1.9-5.3,1.8-7.2-0.3l-24.1-26.1c-1.9-2.1-1.8-5.3,0.3-7.2h0
							c2.1-1.9,5.3-1.8,7.2,0.3l24.1,26.1C140.9,731.5,140.8,734.8,138.7,736.7z"/>
						
							<linearGradient id="SVGID_3_" gradientUnits="userSpaceOnUse" x1="1071.4366" y1="920.0406" x2="1067.9359" y2="916.8315" gradientTransform="matrix(3.921558e-02 -0.9992 0.9992 3.921558e-02 -832.6558 1748.8555)">
							<stop  offset="0" style="stop-color:#D35B36"/>
							<stop  offset="0.3562" style="stop-color:#FB824C"/>
							<stop  offset="0.5045" style="stop-color:#FD9867;stop-opacity:0.7696"/>
							<stop  offset="0.7043" style="stop-color:#FEAF85;stop-opacity:0.4593"/>
							<stop  offset="0.8765" style="stop-color:#FFBE97;stop-opacity:0.1919"/>
							<stop  offset="1" style="stop-color:#FFC39D;stop-opacity:0"/>
						</linearGradient>
						<path class="st20" d="M138.7,736.7L138.7,736.7c-2.1,1.9-5.3,1.8-7.2-0.3l-24.1-26.1c-1.9-2.1-1.8-5.3,0.3-7.2h0
							c2.1-1.9,5.3-1.8,7.2,0.3l24.1,26.1C140.9,731.6,140.8,734.8,138.7,736.7z"/>
						
							<linearGradient id="SVGID_4_" gradientUnits="userSpaceOnUse" x1="1057.2646" y1="890.0535" x2="1066.6001" y2="917.4763" gradientTransform="matrix(3.921558e-02 -0.9992 0.9992 3.921558e-02 -832.6558 1748.8555)">
							<stop  offset="0.3604" style="stop-color:#F0592A"/>
							<stop  offset="0.3909" style="stop-color:#F66B36"/>
							<stop  offset="0.4233" style="stop-color:#FA763D"/>
							<stop  offset="0.4602" style="stop-color:#FB793F"/>
							<stop  offset="0.8241" style="stop-color:#FFC39D;stop-opacity:0"/>
						</linearGradient>
						<path class="st21" d="M138.7,736.7L138.7,736.7c2.1-1.9,2.2-5.1,0.3-7.2l-24.1-26.1c-1.9-2.1-5.1-2.2-7.2-0.3h0
							c-2.1,1.9-2.2,5.1-0.3,7.2l24.1,26.1C133.4,738.5,136.6,738.6,138.7,736.7z"/>
						
							<linearGradient id="SVGID_5_" gradientUnits="userSpaceOnUse" x1="-596.9952" y1="-748.3528" x2="-600.496" y2="-751.5618" gradientTransform="matrix(-0.9992 -3.921570e-02 -3.921570e-02 0.9992 -508.6978 1449.3654)">
							<stop  offset="0" style="stop-color:#D35B36"/>
							<stop  offset="0.3562" style="stop-color:#FB824C"/>
							<stop  offset="0.5045" style="stop-color:#FD9867;stop-opacity:0.7696"/>
							<stop  offset="0.7043" style="stop-color:#FEAF85;stop-opacity:0.4593"/>
							<stop  offset="0.8765" style="stop-color:#FFBE97;stop-opacity:0.1919"/>
							<stop  offset="1" style="stop-color:#FFC39D;stop-opacity:0"/>
						</linearGradient>
						<path class="st22" d="M138.7,736.7L138.7,736.7c2.1-1.9,2.2-5.1,0.3-7.2l-24.1-26.1c-1.9-2.1-5.1-2.2-7.2-0.3l0,0
							c-2.1,1.9-2.2,5.1-0.3,7.2l24.1,26.1C133.4,738.5,136.6,738.7,138.7,736.7z"/>
					</g>
				</g>
			</g>
			<g>
				<path class="st18" d="M140,704.3L140,704.3c1.9,2.1,1.8,5.3-0.3,7.2l-26.2,24.2c-2.1,1.9-5.3,1.8-7.2-0.3h0
					c-1.9-2.1-1.8-5.3,0.3-7.2l26.2-24.2C134.8,702.1,138.1,702.2,140,704.3z"/>
				
					<linearGradient id="SVGID_6_" gradientUnits="userSpaceOnUse" x1="-2445.834" y1="1856.2385" x2="-2431.2476" y2="1878.8477" gradientTransform="matrix(-0.9992 -3.921570e-02 3.921570e-02 -0.9992 -2383.8384 2495.3108)">
					<stop  offset="0.3604" style="stop-color:#F0592A;stop-opacity:0"/>
					<stop  offset="0.3909" style="stop-color:#F66B36;stop-opacity:6.110073e-02"/>
					<stop  offset="0.4233" style="stop-color:#FA763D;stop-opacity:0.1261"/>
					<stop  offset="0.4602" style="stop-color:#FB793F;stop-opacity:0.2"/>
					<stop  offset="0.8241" style="stop-color:#FFC39D"/>
				</linearGradient>
				<path class="st23" d="M140,704.3L140,704.3c1.9,2.1,1.8,5.3-0.3,7.2l-26.1,24.1c-2.1,1.9-5.3,1.8-7.2-0.3l0,0
					c-1.9-2.1-1.8-5.3,0.3-7.2l26.1-24.1C134.8,702.1,138,702.3,140,704.3z"/>
				
					<linearGradient id="SVGID_7_" gradientUnits="userSpaceOnUse" x1="-2429.6643" y1="1877.6895" x2="-2433.165" y2="1874.4803" gradientTransform="matrix(-0.9992 -3.921570e-02 3.921570e-02 -0.9992 -2383.8384 2495.3108)">
					<stop  offset="0" style="stop-color:#D35B36"/>
					<stop  offset="0.3562" style="stop-color:#FB824C"/>
					<stop  offset="0.5045" style="stop-color:#FD9867;stop-opacity:0.7696"/>
					<stop  offset="0.7043" style="stop-color:#FEAF85;stop-opacity:0.4593"/>
					<stop  offset="0.8765" style="stop-color:#FFBE97;stop-opacity:0.1919"/>
					<stop  offset="1" style="stop-color:#FFC39D;stop-opacity:0"/>
				</linearGradient>
				<path class="st24" d="M140,704.3L140,704.3c1.9,2.1,1.8,5.3-0.3,7.2l-26.1,24.1c-2.1,1.9-5.3,1.8-7.2-0.3h0
					c-1.9-2.1-1.8-5.3,0.3-7.2l26.1-24.1C134.8,702.1,138.1,702.3,140,704.3z"/>
				
					<linearGradient id="SVGID_8_" gradientUnits="userSpaceOnUse" x1="-2443.8362" y1="1847.7024" x2="-2434.5007" y2="1875.1251" gradientTransform="matrix(-0.9992 -3.921570e-02 3.921570e-02 -0.9992 -2383.8384 2495.3108)">
					<stop  offset="0.3604" style="stop-color:#F0592A"/>
					<stop  offset="0.3909" style="stop-color:#F66B36"/>
					<stop  offset="0.4233" style="stop-color:#FA763D"/>
					<stop  offset="0.4602" style="stop-color:#FB793F"/>
					<stop  offset="0.8241" style="stop-color:#FFC39D;stop-opacity:0"/>
				</linearGradient>
				<path class="st25" d="M140,704.4L140,704.4c-1.9-2.1-5.1-2.2-7.2-0.3l-26.1,24.1c-2.1,1.9-2.2,5.1-0.3,7.2h0
					c1.9,2.1,5.1,2.2,7.2,0.3l26.1-24.1C141.8,709.7,141.9,706.4,140,704.4z"/>
				
					<linearGradient id="SVGID_9_" gradientUnits="userSpaceOnUse" x1="-1554.6522" y1="2752.7537" x2="-1558.153" y2="2749.5447" gradientTransform="matrix(-3.921558e-02 0.9992 0.9992 3.921558e-02 -2683.3286 2171.3528)">
					<stop  offset="0" style="stop-color:#D35B36"/>
					<stop  offset="0.3562" style="stop-color:#FB824C"/>
					<stop  offset="0.5045" style="stop-color:#FD9867;stop-opacity:0.7696"/>
					<stop  offset="0.7043" style="stop-color:#FEAF85;stop-opacity:0.4593"/>
					<stop  offset="0.8765" style="stop-color:#FFBE97;stop-opacity:0.1919"/>
					<stop  offset="1" style="stop-color:#FFC39D;stop-opacity:0"/>
				</linearGradient>
				<path class="st26" d="M140,704.3L140,704.3c-1.9-2.1-5.1-2.2-7.2-0.3l-26.1,24.1c-2.1,1.9-2.2,5.1-0.3,7.2l0,0
					c1.9,2.1,5.1,2.2,7.2,0.3l26.1-24.1C141.8,709.6,141.9,706.4,140,704.3z"/>
			</g>
		</g>
	</g>
	<path class="st27" d="M168.2,611l-22.3,14.2c-2,1.3-4.7,0.7-6-1.3l-8.7-13.7c-1.3-2-0.7-4.7,1.3-6l22.3-14.2c2-1.3,4.7-0.7,6,1.3
		l8.7,13.7C170.9,607,170.3,609.7,168.2,611z"/>
	<line class="st28" x1="155.1" y1="594" x2="158.3" y2="598.4"/>
	<line class="st28" x1="153" y1="596.2" x2="156.7" y2="603.4"/>
	<line class="st28" x1="147.9" y1="599.8" x2="150.4" y2="603.4"/>
	<line class="st28" x1="143.9" y1="601.6" x2="152" y2="612.9"/>
	<line class="st28" x1="139.1" y1="603.4" x2="147.5" y2="616.3"/>
	<line class="st28" x1="136.2" y1="607.6" x2="143.3" y2="619.4"/>
</g>
</svg>
