<?xml version="1.0" encoding="utf-8"?>
<!-- Generator: Adobe Illustrator 24.3.0, SVG Export Plug-In . SVG Version: 6.00 Build 0)  -->
<svg version="1.1" id="Layer_1" xmlns="http://www.w3.org/2000/svg" xmlns:xlink="http://www.w3.org/1999/xlink" x="0px" y="0px"
	 viewBox="0 0 890 180" style="enable-background:new 0 0 890 180;" xml:space="preserve">
<style type="text/css">
	.st0{fill:#E8E8E8;}
	.st1{fill:#3C0E40;}
	.st2{fill:url(#SVGID_1_);}
</style>
<path class="st0" d="M715.5,177.3H22.3C10,177.3,0,167.3,0,155L0,25C0,12.7,10,2.7,22.3,2.7H890v0
	C821.8,70.9,783.6,109.1,715.5,177.3z"/>
<g>
	<g>
		<path class="st1" d="M212.3,142.8c-7,0-13.5-1.1-19.4-3.4c-5.9-2.2-11.1-5.4-15.5-9.5c-4.4-4.1-7.8-9-10.3-14.7
			c-2.5-5.7-3.7-11.9-3.7-18.7c0-6.8,1.2-13,3.7-18.7c2.5-5.7,5.9-10.6,10.3-14.7c4.4-4.1,9.6-7.3,15.5-9.5
			c5.9-2.2,12.4-3.4,19.4-3.4c8.2,0,15.6,1.4,22,4.3c6.5,2.8,11.9,7,16.2,12.5l-16,14.5c-2.9-3.4-6.1-6-9.5-7.7
			c-3.5-1.8-7.3-2.7-11.4-2.7c-3.6,0-7,0.6-10,1.8c-3,1.2-5.7,2.9-7.8,5.1c-2.2,2.2-3.9,4.9-5.1,8.1c-1.2,3.1-1.8,6.6-1.8,10.4
			s0.6,7.3,1.8,10.4c1.2,3.1,2.9,5.8,5.1,8.1c2.2,2.2,4.8,4,7.8,5.1c3,1.2,6.4,1.8,10,1.8c4.1,0,8-0.9,11.4-2.7
			c3.5-1.8,6.6-4.4,9.5-7.9l16,14.5c-4.3,5.5-9.7,9.7-16.2,12.6C227.8,141.4,220.5,142.8,212.3,142.8z"/>
		<path class="st1" d="M305.4,70.9c5.3,0,10.2,1.1,14.5,3.3c4.3,2.2,7.7,5.5,10.2,10c2.5,4.5,3.7,10.3,3.7,17.4V141h-24.3v-35.4
			c0-4.9-1-8.5-3-10.7c-2-2.2-4.7-3.4-8.1-3.4c-2.6,0-5,0.6-7.1,1.7c-2.1,1.1-3.8,2.9-5,5.3c-1.2,2.4-1.8,5.5-1.8,9.4V141h-24.1
			V46.8h24.1v45l-5.6-5.7c2.6-4.9,6.2-8.7,10.8-11.2C294.5,72.2,299.6,70.9,305.4,70.9z"/>
		<path class="st1" d="M383.5,142.2c-7.5,0-14.2-1.5-20.1-4.6c-5.8-3-10.4-7.3-13.8-12.6c-3.3-5.4-5-11.5-5-18.3
			c0-6.9,1.7-13.1,5-18.5c3.3-5.4,7.9-9.6,13.8-12.6c5.8-3,12.5-4.6,20.1-4.6c7.5,0,14.2,1.5,20.1,4.6c5.9,3,10.5,7.3,13.8,12.6
			c3.3,5.4,5,11.5,5,18.5c0,6.9-1.7,13-5,18.3c-3.3,5.4-8,9.6-13.8,12.6C397.7,140.6,391,142.2,383.5,142.2z M383.5,123
			c2.7,0,5.1-0.6,7.3-1.9c2.2-1.3,3.9-3.2,5.2-5.7c1.3-2.5,2-5.5,2-9c0-3.6-0.7-6.5-2-8.9c-1.3-2.4-3-4.2-5.2-5.5
			c-2.2-1.3-4.6-1.9-7.3-1.9c-2.7,0-5.1,0.6-7.3,1.9c-2.2,1.3-3.9,3.1-5.2,5.5c-1.3,2.4-2,5.3-2,8.9c0,3.5,0.7,6.5,2,9
			c1.3,2.5,3,4.4,5.2,5.7C378.3,122.4,380.8,123,383.5,123z"/>
		<path class="st1" d="M445.6,64.6c-4.5,0-8.1-1.2-10.7-3.7c-2.7-2.5-4-5.5-4-9.1c0-3.6,1.3-6.7,4-9.1c2.7-2.4,6.2-3.6,10.7-3.6
			c4.4,0,8,1.1,10.7,3.4c2.7,2.3,4.1,5.2,4.1,8.8c0,3.8-1.3,7-4,9.5C453.6,63.3,450.1,64.6,445.6,64.6z M433.5,141v-69h24.1v69
			H433.5z"/>
		<path class="st1" d="M508.4,142.2c-7.7,0-14.5-1.5-20.4-4.6c-5.9-3-10.6-7.3-14-12.6c-3.4-5.4-5.1-11.5-5.1-18.3
			c0-6.9,1.7-13.1,5.1-18.4c3.4-5.3,8-9.5,14-12.6c5.9-3.1,12.7-4.6,20.4-4.6c7.8,0,14.5,1.7,20.2,5c5.7,3.3,9.7,8,12.1,13.9
			L522,99.5c-1.6-3.2-3.6-5.6-6-7c-2.4-1.5-5-2.2-7.7-2.2s-5.3,0.6-7.6,1.9c-2.2,1.3-4,3.1-5.4,5.5c-1.4,2.4-2,5.4-2,9
			c0,3.5,0.7,6.4,2,8.9c1.4,2.5,3.2,4.3,5.4,5.6c2.2,1.3,4.8,1.9,7.6,1.9s5.4-0.7,7.7-2.2c2.4-1.5,4.4-3.8,6-7l18.7,9.5
			c-2.4,5.9-6.4,10.6-12.1,13.9C522.9,140.5,516.2,142.2,508.4,142.2z"/>
		<path class="st1" d="M586,142.2c-8.2,0-15.3-1.5-21.4-4.6c-6.1-3.1-10.8-7.3-14.1-12.7c-3.3-5.4-5-11.4-5-18.2
			c0-6.9,1.6-13.1,4.9-18.5c3.3-5.4,7.7-9.6,13.5-12.6c5.7-3,12.2-4.6,19.5-4.6c6.8,0,12.9,1.4,18.5,4.3c5.5,2.8,10,6.9,13.3,12.2
			c3.3,5.3,5,11.7,5,19.4c0,0.8,0,1.8-0.1,2.9c-0.1,1.1-0.2,2.1-0.3,3h-54.5V100H607l-9.1,3.6c0.1-3-0.5-5.7-1.7-8.1
			c-1.2-2.3-2.9-4.1-5-5.4c-2.1-1.3-4.6-1.9-7.5-1.9c-3,0-5.5,0.6-7.7,1.9c-2.2,1.3-3.9,3.1-5,5.4c-1.1,2.3-1.7,5.1-1.7,8.2v3.7
			c0,3.4,0.7,6.3,2.1,8.8c1.4,2.5,3.4,4.3,6,5.7c2.6,1.3,5.8,2,9.4,2c3.5,0,6.4-0.5,8.8-1.5c2.4-1,4.7-2.5,7.1-4.5l12.6,13.3
			c-3.2,3.6-7.2,6.3-12.1,8.2C598.2,141.2,592.5,142.2,586,142.2z"/>
		<path class="st1" d="M661.3,142.2c-6.2,0-11.9-1.5-17-4.4c-5.2-2.9-9.2-7-12.3-12.3c-3-5.3-4.5-11.6-4.5-18.9
			c0-7.4,1.5-13.7,4.5-19c3-5.3,7.1-9.4,12.3-12.3c5.2-2.9,10.8-4.4,17-4.4c5.8,0,10.8,1.3,15,3.9c4.1,2.6,7.3,6.5,9.4,11.7
			c2.1,5.2,3.2,11.9,3.2,20.1s-1,14.8-3,20.1c-2,5.2-5,9.1-9.1,11.7C672.6,140.9,667.5,142.2,661.3,142.2z M666.4,123
			c2.7,0,5.1-0.6,7.3-1.9c2.2-1.3,3.9-3.2,5.1-5.7c1.3-2.5,1.9-5.4,1.9-8.8c0-3.6-0.6-6.6-1.9-9c-1.3-2.4-3-4.2-5.1-5.5
			c-2.2-1.3-4.6-1.9-7.3-1.9c-2.8,0-5.3,0.6-7.4,1.9c-2.2,1.3-3.9,3.1-5.1,5.5c-1.3,2.4-1.9,5.4-1.9,9c0,3.4,0.6,6.3,1.9,8.8
			c1.3,2.5,3,4.4,5.1,5.7C661.1,122.4,663.6,123,666.4,123z M681.5,141v-11.8l0.1-22.7l-1.3-22.7v-37h24.1V141H681.5z"/>
	</g>
</g>
<linearGradient id="SVGID_1_" gradientUnits="userSpaceOnUse" x1="19.9786" y1="84.8075" x2="148.8478" y2="84.8075">
	<stop  offset="0.1056" style="stop-color:#E75D56"/>
	<stop  offset="0.4676" style="stop-color:#9C3B4C"/>
	<stop  offset="0.8302" style="stop-color:#571B44"/>
	<stop  offset="1" style="stop-color:#3C0E40"/>
</linearGradient>
<path class="st2" d="M26.8,65.4L56.7,60c2.7-0.5,5-2.3,6.1-4.8l12.4-27.8c2.8-6.3,11.7-6.6,15-0.6l14.5,26.8c1.3,2.4,3.7,4,6.4,4.3
	l30.2,3.3c6.9,0.7,9.9,9,5.1,14l-21,22c-1.9,2-2.7,4.8-2.1,7.5l6.2,29.8c1.4,6.8-5.5,12.2-11.8,9.2l-27.4-13.1
	c-2.5-1.2-5.4-1.1-7.8,0.3L56.3,146c-6,3.4-13.3-1.5-12.4-8.3l4-30.1c0.4-2.7-0.6-5.4-2.7-7.3L22.7,79.8
	C17.6,75.2,20,66.7,26.8,65.4z"/>
</svg>
