<?xml version="1.0" encoding="utf-8"?>
<!-- Generator: Adobe Illustrator 24.3.0, SVG Export Plug-In . SVG Version: 6.00 Build 0)  -->
<svg version="1.1" id="Layer_1" xmlns="http://www.w3.org/2000/svg" xmlns:xlink="http://www.w3.org/1999/xlink" x="0px" y="0px"
	 viewBox="0 0 890 869" style="enable-background:new 0 0 890 869;" xml:space="preserve">
<style type="text/css">
	.st0{display:none;}
	.st1{display:inline;}
	.st2{fill:#894818;stroke:#1F1F1F;stroke-width:4.5;stroke-linecap:round;stroke-linejoin:round;}
	.st3{fill:#8C9EFF;}
	.st4{fill:none;stroke:#FFFFFF;stroke-width:1.9999;stroke-miterlimit:9.9996;}
	.st5{fill:#1F1F1F;stroke:#1F1F1F;stroke-width:4.5;stroke-linecap:round;stroke-linejoin:round;}
	.st6{stroke:#1F1F1F;stroke-width:4.5;stroke-linecap:round;stroke-linejoin:round;}
	.st7{fill:#3C0E40;stroke:#3C2370;stroke-width:4.5;stroke-miterlimit:10;}
	.st8{fill:none;stroke:#1F1F1F;stroke-width:4.5;stroke-linecap:round;stroke-linejoin:round;}
	.st9{fill:#FFFFFF;stroke:#000000;stroke-width:4.5;stroke-miterlimit:10;}
	.st10{fill:#0096D6;}
</style>
<g class="st0">
	<g class="st1">
		<g>
			<path class="st2" d="M210.6,553.4c-7.3-0.5-13.7,2.6-23.2,4.9s-20.6,5.9-28.5,13c-9,8.2-2.2,21,6,19.4c7.4-1.4,9.5-6.2,17.9-10.6
				c8.4-4.4,14.6-7.1,21.8-8.2c6.1-0.9,14.1-4.4,15-8.4C220.8,558.5,219,553.9,210.6,553.4L210.6,553.4z"/>
			<path class="st2" d="M150.4,562.6c0.2,9.9,11.7,14.1,20.6,7.4c8.9-6.7,32.9-15.3,41.8-14.1c5.4,0.7,16.7,0.6,20.3-2.5
				c4.5-3.7,3.7-13.4-5.4-15.8c-10.7-2.9-29.5-2.2-45.6,2.2C160.5,545.7,150.1,552.6,150.4,562.6z"/>
			<path class="st2" d="M182.3,520.4c-19.2,5.3-28.4,11.5-28.2,20.3s10.4,12.6,18.3,6.6s29.3-13.7,37.3-12.6
				c4.9,0.7,14.8,0.5,18.1-2.2c4-3.3,3.3-11.9-4.9-14.1C213.3,515.8,196.6,516.4,182.3,520.4L182.3,520.4z"/>
		</g>
		<path class="st2" d="M161.4,520.6c-52.1,34.2-71.6,121.8-52.8,194.5c14.3,55.3,47.7,96.2,94,115.2c30.9,12.7,84.8,18.1,133.1-17.8
			c31.9-23.7,59.8-53.8,74-77.5l1.4-2.4c-8.4-7.5-17.3-14.3-26.8-20.4c-31.8-20.5-54.8-29.5-75.5-31c-1.9,3.2-3.8,6-5.5,8.2
			c-20.7,27.8-38.5,57.1-77.3,53.4c-32.2-3.1-49.5-32.9-61.8-60c-13.2-29.1-14.6-49-14.6-49s22.5-30.4,21.2-63.5
			c0,0,21.8-21.2,35.4-33.3c6.2-5.5,5.7-14.8,0-17.9c0,0,5.2-3.6,11-8.4c7.3-6,3.3-15-7.3-14.1C200.6,497.4,180.6,508,161.4,520.6
			L161.4,520.6z"/>
	</g>
	<g class="st1">
		
			<rect x="149.9" y="442.4" transform="matrix(0.8787 -0.4773 0.4773 0.8787 -211.2352 132.1128)" class="st3" width="9" height="78.7"/>
		
			<rect x="229.9" y="589.6" transform="matrix(0.8787 -0.4773 0.4773 0.8787 -271.7891 188.1452)" class="st3" width="9" height="78.7"/>
		
			<ellipse transform="matrix(0.8787 -0.4773 0.4773 0.8787 -257.1586 174.6137)" class="st3" cx="215.1" cy="593.4" rx="12" ry="10.4"/>
		
			<rect x="188.5" y="513.5" transform="matrix(0.8787 -0.4773 0.4773 0.8787 -240.4892 159.1767)" class="st3" width="9" height="78.7"/>
		
			<ellipse transform="matrix(0.8787 -0.4773 0.4773 0.8787 -225.8408 145.665)" class="st3" cx="173.8" cy="517.3" rx="12" ry="10.4"/>
		
			<ellipse transform="matrix(0.8787 -0.4773 0.4773 0.8787 -196.6176 118.6492)" class="st3" cx="135.2" cy="446.3" rx="12" ry="10.4"/>
		
			<rect x="108.6" y="366.3" transform="matrix(0.8787 -0.4773 0.4773 0.8787 -179.9018 103.1805)" class="st3" width="9" height="78.7"/>
		
			<ellipse transform="matrix(0.8787 -0.4773 0.4773 0.8787 -165.3333 89.6643)" class="st3" cx="93.8" cy="370.2" rx="12" ry="10.4"/>
		
			<ellipse transform="matrix(0.8787 -0.4773 0.4773 0.8787 -257.1586 174.6137)" class="st4" cx="215.1" cy="593.4" rx="5.7" ry="5"/>
		
			<ellipse transform="matrix(0.8787 -0.4773 0.4773 0.8787 -225.4402 145.2691)" class="st4" cx="173.2" cy="516.3" rx="5.7" ry="5"/>
		
			<ellipse transform="matrix(0.8787 -0.4773 0.4773 0.8787 -196.6176 118.6492)" class="st4" cx="135.2" cy="446.3" rx="5.7" ry="5"/>
		
			<ellipse transform="matrix(0.8787 -0.4773 0.4773 0.8787 -285.9834 201.3026)" class="st3" cx="253.2" cy="663.5" rx="12" ry="10.4"/>
		
			<ellipse transform="matrix(0.8787 -0.4773 0.4773 0.8787 -285.9839 201.3032)" class="st4" cx="253.2" cy="663.5" rx="5.7" ry="5"/>
		<ellipse transform="matrix(0.8787 -0.4773 0.4773 0.8787 -164.8993 89.3046)" class="st4" cx="93.3" cy="369.2" rx="5.7" ry="5"/>
	</g>
	<g class="st1">
		<path class="st5" d="M265,674.4c-1.9,24.4,22.9,55.6,51.8,75.8c47.5,33.1,83.1,31.5,83.1,31.5c16.2-0.9,26.2-7.3,26.2-21.2
			s-26.6-43.8-58.9-64.7c-37.3-24.1-62.5-32.2-86.1-31.1C271.3,665.2,266.2,666.8,265,674.4L265,674.4z"/>
		<path class="st5" d="M722.7,735.4c6.2-1.3,35.3-8.5,70.2-31.8c28.7-19.1,43.8-45.6,40.7-66.9c-5-18.5-47.1-9-67.9-0.6
			c-23.1,9.3-50.5,23.4-64.2,32.4L722.7,735.4z"/>
		<g>
			<path class="st6" d="M569.9,351.4c4.4-21.2,16.9-34.8,34.7-38.6c24-5.1,42.6,12.7,46.2,34.7c3.8,23.3-6.6,37.9-11.4,44.7
				c-9.2,13.2-27.1,24.8-46,15.5C573.2,397.7,564.9,375.6,569.9,351.4L569.9,351.4z"/>
			<path class="st2" d="M425.9,382.4c-3.6,4-1.7,7.6,3.7,9.3c2.4,0.7,4.8,1.1,7.3,1.3c0,0,4.6,21.4,9.9,31.7
				c5.3,10.3,18.6,4.4,30.2,4.4s16.9-1.7,16.9-1.7s4.9,5.1,3.9,23.9c-1.2,21.8-9.5,30.7-9.5,30.7s-16.4-2.3-26.1-3.4
				c20.4,16.8,57.6,39.8,91.9,36.3c44.7-4.6,64.3-38.5,66.4-58.6c-7.7,2.4-15.3,5.3-22.7,8.6c-14.9-10.3-31.1-26.1-37.4-41.7
				c-6.3-15.6-3.7-26.5,2.3-45.4c6-18.8,8.6-30.1,6.3-51.3c-2.4-22-13-36.8-29.5-48.7c-15.6-11.3-35.1-13.2-54.6-8.9
				c-19.5,4.3-39.1,19.2-48,36.7s-8.2,41.5-6.2,51.8s2.9,14.2-0.8,18.2L425.9,382.4z M708.5,688.7L753.7,832
				c31-8.5,59.9-29.5,69.2-69.2c8.7-37.3-18.4-99.5-34.9-132.5c-7.3,1.7-14.4,4-21.4,6.7c-23.1,9.3-50.5,23.4-64.2,32.4L708.5,688.7
				L708.5,688.7z"/>
			<path class="st6" d="M456,345.5c11,3.1,17.2,0.4,19.4-6.2c2.2-6.6,7.9-18.2,20.4-14.5c9.9,3,15.8,16.5,12.9,30.5
				c-3,14.4,0.3,32.9,7.9,40.1c10.3,9.6,29.5,11.1,41.8,6.9c0.5-7.4,2.7-15.2,5.8-25.1c6-18.8,8.6-30.1,6.3-51.3
				c-2.4-22-13-36.8-29.5-48.7c-15.6-11.3-35.1-13.2-54.6-8.9c-19.5,4.3-39.1,19.2-48,36.7c-3.4,6.9-5.3,14.4-5.4,22.1
				C438.3,334.7,446.8,343,456,345.5z"/>
			<ellipse cx="449.3" cy="359.9" rx="5.7" ry="7.7"/>
			<path class="st2" d="M492.2,346.3c3.2,6.4,1.2,13.3-3.3,15.8c-4.1,2.3-9,0.1-9.6-0.2"/>
			<path class="st2" d="M455,407.8c-6,3.1-11.3,3-13,0.7c-0.3-0.5-2.2-2.1-1.9-3.9"/>
		</g>
		<path class="st7" d="M792.9,703.6c-39.7,26.5-70.2,31.8-70.2,31.8l42.4,135H393l6.9-88.7c0,0-35.6,1.6-83.1-31.5
			c-32.8-22.8-60.3-59.9-49.7-85.1c10.6-25.2,29.2-58.3,58.3-116.5c29.1-58.3,51.6-75.5,96.7-74.2c45,1.3,115.2,14.6,115.2,14.6
			s23.8-9.3,59.6-25.2s75.5-23.8,113.9,4S806.4,581,830,625.5C841.8,648,826.9,680.9,792.9,703.6z"/>
	</g>
	<g class="st1">
		<path class="st8" d="M146.4,553.6c0,0,37.1-27.1,43.7-31.8c6.6-4.6,10.6-7.3,16.6-4.2"/>
		<path class="st2" d="M146.4,553.6l52.2-36.8c0,0,19.3,0.4,8.1,19.7L170.9,570c0,0-2.5,35.8-13.2,50.5"/>
	</g>
</g>
<g>
	<g>
		<path class="st2" d="M655.9,545.4c-8.4,0.5-10.2,5.1-9.1,10.1c0.9,4,8.9,7.5,15,8.4c7.3,1.1,13.5,3.7,21.8,8.2s10.5,9.2,17.9,10.6
			c8.2,1.5,15-11.3,6-19.4c-7.8-7.1-19-10.8-28.5-13C669.5,548,663.2,544.9,655.9,545.4L655.9,545.4z"/>
		<path class="st2" d="M684.4,531.7c-16.1-4.4-34.9-5.1-45.6-2.2c-9.2,2.5-9.9,12.1-5.4,15.8c3.7,3,14.9,3.2,20.3,2.5
			c9-1.2,32.9,7.4,41.8,14.1c8.9,6.7,20.3,2.5,20.6-7.4C716.4,544.6,706,537.6,684.4,531.7z"/>
		<path class="st2" d="M684.2,512.3c-14.3-4-31.1-4.6-40.6-2c-8.2,2.2-8.8,10.8-4.9,14.1c3.3,2.7,13.2,2.9,18.1,2.2
			c8-1.1,29.4,6.6,37.3,12.6c7.9,6,18.1,2.2,18.3-6.6C712.7,523.8,703.4,517.6,684.2,512.3L684.2,512.3z"/>
	</g>
	<path class="st2" d="M705.1,512.6c-19.2-12.6-39.3-23.3-48.6-24.1c-10.6-0.9-14.6,8.2-7.3,14.1c5.9,4.8,11,8.4,11,8.4
		c-5.7,3.1-6.2,12.4,0,17.9c13.6,12.1,35.4,33.3,35.4,33.3c-1.3,33.1,21.2,63.5,21.2,63.5s-1.3,19.9-14.6,49
		c-12.3,27.1-29.6,56.9-61.8,60c-38.7,3.7-56.5-25.6-77.3-53.4c-1.7-2.3-3.5-5.1-5.5-8.2c-20.7,1.5-43.7,10.5-75.5,31
		c-9.4,6.1-18.4,12.9-26.8,20.4l1.4,2.4c14.1,23.7,42.1,53.8,74,77.5c48.3,35.9,102.1,30.5,133.1,17.8c46.3-19,79.7-59.9,94-115.2
		C776.7,634.3,757.2,546.7,705.1,512.6L705.1,512.6z"/>
</g>
<g>
	<path class="st9" d="M591.1,579.5L490.7,434.2c-11.3-16.4-7.2-38.8,9.2-50.1l54.7-37.7c16.4-11.3,38.8-7.2,50.1,9.2L705,500.9
		c11.3,16.4,7.2,38.8-9.2,50.1l-54.7,37.7C624.8,600,602.4,595.9,591.1,579.5z"/>
	<path class="st10" d="M561.9,492.4c-0.2-0.4-0.5-0.7-0.7-1.1l25.3-6.6l7,10.1c1.2,1.8,3.9,2.8,6,2.2l27.4-7.1
		c4.5-1.2,6-5.3,3.4-9.1l-9.7-14l-40.5,10.6l0,0l-22.9,6c-7.2-18.4-1.1-40,15.9-51.8c16.5-11.4,38.1-9.9,52.8,2.3l-23.7,6.2l0,0
		l-39.4,10.3l5.3,7.6l33.4-8.7l4,5.7l-33.4,8.7l5.3,7.6l31.2-8.1c4.5-1.2,6-5.3,3.4-9.1l-4.4-6.4l25.3-6.6c0.4,0.5,0.8,1,1.2,1.6
		c13.7,19.9,8.7,47.1-11.1,60.8C602.8,517.2,575.6,512.3,561.9,492.4z M623.9,481.7l-4-5.7l-27.5,7.2l4,5.7L623.9,481.7z"/>
</g>
<g>
	<path class="st8" d="M659.8,509.6c6-3.1,9.9-0.4,16.6,4.2c6.6,4.6,43.7,31.8,43.7,31.8"/>
	<path class="st2" d="M720.1,545.5l-52.2-36.8c0,0-19.3,0.4-8.1,19.7l35.8,33.5c0,0,2.5,35.8,13.2,50.5"/>
</g>
<g>
	<path class="st5" d="M601.5,666.4c-1.2-7.6-6.4-9.2-16.1-9.7c-23.6-1.1-48.7,7.1-86.1,31.1c-32.4,20.9-58.9,50.8-58.9,64.7
		s10,20.2,26.2,21.2c0,0,35.6,1.6,83.1-31.5C578.6,722,603.4,690.7,601.5,666.4L601.5,666.4z"/>
	<path class="st5" d="M165,660.5c-13.7-9.1-41.1-23.2-64.2-32.4c-20.8-8.3-62.9-17.9-67.9,0.6c-3.1,21.3,12,47.8,40.7,66.9
		c34.9,23.3,63.9,30.4,70.2,31.8L165,660.5z"/>
	<g>
		<path class="st6" d="M296.6,343.4c5,24.2-3.2,46.3-23.6,56.3c-18.9,9.3-36.8-2.3-46-15.5c-4.7-6.8-15.2-21.4-11.4-44.7
			c3.6-22,22.2-39.9,46.2-34.7C279.6,308.6,292.2,322.2,296.6,343.4L296.6,343.4z"/>
		<path class="st2" d="M436.6,367.6c-3.6-4-2.7-7.9-0.8-18.2c2-10.3,2.7-34.3-6.2-51.8c-8.9-17.5-28.5-32.4-48-36.7
			c-19.5-4.3-39.1-2.3-54.6,8.9c-16.5,11.9-27.1,26.6-29.5,48.7c-2.3,21.2,0.3,32.5,6.3,51.3s8.6,29.8,2.3,45.4
			c-6.3,15.6-22.5,31.4-37.4,41.7c-7.4-3.3-14.9-6.2-22.7-8.6c2.1,20.1,21.6,54,66.4,58.6c34.2,3.5,71.4-19.6,91.9-36.3
			c-9.7,1.1-26.1,3.4-26.1,3.4s-8.3-8.8-9.5-30.7c-1-18.9,3.9-23.9,3.9-23.9s5.3,1.7,16.9,1.7c11.6,0,24.9,5.8,30.2-4.4
			c5.3-10.3,9.9-31.7,9.9-31.7c2.5-0.2,4.9-0.6,7.3-1.3c5.3-1.6,7.3-5.3,3.7-9.3L436.6,367.6z M158,680.7l6.1-19.2
			c-13.7-9.1-41.1-23.2-64.2-32.4c-7-2.7-14.1-5-21.4-6.7c-16.5,33-43.6,95.1-34.9,132.5c9.3,39.7,38.2,60.6,69.2,69.2L158,680.7
			L158,680.7z"/>
		<path class="st6" d="M433.3,319.1c-0.1-7.7-2-15.2-5.4-22.1c-8.9-17.5-28.5-32.4-48-36.7c-19.5-4.3-39.1-2.3-54.6,8.9
			c-16.5,11.9-27.1,26.6-29.5,48.7c-2.3,21.2,0.3,32.5,6.3,51.3c3.2,10,5.4,17.7,5.8,25.1c12.3,4.2,31.5,2.7,41.8-6.9
			c7.6-7.2,11-25.7,7.9-40.1c-2.9-14,3-27.5,12.9-30.5c12.5-3.7,18.2,7.8,20.4,14.5c2.2,6.6,8.4,9.3,19.4,6.2
			C419.7,334.9,428.2,326.6,433.3,319.1z"/>
		<ellipse cx="417.2" cy="351.8" rx="5.7" ry="7.7"/>
		<path class="st2" d="M374.3,338.3c-3.2,6.4-1.2,13.3,3.3,15.8c4.1,2.3,9,0.1,9.6-0.2"/>
		<path class="st2" d="M411.5,399.7c6,3.1,11.3,3,13,0.7c0.3-0.5,2.2-2.1,1.9-3.9"/>
	</g>
	<path class="st7" d="M36.5,617.4c23.5-44.5,80.8-129.8,119.2-157.6s78.1-19.9,113.9-4s59.6,25.2,59.6,25.2s70.2-13.2,115.2-14.6
		s67.5,15.9,96.7,74.2c29.1,58.3,47.7,91.4,58.3,116.5c10.6,25.2-16.9,62.2-49.7,85.1c-47.5,33.1-83.1,31.5-83.1,31.5l6.9,88.7
		H101.4l42.4-135c0,0-30.5-5.3-70.2-31.8C39.6,672.9,24.7,639.9,36.5,617.4z"/>
</g>
</svg>
