<?xml version="1.0" encoding="utf-8"?>
<!-- Generator: Adobe Illustrator 24.3.0, SVG Export Plug-In . SVG Version: 6.00 Build 0)  -->
<svg version="1.1" id="Layer_1" xmlns="http://www.w3.org/2000/svg" xmlns:xlink="http://www.w3.org/1999/xlink" x="0px" y="0px"
	 viewBox="0 0 890 869" style="enable-background:new 0 0 890 869;" xml:space="preserve">
<style type="text/css">
	.st0{clip-path:url(#SVGID_2_);fill:#8C4819;stroke:#1F1F1F;stroke-width:4.5;stroke-linecap:round;stroke-linejoin:round;}
	.st1{clip-path:url(#SVGID_2_);fill:none;stroke:#1F1F1F;stroke-width:4.5;stroke-linecap:round;stroke-linejoin:round;}
	.st2{clip-path:url(#SVGID_2_);fill:#3C0E40;stroke:#3C2370;stroke-width:4.5;stroke-miterlimit:10;}
	.st3{clip-path:url(#SVGID_2_);fill:#222729;stroke:#000000;stroke-width:4.5;stroke-linecap:round;stroke-linejoin:round;}
	.st4{clip-path:url(#SVGID_2_);fill:#1F1F1F;stroke:#1F1F1F;stroke-width:4.5;stroke-linecap:round;stroke-linejoin:round;}
	.st5{clip-path:url(#SVGID_2_);fill:#FFFFFF;stroke:#1F1F1F;stroke-width:4.5;stroke-linecap:round;stroke-linejoin:round;}
	.st6{clip-path:url(#SVGID_2_);fill:#FFDF99;stroke:#FFDF99;stroke-width:4.5;stroke-miterlimit:10;}
</style>
<g>
	<defs>
		<rect id="SVGID_1_" width="889.3" height="868.8"/>
	</defs>
	<clipPath id="SVGID_2_">
		<use xlink:href="#SVGID_1_"  style="overflow:visible;"/>
	</clipPath>
	<path class="st0" d="M673,519.2c-8.8,0.5-10.6,5.4-9.5,10.6c0.9,4.2,9.3,7.8,15.7,8.8c7.6,1.2,14.1,3.9,22.9,8.5
		c8.8,4.6,11,9.6,18.7,11.1c8.5,1.6,15.7-11.8,6.2-20.3c-8.2-7.4-19.9-11.3-29.8-13.6S680.6,518.7,673,519.2L673,519.2z"/>
	<path class="st0" d="M701.6,504.2c-15-4.1-32.5-4.8-42.5-2.1c-8.5,2.3-9.2,11.3-5.1,14.8c3.4,2.8,13.9,3,18.9,2.3
		c8.3-1.1,30.7,6.9,39,13.2s18.9,2.3,19.2-6.9S721.7,509.7,701.6,504.2z"/>
	<path class="st0" d="M702.6,484.7c-15-4.1-32.5-4.8-42.5-2.1c-8.5,2.3-9.2,11.3-5.1,14.8c3.4,2.8,13.9,3,18.9,2.3
		c8.3-1.1,30.7,6.9,39,13.2s18.9,2.3,19.2-6.9S722.7,490.2,702.6,484.7L702.6,484.7z"/>
	<path class="st1" d="M681.3,378.6v172.8"/>
	<path class="st2" d="M6.5,610.2C31.1,563.7,91,474.5,131.2,445.3c40.2-29.1,81.8-20.8,119.2-4.2s62.4,26.3,62.4,26.3
		s73.4-13.9,120.5-15.2s70.7,16.6,101.2,77.6c30.5,61,49.9,95.6,61,121.9s-17.7,65.1-52,89c-49.7,34.6-86.9,32.9-86.9,32.9l7.3,92.8
		H74.4l44.3-141.3c0,0-31.9-5.5-73.4-33.2C9.7,668.2-5.9,633.7,6.5,610.2z"/>
	<path class="st3" d="M205,241.6c18.7-19.8,43.6-26,65.1-13.5c19.9,11.6,20.4,35.3,14.2,52c-3.2,8.6-10,27.4-33.3,38.5
		c-22,10.5-49.5,4.5-59.6-20.8C184,279,188.6,258.9,205,241.6L205,241.6z"/>
	<path class="st4" d="M597.7,661.4c-1.2-7.9-6.7-9.7-16.8-10.2c-24.7-1.2-51,7.4-90.1,32.6c-33.9,21.8-61.7,53.1-61.7,67.7
		s10.4,21.2,27.4,22.2c0,0,37.3,1.7,86.9-32.9C573.7,719.7,599.6,686.9,597.7,661.4L597.7,661.4z"/>
	<path class="st0" d="M724,483.4c-20.1-13.2-41.1-24.4-50.8-25.2c-11.1-0.9-15.2,8.5-7.6,14.8c6.2,5,11.5,8.8,11.5,8.8
		c-6,3.2-6.5,13,0,18.8c14.2,12.6,37,34.8,37,34.8c-1.4,34.6,22.2,66.5,22.2,66.5s-1.4,20.8-15.2,51.3
		c-12.9,28.3-30.9,59.6-64.7,62.8c-40.5,3.9-59.1-26.8-80.8-55.9c-1.8-2.4-3.7-5.3-5.7-8.6c-21.7,1.6-45.7,10.9-79,32.4
		c-9.9,6.4-19.2,13.5-28,21.3l1.5,2.5c14.8,24.8,44.1,56.3,77.4,81.1c50.5,37.6,106.8,31.9,139.2,18.7
		c48.5-19.9,83.4-62.7,98.4-120.5C798.9,610.8,778.5,519.1,724,483.4L724,483.4z"/>
	<path class="st1" d="M433.2,579.7l-4.1,171.8"/>
	<path class="st4" d="M140.9,655.2c-14.4-9.5-43-24.2-67.2-34c-21.7-8.7-65.8-18.7-71,0.7c-3.3,22.3,12.6,50,42.6,70
		c36.5,24.3,66.9,31.8,73.4,33.2L140.9,655.2z"/>
	<path class="st1" d="M170,563.8l-29.1,91.5"/>
	<path class="st0" d="M427,345.9c-3.8-4.1-7.6-12.1-5.5-22.9s6.6-30.1-2.8-48.5s-29.8-33.9-50.2-38.4s-40.9-2.4-57.1,9.4
		c-17.2,12.5-28.3,27.9-30.8,50.9c-2.4,22.2,0.3,34,6.6,53.7s9,31.2,2.4,47.5s-23.5,32.9-39.1,43.6c-7.7-3.5-15.6-6.5-23.7-9
		c2.2,21,22.6,56.5,69.4,61.3c35.8,3.7,74.7-20.5,96.1-38c-10.2,1.1-27.3,3.6-27.3,3.6s-8.7-9.2-9.9-32.1c-1-19.7,4.5-32.6,4.5-32.6
		s5.5,1.7,17.7,1.7s22.9-2.8,28.4-13.5c5.5-10.7,10-25.6,10-25.6c2.6-0.2,5.1-0.7,7.6-1.4C428.8,353.9,430.8,350,427,345.9
		L427,345.9z M134.5,675.3l6.4-20.1c-14.4-9.5-43-24.2-67.2-34c-7.3-2.9-14.7-5.2-22.3-7c-17.3,34.6-45.7,99.5-36.5,138.6
		c9.7,41.6,40,63.5,72.4,72.4L134.5,675.3L134.5,675.3z"/>
	<path class="st3" d="M424.4,297.6c-0.1-8-2.1-15.9-5.7-23.1c-9.4-18.4-29.8-33.9-50.2-38.4s-40.9-2.4-57.1,9.4
		c-17.2,12.5-28.3,27.9-30.8,50.9c-2.4,22.2,0.3,34,6.6,53.7c3.3,10.5,5.6,18.6,6.1,26.3c12.9,4.4,33,2.8,43.8-7.3
		c8-7.5,11.5-26.9,8.3-41.9c-3.1-14.6,3.1-28.8,13.5-31.9c13.1-3.9,19.1,8.2,21.4,15.1c2.3,6.9,8.8,9.7,20.3,6.5
		C410.1,314.2,418.9,305.5,424.4,297.6z"/>
	<path class="st4" d="M410.9,329c0.3-1.6,0.1-2.9-0.5-3s-1.2,1.1-1.5,2.7c-0.3,1.6-0.1,2.9,0.5,3S410.7,330.6,410.9,329z"/>
	<path class="st5" d="M681.3,585.4c9.4,0,17-7.6,17-17s-7.6-17-17-17s-17,7.6-17,17S671.9,585.4,681.3,585.4z"/>
	<path class="st1" d="M677.1,481.8c6.2-3.2,10.4-0.5,17.3,4.4s45.7,33.3,45.7,33.3"/>
	<line class="st1" x1="681.3" y1="448.8" x2="681.3" y2="480.4"/>
	<path class="st6" d="M684.8,220.2l-3.5,3.5l-3.5-3.5c-13.5-13.7-35.5-13.8-49.2-0.3c-0.1,0.1-0.2,0.2-0.3,0.3
		c-13.7,13.5-13.8,35.5-0.3,49.2c0.1,0.1,0.2,0.2,0.3,0.3l53,53l53-53c13.7-13.5,13.8-35.5,0.3-49.2c-0.1-0.1-0.2-0.2-0.3-0.3
		c-13.5-13.7-35.5-13.8-49.2-0.3C685,220,684.9,220.1,684.8,220.2z"/>
	<path class="st6" d="M681.3,133.7c-69.9,0-126.7,56.8-126.7,126.7s56.8,126.7,126.7,126.7S808,330.2,808,260.4
		S751.1,133.7,681.3,133.7z M681.3,361.7c-55.9,0-101.4-45.5-101.4-101.4S625.4,159,681.3,159s101.4,45.5,101.4,101.4
		S737.2,361.7,681.3,361.7z"/>
	<path class="st1" d="M808,260.4c0-69.9-56.8-126.7-126.7-126.7"/>
	<path class="st3" d="M675.9,131.6"/>
</g>
</svg>
