<?xml version="1.0" encoding="utf-8"?>
<!-- Generator: Adobe Illustrator 24.3.0, SVG Export Plug-In . SVG Version: 6.00 Build 0)  -->
<svg version="1.1" id="Layer_1" xmlns="http://www.w3.org/2000/svg" xmlns:xlink="http://www.w3.org/1999/xlink" x="0px" y="0px"
	 viewBox="0 0 890 869" style="enable-background:new 0 0 890 869;" xml:space="preserve">
<style type="text/css">
	.st0{fill:#894818;stroke:#1F1F1F;stroke-width:4.5;stroke-linecap:round;stroke-linejoin:round;}
	.st1{fill:#FFDF99;stroke:#FFCB82;stroke-width:4.5;stroke-linecap:round;stroke-linejoin:round;}
	.st2{fill:none;stroke:#1F1F1F;stroke-width:4.5;stroke-linecap:round;stroke-linejoin:round;}
	.st3{fill:#1F1F1F;stroke:#1F1F1F;stroke-width:4.5;stroke-linecap:round;stroke-linejoin:round;}
	.st4{stroke:#1F1F1F;stroke-width:4.5;stroke-linecap:round;stroke-linejoin:round;}
	.st5{fill:#3C0E40;stroke:#3C2370;stroke-width:4.5;stroke-miterlimit:10;}
</style>
<g>
	<g>
		<g>
			<path class="st0" d="M655.9,545.4c-8.4,0.5-10.2,5.1-9.1,10.1c0.9,4,8.9,7.5,15,8.4c7.3,1.1,13.5,3.7,21.8,8.2
				s10.5,9.2,17.9,10.6c8.2,1.5,15-11.3,6-19.4c-7.8-7.1-19-10.8-28.5-13C669.5,548,663.2,544.9,655.9,545.4L655.9,545.4z"/>
			<path class="st0" d="M684.4,531.7c-16.1-4.4-34.9-5.1-45.6-2.2c-9.2,2.5-9.9,12.1-5.4,15.8c3.7,3,14.9,3.2,20.3,2.5
				c9-1.2,32.9,7.4,41.8,14.1c8.9,6.7,20.3,2.5,20.6-7.4C716.4,544.6,706,537.6,684.4,531.7z"/>
			<path class="st0" d="M684.2,512.3c-14.3-4-31.1-4.6-40.6-2c-8.2,2.2-8.8,10.8-4.9,14.1c3.3,2.7,13.2,2.9,18.1,2.2
				c8-1.1,29.4,6.6,37.3,12.6c7.9,6,18.1,2.2,18.3-6.6C712.7,523.8,703.4,517.6,684.2,512.3L684.2,512.3z"/>
		</g>
		<path class="st0" d="M705.1,512.6c-19.2-12.6-39.3-23.3-48.6-24.1c-10.6-0.9-14.6,8.2-7.3,14.1c5.9,4.8,11,8.4,11,8.4
			c-5.7,3.1-6.2,12.4,0,17.9c13.6,12.1,35.4,33.3,35.4,33.3c-1.3,33.1,21.2,63.5,21.2,63.5s-1.3,19.9-14.6,49
			c-12.3,27.1-29.6,56.9-61.8,60c-38.7,3.7-56.5-25.6-77.3-53.4c-1.7-2.3-3.5-5.1-5.5-8.2c-20.7,1.5-43.7,10.5-75.5,31
			c-9.4,6.1-18.4,12.9-26.8,20.4l1.4,2.4c14.1,23.7,42.1,53.8,74,77.5c48.3,35.9,102.1,30.5,133.1,17.8c46.3-19,79.7-59.9,94-115.2
			C776.7,634.3,757.2,546.7,705.1,512.6L705.1,512.6z"/>
	</g>
	<g>
		<path class="st1" d="M640.1,550.7c39.9,0,72.2-32.3,72.2-72.2s-32.3-72.2-72.2-72.2c-39.9,0-72.2,32.3-72.2,72.2
			S600.2,550.7,640.1,550.7z"/>
	</g>
	<g>
		<g>
			<path class="st2" d="M659.8,509.6c6-3.1,9.9-0.4,16.6,4.2c6.6,4.6,43.7,31.8,43.7,31.8"/>
			<path class="st0" d="M720.1,545.5l-52.2-36.8c0,0-19.3,0.4-8.1,19.7l35.8,33.5c0,0,2.5,35.8,13.2,50.5"/>
		</g>
		<g>
			<path class="st3" d="M601.5,666.4c-1.2-7.6-6.4-9.2-16.1-9.7c-23.6-1.1-48.7,7.1-86.1,31.1c-32.4,20.9-58.9,50.8-58.9,64.7
				s10,20.2,26.2,21.2c0,0,35.6,1.6,83.1-31.5C578.6,722,603.4,690.7,601.5,666.4L601.5,666.4z"/>
			<path class="st3" d="M165,660.5c-13.7-9.1-41.1-23.2-64.2-32.4c-20.8-8.3-62.9-17.9-67.9,0.6c-3.1,21.3,12,47.8,40.7,66.9
				c34.9,23.3,63.9,30.4,70.2,31.8L165,660.5z"/>
			<g>
				<path class="st4" d="M296.6,343.4c5,24.2-3.2,46.3-23.6,56.3c-18.9,9.3-36.8-2.3-46-15.5c-4.7-6.8-15.2-21.4-11.4-44.7
					c3.6-22,22.2-39.9,46.2-34.7C279.6,308.6,292.2,322.2,296.6,343.4L296.6,343.4z"/>
				<path class="st0" d="M436.6,367.6c-3.6-4-2.7-7.9-0.8-18.2c2-10.3,2.7-34.3-6.2-51.8c-8.9-17.5-28.5-32.4-48-36.7
					c-19.5-4.3-39.1-2.3-54.6,8.9c-16.5,11.9-27.1,26.6-29.5,48.7c-2.3,21.2,0.3,32.5,6.3,51.3s8.6,29.8,2.3,45.4
					c-6.3,15.6-22.5,31.4-37.4,41.7c-7.4-3.3-14.9-6.2-22.7-8.6c2.1,20.1,21.6,54,66.4,58.6c34.2,3.5,71.4-19.6,91.9-36.3
					c-9.7,1.1-26.1,3.4-26.1,3.4s-8.3-8.8-9.5-30.7c-1-18.9,3.9-23.9,3.9-23.9s5.3,1.7,16.9,1.7c11.6,0,24.9,5.8,30.2-4.4
					c5.3-10.3,9.9-31.7,9.9-31.7c2.5-0.2,4.9-0.6,7.3-1.3c5.3-1.6,7.3-5.3,3.7-9.3L436.6,367.6z M158,680.7l6.1-19.2
					c-13.7-9.1-41.1-23.2-64.2-32.4c-7-2.7-14.1-5-21.4-6.7c-16.5,33-43.6,95.1-34.9,132.5c9.3,39.7,38.2,60.6,69.2,69.2L158,680.7
					L158,680.7z"/>
				<path class="st4" d="M433.3,319.1c-0.1-7.7-2-15.2-5.4-22.1c-8.9-17.5-28.5-32.4-48-36.7c-19.5-4.3-39.1-2.3-54.6,8.9
					c-16.5,11.9-27.1,26.6-29.5,48.7c-2.3,21.2,0.3,32.5,6.3,51.3c3.2,10,5.4,17.7,5.8,25.1c12.3,4.2,31.5,2.7,41.8-6.9
					c7.6-7.2,11-25.7,7.9-40.1c-2.9-14,3-27.5,12.9-30.5c12.5-3.7,18.2,7.8,20.4,14.5c2.2,6.6,8.4,9.3,19.4,6.2
					C419.7,334.9,428.2,326.6,433.3,319.1z"/>
				<ellipse cx="417.2" cy="351.8" rx="5.7" ry="7.7"/>
				<path class="st0" d="M374.3,338.3c-3.2,6.4-1.2,13.3,3.3,15.8c4.1,2.3,9,0.1,9.6-0.2"/>
				<path class="st0" d="M425.2,400.1c-6-3.1-11.3-3-13-0.7c-0.3,0.5-2.2,2.1-1.9,3.9"/>
			</g>
			<path class="st5" d="M36.5,617.4c23.5-44.5,80.8-129.8,119.2-157.6s78.1-19.9,113.9-4s59.6,25.2,59.6,25.2s70.2-13.2,115.2-14.6
				s67.5,15.9,96.7,74.2c29.1,58.3,47.7,91.4,58.3,116.5c10.6,25.2-16.9,62.2-49.7,85.1c-47.5,33.1-83.1,31.5-83.1,31.5l6.9,88.7
				H101.4l42.4-135c0,0-30.5-5.3-70.2-31.8C39.6,672.9,24.7,639.9,36.5,617.4z"/>
		</g>
	</g>
</g>
<g>
	<polyline class="st2" points="607.7,469.9 632.3,498.3 671.6,459 	"/>
</g>
</svg>
