<?xml version="1.0" encoding="utf-8"?>
<!-- Generator: Adobe Illustrator 24.3.0, SVG Export Plug-In . SVG Version: 6.00 Build 0)  -->
<svg version="1.1" id="Layer_1" xmlns="http://www.w3.org/2000/svg" xmlns:xlink="http://www.w3.org/1999/xlink" x="0px" y="0px"
	 viewBox="0 0 890 869" style="enable-background:new 0 0 890 869;" xml:space="preserve">
<style type="text/css">
	.st0{stroke:#1F1F1F;stroke-width:4.5;stroke-linecap:round;stroke-linejoin:round;}
	.st1{fill:#874819;stroke:#1F1F1F;stroke-width:4.5;stroke-linecap:round;stroke-linejoin:round;}
	.st2{fill:#3C0E40;stroke:#1F1F1F;stroke-width:4.5;stroke-linecap:round;stroke-linejoin:round;}
	.st3{fill-rule:evenodd;clip-rule:evenodd;fill:#1F1F1F;}
	.st4{fill:#FF5860;}
	.st5{fill:#FF5860;stroke:#1F1F1F;stroke-width:3;stroke-miterlimit:10;}
	.st6{fill:#FFFFFF;stroke:#1F1F1F;stroke-width:4.5;stroke-linecap:round;stroke-linejoin:round;}
	.st7{fill:none;stroke:#1F1F1F;stroke-width:4.5;stroke-linecap:round;stroke-linejoin:round;}
	.st8{fill:#1F1F1F;}
	.st9{fill:#F7DCDA;stroke:#1F1F1F;stroke-width:4.5;stroke-linecap:round;stroke-linejoin:round;}
	.st10{fill:#1F1F1F;stroke:#1F1F1F;stroke-width:4.5;stroke-linecap:round;stroke-linejoin:round;}
	.st11{fill:#913223;stroke:#1F1F1F;stroke-width:4.5;stroke-linecap:round;stroke-linejoin:round;}
	.st12{fill:#FFFFFF;}
	.st13{fill:#AA8156;stroke:#894818;stroke-miterlimit:10;}
	.st14{fill:#5C3731;}
	.st15{fill:#1A2E35;}
	.st16{fill:#ECECEC;}
	.st17{fill:#ECECEC;stroke:#894818;stroke-width:2;stroke-linecap:round;stroke-linejoin:round;stroke-miterlimit:10;}
	.st18{fill:#FDDD97;stroke:#000000;stroke-width:2;stroke-linecap:round;stroke-linejoin:round;}
	.st19{fill:#FFFFFF;stroke:#1F1F1F;stroke-width:2;stroke-linecap:round;stroke-linejoin:round;}
	.st20{fill:#049AF2;stroke:#1F1F1F;stroke-width:3;stroke-linecap:round;stroke-linejoin:round;}
	.st21{fill:#FDAE2F;stroke:#1F1F1F;stroke-width:5;stroke-linecap:round;stroke-linejoin:round;}
	.st22{fill:#7C3600;stroke:#87421F;stroke-width:3;stroke-linecap:round;stroke-linejoin:round;}
	.st23{fill:#C2ECCE;stroke:#000000;stroke-width:2;stroke-linecap:round;stroke-linejoin:round;}
	.st24{fill:url(#SVGID_2_);stroke:#1F1F1F;stroke-width:4.5;stroke-linecap:round;stroke-linejoin:round;}
	.st25{fill:url(#SVGID_3_);stroke:#1F1F1F;stroke-width:4.5;stroke-linecap:round;stroke-linejoin:round;}
	.st26{fill:#B40500;stroke:#1F1F1F;stroke-width:4.5;stroke-linecap:round;stroke-linejoin:round;}
	.st27{fill:#FFFDF4;}
	.st28{font-family:'BaskOldFace';}
	.st29{font-size:53.5893px;}
	.st30{fill:#C0E5FD;stroke:#000000;stroke-width:2;stroke-linecap:round;stroke-linejoin:round;}
</style>
<g>
	<path class="st0" d="M67.6,472.8c5.4,8.8,5.3,18.6-1.3,25.4c-6.1,6.3-14.7,4.3-20.2,0.4c-2.8-2-9-6.2-10.8-15.9
		c-1.7-9.1,3.1-18.8,13.2-20.1C56.1,461.6,62.9,465.1,67.6,472.8L67.6,472.8z"/>
	<path class="st1" d="M81.5,499.6c-0.1,2.9-0.9,6-2,9.1c0.5-0.5,1-0.9,1.6-1.3c7-5.1,17.1-7.2,28.9-5.7c0,0,0,0,0,0
		c-1.8-4.4-2.1-7.1-2.1-8.5c0-1,0.2-1.4,0.2-1.4s2.3-0.1,6.8-1.7c4.5-1.6,10.6-1.2,11.2-6c0.6-4.8-0.6-13.8-0.6-13.8
		c0.9-0.4,1.8-0.9,2.7-1.6c1.9-1.4,2.1-3.1,0.1-4.1l-2.5-2.1c-2-1-2.2-2.7-2.9-7c-0.6-3.6-2.9-11-7.3-16.6c-0.8-1-1.6-1.9-2.5-2.8
		c-5.1-4.8-13.1-7.8-20.5-7.8c-0.2,0-0.4,0-0.5,0c-1,0-2,0.1-3,0.2c-1.5,0.2-3,0.5-4.4,0.8c0,0,0,0,0,0c-6.4,1.6-12,5-15.7,10.4
		c-4.1,5.9-6.1,12.1-5.3,19.3c0,0,0,0,0,0.1c0.1,1.3,0.4,2.5,0.7,3.9c2.1,8.6,4.7,12.7,9.7,19.2c2.1,2.8,3.8,5.1,5.1,7.4
		c0.3,0.5,0.5,1,0.8,1.6C81.1,493.6,81.6,496.2,81.5,499.6z"/>
	<path class="st0" d="M117.7,443.9c-1.1-3-2.9-5.7-5.2-7.9c-6-5.6-15.7-8.7-24-7.6s-15.6,4.6-20.1,11.2c-4.8,7-6.8,14.3-4.6,23.2
		c2.1,8.6,4.7,12.7,9.7,19.2c2.6,3.5,4.6,6.2,5.8,9c5.4-0.1,12.7-3.4,15.4-8.6c2-3.9,0.7-11.6-2.6-16.8c-3.1-5.1-2.7-11.2,0.7-13.7
		c4.4-3.2,8.2,0.5,10,2.8c1.8,2.3,4.6,2.4,8.5-0.3C114.6,452.1,116.7,447.6,117.7,443.9z"/>
	<ellipse transform="matrix(0.9405 -0.3398 0.3398 0.9405 -149.0963 66.7418)" cx="116" cy="459.1" rx="2.4" ry="3.2"/>
	<path class="st1" d="M97.3,459.8c-0.3,2.9,1.4,5.4,3.5,5.7c2,0.3,3.6-1.3,3.7-1.4"/>
	<path class="st1" d="M126,476.8c-2.8-0.4-4.8,0.4-5.2,1.6c-0.1,0.2-0.6,1.1-0.2,1.8"/>
</g>
<path class="st2" d="M180.7,552.5c-14.2,19.6-61.5,11.2-52.1-3.7c10.4-16.4,33-54,51.2-78.3c18.1-24.3,42.8-56,64.2-77.8
	c0,0,13.6,21.1,17.5,26.6c3.8,5.5,8.2,7.6,12.3,5.9c0,0-20.3,19.4-36.4,39.4C221.3,484.5,189.5,540.4,180.7,552.5L180.7,552.5z"/>
<path class="st3" d="M131.7,737.8l-23.6,12.7h-0.1c-0.6,0.4-0.8,1.1-0.5,1.8l0,0l0.2,0.4l0.7,1.1c3.4,5.8,6.8,11.5,10.3,17.2
	c6,10,12.7,21.1,15.7,25.8c6.2,9.6,14.8,13.9,20.6,14c1,0,2.1,0,3.2-0.1c1-0.1,2.2-0.3,3-1c1.4-0.8,2.6-1.8,3.6-3
	c0.1-0.1,0.1-0.2,0.2-0.2c1.6-2.8,2.3-5.8,1.8-9.5c-0.5-3.6-2.2-7.7-5.3-12.8l0,0l-16.4-26.9l-11.7-19.1
	C133,737.7,132.3,737.5,131.7,737.8L131.7,737.8z M155.1,810.9v-1.3V810.9L155.1,810.9L155.1,810.9z M161.2,809.7l-0.6-1.1l0.8,1
	l-0.1,0.1H161.2z M132.3,739c1.1-0.7,1.1-0.7,1.1-0.7L132.3,739z"/>
<path class="st4" d="M132.5,738.4c0,0,22.6,35.2,27.9,46.6s6.8,17.3,3,22.9c0,0,68-42.5,81.8-51.6c13.8-9.2,33.6-22.7,41.5-41.5
	s-13.4-48-24.1-50.7L132.5,738.4z"/>
<path class="st5" d="M338.2,773c-0.7-6.5-15.7-6.2-30.3-4.2c-21.4,2.9-58,12.3-58,12.3l4.8-100.3c0,0-79.6,5.8-114.5,8
	c-18.3,1.1-24.1-3.3-30.1-13c-6.7-10.7-17.6-35.7-17.6-35.7s23.6-10.8,58.7-18.7c36.7-8.3,76.5-9.4,111.3-11.4
	c37.5-2.2,57.3,9.2,63.3,37.5C331.5,674.7,336.2,751.5,338.2,773L338.2,773z"/>
<path class="st2" d="M87.5,502.3c-8.4,3.6-12.5,10.9-10.9,27.8c1.5,16.6,8,77.9,8.9,85c0.9,7.2,6.2,25.9,11,34.5
	c0.1,0.2,0.3,0.4,0.5,0.5c-2.6-5.7-4.5-10-4.5-10s23.6-10.8,58.7-18.7c12.4-2.8,25.4-4.2,38.4-6.3c-0.8-6-2.9-16.9-5.4-27.3
	c6.6,3.5,13,6.6,16,8.2c8.4,4.1,24.5,1.3,23.2-13.7c-2.7-30.9-35.4-76.4-35.4-76.4l-40.2,0.3c0,0,1.7,8.9,3.8,20.2
	c-10.3-8.4-21.9-15.9-28.8-19.7C109.5,499.6,96.7,498.4,87.5,502.3L87.5,502.3z"/>
<path class="st1" d="M203.1,463.9c4.4-5.4-0.1-6.9-3.9-4.5s-36,23.2-43.7,29.2c-6.2,4.8-5.8,11.4-4.7,17.5l26.2-0.2
	c-0.2-5.4,0.9-11.2,3.3-15.5C183.5,484.4,198.7,469.3,203.1,463.9z"/>
<path class="st3" d="M270.5,774.8c-5,1.1-10,2.3-15,3.6c-1.9,0.5-3.4,0.8-4.5,1.1c-0.5,0.1-1,0.3-1.5,0.4l0,0h-0.1l0,0l0,0l0,0l0,0
	l0,0h-0.1c-0.1,0-0.6,0.5-0.9,1.1l0,0c-0.2,4.6-0.3,9.9-0.3,14.1c0,2.2,0,4.4,0.1,6.6v0.2v0.2v0.1l0,0h1.3h-1.3
	c0,0.6,0.5,1.1,1.1,1.3l0.2-1.3l-0.2,1.3l0,0l0,0l0,0h0.1h0.1c0.5,0.1,1,0.1,1.4,0.1c1,0.1,2.5,0.2,4.4,0.2
	c3.9,0.1,9.7-0.1,17.5-0.8c22.6-2.2,35.1-5.2,50.6-11.9l0,0c4.5-1.9,8.4-4.5,11.2-7.5c2.8-3,4.5-6.5,4-10.4
	c-0.2-2.1-1.7-3.7-3.6-4.7c-1.9-1-4.4-1.6-7.2-1.9c-5.7-0.6-13.1-0.1-20.4,0.9C296.9,768.9,282.3,772,270.5,774.8z"/>
<path class="st6" d="M249.8,781c-0.2,13.2-0.7,37.1,1.2,50.3h119.2c1.8-6.4-0.9-9.1-16-14.8c-15.1-5.8-56.8-17.4-61.1-45.3
	C272.9,775.1,249.8,781,249.8,781z"/>
<path class="st7" d="M73.5,831.3h313.8"/>
<path class="st6" d="M135.5,831.3H251c-27.2-4.9-51.5-11.9-52.2-35.2c-0.9-29.4-0.9-61.5-0.9-102.6h-9.3c0,41,0,73.1-0.9,102.6
	C187,819.4,162.7,826.4,135.5,831.3z"/>
<path class="st3" d="M254.6,679.4H113.3c-0.3,0-0.5,0.1-0.7,0.2c-0.6,0.4-0.7,1.2-0.3,1.8c7.6,11.3,13,15.6,20.6,18.9l0,0
	c9.1,3.9,15.2,4.9,26.6,4.9h70.2c5.7,0,12.2-1.3,17.4-5c5.2-3.8,8.9-10,8.9-19.4l0,0C255.8,680,255.3,679.4,254.6,679.4L254.6,679.4
	z"/>
<path class="st3" d="M61.1,549.2c0,0.1,0,0.1,0.1,0.2l1.3-0.3l-1.3,0.3l0,0l0.1,0.2c0,0.1,0.1,0.1,0.1,0.2c0,0.1,0,0.1,0.1,0.2
	c0.1,0.3,0.3,0.9,0.5,1.7c0.5,1.5,1.1,3.6,1.9,6.2c1.6,5.3,3.9,12.7,6.5,21.1c5.3,16.8,12,37.6,18,53.5c0.2,0.5,0.8,0.9,1.4,0.8
	l-0.2-1.3c0.2,1.3,0.2,1.3,0.2,1.3l0,0l0,0l0,0l0,0h0.1c0.1,0,0.1-0.1,0.2-0.1c0.3-0.1,0.5-0.1,0.8-0.2c1-0.2,1.9-0.5,2.9-0.9
	c2.3-0.9,5.4-2.3,8.7-4.9l0,0c3.4-2.8,5.2-5.9,5.7-10.2c0.5-4.2-0.3-9.3-2-16.1l0,0c-4.1-16.1-14.2-37-19.3-47.3
	c-1.1-2.4-2.1-4.2-2.5-5.3c-2.8-6.1-8.8-7.6-13.9-7c-2.5,0.3-4.9,1.2-6.6,2.5C62,545.2,60.7,547,61.1,549.2L61.1,549.2z
	 M255.6,620.7H134.7c-1.3,0-2.4,0.3-3.3,1c-0.9,0.7-1.4,1.6-1.6,2.6c-0.4,2,0.3,4.4,1.5,6.6c2.6,4.4,8.1,8.9,15.3,8.9h99.5
	c7.9,0,13.5-4.4,15.6-9c1.1-2.3,1.3-4.8,0.3-6.8C261,621.9,258.7,620.7,255.6,620.7L255.6,620.7z"/>
<path class="st8" d="M177.1,681.7c4.9-25,6.7-45,6.7-45L177.1,681.7z"/>
<path class="st7" d="M177.1,681.7c4.9-25,6.7-45,6.7-45"/>
<path class="st6" d="M85,764.5c-4.5,2.7-6.7,8-3.8,16.7c2.9,8.7,21,50.1,21,50.1h87.4c0.5-5.3-3.6-9-12.3-12.6
	c-8.7-3.6-24.8-11.3-26.1-23.2c-0.9-8.3,0.6-14,3.3-18.6c-8-14-22.3-38-22.3-38S89.1,762.1,85,764.5L85,764.5z"/>
<path class="st9" d="M102.2,831.4h27.9c-9.5-15.4-32.9-54.1-37.1-61c-3-4.9-6.8-6.2-9.1-5.1c-3.7,2.9-5.3,8-2.6,15.9
	C84.1,790,102.2,831.3,102.2,831.4L102.2,831.4z"/>
<path class="st7" d="M151.7,526.4l45.8,34.8 M126.1,545.4c10.7,10.1,47,36,58,42.3"/>
<path class="st10" d="M261.4,419.3c3.8,5.5,8.2,7.6,12.3,6c0.9-0.9,1.5-2.1,1.5-3.4c-0.1-4.1-5.8-26.6-8.7-34.4
	c-3.5-9.5-6.9-10.1-13.3-4c-3.1,3-6.6,6.3-9.3,9.2C244.4,393.3,257.6,413.9,261.4,419.3L261.4,419.3z"/>
<g>
	<path class="st1" d="M285,358.4c0,0-6.4,6.3-9.1,11.8c-0.7,1.6-1.3,3.3-1.6,5.1c-0.1,0.6,0.1,1.2,0.7,1.6c0.5,0.4,1.2,0.4,1.8,0.1
		c2.1-1.2,5.5-3,10.1-5.3c5.6-2.7,11.7-5.1,16.5-8.5c4.9-3.4,1.6-6.2,1.6-6.2c1.8-0.8,3.4-1.8,4.8-3.2c3.2-3.1,1-5-1.8-4.9
		S290.2,354.6,285,358.4L285,358.4z"/>
	<path class="st11" d="M284.1,366.3l20.9-9.2C299.6,359.2,288.2,363.8,284.1,366.3z"/>
	<path class="st1" d="M251.7,400.5l15.7,14.2c0,0,21.1-21.1,35.5-31.4c6.5-4.6,4.7-8.4,0-7.2c-4.7,1.2-14,7-18.5,8.5s-8-0.2-6-6.1
		c1.9-5.9,11.3-21.5,14.5-27.2c3.2-5.7,0.8-8.7-4.8-3.3C278.1,357.6,256.7,390.8,251.7,400.5L251.7,400.5z"/>
</g>
<g>
	<g>
		<path class="st12" d="M756.9,785.5c-0.8-0.4-1.4-1-1.8-1.7l1.5-0.9c0.4,0.5,0.8,0.9,1.3,1.2c0.5,0.3,1.1,0.4,1.7,0.4
			c0.7,0,1.4-0.2,1.9-0.5c0.6-0.3,1-0.8,1.3-1.3s0.5-1.3,0.5-2c0-0.8-0.2-1.5-0.5-2c-0.3-0.6-0.8-1-1.3-1.3
			c-0.6-0.3-1.2-0.5-1.9-0.5c-0.6,0-1.1,0.1-1.7,0.4s-1,0.6-1.3,1.2l-1.5-1c0.4-0.8,1-1.4,1.8-1.7s1.7-0.6,2.6-0.6
			c1.1,0,2.1,0.2,3,0.7c0.9,0.5,1.6,1.1,2.1,2c0.5,0.8,0.7,1.8,0.7,2.9c0,1.1-0.2,2-0.7,2.9c-0.5,0.8-1.2,1.5-2.1,2
			c-0.9,0.5-1.9,0.7-3,0.7C758.6,786.1,757.7,785.9,756.9,785.5z"/>
		<path class="st12" d="M743.9,785.9v-6.6c0-1.5,0.4-2.6,1.2-3.3s2-1.1,3.5-1.1c0.9,0,1.7,0.1,2.5,0.4c0.8,0.2,1.5,0.6,2,1l-0.8,1.5
			c-0.4-0.4-0.9-0.6-1.6-0.9c-0.6-0.2-1.2-0.3-1.9-0.3c-1,0-1.7,0.2-2.2,0.7c-0.5,0.5-0.7,1.1-0.7,1.9v3.9l-0.1,0.4v2.3H743.9z
			 M746.9,785.5c-0.7-0.4-1.1-0.9-1.4-1.5l0.4-1.4c0.2,0.6,0.6,1.1,1.2,1.4s1.2,0.5,1.9,0.5c0.8,0,1.3-0.2,1.8-0.5
			c0.4-0.3,0.6-0.8,0.6-1.3c0-0.5-0.2-0.9-0.5-1.2s-1-0.5-2-0.5h-3.4v-1.4h3.5c1.1,0,1.9,0.1,2.6,0.4c0.6,0.3,1.1,0.7,1.4,1.2
			c0.3,0.5,0.4,1,0.4,1.6c0,0.6-0.2,1.2-0.5,1.7c-0.3,0.5-0.8,0.9-1.4,1.1c-0.6,0.3-1.3,0.4-2.1,0.4
			C748.3,786.1,747.5,785.9,746.9,785.5z"/>
		<path class="st12" d="M737,775.5c0.7,0.4,1.3,1,1.6,1.7l-0.3,0.8V775h1.9v10.9h-2v-5.6c0-0.8-0.1-1.5-0.4-2s-0.7-0.9-1.2-1.2
			c-0.5-0.3-1.1-0.4-1.8-0.4c-0.9,0-1.7,0.3-2.2,0.8s-0.8,1.3-0.8,2.4v6.1h-2v-6.3c0-1.1,0.2-2,0.6-2.7c0.4-0.7,0.9-1.2,1.6-1.6
			s1.5-0.5,2.4-0.5C735.4,774.9,736.2,775.1,737,775.5z"/>
		<path class="st12" d="M718.8,785.5c-0.8-0.4-1.4-1-1.8-1.7l1.5-0.9c0.4,0.5,0.8,0.9,1.3,1.2c0.5,0.3,1.1,0.4,1.7,0.4
			c0.7,0,1.4-0.2,1.9-0.5c0.6-0.3,1-0.8,1.3-1.3c0.3-0.6,0.5-1.3,0.5-2c0-0.8-0.2-1.5-0.5-2c-0.3-0.6-0.8-1-1.3-1.3
			c-0.6-0.3-1.2-0.5-1.9-0.5c-0.6,0-1.1,0.1-1.7,0.4c-0.5,0.3-1,0.6-1.3,1.2l-1.5-1c0.4-0.8,1-1.4,1.8-1.7s1.7-0.6,2.6-0.6
			c1.1,0,2.1,0.2,3,0.7c0.9,0.5,1.6,1.1,2.1,2c0.5,0.8,0.7,1.8,0.7,2.9c0,1.1-0.2,2-0.7,2.9c-0.5,0.8-1.2,1.5-2.1,2
			c-0.9,0.5-1.9,0.7-3,0.7C720.4,786.1,719.5,785.9,718.8,785.5z"/>
		<path class="st12" d="M707.1,785.6c-0.7-0.3-1.4-0.7-1.8-1.3l1.1-1.3c0.4,0.4,0.9,0.8,1.4,1c0.5,0.2,1.1,0.3,1.8,0.3
			c0.8,0,1.5-0.2,2.1-0.5c0.6-0.3,1.1-0.8,1.4-1.3c0.3-0.6,0.5-1.2,0.5-1.9v-0.3c0-0.7-0.2-1.3-0.5-1.9c-0.3-0.6-0.7-1-1.3-1.3
			s-1.1-0.5-1.8-0.5c-0.7,0-1.3,0.2-1.8,0.5c-0.5,0.3-0.9,0.7-1.2,1.3c-0.3,0.5-0.4,1.2-0.4,1.9l-0.8-0.5h8.3v1.4h-9.3
			c0-0.1,0-0.2,0-0.3c0-0.1,0-0.2,0-0.3c0-1.1,0.2-2.1,0.7-3c0.5-0.8,1.1-1.5,1.9-2c0.8-0.5,1.7-0.7,2.8-0.7c1,0,2,0.2,2.8,0.7
			c0.8,0.5,1.5,1.1,2,2c0.5,0.8,0.7,1.8,0.7,2.9c0,1.1-0.2,2-0.7,2.9c-0.5,0.8-1.2,1.5-2.1,2c-0.9,0.5-1.9,0.7-3.1,0.7
			C708.6,786.1,707.8,785.9,707.1,785.6z"/>
		<path class="st12" d="M699.8,785.9v-15.3h2v15.3H699.8z"/>
		<path class="st12" d="M750.9,810.1c-0.9-0.5-1.5-1.1-2-2c-0.5-0.8-0.7-1.8-0.7-2.9c0-1.1,0.2-2,0.7-2.9c0.5-0.8,1.2-1.5,2-2
			c0.9-0.5,1.8-0.7,2.9-0.7c1.1,0,2.1,0.2,2.9,0.7c0.9,0.5,1.5,1.1,2,2c0.5,0.8,0.7,1.8,0.7,2.9c0,1.1-0.2,2-0.7,2.9
			c-0.5,0.8-1.2,1.5-2,2c-0.9,0.5-1.8,0.7-2.9,0.7C752.7,810.8,751.8,810.6,750.9,810.1z M755.7,808.6c0.5-0.3,1-0.8,1.3-1.3
			s0.5-1.3,0.5-2c0-0.8-0.2-1.5-0.5-2c-0.3-0.6-0.8-1-1.3-1.3c-0.5-0.3-1.2-0.5-1.9-0.5c-0.7,0-1.3,0.2-1.9,0.5s-1,0.8-1.3,1.3
			c-0.3,0.6-0.5,1.2-0.5,2c0,0.8,0.2,1.4,0.5,2c0.3,0.6,0.8,1,1.3,1.3c0.6,0.3,1.2,0.5,1.9,0.5C754.5,809.1,755.2,808.9,755.7,808.6
			z"/>
		<path class="st12" d="M743.4,810.7v-5.4c0-1.2-0.3-2.1-0.9-2.7c-0.6-0.6-1.5-0.9-2.5-0.9c-0.1,0-0.1,0-0.2,0c-0.1,0-0.2,0-0.2,0
			v-1.9c1,0,1.9,0.2,2.6,0.6c0.7,0.4,1.2,1,1.5,1.7l-0.2,0.7v-3h1.9v10.9H743.4z"/>
		<path class="st12" d="M726.7,810.7v-15.3h2v7.3l-0.2,2.5l0.1,2.5v2.9H726.7z M729.9,810.2c-0.7-0.4-1.3-1-1.8-1.9
			c-0.4-0.8-0.7-1.9-0.7-3.1c0-1.2,0.2-2.3,0.7-3.1c0.4-0.8,1-1.4,1.8-1.9c0.7-0.4,1.6-0.6,2.5-0.6c1.1,0,2,0.2,2.8,0.7
			c0.8,0.5,1.5,1.1,2,1.9c0.5,0.8,0.7,1.8,0.7,2.9c0,1.1-0.2,2.1-0.7,2.9c-0.5,0.8-1.1,1.5-2,2c-0.8,0.5-1.8,0.7-2.8,0.7
			C731.5,810.8,730.7,810.6,729.9,810.2z M734.2,808.6c0.6-0.3,1-0.8,1.3-1.3c0.3-0.6,0.5-1.3,0.5-2c0-0.8-0.2-1.5-0.5-2
			c-0.3-0.6-0.8-1-1.3-1.3c-0.5-0.3-1.2-0.5-1.9-0.5c-0.7,0-1.3,0.2-1.9,0.5s-1,0.8-1.3,1.3c-0.3,0.6-0.5,1.2-0.5,2
			c0,0.8,0.2,1.4,0.5,2c0.3,0.6,0.8,1,1.3,1.3c0.6,0.3,1.2,0.5,1.9,0.5C733,809.1,733.6,808.9,734.2,808.6z"/>
		<path class="st12" d="M715.6,810.4c-0.7-0.3-1.3-0.7-1.8-1.3l1.1-1.3c0.4,0.4,0.9,0.8,1.4,1s1.1,0.3,1.8,0.3
			c0.8,0,1.5-0.2,2.1-0.5c0.6-0.3,1.1-0.8,1.4-1.3c0.3-0.6,0.5-1.2,0.5-1.9V805c0-0.7-0.2-1.3-0.5-1.9c-0.3-0.6-0.7-1-1.3-1.3
			c-0.5-0.3-1.1-0.5-1.8-0.5c-0.7,0-1.3,0.2-1.8,0.5s-0.9,0.7-1.2,1.3c-0.3,0.5-0.4,1.2-0.4,1.9l-0.8-0.5h8.3v1.4h-9.3
			c0-0.1,0-0.2,0-0.3c0-0.1,0-0.2,0-0.3c0-1.1,0.2-2.1,0.7-3c0.5-0.8,1.1-1.5,1.9-2c0.8-0.5,1.7-0.7,2.8-0.7c1,0,2,0.2,2.8,0.7
			c0.8,0.5,1.5,1.1,2,2c0.5,0.8,0.7,1.8,0.7,2.9c0,1.1-0.2,2-0.7,2.9c-0.5,0.8-1.2,1.5-2.1,2s-1.9,0.7-3.1,0.7
			C717.1,810.8,716.3,810.7,715.6,810.4z"/>
		<path class="st12" d="M708.3,810.7v-5.4c0-1.2-0.3-2.1-0.9-2.7c-0.6-0.6-1.5-0.9-2.5-0.9c-0.1,0-0.1,0-0.2,0c-0.1,0-0.2,0-0.2,0
			v-1.9c1,0,1.9,0.2,2.6,0.6c0.7,0.4,1.2,1,1.5,1.7l-0.2,0.7v-3h1.9v10.9H708.3z"/>
	</g>
</g>
<g>
	<g>
		<g>
			<g>
				<g>
					
						<rect x="744.1" y="156.4" transform="matrix(-0.5369 0.8436 -0.8436 -0.5369 1348.1523 -358.0233)" class="st13" width="56.4" height="69.2"/>
					
						<rect x="778.4" y="116.1" transform="matrix(-0.5369 0.8436 -0.8436 -0.5369 1353.582 -441.6736)" class="st13" width="39.3" height="69.2"/>
					
						<rect x="765.8" y="131.1" transform="matrix(-0.5369 0.8436 -0.8436 -0.5369 1301.2982 -445.0672)" class="st14" width="13.9" height="7.1"/>
					<g>
						<g>
							<path class="st15" d="M826.6,162.9L826.6,162.9c0.1-0.1,0-0.2-0.1-0.3l-4.8-2.9c-0.1-0.1-0.2,0-0.3,0.1v0
								c-0.1,0.1,0,0.2,0.1,0.3l4.8,2.9C826.4,163.1,826.5,163,826.6,162.9z"/>
							<path class="st15" d="M826.1,163.8L826.1,163.8c0.1-0.1,0-0.2-0.1-0.3l-4.8-2.9c-0.1-0.1-0.2,0-0.3,0.1l0,0
								c-0.1,0.1,0,0.2,0.1,0.3l4.8,2.9C825.9,163.9,826,163.9,826.1,163.8z"/>
							<path class="st15" d="M825.6,164.6L825.6,164.6c0.1-0.1,0-0.2-0.1-0.3l-4.8-2.9c-0.1-0.1-0.2,0-0.3,0.1v0
								c-0.1,0.1,0,0.2,0.1,0.3l4.8,2.9C825.4,164.7,825.5,164.7,825.6,164.6z"/>
							<path class="st15" d="M825.1,165.4L825.1,165.4c0.1-0.1,0-0.2-0.1-0.3l-4.8-2.9c-0.1-0.1-0.2,0-0.3,0.1l0,0
								c-0.1,0.1,0,0.2,0.1,0.3l4.8,2.9C824.9,165.5,825,165.5,825.1,165.4z"/>
							<path class="st15" d="M824.6,166.2L824.6,166.2c0.1-0.1,0-0.2-0.1-0.3l-4.8-2.9c-0.1-0.1-0.2,0-0.3,0.1l0,0
								c-0.1,0.1,0,0.2,0.1,0.3l4.8,2.9C824.4,166.4,824.5,166.3,824.6,166.2z"/>
							<path class="st15" d="M824.1,167.1L824.1,167.1c0.1-0.1,0-0.2-0.1-0.3l-4.8-2.9c-0.1-0.1-0.2,0-0.3,0.1l0,0
								c-0.1,0.1,0,0.2,0.1,0.3l4.8,2.9C823.9,167.2,824,167.2,824.1,167.1z"/>
							<path class="st15" d="M823.6,167.9L823.6,167.9c0.1-0.1,0-0.2-0.1-0.3l-4.8-2.9c-0.1-0.1-0.2,0-0.3,0.1l0,0
								c-0.1,0.1,0,0.2,0.1,0.3l4.8,2.9C823.4,168,823.5,168,823.6,167.9z"/>
							<path class="st15" d="M823.1,168.7L823.1,168.7c0.1-0.1,0-0.2-0.1-0.3l-4.8-2.9c-0.1-0.1-0.2,0-0.3,0.1v0
								c-0.1,0.1,0,0.2,0.1,0.3l4.8,2.9C822.9,168.9,823,168.8,823.1,168.7z"/>
							<path class="st15" d="M822.5,169.6L822.5,169.6c0.1-0.1,0-0.2-0.1-0.3l-4.8-2.9c-0.1-0.1-0.2,0-0.3,0.1l0,0
								c-0.1,0.1,0,0.2,0.1,0.3l4.8,2.9C822.4,169.7,822.5,169.7,822.5,169.6z"/>
						</g>
						<path class="st15" d="M828.4,159.1l-0.4,1.6l1.2-1.9c0.1-0.2-0.1-0.4-0.3-0.3l0,0c-0.1,0.1-0.2,0.1-0.2,0l-1.7-1.1
							c0.5-1-0.3-2-2-3.1l-1.9,3.1c1.7,1,2.9,1.3,3.6,0.4L828.4,159.1z"/>
						<path class="st15" d="M828,155l0.2-0.3c0.1-0.1,0.2-0.1,0.3-0.1l2.3,1.4l1.3-2.1l-2.3-1.4c-0.1-0.1-0.1-0.2-0.1-0.3l0.2-0.3
							c0.1-0.1,0-0.3-0.2-0.3l-3.3,0.2l1.3,3.1C827.7,155.1,828,155.1,828,155z"/>
					</g>
				</g>
				<g>
					<polyline class="st14" points="779.4,130.6 780.1,131.5 778.9,131.4 779.6,132.2 778.5,132.1 779,133.1 777.9,133 778.6,133.8 
						777.4,133.7 778,134.6 777,134.5 					"/>
					<polyline class="st14" points="776.9,134.5 777.6,135.4 776.4,135.3 777.1,136.2 776,136 776.5,137 775.4,136.9 776.1,137.8 
						774.9,137.7 775.5,138.6 774.5,138.4 					"/>
					<polyline class="st14" points="774.4,138.5 775.1,139.3 773.9,139.3 774.6,140.1 773.5,139.9 774,140.9 772.9,140.8 
						773.6,141.7 772.4,141.6 773,142.5 772,142.3 					"/>
				</g>
			</g>
		</g>
		<path class="st16" d="M751.6,196l22.3,14.2c2,1.3,4.7,0.7,6-1.3l8.7-13.7c1.3-2,0.7-4.7-1.3-6L765,174.9c-2-1.3-4.7-0.7-6,1.3
			l-8.7,13.7C749,192,749.6,194.7,751.6,196z"/>
		<line class="st17" x1="764.8" y1="178.9" x2="761.6" y2="183.3"/>
		<line class="st17" x1="766.9" y1="181.1" x2="763.2" y2="188.4"/>
		<line class="st17" x1="772" y1="184.7" x2="769.5" y2="188.4"/>
		<line class="st17" x1="776" y1="186.6" x2="767.9" y2="197.8"/>
		<line class="st17" x1="780.8" y1="188.4" x2="772.3" y2="201.2"/>
		<line class="st17" x1="783.7" y1="192.6" x2="776.5" y2="204.4"/>
	</g>
	<g>
		<path class="st18" d="M837.8,177.1L804,177c-3.3,0-5.9,2.8-5.9,6.2l0,0v58c0,3.4,2.6,6.2,5.9,6.2h40.8c3.3,0,5.9-2.8,5.9-6.2
			l-0.1-50.1L837.8,177.1L837.8,177.1L837.8,177.1z"/>
		<path class="st19" d="M844,191l7-0.1L838.2,177l-0.1,7.8C838.1,188.2,840.8,191,844,191L844,191L844,191z"/>
		<g>
			<path class="st20" d="M840.9,202.1V220l-6.1-11l-4.5,8.2l-4.5,8.2h-1.9l-4.7-8.6l-4.3-7.8l-6.9,12.6v-19.5c0-1.8,1.4-3.2,3.1-3.2
				h26.8C839.5,198.9,840.9,200.3,840.9,202.1z"/>
			<path class="st21" d="M830.3,213.9l-5.5,9.9l-5.7-10.3c1.6-0.9,3.3-1.3,5.2-1.3C826.6,212.1,828.6,212.8,830.3,213.9z"/>
			<path class="st22" d="M824.9,223.8l-0.9,1.6h-15c-0.6,0-1-0.5-1-1v-6l6.9-12.6l4.3,7.8L824.9,223.8z"/>
			<path class="st22" d="M840.9,216.7v7.6c0,0.6-0.4,1-1,1H824c0,0,0.9-1.6,0.9-1.6l5.5-9.9l4.5-8.2L840.9,216.7z"/>
		</g>
	</g>
	<g>
		<path class="st18" d="M720.8,105.5l-33.8-0.1c-3.3,0-5.9,2.8-5.9,6.2l0,0v58c0,3.4,2.6,6.2,5.9,6.2h40.8c3.3,0,5.9-2.8,5.9-6.2
			l-0.1-50.1L720.8,105.5L720.8,105.5L720.8,105.5z"/>
		<path class="st19" d="M727,119.3l7-0.1l-12.8-13.9l-0.1,7.8C721.1,116.6,723.7,119.3,727,119.3L727,119.3L727,119.3z"/>
		<g>
			<path class="st20" d="M723.9,130.5v17.9l-6.1-11l-4.5,8.2l-4.5,8.2h-1.9l-4.7-8.6l-4.3-7.8l-6.9,12.6v-19.5
				c0-1.8,1.4-3.2,3.1-3.2h26.8C722.5,127.3,723.9,128.7,723.9,130.5z"/>
			<path class="st21" d="M713.3,142.2l-5.5,9.9l-5.7-10.3c1.6-0.9,3.3-1.3,5.2-1.3C709.6,140.5,711.6,141.1,713.3,142.2z"/>
			<path class="st22" d="M707.9,152.1l-0.9,1.6h-15c-0.6,0-1-0.5-1-1v-6l6.9-12.6l4.3,7.8L707.9,152.1z"/>
			<path class="st22" d="M723.9,145.1v7.6c0,0.6-0.4,1-1,1H707c0,0,0.9-1.6,0.9-1.6l5.5-9.9l4.5-8.2L723.9,145.1z"/>
		</g>
	</g>
	<g>
		<path class="st23" d="M632,149.4l-26.6-0.1c-2.6,0-4.6,2.1-4.6,4.6l0,0v43.5c0,2.6,2.1,4.6,4.6,4.6h32.1c2.6,0,4.6-2.1,4.6-4.6
			l-0.1-37.6L632,149.4L632,149.4L632,149.4z"/>
		<path class="st19" d="M636.9,159.8l5.5-0.1l-10.1-10.4l-0.1,5.9C632.2,157.7,634.3,159.8,636.9,159.8L636.9,159.8L636.9,159.8z"/>
		<g>
			<path class="st20" d="M634.4,168.1v13.4l-4.8-8.3l-3.5,6.1l-3.5,6.1H621l-3.7-6.4l-3.4-5.8l-5.4,9.4v-14.6c0-1.3,1.1-2.4,2.4-2.4
				H632C633.3,165.7,634.4,166.8,634.4,168.1z"/>
			<path class="st21" d="M626.1,176.9l-4.3,7.4l-4.5-7.7c1.2-0.6,2.6-1,4.1-1C623.1,175.6,624.7,176.1,626.1,176.9z"/>
			<path class="st22" d="M621.8,184.4l-0.7,1.2h-11.8c-0.4,0-0.8-0.4-0.8-0.8v-4.5l5.4-9.4l3.4,5.8L621.8,184.4z"/>
			<path class="st22" d="M634.4,179.1v5.7c0,0.4-0.4,0.8-0.8,0.8h-12.5c0,0,0.7-1.2,0.7-1.2l4.3-7.4l3.5-6.1L634.4,179.1z"/>
		</g>
	</g>
	<g>
		<linearGradient id="SVGID_2_" gradientUnits="userSpaceOnUse" x1="775.8489" y1="171.6836" x2="661.9099" y2="320.502">
			<stop  offset="0" style="stop-color:#CFEBFE"/>
			<stop  offset="0.361" style="stop-color:#CEF5FD"/>
			<stop  offset="1" style="stop-color:#B8EEF9"/>
		</linearGradient>
		<path class="st24" d="M864.8,255.2L864.8,255.2c0,28.8-23.4,52.2-52.2,52.2H612c-28.8,0-52.2-23.4-52.2-52.2v-0.7
			c0-29.2,23.7-52.9,52.9-52.9c2,0,4,0.1,5.9,0.3c0,0,0,0,0,0c8.8-16.9,26.5-28.5,46.9-28.5c8.4,0,16.3,1.9,23.3,5.4
			c0,0,0.1,0,0.1,0c6.7-27.2,34.4-46.2,65-38.6c19.3,4.8,34.1,20.3,38.1,39.8c1.9,9,1.5,17.7-0.7,25.7c0,0,0,0.1,0.1,0.1
			c5.6-2.4,11.8-3.8,18.2-4.1C839.8,200.3,864.8,224.9,864.8,255.2z"/>
		<linearGradient id="SVGID_3_" gradientUnits="userSpaceOnUse" x1="771.1645" y1="160.8322" x2="657.2254" y2="309.6506">
			<stop  offset="0" style="stop-color:#CFEBFE"/>
			<stop  offset="0.361" style="stop-color:#CEF5FD"/>
			<stop  offset="1" style="stop-color:#B8EEF9"/>
		</linearGradient>
		<path class="st25" d="M860.1,244.3L860.1,244.3c0,28.8-23.4,52.2-52.2,52.2H607.3c-28.8,0-52.2-23.4-52.2-52.2v-0.7
			c0-29.2,23.7-52.9,52.9-52.9c2,0,4,0.1,5.9,0.3c0,0,0,0,0,0c8.8-16.9,26.5-28.5,46.9-28.5c8.4,0,16.3,1.9,23.3,5.4
			c0,0,0.1,0,0.1,0c6.7-27.2,34.4-46.2,65-38.6c19.3,4.8,34.1,20.3,38.1,39.8c1.9,9,1.5,17.7-0.7,25.7c0,0,0,0.1,0.1,0.1
			c5.6-2.4,11.8-3.8,18.2-4.1C835.1,189.5,860.1,214.1,860.1,244.3z"/>
	</g>
</g>
<path class="st7" d="M322.6,350.6c7.6-25,25.6-72,68.5-115.2c57.9-58.3,125.3-73.6,150.8-78"/>
<g>
	<circle class="st26" cx="519" cy="166.4" r="25.9"/>
	<text transform="matrix(1 0 0 1 513.0867 186.1205)" class="st27 st28 st29">!</text>
</g>
<g>
	<path class="st30" d="M367.8,188l-30,26.8c-2.9,2.6-3,7.2-0.3,10.2l0,0l46.2,51.4c2.7,3,7.2,3.4,10.1,0.8l36.2-32.5
		c2.9-2.6,3-7.2,0.3-10.2l-40.1-44.3L367.8,188L367.8,188L367.8,188z"/>
	<path class="st19" d="M384.4,195.3l6.1-5.7l-22.4-2.1l6.1,7.1C377,197.5,381.5,197.9,384.4,195.3L384.4,195.3L384.4,195.3z"/>
	<g>
		<path class="st20" d="M390.5,207.7l14.3,15.9l-14.1-4.9l2.5,10.8l2.5,10.8l-1.7,1.5l-11-3.8l-10-3.5l3.9,16.7l-15.5-17.3
			c-1.4-1.6-1.3-3.9,0.2-5.3l23.7-21.3C386.7,205.9,389.1,206.1,390.5,207.7z"/>
		<path class="st21" d="M390.5,226.5l3.1,13.1l-13.2-4.6c0.7-2,1.9-3.9,3.6-5.4C385.8,227.9,388.1,226.9,390.5,226.5z"/>
		<path class="st22" d="M393.6,239.6l0.5,2.1l-13.3,12c-0.5,0.4-1.3,0.4-1.7-0.1l-4.8-5.4l-3.9-16.7l10,3.5L393.6,239.6z"/>
		<path class="st22" d="M402.1,220.6l6.1,6.7c0.5,0.5,0.4,1.3-0.1,1.7l-14.1,12.7c0,0-0.5-2.1-0.5-2.1l-3.1-13.1l-2.5-10.8
			L402.1,220.6z"/>
	</g>
</g>
</svg>
