<?xml version="1.0" encoding="utf-8"?>
<!-- Generator: Adobe Illustrator 24.3.0, SVG Export Plug-In . SVG Version: 6.00 Build 0)  -->
<svg version="1.1" id="Layer_1" xmlns="http://www.w3.org/2000/svg" xmlns:xlink="http://www.w3.org/1999/xlink" x="0px" y="0px"
	 viewBox="0 0 890 869" style="enable-background:new 0 0 890 869;" xml:space="preserve">
<style type="text/css">
	.st0{display:none;}
	.st1{display:inline;}
	.st2{fill:#894818;stroke:#1F1F1F;stroke-width:4.5;stroke-linecap:round;stroke-linejoin:round;}
	.st3{fill:#8C9EFF;}
	.st4{fill:none;stroke:#FFFFFF;stroke-width:2;stroke-miterlimit:10;}
	.st5{fill:#1F1F1F;stroke:#1F1F1F;stroke-width:4.5;stroke-linecap:round;stroke-linejoin:round;}
	.st6{stroke:#1F1F1F;stroke-width:4.5;stroke-linecap:round;stroke-linejoin:round;}
	.st7{fill:#3C0E40;stroke:#3C2370;stroke-width:4.5;stroke-miterlimit:10;}
	.st8{fill:none;stroke:#1F1F1F;stroke-width:4.5;stroke-linecap:round;stroke-linejoin:round;}
	.st9{fill:#DBA77F;stroke:#DBA77F;stroke-width:4.5;stroke-linecap:round;stroke-linejoin:round;}
	.st10{fill:#DBA77F;}
	.st11{fill:#FF6666;stroke:#FF6666;stroke-width:4.5;stroke-linecap:round;stroke-linejoin:round;}
	.st12{fill:#DBA77F;stroke:#1F1F1F;stroke-width:4.5;stroke-linecap:round;stroke-linejoin:round;}
	.st13{fill:#444746;stroke:#1F1F1F;stroke-width:4.5;stroke-linecap:round;stroke-linejoin:round;}
	.st14{fill:#FFFFFF;stroke:#1F1F1F;stroke-width:4.5;stroke-linecap:round;stroke-linejoin:round;}
	.st15{fill:#3C0E40;stroke:#3E0C40;stroke-width:4.5;stroke-linecap:round;stroke-linejoin:round;}
</style>
<g class="st0">
	<g class="st1">
		<g>
			<path class="st2" d="M210.6,553.4c-7.3-0.5-13.7,2.6-23.2,4.9s-20.6,5.9-28.5,13c-9,8.2-2.2,21,6,19.4c7.4-1.4,9.5-6.2,17.9-10.6
				c8.4-4.4,14.6-7.1,21.8-8.2c6.1-0.9,14.1-4.4,15-8.4C220.8,558.5,219,553.9,210.6,553.4L210.6,553.4z"/>
			<path class="st2" d="M150.4,562.6c0.2,9.9,11.7,14.1,20.6,7.4c8.9-6.7,32.9-15.3,41.8-14.1c5.4,0.7,16.7,0.6,20.3-2.5
				c4.5-3.7,3.7-13.4-5.4-15.8c-10.7-2.9-29.5-2.2-45.6,2.2C160.5,545.7,150.1,552.6,150.4,562.6z"/>
			<path class="st2" d="M182.3,520.4c-19.2,5.3-28.4,11.5-28.2,20.3c0.2,8.8,10.4,12.6,18.3,6.6s29.3-13.7,37.3-12.6
				c4.9,0.7,14.8,0.5,18.1-2.2c4-3.3,3.3-11.9-4.9-14.1C213.3,515.8,196.6,516.4,182.3,520.4L182.3,520.4z"/>
		</g>
		<path class="st2" d="M161.4,520.6c-52.1,34.2-71.6,121.8-52.8,194.5c14.3,55.3,47.7,96.2,94,115.2c30.9,12.7,84.8,18.1,133.1-17.8
			c31.9-23.7,59.8-53.8,74-77.5l1.4-2.4c-8.4-7.5-17.3-14.3-26.8-20.4c-31.8-20.5-54.8-29.5-75.5-31c-1.9,3.2-3.8,6-5.5,8.2
			c-20.7,27.8-38.5,57.1-77.3,53.4c-32.2-3.1-49.5-32.9-61.8-60c-13.2-29.1-14.6-49-14.6-49s22.5-30.4,21.2-63.5
			c0,0,21.8-21.2,35.4-33.3c6.2-5.5,5.7-14.8,0-17.9c0,0,5.2-3.6,11-8.4c7.3-6,3.3-15-7.3-14.1C200.6,497.4,180.6,508,161.4,520.6
			L161.4,520.6z"/>
	</g>
	<g class="st1">
		
			<rect x="115.1" y="477.2" transform="matrix(-0.4773 -0.8787 0.8787 -0.4773 -195.1688 847.4005)" class="st3" width="78.7" height="9"/>
		
			<rect x="195" y="624.4" transform="matrix(-0.4773 -0.8787 0.8787 -0.4773 -206.3816 1135.0543)" class="st3" width="78.7" height="9"/>
		
			<ellipse transform="matrix(0.8787 -0.4773 0.4773 0.8787 -257.1755 174.6447)" class="st3" cx="215.1" cy="593.4" rx="12" ry="10.4"/>
		
			<rect x="153.7" y="548.3" transform="matrix(-0.4773 -0.8787 0.8787 -0.4773 -200.5854 986.3585)" class="st3" width="78.7" height="9"/>
		
			<ellipse transform="matrix(0.8787 -0.4773 0.4773 0.8787 -225.8753 145.6932)" class="st3" cx="173.8" cy="517.3" rx="12" ry="10.4"/>
		
			<ellipse transform="matrix(0.8787 -0.4773 0.4773 0.8787 -196.6249 118.6377)" class="st3" cx="135.2" cy="446.3" rx="12" ry="10.4"/>
		
			<rect x="73.8" y="401.2" transform="matrix(-0.4773 -0.8787 0.8787 -0.4773 -189.3726 698.7047)" class="st3" width="78.7" height="9"/>
		
			<ellipse transform="matrix(0.8787 -0.4773 0.4773 0.8787 -165.3247 89.6861)" class="st3" cx="93.8" cy="370.2" rx="12" ry="10.4"/>
		
			<ellipse transform="matrix(0.8787 -0.4773 0.4773 0.8787 -257.1755 174.6447)" class="st4" cx="215.1" cy="593.4" rx="5.7" ry="5"/>
		
			<ellipse transform="matrix(0.8787 -0.4773 0.4773 0.8787 -225.4495 145.2993)" class="st4" cx="173.2" cy="516.3" rx="5.7" ry="5"/>
		
			<ellipse transform="matrix(0.8787 -0.4773 0.4773 0.8787 -196.6249 118.6377)" class="st4" cx="135.2" cy="446.3" rx="5.7" ry="5"/>
		
			<ellipse transform="matrix(0.8787 -0.4773 0.4773 0.8787 -286.0001 201.3064)" class="st3" cx="253.2" cy="663.5" rx="12" ry="10.4"/>
		
			<ellipse transform="matrix(0.8787 -0.4773 0.4773 0.8787 -286.0001 201.3064)" class="st4" cx="253.2" cy="663.5" rx="5.7" ry="5"/>
		<ellipse transform="matrix(0.8787 -0.4773 0.4773 0.8787 -164.8989 89.2923)" class="st4" cx="93.3" cy="369.2" rx="5.7" ry="5"/>
	</g>
	<g class="st1">
		<path class="st5" d="M265,674.4c-1.9,24.4,22.9,55.6,51.8,75.8c47.5,33.1,83.1,31.5,83.1,31.5c16.2-0.9,26.2-7.3,26.2-21.2
			s-26.6-43.8-58.9-64.7c-37.3-24.1-62.5-32.2-86.1-31.1C271.3,665.2,266.2,666.8,265,674.4L265,674.4z"/>
		<path class="st5" d="M722.7,735.4c6.2-1.3,35.3-8.5,70.2-31.8c28.7-19.1,43.8-45.6,40.7-66.9c-5-18.5-47.1-9-67.9-0.6
			c-23.1,9.3-50.5,23.4-64.2,32.4L722.7,735.4z"/>
		<g>
			<path class="st6" d="M569.9,351.4c4.4-21.2,16.9-34.8,34.7-38.6c24-5.1,42.6,12.7,46.2,34.7c3.8,23.3-6.6,37.9-11.4,44.7
				c-9.2,13.2-27.1,24.8-46,15.5C573.2,397.7,564.9,375.6,569.9,351.4L569.9,351.4z"/>
			<path class="st2" d="M425.9,382.4c-3.6,4-1.7,7.6,3.7,9.3c2.4,0.7,4.8,1.1,7.3,1.3c0,0,4.6,21.4,9.9,31.7
				c5.3,10.3,18.6,4.4,30.2,4.4c11.6,0,16.9-1.7,16.9-1.7s4.9,5.1,3.9,23.9c-1.2,21.8-9.5,30.7-9.5,30.7s-16.4-2.3-26.1-3.4
				c20.4,16.8,57.6,39.8,91.9,36.3c44.7-4.6,64.3-38.5,66.4-58.6c-7.7,2.4-15.3,5.3-22.7,8.6c-14.9-10.3-31.1-26.1-37.4-41.7
				c-6.3-15.6-3.7-26.5,2.3-45.4c6-18.8,8.6-30.1,6.3-51.3c-2.4-22-13-36.8-29.5-48.7c-15.6-11.3-35.1-13.2-54.6-8.9
				c-19.5,4.3-39.1,19.2-48,36.7s-8.2,41.5-6.2,51.8s2.9,14.2-0.8,18.2L425.9,382.4z M708.5,688.7l45.2,143.3
				c31-8.5,59.9-29.5,69.2-69.2c8.7-37.3-18.4-99.5-34.9-132.5c-7.3,1.7-14.4,4-21.4,6.7c-23.1,9.3-50.5,23.4-64.2,32.4L708.5,688.7
				L708.5,688.7z"/>
			<path class="st6" d="M456,345.5c11,3.1,17.2,0.4,19.4-6.2c2.2-6.6,7.9-18.2,20.4-14.5c9.9,3,15.8,16.5,12.9,30.5
				c-3,14.4,0.3,32.9,7.9,40.1c10.3,9.6,29.5,11.1,41.8,6.9c0.5-7.4,2.7-15.2,5.8-25.1c6-18.8,8.6-30.1,6.3-51.3
				c-2.4-22-13-36.8-29.5-48.7c-15.6-11.3-35.1-13.2-54.6-8.9c-19.5,4.3-39.1,19.2-48,36.7c-3.4,6.9-5.3,14.4-5.4,22.1
				C438.3,334.7,446.8,343,456,345.5z"/>
			<ellipse cx="449.3" cy="359.9" rx="5.7" ry="7.7"/>
			<path class="st2" d="M492.2,346.3c3.2,6.4,1.2,13.3-3.3,15.8c-4.1,2.3-9,0.1-9.6-0.2"/>
			<path class="st2" d="M455,407.8c-6,3.1-11.3,3-13,0.7c-0.3-0.5-2.2-2.1-1.9-3.9"/>
		</g>
		<path class="st7" d="M792.9,703.6c-39.7,26.5-70.2,31.8-70.2,31.8l42.4,135H393l6.9-88.7c0,0-35.6,1.6-83.1-31.5
			c-32.8-22.8-60.3-59.9-49.7-85.1c10.6-25.2,29.2-58.3,58.3-116.5c29.1-58.3,51.6-75.5,96.7-74.2c45,1.3,115.2,14.6,115.2,14.6
			s23.8-9.3,59.6-25.2s75.5-23.8,113.9,4S806.4,581,830,625.5C841.8,648,826.9,680.9,792.9,703.6z"/>
	</g>
	<g class="st1">
		<path class="st8" d="M146.4,553.6c0,0,37.1-27.1,43.7-31.8c6.6-4.6,10.6-7.3,16.6-4.2"/>
		<path class="st2" d="M146.4,553.6l52.2-36.8c0,0,19.3,0.4,8.1,19.7L170.9,570c0,0-2.5,35.8-13.2,50.5"/>
	</g>
</g>
<path class="st9" d="M817.1,863.5l7.5-67.7h-53.8l8.8,67.7H817.1z"/>
<path class="st10" d="M239,661.6c-6.3-0.2-12.6-0.4-18.9-2c-8.6-2.1-15.4-5.7-15.4-10.3h14.7H191c0,4.6,6.8,8.2,15.4,10.3
	c10.3,2.5,25.9,1.6,35.8,2.5C241.2,662,240.1,661.8,239,661.6L239,661.6L239,661.6z"/>
<path class="st8" d="M219.4,649.4h-14.7c0,4.6,6.8,8.2,15.4,10.3c6.3,1.5,12.7,1.8,18.9,2h0c1.1,0.2,2.1,0.4,3.3,0.5
	c-9.9-0.9-25.5,0-35.8-2.5c-8.6-2.1-15.4-5.7-15.4-10.3H219.4L219.4,649.4z M219.4,649.4c0.1,0.4,0.3,0.9,0.5,1.3 M613,530.4
	c5.2-9,6-18.3,1.7-20.8c-4.3-2.5-12,2.8-17.2,11.8c-5.2,9-6,18.3-1.7,20.8C600.1,544.7,607.8,539.4,613,530.4L613,530.4z"/>
<path class="st11" d="M514.6,823l-33.7-114.6c0,0,53.9-38.3,153.2-67.4c107.1-31.3,192.2-25.5,202.2,154.8h-65.5l8.8,67.7h-211
	l-4.1-71.1L514.6,823L514.6,823z"/>
<path class="st8" d="M568.6,863.5l-8-138.9"/>
<path class="st12" d="M700.2,627.3c0,0-13.2,30.1-47.3,36.9c-34.1,6.9-50-13.2-50-13.2s18.3-8.1,11.1-35.2c0,0-18,5.1-27.8,0.8
	c-10.8-4.8-17.6-14.4-9.6-29.8s17.5-31.8,17.5-31.8l-10.2-5.5c25.9-5.2,33.5-63.7,83-40.1c49.5,23.6,37.8,56.8,29.1,67.5
	c-8.7,10.7-17,21.7-18.4,34.1C676.3,623.6,700.2,627.3,700.2,627.3z"/>
<path class="st6" d="M724.3,539.9c-6-9.9-18.1-9.2-18.1-9.2s6.5-14.4,4.5-22.1c-1.9-7.8-9.4-15.8-20.2-15.3
	c-10.8,0.5-18.6,7.9-18.6,7.9s-7.1-18.3-15-24.4c-7.9-6.2-23.1-4.5-28.1,4.4c-5,8.9-2.1,20.2,3.4,26.2c0,0,1.3,0.8,8,4.9
	c8.5,5.3,16.2,9.4,25.3,12.2c5.7,1.8,4.7,7.3-0.7,8.7c-4.3,1.1-14.3,6-20.5,15.6c-7.8,11.9-14.8,25.2-20.4,34.4
	c-5.6,9.2-13.8,6.3-13.7,0c0.1-6.3-5.4-15-10.3-22.3c-1.6-2.2-3.5-4.2-5.8-5.7c-8.6,14.4-17.8,30.9-19.7,37.2
	c-3.2,10.5,1.9,20.2,11.8,24.4c9.9,4.2,22.8,0.5,27.3-4.5c0,0,34.4-45.5,42.6-54.3c8.2-8.7,20.6-5.1,22.5,2.2
	c1.9,7.3-2.7,14.8-8.5,20.1s-8.7,11.1-1.9,26.2c3.6,7.9,7.7,10,13.2,13.6c-0.4-7.6,1.5-13.3,5.7-20.3c5.2-8.6,15.2-14.4,27.8-24.4
	C727.6,565.2,730.3,549.7,724.3,539.9L724.3,539.9z"/>
<path class="st8" d="M673.5,554.1l-73.6-35"/>
<path class="st13" d="M480.9,708.4c0,0,27.1,42.3,38.7,64.2c11.1,21,7.1,45.5-5.1,50.3c-16.9,6.7-33.6-19.7-44.7-45.8
	c-7-16.7-12.4-34-16-51.7L480.9,708.4L480.9,708.4z"/>
<path class="st12" d="M279.1,652.1c0,0-14.4-15.4-19.2-22.9c-4.8-7.5,2.1-11,14.4-5s179.3,104,179.3,104l27.3-17l38.7,64.2
	c-16.3,10.3-36,22.6-62.7,19.9c-26.6-2.7-55.4-30.4-83.4-55.9c-27.9-25.6-58.3-53.3-72.7-60.7c-14.4-7.5-63-12.2-74.7-13.8
	c-11.7-1.6-20.8-5.3-22.9-12.8L279.1,652.1z"/>
<g>
	<path class="st5" d="M404.8,643.9H156.2c-12.4,0-19.4-10.2-15.4-22.6l45.7-173.6c4-12.4,17.4-22.6,29.8-22.6h258.1
		c12.4,0,19.4,10.2,15.4,22.6l-55.3,173.6C430.6,633.8,417.2,643.9,404.8,643.9z"/>
	<path class="st14" d="M393.4,549.9l-246.3-90.1c-13.4-4.9-20.3-19.8-15.4-33.2l13.8-37.9c4.9-13.4,19.8-20.3,33.2-15.4L425,463.4
		c13.4,4.9,20.3,19.8,15.4,33.2l-13.8,37.9C421.7,547.9,406.8,554.8,393.4,549.9z"/>
	<path class="st15" d="M263,462.6c-13.1,0-27-10.7-30.8-23.8l-1.7-6c-3.3-11.3-15-20.4-26.3-20.4H90.8c-13.1,0-20.7,10.7-16.9,23.8
		l54.9,189.3c3.8,13.1,17.6,23.8,30.8,23.8H407c13.1,0,20.7-10.7,16.9-23.8L382.6,483c-3.3-11.3-15-20.4-26.3-20.4L263,462.6
		L263,462.6z"/>
	<path class="st14" d="M524.8,456.2L127.7,324.9c-13.6-4.5-20.9-19.1-16.4-32.7l27-81.7c4.5-13.6,19.1-20.9,32.7-16.4L568,325.4
		c13.6,4.5,20.9,19.1,16.4,32.7l-27,81.7C553,453.3,538.3,460.7,524.8,456.2z"/>
	<g>
		<path d="M216.2,332.3c-3.1-0.7-5.9-1.9-8.3-3.6c-2.4-1.7-4.4-3.7-5.9-6c-1.5-2.3-2.5-4.9-3-7.7c-0.5-2.8-0.4-5.7,0.3-8.7
			c0.7-3,1.9-5.6,3.6-7.9c1.7-2.3,3.7-4.1,6.1-5.5c2.4-1.4,5-2.4,7.9-2.8c2.9-0.4,5.9-0.3,9.1,0.5c3.1,0.7,5.9,1.9,8.3,3.6
			c2.4,1.7,4.3,3.7,5.8,6c1.5,2.3,2.5,4.9,2.9,7.7c0.5,2.8,0.3,5.7-0.4,8.7c-0.7,3-1.9,5.7-3.6,8c-1.7,2.3-3.7,4.1-6.1,5.5
			c-2.4,1.4-5,2.3-7.9,2.7C222.3,333.2,219.3,333.1,216.2,332.3z M217.4,327.1c2.3,0.5,4.5,0.7,6.6,0.3c2.1-0.3,4-1,5.8-2.1
			c1.8-1.1,3.3-2.5,4.5-4.2c1.2-1.7,2.1-3.7,2.7-5.9c0.5-2.3,0.6-4.4,0.3-6.5c-0.3-2.1-1.1-4-2.1-5.8c-1.1-1.8-2.5-3.2-4.2-4.5
			c-1.7-1.2-3.8-2.1-6.1-2.7c-2.3-0.5-4.4-0.6-6.5-0.3c-2.1,0.3-4.1,1-5.8,2.1c-1.8,1.1-3.3,2.5-4.5,4.2c-1.2,1.7-2.1,3.7-2.7,6
			c-0.5,2.2-0.6,4.4-0.3,6.5c0.3,2.1,1.1,4,2.2,5.8c1.1,1.8,2.5,3.3,4.3,4.5C213.1,325.7,215.1,326.6,217.4,327.1z M227.6,343.5
			c-1.4-0.3-2.6-0.8-3.8-1.4c-1.2-0.6-2.3-1.4-3.4-2.5c-1.1-1-2.1-2.3-3.2-3.7c-1.1-1.5-2.2-3.2-3.3-5.2l6.6-0.2
			c0.8,1.7,1.7,3.2,2.5,4.3c0.9,1.2,1.8,2.1,2.7,2.7c1,0.7,2,1.1,3,1.4c2.9,0.7,5.6,0.1,8.2-1.7l2,4
			C235.6,343.7,231.8,344.5,227.6,343.5z"/>
		<path d="M246.1,339.3c-1.1-0.3-1.9-0.9-2.5-1.8c-0.6-0.9-0.8-2-0.5-3.2c0.3-1.2,0.9-2,1.8-2.6c1-0.6,2-0.7,3.1-0.4
			c1,0.2,1.9,0.8,2.4,1.7c0.6,0.9,0.7,2,0.5,3.1c-0.3,1.2-0.9,2-1.8,2.6C248.2,339.4,247.2,339.5,246.1,339.3z"/>
		<path d="M259.4,342.4c-1.1-0.3-1.9-0.9-2.5-1.8c-0.6-0.9-0.8-2-0.5-3.2c0.3-1.2,0.9-2,1.8-2.6c1-0.6,2-0.7,3.1-0.4
			c1,0.2,1.9,0.8,2.4,1.7c0.6,0.9,0.7,2,0.5,3.1c-0.3,1.2-0.9,2-1.8,2.6C261.4,342.5,260.4,342.7,259.4,342.4z"/>
		<path d="M272.6,345.6c-1.1-0.3-1.9-0.9-2.5-1.8c-0.6-0.9-0.8-2-0.5-3.2c0.3-1.2,0.9-2,1.8-2.6c1-0.6,2-0.7,3.1-0.4
			c1,0.2,1.9,0.8,2.4,1.7c0.6,0.9,0.7,2,0.5,3.1c-0.3,1.2-0.9,2-1.8,2.6C274.7,345.6,273.7,345.8,272.6,345.6z"/>
		<path d="M285.9,348.7c-1.1-0.3-1.9-0.9-2.5-1.8c-0.6-0.9-0.8-2-0.5-3.2c0.3-1.2,0.9-2,1.8-2.6c1-0.6,2-0.7,3.1-0.4
			c1,0.2,1.9,0.8,2.4,1.7c0.6,0.9,0.7,2,0.5,3.1c-0.3,1.2-0.9,2-1.8,2.6C287.9,348.8,286.9,348.9,285.9,348.7z"/>
		<path d="M310.1,354.4c-3-0.7-5.5-2-7.5-3.9c-2-1.9-3.5-4.2-4.3-6.9c-0.8-2.7-0.8-5.6-0.1-8.8c0.7-3.1,2.1-5.7,4-7.8
			c1.9-2,4.2-3.4,6.9-4.2c2.7-0.8,5.5-0.8,8.5-0.1c2.7,0.6,4.9,1.8,6.8,3.4c1.8,1.7,3.1,3.8,3.7,6.4c0.7,2.6,0.6,5.7-0.2,9.2
			s-2.2,6.3-4,8.3c-1.8,2-3.9,3.4-6.3,4.1C315.2,355,312.7,355.1,310.1,354.4z M311.7,349.6c1.9,0.5,3.8,0.4,5.6-0.1
			c1.8-0.5,3.3-1.5,4.6-2.9c1.3-1.4,2.2-3.2,2.7-5.4c0.5-2.2,0.5-4.2,0-6.1c-0.5-1.8-1.5-3.4-2.8-4.6c-1.4-1.3-3-2.1-5-2.6
			c-2-0.5-3.9-0.4-5.6,0.1c-1.8,0.5-3.3,1.5-4.6,2.9c-1.3,1.4-2.2,3.2-2.8,5.4c-0.5,2.2-0.5,4.2,0,6.1c0.5,1.9,1.5,3.4,2.8,4.7
			C308.1,348.3,309.8,349.2,311.7,349.6z M318.3,368l4.6-19.5l2.3-7l1.3-7.3l2-8.3l5.4,1.3l-10,42.2L318.3,368z"/>
		<path d="M338.5,361.1c-1.1-0.3-1.9-0.9-2.5-1.8c-0.6-0.9-0.8-2-0.5-3.2c0.3-1.2,0.9-2,1.8-2.6c1-0.6,2-0.7,3.1-0.4
			c1,0.2,1.9,0.8,2.4,1.7c0.6,0.9,0.7,2,0.5,3.1c-0.3,1.2-0.9,2-1.8,2.6C340.5,361.2,339.5,361.4,338.5,361.1z"/>
		<path d="M351.7,364.3c-1.1-0.3-1.9-0.9-2.5-1.8c-0.6-0.9-0.8-2-0.5-3.2c0.3-1.2,0.9-2,1.8-2.6c1-0.6,2-0.7,3.1-0.4
			c1,0.2,1.9,0.8,2.4,1.7c0.6,0.9,0.7,2,0.5,3.1c-0.3,1.2-0.9,2-1.8,2.6C353.7,364.4,352.7,364.5,351.7,364.3z"/>
		<path d="M364.9,367.4c-1.1-0.3-1.9-0.9-2.5-1.8c-0.6-0.9-0.8-2-0.5-3.2c0.3-1.2,0.9-2,1.8-2.6c1-0.6,2-0.7,3.1-0.4
			c1,0.2,1.9,0.8,2.4,1.7c0.6,0.9,0.7,2,0.5,3.1c-0.3,1.2-0.9,2-1.8,2.6C367,367.5,366,367.7,364.9,367.4z"/>
		<path d="M378.2,370.5c-1.1-0.3-1.9-0.9-2.5-1.8c-0.6-0.9-0.8-2-0.5-3.2c0.3-1.2,0.9-2,1.8-2.6c1-0.6,2-0.7,3.1-0.4
			c1,0.2,1.9,0.8,2.4,1.7c0.6,0.9,0.7,2,0.5,3.1c-0.3,1.2-0.9,2-1.8,2.6C380.2,370.6,379.2,370.8,378.2,370.5z"/>
		<path d="M391.4,373.7c-1.1-0.3-1.9-0.9-2.5-1.8c-0.6-0.9-0.8-2-0.5-3.2c0.3-1.2,0.9-2,1.8-2.6c1-0.6,2-0.7,3.1-0.4
			c1,0.2,1.9,0.8,2.4,1.7c0.6,0.9,0.7,2,0.5,3.1c-0.3,1.2-0.9,2-1.8,2.6C393.5,373.8,392.5,373.9,391.4,373.7z"/>
		<path d="M404.6,376.8c-1.1-0.3-1.9-0.9-2.5-1.8c-0.6-0.9-0.8-2-0.5-3.2c0.3-1.2,0.9-2,1.8-2.6c1-0.6,2-0.7,3.1-0.4
			c1,0.2,1.9,0.8,2.4,1.7c0.6,0.9,0.7,2,0.5,3.1c-0.3,1.2-0.9,2-1.8,2.6C406.7,376.9,405.7,377.1,404.6,376.8z"/>
		<path d="M417.9,379.9c-1.1-0.3-1.9-0.9-2.5-1.8c-0.6-0.9-0.8-2-0.5-3.2c0.3-1.2,0.9-2,1.8-2.6c1-0.6,2-0.7,3.1-0.4
			c1,0.2,1.9,0.8,2.4,1.7c0.6,0.9,0.7,2,0.5,3.1c-0.3,1.2-0.9,2-1.8,2.6C419.9,380,418.9,380.2,417.9,379.9z"/>
		<path d="M431.1,383.1c-1.1-0.3-1.9-0.9-2.5-1.8c-0.6-0.9-0.8-2-0.5-3.2c0.3-1.2,0.9-2,1.8-2.6c1-0.6,2-0.7,3.1-0.4
			c1,0.2,1.9,0.8,2.4,1.7c0.6,0.9,0.7,2,0.5,3.1c-0.3,1.2-0.9,2-1.8,2.6C433.2,383.2,432.2,383.3,431.1,383.1z"/>
		<path d="M444.4,386.2c-1.1-0.3-1.9-0.9-2.5-1.8c-0.6-0.9-0.8-2-0.5-3.2c0.3-1.2,0.9-2,1.8-2.6c1-0.6,2-0.7,3.1-0.4
			c1,0.2,1.9,0.8,2.4,1.7c0.6,0.9,0.7,2,0.5,3.1c-0.3,1.2-0.9,2-1.8,2.6C446.4,386.3,445.4,386.5,444.4,386.2z"/>
		<path d="M457.6,389.3c-1.1-0.3-1.9-0.9-2.5-1.8c-0.6-0.9-0.8-2-0.5-3.2c0.3-1.2,0.9-2,1.8-2.6c1-0.6,2-0.7,3.1-0.4
			c1,0.2,1.9,0.8,2.4,1.7c0.6,0.9,0.7,2,0.5,3.1c-0.3,1.2-0.9,2-1.8,2.6C459.6,389.4,458.6,389.6,457.6,389.3z"/>
	</g>
	<path class="st14" d="M503,375.1L96,278.8c-13.9-3.3-22.5-17.2-19.2-31.1l19.8-83.7c3.3-13.9,17.2-22.5,31.1-19.2l407,96.3
		c13.9,3.3,22.5,17.2,19.2,31.1l-19.8,83.7C530.8,369.8,516.9,378.4,503,375.1z"/>
	<g>
		<path d="M185.1,256.5c-3.1-0.7-5.9-1.9-8.3-3.6c-2.4-1.7-4.4-3.7-5.9-6c-1.5-2.3-2.5-4.9-3-7.7c-0.5-2.8-0.4-5.7,0.3-8.7
			c0.7-3,1.9-5.6,3.6-7.9c1.7-2.3,3.7-4.1,6.1-5.5c2.4-1.4,5-2.4,7.9-2.8c2.9-0.4,5.9-0.3,9.1,0.5c3.1,0.7,5.9,1.9,8.3,3.6
			c2.4,1.7,4.3,3.7,5.8,6c1.5,2.3,2.5,4.9,2.9,7.7c0.5,2.8,0.3,5.7-0.4,8.7c-0.7,3-1.9,5.7-3.6,8c-1.7,2.3-3.7,4.1-6.1,5.5
			c-2.4,1.4-5,2.3-7.9,2.7C191.2,257.4,188.2,257.2,185.1,256.5z M186.2,251.3c2.3,0.5,4.5,0.7,6.6,0.3c2.1-0.3,4-1,5.8-2.1
			c1.8-1.1,3.3-2.5,4.5-4.2c1.2-1.7,2.1-3.7,2.7-5.9c0.5-2.3,0.6-4.4,0.3-6.5c-0.3-2.1-1.1-4-2.1-5.8c-1.1-1.8-2.5-3.2-4.2-4.5
			c-1.7-1.2-3.8-2.1-6.1-2.7c-2.3-0.5-4.4-0.6-6.5-0.3c-2.1,0.3-4.1,1-5.8,2.1c-1.8,1.1-3.3,2.5-4.5,4.2c-1.2,1.7-2.1,3.7-2.7,6
			c-0.5,2.2-0.6,4.4-0.3,6.5c0.3,2.1,1.1,4,2.2,5.8c1.1,1.8,2.5,3.3,4.3,4.5C182,249.9,184,250.7,186.2,251.3z M196.5,267.7
			c-1.4-0.3-2.6-0.8-3.8-1.4c-1.2-0.6-2.3-1.4-3.4-2.5c-1.1-1-2.1-2.3-3.2-3.7c-1.1-1.5-2.2-3.2-3.3-5.2l6.6-0.2
			c0.8,1.7,1.7,3.2,2.5,4.3c0.9,1.2,1.8,2.1,2.7,2.7c1,0.7,2,1.1,3,1.4c2.9,0.7,5.6,0.1,8.2-1.7l2,4
			C204.5,267.9,200.7,268.7,196.5,267.7z"/>
		<path d="M215,263.4c-1.1-0.3-1.9-0.9-2.5-1.8c-0.6-0.9-0.8-2-0.5-3.2c0.3-1.2,0.9-2,1.8-2.6c1-0.6,2-0.7,3.1-0.4
			c1,0.2,1.9,0.8,2.4,1.7c0.6,0.9,0.7,2,0.5,3.1c-0.3,1.2-0.9,2-1.8,2.6C217,263.5,216,263.7,215,263.4z"/>
		<path d="M228.2,266.6c-1.1-0.3-1.9-0.9-2.5-1.8c-0.6-0.9-0.8-2-0.5-3.2c0.3-1.2,0.9-2,1.8-2.6c1-0.6,2-0.7,3.1-0.4
			c1,0.2,1.9,0.8,2.4,1.7c0.6,0.9,0.7,2,0.5,3.1c-0.3,1.2-0.9,2-1.8,2.6C230.3,266.7,229.3,266.8,228.2,266.6z"/>
		<path d="M241.5,269.7c-1.1-0.3-1.9-0.9-2.5-1.8c-0.6-0.9-0.8-2-0.5-3.2c0.3-1.2,0.9-2,1.8-2.6c1-0.6,2-0.7,3.1-0.4
			c1,0.2,1.9,0.8,2.4,1.7c0.6,0.9,0.7,2,0.5,3.1c-0.3,1.2-0.9,2-1.8,2.6C243.5,269.8,242.5,270,241.5,269.7z"/>
		<path d="M254.7,272.8c-1.1-0.3-1.9-0.9-2.5-1.8c-0.6-0.9-0.8-2-0.5-3.2c0.3-1.2,0.9-2,1.8-2.6c1-0.6,2-0.7,3.1-0.4
			c1,0.2,1.9,0.8,2.4,1.7c0.6,0.9,0.7,2,0.5,3.1c-0.3,1.2-0.9,2-1.8,2.6C256.8,272.9,255.8,273.1,254.7,272.8z"/>
		<path d="M279,278.6c-3-0.7-5.5-2-7.5-3.9c-2-1.9-3.5-4.2-4.3-6.9c-0.8-2.7-0.8-5.6-0.1-8.8c0.7-3.1,2.1-5.7,4-7.8
			c1.9-2,4.2-3.4,6.9-4.2c2.7-0.8,5.5-0.8,8.5-0.1c2.7,0.6,4.9,1.8,6.8,3.4c1.8,1.7,3.1,3.8,3.7,6.4c0.7,2.6,0.6,5.7-0.2,9.2
			s-2.2,6.3-4,8.3c-1.8,2-3.9,3.4-6.3,4.1C284.1,279.2,281.6,279.2,279,278.6z M280.6,273.8c1.9,0.5,3.8,0.4,5.6-0.1
			c1.8-0.5,3.3-1.5,4.6-2.9c1.3-1.4,2.2-3.2,2.7-5.4c0.5-2.2,0.5-4.2,0-6.1c-0.5-1.8-1.5-3.4-2.8-4.6c-1.4-1.3-3-2.1-5-2.6
			c-2-0.5-3.9-0.4-5.6,0.1c-1.8,0.5-3.3,1.5-4.6,2.9c-1.3,1.4-2.2,3.2-2.8,5.4c-0.5,2.2-0.5,4.2,0,6.1c0.5,1.9,1.5,3.4,2.8,4.7
			C277,272.5,278.6,273.3,280.6,273.8z M287.2,292.1l4.6-19.5l2.3-7l1.3-7.3l2-8.3l5.4,1.3l-10,42.2L287.2,292.1z"/>
		<path d="M307.3,285.3c-1.1-0.3-1.9-0.9-2.5-1.8c-0.6-0.9-0.8-2-0.5-3.2c0.3-1.2,0.9-2,1.8-2.6c1-0.6,2-0.7,3.1-0.4
			c1,0.2,1.9,0.8,2.4,1.7c0.6,0.9,0.7,2,0.5,3.1c-0.3,1.2-0.9,2-1.8,2.6C309.4,285.4,308.4,285.5,307.3,285.3z"/>
		<path d="M320.6,288.4c-1.1-0.3-1.9-0.9-2.5-1.8c-0.6-0.9-0.8-2-0.5-3.2c0.3-1.2,0.9-2,1.8-2.6c1-0.6,2-0.7,3.1-0.4
			c1,0.2,1.9,0.8,2.4,1.7c0.6,0.9,0.7,2,0.5,3.1c-0.3,1.2-0.9,2-1.8,2.6C322.6,288.5,321.6,288.7,320.6,288.4z"/>
		<path d="M333.8,291.6c-1.1-0.3-1.9-0.9-2.5-1.8c-0.6-0.9-0.8-2-0.5-3.2c0.3-1.2,0.9-2,1.8-2.6c1-0.6,2-0.7,3.1-0.4
			c1,0.2,1.9,0.8,2.4,1.7c0.6,0.9,0.7,2,0.5,3.1c-0.3,1.2-0.9,2-1.8,2.6C335.8,291.6,334.8,291.8,333.8,291.6z"/>
		<path d="M347,294.7c-1.1-0.3-1.9-0.9-2.5-1.8c-0.6-0.9-0.8-2-0.5-3.2c0.3-1.2,0.9-2,1.8-2.6c1-0.6,2-0.7,3.1-0.4
			c1,0.2,1.9,0.8,2.4,1.7c0.6,0.9,0.7,2,0.5,3.1c-0.3,1.2-0.9,2-1.8,2.6C349.1,294.8,348.1,294.9,347,294.7z"/>
		<path d="M360.3,297.8c-1.1-0.3-1.9-0.9-2.5-1.8c-0.6-0.9-0.8-2-0.5-3.2c0.3-1.2,0.9-2,1.8-2.6c1-0.6,2-0.7,3.1-0.4
			c1,0.2,1.9,0.8,2.4,1.7c0.6,0.9,0.7,2,0.5,3.1c-0.3,1.2-0.9,2-1.8,2.6C362.3,297.9,361.3,298.1,360.3,297.8z"/>
		<path d="M373.5,301c-1.1-0.3-1.9-0.9-2.5-1.8c-0.6-0.9-0.8-2-0.5-3.2c0.3-1.2,0.9-2,1.8-2.6c1-0.6,2-0.7,3.1-0.4
			c1,0.2,1.9,0.8,2.4,1.7c0.6,0.9,0.7,2,0.5,3.1c-0.3,1.2-0.9,2-1.8,2.6C375.5,301,374.6,301.2,373.5,301z"/>
		<path d="M386.7,304.1c-1.1-0.3-1.9-0.9-2.5-1.8c-0.6-0.9-0.8-2-0.5-3.2c0.3-1.2,0.9-2,1.8-2.6c1-0.6,2-0.7,3.1-0.4
			c1,0.2,1.9,0.8,2.4,1.7c0.6,0.9,0.7,2,0.5,3.1c-0.3,1.2-0.9,2-1.8,2.6C388.8,304.2,387.8,304.3,386.7,304.1z"/>
		<path d="M400,307.2c-1.1-0.3-1.9-0.9-2.5-1.8c-0.6-0.9-0.8-2-0.5-3.2c0.3-1.2,0.9-2,1.8-2.6c1-0.6,2-0.7,3.1-0.4
			c1,0.2,1.9,0.8,2.4,1.7c0.6,0.9,0.7,2,0.5,3.1c-0.3,1.2-0.9,2-1.8,2.6C402,307.3,401,307.5,400,307.2z"/>
		<path d="M413.2,310.4c-1.1-0.3-1.9-0.9-2.5-1.8c-0.6-0.9-0.8-2-0.5-3.2c0.3-1.2,0.9-2,1.8-2.6c1-0.6,2-0.7,3.1-0.4
			c1,0.2,1.9,0.8,2.4,1.7c0.6,0.9,0.7,2,0.5,3.1c-0.3,1.2-0.9,2-1.8,2.6C415.3,310.4,414.3,310.6,413.2,310.4z"/>
		<path d="M426.5,313.5c-1.1-0.3-1.9-0.9-2.5-1.8c-0.6-0.9-0.8-2-0.5-3.2c0.3-1.2,0.9-2,1.8-2.6c1-0.6,2-0.7,3.1-0.4
			c1,0.2,1.9,0.8,2.4,1.7c0.6,0.9,0.7,2,0.5,3.1c-0.3,1.2-0.9,2-1.8,2.6C428.5,313.6,427.5,313.7,426.5,313.5z"/>
	</g>
	<path class="st14" d="M515.5,276H97.2c-14.3,0-25.9-11.6-25.9-25.9v-86c0-14.3,11.6-25.9,25.9-25.9h418.2
		c14.3,0,25.9,11.6,25.9,25.9v86C541.3,264.4,529.8,276,515.5,276z"/>
	<g>
		<path d="M119,223c-3.2,0-6.2-0.5-8.9-1.6c-2.7-1.1-5.1-2.6-7.1-4.5c-2-1.9-3.6-4.2-4.7-6.8c-1.1-2.6-1.7-5.4-1.7-8.5
			c0-3.1,0.6-5.9,1.7-8.5c1.1-2.6,2.7-4.9,4.7-6.8c2-1.9,4.4-3.4,7.1-4.5c2.7-1.1,5.7-1.6,8.9-1.6c3.2,0,6.2,0.5,8.9,1.6
			c2.7,1.1,5.1,2.6,7.1,4.5c2,1.9,3.5,4.2,4.6,6.8c1.1,2.6,1.6,5.5,1.6,8.5c0,3.1-0.5,6-1.6,8.6c-1.1,2.6-2.6,4.9-4.6,6.8
			c-2,1.9-4.4,3.4-7.1,4.5C125.1,222.5,122.2,223,119,223z M118.9,217.7c2.4,0,4.5-0.4,6.5-1.2c2-0.8,3.7-1.9,5.2-3.4
			c1.5-1.5,2.6-3.2,3.4-5.2c0.8-2,1.2-4.1,1.2-6.4c0-2.3-0.4-4.5-1.2-6.4c-0.8-2-2-3.7-3.4-5.1c-1.5-1.5-3.2-2.6-5.2-3.4
			c-2-0.8-4.1-1.2-6.5-1.2c-2.3,0-4.5,0.4-6.4,1.2c-2,0.8-3.7,1.9-5.2,3.4c-1.5,1.5-2.6,3.2-3.4,5.1c-0.8,2-1.2,4.1-1.2,6.4
			c0,2.3,0.4,4.4,1.2,6.4c0.8,2,2,3.7,3.4,5.2c1.5,1.5,3.2,2.6,5.2,3.4C114.4,217.3,116.6,217.7,118.9,217.7z M132.7,231.3
			c-1.4,0-2.7-0.2-4-0.5c-1.3-0.3-2.6-0.9-3.8-1.6c-1.3-0.7-2.6-1.7-4-2.9c-1.4-1.2-2.8-2.6-4.4-4.3l6.4-1.7
			c1.2,1.5,2.3,2.7,3.4,3.6c1.1,0.9,2.2,1.6,3.3,2c1.1,0.4,2.2,0.6,3.2,0.6c3,0,5.5-1.2,7.6-3.6l2.8,3.4
			C140.5,229.6,137,231.3,132.7,231.3z"/>
		<path d="M149.7,222.9c-1.1,0-2.1-0.4-2.9-1.2c-0.8-0.8-1.2-1.8-1.2-3c0-1.2,0.4-2.2,1.2-2.9c0.8-0.8,1.8-1.1,2.9-1.1
			c1.1,0,2,0.4,2.8,1.1c0.8,0.8,1.2,1.7,1.2,2.9c0,1.2-0.4,2.2-1.2,3C151.7,222.5,150.8,222.9,149.7,222.9z"/>
		<path d="M163.3,222.9c-1.1,0-2.1-0.4-2.9-1.2c-0.8-0.8-1.2-1.8-1.2-3c0-1.2,0.4-2.2,1.2-2.9c0.8-0.8,1.8-1.1,2.9-1.1
			c1.1,0,2,0.4,2.8,1.1c0.8,0.8,1.2,1.7,1.2,2.9c0,1.2-0.4,2.2-1.2,3C165.3,222.5,164.4,222.9,163.3,222.9z"/>
		<path d="M176.9,222.9c-1.1,0-2.1-0.4-2.9-1.2c-0.8-0.8-1.2-1.8-1.2-3c0-1.2,0.4-2.2,1.2-2.9c0.8-0.8,1.8-1.1,2.9-1.1
			c1.1,0,2,0.4,2.8,1.1c0.8,0.8,1.2,1.7,1.2,2.9c0,1.2-0.4,2.2-1.2,3C178.9,222.5,178,222.9,176.9,222.9z"/>
		<path d="M190.5,222.9c-1.1,0-2.1-0.4-2.9-1.2c-0.8-0.8-1.2-1.8-1.2-3c0-1.2,0.4-2.2,1.2-2.9c0.8-0.8,1.8-1.1,2.9-1.1
			c1.1,0,2,0.4,2.8,1.1c0.8,0.8,1.2,1.7,1.2,2.9c0,1.2-0.4,2.2-1.2,3C192.5,222.5,191.6,222.9,190.5,222.9z"/>
		<path d="M215.4,222.9c-3.1,0-5.8-0.7-8.2-2c-2.4-1.4-4.3-3.3-5.7-5.7c-1.4-2.4-2.1-5.3-2.1-8.5c0-3.2,0.7-6.1,2.1-8.5
			c1.4-2.4,3.3-4.3,5.7-5.7c2.4-1.4,5.2-2,8.2-2c2.8,0,5.2,0.6,7.4,1.8c2.2,1.2,3.9,3,5.1,5.4c1.3,2.4,1.9,5.4,1.9,9s-0.6,6.6-1.9,9
			c-1.3,2.4-3,4.2-5.2,5.4C220.5,222.3,218.1,222.9,215.4,222.9z M215.9,217.8c2,0,3.8-0.5,5.4-1.4c1.6-0.9,2.9-2.2,3.8-3.9
			c0.9-1.7,1.4-3.7,1.4-5.9c0-2.3-0.5-4.2-1.4-5.9c-0.9-1.7-2.2-2.9-3.8-3.9c-1.6-0.9-3.4-1.4-5.4-1.4c-2,0-3.9,0.5-5.5,1.4
			c-1.6,0.9-2.9,2.2-3.8,3.9c-1,1.7-1.4,3.6-1.4,5.9c0,2.2,0.5,4.2,1.4,5.9c1,1.7,2.2,3,3.8,3.9
			C212.1,217.4,213.9,217.8,215.9,217.8z M226.5,234.1v-20.1l0.6-7.4l-0.4-7.4v-8.6h5.5v43.4H226.5z"/>
		<path d="M244.6,222.9c-1.1,0-2.1-0.4-2.9-1.2c-0.8-0.8-1.2-1.8-1.2-3c0-1.2,0.4-2.2,1.2-2.9c0.8-0.8,1.8-1.1,2.9-1.1
			c1.1,0,2,0.4,2.8,1.1c0.8,0.8,1.2,1.7,1.2,2.9c0,1.2-0.4,2.2-1.2,3C246.6,222.5,245.6,222.9,244.6,222.9z"/>
		<path d="M258.2,222.9c-1.1,0-2.1-0.4-2.9-1.2c-0.8-0.8-1.2-1.8-1.2-3c0-1.2,0.4-2.2,1.2-2.9c0.8-0.8,1.8-1.1,2.9-1.1
			c1.1,0,2,0.4,2.8,1.1c0.8,0.8,1.2,1.7,1.2,2.9c0,1.2-0.4,2.2-1.2,3C260.2,222.5,259.2,222.9,258.2,222.9z"/>
		<path d="M271.8,222.9c-1.1,0-2.1-0.4-2.9-1.2c-0.8-0.8-1.2-1.8-1.2-3c0-1.2,0.4-2.2,1.2-2.9c0.8-0.8,1.8-1.1,2.9-1.1
			c1.1,0,2,0.4,2.8,1.1c0.8,0.8,1.2,1.7,1.2,2.9c0,1.2-0.4,2.2-1.2,3C273.8,222.5,272.9,222.9,271.8,222.9z"/>
		<path d="M285.4,222.9c-1.1,0-2.1-0.4-2.9-1.2c-0.8-0.8-1.2-1.8-1.2-3c0-1.2,0.4-2.2,1.2-2.9c0.8-0.8,1.8-1.1,2.9-1.1
			c1.1,0,2,0.4,2.8,1.1c0.8,0.8,1.2,1.7,1.2,2.9c0,1.2-0.4,2.2-1.2,3C287.4,222.5,286.5,222.9,285.4,222.9z"/>
		<path d="M299,222.9c-1.1,0-2.1-0.4-2.9-1.2c-0.8-0.8-1.2-1.8-1.2-3c0-1.2,0.4-2.2,1.2-2.9c0.8-0.8,1.8-1.1,2.9-1.1
			c1.1,0,2,0.4,2.8,1.1c0.8,0.8,1.2,1.7,1.2,2.9c0,1.2-0.4,2.2-1.2,3C301,222.5,300.1,222.9,299,222.9z"/>
		<path d="M312.6,222.9c-1.1,0-2.1-0.4-2.9-1.2c-0.8-0.8-1.2-1.8-1.2-3c0-1.2,0.4-2.2,1.2-2.9c0.8-0.8,1.8-1.1,2.9-1.1
			c1.1,0,2,0.4,2.8,1.1c0.8,0.8,1.2,1.7,1.2,2.9c0,1.2-0.4,2.2-1.2,3C314.6,222.5,313.7,222.9,312.6,222.9z"/>
		<path d="M326.2,222.9c-1.1,0-2.1-0.4-2.9-1.2c-0.8-0.8-1.2-1.8-1.2-3c0-1.2,0.4-2.2,1.2-2.9c0.8-0.8,1.8-1.1,2.9-1.1
			c1.1,0,2,0.4,2.8,1.1c0.8,0.8,1.2,1.7,1.2,2.9c0,1.2-0.4,2.2-1.2,3C328.2,222.5,327.3,222.9,326.2,222.9z"/>
		<path d="M339.8,222.9c-1.1,0-2.1-0.4-2.9-1.2c-0.8-0.8-1.2-1.8-1.2-3c0-1.2,0.4-2.2,1.2-2.9c0.8-0.8,1.8-1.1,2.9-1.1
			c1.1,0,2,0.4,2.8,1.1c0.8,0.8,1.2,1.7,1.2,2.9c0,1.2-0.4,2.2-1.2,3C341.8,222.5,340.9,222.9,339.8,222.9z"/>
		<path d="M353.4,222.9c-1.1,0-2.1-0.4-2.9-1.2c-0.8-0.8-1.2-1.8-1.2-3c0-1.2,0.4-2.2,1.2-2.9c0.8-0.8,1.8-1.1,2.9-1.1
			c1.1,0,2,0.4,2.8,1.1c0.8,0.8,1.2,1.7,1.2,2.9c0,1.2-0.4,2.2-1.2,3C355.4,222.5,354.5,222.9,353.4,222.9z"/>
		<path d="M367,222.9c-1.1,0-2.1-0.4-2.9-1.2c-0.8-0.8-1.2-1.8-1.2-3c0-1.2,0.4-2.2,1.2-2.9c0.8-0.8,1.8-1.1,2.9-1.1
			c1.1,0,2,0.4,2.8,1.1c0.8,0.8,1.2,1.7,1.2,2.9c0,1.2-0.4,2.2-1.2,3C369,222.5,368.1,222.9,367,222.9z"/>
	</g>
</g>
<path class="st8" d="M36.1,863.5h835.2"/>
</svg>
