<?xml version="1.0" encoding="utf-8"?>
<!-- Generator: Adobe Illustrator 24.3.0, SVG Export Plug-In . SVG Version: 6.00 Build 0)  -->
<svg version="1.1" id="Layer_1" xmlns="http://www.w3.org/2000/svg" xmlns:xlink="http://www.w3.org/1999/xlink" x="0px" y="0px"
	 viewBox="0 0 890 869" style="enable-background:new 0 0 890 869;" xml:space="preserve">
<style type="text/css">
	.st0{fill:#8C4819;stroke:#1F1F1F;stroke-width:4.5;stroke-linecap:round;stroke-linejoin:round;}
	.st1{fill:none;stroke:#1F1F1F;stroke-width:4.5;stroke-linecap:round;stroke-linejoin:round;}
	.st2{fill:#3C0E40;stroke:#3C2370;stroke-width:4.5;stroke-miterlimit:10;}
	.st3{fill:#1F1F1F;stroke:#1F1F1F;stroke-width:4.5;stroke-linecap:round;stroke-linejoin:round;}
	.st4{fill:#FFFFFF;stroke:#1F1F1F;stroke-width:4.5;stroke-linecap:round;stroke-linejoin:round;}
	.st5{fill:#FFDF99;stroke:#FFDF99;stroke-width:4.5;stroke-miterlimit:10;}
	.st6{fill:#222729;stroke:#000000;stroke-width:4.5;stroke-linecap:round;stroke-linejoin:round;}
	.st7{fill:none;}
	.st8{stroke:#1F1F1F;stroke-width:4.5;stroke-linecap:round;stroke-linejoin:round;}
</style>
<path class="st0" d="M673,519.2c-8.8,0.5-10.6,5.4-9.5,10.6c0.9,4.2,9.3,7.8,15.7,8.8c7.6,1.2,14.1,3.9,22.9,8.5
	c8.8,4.6,11,9.6,18.7,11.1c8.5,1.6,15.7-11.8,6.2-20.3c-8.2-7.4-19.9-11.3-29.8-13.6S680.6,518.7,673,519.2L673,519.2z"/>
<path class="st0" d="M701.6,504.2c-15-4.1-32.5-4.8-42.5-2.1c-8.5,2.3-9.2,11.3-5.1,14.8c3.4,2.8,13.9,3,18.9,2.3
	c8.3-1.1,30.7,6.9,39,13.2s18.9,2.3,19.2-6.9S721.7,509.7,701.6,504.2z"/>
<path class="st0" d="M702.6,484.7c-15-4.1-32.5-4.8-42.5-2.1c-8.5,2.3-9.2,11.3-5.1,14.8c3.4,2.8,13.9,3,18.9,2.3
	c8.3-1.1,30.7,6.9,39,13.2s18.9,2.3,19.2-6.9S722.7,490.2,702.6,484.7L702.6,484.7z"/>
<path class="st1" d="M681.3,378.6v172.8"/>
<path class="st2" d="M6.5,610.2C31.1,563.7,91,474.5,131.2,445.3c40.2-29.1,81.8-20.8,119.2-4.2s62.4,26.3,62.4,26.3
	s73.4-13.9,120.5-15.2s70.7,16.6,101.2,77.6c30.5,61,49.9,95.6,61,121.9s-17.7,65.1-52,89c-49.7,34.6-86.9,32.9-86.9,32.9l7.3,92.8
	H74.4l44.3-141.3c0,0-31.9-5.5-73.4-33.2C9.7,668.2-5.9,633.7,6.5,610.2z"/>
<path class="st3" d="M597.7,661.4c-1.2-7.9-6.7-9.7-16.8-10.2c-24.7-1.2-51,7.4-90.1,32.6c-33.9,21.8-61.7,53.1-61.7,67.7
	s10.4,21.2,27.4,22.2c0,0,37.3,1.7,86.9-32.9C573.7,719.7,599.6,686.9,597.7,661.4L597.7,661.4z"/>
<path class="st0" d="M724,483.4c-20.1-13.2-41.1-24.4-50.8-25.2c-11.1-0.9-15.2,8.5-7.6,14.8c6.2,5,11.5,8.8,11.5,8.8
	c-6,3.2-6.5,13,0,18.8c14.2,12.6,37,34.8,37,34.8c-1.4,34.6,22.2,66.5,22.2,66.5s-1.4,20.8-15.2,51.3
	c-12.9,28.3-30.9,59.6-64.7,62.8c-40.5,3.9-59.1-26.8-80.8-55.9c-1.8-2.4-3.7-5.3-5.7-8.6c-21.7,1.6-45.7,10.9-79,32.4
	c-9.9,6.4-19.2,13.5-28,21.3l1.5,2.5c14.8,24.8,44.1,56.3,77.4,81.1c50.5,37.6,106.8,31.9,139.2,18.7
	c48.5-19.9,83.4-62.7,98.4-120.5C798.9,610.8,778.5,519.1,724,483.4L724,483.4z"/>
<path class="st1" d="M433.2,579.7l-4.1,171.8"/>
<path class="st3" d="M140.9,655.2c-14.4-9.5-43-24.2-67.2-34c-21.7-8.7-65.8-18.7-71,0.7c-3.3,22.3,12.6,50,42.6,70
	c36.5,24.3,66.9,31.8,73.4,33.2L140.9,655.2z"/>
<path class="st1" d="M170,563.8l-29.1,91.5"/>
<path class="st4" d="M681.3,585.4c9.4,0,17-7.6,17-17s-7.6-17-17-17s-17,7.6-17,17S671.9,585.4,681.3,585.4z"/>
<path class="st1" d="M677.1,481.8c6.2-3.2,10.4-0.5,17.3,4.4s45.7,33.3,45.7,33.3"/>
<line class="st1" x1="681.3" y1="448.8" x2="681.3" y2="480.4"/>
<path class="st5" d="M684.8,220.2l-3.5,3.5l-3.5-3.5c-13.5-13.7-35.5-13.8-49.2-0.3c-0.1,0.1-0.2,0.2-0.3,0.3
	c-13.7,13.5-13.8,35.5-0.3,49.2c0.1,0.1,0.2,0.2,0.3,0.3l53,53l53-53c13.7-13.5,13.8-35.5,0.3-49.2c-0.1-0.1-0.2-0.2-0.3-0.3
	c-13.5-13.7-35.5-13.8-49.2-0.3C685,220,684.9,220.1,684.8,220.2z"/>
<path class="st5" d="M681.3,133.7c-69.9,0-126.7,56.8-126.7,126.7s56.8,126.7,126.7,126.7S808,330.2,808,260.4
	S751.1,133.7,681.3,133.7z M681.3,361.7c-55.9,0-101.4-45.5-101.4-101.4S625.4,159,681.3,159s101.4,45.5,101.4,101.4
	S737.2,361.7,681.3,361.7z"/>
<path class="st1" d="M808,260.4c0-69.9-56.8-126.7-126.7-126.7"/>
<path class="st6" d="M675.9,131.6"/>
<rect class="st7" width="889.3" height="868.8"/>
<g>
	<path class="st8" d="M278.6,323.5c5.2,25.3-3.4,48.4-24.7,58.9c-19.7,9.7-38.5-2.4-48.1-16.2c-5-7.2-15.9-22.4-11.9-46.8
		c3.7-23,23.3-41.7,48.4-36.4C260.8,287.1,274,301.3,278.6,323.5L278.6,323.5z"/>
	<path class="st0" d="M425.1,348.8c-3.8-4.1-2.9-8.3-0.8-19s2.8-35.9-6.5-54.2s-29.8-33.9-50.2-38.4s-40.9-2.4-57.1,9.4
		c-17.2,12.5-28.3,27.9-30.8,50.9c-2.4,22.2,0.3,34,6.6,53.7s9,31.2,2.4,47.5s-23.5,32.9-39.1,43.6c-7.7-3.5-15.6-6.5-23.7-9
		c2.2,21,22.6,56.5,69.5,61.3c35.8,3.7,74.7-20.5,96.1-38c-10.2,1.1-27.3,3.6-27.3,3.6s-8.7-9.2-9.9-32.1c-1-19.7,4.1-25.1,4.1-25.1
		s5.5,1.7,17.7,1.7s26,6.1,31.6-4.6c5.5-10.7,10.4-33.1,10.4-33.1c2.6-0.2,5.1-0.7,7.6-1.4c5.6-1.7,7.7-5.5,3.9-9.7L425.1,348.8z
		 M133.6,676.4l6.4-20.1c-14.4-9.5-43-24.2-67.2-34c-7.3-2.9-14.7-5.2-22.3-7C33.2,649.9,4.8,714.9,13.9,754
		c9.7,41.6,40,63.5,72.4,72.4L133.6,676.4L133.6,676.4z"/>
	<path class="st8" d="M421.7,298c-0.1-8-2.1-15.9-5.7-23.1c-9.4-18.4-29.8-34-50.2-38.5s-40.9-2.4-57.1,9.4
		c-17.2,12.5-28.3,27.9-30.8,50.9c-2.4,22.2,0.3,34,6.6,53.7c3.3,10.5,5.6,18.6,6.1,26.3c12.9,4.4,33,2.8,43.8-7.3
		c8-7.5,11.5-26.9,8.3-41.9c-3.1-14.6,3.1-28.8,13.5-31.9c13.1-3.9,19.1,8.2,21.4,15.1c2.3,6.9,8.8,9.7,20.3,6.5
		C407.4,314.6,416.3,305.9,421.7,298z"/>
	<ellipse cx="404.8" cy="332.3" rx="6" ry="8"/>
	<path class="st0" d="M359.9,318.1c-3.3,6.7-1.2,13.9,3.4,16.5c4.3,2.4,9.5,0.1,10.1-0.2"/>
	<path class="st0" d="M398.8,382.5c6.3,3.2,11.8,3.2,13.6,0.7c0.4-0.5,2.3-2.2,2-4.1"/>
</g>
</svg>
