<?xml version="1.0" encoding="utf-8"?>
<!-- Generator: Adobe Illustrator 24.3.0, SVG Export Plug-In . SVG Version: 6.00 Build 0)  -->
<svg version="1.1" id="Layer_1" xmlns="http://www.w3.org/2000/svg" xmlns:xlink="http://www.w3.org/1999/xlink" x="0px" y="0px"
	 viewBox="0 0 890 869" style="enable-background:new 0 0 890 869;" xml:space="preserve">
<style type="text/css">
	.st0{fill:#8C4819;stroke:#1F1F1F;stroke-width:4.5;stroke-linecap:round;stroke-linejoin:round;}
	.st1{fill:url(#SVGID_1_);}
	.st2{fill:#BCAEEB;}
	.st3{fill:#D7D1EB;}
	.st4{fill:url(#SVGID_2_);}
	.st5{fill:#E9E5F6;}
	.st6{fill:none;stroke:#D7D1EB;stroke-width:1.0438;stroke-miterlimit:10;}
	.st7{opacity:0.2;fill:url(#SVGID_3_);}
	.st8{opacity:0.44;fill:#E26666;}
	.st9{fill:#D2E3FC;}
	.st10{fill:#E8F0FE;}
	.st11{fill:none;stroke:#1A73E8;stroke-width:11;stroke-miterlimit:10;}
	.st12{fill:#1F1F1F;stroke:#1F1F1F;stroke-width:4.5;stroke-linecap:round;stroke-linejoin:round;}
	.st13{stroke:#1F1F1F;stroke-width:4.5;stroke-linecap:round;stroke-linejoin:round;}
	.st14{fill:#3C0E40;stroke:#3C2370;stroke-width:4.5;stroke-miterlimit:10;}
	.st15{fill:none;stroke:#1F1F1F;stroke-width:4.5;stroke-linecap:round;stroke-linejoin:round;}
</style>
<g>
	<g>
		<g>
			<path class="st0" d="M701.7,520.6c-9.3,0.6-11.2,5.6-9.9,11.2c1,4.4,9.7,8.2,16.5,9.2c8,1.2,14.8,4.1,24,9
				c9.2,4.9,11.6,10.1,19.7,11.6c9,1.7,16.5-12.4,6.6-21.4c-8.6-7.8-20.9-11.9-31.3-14.3C716.8,523.5,709.7,520,701.7,520.6
				L701.7,520.6z"/>
			<path class="st0" d="M733.1,505.6c-17.7-4.9-38.3-5.6-50.1-2.5c-10.1,2.7-10.9,13.3-6,17.4c4,3.3,16.3,3.5,22.3,2.7
				c9.8-1.3,36.2,8.2,46,15.5s22.3,2.7,22.6-8.2C768.2,519.7,756.8,512,733.1,505.6z"/>
			<path class="st0" d="M732.9,484.2c-15.8-4.3-34.1-5-44.6-2.2c-9,2.4-9.7,11.9-5.3,15.5c3.6,3,14.6,3.2,19.9,2.4
				c8.8-1.2,32.3,7.3,41,13.8c8.7,6.6,19.9,2.4,20.1-7.3C764.1,496.9,754,490.1,732.9,484.2L732.9,484.2z"/>
		</g>
		<path class="st0" d="M755.9,484.5c-21.1-13.9-43.1-25.6-53.4-26.4c-11.6-1-16,9-8,15.5c6.5,5.3,12.1,9.2,12.1,9.2
			c-6.3,3.4-6.8,13.7,0,19.7c15,13.3,38.9,36.6,38.9,36.6c-1.4,36.4,23.3,69.8,23.3,69.8s-1.4,21.8-16,53.9
			c-13.5,29.8-32.5,62.6-67.9,66c-42.6,4.1-62.1-28.1-84.9-58.7c-1.9-2.5-3.9-5.6-6-9.1c-22.8,1.6-48,11.5-83,34
			c-10.4,6.7-20.2,14.2-29.4,22.4l1.5,2.6c15.5,26,46.3,59.1,81.3,85.2c53.1,39.5,112.2,33.5,146.2,19.6
			c50.9-20.9,87.6-65.9,103.3-126.6C834.5,618.4,813.1,522.1,755.9,484.5L755.9,484.5z"/>
	</g>
	<g>
		<g>
			
				<radialGradient id="SVGID_1_" cx="672.943" cy="199.3351" r="65.8018" gradientTransform="matrix(-0.9742 0.2259 0.2259 0.9742 1265.9646 -16.6661)" gradientUnits="userSpaceOnUse">
				<stop  offset="0" style="stop-color:#BCAEEB"/>
				<stop  offset="1" style="stop-color:#8D83B0"/>
			</radialGradient>
			<path class="st1" d="M477.3,254.7L477.3,254.7L477,251l5.7,0.5l110.6-37.7c3.6-1.2,7.4-1.1,10.9,0.2l160.5,61.1l9.3,0.8l0.2,3.6
				l0,0c0.1,0.7-0.2,1.5-0.9,1.8l-107.7,44.1c-7.4,3-15.8,3-23.2-0.1l-164.1-69C477.6,256,477.3,255.4,477.3,254.7z"/>
			<path class="st2" d="M639,54.3l172.2,52.4c4,1.2,6.4,5.3,5.4,9.4l-37.1,158.8c-0.7,2.9-3.8,4.6-6.6,3.5l-168.7-64.8
				c-3.3-1.3-5.2-4.7-4.4-8.2l32.3-147.1C632.9,55.2,636,53.3,639,54.3z"/>
			<path class="st3" d="M773.1,274.6L773.1,274.6c2.2,0.7,4.6-0.7,5.1-2.9l37.4-155.8c0.9-3.7-1.3-7.5-4.9-8.6L639,55.7
				c-2.9-0.9-6,0.9-6.6,3.9l-32.3,149.7L773.1,274.6z"/>
			
				<linearGradient id="SVGID_2_" gradientUnits="userSpaceOnUse" x1="817.5885" y1="79.2899" x2="450.7793" y2="33.0181" gradientTransform="matrix(-0.9742 0.2259 0.2259 0.9742 1265.9646 -16.6661)">
				<stop  offset="0" style="stop-color:#FFA163"/>
				<stop  offset="0.1487" style="stop-color:#DB846F"/>
				<stop  offset="0.4499" style="stop-color:#974D87"/>
				<stop  offset="0.7024" style="stop-color:#652598"/>
				<stop  offset="0.8931" style="stop-color:#460CA2"/>
				<stop  offset="1" style="stop-color:#3B03A6"/>
			</linearGradient>
			<polygon class="st4" points="776,265.5 811.1,117.2 635.8,63.8 605.3,201.4 			"/>
			<path class="st5" d="M773.1,277.5l-107.7,44.1c-7.4,3-15.8,3-23.2-0.1l-164.1-69c-1.5-0.6-1.5-2.8,0.1-3.4L593,210
				c3.6-1.2,7.4-1.1,10.9,0.2l169.1,64.4C774.4,275.1,774.4,277,773.1,277.5z"/>
			<path class="st2" d="M744.1,273.9L694,293.5c-1.6,0.6-3.5,0.6-5.1,0l-139.3-54.7c-0.7-0.3-0.7-1.3,0-1.6l49.8-17.6
				c1.8-0.6,3.7-0.6,5.5,0.1l139.1,53.1C744.6,273,744.6,273.7,744.1,273.9z"/>
			<polygon class="st6" points="639.1,278.6 583.7,256 548.3,268.7 603.7,292.4 			"/>
			<g>
				<polygon class="st3" points="682.2,255.3 674.8,258.2 667.3,255.4 674.7,252.5 				"/>
				<polygon class="st3" points="691,258.7 683.6,261.6 676.2,258.8 683.6,255.9 				"/>
				<polygon class="st3" points="699.9,262.1 692.5,265 685,262.2 692.4,259.2 				"/>
				<polygon class="st3" points="673.3,251.9 665.9,254.9 658.3,252 665.7,249.1 				"/>
				<polygon class="st3" points="637.6,238.4 630.2,241.3 622.8,238.5 630.2,235.5 				"/>
				<polygon class="st3" points="664.3,248.5 656.9,251.4 649.4,248.6 656.8,245.7 				"/>
				<polygon class="st3" points="646.5,241.8 639.1,244.7 631.6,241.8 639,238.9 				"/>
				<polygon class="st3" points="708.8,265.5 701.4,268.4 693.9,265.5 701.3,262.6 				"/>
				<polygon class="st3" points="655.4,245.1 648,248.1 640.5,245.2 647.9,242.3 				"/>
				<polygon class="st3" points="628.8,235 621.4,237.9 613.9,235.1 621.3,232.2 				"/>
				<polygon class="st3" points="626.9,260.5 634.3,257.6 643.5,261.1 636.1,264 				"/>
				<polygon class="st3" points="717.7,268.9 710.3,271.8 702.8,268.9 710.2,266 				"/>
				<polygon class="st3" points="648.1,268.6 655.5,265.6 664.7,269.1 657.3,272.1 				"/>
				<polygon class="st3" points="616.4,256.5 623.8,253.6 632.9,257 625.5,260 				"/>
				<polygon class="st3" points="637.5,264.5 644.9,261.6 654.1,265.1 646.7,268 				"/>
				<polygon class="st3" points="658.7,272.6 666.1,269.7 675.2,273.1 667.8,276.1 				"/>
				<polygon class="st3" points="683.6,275.3 691,272.3 700.2,275.8 692.8,278.8 				"/>
				<polygon class="st3" points="695.6,273 703.1,270.1 712.3,273.6 704.8,276.5 				"/>
				<polygon class="st3" points="669.2,276.6 676.6,273.7 685.8,277.2 678.4,280.1 				"/>
				<polygon class="st3" points="662.5,267.2 669.9,264.3 679.1,267.8 671.7,270.7 				"/>
				<polygon class="st3" points="680.5,261.5 673.1,264.5 663.9,261 671.4,258 				"/>
				<polygon class="st3" points="670,257.5 662.5,260.4 653.3,256.9 660.8,254 				"/>
				<polygon class="st3" points="691.1,265.6 683.7,268.5 674.5,265 681.9,262.1 				"/>
				<polygon class="st3" points="673.1,271.3 680.5,268.3 689.6,271.8 682.2,274.7 				"/>
				<polygon class="st3" points="701.7,269.6 694.2,272.5 685.1,269 692.5,266.1 				"/>
				<polygon class="st3" points="659.4,253.5 651.9,256.4 642.8,252.9 650.2,250 				"/>
				<polygon class="st3" points="711.7,272.3 719.1,269.4 726.6,272.2 719.2,275.2 				"/>
				<polygon class="st3" points="736,275.9 728.6,278.8 720.6,275.7 728,272.8 				"/>
				<polygon class="st3" points="648.8,249.5 641.4,252.4 632.2,248.9 639.6,246 				"/>
				<polygon class="st3" points="619.9,231.6 612.5,234.5 605,231.7 612.4,228.8 				"/>
				<polygon class="st3" points="621.6,244.9 629.1,241.9 638.2,245.4 630.8,248.4 				"/>
				<polygon class="st3" points="600.5,236.8 607.9,233.9 617.1,237.4 609.6,240.3 				"/>
				<polygon class="st3" points="609.6,247.1 617,244.2 626.2,247.7 618.8,250.6 				"/>
				<polygon class="st3" points="618.5,237.9 627.7,241.4 620.2,244.3 611,240.8 				"/>
				<polygon class="st3" points="589.9,232.8 597.3,229.9 606.5,233.4 599.1,236.3 				"/>
				<polygon class="st3" points="620.2,251.1 627.6,248.2 636.8,251.7 629.4,254.6 				"/>
				<polygon class="st3" points="641.3,259.2 648.7,256.2 657.9,259.7 650.5,262.7 				"/>
				<polygon class="st3" points="605.8,252.5 613.2,249.5 622.4,253 615,256 				"/>
				<polygon class="st3" points="651.9,263.2 659.3,260.3 668.5,263.8 661.1,266.7 				"/>
				<polygon class="st3" points="630.8,255.2 638.2,252.2 647.3,255.7 639.9,258.6 				"/>
				<polygon class="st3" points="647.9,241.2 640.4,238.4 645.6,236.3 653.1,239.2 				"/>
				<polygon class="st3" points="651.9,277 659.5,274 668.7,277.5 661.1,280.5 661.1,280.5 				"/>
				<polygon class="st3" points="638.4,265.9 647.5,269.4 640.1,272.4 630.9,268.8 				"/>
				<polygon class="st3" points="648.9,270 658.1,273.5 650.6,276.4 641.5,272.9 				"/>
				<polygon class="st3" points="706.2,277.1 713.7,274.1 727.4,279.4 720,282.3 				"/>
				<polygon class="st3" points="682.3,288.8 672.9,285.1 680.7,282 689.9,285.5 682.2,288.5 				"/>
				<polygon class="st3" points="694.2,279.3 701.6,276.4 718.6,282.8 711.2,285.7 				"/>
				<polygon class="st3" points="679.8,280.6 687.2,277.7 709.8,286.3 702.3,289.2 				"/>
				<polygon class="st3" points="617.2,257.9 626.4,261.4 619.1,264.3 610,260.7 				"/>
				<polygon class="st3" points="662.5,281.1 670.1,278 679.3,281.5 671.6,284.5 671.7,284.6 				"/>
				<polygon class="st3" points="627.8,261.9 637,265.4 629.6,268.3 620.5,264.8 				"/>
				<polygon class="st3" points="691.3,286.1 700.9,289.7 692.9,292.9 683.4,289.2 				"/>
				<polygon class="st3" points="606.6,253.9 615.8,257.4 608.6,260.2 599.5,256.7 				"/>
				<polygon class="st3" points="559.3,234.8 567.1,232 580.1,236.9 572.7,239.9 				"/>
				<polygon class="st3" points="584.1,245.3 577.2,248 550.8,237.8 557.8,235.3 				"/>
				<polygon class="st3" points="603.5,224.3 596.3,221.5 601.7,219.6 608.7,222.3 				"/>
				<polygon class="st3" points="585.5,245.8 594.6,249.3 587.6,252.1 578.6,248.6 				"/>
				<polygon class="st3" points="596,249.8 605.2,253.3 598.1,256.1 589,252.6 				"/>
				<polygon class="st3" points="601.2,245 593.8,247.9 584.6,244.4 592,241.5 				"/>
				<polygon class="st3" points="574.1,240.4 581.5,237.5 590.6,240.9 583.2,243.9 				"/>
				<polygon class="st3" points="568.5,231.5 576.3,228.7 594.5,235.6 587.1,238.5 				"/>
				<polygon class="st3" points="639,237.8 631.6,235 636.8,232.9 644.2,235.8 				"/>
				<polygon class="st3" points="621.3,231.1 613.8,228.2 619,226.2 626.5,229 				"/>
				<polygon class="st3" points="611,228.2 603.6,231.2 587,224.8 594.8,222.1 				"/>
				<polygon class="st3" points="630.2,234.5 622.7,231.6 627.9,229.6 635.4,232.4 				"/>
				<polygon class="st3" points="617.6,225.6 612.4,227.7 604.9,224.8 610.1,222.8 				"/>
				<polygon class="st3" points="606.4,240.1 615.6,243.6 608.2,246.6 599,243.1 				"/>
				<polygon class="st3" points="588.5,239.1 595.9,236.1 605,239.6 597.6,242.5 				"/>
				<polygon class="st3" points="595.9,229.3 588.5,232.3 577.8,228.2 585.6,225.4 				"/>
				<polygon class="st3" points="595.2,248.4 602.6,245.5 611.8,249 604.4,251.9 				"/>
				<polygon class="st3" points="701.3,261.5 693.8,258.7 699.1,256.6 706.5,259.5 				"/>
				<polygon class="st3" points="719.1,268.3 711.6,265.5 716.8,263.4 724.3,266.2 				"/>
				<polygon class="st3" points="737.4,275.3 729.4,272.2 734.6,270.2 742.6,273.2 				"/>
				<polygon class="st3" points="656.8,244.6 649.3,241.7 654.5,239.7 662,242.5 				"/>
				<polygon class="st3" points="728,271.7 720.5,268.8 725.7,266.8 733.2,269.6 				"/>
				<polygon class="st3" points="710.2,264.9 702.7,262.1 707.9,260 715.4,262.9 				"/>
				<polygon class="st3" points="692.4,258.2 685,255.3 690.2,253.2 697.7,256.1 				"/>
				<polygon class="st3" points="665.7,248 658.2,245.1 663.4,243.1 670.9,245.9 				"/>
				<polygon class="st3" points="674.7,251.4 667.1,248.5 672.3,246.4 679.9,249.3 				"/>
				<polygon class="st3" points="683.6,254.8 676.1,251.9 681.3,249.9 688.8,252.7 				"/>
			</g>
			
				<linearGradient id="SVGID_3_" gradientUnits="userSpaceOnUse" x1="855.8852" y1="162.0531" x2="480.8538" y2="6.2428" gradientTransform="matrix(-0.9742 0.2259 0.2259 0.9742 1265.9646 -16.6661)">
				<stop  offset="0" style="stop-color:#FFFFFF"/>
				<stop  offset="1" style="stop-color:#FFFFFF;stop-opacity:0"/>
			</linearGradient>
			<polygon class="st7" points="635.8,63.8 811.1,117.2 776,265.5 633.4,74.7 			"/>
		</g>
	</g>
	<g>
		<path class="st8" d="M637.6,28.9C734.8,13.5,812.2,109.2,777,201l-79.4,206.8L558.2,235.7C496.3,159.2,540.4,44.3,637.6,28.9z"/>
		<path class="st9" d="M645.9,222.9c-0.7-8.9,0.4-16.4,3.3-22.6c2.9-6.1,8.4-13.7,16.5-22.5c6.6-7,11.3-12.9,14.1-17.6
			c2.8-4.8,3.9-10.4,3.4-16.8c-0.7-8.5-4-15.2-9.9-20c-5.9-4.8-13.8-6.8-23.6-6.1c-8.9,0.7-15.8,3.8-20.6,9.3
			c-4.9,5.5-8.3,12.1-10.4,19.8l-21.8-7.2c3.1-10.6,8.8-20.3,17.1-28.9c8.3-8.6,19.5-13.5,33.8-14.6c10.7-0.8,20.3,0.6,29,4.3
			c8.6,3.7,15.5,9.2,20.7,16.5c5.1,7.3,8.1,15.7,8.8,25.1c0.8,9.8-1,18.3-5.4,25.6c-4.4,7.2-10.1,14.6-17.2,22.2
			c-5.5,5.8-9.3,11.2-11.6,16.2c-2.3,5-3.2,10.7-2.7,17.1l0.9,11.2l-23.2,1.8L645.9,222.9L645.9,222.9z M650.5,287.2
			c-3.6-3-5.5-7-5.9-11.8c-0.4-4.6,1-8.7,4-12.3c3-3.6,6.9-5.5,11.5-5.9c4.8-0.4,9,0.9,12.5,4c3.6,3,5.5,6.9,5.9,11.5
			c0.4,4.8-0.9,9-4,12.5c-3,3.6-7,5.5-11.8,5.9C658.2,291.5,654.1,290.2,650.5,287.2L650.5,287.2z"/>
		<path class="st9" d="M671.9,444.3l61.3-9.7L756,578.8l-61.3,9.7L671.9,444.3z"/>
		<path class="st9" d="M692.5,574.3l61.3-9.7l2.2,14.1l-61.3,9.7L692.5,574.3z"/>
		<path class="st10" d="M633.7,356l108.5-17.2l3.3,20.8L637,376.9L633.7,356z M745.6,359.7L637,376.9l7,44.5
			c2.5,15.7,17.2,26.4,32.9,23.9l51.8-8.2c15.7-2.5,26.4-17.2,23.9-32.9L745.6,359.7z"/>
		<g>
			<path class="st9" d="M744.9,495.4l3.3,20.8l8.1-1.3L744.9,495.4z"/>
			<path class="st9" d="M744.9,495.4l3.3,20.8l8.1-1.3L744.9,495.4z"/>
		</g>
		<path class="st10" d="M744.9,495.4l-3.3-20.8l8.1-1.3L744.9,495.4z"/>
		<path class="st9" d="M739.2,472.1l2-0.3l7.5,47.2l-2,0.3L739.2,472.1z"/>
		<path class="st11" d="M637.1,376.9l108.5-17.2"/>
	</g>
	<g>
		<path class="st12" d="M642,653.6c-1.3-8.3-7-10.2-17.7-10.7c-26-1.2-53.6,7.8-94.6,34.2C494.2,700,465,732.9,465,748.2
			c0,15.3,10.9,22.2,28.8,23.3c0,0,39.1,1.8,91.3-34.6C616.8,714.7,644.1,680.3,642,653.6L642,653.6z"/>
		<path class="st12" d="M162.2,647.1c-15.1-10-45.2-25.5-70.6-35.7c-22.8-9.1-69.1-19.7-74.6,0.7c-3.4,23.4,13.2,52.5,44.8,73.5
			c38.3,25.6,70.3,33.5,77.1,34.9L162.2,647.1z"/>
		<g>
			<path class="st13" d="M306.8,298.6c5.5,26.6-3.6,50.9-26,61.9c-20.7,10.2-40.4-2.6-50.5-17c-5.2-7.5-16.7-23.5-12.5-49.1
				c3.9-24.2,24.4-43.8,50.8-38.2C288.2,260.3,302,275.3,306.8,298.6L306.8,298.6z"/>
			<path class="st0" d="M460.8,325.2c-4-4.4-3-8.7-0.8-20s3-37.7-6.9-56.9c-9.8-19.3-31.3-35.7-52.8-40.4c-21.5-4.7-42.9-2.6-60,9.8
				c-18.1,13.1-29.7,29.3-32.4,53.5c-2.6,23.3,0.4,35.7,6.9,56.4s9.5,32.8,2.5,49.8c-6.9,17.1-24.7,34.6-41.1,45.8
				c-8.1-3.6-16.4-6.8-24.9-9.5c2.3,22.1,23.8,59.4,72.9,64.4c37.6,3.8,78.5-21.5,100.9-39.9c-10.7,1.2-28.7,3.8-28.7,3.8
				s-9.2-9.7-10.4-33.7c-1.1-20.7,4.3-26.3,4.3-26.3s5.8,1.8,18.5,1.8c12.7,0,27.3,6.4,33.1-4.9s10.9-34.8,10.9-34.8
				c2.7-0.2,5.4-0.7,8-1.5c5.9-1.8,8-5.8,4-10.2L460.8,325.2z M154.6,669.3l6.7-21.1c-15.1-10-45.2-25.5-70.6-35.7
				c-7.6-3-15.5-5.5-23.5-7.4c-18.1,36.3-48,104.5-38.4,145.6c10.2,43.7,42,66.7,76,76L154.6,669.3L154.6,669.3z"/>
			<path class="st13" d="M457.2,271.9c-0.2-8.4-2.2-16.7-5.9-24.3c-9.8-19.3-31.3-35.7-52.8-40.4c-21.5-4.7-42.9-2.6-60,9.8
				c-18.1,13.1-29.7,29.3-32.4,53.5c-2.6,23.3,0.4,35.7,6.9,56.4c3.5,11,5.9,19.5,6.4,27.6c13.5,4.6,34.7,2.9,46-7.6
				c8.4-7.9,12-28.2,8.7-44c-3.2-15.4,3.3-30.2,14.2-33.5c13.7-4.1,20,8.6,22.4,15.9c2.4,7.3,9.2,10.2,21.4,6.8
				C442.1,289.3,451.5,280.2,457.2,271.9z"/>
			<ellipse cx="439.4" cy="307.9" rx="6.3" ry="8.4"/>
			<path class="st0" d="M392.3,293c-3.5,7-1.3,14.6,3.6,17.3c4.6,2.6,9.9,0.1,10.6-0.2"/>
			<path class="st0" d="M433.1,360.5c6.6,3.4,12.4,3.3,14.3,0.8c0.4-0.5,2.4-2.3,2.1-4.3"/>
		</g>
		<path class="st14" d="M21.1,599.8c25.9-48.9,88.8-142.6,131-173.2c42.2-30.6,85.9-21.8,125.2-4.4s65.5,27.7,65.5,27.7
			s77.1-14.6,126.6-16s74.2,17.5,106.2,81.5c32,64,52.4,100.4,64.1,128.1c11.7,27.6-18.5,68.4-54.6,93.5
			c-52.2,36.4-91.3,34.6-91.3,34.6l7.6,97.5h-409L139,720.6c0,0-33.5-5.8-77.1-34.9C24.4,660.7,8,624.5,21.1,599.8z"/>
	</g>
	<g>
		<path class="st15" d="M706.1,481.2c6.6-3.4,10.9-0.5,18.2,4.6c7.3,5.1,48,34.9,48,34.9"/>
		<path class="st0" d="M772.3,520.8l-57.4-40.4c0,0-21.3,0.5-8.9,21.6l39.3,36.8c0,0,2.8,39.4,14.5,55.5"/>
	</g>
</g>
</svg>
