<?xml version="1.0" encoding="utf-8"?>
<!-- Generator: Adobe Illustrator 24.3.0, SVG Export Plug-In . SVG Version: 6.00 Build 0)  -->
<svg version="1.1" id="Layer_1" xmlns="http://www.w3.org/2000/svg" xmlns:xlink="http://www.w3.org/1999/xlink" x="0px" y="0px"
	 viewBox="0 0 890 869" style="enable-background:new 0 0 890 869;" xml:space="preserve">
<style type="text/css">
	.st0{fill:#8C4819;stroke:#1F1F1F;stroke-width:4.5;stroke-linecap:round;stroke-linejoin:round;}
	.st1{opacity:0.33;}
	.st2{fill:url(#SVGID_1_);}
	.st3{fill:#BCAEEB;}
	.st4{fill:#D7D1EB;}
	.st5{fill:url(#SVGID_2_);}
	.st6{fill:#E9E5F6;}
	.st7{fill:none;stroke:#D7D1EB;stroke-width:1.0438;stroke-miterlimit:10;}
	.st8{opacity:0.2;fill:url(#SVGID_3_);}
	.st9{fill:#FFFFFF;stroke:#1F1F1F;stroke-width:5;stroke-miterlimit:10;}
	.st10{fill:none;stroke:#1F1F1F;stroke-linecap:round;stroke-linejoin:round;}
	.st11{fill-rule:evenodd;clip-rule:evenodd;fill:#FFFFFF;}
	.st12{fill:#1F1F1F;}
	.st13{fill:#1F1F1F;stroke:#1F1F1F;stroke-width:4.5;stroke-linecap:round;stroke-linejoin:round;}
	.st14{stroke:#1F1F1F;stroke-width:4.5;stroke-linecap:round;stroke-linejoin:round;}
	.st15{fill:#3C0E40;stroke:#3C2370;stroke-width:4.5;stroke-miterlimit:10;}
	.st16{fill:none;stroke:#1F1F1F;stroke-width:4.5;stroke-linecap:round;stroke-linejoin:round;}
	.st17{fill:#7C0000;stroke:#1F1F1F;stroke-width:5;stroke-miterlimit:10;}
</style>
<g>
	<g>
		<path class="st0" d="M650.1,552.2c-8.4,0.5-10.2,5.1-9.1,10.1c0.9,4,8.9,7.5,15,8.4c7.3,1.1,13.5,3.7,21.8,8.2
			c8.4,4.4,10.5,9.2,17.9,10.6c8.2,1.5,15-11.3,6-19.4c-7.8-7.1-19-10.8-28.5-13C663.8,554.8,657.4,551.7,650.1,552.2L650.1,552.2z"
			/>
		<path class="st0" d="M678.7,538.5c-16.1-4.4-34.9-5.1-45.6-2.2c-9.2,2.5-9.9,12.1-5.4,15.8c3.7,3,14.9,3.2,20.3,2.5
			c9-1.2,32.9,7.4,41.8,14.1c8.9,6.7,20.3,2.5,20.6-7.4C710.6,551.4,700.2,544.4,678.7,538.5z"/>
		<path class="st0" d="M678.4,519.1c-14.3-4-31.1-4.6-40.6-2c-8.2,2.2-8.8,10.8-4.9,14.1c3.3,2.7,13.2,2.9,18.1,2.2
			c8-1.1,29.4,6.6,37.3,12.6c7.9,6,18.1,2.2,18.3-6.6C706.9,530.6,697.7,524.4,678.4,519.1L678.4,519.1z"/>
	</g>
	<path class="st0" d="M699.4,519.4c-19.2-12.6-39.3-23.3-48.6-24.1c-10.6-0.9-14.6,8.2-7.3,14.1c5.9,4.8,11,8.4,11,8.4
		c-5.7,3.1-6.2,12.4,0,17.9c13.6,12.1,35.4,33.3,35.4,33.3c-1.3,33.1,21.2,63.5,21.2,63.5s-1.3,19.9-14.6,49
		c-12.3,27.1-29.6,56.9-61.8,60c-38.7,3.7-56.5-25.6-77.3-53.4c-1.7-2.3-3.5-5.1-5.5-8.2c-20.7,1.5-43.7,10.5-75.5,31
		c-9.4,6.1-18.4,12.9-26.8,20.4l1.4,2.4c14.1,23.7,42.1,53.8,74,77.5c48.3,35.9,102.1,30.5,133.1,17.8c46.3-19,79.7-59.9,94-115.2
		C770.9,641.2,751.4,553.5,699.4,519.4L699.4,519.4z"/>
</g>
<g class="st1">
	<g>
		
			<radialGradient id="SVGID_1_" cx="1105.2576" cy="277.8682" r="67.4263" gradientTransform="matrix(-0.9928 -0.1198 -0.1198 0.9928 1761.1431 352.9644)" gradientUnits="userSpaceOnUse">
			<stop  offset="0" style="stop-color:#BCAEEB"/>
			<stop  offset="1" style="stop-color:#8D83B0"/>
		</radialGradient>
		<path class="st2" d="M485.1,362.1L485.1,362.1l1-3.6l5.3,2.4l119.7,2.3c3.8,0.1,7.5,1.5,10.5,4l133.3,114.9l8.7,4l-1.1,3.6l0,0
			c-0.1,0.7-0.7,1.4-1.5,1.4L641.8,496c-8.2,0.3-16.3-2.6-22.3-8.2L485.6,364C485,363.5,484.9,362.7,485.1,362.1z"/>
		<path class="st3" d="M710.9,225.5l147.6,110.6c3.4,2.6,4.3,7.4,1.9,11l-91.2,140c-1.7,2.6-5.3,3.1-7.6,1.1L621.9,366.8
			c-2.7-2.4-3.3-6.4-1.4-9.4L703,227C704.7,224.3,708.4,223.6,710.9,225.5z"/>
		<path class="st4" d="M763.1,484.6L763.1,484.6c1.9,1.4,4.6,1,5.9-1l90.5-137c2.2-3.3,1.4-7.7-1.8-10L710.4,226.9
			c-2.5-1.9-6.1-1.2-7.8,1.5l-83.4,132.9L763.1,484.6z"/>
		
			<linearGradient id="SVGID_2_" gradientUnits="userSpaceOnUse" x1="1253.4742" y1="154.8594" x2="877.6091" y2="107.4452" gradientTransform="matrix(-0.9928 -0.1198 -0.1198 0.9928 1761.1431 352.9644)">
			<stop  offset="0" style="stop-color:#FFA163"/>
			<stop  offset="0.1487" style="stop-color:#DB846F"/>
			<stop  offset="0.4499" style="stop-color:#974D87"/>
			<stop  offset="0.7024" style="stop-color:#652598"/>
			<stop  offset="0.8931" style="stop-color:#460CA2"/>
			<stop  offset="1" style="stop-color:#3B03A6"/>
		</linearGradient>
		<polygon class="st5" points="769.1,476.9 854.6,346.2 704.5,233.6 627,355.5 		"/>
		<path class="st6" d="M762.1,487.4l-119.1,4.9c-8.2,0.3-16.3-2.6-22.3-8.2l-134-123.8c-1.2-1.2-0.4-3.2,1.3-3.2l124.3,2.4
			c3.8,0.1,7.5,1.5,10.5,4l140.4,121.1C764.2,485.5,763.5,487.4,762.1,487.4z"/>
		<path class="st3" d="M735.4,473.8l-55.1,1.4c-1.8,0-3.6-0.6-4.9-1.8L560.3,372c-0.6-0.5-0.2-1.5,0.6-1.5l54.1,0.5
			c1.9,0,3.8,0.7,5.3,2l115.4,99.7C736.2,473.1,735.9,473.8,735.4,473.8z"/>
		<polygon class="st7" points="632.6,441.6 587.2,400.5 548.6,400.3 593.7,442.6 		"/>
		<g>
			<polygon class="st4" points="682.2,434.3 674.1,434.5 667.8,429.1 676,428.9 			"/>
			<polygon class="st4" points="689.6,440.6 681.4,440.9 675.2,435.5 683.4,435.3 			"/>
			<polygon class="st4" points="697,447 688.8,447.2 682.6,441.9 690.8,441.6 			"/>
			<polygon class="st4" points="674.8,427.9 666.7,428.1 660.4,422.7 668.6,422.5 			"/>
			<polygon class="st4" points="645.3,402.4 637.1,402.6 630.9,397.3 639.1,397.1 			"/>
			<polygon class="st4" points="667.4,421.5 659.2,421.7 653,416.3 661.2,416.1 			"/>
			<polygon class="st4" points="652.6,408.8 644.5,409 638.3,403.6 646.4,403.4 			"/>
			<polygon class="st4" points="704.4,453.4 696.2,453.6 690,448.2 698.1,448 			"/>
			<polygon class="st4" points="660,415.1 651.9,415.3 645.6,410 653.8,409.8 			"/>
			<polygon class="st4" points="637.9,396.1 629.8,396.3 623.5,390.9 631.7,390.7 			"/>
			<polygon class="st4" points="627.2,420 635.4,419.7 643,426.3 634.8,426.5 			"/>
			<polygon class="st4" points="711.7,459.7 703.6,460 697.4,454.6 705.5,454.4 			"/>
			<polygon class="st4" points="644.8,435.1 652.9,434.9 660.6,441.5 652.4,441.7 			"/>
			<polygon class="st4" points="618.5,412.4 626.6,412.2 634.2,418.7 626,419 			"/>
			<polygon class="st4" points="636,427.5 644.2,427.3 651.8,433.9 643.6,434.1 			"/>
			<polygon class="st4" points="653.6,442.7 661.7,442.5 669.3,449 661.2,449.2 			"/>
			<polygon class="st4" points="676.7,454 684.8,453.8 692.4,460.3 684.3,460.6 			"/>
			<polygon class="st4" points="689,456 697.2,455.8 704.8,462.4 696.7,462.6 			"/>
			<polygon class="st4" points="662.3,450.2 670.5,450 678.1,456.6 670,456.8 			"/>
			<polygon class="st4" points="659.1,438.9 667.3,438.6 674.9,445.2 666.8,445.4 			"/>
			<polygon class="st4" points="678.5,439.7 670.3,439.9 662.7,433.3 670.9,433.1 			"/>
			<polygon class="st4" points="669.7,432.1 661.5,432.3 653.9,425.7 662.1,425.5 			"/>
			<polygon class="st4" points="687.3,447.3 679.1,447.5 671.5,440.9 679.7,440.7 			"/>
			<polygon class="st4" points="667.9,446.4 676.1,446.2 683.6,452.8 675.5,453 			"/>
			<polygon class="st4" points="696,454.8 687.9,455 680.3,448.5 688.4,448.3 			"/>
			<polygon class="st4" points="660.9,424.5 652.7,424.7 645.2,418.2 653.3,418 			"/>
			<polygon class="st4" points="704.8,461 712.9,460.7 719.1,466.1 711,466.3 			"/>
			<polygon class="st4" points="726.9,472.8 718.7,473.1 712.1,467.3 720.3,467.1 			"/>
			<polygon class="st4" points="652.2,417 644,417.2 636.4,410.6 644.5,410.4 			"/>
			<polygon class="st4" points="630.5,389.7 622.4,389.9 616.2,384.6 624.3,384.3 			"/>
			<polygon class="st4" points="627.6,403 635.7,402.8 643.4,409.4 635.2,409.6 			"/>
			<polygon class="st4" points="610,387.9 618.2,387.7 625.8,394.2 617.6,394.4 			"/>
			<polygon class="st4" points="615.2,401 623.4,400.8 631,407.3 622.8,407.6 			"/>
			<polygon class="st4" points="626.9,395.2 634.6,401.8 626.4,402 618.8,395.5 			"/>
			<polygon class="st4" points="601.2,380.3 609.4,380.1 617,386.7 608.9,386.9 			"/>
			<polygon class="st4" points="624,408.6 632.1,408.3 639.8,414.9 631.6,415.2 			"/>
			<polygon class="st4" points="641.5,423.7 649.7,423.5 657.3,430.1 649.2,430.3 			"/>
			<polygon class="st4" points="609.7,404.8 617.8,404.6 625.5,411.2 617.3,411.4 			"/>
			<polygon class="st4" points="650.3,431.3 658.5,431.1 666.1,437.6 658,437.9 			"/>
			<polygon class="st4" points="632.8,416.2 640.9,415.9 648.5,422.5 640.4,422.7 			"/>
			<polygon class="st4" points="654.2,408.7 647.9,403.3 653.7,403.2 659.9,408.5 			"/>
			<polygon class="st4" points="645.5,444.6 653.9,444.3 661.5,450.9 653.1,451.2 653.1,451.2 			"/>
			<polygon class="st4" points="636.3,429.2 643.9,435.8 635.7,436 628.2,429.4 			"/>
			<polygon class="st4" points="645.1,436.8 652.7,443.3 644.4,443.6 636.9,437 			"/>
			<polygon class="st4" points="697.8,463.6 706,463.4 717.4,473.3 709.2,473.5 			"/>
			<polygon class="st4" points="670.7,466.5 662.9,459.7 671.4,459.5 679.1,466.1 670.7,466.3 			"/>
			<polygon class="st4" points="685.5,461.6 693.6,461.3 707.7,473.5 699.5,473.7 			"/>
			<polygon class="st4" points="671.1,457.8 679.3,457.6 698,473.7 689.8,473.9 			"/>
			<polygon class="st4" points="618.8,414 626.4,420.6 618.4,420.9 610.8,414.3 			"/>
			<polygon class="st4" points="654.2,452.2 662.7,451.9 670.3,458.5 661.9,458.7 661.9,458.8 			"/>
			<polygon class="st4" points="627.6,421.6 635.2,428.2 627,428.4 619.5,421.9 			"/>
			<polygon class="st4" points="680.2,467.1 688.3,474 679.5,474.2 671.6,467.3 			"/>
			<polygon class="st4" points="610,406.5 617.6,413 609.7,413.3 602.1,406.7 			"/>
			<polygon class="st4" points="571,371.5 579.5,371.6 590.3,380.9 582.2,381.1 			"/>
			<polygon class="st4" points="591.3,390.3 583.6,390.6 561.8,371.5 569.5,371.5 			"/>
			<polygon class="st4" points="617.3,376.9 611.3,371.7 617.2,371.7 623,376.8 			"/>
			<polygon class="st4" points="592.4,391.3 600,397.9 592.3,398.1 584.8,391.6 			"/>
			<polygon class="st4" points="601.2,398.9 608.8,405.5 601,405.7 593.4,399.1 			"/>
			<polygon class="st4" points="607.9,396 599.7,396.2 592.1,389.7 600.2,389.4 			"/>
			<polygon class="st4" points="583.3,382.1 591.5,381.9 599.1,388.4 590.9,388.7 			"/>
			<polygon class="st4" points="581.1,371.6 589.5,371.6 604.6,384.6 596.5,384.9 			"/>
			<polygon class="st4" points="646.8,402.3 640.6,397 646.3,396.8 652.5,402.2 			"/>
			<polygon class="st4" points="632.1,389.6 625.8,384.3 631.6,384.1 637.8,389.5 			"/>
			<polygon class="st4" points="623.1,383.3 615,383.6 601.2,371.7 609.7,371.7 			"/>
			<polygon class="st4" points="639.4,396 633.2,390.6 639,390.5 645.2,395.8 			"/>
			<polygon class="st4" points="630.4,383.1 624.7,383.3 618.5,377.9 624.2,377.8 			"/>
			<polygon class="st4" points="614.6,393.2 622.2,399.8 614.1,400 606.4,393.4 			"/>
			<polygon class="st4" points="597.7,385.9 605.8,385.6 613.4,392.2 605.3,392.4 			"/>
			<polygon class="st4" points="608.2,379.1 600.1,379.3 591.1,371.6 599.6,371.7 			"/>
			<polygon class="st4" points="600.9,397.3 609,397 616.7,403.6 608.5,403.8 			"/>
			<polygon class="st4" points="698.5,446.9 692.3,441.6 698,441.4 704.3,446.8 			"/>
			<polygon class="st4" points="713.3,459.7 707.1,454.3 712.8,454.2 719,459.5 			"/>
			<polygon class="st4" points="728.4,472.8 721.8,467 727.6,466.9 734.2,472.6 			"/>
			<polygon class="st4" points="661.5,415.1 655.3,409.7 661.1,409.6 667.3,414.9 			"/>
			<polygon class="st4" points="720.7,466 714.4,460.7 720.2,460.5 726.4,465.9 			"/>
			<polygon class="st4" points="705.9,453.3 699.7,447.9 705.4,447.8 711.6,453.2 			"/>
			<polygon class="st4" points="691.1,440.6 684.9,435.2 690.7,435.1 696.9,440.4 			"/>
			<polygon class="st4" points="668.9,421.4 662.7,416.1 668.4,415.9 674.7,421.3 			"/>
			<polygon class="st4" points="676.4,427.9 670.1,422.4 675.8,422.3 682.1,427.7 			"/>
			<polygon class="st4" points="683.8,434.2 677.5,428.9 683.3,428.7 689.5,434.1 			"/>
		</g>
		
			<linearGradient id="SVGID_3_" gradientUnits="userSpaceOnUse" x1="1292.7163" y1="239.6659" x2="908.4261" y2="80.0088" gradientTransform="matrix(-0.9928 -0.1198 -0.1198 0.9928 1761.1431 352.9644)">
			<stop  offset="0" style="stop-color:#FFFFFF"/>
			<stop  offset="1" style="stop-color:#FFFFFF;stop-opacity:0"/>
		</linearGradient>
		<polygon class="st8" points="704.5,233.6 854.6,346.2 769.1,476.9 698.4,243.2 		"/>
	</g>
</g>
<g>
	<path class="st9" d="M659.8,582.8l-1.5,6.9c-0.8,3.6-3.7,6.4-7.3,7.1c-1.2,0.2-2.4,0.2-3.6-0.1l-6.4-1.4c-2.4-0.5-4.4-2-5.8-4
		c-1.3-2-1.8-4.5-1.2-6.9l1.1-5C643.5,580.7,652.3,582,659.8,582.8z"/>
	<path class="st9" d="M683,476.9l-23,105.7l-24.7-3.4l23.4-107.6L683,476.9z"/>
	<path class="st10" d="M774.6,344.6c11.7,36.4-1,76.2-31.7,99c-30.6,22.8-72.4,23.7-103.9,2.1c-40.7-27.9-51.2-83.5-23.3-124.3
		c4.9-7.2,10.8-13.6,17.6-19c14.5-11.7,32.3-18.6,50.9-19.7C724.9,280.3,762.1,305.8,774.6,344.6z"/>
	<path class="st11" d="M798.9,336.8c19.2,59.5-13.5,123.3-73,142.5c-59.5,19.2-123.3-13.5-142.5-73s13.5-123.3,73-142.5
		S779.7,277.3,798.9,336.8z M776.4,398.7c5.7-17.8,5.7-36.8,0-54.6c-12.5-38.8-49.7-64.3-90.4-61.9c-49.3,2.9-86.9,45.3-83.9,94.6
		c1.6,27.6,15.9,52.9,38.8,68.5c40.7,27.9,96.4,17.5,124.3-23.3C769.9,414.8,773.7,406.9,776.4,398.7z"/>
	<path class="st12" d="M774.7,344.6l1.9-0.6l0,0L774.7,344.6z M774.7,399.2l1.9,0.6L774.7,399.2z M740.1,298.2l1.1-1.6L740.1,298.2z
		 M684.3,282.7l-0.1-2l0,0L684.3,282.7z M633.3,302.4l1.2,1.5L633.3,302.4z M603.4,348.1l-1.9-0.5L603.4,348.1z M605.6,402.6
		l-1.9,0.7L605.6,402.6z M639.1,445.7l1.1-1.6L639.1,445.7z M743,443.6l1.2,1.6L743,443.6z M724.9,481.7
		c60.5-19.5,93.8-84.4,74.3-145l-3.7,1.2c18.9,58.5-13.2,121.2-71.7,140L724.9,481.7z M579.9,407.5c19.5,60.5,84.4,93.8,145,74.3
		l-1.2-3.7c-58.5,18.9-121.2-13.2-140-71.7L579.9,407.5z M654.1,262.5c-60.5,19.5-93.8,84.4-74.3,145l3.7-1.2
		c-18.9-58.5,13.2-121.2,71.7-140L654.1,262.5z M799.1,336.7c-19.5-60.5-84.4-93.8-145-74.3l1.2,3.7c58.5-18.9,121.2,13.2,140,71.7
		L799.1,336.7z M772.8,345.2c5.6,17.4,5.6,36,0,53.4l3.8,1.2c5.8-18.1,5.8-37.7,0-55.8L772.8,345.2z M738.9,299.8
		c16,11,27.9,26.9,33.9,45.4l3.7-1.2c-6.2-19.3-18.7-36-35.4-47.4L738.9,299.8z M684.4,284.7c19.4-1.1,38.6,4.2,54.6,15.2l2.2-3.3
		c-16.7-11.5-36.8-17-57-15.8C684.1,280.7,684.4,284.7,684.4,284.7z M634.6,303.9c14.2-11.5,31.6-18.2,49.8-19.3l-0.2-3.9
		c-19,1.1-37.2,8.2-52,20.2L634.6,303.9z M605.3,348.6c4.9-17.6,15.1-33.2,29.3-44.6l-2.5-3.1c-14.8,12-25.5,28.3-30.6,46.7
		C601.5,347.5,605.3,348.6,605.3,348.6z M607.4,401.9c-6.3-17.1-7-35.8-2.1-53.3l-3.8-1.1c-5.1,18.4-4.3,37.9,2.2,55.8
		C603.7,403.3,607.4,401.9,607.4,401.9z M640.2,444.1c-15-10.3-26.5-25-32.7-42.2l-3.7,1.4c6.5,17.9,18.5,33.3,34.2,44.1
		C637.9,447.4,640.2,444.1,640.2,444.1z M691.3,459.4c-18.2,0.4-36.1-5-51.2-15.3l-2.2,3.3c15.7,10.8,34.4,16.3,53.5,16L691.3,459.4
		z M741.8,442.1c-14.6,10.9-32.3,17-50.5,17.3l0.1,3.9c19-0.4,37.5-6.7,52.8-18.1L741.8,442.1L741.8,442.1z M772.8,398.6
		c-5.6,17.4-16.4,32.6-31,43.5l2.4,3.2c15.3-11.4,26.6-27.3,32.4-45.4L772.8,398.6z"/>
</g>
<g>
	<path class="st13" d="M595.7,673.2c-1.2-7.6-6.4-9.2-16.1-9.7c-23.6-1.1-48.7,7.1-86.1,31.1c-32.4,20.9-58.9,50.8-58.9,64.7
		c0,13.9,10,20.2,26.2,21.2c0,0,35.6,1.6,83.1-31.5C572.9,728.8,597.6,697.5,595.7,673.2L595.7,673.2z"/>
	<path class="st13" d="M159.2,667.3c-13.7-9.1-41.1-23.2-64.2-32.4c-20.8-8.3-62.9-17.9-67.9,0.6c-3.1,21.3,12,47.8,40.7,66.9
		c34.9,23.3,63.9,30.4,70.2,31.8L159.2,667.3z"/>
	<g>
		<path class="st14" d="M290.8,350.2c5,24.2-3.2,46.3-23.6,56.3c-18.9,9.3-36.8-2.3-46-15.5c-4.7-6.8-15.2-21.4-11.4-44.7
			c3.6-22,22.2-39.9,46.2-34.7C273.9,315.4,286.4,329,290.8,350.2L290.8,350.2z"/>
		<path class="st0" d="M430.8,374.4c-3.6-4-2.7-7.9-0.8-18.2s2.7-34.3-6.2-51.8c-8.9-17.5-28.5-32.4-48-36.7
			c-19.5-4.3-39.1-2.3-54.6,8.9c-16.5,11.9-27.1,26.6-29.5,48.7c-2.3,21.2,0.3,32.5,6.3,51.3c6,18.8,8.6,29.8,2.3,45.4
			c-6.3,15.6-22.5,31.4-37.4,41.7c-7.4-3.3-14.9-6.2-22.7-8.6c2.1,20.1,21.6,54,66.4,58.6c34.2,3.5,71.4-19.6,91.9-36.3
			c-9.7,1.1-26.1,3.4-26.1,3.4s-8.3-8.8-9.5-30.7c-1-18.9,3.9-23.9,3.9-23.9s5.3,1.7,16.9,1.7c11.6,0,24.9,5.8,30.2-4.4
			c5.3-10.3,9.9-31.7,9.9-31.7c2.5-0.2,4.9-0.6,7.3-1.3c5.3-1.6,7.3-5.3,3.7-9.3L430.8,374.4z M152.3,687.5l6.1-19.2
			c-13.7-9.1-41.1-23.2-64.2-32.4c-7-2.7-14.1-5-21.4-6.7c-16.5,33-43.6,95.1-34.9,132.5c9.3,39.7,38.2,60.6,69.2,69.2L152.3,687.5
			L152.3,687.5z"/>
		<path class="st14" d="M427.5,325.9c-0.1-7.7-2-15.2-5.4-22.1c-8.9-17.5-28.5-32.4-48-36.7c-19.5-4.3-39.1-2.3-54.6,8.9
			c-16.5,11.9-27.1,26.6-29.5,48.7c-2.3,21.2,0.3,32.5,6.3,51.3c3.2,10,5.4,17.7,5.8,25.1c12.3,4.2,31.5,2.7,41.8-6.9
			c7.6-7.2,11-25.7,7.9-40.1c-2.9-14,3-27.5,12.9-30.5c12.5-3.7,18.2,7.8,20.4,14.5c2.2,6.6,8.4,9.3,19.4,6.2
			C413.9,341.7,422.4,333.4,427.5,325.9z"/>
		<ellipse cx="411.4" cy="358.6" rx="5.7" ry="7.7"/>
		<path class="st0" d="M368.6,345.1c-3.2,6.4-1.2,13.3,3.3,15.8c4.1,2.3,9,0.1,9.6-0.2"/>
		<path class="st0" d="M405.7,406.6c6,3.1,11.3,3,13,0.7c0.3-0.5,2.2-2.1,1.9-3.9"/>
	</g>
	<path class="st15" d="M30.8,624.3c23.5-44.5,80.8-129.8,119.2-157.6s78.1-19.9,113.9-4s59.6,25.2,59.6,25.2s70.2-13.2,115.2-14.6
		s67.5,15.9,96.7,74.2c29.1,58.3,47.7,91.4,58.3,116.5c10.6,25.2-16.9,62.2-49.7,85.1c-47.5,33.1-83.1,31.5-83.1,31.5l6.9,88.7H95.6
		l42.4-135c0,0-30.5-5.3-70.2-31.8C33.8,679.7,18.9,646.7,30.8,624.3z"/>
</g>
<g>
	<path class="st16" d="M654,516.4c6-3.1,9.9-0.4,16.6,4.2c6.6,4.6,43.7,31.8,43.7,31.8"/>
	<path class="st0" d="M714.3,552.3l-52.2-36.8c0,0-19.3,0.4-8.1,19.7l35.8,33.5c0,0,2.5,35.8,13.2,50.5"/>
</g>
<g>
	<path class="st17" d="M638.6,346.6c0-6,1.9-12,5.7-18.1s9.4-11.2,16.7-15.2c7.3-4,15.8-6,25.6-6c9.1,0,17.1,1.7,24,5
		c6.9,3.3,12.3,7.9,16.1,13.6c3.8,5.7,5.7,12,5.7,18.7c0,5.3-1.1,10-3.2,14c-2.2,4-4.7,7.5-7.7,10.4c-3,2.9-8.3,7.8-16,14.7
		c-2.1,1.9-3.8,3.6-5,5.1c-1.3,1.5-2.2,2.8-2.8,4c-0.6,1.2-1.1,2.4-1.4,3.7c-0.3,1.2-0.8,3.4-1.5,6.4c-1.2,6.5-4.9,9.8-11.1,9.8
		c-3.2,0-6-1.1-8.2-3.2c-2.2-2.1-3.3-5.3-3.3-9.5c0-5.3,0.8-9.8,2.4-13.7c1.6-3.9,3.8-7.2,6.4-10.1c2.7-2.9,6.3-6.4,10.8-10.4
		c4-3.5,6.8-6.2,8.6-7.9c1.8-1.8,3.3-3.8,4.5-6s1.8-4.6,1.8-7.1c0-5-1.9-9.2-5.6-12.7c-3.7-3.4-8.5-5.2-14.4-5.2
		c-6.9,0-11.9,1.8-15.2,5.3c-3.2,3.5-6,8.7-8.2,15.5c-2.1,7-6.2,10.4-12.1,10.4c-3.5,0-6.4-1.2-8.9-3.6
		C639.8,352,638.6,349.4,638.6,346.6z M684.5,449.2c-3.8,0-7.1-1.2-10-3.7c-2.8-2.5-4.3-5.9-4.3-10.3c0-3.9,1.4-7.2,4.1-9.9
		c2.7-2.7,6.1-4,10.1-4c3.9,0,7.2,1.3,9.9,4s4,6,4,9.9c0,4.4-1.4,7.8-4.2,10.3C691.4,447.9,688.2,449.2,684.5,449.2z"/>
</g>
</svg>
