<?xml version="1.0" encoding="utf-8"?>
<!-- Generator: Adobe Illustrator 24.3.0, SVG Export Plug-In . SVG Version: 6.00 Build 0)  -->
<svg version="1.1" id="Layer_1" xmlns="http://www.w3.org/2000/svg" xmlns:xlink="http://www.w3.org/1999/xlink" x="0px" y="0px"
	 viewBox="0 0 890 869" style="enable-background:new 0 0 890 869;" xml:space="preserve">
<style type="text/css">
	.st0{fill:#FF6666;}
	.st1{fill:none;stroke:#1F1F1F;stroke-width:2;stroke-linecap:round;stroke-linejoin:round;}
	.st2{fill:#1F1F1F;stroke:#1F1F1F;stroke-width:0.25;stroke-linecap:round;stroke-linejoin:round;}
	.st3{fill:#C2E7FF;stroke:#1F1F1F;stroke-width:2;stroke-linecap:round;stroke-linejoin:round;}
	.st4{fill:none;stroke:#1F1F1F;stroke-width:0.25;stroke-linecap:round;stroke-linejoin:round;}
	.st5{fill:#F2D9C4;stroke:#1F1F1F;stroke-width:0.25;stroke-linecap:round;stroke-linejoin:round;}
	.st6{fill:#3E0C40;stroke:#1F1F1F;stroke-width:2;stroke-linecap:round;stroke-linejoin:round;}
	.st7{fill:#C99069;stroke:#1F1F1F;stroke-width:2;stroke-linecap:round;stroke-linejoin:round;}
	.st8{fill:#FFBB29;stroke:#1F1F1F;stroke-width:0.25;stroke-linecap:round;stroke-linejoin:round;}
	.st9{fill:#1EA446;stroke:#1EA446;stroke-width:0.25;stroke-linecap:round;stroke-linejoin:round;}
	.st10{fill:#FFFFFF;stroke:#1F1F1F;stroke-width:2;stroke-linecap:round;stroke-linejoin:round;}
	.st11{fill:#FFBB29;stroke:#1F1F1F;stroke-width:2;stroke-linecap:round;stroke-linejoin:round;}
	.st12{fill:#FFBB29;}
	.st13{fill:#1F1F1F;}
	.st14{fill:#C2E7FF;stroke:#000000;stroke-width:2;stroke-linecap:round;stroke-linejoin:round;}
	.st15{fill:#009CF4;stroke:#1F1F1F;stroke-width:3;stroke-linecap:round;stroke-linejoin:round;}
	.st16{fill:#FFB02E;stroke:#1F1F1F;stroke-width:5;stroke-linecap:round;stroke-linejoin:round;}
	.st17{fill:#7C3600;stroke:#88421F;stroke-width:3;stroke-linecap:round;stroke-linejoin:round;}
	.st18{fill:#FFDF99;stroke:#000000;stroke-width:2;stroke-linecap:round;stroke-linejoin:round;}
	.st19{fill:#C4EED0;stroke:#000000;stroke-width:2;stroke-linecap:round;stroke-linejoin:round;}
</style>
<path class="st0" d="M453.2,758c170.4,0,308.6-138.1,308.6-308.6c0-170.4-138.1-308.6-308.6-308.6c-170.4,0-308.6,138.1-308.6,308.6
	S282.8,758,453.2,758L453.2,758z"/>
<path class="st1" d="M491.3,668.2v153 M306.7,668.2l-22.7,153"/>
<path class="st2" d="M716.7,772.2c21.8-24.4,30.1-26.8,36.9-23.1c6.8,3.6,1.5,19.2-17.5,40.1s-32.2,28.9-38.6,24
	C691.1,808.3,695.8,795.5,716.7,772.2L716.7,772.2z"/>
<path class="st3" d="M716.7,772.2c21.8-24.4,30.1-26.8,36.9-23.1L551.8,607l-60.5,48.8l206.2,157.3
	C691.1,808.3,695.8,795.5,716.7,772.2L716.7,772.2z"/>
<path class="st4" d="M148.9,500.7c-2.8-16.9-4.2-34.1-4.2-51.2c0-170.4,138.1-308.6,308.6-308.6c51.2-0.1,101.6,12.6,146.7,37"/>
<path class="st5" d="M333.3,445.6l-4.2,23c6.1-1.9,12.3-3.1,18.6-3.5c7.5-0.6,14.9-0.4,22.4,0.4l-4.2-15.2c0,0,9.9,0.3,13.6-6
	c3.7-6.2,2.4-17,2.4-18.5l5.6-3.7c1.4-0.9,1.8-2.8,0.9-4.2c-0.2-0.4-0.6-0.7-0.9-0.9c-3.4-2.1-7.6-4.9-8.6-6.6
	c-1.6-2.8-2.1-9.4-7.6-15.4c-7.6-8.3-18.8-8.4-28.5-5s-19.1,11.2-18.1,24.3c0.7,9.5,5.2,19.7,7.6,24.7
	C333.5,440.9,333.8,443.3,333.3,445.6L333.3,445.6z"/>
<path class="st2" d="M448.9,740.6c8.8-7.8,21.5-4.3,36.2,9.1c9.2,8.3,18.6,17.1,25.5,23.1c12.3,10.6,18.5,23.7,12.1,30.5
	c-6.5,6.8-12.4,5.8-27.3,0c-14-5.4-31.9-18.8-42.2-30.5S440.8,747.8,448.9,740.6z"/>
<path class="st3" d="M642.9,631.1c-6.8-25.5-36.4-32.8-60.2-32.8H445.5c0,0-5.6,16-20.9,23.3c-0.8,0.4-1.6,0.7-2.4,1.1
	c2.7,12.4,5,22.6,5.9,26.6c2.6,11,9.2,18.9,21.7,18.9h79.9l-80.9,72.4c8.8-7.8,21.5-4.3,36.2,9.1c9.2,8.3,18.6,17.1,25.5,23.1
	c11.9,10.2,18.1,22.8,12.7,29.8l54.9-64v0.1l3.1-3.8l9-10.5v-0.3c11.2-13.4,20.9-24.9,26.2-30.8
	C634.8,673.1,649.7,656.6,642.9,631.1L642.9,631.1z"/>
<path class="st6" d="M445.4,598.3l-8.8-21.1c0,0,10.2,10.7,18.9,18.2c1.2,1,2.4,2,3.7,2.9h39.5c24-13.1,47.9-26.2,71.9-39.3
	l-12.4-37.2l-75,24.8c0,0-25.5-29.1-43-46.6c-21.5-21.5-53.2-37.9-92.5-35s-63.5,31.7-65.6,45.2c-0.1,0.7-0.2,1.4-0.3,2l106.8-0.3
	c11.6,0,16.2,23.8,20.2,46.4c2.5,14.3,8.5,42.8,13.1,64.4c0.8-0.3,1.6-0.7,2.4-1.1C439.9,614.3,445.4,598.3,445.4,598.3L445.4,598.3
	z"/>
<path class="st4" d="M419.8,611.9c-0.1-0.6-0.3-1.2-0.4-1.8C419.6,610.7,419.7,611.3,419.8,611.9L419.8,611.9z M419.3,609.6
	l-0.3-1.5 M418.9,607.3c-0.1-0.4-0.2-0.9-0.3-1.3C418.7,606.5,418.8,606.9,418.9,607.3z M418.3,604.9l0.1,0.3 M420.3,614.2
	c-0.1-0.7-0.3-1.4-0.4-2.1C420,612.9,420.2,613.6,420.3,614.2z M420.8,616.2c-0.1-0.5-0.2-1.1-0.4-1.6
	C420.5,615.1,420.6,615.6,420.8,616.2z M421.2,618.2l-0.3-1.2 M422.1,622.4c-0.1-0.5-0.2-1-0.3-1.6 M421.6,620.2
	c-0.1-0.4-0.2-0.9-0.3-1.3L421.6,620.2z M436.7,577.2l-18.4-19.9"/>
<path class="st5" d="M628.8,507.2c-15.7,0.7-28.7,1.8-38.3,4.6c-8.4,2.5-19.2,5.5-32,10.1l7,21l64.9-28.7c1.7-0.7,2.6-2.5,2.2-4.2
	C632.2,508.3,630.6,507.1,628.8,507.2L628.8,507.2z"/>
<path class="st7" d="M332.5,449.7l16.3-2.4c2.9-0.6,5.1-3.1,5.3-6.1c0.1-2.3,0.3-4.8,0.3-6.4c0-1.5-7.3-4.2-9.2-10.8
	c-1.2-3.7-0.2-7.7,2.6-10.4c2.9-2.9,8.6-2.8,10.8,0.3s3.9,4.9,6.2,3.7c2.3-1.1,2.3-4.5,2.1-8.3c-0.2-3.7,1.6-6.8,6.2-8.1
	c4.5-1.3,9.9-5.1,12.1-10c1.6-3.6-0.1-9.2-5.3-10.2c-5.3-1-8.1,1.8-10.7,1s-3.1-3.8-3.9-8.9s-4.9-8.4-10.2-7.8
	c-5.1,0.6-7.9,3.9-9.9,9.2c-1.3,3.6-2.9,7.5-7.1,7.9c-4.2,0.5-7-3.9-13.3-3.4s-11.3,4.4-11.8,11c-0.5,6.5,3.2,8.6,5.5,13.8
	c2.3,5.2,0.2,8.3-4.7,11.5c-4.9,3.2-4.2,10-1.8,12.8c3.4,3.9,7.8,4.3,12,6c4.7,1.9,8.1,5.8,8.6,8.8
	C332.8,445.1,332.8,447.4,332.5,449.7L332.5,449.7z"/>
<path class="st8" d="M167.9,352.1c16.1,0,29.1-13,29.1-29.1s-13-29.1-29.1-29.1l0,0c-16.1,0-29.1,13-29.1,29.1
	C138.8,339,151.8,352.1,167.9,352.1z"/>
<path class="st9" d="M758.3,199.4L758.3,199.4c-17.6-17.6-46.2-17.6-63.9,0l-36.7,36.7c-17.6,17.6-17.6,46.2,0,63.9l0,0
	c17.6,17.6,46.2,17.6,63.9,0l36.7-36.7C775.9,245.7,775.9,217.1,758.3,199.4z"/>
<path class="st2" d="M537.3,350.1H427.9c-5.3,0-8.2-4.3-6.5-9.6l23.5-73.6c1.7-5.3,7.4-9.6,12.6-9.6h109.4c5.3,0,8.2,4.3,6.5,9.6
	L550,340.5C548.3,345.8,542.6,350.1,537.3,350.1z"/>
<path class="st10" d="M475.8,271c-5.6,0-11.4-4.6-13-10.1l-0.7-2.5c-1.4-4.8-6.4-8.6-11.2-8.6h-52.2c-5.6,0-8.8,4.5-7.2,10.1
	l23.3,80.2c1.6,5.6,7.5,10.1,13,10.1h109c5.6,0,8.8-4.5,7.2-10.1l-17.5-60.4c-1.4-4.8-6.4-8.6-11.2-8.6h-39.5V271z M523.9,809.9
	c-8.1-4.2-15.2-12.6-14.2-19.7c0.4-2.6,3.7-6.6,7.7-10.7c-2.1-2.4-4.3-4.7-6.7-6.7c-7-6-16.3-14.8-25.5-23.1
	c-3.5-3.2-7.3-6.1-11.4-8.6c-13.7,13-38.8,36.5-44.4,41c-7.8,6.2-9.6,13.3-8.4,20.5c1.2,7.5,5.5,18.7,5.5,18.7h110.1
	C533.3,816.5,528.9,812.6,523.9,809.9L523.9,809.9z"/>
<path class="st10" d="M448,786.9c-4.3-4.4-12-8.9-18.4-5.1c-0.1,0.1-0.2,0.2-0.3,0.2c-7.8,6.2-9.6,13.3-8.4,20.5
	c1.2,7.5,5.5,18.7,5.5,18.7h53.5C470.7,811.1,454.8,793.9,448,786.9L448,786.9z M808.5,738.7c-9.2,6.2-18.7,11.8-28.7,16.6
	c-12.1,6-27.2,11.3-38.4,7.6c-3.8-1.3-7.5-2.9-11.2-4.7c-3.9,3.5-8.3,8.1-13.6,14c-7.7,8.6-13.1,15.7-16.7,21.6l36.1,27.4h25.6
	c0,0,46.2-68.5,53-76.5C821.6,736.7,814.8,734.3,808.5,738.7L808.5,738.7z"/>
<path class="st11" d="M111.6,802.5c0-28.4,13.6-53.7,50-74.1s63.2-28.5,90.1-31.7c46.4-5.7,85.7,17.7,77.5,55
	c-8.2,37.4-28.9,69.5-28.9,69.5H150.4c-10.7,10.2,58.7,13.1,98,14.9c17.5,0.7,14.9,12.9,4.2,15.5c-15,3.7-85.8,2.3-107.9-6.6
	C120.9,835.5,111.6,821.1,111.6,802.5L111.6,802.5z"/>
<path class="st1" d="M784.2,821.2H177.1"/>
<path class="st12" d="M144.6,753.5c0,0,15-13.5,33.5-15.7s21.6,9.4,20.4,20.2c-1.6,14.2-10.5,25.8-10.5,25.8"/>
<path class="st1" d="M144.6,753.5c0,0,15-13.5,33.5-15.7s21.6,9.4,20.4,20.2c-1.6,14.2-10.5,25.8-10.5,25.8"/>
<path class="st12" d="M250.5,780.4c0,0,18.9,23.9,33.5,29.7c14.6,5.8,18-10.2,14.1-20.4c-3.9-10.2-17.5-36.6-25.3-44.9
	c-10-10.8-22.5-8.8-34.9-2s-24.3,25.1-30.7,29.5c-6.3,4.4-29.6,17.4-38.4,22.3c-8.7,4.9-10.7,12.4-4.5,18.7c5,5.1,20.1,7.5,34.4,4.6
	s19.2-6.6,29.4-9.8c10.2-3.3,19.1-5.2,19.1-5.2"/>
<path class="st1" d="M250.5,780.4c0,0,18.9,23.9,33.5,29.7c14.6,5.8,18-10.2,14.1-20.4c-3.9-10.2-17.5-36.6-25.3-44.9
	c-10-10.8-22.5-8.8-34.9-2s-24.3,25.1-30.7,29.5c-6.3,4.4-29.6,17.4-38.4,22.3c-8.7,4.9-10.7,12.4-4.5,18.7c5,5.1,20.1,7.5,34.4,4.6
	s19.2-6.6,29.4-9.8c10.2-3.3,19.1-5.2,19.1-5.2"/>
<path class="st12" d="M213.9,820.2c0,0,1-7.2,9.9-10.8L213.9,820.2z"/>
<path class="st4" d="M213.9,820.2c0,0,1-7.2,9.9-10.8"/>
<path class="st2" d="M163.7,812.6c2.1-1.8,3.9-4.1,5.1-6.6c2.9-5.7,0-11.5,0-11.5C160.4,799.2,158.3,806.4,163.7,812.6z"/>
<path class="st13" d="M231.1,776.1c1.1,0,2-1.2,2-2.7s-0.9-2.7-2-2.7s-2,1.2-2,2.7S230,776.1,231.1,776.1z"/>
<path class="st8" d="M428.1,649.3c-2.6-11-15.2-68.5-19.1-91.1c-2-11.5-4-23.1-5.8-34.6c-1.1-6.8-7-11.8-13.9-11.7l-124.1,0.4
	c-7.7,0-14,6.3-14,14c0,0.9,0.1,1.8,0.3,2.7c1.7,8.7,3.7,19.4,5.4,29.3c4,22.6,16.5,80.1,19.1,91.1c2.6,10.9,9.2,19,21.7,19h152.2
	C437.3,668.3,430.7,660.2,428.1,649.3z"/>
<path class="st1" d="M421.3,668.2l-10.9,153 M529.7,668.2l13.6-12.9"/>
<g>
	<path class="st14" d="M766.1,360.4l-85.9-0.4c-8.3,0-15,7.1-15,15.7l0,0v147.5c0,8.7,6.7,15.7,15,15.7h103.8c8.3,0,15-7.1,15-15.7
		l-0.4-127.5L766.1,360.4L766.1,360.4L766.1,360.4z"/>
	<path class="st10" d="M781.9,395.6l17.9-0.4L767.2,360l-0.4,19.9C767,388.6,773.6,395.6,781.9,395.6L781.9,395.6L781.9,395.6z"/>
	<g>
		<path class="st15" d="M774,424v45.6l-15.4-28l-11.4,20.8l-11.4,20.8h-4.9l-12-21.8l-10.9-19.8l-17.6,32V424c0-4.5,3.5-8.2,7.8-8.2
			h68.1C770.5,415.8,774,419.5,774,424z"/>
		<path class="st16" d="M747.1,453.8l-13.9,25.2l-14.4-26.2c4-2.2,8.5-3.4,13.3-3.4C737.6,449.4,742.8,451,747.1,453.8z"/>
		<path class="st17" d="M733.2,479.1l-2.2,4h-38.2c-1.4,0-2.5-1.2-2.5-2.7V465l17.6-32l10.9,19.8L733.2,479.1z"/>
		<path class="st17" d="M774,461.1v19.3c0,1.5-1.1,2.7-2.5,2.7H731c0,0,2.2-4,2.2-4l13.9-25.2l11.4-20.8L774,461.1z"/>
	</g>
</g>
<g>
	<path class="st18" d="M592,44.3l-85.9-0.4c-8.3,0-15,7.1-15,15.7l0,0v147.5c0,8.7,6.7,15.7,15,15.7H610c8.3,0,15-7.1,15-15.7
		l-0.4-127.5L592,44.3L592,44.3L592,44.3z"/>
	<path class="st10" d="M607.9,79.6l17.9-0.4l-32.6-35.3l-0.4,19.9C592.9,72.5,599.6,79.6,607.9,79.6L607.9,79.6L607.9,79.6z"/>
	<g>
		<path class="st15" d="M599.9,107.9v45.6l-15.4-28l-11.4,20.8L561.6,167h-4.9l-12-21.8l-10.9-19.8l-17.6,32v-49.5
			c0-4.5,3.5-8.2,7.8-8.2h68.1C596.4,99.8,599.9,103.4,599.9,107.9z"/>
		<path class="st16" d="M573.1,137.8L559.2,163l-14.4-26.2c4-2.2,8.5-3.4,13.3-3.4C563.6,133.4,568.7,135,573.1,137.8z"/>
		<path class="st17" d="M559.2,163l-2.2,4h-38.2c-1.4,0-2.5-1.2-2.5-2.7V149l17.6-32l10.9,19.8L559.2,163z"/>
		<path class="st17" d="M599.9,145v19.3c0,1.5-1.1,2.7-2.5,2.7H557c0,0,2.2-4,2.2-4l13.9-25.2l11.4-20.8L599.9,145z"/>
	</g>
</g>
<g>
	<path class="st19" d="M303.4,203.2L237,203c-6.4,0-11.6,5.2-11.6,11.6l0,0v108.8c0,6.4,5.2,11.6,11.6,11.6h80.3
		c6.4,0,11.6-5.2,11.6-11.6l-0.3-94.1L303.4,203.2L303.4,203.2L303.4,203.2z"/>
	<path class="st10" d="M315.7,229.3l13.8-0.3l-25.2-26l-0.3,14.7C304.1,224,309.3,229.3,315.7,229.3L315.7,229.3L315.7,229.3z"/>
	<g>
		<path class="st15" d="M309.5,250.2v33.6l-11.9-20.7l-8.8,15.3l-8.8,15.3h-3.8l-9.3-16.1l-8.4-14.6l-13.6,23.6v-36.5
			c0-3.3,2.7-6,6-6h52.7C306.8,244.1,309.5,246.8,309.5,250.2z"/>
		<path class="st16" d="M288.7,272.2L278,290.8l-11.2-19.3c3.1-1.6,6.6-2.5,10.3-2.5C281.4,269,285.4,270.2,288.7,272.2z"/>
		<path class="st17" d="M278,290.8l-1.7,3h-29.5c-1.1,0-2-0.9-2-2v-11.3l13.6-23.6l8.4,14.6L278,290.8z"/>
		<path class="st17" d="M309.5,277.5v14.3c0,1.1-0.9,2-2,2h-31.3c0,0,1.7-3,1.7-3l10.7-18.6l8.8-15.3L309.5,277.5z"/>
	</g>
</g>
</svg>
