<?xml version="1.0" encoding="utf-8"?>
<!-- Generator: Adobe Illustrator 24.3.0, SVG Export Plug-In . SVG Version: 6.00 Build 0)  -->
<svg version="1.1" id="Layer_1" xmlns="http://www.w3.org/2000/svg" xmlns:xlink="http://www.w3.org/1999/xlink" x="0px" y="0px"
	 viewBox="0 0 890 869" style="enable-background:new 0 0 890 869;" xml:space="preserve">
<style type="text/css">
	.st0{fill:#1F1F1F;stroke:#1F1F1F;stroke-width:4.5;stroke-linecap:round;stroke-linejoin:round;}
	.st1{fill:#8C4819;stroke:#1F1F1F;stroke-width:4.5;stroke-linecap:round;stroke-linejoin:round;}
	.st2{fill:url(#SVGID_1_);}
	.st3{fill:#BCAEEB;}
	.st4{fill:#D7D1EB;}
	.st5{fill:url(#SVGID_2_);}
	.st6{fill:#E9E5F6;}
	.st7{fill:none;stroke:#D7D1EB;stroke-width:1.0438;stroke-miterlimit:10;}
	.st8{opacity:0.2;fill:url(#SVGID_3_);}
	.st9{stroke:#1F1F1F;stroke-width:4.5;stroke-linecap:round;stroke-linejoin:round;}
	.st10{fill:#3C0E40;stroke:#3C2370;stroke-width:4.5;stroke-miterlimit:10;}
	.st11{fill:none;stroke:#1F1F1F;stroke-width:4.5;stroke-linecap:round;stroke-linejoin:round;}
	.st12{fill:#BF002B;stroke:#1F1F1F;stroke-width:4.5;stroke-linecap:round;stroke-linejoin:round;}
	.st13{fill:#FFFFFF;stroke:#191C1E;stroke-width:4.5;stroke-linecap:round;stroke-linejoin:round;}
</style>
<path class="st0" d="M267.2,663.9c-2,25.5,24,58.2,54.2,79.3c49.7,34.6,86.9,32.9,86.9,32.9c17-1,27.4-7.6,27.4-22.2
	s-27.8-45.8-61.7-67.7c-39.1-25.2-65.4-33.7-90.1-32.6C273.9,654.2,268.5,656,267.2,663.9L267.2,663.9z"/>
<path class="st0" d="M746.1,727.7c6.5-1.4,36.9-8.9,73.4-33.2c30-20,45.9-47.7,42.6-70c-5.2-19.4-49.3-9.4-71-0.7
	c-24.2,9.7-52.8,24.5-67.2,34L746.1,727.7z"/>
<path class="st1" d="M210.4,537.3c-7.6-0.5-14.3,2.8-24.2,5.1s-21.6,6.2-29.8,13.6c-9.5,8.5-2.3,21.9,6.2,20.3
	c7.7-1.5,9.9-6.5,18.7-11.1c8.8-4.6,15.2-7.4,22.9-8.5c6.4-1,14.8-4.6,15.7-8.8C221,542.6,219.2,537.8,210.4,537.3L210.4,537.3z"/>
<path class="st1" d="M147.3,546.8c0.3,10.4,12.2,14.8,21.5,7.8s34.4-16,43.8-14.8c5.7,0.8,17.4,0.6,21.3-2.6
	c4.7-3.9,3.9-14-5.7-16.6c-11.2-3-30.8-2.3-47.7,2.3C157.9,529.2,147.1,536.5,147.3,546.8z"/>
<path class="st1" d="M180.7,502.7c-20.1,5.6-29.8,12-29.5,21.2s10.9,13.2,19.2,6.9s30.7-14.3,39-13.2c5.1,0.7,15.5,0.5,18.9-2.3
	c4.1-3.5,3.5-12.5-5.1-14.8C213.2,497.9,195.7,498.6,180.7,502.7L180.7,502.7z"/>
<path class="st1" d="M158.8,503c-54.5,35.8-74.9,127.4-55.3,203.5c15,57.8,49.9,100.7,98.4,120.5c32.4,13.3,88.7,18.9,139.2-18.7
	c33.3-24.8,62.6-56.3,77.4-81.1l1.5-2.5c-8.8-7.8-18.1-14.9-28-21.3c-33.3-21.5-57.3-30.8-79-32.4c-2,3.3-3.9,6.2-5.7,8.6
	c-21.7,29.1-40.3,59.8-80.8,55.9c-33.7-3.2-51.8-34.5-64.7-62.8c-13.9-30.5-15.2-51.3-15.2-51.3s23.5-31.8,22.2-66.5
	c0,0,22.8-22.2,37-34.8c6.5-5.8,6-15.5,0-18.8c0,0,5.4-3.8,11.5-8.8c7.6-6.2,3.5-15.7-7.6-14.8C199.9,478.6,179,489.8,158.8,503
	L158.8,503z"/>
<g>
	
		<radialGradient id="SVGID_1_" cx="319.6327" cy="574.8079" r="91.4984" gradientTransform="matrix(0.9429 0.333 -0.333 0.9429 138.7679 -70.0698)" gradientUnits="userSpaceOnUse">
		<stop  offset="0" style="stop-color:#BCAEEB"/>
		<stop  offset="1" style="stop-color:#8D83B0"/>
	</radialGradient>
	<path class="st2" d="M506.5,502.6L506.5,502.6l0.9-5l-7.9-0.2l-147-69.2c-4.7-2.2-10.1-2.7-15.1-1.4l-231.3,59.6l-13-0.4l-0.9,5
		l0,0c-0.3,0.9,0,2.1,1,2.6l142,77.6c9.8,5.4,21.4,6.6,32.1,3.4l237.5-69.9C505.8,504.3,506.4,503.5,506.5,502.6z"/>
	<path class="st3" d="M314.1,200.5L67.9,246.2c-5.7,1.1-9.6,6.4-9,12.2l26.6,225.1c0.5,4.2,4.5,6.9,8.6,5.9L337.3,426
		c4.7-1.2,7.9-5.7,7.3-10.6l-21.9-208.3C322.4,202.7,318.3,199.7,314.1,200.5z"/>
	<path class="st4" d="M94.7,484.2L94.7,484.2c-3.2,0.6-6.2-1.6-6.6-4.8L60.5,258.2c-0.7-5.3,2.9-10.2,8.2-11.1l245.1-44.6
		c4.2-0.8,8.1,2.2,8.6,6.4l21.4,211.8L94.7,484.2z"/>
	
		<linearGradient id="SVGID_2_" gradientUnits="userSpaceOnUse" x1="520.7644" y1="407.8834" x2="10.7108" y2="343.5417" gradientTransform="matrix(0.9429 0.333 -0.333 0.9429 138.7679 -70.0698)">
		<stop  offset="0" style="stop-color:#FFA163"/>
		<stop  offset="0.1487" style="stop-color:#DB846F"/>
		<stop  offset="0.4499" style="stop-color:#974D87"/>
		<stop  offset="0.7024" style="stop-color:#652598"/>
		<stop  offset="0.8931" style="stop-color:#460CA2"/>
		<stop  offset="1" style="stop-color:#3B03A6"/>
	</linearGradient>
	<polygon class="st5" points="92,471.2 66.6,260.8 317,214.3 337.9,409.1 	"/>
	<path class="st6" d="M94.2,488.3l142,77.6c9.8,5.4,21.4,6.6,32.1,3.4l237.5-69.9c2.2-0.7,2.4-3.7,0.4-4.7l-152.6-71.9
		c-4.7-2.2-10.1-2.7-15.1-1.4L94.7,484.2C92.8,484.7,92.4,487.3,94.2,488.3z"/>
	<path class="st3" d="M134.9,487.8l66.2,34.8c2.2,1.1,4.7,1.4,7.1,0.8L409,469.3c1-0.3,1.2-1.7,0.2-2.2l-66.1-32
		c-2.4-1.1-5.1-1.4-7.6-0.7l-200.4,51.8C134.3,486.4,134.2,487.4,134.9,487.8z"/>
	<polygon class="st7" points="279.2,510.5 359.2,487.9 406.2,510.9 326,535.1 	"/>
	<g>
		<polygon class="st4" points="223.3,471.7 233.1,476.9 243.9,474.1 234.1,468.9 		"/>
		<polygon class="st4" points="210.5,475 220.3,480.2 231.1,477.4 221.3,472.2 		"/>
		<polygon class="st4" points="197.7,478.3 207.5,483.5 218.3,480.7 208.5,475.5 		"/>
		<polygon class="st4" points="236.1,468.4 245.9,473.6 256.8,470.8 247,465.6 		"/>
		<polygon class="st4" points="287.5,455.2 297.2,460.4 308,457.6 298.2,452.4 		"/>
		<polygon class="st4" points="249,465.1 258.8,470.3 269.6,467.5 259.8,462.3 		"/>
		<polygon class="st4" points="274.7,458.5 284.4,463.7 295.2,460.9 285.4,455.7 		"/>
		<polygon class="st4" points="184.9,481.6 194.7,486.8 205.5,484 195.7,478.8 		"/>
		<polygon class="st4" points="261.9,461.8 271.6,467 282.4,464.2 272.6,459 		"/>
		<polygon class="st4" points="300.2,451.9 310,457.1 320.8,454.3 311,449.1 		"/>
		<polygon class="st4" points="298.8,487.4 289.1,482.2 275.8,485.6 285.6,490.8 		"/>
		<polygon class="st4" points="172.1,484.9 181.9,490.1 192.7,487.3 182.9,482.1 		"/>
		<polygon class="st4" points="268.3,495.3 258.5,490.1 245.3,493.5 255.1,498.7 		"/>
		<polygon class="st4" points="314,483.5 304.2,478.3 291.1,481.7 300.9,486.9 		"/>
		<polygon class="st4" points="283.6,491.3 273.8,486.1 260.6,489.6 270.3,494.7 		"/>
		<polygon class="st4" points="253.1,499.2 243.3,494 230.1,497.4 239.9,502.6 		"/>
		<polygon class="st4" points="218.2,499 208.4,493.8 195.2,497.3 204.9,502.4 		"/>
		<polygon class="st4" points="201.9,494.1 192.1,488.9 178.9,492.3 188.7,497.5 		"/>
		<polygon class="st4" points="237.9,503.1 228.1,497.9 214.9,501.3 224.6,506.5 		"/>
		<polygon class="st4" points="248.6,491.2 238.9,486 225.6,489.4 235.4,494.6 		"/>
		<polygon class="st4" points="224.6,480.5 234.4,485.7 247.6,482.3 237.8,477.1 		"/>
		<polygon class="st4" points="239.8,476.6 249.6,481.8 262.9,478.4 253.1,473.2 		"/>
		<polygon class="st4" points="209.3,484.4 219.1,489.6 232.4,486.2 222.6,481 		"/>
		<polygon class="st4" points="233.4,495.1 223.6,489.9 210.5,493.3 220.2,498.5 		"/>
		<polygon class="st4" points="194.2,488.4 204,493.6 217.1,490.2 207.3,485 		"/>
		<polygon class="st4" points="255.1,472.7 264.9,477.9 278.1,474.5 268.3,469.3 		"/>
		<polygon class="st4" points="179.8,490.6 170.1,485.4 159.3,488.2 169.1,493.4 		"/>
		<polygon class="st4" points="145.8,491.7 155.6,496.9 167,493.9 157.3,488.7 		"/>
		<polygon class="st4" points="270.3,468.8 280.1,473.9 293.3,470.5 283.5,465.3 		"/>
		<polygon class="st4" points="313,448.6 322.8,453.8 333.6,451 323.8,445.8 		"/>
		<polygon class="st4" points="308.6,466.6 298.8,461.4 285.6,464.8 295.3,470 		"/>
		<polygon class="st4" points="339,458.8 329.2,453.6 316.1,457 325.9,462.2 		"/>
		<polygon class="st4" points="324.8,471.6 315.1,466.4 301.8,469.8 311.6,475 		"/>
		<polygon class="st4" points="314,457.5 300.8,460.9 310.6,466.1 323.8,462.7 		"/>
		<polygon class="st4" points="354.3,454.8 344.5,449.6 331.2,453.1 341,458.2 		"/>
		<polygon class="st4" points="309.6,475.5 299.8,470.3 286.6,473.7 296.3,478.9 		"/>
		<polygon class="st4" points="279.1,483.3 269.4,478.1 256.1,481.6 265.9,486.7 		"/>
		<polygon class="st4" points="329.3,479.6 319.5,474.4 306.2,477.8 316,483 		"/>
		<polygon class="st4" points="263.9,487.3 254.1,482.1 240.9,485.5 250.7,490.7 		"/>
		<polygon class="st4" points="294.3,479.4 284.6,474.2 271.4,477.6 281.2,482.8 		"/>
		<polygon class="st4" points="272.8,457.5 283.6,454.7 276.7,451.1 265.9,453.8 		"/>
		<polygon class="st4" points="261.7,506.3 251.7,501 238.4,504.4 248.5,509.8 248.5,509.8 		"/>
		<polygon class="st4" points="282.2,493.1 269,496.5 278.8,501.8 292,498.3 		"/>
		<polygon class="st4" points="266.9,497.1 253.7,500.5 263.7,505.8 276.8,502.3 		"/>
		<polygon class="st4" points="186.7,498 176.9,492.8 157,497.9 166.9,503.1 		"/>
		<polygon class="st4" points="217.9,517.9 231.5,514.3 221.3,508.8 208,512.2 218.1,517.6 		"/>
		<polygon class="st4" points="202.9,503 193.2,497.8 168.7,504.1 178.5,509.2 		"/>
		<polygon class="st4" points="222.6,507 212.8,501.8 180.4,510.2 190.2,515.4 		"/>
		<polygon class="st4" points="312.6,485.3 299.4,488.7 309,493.8 322.2,490.4 		"/>
		<polygon class="st4" points="246.6,510.3 236.4,504.9 223.3,508.3 233.4,513.7 233.3,513.8 		"/>
		<polygon class="st4" points="297.4,489.2 284.2,492.6 294,497.8 307,494.3 		"/>
		<polygon class="st4" points="206,512.8 192.1,516.4 202.6,521.9 216.4,518.3 		"/>
		<polygon class="st4" points="327.9,481.4 314.7,484.8 324.2,489.8 337.3,486.4 		"/>
		<polygon class="st4" points="396.3,462.3 386,457.3 367.2,462.1 377,467.3 		"/>
		<polygon class="st4" points="360.3,473 369.5,477.9 407.6,467.8 398.2,463.3 		"/>
		<polygon class="st4" points="336.8,441 347.2,438.3 340,434.8 329.9,437.4 		"/>
		<polygon class="st4" points="358.3,473.5 345.2,476.9 354.5,481.8 367.5,478.4 		"/>
		<polygon class="st4" points="343.2,477.4 329.9,480.8 339.3,485.8 352.5,482.4 		"/>
		<polygon class="st4" points="336.8,469.9 346.5,475.1 359.8,471.7 350,466.5 		"/>
		<polygon class="st4" points="375,467.8 365.2,462.6 352,466 361.8,471.2 		"/>
		<polygon class="st4" points="384,456.3 373.7,451.3 347.5,458 357.3,463.2 		"/>
		<polygon class="st4" points="285.6,454.2 296.4,451.4 289.5,447.8 278.7,450.5 		"/>
		<polygon class="st4" points="311.2,447.6 322,444.8 315.1,441.2 304.3,444 		"/>
		<polygon class="st4" points="325.8,445.3 335.6,450.5 359.5,444.3 349.2,439.3 		"/>
		<polygon class="st4" points="298.4,450.9 309.2,448.1 302.3,444.5 291.5,447.3 		"/>
		<polygon class="st4" points="317.1,440.7 324,444.3 334.8,441.5 327.9,437.9 		"/>
		<polygon class="st4" points="330.3,462.5 317.1,465.9 326.8,471 340.1,467.6 		"/>
		<polygon class="st4" points="355.3,463.7 345.5,458.5 332.4,461.9 342.1,467.1 		"/>
		<polygon class="st4" points="346.5,449.1 356.3,454.3 371.8,450.3 361.5,445.3 		"/>
		<polygon class="st4" points="344.5,475.6 334.7,470.5 321.5,473.9 331.3,479 		"/>
		<polygon class="st4" points="195.9,477.3 206.7,474.5 199.8,470.9 189,473.7 		"/>
		<polygon class="st4" points="170.2,483.9 181,481.1 174.1,477.5 163.3,480.3 		"/>
		<polygon class="st4" points="143.9,490.8 155.4,487.7 148.5,484.1 137,487.1 		"/>
		<polygon class="st4" points="260,460.8 270.8,458 263.9,454.4 253.1,457.1 		"/>
		<polygon class="st4" points="157.4,487.2 168.2,484.4 161.3,480.8 150.5,483.5 		"/>
		<polygon class="st4" points="183.1,480.6 193.9,477.8 187,474.2 176.2,477 		"/>
		<polygon class="st4" points="208.7,474 219.5,471.2 212.6,467.6 201.8,470.4 		"/>
		<polygon class="st4" points="247.2,464.1 258,461.3 251.1,457.7 240.3,460.4 		"/>
		<polygon class="st4" points="234.3,467.4 245.2,464.6 238.3,461 227.4,463.8 		"/>
		<polygon class="st4" points="221.5,470.7 232.3,467.9 225.4,464.3 214.6,467.1 		"/>
	</g>
	
		<linearGradient id="SVGID_3_" gradientUnits="userSpaceOnUse" x1="574.0165" y1="522.9669" x2="52.5298" y2="306.3102" gradientTransform="matrix(0.9429 0.333 -0.333 0.9429 138.7679 -70.0698)">
		<stop  offset="0" style="stop-color:#FFFFFF"/>
		<stop  offset="1" style="stop-color:#FFFFFF;stop-opacity:0"/>
	</linearGradient>
	<polygon class="st8" points="317,214.3 66.6,260.8 92,471.2 318.6,229.6 	"/>
</g>
<g>
	<path class="st9" d="M586.3,325.9c4.6-22.1,17.7-36.4,36.3-40.4c25.1-5.4,44.6,13.3,48.4,36.4c4,24.3-6.9,39.6-11.9,46.8
		c-9.6,13.8-28.4,25.9-48.1,16.2C589.7,374.4,581.1,351.2,586.3,325.9L586.3,325.9z"/>
	<path class="st1" d="M435.7,358.3c-3.8,4.2-1.7,8,3.9,9.7c2.5,0.7,5,1.2,7.6,1.4c0,0,4.9,22.4,10.4,33.1
		c5.5,10.7,19.4,4.6,31.6,4.6s17.7-1.7,17.7-1.7s5.1,5.3,4.1,25.1c-1.2,22.9-9.9,32.1-9.9,32.1s-17.1-2.4-27.3-3.6
		c21.4,17.5,60.3,41.7,96.1,38c46.8-4.8,67.2-40.3,69.5-61.3c-8.1,2.5-16,5.5-23.7,9c-15.6-10.7-32.6-27.4-39.1-43.6
		c-6.6-16.3-3.8-27.8,2.4-47.5s9-31.5,6.6-53.7c-2.5-23-13.6-38.5-30.8-50.9c-16.3-11.8-36.7-13.9-57.1-9.4s-40.9,20.1-50.2,38.4
		s-8.6,43.5-6.5,54.2s3,14.8-0.8,19L435.7,358.3z M731.3,678.9l47.3,150c32.4-8.9,62.7-30.8,72.4-72.4
		c9.1-39.1-19.3-104.1-36.5-138.6c-7.6,1.8-15.1,4.1-22.4,7c-24.2,9.7-52.8,24.5-67.2,34L731.3,678.9L731.3,678.9z"/>
	<path class="st9" d="M467.1,319.8c11.5,3.2,18,0.5,20.3-6.5c2.3-6.9,8.3-19.1,21.4-15.1c10.4,3.1,16.6,17.2,13.5,31.9
		c-3.2,15.1,0.3,34.4,8.3,41.9c10.8,10.1,30.9,11.6,43.8,7.3c0.5-7.7,2.8-15.9,6.1-26.3c6.2-19.7,9-31.5,6.6-53.7
		c-2.5-23-13.6-38.5-30.8-50.9c-16.3-11.8-36.7-13.9-57.1-9.4c-20.4,4.5-40.9,20.1-50.2,38.5c-3.6,7.2-5.5,15.1-5.7,23.1
		C448.6,308.4,457.5,317.1,467.1,319.8z"/>
	<ellipse cx="460.1" cy="334.8" rx="6" ry="8"/>
	<path class="st1" d="M504.9,320.6c3.3,6.7,1.2,13.9-3.4,16.5c-4.3,2.4-9.5,0.1-10.1-0.2"/>
	<path class="st1" d="M466.1,384.9c-6.3,3.2-11.8,3.2-13.6,0.7c-0.4-0.5-2.3-2.2-2-4.1"/>
</g>
<path class="st10" d="M819.6,694.5c-41.6,27.7-73.4,33.2-73.4,33.2L790.5,869H401.2l7.3-92.8c0,0-37.3,1.7-86.9-32.9
	c-34.3-23.9-63.1-62.7-52-89s30.5-61,61-121.9c30.5-61,54-79,101.2-77.6S552.2,470,552.2,470s24.9-9.7,62.4-26.3
	c37.4-16.6,79-24.9,119.2,4.2c40.2,29.1,100.1,118.3,124.7,164.9C870.8,636.2,855.2,670.7,819.6,694.5z"/>
<path class="st11" d="M143.2,537.5c0,0,38.8-28.4,45.7-33.3s11.1-7.6,17.3-4.4"/>
<path class="st1" d="M143.2,537.5l54.6-38.5c0,0,20.2,0.5,8.4,20.6l-37.4,35c0,0-2.7,37.5-13.8,52.9"/>
<ellipse transform="matrix(0.9836 -0.1801 0.1801 0.9836 -59.6187 42.8434)" class="st12" cx="206.1" cy="349.7" rx="53.2" ry="65.2"/>
<g>
	<path class="st13" d="M211.2,395.5c-2.3,0.3-4.4,0-6.1-1c-1.8-1-2.8-2.3-3-3.9c-0.2-1.7,0.4-3.3,1.9-4.6c1.5-1.4,3.4-2.2,5.7-2.5
		c2.4-0.3,4.5,0,6.1,0.9c1.7,0.9,2.6,2.2,2.9,4c0.2,1.6-0.3,3.2-1.7,4.6C215.5,394.3,213.6,395.2,211.2,395.5z M203.3,370.9
		l-10-57.1l13.2-1.8l5.5,57.7L203.3,370.9z"/>
</g>
</svg>
