<?xml version="1.0" encoding="utf-8"?>
<!-- Generator: Adobe Illustrator 24.3.0, SVG Export Plug-In . SVG Version: 6.00 Build 0)  -->
<svg version="1.1" id="Layer_1" xmlns="http://www.w3.org/2000/svg" xmlns:xlink="http://www.w3.org/1999/xlink" x="0px" y="0px"
	 viewBox="0 0 890 869" style="enable-background:new 0 0 890 869;" xml:space="preserve">
<style type="text/css">
	.st0{fill:#8C4819;stroke:#1F1F1F;stroke-width:4.5;stroke-linecap:round;stroke-linejoin:round;}
	.st1{fill:url(#SVGID_1_);}
	.st2{fill:#C70D60;}
	.st3{fill:#1F1F1F;stroke:#1F1F1F;stroke-width:4.5;stroke-linecap:round;stroke-linejoin:round;}
	.st4{stroke:#1F1F1F;stroke-width:4.5;stroke-linecap:round;stroke-linejoin:round;}
	.st5{fill:#3C0E40;stroke:#3C2370;stroke-width:4.5;stroke-miterlimit:10;}
	.st6{fill:none;stroke:#1F1F1F;stroke-width:4.5;stroke-linecap:round;stroke-linejoin:round;}
</style>
<g>
	<g>
		<path class="st0" d="M742.6,520.5c-9.3,0.6-11.2,5.6-9.9,11.2c1,4.4,9.7,8.2,16.5,9.2c8,1.2,14.8,4.1,24,9
			c9.2,4.9,11.6,10.1,19.7,11.6c9,1.7,16.5-12.4,6.6-21.4c-8.6-7.8-20.9-11.9-31.3-14.3C757.7,523.4,750.6,519.9,742.6,520.5
			L742.6,520.5z"/>
		<path class="st0" d="M774,505.5c-17.7-4.9-38.3-5.6-50.1-2.5c-10.1,2.7-10.9,13.3-6,17.4c4,3.3,16.3,3.5,22.3,2.7
			c9.8-1.3,36.2,8.2,46,15.5c9.8,7.3,22.3,2.7,22.6-8.2C809.1,519.6,797.7,511.9,774,505.5z"/>
		<path class="st0" d="M773.8,484.1c-15.8-4.3-34.1-5-44.6-2.2c-9,2.4-9.7,11.9-5.3,15.5c3.6,3,14.6,3.2,19.9,2.4
			c8.8-1.2,32.3,7.3,41,13.8c8.7,6.6,19.9,2.4,20.1-7.3C805.1,496.7,794.9,490,773.8,484.1L773.8,484.1z"/>
	</g>
	<path class="st0" d="M796.8,484.4c-21.1-13.9-43.1-25.6-53.4-26.4c-11.6-1-16,9-8,15.5c6.5,5.3,12.1,9.2,12.1,9.2
		c-6.3,3.4-6.8,13.7,0,19.7c15,13.3,38.9,36.6,38.9,36.6c-1.4,36.4,23.3,69.8,23.3,69.8s-1.4,21.8-16,53.9
		c-13.5,29.8-32.5,62.6-67.9,66c-42.6,4.1-62.1-28.1-84.9-58.7c-1.9-2.5-3.9-5.6-6-9.1c-22.8,1.6-48,11.5-83,34
		c-10.4,6.7-20.2,14.2-29.4,22.4l1.5,2.6c15.5,26,46.3,59.1,81.3,85.2c53.1,39.5,112.2,33.5,146.2,19.6
		c50.9-20.9,87.6-65.9,103.3-126.6C875.4,618.3,854,522,796.8,484.4L796.8,484.4z"/>
</g>
<g>
	
		<radialGradient id="SVGID_1_" cx="170.6907" cy="318.7784" r="152.2465" gradientTransform="matrix(-0.9356 -0.3532 -0.3532 0.9356 1081.7662 177.2689)" gradientUnits="userSpaceOnUse">
		<stop  offset="0" style="stop-color:#950A48"/>
		<stop  offset="1" style="stop-color:#700836"/>
	</radialGradient>
	<path class="st1" d="M622,378.6c26.7-29.9,72.6-32.6,102.5-5.9c11.9-13.4,27.7-21.3,44.2-23.6l4.3-29.8c0,0,53.7,47.1,54,47.4
		c29.9,26.7,32.6,72.6,5.9,102.5l-96.6,108.4l-108.4-96.6C598,454.4,595.3,408.5,622,378.6z"/>
	<path class="st2" d="M568.3,330.8c26.7-29.9,72.6-32.6,102.5-5.9c26.7-29.9,72.6-32.6,102.5-5.9c29.9,26.7,32.6,72.6,5.9,102.5
		l-96.6,108.4l-108.4-96.6C544.3,406.6,541.6,360.7,568.3,330.8z"/>
</g>
<g>
	<path class="st3" d="M682.9,653.5c-1.3-8.3-7-10.2-17.7-10.7c-26-1.2-53.6,7.8-94.6,34.2c-35.6,22.9-64.8,55.8-64.8,71.1
		c0,15.3,10.9,22.2,28.8,23.3c0,0,39.1,1.8,91.3-34.6C657.7,714.6,685,680.2,682.9,653.5L682.9,653.5z"/>
	<path class="st3" d="M203.1,646.9c-15.1-10-45.2-25.5-70.6-35.7c-22.8-9.1-69.1-19.7-74.6,0.7c-3.4,23.4,13.2,52.5,44.8,73.5
		c38.3,25.6,70.3,33.5,77.1,34.9L203.1,646.9z"/>
	<g>
		<path class="st4" d="M347.7,298.5c5.5,26.6-3.6,50.9-26,61.9c-20.7,10.2-40.4-2.6-50.5-17c-5.2-7.5-16.7-23.5-12.5-49.1
			c3.9-24.2,24.4-43.8,50.8-38.2C329.1,260.2,342.9,275.2,347.7,298.5L347.7,298.5z"/>
		<path class="st0" d="M501.7,325.1c-4-4.4-3-8.7-0.8-20c2.2-11.3,3-37.7-6.9-56.9c-9.8-19.3-31.3-35.7-52.8-40.4
			c-21.5-4.7-42.9-2.6-60,9.8c-18.1,13.1-29.7,29.3-32.4,53.5c-2.6,23.3,0.4,35.7,6.9,56.4s9.5,32.8,2.5,49.8s-24.7,34.6-41.1,45.8
			c-8.1-3.6-16.4-6.8-24.9-9.5c2.3,22.1,23.8,59.4,72.9,64.4c37.6,3.8,78.5-21.5,100.9-39.9c-10.7,1.2-28.7,3.8-28.7,3.8
			s-9.2-9.7-10.4-33.7c-1.1-20.7,4.3-26.3,4.3-26.3s5.8,1.8,18.5,1.8c12.7,0,27.3,6.4,33.1-4.9c5.8-11.3,10.9-34.8,10.9-34.8
			c2.7-0.2,5.4-0.7,8-1.5c5.9-1.8,8-5.8,4-10.2L501.7,325.1z M195.5,669.2l6.7-21.1c-15.1-10-45.2-25.5-70.6-35.7
			c-7.6-3-15.5-5.5-23.5-7.4c-18.1,36.3-48,104.5-38.4,145.6c10.2,43.7,42,66.7,76,76L195.5,669.2L195.5,669.2z"/>
		<path class="st4" d="M498.1,271.7c-0.2-8.4-2.2-16.7-5.9-24.3c-9.8-19.3-31.3-35.7-52.8-40.4c-21.5-4.7-42.9-2.6-60,9.8
			c-18.1,13.1-29.7,29.3-32.4,53.5c-2.6,23.3,0.4,35.7,6.9,56.4c3.5,11,5.9,19.5,6.4,27.6c13.5,4.6,34.7,2.9,46-7.6
			c8.4-7.9,12-28.2,8.7-44c-3.2-15.4,3.3-30.2,14.2-33.5c13.7-4.1,20,8.6,22.4,15.9c2.4,7.3,9.2,10.2,21.4,6.8
			C483,289.2,492.4,280,498.1,271.7z"/>
		<ellipse cx="480.3" cy="307.8" rx="6.3" ry="8.4"/>
		<path class="st0" d="M433.2,292.9c-3.5,7-1.3,14.6,3.6,17.3c4.6,2.6,9.9,0.1,10.6-0.2"/>
		<path class="st0" d="M474,360.4c6.6,3.4,12.4,3.3,14.3,0.8c0.4-0.5,2.4-2.3,2.1-4.3"/>
	</g>
	<path class="st5" d="M62,599.7c25.9-48.9,88.8-142.6,131-173.2s85.9-21.8,125.2-4.4c39.3,17.5,65.5,27.7,65.5,27.7
		s77.1-14.6,126.6-16s74.2,17.5,106.2,81.5c32,64,52.4,100.4,64.1,128.1s-18.5,68.4-54.6,93.5c-52.2,36.4-91.3,34.6-91.3,34.6
		l7.6,97.5h-409l46.6-148.4c0,0-33.5-5.8-77.1-34.9C65.3,660.6,48.9,624.4,62,599.7z"/>
</g>
<g>
	<path class="st6" d="M747,481.1c6.6-3.4,10.9-0.5,18.2,4.6c7.3,5.1,48,34.9,48,34.9"/>
	<path class="st0" d="M813.2,520.7l-57.4-40.4c0,0-21.3,0.5-8.9,21.6l39.3,36.8c0,0,2.8,39.4,14.5,55.5"/>
</g>
</svg>
