<?xml version="1.0" encoding="utf-8"?>
<!-- Generator: Adobe Illustrator 24.3.0, SVG Export Plug-In . SVG Version: 6.00 Build 0)  -->
<svg version="1.1" id="Layer_1" xmlns="http://www.w3.org/2000/svg" xmlns:xlink="http://www.w3.org/1999/xlink" x="0px" y="0px"
	 viewBox="0 0 890 869" style="enable-background:new 0 0 890 869;" xml:space="preserve">
<style type="text/css">
	.st0{fill:#894818;stroke:#1F1F1F;stroke-width:4.5;stroke-linecap:round;stroke-linejoin:round;}
	.st1{filter:url(#Adobe_OpacityMaskFilter);}
	.st2{filter:url(#Adobe_OpacityMaskFilter_1_);}
	.st3{mask:url(#SVGID_2_);fill:url(#SVGID_3_);}
	.st4{display:none;fill:url(#SVGID_4_);}
	.st5{clip-path:url(#SVGID_5_);fill:url(#SVGID_6_);}
	.st6{filter:url(#Adobe_OpacityMaskFilter_2_);}
	.st7{filter:url(#Adobe_OpacityMaskFilter_3_);}
	.st8{clip-path:url(#SVGID_5_);mask:url(#SVGID_7_);fill:url(#SVGID_8_);}
	.st9{clip-path:url(#SVGID_5_);fill:url(#SVGID_9_);}
	.st10{clip-path:url(#SVGID_5_);fill:url(#SVGID_10_);}
	.st11{fill:none;stroke:#1F1F1F;stroke-width:4.5;stroke-linecap:round;stroke-linejoin:round;}
	.st12{fill:#1F1F1F;stroke:#1F1F1F;stroke-width:4.5;stroke-linecap:round;stroke-linejoin:round;}
	.st13{stroke:#1F1F1F;stroke-width:4.5;stroke-linecap:round;stroke-linejoin:round;}
	.st14{fill:#3C0E40;stroke:#3C2370;stroke-width:4.5;stroke-miterlimit:10;}
	.st15{fill:#F0592A;}
	.st16{fill:url(#SVGID_11_);}
	.st17{fill:url(#SVGID_12_);}
	.st18{fill:url(#SVGID_13_);}
	.st19{fill:url(#SVGID_14_);}
	.st20{fill:url(#SVGID_15_);}
	.st21{fill:url(#SVGID_16_);}
	.st22{fill:url(#SVGID_17_);}
	.st23{fill:url(#SVGID_18_);}
	.st24{fill:none;}
</style>
<g>
	<g>
		<path class="st0" d="M655.9,545.4c-8.4,0.5-10.2,5.1-9.1,10.1c0.9,4,8.9,7.5,15,8.4c7.3,1.1,13.5,3.7,21.8,8.2s10.5,9.2,17.9,10.6
			c8.2,1.5,15-11.3,6-19.4c-7.8-7.1-19-10.8-28.5-13C669.5,548,663.2,544.9,655.9,545.4L655.9,545.4z"/>
		<path class="st0" d="M684.4,531.7c-16.1-4.4-34.9-5.1-45.6-2.2c-9.2,2.5-9.9,12.1-5.4,15.8c3.7,3,14.9,3.2,20.3,2.5
			c9-1.2,32.9,7.4,41.8,14.1c8.9,6.7,20.3,2.5,20.6-7.4C716.4,544.6,706,537.6,684.4,531.7z"/>
		<path class="st0" d="M684.2,512.3c-14.3-4-31.1-4.6-40.6-2c-8.2,2.2-8.8,10.8-4.9,14.1c3.3,2.7,13.2,2.9,18.1,2.2
			c8-1.1,29.4,6.6,37.3,12.6c7.9,6,18.1,2.2,18.3-6.6C712.7,523.8,703.4,517.6,684.2,512.3L684.2,512.3z"/>
	</g>
	<path class="st0" d="M705.1,512.6c-19.2-12.6-39.3-23.3-48.6-24.1c-10.6-0.9-14.6,8.2-7.3,14.1c5.9,4.8,11,8.4,11,8.4
		c-5.7,3.1-6.2,12.4,0,17.9c13.6,12.1,35.4,33.3,35.4,33.3c-1.3,33.1,21.2,63.5,21.2,63.5s-1.3,19.9-14.6,49
		c-12.3,27.1-29.6,56.9-61.8,60c-38.7,3.7-56.5-25.6-77.3-53.4c-1.7-2.3-3.5-5.1-5.5-8.2c-20.7,1.5-43.7,10.5-75.5,31
		c-9.4,6.1-18.4,12.9-26.8,20.4l1.4,2.4c14.1,23.7,42.1,53.8,74,77.5c48.3,35.9,102.1,30.5,133.1,17.8c46.3-19,79.7-59.9,94-115.2
		C776.7,634.3,757.2,546.7,705.1,512.6L705.1,512.6z"/>
</g>
<defs>
	<filter id="Adobe_OpacityMaskFilter" filterUnits="userSpaceOnUse" x="500.9" y="276.2" width="300.2" height="326.6">
		<feColorMatrix  type="matrix" values="1 0 0 0 0  0 1 0 0 0  0 0 1 0 0  0 0 0 1 0"/>
	</filter>
</defs>
<mask maskUnits="userSpaceOnUse" x="500.9" y="276.2" width="300.2" height="326.6" id="SVGID_2_">
	<g class="st1">
		<defs>
			<filter id="Adobe_OpacityMaskFilter_1_" filterUnits="userSpaceOnUse" x="500.9" y="276.2" width="300.2" height="326.6">
				<feFlood  style="flood-color:white;flood-opacity:1" result="back"/>
				<feBlend  in="SourceGraphic" in2="back" mode="normal"/>
			</filter>
		</defs>
		<mask maskUnits="userSpaceOnUse" x="500.9" y="276.2" width="300.2" height="326.6" id="SVGID_2_">
			<g class="st2">
			</g>
		</mask>
		
			<radialGradient id="SVGID_3_" cx="-3318.4053" cy="-1319.5667" r="41.4832" gradientTransform="matrix(1.1375 -3.7987 -3.4334 -1.0281 -105.0175 -13522.834)" gradientUnits="userSpaceOnUse">
			<stop  offset="0.4879" style="stop-color:#4D4D4D"/>
			<stop  offset="0.6597" style="stop-color:#2E2E2E"/>
			<stop  offset="0.88" style="stop-color:#0D0D0D"/>
			<stop  offset="1" style="stop-color:#000000"/>
		</radialGradient>
		<path class="st3" d="M698.2,281.9c-78.7-23.6-163.6,27.9-189.6,114.9c-26.1,87,16.6,176.7,95.2,200.2
			c78.7,23.6,163.6-27.9,189.6-114.9S776.8,305.4,698.2,281.9z"/>
	</g>
</mask>
<radialGradient id="SVGID_4_" cx="-3318.4053" cy="-1319.5667" r="41.4832" gradientTransform="matrix(1.1375 -3.7987 -3.4334 -1.0281 -105.0175 -13522.834)" gradientUnits="userSpaceOnUse">
	<stop  offset="0.4879" style="stop-color:#729EB1"/>
	<stop  offset="0.5661" style="stop-color:#7DA4B4"/>
	<stop  offset="0.847" style="stop-color:#9EB8BF"/>
	<stop  offset="1" style="stop-color:#ABC0C3"/>
</radialGradient>
<path class="st4" d="M698.2,281.9c-78.7-23.6-163.6,27.9-189.6,114.9c-26.1,87,16.6,176.7,95.2,200.2
	c78.7,23.6,163.6-27.9,189.6-114.9S776.8,305.4,698.2,281.9z"/>
<g>
	<defs>
		<path id="SVGID_49_" d="M766.1,369.9c13.3-20.9,28.4-46.4,52.2-56.1c2.3-0.9,7.7-2.6,13.3-3.3c5.4-0.7,8.1-4.1,7.3-10.2
			c-0.5-4-4.2-6.6-7-7.5c-31.7-9.5-63.7,3.3-74.7,1c-11-2.2-2.7-19.3-14.9-22.1s-38.5,8.9-49.1,6.3c-10.7-2.6-6.3-19.7-19-22.3
			c-12.7-2.6-37.1,9.1-46.5,7.1c-9.4-2-3-18.7-12.3-20.9c-18.4-4.3-38.9,11.2-51.3,23.2c-13.9,13.5-24.6,30.1-33.5,47.2
			c-12.1,23.2-53.4,141.2-57.9,151.9c-5.9,13.8-21,28.4-35.6,37.3c-5.1,3.1-4.2,10.9,1.6,12.6c7.1,2.1,48.1-4,58.2-1
			c9.1,2.7,1.3,18.9,11.9,22.1c8.7,2.6,41.9-6.2,51-3.5c9.5,2.9,3.2,19.8,12.7,22.7c15.5,4.7,43.9-5.4,57.5-1.3
			c16.3,4.9-3.1,17.6,20.2,24.6c13.5,4.1,30.1-7.7,40.1-20.5c12.4-15.7,35.2-85.9,43.4-110.7C740.3,427.1,760.1,379.4,766.1,369.9z"
			/>
	</defs>
	<clipPath id="SVGID_5_">
		<use xlink:href="#SVGID_49_"  style="overflow:visible;"/>
	</clipPath>
	
		<linearGradient id="SVGID_6_" gradientUnits="userSpaceOnUse" x1="381.5289" y1="369.4884" x2="713.975" y2="405.7701" gradientTransform="matrix(0.9576 0.2882 -0.2882 0.9576 226.2646 -124.2721)">
		<stop  offset="9.845850e-03" style="stop-color:#B7DFED"/>
		<stop  offset="3.819821e-02" style="stop-color:#BCE1ED"/>
		<stop  offset="0.1829" style="stop-color:#D4E8EE"/>
		<stop  offset="0.2727" style="stop-color:#DDEBEE"/>
		<stop  offset="0.5129" style="stop-color:#D3E8EE"/>
		<stop  offset="0.9192" style="stop-color:#B8DFED"/>
		<stop  offset="0.939" style="stop-color:#B7DFED"/>
	</linearGradient>
	<path class="st5" d="M771.2,364.4c13.3-20.9,24.4-39.5,48.3-49.2c2.7-1.1,8.9-2.9,15.3-4.3c4.8-1,7.6-7.1,5.7-11.8
		c-1.3-3.3-6-6.4-8.1-7c-9.1-2.6-20.6-4-29.8-6.2c-22.3-5.2-115.5-27.1-139.8-32.8c-15.8-3.7-31.6-7.4-47.3-11.1
		c-18.4-4.3-38.9,11.2-51.3,23.2c-13.9,13.5-24.6,30.1-33.5,47.2c-12.1,23.2-53.4,141.2-57.9,151.9c-5.9,13.8-21.3,28.5-35.9,37.5
		c-5,3.1-4.1,10.6,1.5,12.3c51.4,15.5,199.5,60.1,211.9,63.8c17.1,5.1,27.8-2.9,38-15.7c18.5-23.2,40.6-87.1,47.9-114.8
		C741.5,427.2,765.2,373.9,771.2,364.4z"/>
	<defs>
		<filter id="Adobe_OpacityMaskFilter_2_" filterUnits="userSpaceOnUse" x="437.3" y="234.8" width="396.4" height="330.2">
			<feColorMatrix  type="matrix" values="1 0 0 0 0  0 1 0 0 0  0 0 1 0 0  0 0 0 1 0"/>
		</filter>
	</defs>
	<mask maskUnits="userSpaceOnUse" x="437.3" y="234.8" width="396.4" height="330.2" id="SVGID_7_">
		<g class="st6">
			<defs>
				<filter id="Adobe_OpacityMaskFilter_3_" filterUnits="userSpaceOnUse" x="437.3" y="234.8" width="396.4" height="331.8">
					<feFlood  style="flood-color:white;flood-opacity:1" result="back"/>
					<feBlend  in="SourceGraphic" in2="back" mode="normal"/>
				</filter>
			</defs>
			<mask maskUnits="userSpaceOnUse" x="437.3" y="234.8" width="396.4" height="331.8" id="SVGID_7_">
				<g class="st7">
				</g>
			</mask>
			
				<linearGradient id="SVGID_8_" gradientUnits="userSpaceOnUse" x1="541.3033" y1="223.9361" x2="541.3033" y2="538.0125" gradientTransform="matrix(0.9576 0.2882 -0.2882 0.9576 226.2646 -124.2721)">
				<stop  offset="0" style="stop-color:#FFFFFF"/>
				<stop  offset="0.1209" style="stop-color:#FFFFFF"/>
				<stop  offset="0.2052" style="stop-color:#B7B7B7"/>
				<stop  offset="0.2896" style="stop-color:#777777"/>
				<stop  offset="0.3663" style="stop-color:#434343"/>
				<stop  offset="0.4328" style="stop-color:#1F1F1F"/>
				<stop  offset="0.4864" style="stop-color:#080808"/>
				<stop  offset="0.5206" style="stop-color:#000000"/>
				<stop  offset="0.5712" style="stop-color:#0E0E0E"/>
				<stop  offset="0.6666" style="stop-color:#323232"/>
				<stop  offset="0.7956" style="stop-color:#6D6D6D"/>
				<stop  offset="0.835" style="stop-color:#808080"/>
				<stop  offset="0.8639" style="stop-color:#848484"/>
				<stop  offset="0.8906" style="stop-color:#8F8F8F"/>
				<stop  offset="0.9165" style="stop-color:#A2A2A2"/>
				<stop  offset="0.9419" style="stop-color:#BCBCBC"/>
				<stop  offset="0.9666" style="stop-color:#DEDEDE"/>
				<stop  offset="0.9868" style="stop-color:#FFFFFF"/>
			</linearGradient>
			<path class="st8" d="M764.2,349.4c13.3-20.9,28.1-40.3,52-50c4.8-2,13.2-3.7,17.5-6c-14.8-9.3-215.7-55.4-224.9-57.6
				c-18.4-4.3-28.8,5.6-41.1,17.6c-13.9,13.5-24.6,30.1-33.5,47.2c-12.1,23.2-53.4,141.2-57.9,151.9c-5.9,13.8-21,28.4-35.6,37.3
				c-5.1,3.1-4.2,10.9,1.6,12.6c7.1,2.1,48.1-4,58.2-1c9.1,2.7,1.3,18.9,11.9,22.1c8.7,2.6,41.9-6.2,51-3.5
				c9.5,2.9,3.2,19.8,12.7,22.7c15.5,4.7,43.9-5.4,57.5-1.3c16.3,4.9,2.4,20.6,20.2,24.6c8.9,2,17.3-3.6,27.4-16.4
				c12.4-15.7,37.6-100.8,44.5-120.5C732.8,409.5,758.2,358.8,764.2,349.4z"/>
		</g>
	</mask>
	
		<linearGradient id="SVGID_9_" gradientUnits="userSpaceOnUse" x1="541.3033" y1="223.9361" x2="541.3033" y2="537.9534" gradientTransform="matrix(0.9576 0.2882 -0.2882 0.9576 226.2646 -124.2721)">
		<stop  offset="0" style="stop-color:#B7DFED"/>
		<stop  offset="4.740422e-03" style="stop-color:#BAE0EE"/>
		<stop  offset="5.229567e-02" style="stop-color:#D9EDF5"/>
		<stop  offset="9.268843e-02" style="stop-color:#ECF5F9"/>
		<stop  offset="0.1209" style="stop-color:#F3F8FB"/>
		<stop  offset="0.2738" style="stop-color:#D6ECF4"/>
		<stop  offset="0.4246" style="stop-color:#BFE2EF"/>
		<stop  offset="0.5206" style="stop-color:#B7DFED"/>
		<stop  offset="0.7134" style="stop-color:#A9D3E1"/>
		<stop  offset="0.835" style="stop-color:#9EC9D8"/>
		<stop  offset="0.8801" style="stop-color:#A2CCDB"/>
		<stop  offset="0.9218" style="stop-color:#ADD3E4"/>
		<stop  offset="0.9621" style="stop-color:#C0E0F2"/>
		<stop  offset="0.9868" style="stop-color:#CFEBFE"/>
	</linearGradient>
	<path class="st9" d="M764.2,349.4c13.3-20.9,28.1-40.3,52-50c4.8-2,13.2-3.7,17.5-6c-14.8-9.3-215.7-55.4-224.9-57.6
		c-18.4-4.3-28.8,5.6-41.1,17.6c-13.9,13.5-24.6,30.1-33.5,47.2c-12.1,23.2-53.4,141.2-57.9,151.9c-5.9,13.8-21,28.4-35.6,37.3
		c-5.1,3.1-4.2,10.9,1.6,12.6c7.1,2.1,48.1-4,58.2-1c9.1,2.7,1.3,18.9,11.9,22.1c8.7,2.6,41.9-6.2,51-3.5
		c9.5,2.9,3.2,19.8,12.7,22.7c15.5,4.7,43.9-5.4,57.5-1.3c16.3,4.9,6.4,24.2,20.1,23.4c9.6-0.6,17.4-2.3,27.5-15.1
		c12.4-15.7,37.6-100.8,44.5-120.5C732.8,409.5,758.2,358.8,764.2,349.4z"/>
	
		<linearGradient id="SVGID_10_" gradientUnits="userSpaceOnUse" x1="762.1968" y1="241.4823" x2="541.872" y2="544.8669" gradientTransform="matrix(0.9576 0.2882 -0.2882 0.9576 226.2646 -124.2721)">
		<stop  offset="5.000000e-08" style="stop-color:#729EB1"/>
		<stop  offset="5.118798e-02" style="stop-color:#99BED1"/>
		<stop  offset="9.941415e-02" style="stop-color:#B7D7EA"/>
		<stop  offset="0.1409" style="stop-color:#C9E6F9"/>
		<stop  offset="0.1707" style="stop-color:#CFEBFE"/>
		<stop  offset="0.3822" style="stop-color:#B8D8E9"/>
		<stop  offset="0.7274" style="stop-color:#8AB3C1"/>
		<stop  offset="0.7655" style="stop-color:#90B8C6"/>
		<stop  offset="0.8142" style="stop-color:#9FC4D4"/>
		<stop  offset="0.8684" style="stop-color:#B9DAEB"/>
		<stop  offset="0.9046" style="stop-color:#CFEBFE"/>
	</linearGradient>
	<path class="st10" d="M839.5,300.5c-0.5-4.7-4.3-9-9.3-8.4c-8.9,1.1-17.7,4.7-26.2,10.3c-19.2,12.5-34.1,32.1-46,51.4
		c-10.6,17.1-19.3,35.7-26.8,54.3c-5.5,13.6-10.4,27.5-15.2,41.5c-6.7,19.6-13,39.3-19.9,58.8c-4.5,12.6-9.4,25.2-16.7,36.4
		c-3.5,5.4-8,12.2-13.4,15.7c-5.4,3.6-12.6,3-15.8,6.7c-2.5,2.9-2.6,8.6,2.2,10.4c10.8,4.2,23.2-2.3,31.1-9.6
		c8.2-7.7,13.8-17.7,18.5-27.8c1.2-2.6,2.4-5.3,3.5-7.9c10.7-24.9,18.2-51.2,27-76.8c4.6-13.6,9.4-27.1,14.8-40.5
		c7-17.3,14.9-34.4,24.2-50.5c9.6-16.5,21.9-34.1,38.1-44.8c7.2-4.7,14.8-7.8,22.9-8.9C837.6,310.2,840,305.2,839.5,300.5z"/>
</g>
<g>
	<g>
		<path class="st11" d="M659.8,509.6c6-3.1,9.9-0.4,16.6,4.2c6.6,4.6,43.7,31.8,43.7,31.8"/>
		<path class="st0" d="M720.1,545.5l-52.2-36.8c0,0-19.3,0.4-8.1,19.7l35.8,33.5c0,0,2.5,35.8,13.2,50.5"/>
	</g>
	<g>
		<path class="st12" d="M601.5,666.4c-1.2-7.6-6.4-9.2-16.1-9.7c-23.6-1.1-48.7,7.1-86.1,31.1c-32.4,20.9-58.9,50.8-58.9,64.7
			s10,20.2,26.2,21.2c0,0,35.6,1.6,83.1-31.5C578.6,722,603.4,690.7,601.5,666.4L601.5,666.4z"/>
		<path class="st12" d="M165,660.5c-13.7-9.1-41.1-23.2-64.2-32.4c-20.8-8.3-62.9-17.9-67.9,0.6c-3.1,21.3,12,47.8,40.7,66.9
			c34.9,23.3,63.9,30.4,70.2,31.8L165,660.5z"/>
		<g>
			<path class="st13" d="M296.6,343.4c5,24.2-3.2,46.3-23.6,56.3c-18.9,9.3-36.8-2.3-46-15.5c-4.7-6.8-15.2-21.4-11.4-44.7
				c3.6-22,22.2-39.9,46.2-34.7C279.6,308.6,292.2,322.2,296.6,343.4L296.6,343.4z"/>
			<path class="st0" d="M436.6,367.6c-3.6-4-2.7-7.9-0.8-18.2c2-10.3,2.7-34.3-6.2-51.8c-8.9-17.5-28.5-32.4-48-36.7
				c-19.5-4.3-39.1-2.3-54.6,8.9c-16.5,11.9-27.1,26.6-29.5,48.7c-2.3,21.2,0.3,32.5,6.3,51.3s8.6,29.8,2.3,45.4
				c-6.3,15.6-22.5,31.4-37.4,41.7c-7.4-3.3-14.9-6.2-22.7-8.6c2.1,20.1,21.6,54,66.4,58.6c34.2,3.5,71.4-19.6,91.9-36.3
				c-9.7,1.1-26.1,3.4-26.1,3.4s-8.3-8.8-9.5-30.7c-1-18.9,3.9-23.9,3.9-23.9s5.3,1.7,16.9,1.7c11.6,0,24.9,5.8,30.2-4.4
				c5.3-10.3,9.9-31.7,9.9-31.7c2.5-0.2,4.9-0.6,7.3-1.3c5.3-1.6,7.3-5.3,3.7-9.3L436.6,367.6z M158,680.7l6.1-19.2
				c-13.7-9.1-41.1-23.2-64.2-32.4c-7-2.7-14.1-5-21.4-6.7c-16.5,33-43.6,95.1-34.9,132.5c9.3,39.7,38.2,60.6,69.2,69.2L158,680.7
				L158,680.7z"/>
			<path class="st13" d="M433.3,319.1c-0.1-7.7-2-15.2-5.4-22.1c-8.9-17.5-28.5-32.4-48-36.7c-19.5-4.3-39.1-2.3-54.6,8.9
				c-16.5,11.9-27.1,26.6-29.5,48.7c-2.3,21.2,0.3,32.5,6.3,51.3c3.2,10,5.4,17.7,5.8,25.1c12.3,4.2,31.5,2.7,41.8-6.9
				c7.6-7.2,11-25.7,7.9-40.1c-2.9-14,3-27.5,12.9-30.5c12.5-3.7,18.2,7.8,20.4,14.5c2.2,6.6,8.4,9.3,19.4,6.2
				C419.7,334.9,428.2,326.6,433.3,319.1z"/>
			<ellipse cx="417.2" cy="351.8" rx="5.7" ry="7.7"/>
			<path class="st0" d="M374.3,338.3c-3.2,6.4-1.2,13.3,3.3,15.8c4.1,2.3,9,0.1,9.6-0.2"/>
			<path class="st0" d="M425.2,400.1c-6-3.1-11.3-3-13-0.7c-0.3,0.5-2.2,2.1-1.9,3.9"/>
		</g>
		<path class="st14" d="M36.5,617.4c23.5-44.5,80.8-129.8,119.2-157.6s78.1-19.9,113.9-4s59.6,25.2,59.6,25.2s70.2-13.2,115.2-14.6
			s67.5,15.9,96.7,74.2c29.1,58.3,47.7,91.4,58.3,116.5c10.6,25.2-16.9,62.2-49.7,85.1c-47.5,33.1-83.1,31.5-83.1,31.5l6.9,88.7
			H101.4l42.4-135c0,0-30.5-5.3-70.2-31.8C39.6,672.9,24.7,639.9,36.5,617.4z"/>
	</g>
</g>
<g>
	
	<g>
		<g>
			<path class="st15" d="M664.8,481.1L664.8,481.1c-9.7,5.5-21.9,2.1-27.3-7.5l-68.9-121.5c-5.5-9.6-2.1-21.8,7.5-27.3l0.1,0
				c9.6-5.5,21.8-2.1,27.3,7.5l68.9,121.5C677.8,463.4,674.5,475.6,664.8,481.1z"/>
			
				<linearGradient id="SVGID_11_" gradientUnits="userSpaceOnUse" x1="-318.2416" y1="-473.6148" x2="-261.0988" y2="-385.0434" gradientTransform="matrix(0.2659 -0.964 0.964 0.2659 1089.8976 244.6414)">
				<stop  offset="0.3604" style="stop-color:#F0592A;stop-opacity:0"/>
				<stop  offset="0.3909" style="stop-color:#F66B36;stop-opacity:6.110073e-02"/>
				<stop  offset="0.4233" style="stop-color:#FA763D;stop-opacity:0.1261"/>
				<stop  offset="0.4602" style="stop-color:#FB793F;stop-opacity:0.2"/>
				<stop  offset="0.8241" style="stop-color:#FFC39D"/>
			</linearGradient>
			<path class="st16" d="M664.7,481L664.7,481c-9.6,5.5-21.8,2.1-27.3-7.5l-68.8-121.2c-5.5-9.6-2.1-21.8,7.5-27.3h0
				c9.6-5.5,21.8-2.1,27.3,7.5l68.8,121.2C677.7,463.3,674.3,475.5,664.7,481z"/>
			
				<linearGradient id="SVGID_12_" gradientUnits="userSpaceOnUse" x1="-254.8965" y1="-389.5808" x2="-268.6108" y2="-402.1522" gradientTransform="matrix(0.2659 -0.964 0.964 0.2659 1089.8976 244.6414)">
				<stop  offset="0" style="stop-color:#D35B36"/>
				<stop  offset="0.3562" style="stop-color:#FB824C"/>
				<stop  offset="0.5045" style="stop-color:#FD9867;stop-opacity:0.7696"/>
				<stop  offset="0.7043" style="stop-color:#FEAF85;stop-opacity:0.4593"/>
				<stop  offset="0.8765" style="stop-color:#FFBE97;stop-opacity:0.1919"/>
				<stop  offset="1" style="stop-color:#FFC39D;stop-opacity:0"/>
			</linearGradient>
			<path class="st17" d="M664.8,481.1L664.8,481.1c-9.6,5.5-21.8,2.1-27.3-7.5l-68.8-121.2c-5.5-9.6-2.1-21.8,7.5-27.3v0
				c9.6-5.5,21.8-2.1,27.3,7.5l68.8,121.2C677.8,463.4,674.4,475.6,664.8,481.1z"/>
			
				<linearGradient id="SVGID_13_" gradientUnits="userSpaceOnUse" x1="-310.4153" y1="-507.0551" x2="-273.8438" y2="-399.6266" gradientTransform="matrix(0.2659 -0.964 0.964 0.2659 1089.8976 244.6414)">
				<stop  offset="0.3604" style="stop-color:#F0592A"/>
				<stop  offset="0.3909" style="stop-color:#F66B36"/>
				<stop  offset="0.4233" style="stop-color:#FA763D"/>
				<stop  offset="0.4602" style="stop-color:#FB793F"/>
				<stop  offset="0.8241" style="stop-color:#FFC39D;stop-opacity:0"/>
			</linearGradient>
			<path class="st18" d="M664.6,481L664.6,481c9.6-5.5,13-17.7,7.5-27.3l-68.8-121.2c-5.5-9.6-17.7-13-27.3-7.5v0
				c-9.6,5.5-13,17.7-7.5,27.3l68.8,121.2C642.8,483.1,655,486.5,664.6,481z"/>
			
				<linearGradient id="SVGID_14_" gradientUnits="userSpaceOnUse" x1="744.9732" y1="610.4387" x2="731.259" y2="597.8672" gradientTransform="matrix(-0.964 -0.2659 -0.2659 0.964 1473.6238 26.8591)">
				<stop  offset="0" style="stop-color:#D35B36"/>
				<stop  offset="0.3562" style="stop-color:#FB824C"/>
				<stop  offset="0.5045" style="stop-color:#FD9867;stop-opacity:0.7696"/>
				<stop  offset="0.7043" style="stop-color:#FEAF85;stop-opacity:0.4593"/>
				<stop  offset="0.8765" style="stop-color:#FFBE97;stop-opacity:0.1919"/>
				<stop  offset="1" style="stop-color:#FFC39D;stop-opacity:0"/>
			</linearGradient>
			<path class="st19" d="M664.8,481.2L664.8,481.2c9.6-5.5,13-17.7,7.5-27.3l-68.8-121.2c-5.5-9.6-17.7-13-27.3-7.5l0,0
				c-9.6,5.5-13,17.7-7.5,27.3l68.8,121.2C642.9,483.3,655.1,486.7,664.8,481.2z"/>
		</g>
	</g>
</g>
<g>
	<path class="st15" d="M698.6,358.6L698.6,358.6c5.5,9.7,2.1,21.9-7.5,27.3l-121.5,68.9c-9.6,5.5-21.8,2.1-27.3-7.5l0-0.1
		c-5.5-9.6-2.1-21.8,7.5-27.3l121.5-68.9C680.9,345.7,693.1,349,698.6,358.6z"/>
	
		<linearGradient id="SVGID_15_" gradientUnits="userSpaceOnUse" x1="-1151.0298" y1="466.0328" x2="-1093.8868" y2="554.6042" gradientTransform="matrix(-0.964 -0.2659 0.2659 -0.964 -590.5784 617.9064)">
		<stop  offset="0.3604" style="stop-color:#F0592A;stop-opacity:0"/>
		<stop  offset="0.3909" style="stop-color:#F66B36;stop-opacity:6.110073e-02"/>
		<stop  offset="0.4233" style="stop-color:#FA763D;stop-opacity:0.1261"/>
		<stop  offset="0.4602" style="stop-color:#FB793F;stop-opacity:0.2"/>
		<stop  offset="0.8241" style="stop-color:#FFC39D"/>
	</linearGradient>
	<path class="st20" d="M698.4,358.7L698.4,358.7c5.5,9.6,2.1,21.8-7.5,27.3l-121.2,68.8c-9.6,5.5-21.8,2.1-27.3-7.5v0
		c-5.5-9.6-2.1-21.8,7.5-27.3l121.2-68.8C680.8,345.8,693,349.1,698.4,358.7z"/>
	
		<linearGradient id="SVGID_16_" gradientUnits="userSpaceOnUse" x1="-1087.6846" y1="550.0668" x2="-1101.3989" y2="537.4954" gradientTransform="matrix(-0.964 -0.2659 0.2659 -0.964 -590.5784 617.9064)">
		<stop  offset="0" style="stop-color:#D35B36"/>
		<stop  offset="0.3562" style="stop-color:#FB824C"/>
		<stop  offset="0.5045" style="stop-color:#FD9867;stop-opacity:0.7696"/>
		<stop  offset="0.7043" style="stop-color:#FEAF85;stop-opacity:0.4593"/>
		<stop  offset="0.8765" style="stop-color:#FFBE97;stop-opacity:0.1919"/>
		<stop  offset="1" style="stop-color:#FFC39D;stop-opacity:0"/>
	</linearGradient>
	<path class="st21" d="M698.5,358.7L698.5,358.7c5.5,9.6,2.1,21.8-7.5,27.3l-121.2,68.8c-9.6,5.5-21.8,2.1-27.3-7.5l0,0
		c-5.5-9.6-2.1-21.8,7.5-27.3l121.2-68.8C680.9,345.7,693.1,349.1,698.5,358.7z"/>
	
		<linearGradient id="SVGID_17_" gradientUnits="userSpaceOnUse" x1="-1143.2034" y1="432.5925" x2="-1106.632" y2="540.0211" gradientTransform="matrix(-0.964 -0.2659 0.2659 -0.964 -590.5784 617.9064)">
		<stop  offset="0.3604" style="stop-color:#F0592A"/>
		<stop  offset="0.3909" style="stop-color:#F66B36"/>
		<stop  offset="0.4233" style="stop-color:#FA763D"/>
		<stop  offset="0.4602" style="stop-color:#FB793F"/>
		<stop  offset="0.8241" style="stop-color:#FFC39D;stop-opacity:0"/>
	</linearGradient>
	<path class="st22" d="M698.5,358.8L698.5,358.8c-5.5-9.6-17.7-13-27.3-7.5L550,420.1c-9.6,5.5-13,17.7-7.5,27.3v0
		c5.5,9.6,17.7,13,27.3,7.5L691,386.1C700.6,380.6,703.9,368.4,698.5,358.8z"/>
	
		<linearGradient id="SVGID_18_" gradientUnits="userSpaceOnUse" x1="-194.6744" y1="1443.2268" x2="-208.3887" y2="1430.6554" gradientTransform="matrix(-0.2659 0.964 0.964 0.2659 -808.3607 234.1802)">
		<stop  offset="0" style="stop-color:#D35B36"/>
		<stop  offset="0.3562" style="stop-color:#FB824C"/>
		<stop  offset="0.5045" style="stop-color:#FD9867;stop-opacity:0.7696"/>
		<stop  offset="0.7043" style="stop-color:#FEAF85;stop-opacity:0.4593"/>
		<stop  offset="0.8765" style="stop-color:#FFBE97;stop-opacity:0.1919"/>
		<stop  offset="1" style="stop-color:#FFC39D;stop-opacity:0"/>
	</linearGradient>
	<path class="st23" d="M698.7,358.7L698.7,358.7c-5.5-9.6-17.7-13-27.3-7.5L550.2,420c-9.6,5.5-13,17.7-7.5,27.3l0,0
		c5.5,9.6,17.7,13,27.3,7.5L691.2,386C700.8,380.5,704.1,368.3,698.7,358.7z"/>
</g>
<polyline class="st24" points="-71,220.1 -71.8,216.6 -82,170.2 -84.7,157.9 "/>
</svg>
