<?xml version="1.0" encoding="utf-8"?>
<!-- Generator: Adobe Illustrator 24.3.0, SVG Export Plug-In . SVG Version: 6.00 Build 0)  -->
<svg version="1.1" id="Layer_1" xmlns="http://www.w3.org/2000/svg" xmlns:xlink="http://www.w3.org/1999/xlink" x="0px" y="0px"
	 viewBox="0 0 890 869" style="enable-background:new 0 0 890 869;" xml:space="preserve">
<style type="text/css">
	.st0{fill:#3C0E40;stroke:#3C2370;stroke-width:4.5;stroke-miterlimit:10;}
	.st1{fill:#1F1F1F;stroke:#1F1F1F;stroke-width:4.5;stroke-linecap:round;stroke-linejoin:round;}
	.st2{stroke:#1F1F1F;stroke-width:4.5;stroke-linecap:round;stroke-linejoin:round;}
	.st3{fill:#8C4819;stroke:#1F1F1F;stroke-width:4.5;stroke-linecap:round;stroke-linejoin:round;}
	.st4{fill:#FF6666;}
	.st5{fill:#FFFFFF;stroke:#FF6666;stroke-width:0.75;stroke-linecap:round;stroke-linejoin:round;}
	.st6{fill:#FFFFFF;stroke:#828282;stroke-linecap:round;stroke-linejoin:round;}
	.st7{fill:#5E5E5E;}
	.st8{fill:none;stroke:#1F1F1F;stroke-width:4.5;stroke-linecap:round;stroke-linejoin:round;}
</style>
<g>
	<path class="st0" d="M819.6,694.5c-41.6,27.7-73.4,33.2-73.4,33.2L790.5,869H401.2l7.3-92.8c0,0-37.3,1.7-86.9-32.9
		c-34.3-23.9-63.1-62.7-52-89s30.5-61,61-121.9c30.5-61,54-79,101.2-77.6S552.2,470,552.2,470s24.9-9.7,62.4-26.3
		c37.4-16.6,79-24.9,119.2,4.2c40.2,29.1,100.1,118.3,124.7,164.9C870.8,636.2,855.2,670.7,819.6,694.5z"/>
	<path class="st1" d="M267.2,663.9c-2,25.5,24,58.2,54.2,79.3c49.7,34.6,86.9,32.9,86.9,32.9c17-1,27.4-7.6,27.4-22.2
		s-27.8-45.8-61.7-67.7c-39.1-25.2-65.4-33.7-90.1-32.6C273.9,654.2,268.5,656,267.2,663.9L267.2,663.9z"/>
	<path class="st1" d="M746.1,727.7c6.5-1.4,36.9-8.9,73.4-33.2c30-20,45.9-47.7,42.6-70c-5.2-19.4-49.3-9.4-71-0.7
		c-24.2,9.7-52.8,24.5-67.2,34L746.1,727.7z"/>
	<g>
		<path class="st2" d="M586.3,325.9c4.6-22.1,17.7-36.4,36.3-40.4c25.1-5.4,44.6,13.3,48.4,36.4c4,24.3-6.9,39.6-11.9,46.8
			c-9.6,13.8-28.4,25.9-48.1,16.2C589.7,374.4,581.1,351.2,586.3,325.9L586.3,325.9z"/>
		<path class="st3" d="M435.7,358.3c-3.8,4.2-1.7,8,3.9,9.7c2.5,0.7,5,1.2,7.6,1.4c0,0,4.9,22.4,10.4,33.1
			c5.5,10.7,19.4,4.6,31.6,4.6s17.7-1.7,17.7-1.7s5.1,5.3,4.1,25.1c-1.2,22.9-9.9,32.1-9.9,32.1s-17.1-2.4-27.3-3.6
			c21.4,17.5,60.3,41.7,96.1,38c46.8-4.8,67.2-40.3,69.5-61.3c-8.1,2.5-16,5.5-23.7,9c-15.6-10.7-32.6-27.4-39.1-43.6
			c-6.6-16.3-3.8-27.8,2.4-47.5s9-31.5,6.6-53.7c-2.5-23-13.6-38.5-30.8-50.9c-16.3-11.8-36.7-13.9-57.1-9.4s-40.9,20.1-50.2,38.4
			s-8.6,43.5-6.5,54.2s3,14.8-0.8,19L435.7,358.3z M731.3,678.9l47.3,150c32.4-8.9,62.7-30.8,72.4-72.4
			c9.1-39.1-19.3-104.1-36.5-138.6c-7.6,1.8-15.1,4.1-22.4,7c-24.2,9.7-52.8,24.5-67.2,34L731.3,678.9L731.3,678.9z"/>
		<path class="st2" d="M467.1,319.8c11.5,3.2,18,0.5,20.3-6.5c2.3-6.9,8.3-19.1,21.4-15.1c10.4,3.1,16.6,17.2,13.5,31.9
			c-3.2,15.1,0.3,34.4,8.3,41.9c10.8,10.1,30.9,11.6,43.8,7.3c0.5-7.7,2.8-15.9,6.1-26.3c6.2-19.7,9-31.5,6.6-53.7
			c-2.5-23-13.6-38.5-30.8-50.9c-16.3-11.8-36.7-13.9-57.1-9.4c-20.4,4.5-40.9,20.1-50.2,38.5c-3.6,7.2-5.5,15.1-5.7,23.1
			C448.6,308.4,457.5,317.1,467.1,319.8z"/>
		<ellipse cx="460.1" cy="334.8" rx="6" ry="8"/>
		<path class="st3" d="M504.9,320.6c3.3,6.7,1.2,13.9-3.4,16.5c-4.3,2.4-9.5,0.1-10.1-0.2"/>
		<path class="st3" d="M466.1,384.9c-6.3,3.2-11.8,3.2-13.6,0.7c-0.4-0.5-2.3-2.2-2-4.1"/>
	</g>
	<g>
		<path class="st3" d="M210.4,537.3c-7.6-0.5-14.3,2.8-24.2,5.1s-21.6,6.2-29.8,13.6c-9.5,8.5-2.3,21.9,6.2,20.3
			c7.7-1.5,9.9-6.5,18.7-11.1c8.8-4.6,15.2-7.4,22.9-8.5c6.4-1,14.8-4.6,15.7-8.8C221,542.6,219.2,537.8,210.4,537.3L210.4,537.3z"
			/>
		<path class="st3" d="M147.3,546.8c0.3,10.4,12.2,14.8,21.5,7.8s34.4-16,43.8-14.8c5.7,0.8,17.4,0.6,21.3-2.6
			c4.7-3.9,3.9-14-5.7-16.6c-11.2-3-30.8-2.3-47.7,2.3C157.9,529.2,147.1,536.5,147.3,546.8z"/>
		<path class="st3" d="M180.7,502.7c-20.1,5.6-29.8,12-29.5,21.2s10.9,13.2,19.2,6.9s30.7-14.3,39-13.2c5.1,0.7,15.5,0.5,18.9-2.3
			c4.1-3.5,3.5-12.5-5.1-14.8C213.2,497.9,195.7,498.6,180.7,502.7L180.7,502.7z"/>
		<path class="st3" d="M158.8,503c-54.5,35.8-74.9,127.4-55.3,203.5c15,57.8,49.9,100.7,98.4,120.5c32.4,13.3,88.7,18.9,139.2-18.7
			c33.3-24.8,62.6-56.3,77.4-81.1l1.5-2.5c-8.8-7.8-18.1-14.9-28-21.3c-33.3-21.5-57.3-30.8-79-32.4c-2,3.3-3.9,6.2-5.7,8.6
			c-21.7,29.1-40.3,59.8-80.8,55.9c-33.7-3.2-51.8-34.5-64.7-62.8c-13.9-30.5-15.2-51.3-15.2-51.3s23.5-31.8,22.2-66.5
			c0,0,22.8-22.2,37-34.8c6.5-5.8,6-15.5,0-18.8c0,0,5.4-3.8,11.5-8.8c7.6-6.2,3.5-15.7-7.6-14.8C199.9,478.6,179,489.8,158.8,503
			L158.8,503z"/>
		<g>
			<path class="st4" d="M201.4,343.7l35,234.4c2.1,14-7.6,27-21.5,29.1h0c-14,2.1-27-7.6-29.1-21.5l-35-234.4
				c-2.1-14,7.6-27,21.5-29.1h0C186.3,320,199.3,329.7,201.4,343.7z"/>
			<path class="st5" d="M198.2,348.6l35,234.4c2.1,14-7.6,27-21.5,29.1h0c-14,2.1-27-7.6-29.1-21.5l-35-234.4
				c-2.1-14,7.6-27,21.5-29.1h0C183.1,324.9,196.1,334.6,198.2,348.6z"/>
			<g>
				<circle class="st6" cx="172.4" cy="363" r="13.4"/>
				<line class="st6" x1="183.5" y1="355.5" x2="188.4" y2="351.6"/>
			</g>
			<g>
				<g>
					<path class="st7" d="M216.1,575.6c0.2,1.3,0.2,2.5-0.1,3.7c-0.2,1.2-0.6,2.2-1.2,2.9l-1.5-0.5c0.5-0.7,0.9-1.6,1.1-2.6
						c0.2-1.1,0.3-2.2,0.1-3.3c-0.2-1.1-0.4-1.9-0.8-2.5c-0.4-0.6-0.8-1.1-1.3-1.3c-0.5-0.2-1-0.3-1.6-0.2c-0.7,0.1-1.2,0.4-1.5,0.8
						c-0.3,0.4-0.6,1-0.7,1.6c-0.1,0.6-0.2,1.4-0.3,2.1c-0.1,0.8-0.1,1.5-0.2,2.3c-0.1,0.8-0.3,1.5-0.5,2.2
						c-0.2,0.7-0.6,1.2-1.1,1.7c-0.5,0.5-1.2,0.8-2.1,0.9c-0.8,0.1-1.6,0-2.4-0.3c-0.8-0.3-1.4-0.9-2-1.8c-0.6-0.9-1-2-1.2-3.4
						c-0.1-1-0.1-1.9,0-2.9c0.1-1,0.4-1.8,0.7-2.6l1.5,0.4c-0.4,0.8-0.6,1.6-0.7,2.5c-0.1,0.8-0.1,1.7,0,2.4c0.2,1,0.4,1.8,0.8,2.5
						c0.4,0.6,0.8,1.1,1.3,1.3c0.5,0.2,1,0.3,1.6,0.2c0.7-0.1,1.2-0.4,1.5-0.8c0.3-0.4,0.6-1,0.7-1.6c0.1-0.7,0.2-1.4,0.3-2.1
						c0.1-0.8,0.2-1.5,0.2-2.3c0.1-0.8,0.3-1.5,0.5-2.1c0.2-0.7,0.6-1.2,1.1-1.7c0.5-0.5,1.2-0.8,2.1-0.9c0.8-0.1,1.6,0,2.4,0.3
						s1.4,1,2,1.8C215.5,573,215.9,574.1,216.1,575.6z"/>
					<path class="st7" d="M213.8,560.4c0.2,1.3,0.1,2.5-0.3,3.6c-0.4,1.1-1.1,2-1.9,2.7c-0.9,0.7-2,1.2-3.2,1.3
						c-1.3,0.2-2.4,0.1-3.5-0.3c-1-0.4-1.9-1-2.6-1.9c-0.7-0.9-1.1-1.9-1.3-3.1c-0.2-1.2-0.1-2.3,0.3-3.3c0.4-1,1-1.8,1.9-2.5
						c0.9-0.7,2-1.1,3.3-1.3c0.1,0,0.2,0,0.3,0c0.1,0,0.2,0,0.3,0l1.6,11l-1.3,0.2l-1.5-10.1l0.6,0.6c-0.9,0.1-1.7,0.5-2.4,1
						s-1.1,1.1-1.4,1.9s-0.4,1.5-0.3,2.4c0.1,0.9,0.4,1.6,1,2.3c0.5,0.6,1.1,1.1,1.9,1.4c0.8,0.3,1.6,0.3,2.6,0.2l0.3,0
						c1-0.1,1.8-0.5,2.5-1s1.2-1.2,1.4-2c0.3-0.8,0.4-1.7,0.2-2.7c-0.1-0.8-0.4-1.5-0.7-2.1c-0.4-0.6-0.9-1.1-1.5-1.5l1-1.1
						c0.8,0.5,1.4,1.1,1.9,1.9C213.3,558.4,213.7,559.3,213.8,560.4z"/>
					<path class="st7" d="M211.1,543.2l-2.8,0.4l-0.4,0.1l-4.7,0.7c-1.1,0.2-1.9,0.6-2.4,1.3c-0.5,0.7-0.6,1.6-0.5,2.8
						c0.1,0.8,0.4,1.6,0.8,2.3c0.4,0.7,0.8,1.3,1.4,1.7l-1.2,1c-0.6-0.6-1.2-1.3-1.6-2.1c-0.4-0.9-0.7-1.8-0.9-2.8
						c-0.2-1.6,0-3,0.7-4c0.7-1,1.9-1.6,3.5-1.9l7.9-1.2L211.1,543.2z M211.9,547.6c0.1,1,0.1,1.8-0.1,2.5c-0.2,0.7-0.6,1.3-1.1,1.8
						c-0.5,0.5-1.1,0.7-1.8,0.8c-0.7,0.1-1.3,0-1.9-0.2c-0.6-0.2-1.1-0.7-1.5-1.4c-0.4-0.7-0.7-1.6-0.9-2.8l-0.7-4.4l1.3-0.2
						l0.6,4.3c0.2,1.2,0.5,2,1,2.5c0.5,0.4,1.1,0.6,1.7,0.5c0.7-0.1,1.3-0.5,1.6-1.1c0.4-0.6,0.5-1.5,0.3-2.5c-0.1-1-0.5-1.8-1-2.4
						c-0.5-0.6-1.3-1.1-2.2-1.2l1.1-0.6c0.9,0.2,1.6,0.7,2.3,1.4S211.7,546.4,211.9,547.6z"/>
					<path class="st7" d="M210.2,536.9l-12.7,1.9l-0.2-1.6l3.5-0.5l-0.6,0.3c-1-0.2-1.8-0.7-2.5-1.5c-0.6-0.8-1-1.8-1.2-3l1.7-0.2
						c0,0.1,0,0.1,0,0.2c0,0.1,0,0.1,0,0.2c0.2,1.3,0.8,2.3,1.7,3c0.9,0.6,2.1,0.8,3.6,0.6l6.5-1L210.2,536.9z"/>
					<path class="st7" d="M208.1,521.9c0.2,1.3,0.1,2.4-0.3,3.5c-0.4,1.1-1.1,2-1.9,2.7c-0.9,0.7-2,1.2-3.2,1.3
						c-1.3,0.2-2.4,0.1-3.5-0.3c-1.1-0.4-1.9-1.1-2.6-2c-0.7-0.9-1.1-2-1.3-3.2c-0.2-1.1-0.1-2.1,0.2-3s0.8-1.7,1.6-2.3l1.1,1.2
						c-0.6,0.5-1,1.1-1.2,1.8c-0.2,0.7-0.3,1.4-0.1,2.2c0.1,0.9,0.5,1.7,1,2.3c0.5,0.7,1.2,1.1,2,1.5c0.8,0.3,1.7,0.4,2.7,0.2
						c1-0.1,1.8-0.5,2.5-1c0.7-0.5,1.2-1.2,1.5-2c0.3-0.8,0.4-1.6,0.3-2.5c-0.1-0.8-0.4-1.4-0.8-2c-0.4-0.6-0.9-1.1-1.6-1.4l0.7-1.4
						c0.9,0.4,1.6,1,2.2,1.8S207.9,520.8,208.1,521.9z"/>
					<path class="st7" d="M192.9,509c-0.2-1-0.1-2,0.2-2.8c0.3-0.8,0.8-1.5,1.5-2.1c0.7-0.6,1.7-0.9,2.9-1.1l7.4-1.1l0.3,1.7
						l-7.2,1.1c-1.3,0.2-2.3,0.7-2.9,1.5c-0.6,0.8-0.8,1.8-0.6,3c0.1,0.9,0.4,1.7,0.9,2.3c0.5,0.6,1.1,1.1,1.8,1.3
						c0.7,0.3,1.6,0.3,2.6,0.2l6.7-1l0.3,1.7l-17.9,2.7l-0.3-1.7l8.7-1.3l-0.6,0.4c-1-0.3-1.8-0.8-2.5-1.6
						C193.5,511.3,193.1,510.3,192.9,509z"/>
				</g>
			</g>
		</g>
		<path class="st8" d="M143.2,537.5c0,0,38.8-28.4,45.7-33.3s11.1-7.6,17.3-4.4"/>
		<path class="st3" d="M143.2,537.5l54.6-38.5c0,0,20.2,0.5,8.4,20.6l-37.4,35c0,0-2.7,37.5-13.8,52.9"/>
	</g>
</g>
</svg>
