<?xml version="1.0" encoding="utf-8"?>
<!-- Generator: Adobe Illustrator 24.3.0, SVG Export Plug-In . SVG Version: 6.00 Build 0)  -->
<svg version="1.1" id="Layer_1" xmlns="http://www.w3.org/2000/svg" xmlns:xlink="http://www.w3.org/1999/xlink" x="0px" y="0px"
	 viewBox="0 0 890 869" style="enable-background:new 0 0 890 869;" xml:space="preserve">
<style type="text/css">
	.st0{fill:#C94841;stroke:#1F1F1F;stroke-width:4.5;stroke-linecap:round;stroke-linejoin:round;}
	.st1{fill:none;stroke:#1F1F1F;stroke-width:4.5;stroke-linecap:round;stroke-linejoin:round;}
	.st2{fill:#FFFFFF;stroke:#1F1F1F;stroke-width:4.5;stroke-linecap:round;stroke-linejoin:round;}
	.st3{fill:#1F1F1F;stroke:#1F1F1F;stroke-width:4.5;stroke-linecap:round;stroke-linejoin:round;}
	.st4{fill:#FF6666;stroke:#1F1F1F;stroke-width:4.5;stroke-linecap:round;stroke-linejoin:round;}
	.st5{fill:#FFFFFF;}
	.st6{fill:#1F4168;}
	.st7{fill:#1C192E;}
	.st8{fill:#3C0E40;}
	.st9{fill:#EEF0F3;}
	.st10{fill:#414042;}
	.st11{fill:#6D6F70;}
	.st12{fill:#0B8041;}
	.st13{fill:#E87726;}
	.st14{fill:#FEFEFE;}
	.st15{fill:#03B9EE;}
	.st16{fill:#1C3482;}
	.st17{fill:#5F259E;}
	.st18{fill:#02B8EE;}
	.st19{fill:#F37920;}
	.st20{fill:#06306F;}
	.st21{fill:#07306F;}
	.st22{fill:#606469;}
	.st23{fill:#606368;}
	.st24{fill:#656263;}
	.st25{fill:#343F48;}
	.st26{fill:#E94336;}
	.st27{fill:#34A853;}
	.st28{fill:#4385F3;}
	.st29{fill:#FCB934;}
	.st30{fill:#1B3381;}
	.st31{fill:#1C3381;}
	.st32{fill:#37414A;}
	.st33{fill:#364049;}
	.st34{fill:#61279F;}
	.st35{fill:#60279F;}
	.st36{fill:#6127A0;}
	.st37{fill:#F69C35;}
	.st38{fill:#6128A0;}
	.st39{fill:#36414A;}
	.st40{fill:#354048;}
	.st41{fill:#6228A0;}
	.st42{fill:#354049;}
	.st43{fill:#1D3482;}
	.st44{fill:#FABB05;}
	.st45{fill:#1F3683;}
	.st46{fill:#1A3281;}
	.st47{fill:#F16802;}
	.st48{fill:#253B86;}
	.st49{fill:#078A5F;}
	.st50{fill:#F69F3B;}
	.st51{fill:#77787B;}
	.st52{fill:#D5D4D4;}
	.st53{fill:#D8D7D8;}
	.st54{fill:#D8D7D7;}
	.st55{fill:#D7D6D6;}
	.st56{fill:#706D6D;}
	.st57{fill:#ACAAAA;}
	.st58{fill:#969495;}
	.st59{fill:#7E7B7C;}
	.st60{fill:#858384;}
	.st61{fill:#7F7D7D;}
	.st62{fill:#646161;}
	.st63{fill:#6B6868;}
	.st64{fill:#747172;}
	.st65{fill:#757373;}
	.st66{fill:#6A6768;}
	.st67{fill:#7B7879;}
	.st68{fill:#757273;}
	.st69{fill:#F7AB53;}
	.st70{fill:#7C797A;}
	.st71{fill:#8F8D8E;}
	.st72{fill:#767374;}
	.st73{fill:#AFAEAE;}
	.st74{fill:#696667;}
	.st75{fill:#797778;}
	.st76{fill:#969494;}
	.st77{fill:#6F6C6D;}
	.st78{fill:#585555;}
	.st79{fill:#7E7C7C;}
	.st80{fill:#8B898A;}
	.st81{fill:#848282;}
	.st82{fill:#716F6F;}
	.st83{fill:#A7A5A6;}
	.st84{fill:#7C7A7B;}
	.st85{fill:#FCFCFD;}
	.st86{fill:#FEFEFD;}
	.st87{fill:#F6F7F9;}
	.st88{fill:#F9FAFB;}
	.st89{fill:#FDFDFD;}
	.st90{fill:#FCFCFC;}
	.st91{fill:#FAFAFA;}
	.st92{fill:#FCFDFD;}
	.st93{fill:#EBEDF4;}
	.st94{fill:#F2F4F8;}
	.st95{fill:#ECEDF4;}
	.st96{fill:#F4F5F5;}
	.st97{fill:#F6F7FA;}
	.st98{fill:#FBFAFC;}
	.st99{fill:#FCFBFD;}
	.st100{fill:#FBFCFC;}
	.st101{fill:#F5F6F9;}
	.st102{fill:#F1F2F7;}
	.st103{fill:#F6F3F9;}
	.st104{fill:#F8F9FB;}
	.st105{fill:#F5F2F9;}
	.st106{fill:#F5F1F8;}
	.st107{fill:#652DA2;}
	.st108{font-family:'ArialRoundedMTBold';}
	.st109{font-size:17.2301px;}
	.st110{fill:#008800;}
	.st111{fill:#FF6666;stroke:#1F1F1F;stroke-width:4.5;stroke-miterlimit:10;}
</style>
<g>
	<path class="st0" d="M283.1,491.9c-22.9,152.2-206.4,196-206.4,268.9c0,38.6,36.5,36.5,36.5,79.2H27.8V698.2
		c0-77.1,59.4-154.3,59.4-249.1l143.8-8.3L283.1,491.9z"/>
	<path class="st1" d="M14.8,840h770.8"/>
	<path class="st2" d="M555.8,165.4c-8.2,0-21.1,9.9-34.1,23.7c13.5,4.4,27.1,8.7,41,12.6C565.9,186,567.9,165.4,555.8,165.4z"/>
	<path class="st3" d="M706.2,344.4c7-15,7.4-29.8-15-37.8C691.2,306.6,682,332.2,706.2,344.4z"/>
	<path class="st4" d="M687.7,221.9c104.8,0,135.5-163.6,79.2-163.6s-54.7,92.3-104.8,92.3c-73.5,0-192.3-61-304.9-61
		c-150.1,0-303.3,119.9-303.3,337.7C53.9,591.4,161.8,840,161.8,840h96.9c0-38.3-31.3-32.1-46.9-69.6l-46.8-125.1
		c39.1-36,73.5-92,55.5-170.4c32.8,50.8,94.6,55.5,145.4,133.7L528.4,840h77.4c0-46.1-42.2-43-69.6-89.1L448.7,568
		c0,0,99.2-169.9,182.1-169.9c25,0,44.6-7.6,60.2-29.4c5.3-7.4,11.2-15.8,15.1-24.2c-24.2-12.3-15-37.8-15-37.8
		c-2.3-0.8-4.7-1.5-7.1-2.1c-44.6-10.9-69.6-85.2-125.9-85.2c0,0,2.5-7.9,4.5-17.5C602.4,213.1,643.7,221.9,687.7,221.9z
		 M479.2,253.7c-8.9,27.3-28,62.4-66.2,62.4c-57.9,0-96.4-70.2-189.4-70.2c-27.4,0-62.5,14.9-62.5,14.9S242.1,150,349.9,150
		c57.1,0,113,20.1,171.8,39.1C503.6,208.3,485.3,235.2,479.2,253.7z M521.7,189.1"/>
	<path class="st1" d="M718.8,328c0,0,88.6-45.5,156.3,41.4"/>
	<path class="st1" d="M714.1,311.3l124.6-100.6"/>
	<path class="st1" d="M365.8,608.6L528.4,840h77.4c0-46.1-42.2-43-69.6-89.1L427.6,521"/>
	<path class="st1" d="M689.5,340.7c0,0-58.6,33.9-58.6,126.6"/>
	<path class="st1" d="M681.4,334.5c0,0-94.8,20.3-123.3,141.2"/>
	<path class="st1" d="M684,304.5c-44.6-10.9-69.6-85.2-125.9-85.2c0,0,2.5-7.9,4.5-17.5"/>
	<path class="st4" d="M479.2,253.7c6.1-18.5,24.4-45.4,42.5-64.6c13-13.8,25.9-23.7,34.1-23.7c12.1,0,10.2,20.6,6.9,36.4l-4.5,17.5
		c0,0,19.8-2.3,42.5,15.5"/>
	<path class="st1" d="M479.2,253.7c6.1-18.5,24.4-45.4,42.5-64.6c13-13.8,25.9-23.7,34.1-23.7c12.1,0,10.2,20.6,6.9,36.4l-4.5,17.5
		c0,0,19.8-2.3,42.5,15.5"/>
	<path class="st0" d="M599.3,176c-7.4,0-23.4,12.9-36.4,24.7c-0.1,0.3-0.1,0.7-0.2,1l-4.5,17.5c0,0,16.4-1.9,36.3,11.1
		C605.3,203.4,610.8,176,599.3,176z"/>
	<g>
		<g>
			<g>
				<g>
					<g>
						<path class="st5" d="M678.4,842.7H519.5c-21.2,0-38.4-17.2-38.4-38.4V389.7c0-21.2,17.2-38.4,38.4-38.4h158.9
							c21.2,0,38.4,17.2,38.4,38.4v414.6C716.8,825.5,699.6,842.7,678.4,842.7z"/>
					</g>
				</g>
				<g>
					<g>
						<path class="st6" d="M716.8,498.4c-1.2,0-2.1-0.9-2.1-2.1v-44.1c0-1.2,0.9-2.1,2.1-2.1c1.2,0,2.1,0.9,2.1,2.1v44.1
							C718.9,497.4,718,498.4,716.8,498.4z"/>
					</g>
				</g>
				<g>
					<g>
						<g>
							<path class="st6" d="M481,532.2c-1.2,0-2.1-0.9-2.1-2.1v-46.8c0-1.2,0.9-2.1,2.1-2.1s2.1,0.9,2.1,2.1v46.8
								C483.1,531.3,482.2,532.2,481,532.2z"/>
						</g>
					</g>
					<g>
						<g>
							<path class="st6" d="M481,467.2c-1.2,0-2.1-0.9-2.1-2.1v-46.8c0-1.2,0.9-2.1,2.1-2.1s2.1,0.9,2.1,2.1v46.8
								C483.1,466.3,482.2,467.2,481,467.2z"/>
						</g>
					</g>
				</g>
			</g>
			<g>
				<g>
					<path class="st6" d="M693.1,351.3h-67h-15.2h-24h-15.2h-67c-13.1,0-23.7,10.6-23.7,23.7V819c0,13.1,10.6,23.7,23.7,23.7h188.4
						c13.1,0,23.7-10.6,23.7-23.7V374.9C716.8,361.9,706.2,351.3,693.1,351.3z M710.5,819c0,9.6-7.8,17.4-17.4,17.4H504.7
						c-9.6,0-17.4-7.8-17.4-17.4V374.9c0-9.6,7.8-17.4,17.4-17.4h67h54.4h67c9.6,0,17.4,7.8,17.4,17.4V819z"/>
				</g>
			</g>
			<g>
				<g>
					<circle class="st7" cx="598.9" cy="367.2" r="4.5"/>
				</g>
			</g>
			<g>
				<g>
					<path class="st7" d="M624.6,832.1h-51.3c-0.6,0-1-0.5-1-1c0-0.6,0.5-1,1-1h51.3c0.6,0,1,0.5,1,1
						C625.6,831.6,625.1,832.1,624.6,832.1z"/>
				</g>
			</g>
			<g>
				<g>
					<g>
						<g>
							<g>
								<rect x="672.4" y="362.6" class="st8" width="1.9" height="7.5"/>
							</g>
						</g>
					</g>
					<g>
						<g>
							<g>
								<rect x="669.2" y="364.5" class="st8" width="1.9" height="5.6"/>
							</g>
						</g>
					</g>
					<g>
						<g>
							<g>
								<rect x="666.1" y="366.4" class="st8" width="1.9" height="3.7"/>
							</g>
						</g>
					</g>
					<g>
						<g>
							<g>
								<rect x="662.9" y="368.2" class="st8" width="1.9" height="1.9"/>
							</g>
						</g>
					</g>
				</g>
				<g>
					<g>
						<g>
							<polygon class="st8" points="698,366.1 696.7,366.1 696.7,364.3 680.7,364.3 680.7,370.1 696.7,370.1 696.7,368.3 698,368.3 
															"/>
						</g>
					</g>
					<g>
						<g>
							<g>
								<g>
									<rect x="681.7" y="365.2" class="st8" width="2.1" height="4"/>
								</g>
							</g>
						</g>
						<g>
							<g>
								<g>
									<rect x="684.1" y="365.2" class="st8" width="2.1" height="4"/>
								</g>
							</g>
						</g>
						<g>
							<g>
								<g>
									<rect x="686.5" y="365.2" class="st8" width="2.1" height="4"/>
								</g>
							</g>
						</g>
						<g>
							<g>
								<g>
									<rect x="689" y="365.2" class="st8" width="2.1" height="4"/>
								</g>
							</g>
						</g>
					</g>
				</g>
				<g>
					<g>
						<g>
							<path class="st8" d="M501.5,368.3c0.4-0.4,0.7-0.8,1-1.2c0.3-0.4,0.4-0.8,0.4-1.2c0-0.4-0.1-0.7-0.3-0.9
								c-0.2-0.2-0.5-0.3-0.9-0.3c-0.4,0-0.7,0.1-0.9,0.4c-0.2,0.2-0.3,0.6-0.3,1h-0.7c0-0.6,0.2-1.1,0.6-1.5
								c0.4-0.3,0.8-0.5,1.4-0.5c0.6,0,1,0.2,1.4,0.5c0.3,0.3,0.5,0.8,0.5,1.3c0,0.5-0.1,0.9-0.4,1.4c-0.3,0.4-0.6,0.8-0.9,1.2
								c-0.4,0.3-0.8,0.7-1.4,1.2h2.9v0.6h-4.1v-0.5C500.6,369.1,501.1,368.6,501.5,368.3z"/>
						</g>
					</g>
					<g>
						<g>
							<path class="st8" d="M505.4,364.5c0.4-0.3,0.8-0.4,1.4-0.4c0.4,0,0.7,0.1,1,0.2c0.3,0.1,0.5,0.3,0.6,0.6s0.2,0.5,0.2,0.8
								c0,0.3-0.1,0.6-0.3,0.9s-0.5,0.4-0.8,0.5v0c0.4,0.1,0.7,0.3,0.9,0.5c0.2,0.3,0.3,0.6,0.3,1c0,0.3-0.1,0.6-0.2,0.9
								c-0.1,0.3-0.4,0.5-0.7,0.6c-0.3,0.1-0.6,0.2-1.1,0.2c-0.6,0-1.1-0.2-1.5-0.5c-0.4-0.3-0.6-0.8-0.6-1.3h0.7
								c0,0.3,0.2,0.6,0.4,0.8c0.2,0.2,0.6,0.3,0.9,0.3c0.4,0,0.7-0.1,0.9-0.3c0.2-0.2,0.3-0.5,0.3-0.8c0-0.4-0.1-0.7-0.4-0.9
								c-0.3-0.2-0.7-0.3-1.3-0.3h-0.2v-0.6h0.2c0.5,0,0.9-0.1,1.2-0.3c0.3-0.2,0.4-0.4,0.4-0.8c0-0.3-0.1-0.5-0.3-0.7
								c-0.2-0.2-0.5-0.3-0.8-0.3c-0.3,0-0.6,0.1-0.8,0.3c-0.2,0.2-0.3,0.4-0.4,0.7h-0.7C504.8,365.2,505,364.8,505.4,364.5z"/>
						</g>
					</g>
					<g>
						<g>
							<path class="st8" d="M512,366.6c-0.1-0.1-0.2-0.2-0.2-0.4c0-0.1,0.1-0.3,0.2-0.4c0.1-0.1,0.2-0.2,0.4-0.2
								c0.1,0,0.3,0.1,0.4,0.2c0.1,0.1,0.1,0.2,0.1,0.4c0,0.1,0,0.3-0.1,0.4c-0.1,0.1-0.2,0.2-0.4,0.2
								C512.2,366.7,512.1,366.7,512,366.6z M512,370.2c-0.1-0.1-0.2-0.2-0.2-0.4c0-0.1,0.1-0.3,0.2-0.4c0.1-0.1,0.2-0.2,0.4-0.2
								c0.1,0,0.3,0.1,0.4,0.2c0.1,0.1,0.1,0.2,0.1,0.4c0,0.1,0,0.3-0.1,0.4c-0.1,0.1-0.2,0.2-0.4,0.2
								C512.2,370.3,512.1,370.3,512,370.2z"/>
						</g>
					</g>
					<g>
						<g>
							<path class="st8" d="M516.5,364.9c0.3-0.5,0.9-0.8,1.7-0.8c0.8,0,1.3,0.3,1.6,0.8c0.3,0.5,0.5,1.3,0.5,2.3
								c0,1-0.2,1.7-0.5,2.3c-0.3,0.5-0.9,0.8-1.6,0.8c-0.8,0-1.3-0.3-1.7-0.8c-0.3-0.5-0.5-1.3-0.5-2.3
								C516,366.2,516.2,365.5,516.5,364.9z M519.4,365.9c-0.1-0.3-0.2-0.6-0.4-0.8c-0.2-0.2-0.5-0.3-0.9-0.3
								c-0.4,0-0.7,0.1-0.9,0.3c-0.2,0.2-0.3,0.5-0.4,0.8c-0.1,0.3-0.1,0.8-0.1,1.2c0,0.5,0,0.9,0.1,1.3c0.1,0.3,0.2,0.6,0.4,0.8
								c0.2,0.2,0.5,0.3,0.9,0.3c0.4,0,0.7-0.1,0.9-0.3s0.3-0.5,0.4-0.8s0.1-0.8,0.1-1.3C519.5,366.7,519.5,366.3,519.4,365.9z"/>
						</g>
					</g>
					<g>
						<g>
							<path class="st8" d="M521.8,364.9c0.3-0.5,0.9-0.8,1.7-0.8c0.8,0,1.3,0.3,1.6,0.8c0.3,0.5,0.5,1.3,0.5,2.3
								c0,1-0.2,1.7-0.5,2.3c-0.3,0.5-0.9,0.8-1.6,0.8c-0.8,0-1.3-0.3-1.7-0.8c-0.3-0.5-0.5-1.3-0.5-2.3
								C521.3,366.2,521.5,365.5,521.8,364.9z M524.7,365.9c-0.1-0.3-0.2-0.6-0.4-0.8c-0.2-0.2-0.5-0.3-0.9-0.3
								c-0.4,0-0.7,0.1-0.9,0.3c-0.2,0.2-0.3,0.5-0.4,0.8c-0.1,0.3-0.1,0.8-0.1,1.2c0,0.5,0,0.9,0.1,1.3c0.1,0.3,0.2,0.6,0.4,0.8
								s0.5,0.3,0.9,0.3c0.4,0,0.7-0.1,0.9-0.3s0.3-0.5,0.4-0.8c0.1-0.3,0.1-0.8,0.1-1.3C524.8,366.7,524.8,366.3,524.7,365.9z"/>
						</g>
					</g>
				</g>
			</g>
			<g>
				<g>
					<path class="st7" d="M693.1,359.7c8.4,0,15.3,6.9,15.3,15.3V819c0,8.4-6.9,15.3-15.3,15.3H504.7c-8.4,0-15.3-6.9-15.3-15.3
						V374.9c0-8.4,6.9-15.3,15.3-15.3H693.1 M693.1,357.6H504.7c-9.6,0-17.4,7.8-17.4,17.4V819c0,9.6,7.8,17.4,17.4,17.4h188.4
						c9.6,0,17.4-7.8,17.4-17.4V374.9C710.5,365.3,702.7,357.6,693.1,357.6L693.1,357.6z"/>
				</g>
			</g>
		</g>
		<g>
			<rect x="489.4" y="380.9" class="st9" width="219" height="7.6"/>
		</g>
		<g>
			<g>
				<path class="st7" d="M693.1,359.7c8.4,0,15.3,6.9,15.3,15.3V819c0,8.4-6.9,15.3-15.3,15.3H504.7c-8.4,0-15.3-6.9-15.3-15.3
					V374.9c0-8.4,6.9-15.3,15.3-15.3H693.1 M693.1,357.6H504.7c-9.6,0-17.4,7.8-17.4,17.4V819c0,9.6,7.8,17.4,17.4,17.4h188.4
					c9.6,0,17.4-7.8,17.4-17.4V374.9C710.5,365.3,702.7,357.6,693.1,357.6L693.1,357.6z"/>
			</g>
		</g>
		<g>
			<g>
				<path class="st10" d="M563.1,750.1c0,0.8-0.2,1.3-0.7,1.8c-0.4,0.4-1,0.6-1.6,0.6h-1.4v3.6h-1v-8.4h2.3
					C562.3,747.7,563.1,748.5,563.1,750.1 M562,750.1c0-1-0.5-1.6-1.4-1.6h-1.2v3.2h1.2c0.4,0,0.8-0.1,1-0.4
					C561.9,751,562,750.6,562,750.1"/>
				<path class="st10" d="M570.1,751.9c0,2.9-0.9,4.4-2.7,4.4c-0.9,0-1.5-0.3-2-0.9c-0.5-0.7-0.8-1.9-0.8-3.5c0-1.6,0.2-2.7,0.7-3.4
					c0.4-0.6,1.1-0.9,2-0.9c0.8,0,1.4,0.3,1.8,0.8C569.8,749,570.1,750.2,570.1,751.9 M569,751.9c0-1.3-0.1-2.3-0.4-2.8
					c-0.3-0.5-0.7-0.7-1.2-0.7c-0.6,0-1,0.2-1.2,0.7c-0.3,0.5-0.4,1.5-0.4,2.8c0,1.3,0.1,2.3,0.4,2.8c0.2,0.5,0.7,0.7,1.2,0.7
					c0.5,0,0.9-0.2,1.2-0.7C568.8,754.2,569,753.2,569,751.9"/>
				<polyline class="st10" points="579.7,747.7 578,756.1 576.7,756.1 575.6,749.2 575.6,749.2 574.3,756.1 573.1,756.1 
					571.4,747.7 572.5,747.7 573.8,754.6 573.8,754.6 575,747.7 576.2,747.7 577.4,754.6 577.4,754.6 578.7,747.7 579.7,747.7 				
					"/>
				<polyline class="st10" points="585.7,756.1 581.2,756.1 581.2,747.7 585.6,747.7 585.6,748.6 582.3,748.6 582.3,751.2 
					585.4,751.2 585.4,752.1 582.3,752.1 582.3,755.2 585.7,755.2 585.7,756.1 				"/>
				<path class="st10" d="M592.6,756.1h-1.2c-0.2-0.3-0.3-0.9-0.3-1.9c0-0.8-0.1-1.3-0.3-1.5c-0.2-0.2-0.5-0.3-1.1-0.3h-1.3v3.7h-1
					v-8.4h2.7c1.5,0,2.2,0.7,2.2,2.2c0,0.5-0.1,0.9-0.4,1.3c-0.2,0.4-0.6,0.6-1,0.7v0c0.5,0.1,0.8,0.3,1,0.6
					c0.2,0.3,0.3,0.9,0.3,1.8C592.2,755.2,592.3,755.8,592.6,756.1 M591.2,750c0-1-0.5-1.5-1.6-1.5h-1.2v3h1.2
					C590.6,751.5,591.2,751,591.2,750"/>
				<polyline class="st10" points="598.7,756.1 594.2,756.1 594.2,747.7 598.5,747.7 598.5,748.6 595.2,748.6 595.2,751.2 
					598.3,751.2 598.3,752.1 595.2,752.1 595.2,755.2 598.7,755.2 598.7,756.1 				"/>
				<path class="st10" d="M605.6,751.8c0,1.5-0.2,2.6-0.7,3.3c-0.5,0.7-1.2,1-2.3,1h-2.2v-8.4h2.3c0.9,0,1.6,0.2,2,0.7
					C605.3,749,605.6,750.1,605.6,751.8 M604.6,751.8c0-1.3-0.2-2.2-0.5-2.7c-0.3-0.4-0.8-0.6-1.5-0.6h-1v6.7h0.9
					c0.7,0,1.2-0.2,1.6-0.6C604.4,754.1,604.6,753.2,604.6,751.8"/>
				<path class="st10" d="M616.1,753.7c0,0.7-0.2,1.3-0.6,1.7c-0.4,0.5-1.1,0.7-2,0.7h-2.4v-8.4h2.6c0.6,0,1.1,0.2,1.5,0.5
					c0.4,0.4,0.6,0.9,0.6,1.6c0,0.6-0.2,1-0.5,1.4c-0.3,0.3-0.5,0.4-0.7,0.4v0c0.2,0,0.5,0.1,0.8,0.4
					C615.9,752.4,616.1,753,616.1,753.7 M614.8,749.9c0-0.9-0.4-1.4-1.4-1.4h-1.3v2.8h1.2C614.3,751.3,614.8,750.8,614.8,749.9
					 M615.1,753.7c0-0.5-0.1-0.9-0.4-1.2c-0.3-0.3-0.7-0.4-1.2-0.4h-1.2v3.2h1.3C614.5,755.2,615.1,754.7,615.1,753.7"/>
				<polyline class="st10" points="622.7,747.7 620.5,752.8 620.5,756.1 619.5,756.1 619.5,752.8 617.2,747.7 618.4,747.7 
					620,751.6 620,751.6 621.6,747.7 622.7,747.7 				"/>
			</g>
			<g>
				<path class="st11" d="M549.1,794.4h0.8l-0.8,3.1c-0.1,0.5-0.1,0.8,0.1,1.1c0.2,0.2,0.4,0.4,0.9,0.4c0.4,0,0.8-0.1,1-0.4
					c0.3-0.2,0.5-0.6,0.6-1.1l0.8-3.1h0.8l-0.8,3.2c-0.2,0.7-0.5,1.2-0.9,1.6c-0.4,0.3-1,0.5-1.7,0.5c-0.7,0-1.2-0.2-1.4-0.5
					c-0.3-0.3-0.3-0.9-0.1-1.6L549.1,794.4z"/>
				<path class="st11" d="M553.1,799.6l1.3-5.4l2.5,3.2c0.1,0.1,0.1,0.2,0.2,0.3c0.1,0.1,0.1,0.2,0.2,0.3l0.9-3.6h0.8l-1.3,5.4
					l-2.5-3.2c-0.1-0.1-0.1-0.2-0.2-0.3c-0.1-0.1-0.1-0.2-0.2-0.3l-0.9,3.6H553.1z"/>
				<polygon class="st11" points="558.8,799.6 560,794.4 560.9,794.4 559.6,799.6 				"/>
				<polygon class="st11" points="560.8,799.6 562,794.4 564.8,794.4 564.7,795.2 562.7,795.2 562.4,796.4 564.4,796.4 564.2,797.2 
					562.2,797.2 561.6,799.6 				"/>
				<polygon class="st11" points="564.5,799.6 565.8,794.4 566.6,794.4 565.3,799.6 				"/>
				<polygon class="st11" points="566.5,799.6 567.8,794.4 570.6,794.4 570.4,795.2 568.4,795.2 568.1,796.5 570.1,796.5 
					569.9,797.2 567.9,797.2 567.5,798.9 569.5,798.9 569.3,799.6 				"/>
				<path class="st11" d="M570.3,799.6l1.2-5.2h1.1c0.7,0,1.2,0,1.5,0.1c0.3,0.1,0.5,0.2,0.7,0.4c0.2,0.2,0.4,0.5,0.5,0.9
					c0.1,0.4,0,0.8-0.1,1.2c-0.1,0.5-0.3,0.9-0.5,1.2c-0.2,0.4-0.5,0.6-0.9,0.9c-0.3,0.2-0.5,0.3-0.8,0.4c-0.3,0.1-0.7,0.1-1.3,0.1
					h-0.2H570.3z M571.3,798.9h0.7c0.4,0,0.7,0,0.9-0.1c0.2-0.1,0.4-0.1,0.6-0.3c0.2-0.2,0.4-0.4,0.6-0.6c0.2-0.2,0.3-0.5,0.4-0.9
					c0.1-0.3,0.1-0.6,0.1-0.9c0-0.2-0.1-0.5-0.3-0.6c-0.1-0.1-0.3-0.2-0.4-0.3c-0.2-0.1-0.5-0.1-0.9-0.1h-0.3h-0.3L571.3,798.9z"/>
				<path class="st11" d="M579,797.3l-0.6,2.3h-0.8l1.2-5.2h1.2c0.4,0,0.6,0,0.8,0.1c0.2,0,0.3,0.1,0.4,0.2c0.1,0.1,0.2,0.3,0.3,0.5
					c0,0.2,0,0.4,0,0.7c-0.1,0.2-0.2,0.5-0.3,0.7c-0.1,0.2-0.3,0.4-0.5,0.5c-0.2,0.1-0.3,0.2-0.5,0.2c-0.2,0-0.5,0.1-0.8,0.1h-0.2
					H579z M579.2,796.6h0.2c0.5,0,0.8-0.1,0.9-0.2c0.2-0.1,0.3-0.3,0.4-0.5c0.1-0.3,0-0.5-0.1-0.6c-0.1-0.1-0.4-0.2-0.9-0.2h-0.2
					L579.2,796.6z"/>
				<path class="st11" d="M584.3,799.6l-0.3-1.3h-2l-0.9,1.3h-0.9l3.7-5.4l1.2,5.4H584.3z M582.6,797.6h1.4l-0.2-1.2
					c0-0.1,0-0.2,0-0.3c0-0.1,0-0.2,0-0.3c-0.1,0.1-0.1,0.2-0.2,0.3c-0.1,0.1-0.1,0.2-0.2,0.3L582.6,797.6z"/>
				<path class="st11" d="M586.4,799.6l0.6-2.4l-1-2.8h0.9l0.6,1.8c0,0,0,0.1,0.1,0.2c0,0.1,0,0.2,0.1,0.2c0.1-0.1,0.1-0.2,0.2-0.2
					c0.1-0.1,0.1-0.1,0.2-0.2l1.5-1.7h0.8l-2.4,2.8l-0.6,2.4H586.4z"/>
				<path class="st11" d="M594.2,797.1c0,0,0-0.2,0-0.3c0-0.2,0-0.3,0-0.4c0,0.1-0.1,0.2-0.2,0.4c-0.1,0.1-0.1,0.2-0.2,0.4l-2,2.8
					l-0.6-2.8c0-0.1,0-0.2-0.1-0.3c0-0.1,0-0.2,0-0.3c0,0.1-0.1,0.2-0.1,0.3c0,0.1-0.1,0.2-0.2,0.4l-1.2,2.6H589l2.5-5.4l0.7,3.3
					c0,0.1,0,0.1,0,0.3c0,0.1,0,0.3,0.1,0.4c0.1-0.1,0.2-0.3,0.4-0.6c0-0.1,0.1-0.1,0.1-0.1l2.2-3.3l-0.1,5.4h-0.8L594.2,797.1z"/>
				<polygon class="st11" points="595.6,799.6 596.8,794.4 599.6,794.4 599.5,795.2 597.5,795.2 597.2,796.5 599.2,796.5 599,797.2 
					597,797.2 596.6,798.9 598.6,798.9 598.4,799.6 				"/>
				<path class="st11" d="M599.3,799.6l1.3-5.4l2.5,3.2c0.1,0.1,0.1,0.2,0.2,0.3c0.1,0.1,0.1,0.2,0.2,0.3l0.9-3.6h0.8l-1.3,5.4
					l-2.5-3.2c-0.1-0.1-0.1-0.2-0.2-0.3c-0.1-0.1-0.1-0.2-0.2-0.3l-0.9,3.6H599.3z"/>
				<polygon class="st11" points="607.7,795.2 606.7,799.6 605.8,799.6 606.9,795.2 605.6,795.2 605.7,794.4 609.2,794.4 
					609.1,795.2 				"/>
				<path class="st11" d="M608.6,798.6l0.7-0.3c0,0.2,0.1,0.4,0.2,0.5c0.1,0.1,0.3,0.2,0.6,0.2c0.2,0,0.5-0.1,0.6-0.2
					c0.2-0.1,0.3-0.3,0.3-0.6c0.1-0.3-0.1-0.6-0.5-0.8c-0.1,0-0.1-0.1-0.1-0.1c-0.5-0.3-0.8-0.5-0.9-0.8c-0.1-0.2-0.2-0.5-0.1-0.8
					c0.1-0.4,0.3-0.8,0.7-1c0.3-0.3,0.7-0.4,1.2-0.4c0.4,0,0.7,0.1,0.9,0.2c0.2,0.1,0.3,0.4,0.4,0.6l-0.7,0.3
					c-0.1-0.2-0.1-0.3-0.2-0.4c-0.1-0.1-0.2-0.1-0.4-0.1c-0.2,0-0.4,0.1-0.6,0.2c-0.2,0.1-0.3,0.3-0.3,0.5c-0.1,0.3,0.1,0.6,0.6,0.9
					c0,0,0.1,0,0.1,0c0.4,0.2,0.7,0.5,0.9,0.7c0.1,0.2,0.2,0.5,0.1,0.8c-0.1,0.5-0.4,0.9-0.7,1.2c-0.4,0.3-0.8,0.4-1.3,0.4
					c-0.4,0-0.8-0.1-1-0.3C608.7,799.3,608.6,799,608.6,798.6"/>
				<polygon class="st11" points="614.6,799.6 615.9,794.4 616.7,794.4 615.5,799.6 				"/>
				<path class="st11" d="M616.6,799.6l1.3-5.4l2.5,3.2c0.1,0.1,0.1,0.2,0.2,0.3c0.1,0.1,0.1,0.2,0.2,0.3l0.9-3.6h0.8l-1.3,5.4
					l-2.5-3.2c-0.1-0.1-0.1-0.2-0.2-0.3c-0.1-0.1-0.1-0.2-0.2-0.3l-0.9,3.6H616.6z"/>
				<polygon class="st11" points="625,795.2 624,799.6 623.1,799.6 624.2,795.2 622.9,795.2 623,794.4 626.5,794.4 626.4,795.2 				
					"/>
				<polygon class="st11" points="625.9,799.6 627.2,794.4 630,794.4 629.8,795.2 627.8,795.2 627.5,796.5 629.5,796.5 629.3,797.2 
					627.3,797.2 626.9,798.9 628.9,798.9 628.7,799.6 				"/>
				<path class="st11" d="M631,797.3l-0.6,2.3h-0.8l1.2-5.2h1.1c0.3,0,0.6,0,0.8,0.1c0.2,0,0.3,0.1,0.4,0.2c0.1,0.1,0.2,0.3,0.2,0.5
					c0,0.2,0,0.4,0,0.7c-0.1,0.4-0.3,0.7-0.5,1c-0.3,0.2-0.6,0.4-1,0.4l1.2,2.4h-0.9L631,797.3L631,797.3z M631.2,796.6h0.1
					c0.4,0,0.7-0.1,0.9-0.2c0.2-0.1,0.3-0.3,0.3-0.6c0.1-0.3,0-0.5-0.1-0.6c-0.1-0.1-0.4-0.2-0.8-0.2h-0.1L631.2,796.6z"/>
				<polygon class="st11" points="633.6,799.6 634.9,794.4 637.7,794.4 637.5,795.2 635.5,795.2 635.2,796.4 637.2,796.4 637,797.2 
					635,797.2 634.5,799.6 				"/>
				<path class="st11" d="M640.4,799.6l-0.3-1.3h-2l-0.9,1.3h-0.9l3.7-5.4l1.2,5.4H640.4z M638.6,797.6h1.4l-0.2-1.2
					c0-0.1,0-0.2,0-0.3c0-0.1,0-0.2,0-0.3c-0.1,0.1-0.1,0.2-0.2,0.3c-0.1,0.1-0.1,0.2-0.2,0.3L638.6,797.6z"/>
				<path class="st11" d="M646.6,795.7c-0.2-0.2-0.4-0.4-0.6-0.5c-0.2-0.1-0.5-0.2-0.8-0.2c-0.6,0-1,0.2-1.5,0.5
					c-0.4,0.4-0.7,0.8-0.9,1.4c-0.1,0.6-0.1,1,0.2,1.4c0.3,0.4,0.6,0.5,1.1,0.5c0.3,0,0.6-0.1,0.9-0.2s0.6-0.3,0.9-0.5l-0.2,1
					c-0.3,0.2-0.5,0.3-0.8,0.4c-0.3,0.1-0.6,0.1-0.9,0.1c-0.4,0-0.7-0.1-1-0.2c-0.3-0.1-0.5-0.3-0.7-0.6c-0.2-0.2-0.3-0.5-0.4-0.9
					c-0.1-0.3,0-0.7,0.1-1.1c0.1-0.4,0.2-0.7,0.5-1.1c0.2-0.3,0.5-0.6,0.8-0.9c0.3-0.3,0.6-0.4,1-0.6c0.4-0.1,0.7-0.2,1.1-0.2
					c0.3,0,0.6,0,0.8,0.1c0.2,0.1,0.5,0.2,0.7,0.4L646.6,795.7z"/>
				<polygon class="st11" points="646.7,799.6 648,794.4 650.8,794.4 650.6,795.2 648.6,795.2 648.3,796.5 650.3,796.5 650.1,797.2 
					648.1,797.2 647.7,798.9 649.7,798.9 649.5,799.6 				"/>
				<polygon class="st11" points="631.7,789.9 626.1,789.9 633.9,761.6 639.6,761.6 				"/>
				<path class="st11" d="M628.8,762.5c-0.4-0.5-1-0.8-1.8-0.8h-31l-1.5,5.6h5.6v0h22.6l-1.6,5.9h-22.6l0,0h-5.6l-4.7,16.9h5.6
					l3.1-11.4h25.4c0.8,0,1.5-0.3,2.2-0.8c0.7-0.5,1.2-1.2,1.4-2l3.1-11.4C629.3,763.7,629.2,763,628.8,762.5"/>
				<path class="st11" d="M584.8,788.2c-0.3,1.1-1.3,1.9-2.5,1.9h-29.1c-0.8,0-1.4-0.3-1.8-0.8c-0.4-0.5-0.5-1.2-0.2-2l7.1-25.6h5.6
					l-6.3,22.8h22.6l6.3-22.8h5.6L584.8,788.2z"/>
				<polygon class="st12" points="649.3,761.6 656.5,775.8 641.5,790 				"/>
				<polygon class="st13" points="644.3,761.6 651.5,775.8 636.4,790 				"/>
			</g>
		</g>
		<g>
			<g>
				<path class="st14" d="M694.9,655.4c0,15.5,0,31.1,0,46.6c0,1-0.2,1.2-1.2,1.2c-61.5,0-122.9,0-184.4,0c-1,0-1.2-0.2-1.2-1.2
					c0-46,0-91.9,0-137.9c0-1.3,0.5-1.2,1.4-1.2c50.3,0,100.7,0,151,0c-0.3,2.1-2.1,2.9-3.7,3.7c-0.5,0.2-1.1,0.2-1.4,0.8
					c-0.4,0.9,0,2.2,0.9,2.5c1.1,0.4,1.3,1.2,1.3,2.2c0,2.4,0,4.8,0,7.2c0,0.8,0,1.6,0.4,2.4c0.5,0.9,1.3,1.4,2.3,1.2
					c1-0.2,0.9-1.1,0.9-1.8c0-2.9,0-5.8,0-8.7c0-1.2,0.2-2.2,1.6-2.7c1.1-0.4,1.1-2.1,0.1-2.7c-1.8-1.1-2-1.8-1.5-4
					c10.8,0,21.6,0,32.3,0c1.2,0,1.4,0.2,1.4,1.4c0,29.8,0,59.6,0,89.4c-0.9,0.7-2,0.5-3,0.5c-1.2,0.1-2.4-0.1-3.8,0.2
					c0.8,0.7,2,0.5,2.3,1.6c0.2,0.8,0.1,1.7,0.2,2.5c0,0.8,0,1.6,0,2.4c0,0.4-0.1,1.1,0.4,1.1c0.7,0,0.5-0.7,0.6-1.2
					c0-1.2,0-2.4,0-3.6C691.7,655,692.7,654.4,694.9,655.4z"/>
				<path class="st15" d="M661.2,562.9c0.1,0.6,0.3,1.1,0.2,1.7c-0.1,1.2,0,2.1,1.6,1.8c0.1,0,0.1,0,0.2,0c1.2,0.7,0.4,1.8,0.6,2.7
					c0.1,0.6,0.1,1.3-0.8,1.1c-1.7-0.3-1.6,0.8-1.6,1.9c0,3.1,0.1,6.2,0,9.3c0,0.7,0.6,1.8-0.8,2c-1.6,0.2-3-0.4-3.3-1.7
					c-0.1-0.5-0.1-1.1-0.1-1.7c0-2.7,0-5.5,0-8.2c0-0.8,0-1.5-1.1-1.4c-1,0.1-1.5-0.4-1.2-1.3c0.3-0.9-1-2.6,1.1-2.8
					c2.2-0.2,3.3-1.9,4.6-3.4C660.7,562.9,661,562.9,661.2,562.9z"/>
				<path class="st16" d="M694.9,655.4c-2.7-0.1-2.7-0.1-2.7,2.6c0,1.3,0,2.5,0,3.8c0,0.8-0.2,1.1-1.1,1.1c-0.9,0-1-0.4-1-1.2
					c0-1.6,0-3.2,0-4.8c0.1-1.1-0.1-1.8-1.4-1.6c-0.7,0.1-1.4,0.2-1.3-0.9c0.1-1.1,0.9-0.7,1.4-0.7c2.1,0,4.1,0,6.2,0
					C694.9,654.2,694.9,654.8,694.9,655.4z"/>
				<path class="st17" d="M515.6,619.4c0.1-5.9,5-10.7,10.9-10.7c5.8,0,10.9,5.3,10.7,11.2c-0.2,5.9-5.1,10.6-11.1,10.5
					C520.2,630.2,515.5,625.3,515.6,619.4z"/>
				<path class="st18" d="M665.2,574.7c0-2.4,0-4.8,0-7.2c0-0.9,0.3-1.4,1.2-1.2c1,0.3,2.4-0.8,3.2,0.7c0.3,0.5,0.7-0.1,1-0.3
					c1.7-1.1,3.3-1,4.7,0.3c0.6,0.6,1,0.5,1.5,0c1.3-1.1,2.7-1.4,4.3-0.5c1.5,0.8,2.1,2,2.1,3.6c0,3.6,0,7.1,0,10.7
					c0,2-1.7,3.2-3.6,2.5c-0.8-0.3-0.5-0.9-0.5-1.4c0-3.3,0-6.5,0-9.8c0-0.9,0.1-2-1.2-2c-1.4-0.1-1.4,1-1.4,2c0,2.9,0,5.7,0,8.6
					c0,2.1-1.5,3.2-3.5,2.7c-0.8-0.2-0.8-0.8-0.8-1.5c0.1-3.3,0.1-6.5,0.1-9.8c0-0.2,0-0.3,0-0.5c-0.1-0.8-0.3-1.7-1.4-1.6
					c-1,0.1-1.3,0.8-1.3,1.7c0,2.9,0,5.8,0,8.8c0,2.3-0.6,2.8-2.8,2.9c-1.1,0-1.5-0.4-1.5-1.5C665.1,579.6,665.1,577.1,665.2,574.7
					C665.1,574.7,665.2,574.7,665.2,574.7z"/>
				<path class="st19" d="M620.6,663.4c0-2.9,0-5.8,0-8.8c0-1,0.2-1.4,1.3-1.4c3.3,0,3.2-0.1,3.3,3.2c0,1.6-0.7,3.7,0.3,4.8
					c1,0.9,3.1,0.2,4.6,0.3c1.7,0,3.3,0.3,4.8,1.1c2.4,1.3,3.5,3.9,2.9,6.7c-0.6,2.4-2.9,4.2-5.5,4.3c-3.5,0-7,0-10.5,0
					c-1,0-1.2-0.3-1.2-1.3C620.6,669.4,620.6,666.4,620.6,663.4z"/>
				<path class="st20" d="M641.6,574.6c0,1.8,0.1,3.7,0,5.5c-0.1,2.2-1,3.1-3.2,3.3c-5.9,0.6-7.3-0.8-7-6.7c0.2-3.6,1.1-4.5,4.7-4.6
					c0.7,0,1.6,0.1,1.6-0.9c0-1.2-1-0.8-1.7-0.9c-2.4-0.1-3.1-0.7-3.1-2.8c0-0.8,0.3-1.2,1.1-1.1c1.7,0,3.3,0,5,0.1
					c1.7,0.1,2.6,0.9,2.6,2.7C641.7,571,641.6,572.8,641.6,574.6C641.6,574.6,641.6,574.6,641.6,574.6z"/>
				<path class="st21" d="M653.3,573.7c0,1.9,0.1,3.9,0,5.8c-0.1,2.4-1.3,3.7-3.7,3.9c-1,0.1-2.1,0.1-3.1,0c-0.7,0-1.8,0.5-1.8-1
					c0-1.3,0.1-2.5,1.7-2.7c0.7-0.1,1.4,0,2.1-0.1c0.6,0,1-0.3,1-0.9c0-0.7-0.5-0.9-1-0.9c-0.5,0-1,0-1.5,0
					c-2.3-0.2-3.6-1.4-3.7-3.7c-0.1-2.2,0-4.4-0.1-6.5c0-0.9,0.3-1.3,1.2-1.2c0.5,0.1,1,0.1,1.5,0c0.9-0.1,1.2,0.3,1.2,1.2
					c0,1.6,0,3.2,0,4.8c0,0.9,0.2,1.6,1.3,1.6c1.2,0,1.2-0.8,1.2-1.7c0-1.5,0-3.1,0-4.6c0-1,0.2-1.4,1.3-1.3c0.5,0.1,0.9,0.1,1.4,0
					c1-0.1,1.3,0.3,1.3,1.2C653.3,569.6,653.3,571.7,653.3,573.7C653.3,573.7,653.3,573.7,653.3,573.7z"/>
				<path class="st21" d="M630.3,573c0,0.3,0,0.6,0,0.9c0,4.8-0.5,5.3-5.2,5.5c-0.9,0-1.2,0.4-1.1,1.2c0,0.5,0,1-0.2,1.5
					c-0.5,1.4-1.8,1.4-2.9,1.3c-1.3,0-0.8-1.1-0.8-1.9c0-3.7,0-7.4,0-11.2c0-3,1-4,4-4.1c0.1,0,0.1,0,0.2,0c5.1-0.1,6,0.7,6,5.8
					C630.3,572.4,630.3,572.7,630.3,573z"/>
				<path class="st22" d="M542.9,576c0-2.4,0-4.8,0-7.2c0-1,0.2-1.5,1.3-1.4c1.5,0.1,3.1,0,4.6,0c3.1,0.1,5.4,2.2,5.5,5
					c0.1,2.8-2,5-5.2,5.4c-0.2,0-0.5,0-0.7,0.1c-3.4,0.2-3.4,0.2-3.4,3.6c0,0.8,0,1.6,0,2.4c0,0.8-0.2,1.1-1.1,1.1
					c-0.9,0-1.2-0.3-1.2-1.2C543,581.2,542.9,578.6,542.9,576z"/>
				<path class="st23" d="M563.1,583.4c-2.6,2.2-4.6,2.5-6.6,1.3c-1.5-0.9-2.3-2.5-1.9-4.1c0.3-1.6,1.9-3,3.8-3.2
					c1.2-0.1,2.5-0.2,3.7,0.3c1,0.5,1.1,0,0.9-0.8c-0.5-2.1-3.2-3-5.2-1.7c-0.4,0.3-0.7,0.9-1.3,0.7c-0.5-0.2-1.2-0.4-1.3-1
					c-0.1-0.5,0.4-0.8,0.8-1c2-1.5,4.3-1.6,6.5-0.6c2.1,0.9,2.6,2.7,2.7,4.8c0,1.8,0,3.7,0,5.5c0,0.6,0.3,1.3-0.8,1.4
					C563.4,585.1,562.9,584.7,563.1,583.4z"/>
				<path class="st24" d="M659.5,623.5c-1.6,0-3.2,0-4.8,0c-1.1,0-1.6-0.3-1.2-1.5c0.8-2.5,1.5-5.1,2.1-7.6c0.3-1.1,0.9-1.6,2.1-1.6
					c3.2,0,6.3,0,9.5,0c0.7,0,1.4,0,1.4,1c0,1-0.7,1.1-1.5,1.1c-2.6,0-5.2,0.1-7.7-0.1c-1.4-0.1-1.9,0.5-2.2,1.7
					c-0.2,1.2-0.6,2.3-1,3.5c-0.4,1.2,0,1.5,1.2,1.4c2.5-0.1,5,0,7.6,0c0.5,0,1.3-0.4,1.4,0.4c0.1,0.8-0.4,1.6-1.4,1.6
					C663.1,623.5,661.3,623.5,659.5,623.5C659.5,623.5,659.5,623.5,659.5,623.5z"/>
				<path class="st25" d="M529.4,663.9c0-1.1,0-2.2,0-3.3c0-1.1,1.2-1.8,1.9-1c0.5,0.5,0.5,0.6,1,0.1c0.4-0.4,1.1-0.8,1.6-0.5
					c1.3,0.9,2.4,0.7,3.8,0.1c1.1-0.5,2.3,0.3,2.4,1.7c0.1,2.2,0,4.3,0.1,6.5c0,0.8-0.5,0.8-1,0.8c-0.6,0-1.1,0-1.1-0.9
					c0-1.5,0-3.1,0-4.6c0-0.7-0.1-1.5-1-1.5c-0.9,0-1.1,0.7-1.1,1.5c0,1.4,0,2.7,0,4.1c0,0.9-0.1,1.4-1.2,1.4c-1,0-1.1-0.5-1.1-1.3
					c0-1.4,0-2.9,0-4.3c0-0.6,0-1.4-0.9-1.4c-0.9-0.1-1.1,0.7-1.1,1.4c-0.1,1.5-0.1,3-0.1,4.5c0,0.7-0.1,1.2-1,1.2
					c-0.9,0-1.2-0.3-1.2-1.2C529.5,666.1,529.4,665,529.4,663.9z"/>
				<path class="st24" d="M679.8,619.2c-2.7,0-5.2,0-7.7,0c-0.8,0-1,0.4-1.1,1c-0.2,0.8-0.5,1.6-0.7,2.5c-0.2,1.1-1.1,0.9-1.8,0.8
					c-0.9-0.2-0.3-0.8-0.2-1.2c0.7-2.8,1.6-5.5,2.2-8.3c0.3-1.2,1-1.4,1.9-1.1c1,0.3,0.3,1,0.2,1.5c-0.7,2.8-0.7,2.8,2.1,2.8
					c0.6,0,1.1,0,1.7,0c1.3,0,2.7,0.3,3.7-0.2c1-0.5,0.9-2.1,1.2-3.3c0.3-1,1-1.1,1.7-0.9c1.1,0.2,0.4,1,0.3,1.5
					c-0.7,2.7-1.5,5.4-2.2,8.1c-0.3,1.1-0.9,1.2-1.8,1.1c-1.2-0.2-0.3-1-0.3-1.4C679.2,621.1,679.5,620.3,679.8,619.2z"/>
				<path class="st24" d="M635.3,623.5c-2.6-2.2-5.1-4.1-7.5-6.1c-0.9-0.7-1.2-0.6-1.4,0.5c-0.4,1.6-0.9,3.1-1.2,4.6
					c-0.2,1.2-1.1,1.1-1.8,0.9c-0.9-0.2-0.3-0.9-0.2-1.4c0.7-2.6,1.5-5.1,2.1-7.8c0.4-1.6,0.9-1.2,1.7-0.5c2.3,1.9,4.7,3.8,7.2,5.9
					c0.6-2.1,1.2-3.9,1.6-5.8c0.3-1.2,1-1.4,1.9-1.1c1,0.3,0.3,1,0.2,1.5C637,617.3,636.2,620.3,635.3,623.5z"/>
				<path class="st26" d="M517.3,571.6c2.6-5.4,9.7-7.3,14.6-3.9c0.9,0.7,1.1,1.2,0.1,1.9c-0.5,0.4-0.9,0.9-1.4,1.3
					c-0.3,0.3-0.5,0.4-1,0.2c-4.4-2-6.9-1.2-9.2,2.9C518.9,573.9,517.9,573,517.3,571.6z"/>
				<path class="st27" d="M520.4,578.3c2.5,4.1,5.3,5,9.4,3.1c1.4,0.4,2.5,1,3.1,2.4c-4.8,4.3-12.5,2.8-15.6-3.1
					C517.9,579.4,518.9,578.4,520.4,578.3z"/>
				<path class="st22" d="M568,590.1c0.8-1.6,1.4-3.2,2.2-4.7c0.4-0.8,0.4-1.4,0-2.2c-1.3-2.8-2.5-5.6-3.7-8.5
					c-0.2-0.5-1-1.1-0.1-1.5c0.8-0.3,1.7-0.3,2.1,0.9c0.7,1.9,1.6,3.8,2.3,5.7c0.2,0.6,0.5,1.1,0.9,2.1c1-2.5,1.9-4.6,2.8-6.8
					c0.2-0.5,0.4-1,0.6-1.4c0.4-0.9,1.3-0.7,1.9-0.5c0.7,0.3,0.1,0.9,0,1.3c-2.1,4.8-4.2,9.6-6.3,14.5
					C570.1,590.2,569.4,590.6,568,590.1z"/>
				<path class="st28" d="M532.9,583.8c-1-0.8-2.1-1.6-3.1-2.4c0,0,0.1-0.1,0.1-0.1c0.9-0.7,2-1.7,1.6-2.8c-0.3-0.8-1.8-0.2-2.7-0.3
					c-0.5-0.1-0.9-0.1-1.4,0c-0.9,0.1-1.2-0.3-1.1-1.2c0-0.5,0-1,0-1.5c-0.1-0.8,0.3-1.1,1.1-1.1c2.5,0,4.9,0,7.4,0
					c0.8,0,1.1,0.3,1.2,1.1C536.1,578.6,535.4,581.5,532.9,583.8z"/>
				<path class="st24" d="M636.9,623.4c4.1-3.7,7.9-7,11.9-10.6c1.1,3.5,2,6.7,3,10c0.1,0.4,0,0.7-0.5,0.7c-0.6,0-1.5,0.3-1.6-0.5
					c-0.3-1.7-1.4-1.6-2.6-1.6c-0.9,0-1.8,0.1-2.7,0c-1.4-0.1-2.6,0.2-3.5,1.3C639.9,623.9,638.6,623.4,636.9,623.4z"/>
				<path class="st29" d="M629.8,653.3c0.9,0,1.7,0,2.6,0c1.8,0,3.3,0.7,4.1,2.3c0.9,1.7,0.9,3.4-0.1,5.1c-0.6,1-3.4,1.1-4.1,0.2
					c-0.3-0.4,0.1-0.6,0.2-0.9c0.5-2-0.3-3.1-2.3-3.2c-0.9-0.1-1.8-0.1-2.7,0c-1.3,0.1-1.6-0.3-1.6-1.6c0-1.4,0.4-2,1.8-1.8
					C628.3,653.4,629,653.3,629.8,653.3z"/>
				<path class="st30" d="M645.4,658.2c0-0.1,0-0.1,0-0.2c0-4.9,0.1-5,5.1-4.4c1.9,0.2,2.8,1.8,1.8,3.5c-0.3,0.5-0.4,0.7,0.1,1.2
					c1.6,1.8,0.8,4-1.5,4.3c-1.5,0.2-3.1,0.1-4.6,0.2c-0.8,0-0.8-0.5-0.8-1C645.4,660.6,645.4,659.4,645.4,658.2z"/>
				<path class="st30" d="M645.4,668.7c0-0.1,0-0.2,0-0.3c0.1-1.3-0.6-3.4,0.3-3.9c1.5-0.7,3.5-0.4,5.2-0.1c1.4,0.2,2.1,1.8,1.5,3.1
					c-0.4,0.7-0.5,1.1,0.1,1.8c1.1,1.4,0.1,3.6-1.6,3.9c-1.6,0.2-3.2,0.1-4.8,0.2c-0.8,0-0.7-0.5-0.7-1
					C645.4,671.1,645.4,669.9,645.4,668.7z"/>
				<path class="st25" d="M523.9,659.2c2.6,0,3.6,1,3.7,3.1c0.1,1.5-0.4,3.1,0.5,4.5c0.3,0.6-0.5,0.9-0.9,1.3
					c-0.4,0.4-0.7,0.3-1-0.1c-0.5-0.7-0.8-0.4-1.4,0c-1,0.6-2.2,0.8-3.2,0.1c-0.9-0.6-1.1-1.5-1-2.6c0.2-1.3,1-2,2.2-2.4
					c0.4-0.1,0.9-0.1,1.3-0.2c0.4-0.1,1.1,0.1,1.1-0.8c0-0.4-0.1-0.8-0.5-1c-0.6-0.3-1.1-0.2-1.5,0.3c-0.2,0.2-0.2,0.4-0.4,0.6
					c-0.6,0.6-1.3,0.2-1.7,0c-0.6-0.4-0.1-0.9,0.2-1.3C522.1,659.5,523.2,659.2,523.9,659.2z"/>
				<path class="st31" d="M674.7,653.6c0.5,0,1,0,1.5,0c1.2-0.1,2.2,0.3,2.8,1.3c0.6,1.1,0.4,2.1-0.4,3c-0.4,0.4-0.4,0.6,0,1
					c0.7,0.7,0.6,1.7,0.7,2.6c0,0.6,0.4,1.3-0.7,1.3c-0.9,0-1.2-0.4-1.3-1.2c-0.3-2.3-0.6-2.5-2.6-2.5c-0.7,0-1.1,0.2-1,1
					c0,0.6,0,1.3,0,1.9c0,0.7-0.5,0.8-1,0.8c-0.6,0-1-0.1-1-0.8c0-2.5,0-5,0-7.6c0-0.7,0.4-0.8,1-0.8
					C673.4,653.7,674.1,653.6,674.7,653.6z"/>
				<path class="st25" d="M545.1,659.2c2.4,0,3.4,0.9,3.5,3.1c0.1,1.5-0.4,3.1,0.5,4.5c0.4,0.7-0.5,0.9-0.9,1.3
					c-0.3,0.4-0.7,0.4-1,0c-0.4-0.6-0.7-0.5-1.3-0.1c-1,0.7-2.1,0.8-3.2,0.1c-0.9-0.6-1.1-1.5-1-2.5c0.2-1.4,1-2.1,2.3-2.5
					c0.4-0.1,0.9-0.1,1.3-0.2c0.4-0.1,1,0.1,1-0.6c0-0.4-0.1-0.8-0.4-1.1c-0.5-0.3-1-0.3-1.4,0c-0.2,0.2-0.4,0.4-0.5,0.7
					c-0.6,0.8-1.4,0.3-1.8,0c-0.6-0.3,0-0.9,0.3-1.3C543,659.5,544.1,659.2,545.1,659.2z"/>
				<path class="st32" d="M572.3,664.8c0,0.8,0,1.6,0,2.4c0.1,0.9-0.3,1.2-1.2,1.2c-1,0-1.1-0.5-1.1-1.3c0-1.4,0-2.9,0-4.3
					c0-0.6,0-1.4-0.8-1.5c-0.9-0.1-1.2,0.7-1.2,1.4c-0.1,1.5-0.1,3,0,4.5c0,0.9-0.3,1.2-1.2,1.2c-0.9,0-1.1-0.4-1.1-1.1
					c0-2.2,0-4.3,0-6.5c0-1.2,1-1.8,1.9-1.1c0.7,0.6,0.8,0.2,1.3,0c1.6-0.9,3-0.2,3.3,1.6C572.4,662.3,572.3,663.6,572.3,664.8
					C572.4,664.8,572.3,664.8,572.3,664.8z"/>
				<path class="st33" d="M578.3,667.6c0,1.1,0,2.1,0,3c0,0.5,0,1-0.8,1c-0.7,0-0.9-0.3-0.9-0.9c0-3.4,0-6.9,0-10.3
					c0-0.9,0.7-1.3,1.2-0.8c0.7,0.7,1.1,0.2,1.6,0c2.3-1,4.5,0,5,2.5c0.2,1,0.2,2.1,0.1,3.1C583.9,668,581.7,668.9,578.3,667.6z"/>
				<path class="st34" d="M584.6,615.8c2.5,0,3.8,1.4,3.8,4c0,2.6-1.2,4-3.7,3.9c-1.2,0-1.1,0.5-1.1,1.3c0,0.7,0.3,1.5-1,1.6
					c-1.4,0-1-0.9-1-1.7c0-2.1,0-4.1,0-6.2C581.6,616.1,581.9,615.8,584.6,615.8z"/>
				<path class="st35" d="M542.4,621.3c0-1.1,0.1-2.3,0-3.4c-0.2-1.4,0.5-1.8,1.7-2c4.7-0.6,5.6,2,4.8,5.7c-0.3,1.5-1.7,2.3-3.3,2.2
					c-1.1-0.1-1.4,0.3-1.3,1.3c0,0.7,0.3,1.5-1,1.5c-1.3,0-0.9-0.9-1-1.5C542.3,623.8,542.4,622.5,542.4,621.3z"/>
				<path class="st25" d="M564.5,663.6c0,1.7-0.3,2.9-1.2,3.8c-1.6,1.7-4.2,1.3-5.3-0.7c-0.8-1.5-0.9-3.1-0.4-4.7
					c0.5-1.8,1.8-2.9,3.4-2.8c1.8,0.1,2.8,1.1,3.3,2.7C564.5,662.6,564.5,663.3,564.5,663.6z"/>
				<path class="st30" d="M653.9,658.1c0-1.2,0-2.4,0-3.6c0-0.8,0.3-0.9,1-0.9c0.7,0,1.1,0.1,1,0.9c0,0.1,0,0.2,0,0.3
					c0.1,2.1,1,2.8,3.1,2.2c1.1-0.3,0.4-1.3,0.6-2c0.1-0.6-0.4-1.5,0.8-1.4c0.7,0,1.2,0.1,1.1,1c-0.1,2.4,0,4.8,0,7.2
					c0,0.7-0.3,1-1,1c-0.8,0-1-0.3-1-1c0-0.3,0-0.7,0-1c0.2-1.5-0.3-2-1.9-2c-1.5,0-2.1,0.3-1.9,1.9c0.1,0.6,0.1,1.3-0.1,1.9
					c-0.2,0.6-0.9,0.3-1.4,0.3c-0.6,0-0.5-0.5-0.5-0.9C653.9,660.7,653.9,659.4,653.9,658.1z"/>
				<path class="st36" d="M550.4,621c0-1.4,0-2.7,0-4.1c0-0.6-0.1-1.2,0.8-1.2c0.8,0,1.3,0.4,1.2,1.1c-0.1,1.4,0.1,2,1.8,1.8
					c1.3-0.2,2.2,0.8,2.5,2.1c0.3,1.6,0.1,3.3,0.2,5c0,0.6-0.3,0.8-0.9,0.8c-0.7,0-1.1-0.2-1.1-1c0-1.1,0-2.3,0-3.4
					c0-1-0.2-1.7-1.4-1.8c-1.3-0.1-1,0.9-1,1.7c0,1.1,0,2.3,0,3.4c0,0.8-0.4,1.1-1.1,1.1c-0.8,0-0.9-0.4-0.9-1.1
					C550.4,624,550.4,622.5,550.4,621z"/>
				<path class="st37" d="M529.5,670.1c4.1,1.8,8.3,3,12.8,2.9c3-0.1,5.9-0.7,8.7-1.6c0.5-0.2,1.1-0.7,1.7-0.3
					c-3.6,5.5-16.9,5.2-23.7-0.5C529,670.2,529.1,670,529.5,670.1z"/>
				<path class="st16" d="M671.1,662.7c-1.2,0.3-2.2,0.4-2.5-1.1c-0.2-1.1-1.1-0.8-1.8-0.8c-0.8,0.1-1.8-0.5-2.2,0.7
					c-0.1,0.3-0.2,0.7-0.4,0.9c-0.4,0.6-1.1,0.4-1.6,0.3c-0.7-0.2-0.2-0.8-0.1-1.1c0.9-2.4,1.8-4.7,2.6-7.1c0.2-0.7,0.6-1,1.4-1
					c0.6,0.1,1.1-0.1,1.4,0.7C669,657.1,670.1,659.9,671.1,662.7z"/>
				<path class="st16" d="M687.7,662.8c-0.7,0.1-1.2,0-1.3-0.7c-0.2-1.3-1.1-1.4-2.1-1.4c-1.1,0-2-0.1-2.3,1.4
					c-0.2,1-1.1,0.8-1.7,0.6c-0.9-0.2-0.2-0.9-0.1-1.2c0.8-2.3,1.7-4.6,2.6-6.9c0.3-0.8,0.7-1,1.5-1c0.7,0,1.1,0.2,1.3,1
					c0.8,2.4,1.8,4.8,2.7,7.2C688.7,662.7,688.6,663,687.7,662.8z"/>
				<path class="st31" d="M687.3,673.2c-1.3,0.2-2.2,0.3-2.4-1.1c-0.2-1-1.1-0.7-1.7-0.6c-0.7,0.1-1.7-0.5-2,0.6
					c-0.3,1.3-1.1,1.4-2.4,1.1c1-2.8,2-5.6,3-8.4c0.3-0.8,0.9-0.4,1.4-0.5c0.7-0.1,1,0.2,1.2,0.8
					C685.4,667.8,686.3,670.5,687.3,673.2z"/>
				<path class="st38" d="M564.8,622.8c0,2.7-1,4-3.3,4c-2.4,0-3.5-1.2-3.5-4.2c0-2.8,1-4,3.3-4
					C563.8,618.6,564.8,619.8,564.8,622.8z"/>
				<path class="st16" d="M672.2,668.7c0-0.2,0-0.5,0-0.7c0.1-1.2-0.6-3.1,0.3-3.6c1.3-0.7,3.1-0.4,4.7-0.1c1.3,0.2,1.9,1.2,1.9,2.5
					c0,1.3-0.2,2.4-1.6,2.9c-0.5,0.2-1.1,0.3-1.7,0.3c-1.5-0.2-1.9,0.4-1.7,1.8c0.1,0.7,0.2,1.5-1,1.5c-1.2,0-0.9-0.8-0.9-1.4
					C672.2,670.9,672.2,669.8,672.2,668.7z"/>
				<path class="st39" d="M592.6,664.4c0,1,0,1.9,0,2.9c0,0.8-0.7,1-1,0.7c-0.8-0.9-1.4-0.1-2.1,0.1c-1.8,0.6-3.4-0.1-3.8-1.6
					c-0.5-1.8,0.6-3.2,2.6-3.5c0.4-0.1,0.8,0,1.2,0c0.5-0.1,1.3,0.9,1.4-0.4c0.1-1,0-1.9-1.2-2.1c-0.9-0.1-1.7,0-2.5,0.2
					c-0.4,0.1-0.8,0.3-1-0.3c-0.1-0.5,0.2-0.8,0.6-0.9c1.3-0.4,2.7-0.6,4.1-0.3c1.1,0.3,1.6,1.1,1.7,2.2
					C592.7,662.5,592.6,663.4,592.6,664.4C592.6,664.4,592.6,664.4,592.6,664.4z"/>
				<path class="st40" d="M553.4,665.2c0.9,0.2,1.7,0.4,2.4,0.6c1,0.3,0.9,1.1,0.7,1.8c-0.3,0.8-0.9,0.1-1.3,0
					c-1.3-0.4-2.6-0.5-3.9,0.1c-1.2,0.6-1.2-0.1-1.2-0.9c0-0.7,0.4-1.3,0.8-1.9c0.8-1.2,1.6-2.3,2.6-3.8c-0.9,0-1.6,0-2.2,0
					c-0.7,0-0.8-0.4-0.8-1c0-0.7,0.4-0.7,0.9-0.7c1.1,0,2.3,0,3.4,0c0.5,0,1.2-0.4,1.5,0.4c0.2,0.6,0,1.2-0.4,1.8
					C555,662.8,554.3,663.9,553.4,665.2z"/>
				<path class="st38" d="M589.3,622.6c0-2.8,0.8-3.9,2.9-4c2.5-0.1,3.9,1.4,3.5,3.9c-0.1,0.7-0.4,0.9-1,0.9c-0.7,0-1.4,0-2.1,0
					c-0.5,0-1.1-0.2-1.1,0.6c0,0.7,0.4,1,1,1.2c0.5,0.1,1-0.1,1.5-0.2c0.5-0.2,0.9-0.2,1.1,0.3c0.2,0.6-0.2,1-0.7,1.2
					c-2.9,1.1-5.5-0.4-5.1-3.1C589.3,623,589.3,622.8,589.3,622.6z"/>
				<path class="st41" d="M578,623.3c-0.7,0.2-1.5-0.4-2,0.4c-0.2,0.3,0,0.7,0.2,0.9c0.6,0.7,1.3,0.5,2.1,0.3
					c0.6-0.2,1.2-0.5,1.4,0.4c0.2,0.7-0.4,1-1,1.2c-2.7,1-4.8-0.4-4.9-3.3c-0.1-3.4,0.9-4.7,3.5-4.6c2.1,0.1,3.5,2.2,2.8,4.2
					C579.7,623.8,578.7,623.1,578,623.3z"/>
				<path class="st42" d="M597.9,666.4c0.8-2.2,1.4-4,2-5.8c0.3-1.1,0.8-1.4,2.1-1c-0.7,1.9-1.4,3.8-2.1,5.7
					c-0.6,1.7-1.2,3.3-1.9,4.9c-0.5,1.2-1.5,1.8-2.9,1.6c-0.4-0.1-0.8-0.3-0.8-0.8c0-0.6,0.4-0.5,0.8-0.6c1.6-0.3,2.3-1.6,1.8-3.1
					c-0.8-2.2-1.8-4.3-2.6-6.5c-0.1-0.4-0.9-1,0.1-1.3c0.7-0.2,1.3,0,1.5,0.9C596.3,662.3,597,664.1,597.9,666.4z"/>
				<path class="st34" d="M566.1,622.9c0-0.5,0-0.9,0-1.4c0-2.5,0.2-2.8,2.6-2.9c2.4-0.1,3.6,0.8,3.8,2.8c0.1,1.4,0,2.9,0,4.3
					c0,0.6-0.2,0.9-0.9,0.9c-0.6,0-1-0.3-1-0.9c0-1.2,0-2.4,0-3.6c0-0.9-0.3-1.7-1.4-1.7c-1.4,0-0.9,1-1,1.7c-0.1,1.1,0,2.3,0,3.4
					c0,0.7-0.2,1-1,1c-0.8,0-1.1-0.3-1.1-1.1C566.2,624.6,566.1,623.7,566.1,622.9z"/>
				<path class="st43" d="M686.3,664.4c3.3-0.9,2.7,2.3,4,3.4c1.4-0.9,0.6-4.3,3.9-3.4c-0.6,1.1-1.1,2.1-1.7,3.1
					c-0.8,1.4-1.6,2.9-1.3,4.7c0.1,0.7,0,1.2-1,1.2c-1,0-1-0.5-0.9-1.2c0.4-2.2-0.9-3.8-1.8-5.5
					C687.2,665.9,686.8,665.2,686.3,664.4z"/>
				<path class="st44" d="M520.4,578.3c-1.1,0.8-2.1,1.6-3.2,2.4c-1.6-3-1.6-6.1,0-9.1c1,0.9,2,1.8,3.2,2.4
					C520.1,575.4,520.1,576.8,520.4,578.3z"/>
				<path class="st45" d="M664.7,668.7c0-1.1,0-2.3,0-3.4c0-0.8,0.3-1.1,1.1-1.1c0.9,0,0.9,0.5,0.9,1.1c0,1.8,0,3.5,0,5.3
					c0,0.9,0.3,1.2,1.2,1.2c0.9-0.1,1.7,0,2.6,0c0.6,0,0.8,0.2,0.8,0.8c0,0.6-0.2,0.8-0.8,0.8c-1.6,0-3.2,0-4.8,0
					c-0.8,0-1-0.4-0.9-1.1C664.7,671.1,664.7,669.9,664.7,668.7z"/>
				<path class="st46" d="M659.3,668.1c0,3.5,0,3.5,3.4,3.7c0.5,0,1.2-0.2,1.2,0.8c0,0.9-0.6,0.8-1.1,0.8c-1.4,0-2.9,0-4.3,0
					c-0.8,0-1.1-0.1-1.1-1c0.1-2.3,0-4.7,0-7c0-0.6,0-1.1,0.9-1.1c0.8,0,1.1,0.3,1.1,1.1C659.2,666.2,659.3,667.2,659.3,668.1z"/>
				<path class="st47" d="M685.2,621.4c-0.8,0.4-1.2,1.3-2.1,1.6c-0.1-0.1-0.1-0.1-0.1-0.2c0.9-3.2,1.8-6.3,2.7-9.6
					c0.8,0.3,0.7,1.3,1.3,1.7c0.9,0.6,1.2,1.6,1.6,2.6c0.3,0.6,0,1.3-0.5,1.7C687.2,620,686.4,620.9,685.2,621.4z"/>
				<path class="st48" d="M656,668.9c0,1.1,0,2.3,0,3.4c0,0.8-0.3,1.1-1.1,1.1c-0.8,0-0.9-0.4-0.9-1.1c0-2.3,0-4.7,0-7
					c0-0.8,0.3-1.1,1.1-1.1c0.8,0,0.9,0.4,0.9,1.1C656,666.5,656,667.7,656,668.9z"/>
				<path class="st49" d="M685.2,621.4c0.1-0.2,0.2-0.4,0.4-0.5c2.5-1.5,3.2-3.4,1.3-5.9c0.2-0.6,0.5-1.1,0.7-1.7
					c0.1,0.1,0.2,0.1,0.3,0.2c0.8,1.6,2.3,3.3,2.1,4.7c-0.2,1.3-2.2,2.4-3.4,3.6c-0.5,0.5-1,0.9-1.6,1.5
					C684.8,622.5,685.4,622,685.2,621.4z"/>
				<path class="st50" d="M553.2,673.9c1.1-3.7,1.1-3.7-2.8-4.2c1.4-1.1,2.8-1,4.3-0.8c0.4,0.1,0.6,0.4,0.6,0.7
					C555.2,671.2,554.8,672.6,553.2,673.9z"/>
				<path class="st51" d="M641.6,673.4c0-6.6,0-13.3,0-19.9c0.1,0,0.2,0,0.2,0c0,6.6,0,13.3,0,19.9
					C641.7,673.4,641.7,673.4,641.6,673.4z"/>
				<path class="st52" d="M647.2,625.3c0.4,0.1,0.8,0.3,0.7,0.8c-0.1,0.5-0.4,1-1,1c-0.5,0-0.8-0.2-0.7-0.8
					C646.3,625.8,646.7,625.5,647.2,625.3z"/>
				<path class="st53" d="M681.5,627.2c-0.4,0.2-0.8,0.6-1.2,0.2c-0.3-0.4-0.1-0.8,0.1-1.1c0.2-0.4,0.3-0.9,0.8-1.1
					C682.1,625.7,682.1,626.4,681.5,627.2z"/>
				<path class="st54" d="M631.5,626c-0.3,0.6-0.7,1-1.3,1.1c-0.4,0-0.6-0.3-0.6-0.7c0-0.7,0.6-0.9,1.2-0.9
					C631.1,625.5,631.3,625.7,631.5,626z"/>
				<path class="st55" d="M657.8,626.8c-0.7,0-0.7-0.3-0.6-0.8c0.1-0.3-0.1-0.9,0.5-0.8c0.4,0.1,0.9,0.2,0.9,0.8
					C658.5,626.7,658.1,626.9,657.8,626.8z"/>
				<path class="st56" d="M666.1,627c0.2-0.6,0.3-1.3,1-1.2c0.3,0.1,0.9,0.8,0.1,1.1C667.1,627.1,666.6,626.8,666.1,627z"/>
				<path class="st57" d="M678,626c0.8-0.1,1.3-0.4,1.4,0.4c0,0.2-0.1,0.6-0.2,0.6C678.6,627,678.5,626.5,678,626z"/>
				<path class="st58" d="M669.7,625.5c0.1,0.6-0.2,1.1-0.7,1.4c-0.2,0.1-0.6,0.3-0.8,0.2c-0.3-0.3,0.1-0.6,0.1-0.9
					C668.7,625.7,669.1,625.3,669.7,625.5z"/>
				<path class="st59" d="M632,626.6c0.1-0.5,0.3-0.9,0.4-1.3C633.1,626.2,633.1,626.2,632,626.6z"/>
				<path class="st60" d="M628,625.1c-0.4,0.6-0.6,0.9-0.9,1.3c-0.1,0-0.3,0-0.3-0.1c-0.1-0.3-0.3-0.7-0.2-1
					C626.9,624.9,627.4,625.2,628,625.1z"/>
				<path class="st61" d="M687,626.2c0-0.5,0.1-1,0.8-1c0.1,0,0.3,0.1,0.4,0.2c-0.6,0.2,0,1.3-0.9,1.2
					C687.1,626.5,687.1,626.3,687,626.2z"/>
				<path class="st60" d="M634.7,627c0.2-1,0.4-1.4,1.1-1.2c0.1,0,0.3,0.4,0.3,0.5C635.9,627.1,635.2,626.4,634.7,627z"/>
				<path class="st62" d="M624.3,626.9c0.5-0.7,0.7-1.3,1.3-0.9c0.2,0.1,0.3,0.7,0.1,0.9C625.3,627.4,625,626.6,624.3,626.9z"/>
				<path class="st63" d="M664.5,627.1c-0.2-0.7-0.1-1.2,0.5-1.6c0.1,0,0.4,0.1,0.4,0.2C665.5,626.5,664.6,626.5,664.5,627.1z"/>
				<path class="st64" d="M681.5,627.2c0.3-0.7,0.3-1.4-0.3-2C682.9,625.5,682.4,626.3,681.5,627.2z"/>
				<path class="st65" d="M649.4,625.5c0,0.6,0.7,1,0.3,1.5c0,0.1-0.4,0-0.4,0C649,626.5,648.4,626.1,649.4,625.5z"/>
				<path class="st66" d="M655.1,627.1c-0.1-0.6-0.1-1.2,0.5-1.6c0.1,0,0.2,0,0.3,0.1C656.3,626.4,655.4,626.6,655.1,627.1z"/>
				<path class="st67" d="M652.3,625.3c0.5,0.5,0.3,1,0.2,1.5C651.7,626.4,651.7,625.9,652.3,625.3z"/>
				<path class="st68" d="M640.6,626.2c0.5,1.6-1.2,0.1-1.1,1c-0.2-0.6,0.2-0.7,0.4-1C640.1,626,640.4,625.9,640.6,626.2z"/>
				<path class="st69" d="M529.5,670.1c-0.2,0.2-0.3,0.3-0.5,0.5c-0.4-0.3-0.7-0.6-1.3-1.1C528.7,669.3,529.1,669.7,529.5,670.1z"/>
				<path class="st70" d="M637.2,625.9c-0.2,0.4,0.4,0.9,0,1.3c0,0-0.3,0-0.3,0C636.5,626.7,636.7,626.3,637.2,625.9z"/>
				<path class="st71" d="M669.7,625.5c-0.4,0.2-0.9,0.5-1.3,0.7C668.7,625,668.8,624.9,669.7,625.5z"/>
				<path class="st70" d="M645.7,625c-0.3,0.6-0.5,0.9-0.9,0.9c-0.1,0-0.3-0.4-0.3-0.6C644.7,624.8,645.2,625.3,645.7,625z"/>
				<path class="st72" d="M671.9,626.3c-0.3,0.1-0.4,0-0.4-0.3c0-0.2-0.1-0.6,0.3-0.6c0.2,0,0.4,0.2,0.5,0.4
					C672.5,626.3,672,626.2,671.9,626.3z"/>
				<path class="st73" d="M650.4,626.4c-0.3-0.1-0.3-0.3-0.3-0.5c0-0.3,0.2-0.5,0.5-0.5c0.1,0,0.2,0.4,0.1,0.6
					C650.8,626.2,650.7,626.4,650.4,626.4z"/>
				<path class="st74" d="M682.9,627c-0.4-0.5,0.1-0.9,0.1-1.4C683.3,626.1,683,626.6,682.9,627z"/>
				<path class="st75" d="M623,626.2c0.3,0,0.7-0.2,0.7,0.3c0,0.2-0.1,0.5-0.2,0.5c-0.3,0.1-0.5-0.1-0.5-0.4
					C622.9,626.5,622.9,626.3,623,626.2z"/>
				<path class="st76" d="M640.6,626.2c-0.2,0-0.5,0-0.7,0c0.2-0.4,0.4-0.9,0.8-0.8C641,625.5,641,625.9,640.6,626.2z"/>
				<path class="st77" d="M684.4,624.9c0.2,1,0.2,1.4-0.5,1.8C684.1,626.1,684.2,625.7,684.4,624.9z"/>
				<path class="st78" d="M623,626.2c0,0.2,0,0.3,0,0.5c0.1-0.8-1.3,0.2-0.9-0.7C622.3,625.5,622.7,625.8,623,626.2z"/>
				<path class="st79" d="M687,626.2c0.1,0.1,0.2,0.2,0.3,0.4c0.1,0.2,0.2,0.4,0.4,0.6c-0.2,0-0.5,0.2-0.6,0.1
					C686.4,627,687.1,626.5,687,626.2z"/>
				<path class="st80" d="M675.4,627.2c-0.1-0.3-0.2-0.5-0.2-0.7c-0.1-0.4,0.2-0.3,0.4-0.3c0.3,0,0.4,0.2,0.3,0.4
					C675.8,626.8,675.6,626.9,675.4,627.2z"/>
				<path class="st81" d="M663.1,627.3c-0.4,0-0.5-0.1-0.5-0.5c0-0.2,0.2-0.5,0.4-0.5c0.4,0,0.2,0.4,0.4,0.6
					C663.5,627.1,663.3,627.2,663.1,627.3z"/>
				<path class="st82" d="M641.8,627.1c-0.3-0.5,0-0.8,0.2-1.2C642.5,626.4,641.9,626.7,641.8,627.1z"/>
				<path class="st83" d="M673.6,625.5c0,0.3-0.1,0.5-0.3,0.5c-0.2,0.1-0.3-0.1-0.3-0.2c0.1-0.2,0.2-0.4,0.3-0.5
					C673.5,625.2,673.5,625.4,673.6,625.5z"/>
				<path class="st84" d="M628.4,627.1c-0.3-0.5-0.3-0.9,0.2-1.2C628.9,626.4,628.4,626.7,628.4,627.1z"/>
				<path class="st85" d="M526.4,615.6c-0.7-0.7-1.5-1.4-2.2-2.1c-0.3-0.4-1.4-0.7-0.7-1.3c0.5-0.5,1.5-0.7,2.2,0
					c0.7,0.8,1.5,1.6,2.2,2.5c0.6,0.8,1.2,1.5,2.4,1.3c0.5-0.1,0.9,0.2,0.9,0.8c0.1,0.6-0.2,0.9-0.7,0.9c-1,0-0.9,0.7-0.9,1.3
					c0,2.1,0,4.1,0,6.2c0,0.6,0.3,1.5-0.9,1.5c-1,0-1.4-0.5-1.3-1.4c0.1-1.1-0.2-1.4-1.4-1.2c-2.1,0.3-3.3-1-3.4-3.3
					c-0.1-1.2,0.7-2.8-1.3-3.3c-0.3-0.1-0.3-0.6-0.1-0.9c0.2-0.4,0.6-0.3,0.9-0.3c1.4,0,2.8,0,4.3,0
					C526.3,615.9,526.4,615.8,526.4,615.6z"/>
				<path class="st86" d="M628.4,670.2c-3.2,0-3.2,0-3.2-3.2c0-2.4,0-2.4,2.5-2.4c1.1,0,2.2-0.1,3.2,0c1.7,0.2,2.6,1.2,2.5,3
					c-0.1,1.6-0.9,2.4-2.6,2.5C630,670.3,629.2,670.2,628.4,670.2z"/>
				<path class="st87" d="M637.9,577.7c-0.3,0.6,0.6,1.9-0.9,1.9c-1.3,0-1.8-0.7-1.7-2c0.1-1-0.1-2.2,1.5-2.1
					C638.4,575.6,637.6,576.9,637.9,577.7z"/>
				<path class="st88" d="M623.9,572.7c0-2.3,0.2-2.7,1.6-2.3c0.5,0.1,0.9,0.3,0.9,0.9c0,1.1,0.1,2.3,0,3.4c-0.1,0.9-0.8,0.9-1.5,1
					c-0.9,0.1-1-0.6-1-1.2C623.9,573.8,623.9,573.3,623.9,572.7z"/>
				<path class="st89" d="M545.2,572.5c0-3.2,0-3.2,3.6-3c2.2,0.1,3.6,1.5,3.4,3.5c-0.1,1.5-0.9,2.4-2.4,2.7
					c-0.4,0.1-0.8,0.1-1.2,0.1C545.2,575.8,545.2,575.8,545.2,572.5z"/>
				<path class="st90" d="M560.6,579c0.7,0.1,2.1-0.1,2.3,1.1c0.3,1.2-0.6,2.1-1.6,2.8c-0.3,0.2-0.7,0.4-1.1,0.5
					c-1.1,0.3-2.2,0.1-3-0.7c-0.6-0.6-0.7-1.3-0.4-2c0.5-1.1,1.4-1.5,2.4-1.6C559.7,579,560,579,560.6,579z"/>
				<path class="st91" d="M644.7,619.3c1.1-1,2-1.8,2.9-2.6c0.6,0.8,1.2,2,0.7,2.4C647.5,619.7,646.2,619.2,644.7,619.3z"/>
				<path class="st92" d="M649,661.2c-0.8,0-1.7,0.3-1.7-1.2c0-1.2,0.5-1.4,1.5-1.3c0.9,0.1,2.1-0.2,2.1,1.3
					C651,661.3,650,661.2,649,661.2z"/>
				<path class="st93" d="M648.8,655.2c0.8,0.1,1.9-0.1,1.8,1.2c-0.1,1.2-1.1,1-2,1.1c-0.9,0.1-1.3-0.1-1.3-1.2
					C647.4,655,648,655.1,648.8,655.2z"/>
				<path class="st94" d="M648.4,671.9c-0.6,0.1-1.2,0-1.2-1.3c0-1.3,0.7-1.2,1.5-1.2c0.9,0.1,2.2-0.4,2.2,1.1
					C650.9,672,649.7,671.8,648.4,671.9z"/>
				<path class="st95" d="M648.7,667.8c-0.7-0.1-1.6,0.3-1.6-1c0-1.3,0.9-1.1,1.6-1.1c0.8,0,2-0.2,2,1
					C650.8,668.2,649.5,667.7,648.7,667.8z"/>
				<path class="st96" d="M525.3,665c-0.1,0.9-0.4,1.7-1.4,1.8c-0.8,0-1-0.6-0.9-1.1c0-1.1,0.9-1.5,1.8-1.6
					C525.6,664,525.2,664.6,525.3,665z"/>
				<path class="st97" d="M675.1,657.8c-0.9,0.2-1.4-0.1-1.4-1.3c0-1.1,0.4-1.4,1.4-1.3c0.9,0.1,2.1-0.2,2.2,1.3
					C677.4,657.9,676.2,657.8,675.1,657.8z"/>
				<path class="st96" d="M546.3,665c-0.1,0.8-0.3,1.7-1.4,1.7c-0.8,0-1-0.6-0.9-1.3c0.1-1.1,0.9-1.4,1.8-1.4
					C546.5,663.9,546.2,664.6,546.3,665z"/>
				<path class="st89" d="M578.3,663.7c0-2.5,0.5-3.1,2.2-3.1c1.5,0,2.3,1,2.3,3.2c0,2.2-0.7,3.2-2.2,3.2
					C578.7,666.9,578.3,666.3,578.3,663.7z"/>
				<path class="st98" d="M583.7,619.7c0.4-0.7-0.7-2.1,1.1-2.1c1.5,0,1.5,1.2,1.6,2.3c0,1.1-0.2,2.1-1.6,2.1
					C583.1,621.9,584,620.5,583.7,619.7z"/>
				<path class="st99" d="M544.3,619.7c0.4-0.7-0.7-2.1,1.1-2.1c1.7,0,1.6,1.3,1.6,2.4c0.1,1.2-0.3,2.1-1.7,2
					C543.7,621.9,544.7,620.5,544.3,619.7z"/>
				<path class="st100" d="M562.2,664c-0.2,1,0.3,2.6-1.3,2.6c-1.5,0-1.2-1.6-1.2-2.7c0-0.6,0-1.1,0.1-1.7c0.1-0.6,0.4-1.3,1.1-1.3
					c0.8,0,1.1,0.6,1.2,1.3C562.1,662.8,562.1,663.4,562.2,664z"/>
				<path class="st101" d="M666.5,656.4c0.6,0.9,1.4,1.8,1,2.6c-0.2,0.5-1.2,0.2-2,0.1C665.9,658.1,666.2,657.3,666.5,656.4z"/>
				<path class="st102" d="M684.3,656.3c0.2,1,1.3,1.8,0.6,2.8c-0.2,0.2-1.5,0.1-1.6,0C683.2,658.1,683.8,657.2,684.3,656.3z"/>
				<path class="st101" d="M683,666.5c0.3,1,0.6,1.6,0.7,2.2c0.1,0.4,0.6,0.9,0,1.2c-0.4,0.2-1.1,0.2-1.5,0c-0.7-0.3-0.1-0.8,0-1.1
					C682.4,668,682.7,667.4,683,666.5z"/>
				<path class="st103" d="M562.8,622.8c-0.1,0.8,0.3,1.7-0.7,2.1c-0.6,0.3-1.2,0.2-1.7-0.4c-0.5-0.6-0.4-3.3,0.1-3.8
					c0.5-0.5,1-0.5,1.6-0.2C563.1,621,562.7,622,562.8,622.8z"/>
				<path class="st104" d="M674.1,667.3c-0.2-1,0-1.6,1.2-1.5c0.9,0.1,1.8,0.1,1.8,1.3c0,1.1-0.7,1.4-1.7,1.4
					C674.6,668.5,673.8,668.5,674.1,667.3z"/>
				<path class="st91" d="M591,665.2c0.1,1.6-1.2,1.6-2.1,1.8c-1,0.2-1.5-0.4-1.5-1.4c0-1.2,1-1.4,2-1.4
					C590.1,664.3,591.1,663.9,591,665.2z"/>
				<path class="st105" d="M592.6,622.1c-0.5-0.1-1.2,0.2-1.2-0.7c0-0.8,0.4-1.2,1.2-1.2c0.7,0,1.2,0.4,1.2,1.1
					C593.8,622.3,593.1,622,592.6,622.1z"/>
				<path class="st106" d="M577.1,622.1c-0.4-0.1-1.2,0.3-1.2-0.6c0-0.7,0.4-1.2,1.1-1.2c0.7,0,1.2,0.3,1.3,1
					C578.4,622.2,577.8,622.1,577.1,622.1z"/>
				<path class="st107" d="M527.5,619.8c-0.3,0.9,0.6,2.4-1.3,2.3c-1.9-0.1-1.4-1.6-1.5-2.7c-0.1-1-0.1-1.8,1.4-1.8
					C528.3,617.6,527,619.2,527.5,619.8z"/>
			</g>
		</g>
		<text transform="matrix(1 0 0 1 558.3909 708.8717)" class="st108 st109">100+ apps</text>
		<g>
			<g>
				<path class="st110" d="M568.3,442.2v-25.4h9.9c2.2,0,4.1,0.4,5.7,1.1c1.6,0.7,2.8,1.7,3.6,3c0.8,1.3,1.3,2.9,1.3,4.8
					c0,1.8-0.4,3.4-1.3,4.7s-2.1,2.3-3.6,3c-1.6,0.7-3.5,1.1-5.7,1.1h-7.9l1.6-1.7v9.4H568.3z M571.9,433.2l-1.6-1.8h7.8
					c2.3,0,4.1-0.5,5.3-1.5c1.2-1,1.8-2.4,1.8-4.2s-0.6-3.2-1.8-4.2c-1.2-1-3-1.5-5.3-1.5h-7.8l1.6-1.8V433.2z"/>
				<path class="st110" d="M599.6,442.4c-1.4,0-2.7-0.2-3.8-0.7c-1.1-0.5-1.9-1.2-2.5-2c-0.6-0.9-0.9-1.8-0.9-2.9c0-1,0.2-2,0.7-2.8
					c0.5-0.8,1.3-1.5,2.4-2s2.6-0.8,4.6-0.8h6.1v2.5h-6c-1.7,0-2.9,0.3-3.5,0.9c-0.6,0.6-0.9,1.3-0.9,2.1c0,0.9,0.4,1.7,1.1,2.3
					s1.8,0.9,3.1,0.9c1.3,0,2.4-0.3,3.4-0.9c1-0.6,1.7-1.4,2.1-2.5l0.7,2.4c-0.5,1.1-1.3,2-2.4,2.7
					C602.8,442.1,601.4,442.4,599.6,442.4z M605.9,442.2v-4.1l-0.2-0.8v-6.9c0-1.5-0.4-2.6-1.3-3.4c-0.9-0.8-2.1-1.2-3.9-1.2
					c-1.1,0-2.2,0.2-3.3,0.6s-2,0.9-2.8,1.5l-1.5-2.6c1-0.8,2.2-1.4,3.6-1.8c1.4-0.4,2.8-0.6,4.4-0.6c2.6,0,4.7,0.6,6.1,1.9
					c1.4,1.3,2.1,3.2,2.1,5.9v11.6H605.9z"/>
				<path class="st110" d="M616.5,449.5c-0.9,0-1.8-0.2-2.7-0.5c-0.9-0.3-1.6-0.7-2.2-1.3l1.5-2.6c0.5,0.5,1,0.8,1.6,1.1
					s1.2,0.4,1.9,0.4c0.8,0,1.5-0.2,2.1-0.7s1.1-1.2,1.6-2.3l1.2-2.6l0.4-0.4l7.5-17.5h3.4l-9.3,21.2c-0.6,1.4-1.2,2.4-1.9,3.2
					s-1.4,1.3-2.3,1.7C618.4,449.3,617.5,449.5,616.5,449.5z M621.1,442.8l-8.8-19.9h3.6l7.5,17.1L621.1,442.8z"/>
				<path d="M518.9,486.1c-3.3,0-6-1-7.9-2.9s-2.9-4.7-2.9-8.4v-14.4h3.6v14.3c0,2.8,0.6,4.9,1.9,6.2c1.2,1.3,3,2,5.3,2
					c2.3,0,4.1-0.7,5.3-2c1.2-1.3,1.9-3.4,1.9-6.2v-14.3h3.5v14.4c0,3.7-1,6.5-2.8,8.4C524.8,485.1,522.2,486.1,518.9,486.1z"/>
				<path d="M542,486c-1.6,0-3.1-0.2-4.6-0.7s-2.6-1-3.4-1.6l1.5-2.8c0.8,0.6,1.8,1,3,1.4c1.2,0.4,2.4,0.6,3.7,0.6
					c1.6,0,2.8-0.2,3.5-0.7c0.7-0.5,1.1-1.1,1.1-1.9c0-0.6-0.2-1.1-0.7-1.4s-1-0.6-1.7-0.8c-0.7-0.2-1.5-0.3-2.4-0.5
					c-0.9-0.1-1.7-0.3-2.6-0.5c-0.9-0.2-1.7-0.5-2.4-0.9c-0.7-0.4-1.3-0.9-1.7-1.6c-0.4-0.7-0.7-1.6-0.7-2.7c0-1.2,0.3-2.2,1-3
					s1.6-1.5,2.8-2c1.2-0.5,2.6-0.7,4.3-0.7c1.3,0,2.5,0.2,3.8,0.5c1.3,0.3,2.4,0.7,3.2,1.3l-1.5,2.8c-0.9-0.6-1.8-1-2.7-1.2
					s-1.9-0.3-2.8-0.3c-1.5,0-2.7,0.2-3.4,0.7c-0.8,0.5-1.1,1.1-1.1,1.9c0,0.7,0.2,1.2,0.7,1.5c0.4,0.4,1,0.6,1.7,0.8
					c0.7,0.2,1.5,0.4,2.4,0.5c0.9,0.1,1.7,0.3,2.6,0.5c0.9,0.2,1.7,0.5,2.4,0.9c0.7,0.4,1.3,0.9,1.7,1.5c0.4,0.7,0.7,1.5,0.7,2.6
					c0,1.2-0.3,2.2-1,3c-0.7,0.8-1.6,1.5-2.9,2C545.2,485.8,543.8,486,542,486z"/>
				<path d="M556.4,462.8c-0.7,0-1.2-0.2-1.7-0.7c-0.4-0.4-0.7-1-0.7-1.6c0-0.7,0.2-1.2,0.7-1.6s1-0.7,1.7-0.7
					c0.7,0,1.2,0.2,1.7,0.6c0.4,0.4,0.7,0.9,0.7,1.6c0,0.7-0.2,1.2-0.7,1.7C557.7,462.6,557.1,462.8,556.4,462.8z M554.7,485.8
					v-19.2h3.5v19.2H554.7z"/>
				<path d="M575.1,466.4c1.6,0,3,0.3,4.2,0.9c1.2,0.6,2.1,1.5,2.8,2.8c0.7,1.2,1,2.8,1,4.7v11.1h-3.5v-10.7c0-1.9-0.5-3.3-1.4-4.2
					s-2.2-1.4-3.8-1.4c-1.2,0-2.3,0.2-3.2,0.7c-0.9,0.5-1.6,1.2-2.1,2.1c-0.5,0.9-0.7,2.1-0.7,3.5v9.9h-3.5v-19.2h3.3v5.2l-0.5-1.4
					c0.6-1.3,1.6-2.2,2.9-2.9C571.8,466.7,573.4,466.4,575.1,466.4z"/>
				<path d="M597.5,485c-1.9,0-3.5-0.4-5-1.2s-2.6-1.9-3.5-3.3c-0.9-1.4-1.3-3-1.3-4.9c0-1.9,0.4-3.5,1.3-4.9c0.9-1.4,2-2.5,3.5-3.2
					s3.1-1.2,5-1.2c1.6,0,3.1,0.3,4.5,1s2.4,1.7,3.2,3.1s1.2,3.1,1.2,5.2c0,2.1-0.4,3.8-1.2,5.2s-1.9,2.4-3.2,3.1
					S599.2,485,597.5,485z M598,493c-1.8,0-3.5-0.2-5.1-0.7s-3-1.2-4-2.1l1.7-2.7c0.9,0.8,2,1.4,3.3,1.8c1.3,0.4,2.7,0.7,4.1,0.7
					c2.3,0,3.9-0.5,5-1.6s1.6-2.7,1.6-4.9v-4.1l0.4-3.8l-0.2-3.8v-5.3h3.3v16.6c0,3.4-0.8,5.9-2.5,7.5S601.2,493,598,493z
					 M597.9,481.9c1.3,0,2.4-0.3,3.4-0.8s1.8-1.3,2.3-2.2s0.9-2,0.9-3.3c0-1.2-0.3-2.3-0.9-3.3s-1.3-1.7-2.3-2.2
					c-1-0.5-2.1-0.8-3.4-0.8s-2.4,0.3-3.4,0.8c-1,0.5-1.8,1.3-2.4,2.2s-0.9,2-0.9,3.3c0,1.2,0.3,2.3,0.9,3.3s1.4,1.7,2.4,2.2
					C595.5,481.7,596.6,481.9,597.9,481.9z"/>
				<path d="M621,485.8l11.5-25.4h3.6l11.5,25.4h-3.8l-10.3-23.4h1.5l-10.3,23.4H621z M625.9,479.4l1-2.9h14.3l1.1,2.9H625.9z"/>
				<path d="M661.2,466.4c1.6,0,3,0.3,4.2,0.9c1.2,0.6,2.1,1.5,2.8,2.8c0.7,1.2,1,2.8,1,4.7v11.1h-3.5v-10.7c0-1.9-0.5-3.3-1.4-4.2
					s-2.2-1.4-3.8-1.4c-1.2,0-2.3,0.2-3.2,0.7c-0.9,0.5-1.6,1.2-2.1,2.1c-0.5,0.9-0.7,2.1-0.7,3.5v9.9h-3.5v-19.2h3.3v5.2l-0.5-1.4
					c0.6-1.3,1.6-2.2,2.9-2.9C657.9,466.7,659.4,466.4,661.2,466.4z"/>
				<path d="M676.5,493c-0.9,0-1.8-0.2-2.7-0.5c-0.9-0.3-1.6-0.7-2.2-1.3l1.5-2.6c0.5,0.5,1,0.8,1.6,1.1s1.2,0.4,1.9,0.4
					c0.8,0,1.5-0.2,2.1-0.7s1.1-1.2,1.6-2.3l1.2-2.6l0.4-0.4l7.5-17.5h3.4l-9.3,21.2c-0.6,1.4-1.2,2.4-1.9,3.2s-1.4,1.3-2.3,1.7
					C678.3,492.9,677.4,493,676.5,493z M681,486.4l-8.8-19.8h3.6l7.5,17.1L681,486.4z"/>
				<path d="M576.8,529.5c-1.4,0-2.7-0.2-3.8-0.7c-1.1-0.5-1.9-1.2-2.5-2c-0.6-0.9-0.9-1.8-0.9-2.9c0-1,0.2-2,0.7-2.8
					c0.5-0.8,1.3-1.5,2.4-2s2.6-0.8,4.6-0.8h6.1v2.5h-6c-1.7,0-2.9,0.3-3.5,0.9c-0.6,0.6-0.9,1.3-0.9,2.1c0,0.9,0.4,1.7,1.1,2.3
					s1.8,0.9,3.1,0.9c1.3,0,2.4-0.3,3.4-0.9c1-0.6,1.7-1.4,2.1-2.5l0.7,2.4c-0.5,1.1-1.3,2-2.4,2.7
					C580,529.2,578.5,529.5,576.8,529.5z M583.1,529.3v-4.1l-0.2-0.8v-6.9c0-1.5-0.4-2.6-1.3-3.4c-0.9-0.8-2.1-1.2-3.9-1.2
					c-1.1,0-2.2,0.2-3.3,0.6s-2,0.9-2.8,1.5l-1.5-2.6c1-0.8,2.2-1.4,3.6-1.8c1.4-0.4,2.8-0.6,4.4-0.6c2.6,0,4.7,0.6,6.1,1.9
					c1.4,1.3,2.1,3.2,2.1,5.9v11.6H583.1z"/>
				<path d="M592.8,536.4v-26.3h3.3v5.2l-0.2,4.5l0.4,4.5v12.2H592.8z M603,529.5c-1.6,0-3.1-0.4-4.4-1.1c-1.3-0.7-2.4-1.8-3.2-3.3
					c-0.8-1.5-1.2-3.3-1.2-5.4c0-2.2,0.4-4,1.1-5.4c0.8-1.5,1.8-2.5,3.1-3.3c1.3-0.7,2.8-1.1,4.4-1.1c1.9,0,3.6,0.4,5,1.2
					c1.5,0.8,2.6,2,3.4,3.4s1.3,3.2,1.3,5.1c0,2-0.4,3.7-1.3,5.2c-0.8,1.5-2,2.6-3.4,3.4C606.6,529.1,604.9,529.5,603,529.5z
					 M602.8,526.5c1.2,0,2.3-0.3,3.3-0.8s1.8-1.3,2.3-2.4s0.9-2.2,0.9-3.6c0-1.4-0.3-2.6-0.9-3.6s-1.3-1.8-2.3-2.3s-2.1-0.8-3.3-0.8
					c-1.2,0-2.3,0.3-3.3,0.8s-1.8,1.3-2.3,2.3s-0.9,2.2-0.9,3.6c0,1.4,0.3,2.5,0.9,3.6s1.3,1.8,2.3,2.4S601.5,526.5,602.8,526.5z"/>
				<path d="M617.6,536.4v-26.3h3.3v5.2l-0.2,4.5l0.4,4.5v12.2H617.6z M627.8,529.5c-1.6,0-3.1-0.4-4.4-1.1
					c-1.3-0.7-2.4-1.8-3.2-3.3c-0.8-1.5-1.2-3.3-1.2-5.4c0-2.2,0.4-4,1.1-5.4c0.8-1.5,1.8-2.5,3.1-3.3c1.3-0.7,2.8-1.1,4.4-1.1
					c1.9,0,3.6,0.4,5,1.2c1.5,0.8,2.6,2,3.4,3.4s1.3,3.2,1.3,5.1c0,2-0.4,3.7-1.3,5.2c-0.8,1.5-2,2.6-3.4,3.4
					C631.3,529.1,629.7,529.5,627.8,529.5z M627.5,526.5c1.2,0,2.3-0.3,3.3-0.8s1.8-1.3,2.3-2.4s0.9-2.2,0.9-3.6
					c0-1.4-0.3-2.6-0.9-3.6s-1.3-1.8-2.3-2.3s-2.1-0.8-3.3-0.8c-1.2,0-2.3,0.3-3.3,0.8s-1.8,1.3-2.3,2.3s-0.9,2.2-0.9,3.6
					c0,1.4,0.3,2.5,0.9,3.6s1.3,1.8,2.3,2.4S626.3,526.5,627.5,526.5z"/>
			</g>
		</g>
	</g>
	<path class="st111" d="M365.8,608.6L528.4,840h77.4c0-46.1-42.2-43-69.6-89.1L427.6,521"/>
</g>
<path class="st4" d="M594.4,284.9c-3.7-9.2-12.7-13.6-19.5-11.3c-6.3,2.1-8.5,9.4-8.7,10.2"/>
<ellipse cx="580.3" cy="289.7" rx="8" ry="10.7"/>
</svg>
