<?xml version="1.0" encoding="utf-8"?>
<!-- Generator: Adobe Illustrator 24.3.0, SVG Export Plug-In . SVG Version: 6.00 Build 0)  -->
<svg version="1.1" id="Layer_1" xmlns="http://www.w3.org/2000/svg" xmlns:xlink="http://www.w3.org/1999/xlink" x="0px" y="0px"
	 viewBox="0 0 890 869" style="enable-background:new 0 0 890 869;" xml:space="preserve">
<style type="text/css">
	.st0{fill:#D9A077;stroke:#894818;stroke-width:3;stroke-miterlimit:10;}
	.st1{fill:#F4CD92;stroke:#894818;stroke-width:3;stroke-miterlimit:10;}
	.st2{fill:#442723;}
	.st3{fill:#5C3731;}
	.st4{fill:#1A2E35;}
	.st5{fill:#FFFFFF;}
	.st6{fill:#FFFFFF;stroke:url(#SVGID_1_);stroke-width:4.5;stroke-linecap:round;stroke-linejoin:round;}
	.st7{fill:none;stroke:#1F1F1F;stroke-width:4.5;stroke-linecap:round;stroke-linejoin:round;}
	.st8{fill:#894818;stroke:#1F1F1F;stroke-width:4.5;stroke-linecap:round;stroke-linejoin:round;}
	.st9{stroke:#1F1F1F;stroke-width:4.5;stroke-linecap:round;stroke-linejoin:round;}
	.st10{fill:#3C0E40;stroke:#3C2370;stroke-width:4.5;stroke-miterlimit:10;}
	.st11{fill:#1F1F1F;stroke:#1F1F1F;stroke-width:4.5;stroke-linecap:round;stroke-linejoin:round;}
	.st12{fill:#1F9327;stroke:#1F1F1F;stroke-width:4.5;stroke-linecap:round;stroke-linejoin:round;}
	.st13{opacity:0.53;}
	.st14{fill:#154818;}
	.st15{fill:none;stroke:#31CE0D;stroke-width:20;stroke-linecap:round;stroke-linejoin:round;}
</style>
<g>
	<rect x="1605.9" y="767.4" class="st0" width="252.7" height="217.3"/>
	<polygon class="st1" points="1801.6,706.4 1656.3,706.4 1605.9,767.4 1858.5,767.4 	"/>
	<rect x="1698.6" y="706.4" class="st2" width="60.1" height="61.1"/>
	<rect x="1698.6" y="767.4" class="st3" width="60.1" height="30.5"/>
	<g>
		<g>
			<polygon class="st4" points="1667.7,975.1 1666,975.1 1666.4,949.2 1668.2,949.3 			"/>
			<polygon class="st4" points="1671.9,975.2 1670.2,975.2 1670.6,949.3 1672.4,949.3 			"/>
			<polygon class="st4" points="1676.1,975.3 1674.4,975.2 1674.8,949.4 1676.6,949.4 			"/>
			<polygon class="st4" points="1680.3,975.3 1678.6,975.3 1679,949.5 1680.8,949.5 			"/>
			<polygon class="st4" points="1684.6,975.4 1682.8,975.4 1683.2,949.5 1685,949.6 			"/>
			<polygon class="st4" points="1688.8,975.5 1687,975.5 1687.4,949.6 1689.2,949.7 			"/>
			<polygon class="st4" points="1693,975.6 1691.2,975.5 1691.7,949.7 1693.4,949.7 			"/>
			<polygon class="st4" points="1697.2,975.7 1695.4,975.6 1695.9,949.8 1697.6,949.8 			"/>
			<polygon class="st4" points="1701.4,975.7 1699.6,975.7 1700.1,949.9 1701.8,949.9 			"/>
		</g>
		<path class="st4" d="M1648.8,972.8l6.7,2.1l-15.8-0.3l6.8-1.9l0.2-9.5c-4.8-0.8-6.7-5.8-6.5-14.5l15.8,0.3
			c-0.1,8.7-2.1,13.7-7,14.2L1648.8,972.8z"/>
		<polygon class="st4" points="1636.2,961.9 1632.1,961.8 1631.9,974.4 1621.3,974.2 1621.5,961.6 1617.3,961.5 1627,948.5 		"/>
	</g>
	<rect x="1743.4" y="944.9" class="st5" width="99.3" height="32.4"/>
</g>
<g>
	<radialGradient id="SVGID_1_" cx="1468.043" cy="415.4992" r="66.256" gradientUnits="userSpaceOnUse">
		<stop  offset="0" style="stop-color:#BAACE9"/>
		<stop  offset="1" style="stop-color:#8B81AE"/>
	</radialGradient>
	<path class="st6" d="M1468,479.5c35.3,0,64-28.7,64-64s-28.7-64-64-64c-35.3,0-64,28.7-64,64S1432.7,479.5,1468,479.5z"/>
	<polyline class="st7" points="1444.9,403 1466.7,428.2 1501.5,393.4 	"/>
</g>
<g>
	<path class="st8" d="M403.9,308.4c0-0.2,0.1-0.5,0.2-0.8c-3.8-1.1-8-1-11.8,0.2c-14,4.1-11.3,21.1-3.3,31.8
		c5.8,7.7,12.3,12.5,17.6,15.3C401.9,339.7,400.3,322.8,403.9,308.4L403.9,308.4z M563.6,325.5c-3.1-7.5-10.5-7.1-15.6-5.8
		c0,3.3-0.2,6.7-0.8,10c-2.1,11-8,23.2-17.2,35c4.8-1.6,9.5-3.6,13.8-6.1C556.1,351.4,568.5,337.7,563.6,325.5z"/>
	<path class="st8" d="M405.5,308.4c-5.1,27.8,3.8,65,16.5,81.3c16.5,21.2,54.3,23.6,75.4,8.2c25.9-18.9,43.6-46,47.1-68.3
		c3.5-22.4-4.7-66-56.6-76.6C434.1,242,410.3,282.5,405.5,308.4L405.5,308.4z"/>
	<path class="st9" d="M496.8,253.7c-0.2,0.2-0.4,0.4-0.5,0.6c-0.2,0.2-0.4,0.4-0.5,0.6c44.9,13.2,52.2,53.4,48.8,74.7
		c-1.4,8.9-5,18.5-10.5,28c-30-4.5-53.2-48.1-53.2-48.1s-23.6,20-49.5,25.9c-8.8,2.1-17.9,2.5-26.8,1.1c-0.9-9.4-0.6-18.9,0.9-28.2
		c4.1-22.6,22.8-56.3,63.3-57.2c0.4-0.8,0.7-1.7,1.1-2.5c-2.9,0.5-12.1,1.7-17.4-3.6c-7.7-7.8-2.6-25.2,6.3-33.7
		c14.9-14.3,46.5-10.1,54.5,5.8c3.4,6.8,2.6,15.7-0.8,22.6C507.7,249.5,498.8,252.9,496.8,253.7z"/>
	<path class="st10" d="M730.8,477.8c-30.6-43.6-83.7-51.9-120.2-43.6c-36.5,8.2-83.7,20-148.5,17.7c-64.8-2.3-100.2-17.7-150.8-31.8
		c-43.1-12-84.8-1.2-121.4,40.1C158,496.2,48.9,636.1,49.6,635.4c19.4-20,63.5,2.2,119.6,41.1c54,37.5,87.2,69,81.8,90.1l17.8-39
		l14.2,76.6h388.9l-4.7-72.4c-2.7-25.5,16.5-46.8,51.9-65.2c41.7-21.7,111-34.6,137.2-7.5C837.1,631.3,757.6,516,730.8,477.8
		L730.8,477.8z"/>
	<path class="st11" d="M48,637.2c18.4-23.2,63.5-0.8,121.2,39.2s91.6,73.3,80.1,94.3c-12.7,23.2-54.2,18.9-110.7-20
		C82,711.8,24.3,667,48,637.2z M667.1,731.8c-2.7-25.5,16.5-46.8,51.9-65.2c44.2-23,119.2-36.1,141.4-2.4
		c30.2,46-40.7,77.2-97.2,89.6C721.1,763.1,669.4,752.4,667.1,731.8z"/>
	<path class="st7" d="M10.2,804.2H879"/>
	<path class="st8" d="M823.8,643.9c0,0,14.9,24.9,29.9,56.7s3.5,103.4-46,103.4h-236c-31.8,0-63.6-22.3-63.6-59.6V594.2
		c0-10.6,14.2-13.5,17.7,3c2.6,12.2,20.9,89.6,29.7,126.8c2.7,11.2,13.6,18.5,25,16.6l93-18.1c0,0,0.7-13.8,13.3-28
		c18-20.3,53.8-38.1,88.2-46.1C804.8,641.6,823.8,643.8,823.8,643.9L823.8,643.9z"/>
	<path class="st7" d="M767.3,700.8l-100.3,22l-47-85.6"/>
	<path class="st8" d="M504.1,451.5c-8.6-13.3-13.7-31.4-15.5-48.6c-18.4,8.1-43.3,6.3-59.2-5.8c-8.6,19.1-21.2,35.5-34.7,46.5
		c-16.9-3.7-32.5-8.3-48.5-13.1l-3.1-0.9c0,0,47,109.9,127.1,98.1c76.5-11.3,102.5-79.4,104.7-85.6
		C551.6,446.9,527.9,450,504.1,451.5L504.1,451.5z"/>
	<path class="st8" d="M96.3,637.8c0,0-18.6,23.7-32.3,69.9s0,96.6,35.9,96.6H170L259,654.7c0,0,42.7-22.2,68.4-49.6
		c25.7-27.4,51.3-74.1,51.3-74.1h47.9c7.4,0,11.4-14.8,0.6-19.8c-6.2-2.8-16.7-0.8-16.7-0.8s-1.9-5.3-10.8-5.5
		c-11-0.2-15,1.9-15,1.9s-3.2-4.4-17.7-4.2c-17.3,0.2-78.3,12.3-101.1,32.3S157.6,671.2,157.6,671.2s-9.4-6.7-28.7-17.9
		C109.7,642.2,96.3,637.8,96.3,637.8L96.3,637.8z"/>
	<path class="st7" d="M386.7,508.3c3.3,3.4,4,8.6,1.6,12.6c-2.7,4.2-6,5.4-6,5.4 M406,511c1.1,2,1.9,6.5,0.1,9.9
		c-2.2,4.4-6,5.4-6,5.4 M154.7,666.6l-40.3,53 M268.8,727.6l10.6-22.7"/>
	<path class="st7" d="M456.7,384.2c-11.2-2.4-10.6-4.6-5.3-9.3c5.3-4.7,9.1-15.2,9.1-19.9"/>
	<path class="st7" d="M501.9,632.2c0,0,0.9-10.8,9.4-13c8.2-2.1,13.5,4.4,14.7,8.5 M501.9,611.3c0,0,0.7-8,7.4-9.1
		s11.8,4.4,13.6,10.9"/>
	<path class="st8" d="M448.3,349.9c-2.3-5.8-8.1-8.6-12.4-7.1c-4,1.4-5.4,5.9-5.5,6.5"/>
	<path class="st8" d="M505.2,351.6c-2.3-5.8-8.1-8.6-12.4-7.1c-4,1.4-5.4,5.9-5.5,6.5"/>
	<path class="st8" d="M549.7,326.3c6,2,9.1,7.5,7.9,11.9c-1.1,4.1-5.6,5.8-6.1,5.9"/>
	<path class="st8" d="M398.7,316.5c-6,2-9.1,7.5-7.9,11.9c1.1,4.1,5.6,5.8,6.1,5.9"/>
	<path class="st8" d="M464,395c5.3,2.7,10,2.7,11.5,0.6c0.3-0.4,1.9-1.9,1.7-3.5"/>
	<ellipse cx="439.4" cy="352.9" rx="5.1" ry="6.8"/>
	<ellipse cx="496.3" cy="356" rx="5.1" ry="6.8"/>
	<g>
		<circle class="st12" cx="369.6" cy="666.6" r="138"/>
		<g class="st13">
			<path class="st14" d="M369.6,522.3c-79.7,0-144.3,64.6-144.3,144.3S289.9,811,369.6,811S514,746.4,514,666.6
				S449.3,522.3,369.6,522.3z M369.6,798.8c-73,0-132.2-59.2-132.2-132.2s59.2-132.2,132.2-132.2c73,0,132.2,59.2,132.2,132.2
				S442.6,798.8,369.6,798.8z"/>
			<circle class="st14" cx="369.6" cy="666.6" r="91.3"/>
		</g>
		<path class="st15" d="M313,669.7c6.2,8.4,12.4,16.9,18.6,25.3c5.1,6.9,15.2,7.8,21.3,1.8c24.5-23.9,48.9-47.8,73.4-71.7"/>
	</g>
</g>
</svg>
