<?xml version="1.0" encoding="utf-8"?>
<!-- Generator: Adobe Illustrator 24.3.0, SVG Export Plug-In . SVG Version: 6.00 Build 0)  -->
<svg version="1.1" id="Layer_1" xmlns="http://www.w3.org/2000/svg" xmlns:xlink="http://www.w3.org/1999/xlink" x="0px" y="0px"
	 viewBox="0 0 890 869" style="enable-background:new 0 0 890 869;" xml:space="preserve">
<style type="text/css">
	.st0{fill:#894818;stroke:#1F1F1F;stroke-width:4.5;stroke-linecap:round;stroke-linejoin:round;}
	.st1{fill:#007BFF;}
	.st2{fill:#FFFFFF;}
	.st3{fill:#FFFFFF;stroke:#1F1F1F;stroke-miterlimit:10;}
	.st4{fill:#A3A3A3;}
	.st5{fill:none;stroke:#1F1F1F;stroke-width:4.5;stroke-linecap:round;stroke-linejoin:round;}
	.st6{fill:#1F1F1F;stroke:#1F1F1F;stroke-width:4.5;stroke-linecap:round;stroke-linejoin:round;}
	.st7{stroke:#1F1F1F;stroke-width:4.5;stroke-linecap:round;stroke-linejoin:round;}
	.st8{fill:#3C0E40;stroke:#3C2370;stroke-width:4.5;stroke-miterlimit:10;}
</style>
<g>
	<g>
		<g>
			<path class="st0" d="M141.6,545.4c8.4,0.5,10.2,5.1,9.1,10.1c-0.9,4-8.9,7.5-15,8.4c-7.3,1.1-13.5,3.7-21.8,8.2
				c-8.4,4.4-10.5,9.2-17.9,10.6c-8.2,1.5-15-11.3-6-19.4c7.8-7.1,19-10.8,28.5-13S134.3,544.9,141.6,545.4L141.6,545.4z"/>
			<path class="st0" d="M113,531.7c16.1-4.4,34.9-5.1,45.6-2.2c9.2,2.5,9.9,12.1,5.4,15.8c-3.7,3-14.9,3.2-20.3,2.5
				c-9-1.2-32.9,7.4-41.8,14.1c-8.9,6.7-20.3,2.5-20.6-7.4S91.5,537.6,113,531.7z"/>
			<path class="st0" d="M113.2,512.3c14.3-4,31.1-4.6,40.6-2c8.2,2.2,8.8,10.8,4.9,14.1c-3.3,2.7-13.2,2.9-18.1,2.2
				c-8-1.1-29.4,6.6-37.3,12.6s-18.1,2.2-18.3-6.6C84.8,523.8,94,517.6,113.2,512.3L113.2,512.3z"/>
		</g>
		<path class="st0" d="M92.3,512.6c19.2-12.6,39.3-23.3,48.6-24.1c10.6-0.9,14.6,8.2,7.3,14.1c-5.9,4.8-11,8.4-11,8.4
			c5.7,3.1,6.2,12.4,0,17.9c-13.6,12.1-35.4,33.3-35.4,33.3c1.3,33.1-21.2,63.5-21.2,63.5s1.3,19.9,14.6,49
			c12.3,27.1,29.6,56.9,61.8,60c38.7,3.7,56.5-25.6,77.3-53.4c1.7-2.3,3.5-5.1,5.5-8.2c20.7,1.5,43.7,10.5,75.5,31
			c9.4,6.1,18.4,12.9,26.8,20.4l-1.4,2.4c-14.1,23.7-42.1,53.8-74,77.5c-48.3,35.9-102.1,30.5-133.1,17.8
			c-46.3-19-79.7-59.9-94-115.2C20.7,634.3,40.3,546.7,92.3,512.6L92.3,512.6z"/>
	</g>
	<g>
		<g>
			<path class="st1" d="M93,599.8l21.7-71.2c0.4-1.3,1.8-2,3.1-1.6l21.5,6.5c1.3,0.4,2,1.8,1.6,3.1l-21.7,71.2
				c-0.4,1.3-1.8,2-3.1,1.6l-21.5-6.5C93.3,602.5,92.6,601.1,93,599.8z"/>
			<g>
				<path class="st2" d="M117.5,551.8c0.2-0.6,0.4-1.1,0.8-1.6c0.3-0.5,0.7-0.8,1.1-1l0.5,0.5c-0.3,0.2-0.7,0.5-1,0.9
					c-0.3,0.4-0.6,0.9-0.7,1.4c-0.1,0.5-0.2,0.9-0.2,1.2c0,0.3,0.1,0.6,0.3,0.8c0.2,0.2,0.4,0.3,0.6,0.4c0.3,0.1,0.6,0.1,0.8,0
					c0.2-0.1,0.4-0.3,0.6-0.5c0.2-0.2,0.4-0.5,0.6-0.8c0.2-0.3,0.4-0.6,0.6-0.9c0.2-0.3,0.4-0.6,0.7-0.8c0.2-0.2,0.5-0.4,0.8-0.5
					c0.3-0.1,0.7-0.1,1.1,0c0.4,0.1,0.7,0.3,1,0.6c0.3,0.3,0.4,0.7,0.5,1.2c0.1,0.5,0,1-0.2,1.7c-0.1,0.4-0.3,0.8-0.6,1.2
					c-0.3,0.4-0.5,0.7-0.8,0.9l-0.6-0.5c0.3-0.3,0.6-0.6,0.8-0.9c0.2-0.3,0.4-0.7,0.5-1c0.1-0.5,0.2-0.9,0.2-1.2
					c0-0.3-0.1-0.6-0.3-0.8c-0.2-0.2-0.4-0.4-0.6-0.4c-0.3-0.1-0.6-0.1-0.8,0c-0.2,0.1-0.4,0.3-0.6,0.6s-0.4,0.5-0.6,0.8
					c-0.2,0.3-0.4,0.6-0.6,0.9c-0.2,0.3-0.4,0.6-0.7,0.8c-0.2,0.2-0.5,0.4-0.8,0.5c-0.3,0.1-0.7,0.1-1.1,0c-0.4-0.1-0.7-0.3-0.9-0.6
					c-0.3-0.3-0.4-0.7-0.5-1.2C117.3,553.1,117.3,552.5,117.5,551.8z"/>
				<path class="st2" d="M115.4,558.8c0.2-0.6,0.5-1.1,0.9-1.5c0.4-0.4,0.8-0.6,1.4-0.7c0.5-0.1,1.1-0.1,1.6,0.1
					c0.6,0.2,1,0.5,1.4,0.8c0.4,0.4,0.6,0.8,0.7,1.3c0.1,0.5,0.1,1-0.1,1.6c-0.2,0.5-0.4,1-0.8,1.3c-0.4,0.3-0.8,0.6-1.3,0.7
					c-0.5,0.1-1.1,0.1-1.6-0.1c0,0-0.1,0-0.1,0c0,0-0.1,0,0,0l1.5-5l0.6,0.2l-1.4,4.6l-0.3-0.4c0.4,0.1,0.8,0.2,1.2,0.1
					c0.4-0.1,0.7-0.2,1-0.5c0.3-0.3,0.5-0.6,0.6-1c0.1-0.4,0.1-0.8,0-1.2c-0.1-0.4-0.3-0.7-0.5-1c-0.3-0.3-0.6-0.5-1.1-0.5l-0.1,0
					c-0.4-0.3-0.8-0.3-1.2-0.2c-0.4,0.1-0.7,0.3-1,0.6c-0.3,0.3-0.5,0.7-0.6,1.1c-0.1,0.4-0.1,0.7-0.1,1c0,0.3,0.1,0.7,0.3,1
					l-0.6,0.3c-0.2-0.4-0.4-0.7-0.4-1.2C115.2,559.7,115.3,559.2,115.4,558.8z"/>
				<path class="st2" d="M113.8,564.3c0.1-0.4,0.3-0.8,0.6-1.1c0.2-0.3,0.5-0.5,0.8-0.6c0.3-0.1,0.6-0.1,1,0
					c0.3,0.1,0.6,0.3,0.8,0.5c0.2,0.2,0.3,0.5,0.4,0.9c0.1,0.4,0,0.9-0.2,1.4l-0.6,2l-0.6-0.2l0.6-2c0.2-0.6,0.2-1,0.1-1.3
					c-0.1-0.3-0.4-0.5-0.7-0.6c-0.3-0.1-0.6-0.1-0.9,0.1c-0.3,0.2-0.5,0.5-0.6,1c-0.1,0.4-0.2,0.9,0,1.3c0.1,0.4,0.3,0.7,0.7,1
					l-0.6,0c-0.3-0.3-0.6-0.6-0.7-1.1C113.6,565.4,113.6,564.9,113.8,564.3z M113.3,566.2l1.2,0.4l0.1,0.4l2.1,0.7
					c0,0,0.9,0,1.3-0.2c0.3-0.2,0.6-0.6,0.8-1.1c0.1-0.4,0.2-0.7,0.1-1.1c0-0.4-0.1-0.7-0.2-1l0.7-0.2c0.2,0.4,0.2,0.8,0.3,1.2
					c0,0.5-0.1,0.9-0.2,1.4c-0.2,0.7-0.6,1.3-1.1,1.6s-1.1,0.3-1.9,0.3l-3.5-1.1L113.3,566.2z"/>
				<path class="st2" d="M112.4,569.2l5.7,1.7l-0.3,0.9l-1.6-0.5l0.3,0c0.4,0.3,0.6,0.7,0.8,1.1c0.1,0.4,0.1,0.9-0.1,1.5l-0.7-0.2
					c0,0,0-0.1,0-0.1c0,0,0-0.1,0-0.1c0.2-0.6,0.1-1.1-0.1-1.6c-0.3-0.4-0.7-0.8-1.4-1l-2.9-0.9L112.4,569.2z"/>
				<path class="st2" d="M110.2,576c0.2-0.6,0.5-1,0.8-1.4c0.4-0.4,0.8-0.6,1.4-0.7s1.1-0.1,1.6,0.1c0.6,0.2,1.1,0.5,1.4,0.9
					c0.4,0.4,0.6,0.9,0.7,1.4c0.1,0.5,0.1,1.1-0.1,1.7c-0.1,0.5-0.4,0.9-0.7,1.2c-0.3,0.3-0.7,0.6-1.1,0.7L114,579
					c0.4-0.1,0.6-0.3,0.9-0.5c0.2-0.3,0.4-0.5,0.5-0.9c0.1-0.4,0.1-0.8,0.1-1.2c-0.1-0.4-0.3-0.7-0.5-1c-0.3-0.3-0.6-0.5-1.1-0.6
					c-0.5-0.1-0.9-0.2-1.3-0.1c-0.4,0.1-0.7,0.3-1,0.5c-0.3,0.3-0.5,0.6-0.6,1c-0.1,0.3-0.1,0.7-0.1,1c0.1,0.3,0.2,0.6,0.4,0.9
					l-0.6,0.5c-0.3-0.3-0.5-0.7-0.6-1.2C110,576.9,110,576.4,110.2,576z"/>
				<path class="st2" d="M114,584.4c-0.1,0.5-0.4,0.8-0.6,1.1c-0.3,0.3-0.6,0.5-1.1,0.6c-0.4,0.1-0.9,0-1.5-0.1l-3.3-1l0.2-0.6
					l3.3,1c0.6,0.2,1.1,0.2,1.5,0c0.4-0.2,0.7-0.6,0.9-1.2c0.1-0.4,0.2-0.8,0.1-1.2c-0.1-0.4-0.2-0.7-0.5-0.9
					c-0.3-0.3-0.6-0.5-1.1-0.6l-3-0.9l0.3-0.9l8,2.4L117,583l-3.9-1.2l0.3-0.1c0.4,0.3,0.6,0.7,0.7,1.2
					C114.2,583.3,114.2,583.8,114,584.4z"/>
			</g>
		</g>
		<g>
			<path class="st3" d="M115.7,518.3l74-243.1c0.4-1.3,1.8-2,3.1-1.6l23.3,7.1c1.3,0.4,2,1.8,1.6,3.1l-74,243.1
				c-0.4,1.3-1.8,2-3.1,1.6l-23.3-7.1C116,521,115.3,519.6,115.7,518.3z"/>
			<g>
				<g>
					<path class="st4" d="M198.7,284.5l5.6,1.7l-0.2,0.7l-1.5-0.5l0.3,0c0.4,0.3,0.6,0.6,0.7,1.1c0.1,0.4,0.1,0.9-0.1,1.5l-0.7-0.2
						c0,0,0-0.1,0-0.1s0-0.1,0-0.1c0.2-0.6,0.1-1.1-0.1-1.6c-0.3-0.4-0.7-0.8-1.4-1l-2.9-0.9L198.7,284.5z"/>
					<path class="st4" d="M196.6,291.1c0.2-0.6,0.5-1.1,0.8-1.4c0.4-0.4,0.8-0.6,1.3-0.7c0.5-0.1,1-0.1,1.6,0.1
						c0.6,0.2,1,0.4,1.4,0.8c0.4,0.4,0.6,0.8,0.7,1.3c0.1,0.5,0.1,1-0.1,1.5c-0.2,0.5-0.4,1-0.8,1.3c-0.4,0.3-0.8,0.6-1.3,0.7
						c-0.5,0.1-1,0.1-1.6-0.1c0,0-0.1,0-0.1,0c0,0-0.1,0-0.1,0l1.5-4.9l0.6,0.2l-1.4,4.5l-0.1-0.4c0.4,0.1,0.8,0.1,1.2,0.1
						c0.4-0.1,0.7-0.2,1-0.5c0.3-0.2,0.5-0.6,0.6-1c0.1-0.4,0.1-0.8,0-1.1c-0.1-0.4-0.3-0.7-0.5-0.9c-0.3-0.3-0.6-0.5-1-0.6l-0.1,0
						c-0.4-0.1-0.8-0.2-1.2-0.1s-0.7,0.3-1,0.6c-0.3,0.3-0.5,0.6-0.6,1.1c-0.1,0.3-0.1,0.7-0.1,1c0,0.3,0.1,0.6,0.3,0.9l-0.6,0.3
						c-0.2-0.3-0.4-0.7-0.4-1.1C196.4,292,196.5,291.6,196.6,291.1z"/>
					<path class="st4" d="M195.4,295.4l6.3,1.9c0.5,0.2,0.9,0.4,1.1,0.8c0.2,0.4,0.2,0.9,0.1,1.4c-0.1,0.2-0.2,0.4-0.3,0.6
						c-0.1,0.2-0.3,0.3-0.4,0.4l-0.5-0.4c0.1-0.1,0.2-0.2,0.3-0.3c0.1-0.1,0.2-0.3,0.2-0.4c0.1-0.3,0.1-0.6,0-0.8
						c-0.1-0.2-0.4-0.4-0.7-0.5l-0.9-0.3l-0.4-0.1l-5.1-1.5L195.4,295.4z M200.7,295.9l0.6,0.2l-1.1,3.5l-0.6-0.2L200.7,295.9z"/>
					<path class="st4" d="M193.6,301.2c0.1-0.5,0.4-0.9,0.6-1.2c0.3-0.3,0.6-0.5,1.1-0.6c0.4-0.1,0.9,0,1.4,0.1l3.3,1l-0.2,0.8
						l-3.2-1c-0.6-0.2-1.1-0.2-1.5,0c-0.4,0.2-0.7,0.6-0.8,1.1c-0.1,0.4-0.1,0.8-0.1,1.1c0.1,0.3,0.2,0.6,0.5,0.9
						c0.3,0.2,0.6,0.4,1,0.6l2.9,0.9l-0.2,0.8l-5.6-1.7l0.2-0.7l1.5,0.5l-0.3,0c-0.4-0.3-0.6-0.7-0.7-1.1
						C193.4,302.1,193.4,301.6,193.6,301.2z"/>
					<path class="st4" d="M196.9,310.6c-0.1,0.5-0.3,0.8-0.6,1.1c-0.3,0.3-0.6,0.5-1,0.6c-0.4,0.1-0.9,0-1.4-0.1l-3.3-1l0.2-0.8
						l3.2,1c0.6,0.2,1.1,0.2,1.5,0s0.7-0.6,0.8-1.1c0.1-0.4,0.1-0.8,0.1-1.1c-0.1-0.3-0.2-0.6-0.5-0.9s-0.6-0.4-1-0.6l-2.9-0.9
						l0.2-0.8l5.6,1.7l-0.2,0.7L196,308l0.3,0c0.4,0.3,0.6,0.7,0.7,1.1C197.1,309.6,197.1,310.1,196.9,310.6z"/>
					<path class="st4" d="M188.6,317.6l1.7,0.5l1.1,0.4l1.2,0.2l4,1.2l-0.2,0.8l-7.9-2.4L188.6,317.6z M189.2,315.5
						c0.2-0.5,0.4-1,0.8-1.3s0.8-0.6,1.3-0.7c0.5-0.1,1-0.1,1.6,0.1c0.6,0.2,1,0.4,1.4,0.8c0.4,0.4,0.6,0.8,0.7,1.3s0.1,1-0.1,1.5
						c-0.2,0.5-0.4,0.9-0.7,1.2c-0.3,0.3-0.8,0.5-1.2,0.6c-0.5,0.1-1,0.1-1.7-0.1c-0.6-0.2-1.1-0.5-1.4-0.8
						c-0.4-0.4-0.6-0.8-0.7-1.2C189,316.4,189.1,315.9,189.2,315.5z M189.9,315.7c-0.1,0.4-0.1,0.8-0.1,1.2c0.1,0.4,0.3,0.7,0.5,1
						c0.3,0.3,0.6,0.5,1.1,0.6c0.4,0.1,0.9,0.2,1.2,0.1c0.4-0.1,0.7-0.3,1-0.5c0.3-0.3,0.5-0.6,0.6-1c0.1-0.4,0.1-0.8,0-1.1
						s-0.3-0.7-0.5-1c-0.3-0.3-0.6-0.5-1.1-0.6c-0.4-0.1-0.8-0.2-1.2-0.1c-0.4,0.1-0.7,0.3-1,0.5C190.2,315,190,315.3,189.9,315.7z"
						/>
					<path class="st4" d="M186.3,325c0.2-0.5,0.4-0.9,0.8-1.1c0.4-0.2,0.8-0.2,1.3-0.1l5.3,1.6l-0.2,0.8l-5.2-1.6
						c-0.3-0.1-0.6-0.1-0.8,0c-0.2,0.1-0.4,0.3-0.5,0.6c-0.1,0.3-0.1,0.6,0,0.9l-0.6,0.1c-0.1-0.2-0.1-0.4-0.1-0.6
						C186.2,325.5,186.2,325.2,186.3,325z M192.1,323.9l0.6,0.2l-1.1,3.5l-0.6-0.2L192.1,323.9z"/>
					<path class="st4" d="M185.6,327.6l5.6,1.7L191,330l-1.5-0.5l0.3,0c0.4,0.3,0.6,0.6,0.7,1.1c0.1,0.4,0.1,0.9-0.1,1.5l-0.7-0.2
						c0,0,0-0.1,0-0.1s0-0.1,0-0.1c0.2-0.6,0.1-1.1-0.1-1.6c-0.3-0.4-0.7-0.8-1.4-1l-2.9-0.9L185.6,327.6z"/>
					<path class="st4" d="M183.2,335.4l1.2,0.4l0.2,0l2.1,0.6c0.5,0.1,0.9,0.1,1.2-0.1s0.6-0.5,0.7-1.1c0.1-0.4,0.2-0.7,0.1-1.1
						c0-0.4-0.1-0.7-0.2-1l0.7-0.2c0.2,0.4,0.2,0.8,0.2,1.2c0,0.4-0.1,0.9-0.2,1.3c-0.2,0.7-0.6,1.2-1,1.5c-0.5,0.3-1.1,0.3-1.8,0.1
						l-3.5-1.1L183.2,335.4z M183.7,333.4c0.1-0.4,0.3-0.8,0.5-1c0.2-0.3,0.5-0.4,0.8-0.5c0.3-0.1,0.6-0.1,0.9,0
						c0.3,0.1,0.5,0.2,0.7,0.4s0.3,0.5,0.4,0.9c0,0.4,0,0.8-0.2,1.3l-0.6,1.9l-0.6-0.2l0.6-1.9c0.2-0.5,0.2-0.9,0.1-1.2
						s-0.3-0.4-0.6-0.5c-0.3-0.1-0.6-0.1-0.9,0.1c-0.3,0.2-0.5,0.5-0.6,1c-0.1,0.4-0.1,0.8,0,1.2c0.1,0.4,0.3,0.7,0.6,0.9l-0.6,0
						c-0.3-0.3-0.5-0.6-0.7-1C183.6,334.5,183.6,334,183.7,333.4z"/>
					<path class="st4" d="M181.6,340.5c0.2-0.6,0.4-1,0.8-1.4s0.8-0.6,1.3-0.7s1-0.1,1.6,0.1c0.6,0.2,1,0.4,1.4,0.8
						c0.4,0.4,0.6,0.8,0.7,1.3c0.1,0.5,0.1,1-0.1,1.6c-0.1,0.5-0.4,0.9-0.7,1.2c-0.3,0.3-0.7,0.5-1.1,0.7l-0.2-0.7
						c0.3-0.1,0.6-0.3,0.8-0.5c0.2-0.2,0.4-0.5,0.5-0.9c0.1-0.4,0.1-0.8,0.1-1.2c-0.1-0.4-0.3-0.7-0.5-1c-0.3-0.3-0.6-0.5-1.1-0.6
						c-0.4-0.1-0.9-0.2-1.2-0.1c-0.4,0.1-0.7,0.3-1,0.5c-0.3,0.3-0.5,0.6-0.6,1c-0.1,0.3-0.1,0.7-0.1,1c0,0.3,0.2,0.6,0.4,0.9
						L182,343c-0.3-0.3-0.5-0.7-0.6-1.2S181.4,341,181.6,340.5z"/>
					<path class="st4" d="M179.2,348.5l3.6-1.5l0.4,0.7l-4.3,1.7L179.2,348.5z M180.5,344.2l7.9,2.4l-0.2,0.8l-7.9-2.4L180.5,344.2z
						 M181.8,345.2l1,0.3l2.1,4.5l-0.3,0.9l-1.6-3.2l-0.2-0.5L181.8,345.2z"/>
					<path class="st4" d="M178.6,350.6l5.6,1.7l-0.2,0.8l-5.6-1.7L178.6,350.6z M185.3,353.1c0-0.2,0.1-0.3,0.3-0.3
						c0.1-0.1,0.3-0.1,0.4,0c0.1,0,0.3,0.1,0.3,0.3c0.1,0.1,0.1,0.3,0,0.4c0,0.2-0.1,0.3-0.3,0.3c-0.1,0.1-0.3,0.1-0.4,0
						c-0.2,0-0.3-0.1-0.3-0.3C185.3,353.4,185.2,353.2,185.3,353.1z"/>
					<path class="st4" d="M182.5,358.1c-0.1,0.5-0.3,0.8-0.6,1.1c-0.3,0.3-0.6,0.5-1,0.6c-0.4,0.1-0.9,0-1.4-0.1l-3.3-1l0.2-0.8
						l3.2,1c0.6,0.2,1.1,0.2,1.5,0s0.7-0.6,0.8-1.1c0.1-0.4,0.1-0.8,0.1-1.1c-0.1-0.3-0.2-0.6-0.5-0.9s-0.6-0.4-1-0.6l-2.9-0.9
						l0.2-0.8l5.6,1.7l-0.2,0.7l-1.5-0.5l0.3,0c0.4,0.3,0.6,0.7,0.7,1.1C182.7,357,182.7,357.5,182.5,358.1z"/>
					<path class="st4" d="M172.7,362.4c0.2-0.5,0.4-1,0.7-1.4c0.3-0.4,0.6-0.7,1-0.9l0.5,0.6c-0.3,0.2-0.6,0.5-0.9,0.8
						c-0.3,0.3-0.5,0.7-0.6,1.2c-0.2,0.7-0.2,1.3,0,1.7c0.2,0.4,0.7,0.8,1.4,1l1.4,0.4l0.9,0.4l1,0.2l1.7,0.5l-0.2,0.7l-4.9-1.5
						c-1-0.3-1.6-0.7-1.9-1.4C172.4,364.1,172.4,363.4,172.7,362.4z M175,363c0.2-0.5,0.4-1,0.8-1.3c0.4-0.4,0.8-0.6,1.3-0.7
						c0.5-0.1,1-0.1,1.5,0.1s1,0.4,1.3,0.8s0.6,0.8,0.6,1.3c0.1,0.5,0.1,1-0.1,1.5c-0.2,0.5-0.4,0.9-0.7,1.3
						c-0.3,0.3-0.7,0.6-1.2,0.7c-0.5,0.1-1,0.1-1.6-0.1c-0.6-0.2-1-0.4-1.4-0.8c-0.3-0.4-0.5-0.8-0.6-1.2
						C174.9,364,174.9,363.5,175,363z M175.7,363.3c-0.1,0.4-0.2,0.8-0.1,1.2c0.1,0.4,0.2,0.7,0.5,1c0.3,0.3,0.6,0.5,1,0.6
						c0.4,0.1,0.8,0.1,1.2,0c0.4-0.1,0.7-0.3,1-0.5c0.3-0.3,0.5-0.6,0.6-1c0.1-0.4,0.1-0.8,0.1-1.2c-0.1-0.4-0.2-0.7-0.5-1
						c-0.2-0.3-0.6-0.5-1-0.6c-0.4-0.1-0.8-0.1-1.2-0.1c-0.4,0.1-0.7,0.3-1,0.5S175.8,362.9,175.7,363.3z"/>
					<path class="st4" d="M172.4,370.8l5.6,1.7l-0.2,0.8l-5.6-1.7L172.4,370.8z M179.2,373.3c0-0.2,0.1-0.3,0.3-0.3
						c0.1-0.1,0.3-0.1,0.4,0c0.1,0,0.3,0.1,0.3,0.3c0.1,0.1,0.1,0.3,0,0.4c0,0.2-0.1,0.3-0.3,0.3c-0.1,0.1-0.3,0.1-0.4,0
						c-0.2,0-0.3-0.1-0.3-0.3C179.1,373.6,179.1,373.4,179.2,373.3z"/>
					<path class="st4" d="M170.2,378.1l1.7,0.5l1.1,0.4l1.2,0.2l4,1.2l-0.2,0.8l-7.9-2.4L170.2,378.1z M170.8,375.9
						c0.2-0.5,0.4-1,0.8-1.3c0.4-0.3,0.8-0.6,1.3-0.7c0.5-0.1,1-0.1,1.6,0.1c0.6,0.2,1,0.4,1.4,0.8c0.4,0.4,0.6,0.8,0.7,1.3
						s0.1,1-0.1,1.5c-0.2,0.5-0.4,0.9-0.7,1.2c-0.3,0.3-0.8,0.5-1.2,0.6c-0.5,0.1-1,0.1-1.7-0.1c-0.6-0.2-1.1-0.5-1.4-0.8
						c-0.4-0.4-0.6-0.8-0.7-1.2C170.6,376.9,170.7,376.4,170.8,375.9z M171.5,376.1c-0.1,0.4-0.1,0.8-0.1,1.2c0.1,0.4,0.3,0.7,0.5,1
						c0.3,0.3,0.6,0.5,1.1,0.6c0.4,0.1,0.9,0.2,1.2,0.1c0.4-0.1,0.7-0.3,1-0.5c0.3-0.3,0.5-0.6,0.6-1c0.1-0.4,0.1-0.8,0-1.1
						c-0.1-0.4-0.3-0.7-0.5-1c-0.3-0.3-0.6-0.5-1.1-0.6c-0.4-0.1-0.8-0.2-1.2-0.1s-0.7,0.3-1,0.5
						C171.8,375.4,171.6,375.8,171.5,376.1z"/>
				</g>
			</g>
		</g>
	</g>
	<g>
		<g>
			<path class="st5" d="M137.6,509.6c-6-3.1-9.9-0.4-16.6,4.2c-6.6,4.6-43.7,31.8-43.7,31.8"/>
			<path class="st0" d="M77.4,545.5l52.2-36.8c0,0,19.3,0.4,8.1,19.7l-35.8,33.5c0,0-2.5,35.8-13.2,50.5"/>
		</g>
		<g>
			<path class="st6" d="M195.9,666.4c1.2-7.6,6.4-9.2,16.1-9.7c23.6-1.1,48.7,7.1,86.1,31.1c32.4,20.9,58.9,50.8,58.9,64.7
				s-10,20.2-26.2,21.2c0,0-35.6,1.6-83.1-31.5C218.8,722,194,690.7,195.9,666.4L195.9,666.4z"/>
			<path class="st6" d="M632.5,660.5c13.7-9.1,41.1-23.2,64.2-32.4c20.8-8.3,62.9-17.9,67.9,0.6c3.1,21.3-12,47.8-40.7,66.9
				c-34.9,23.3-63.9,30.4-70.2,31.8L632.5,660.5z"/>
			<g>
				<path class="st7" d="M500.9,343.4c-5,24.2,3.2,46.3,23.6,56.3c18.9,9.3,36.8-2.3,46-15.5c4.7-6.8,15.2-21.4,11.4-44.7
					c-3.6-22-22.2-39.9-46.2-34.7C517.8,308.6,505.3,322.2,500.9,343.4L500.9,343.4z"/>
				<path class="st0" d="M356.9,374.3c-3.6,4-1.7,7.6,3.7,9.3c2.4,0.7,4.8,1.1,7.3,1.3c0,0,4.6,21.4,9.9,31.7
					c5.3,10.3,18.6,4.4,30.2,4.4c11.6,0,16.9-1.7,16.9-1.7s4.9,5.1,3.9,23.9c-1.2,21.8-9.5,30.7-9.5,30.7s-16.4-2.3-26.1-3.4
					c20.4,16.8,57.6,39.8,91.9,36.3c44.7-4.6,64.3-38.5,66.4-58.6c-7.7,2.4-15.3,5.3-22.7,8.6c-14.9-10.3-31.1-26.1-37.4-41.7
					c-6.3-15.6-3.7-26.5,2.3-45.4c6-18.8,8.6-30.1,6.3-51.3c-2.4-22-13-36.8-29.5-48.7c-15.6-11.3-35.1-13.2-54.6-8.9
					c-19.5,4.3-39.1,19.2-48,36.7c-8.9,17.5-8.2,41.5-6.2,51.8c2,10.3,2.9,14.2-0.8,18.2L356.9,374.3z M639.4,680.7L684.6,824
					c31-8.5,59.9-29.5,69.2-69.2c8.7-37.3-18.4-99.5-34.9-132.5c-7.3,1.7-14.4,4-21.4,6.7c-23.1,9.3-50.5,23.4-64.2,32.4
					L639.4,680.7L639.4,680.7z"/>
				<path class="st7" d="M364.1,319.1c0.1-7.7,2-15.2,5.4-22.1c8.9-17.5,28.5-32.4,48-36.7c19.5-4.3,39.1-2.3,54.6,8.9
					c16.5,11.9,27.1,26.6,29.5,48.7c2.3,21.2-0.3,32.5-6.3,51.3c-3.2,10-5.4,17.7-5.8,25.1c-12.3,4.2-31.5,2.7-41.8-6.9
					c-7.6-7.2-11-25.7-7.9-40.1c2.9-14-3-27.5-12.9-30.5c-12.5-3.7-18.2,7.8-20.4,14.5c-2.2,6.6-8.4,9.3-19.4,6.2
					C377.8,334.9,369.3,326.6,364.1,319.1z"/>
				<ellipse cx="380.3" cy="351.8" rx="5.7" ry="7.7"/>
				<path class="st0" d="M423.1,338.3c3.2,6.4,1.2,13.3-3.3,15.8c-4.1,2.3-9,0.1-9.6-0.2"/>
				<path class="st0" d="M372.2,400.1c6-3.1,11.3-3,13-0.7c0.3,0.5,2.2,2.1,1.9,3.9"/>
			</g>
			<path class="st8" d="M760.9,617.4c-23.5-44.5-80.8-129.8-119.2-157.6c-38.4-27.8-78.1-19.9-113.9-4S468.3,481,468.3,481
				s-70.2-13.2-115.2-14.6s-67.5,15.9-96.7,74.2c-29.1,58.3-47.7,91.4-58.3,116.5c-10.6,25.2,16.9,62.2,49.7,85.1
				c47.5,33.1,83.1,31.5,83.1,31.5l-6.9,88.7H696l-42.4-135c0,0,30.5-5.3,70.2-31.8C757.9,672.9,772.8,639.9,760.9,617.4z"/>
		</g>
	</g>
</g>
</svg>
