<?xml version="1.0" encoding="utf-8"?>
<!-- Generator: Adobe Illustrator 24.3.0, SVG Export Plug-In . SVG Version: 6.00 Build 0)  -->
<svg version="1.1" id="Layer_1" xmlns="http://www.w3.org/2000/svg" xmlns:xlink="http://www.w3.org/1999/xlink" x="0px" y="0px"
	 viewBox="0 0 890 180" style="enable-background:new 0 0 890 180;" xml:space="preserve">
<style type="text/css">
	.st0{fill:#009F2C;}
	.st1{fill:#F3F8FB;}
</style>
<g>
	<path class="st0" d="M884.1,13.2H46c-25.4,0-46,17.9-46,40.1v73.4c0,22.1,20.6,40.1,46,40.1h838.1c5.3,0,7.9-5.6,4.2-8.8
		l-74.6-64.3c-2.3-2-2.3-5.3,0-7.3l74.6-64.3C892,18.8,889.4,13.2,884.1,13.2z"/>
	<g>
		<path class="st1" d="M57,134.3V56.2h35.6c7.1,0,13.3,1.2,18.5,3.5c5.2,2.3,9.2,5.6,12,10c2.8,4.4,4.2,9.5,4.2,15.4
			c0,6-1.4,11.2-4.2,15.4c-2.8,4.2-6.8,7.5-12,9.8c-5.2,2.3-11.4,3.4-18.5,3.4H69.2l9.9-9.4v30.2H57z M79.1,106.8l-9.9-10.3h22.1
			c4.6,0,8.1-1,10.4-3c2.3-2,3.5-4.8,3.5-8.5c0-3.5-1.2-6.3-3.5-8.3c-2.3-2-5.8-3.1-10.4-3.1H69.2l9.9-10.2V106.8z M105.3,134.3
			l-19.4-28.5h23.6l19.5,28.5H105.3z"/>
		<path class="st1" d="M170.4,135.4c-7.2,0-13.5-1.4-18.8-4.1c-5.3-2.7-9.5-6.4-12.4-11.2c-2.9-4.7-4.4-10.1-4.4-16
			c0-6.1,1.4-11.5,4.3-16.3c2.9-4.7,6.8-8.4,11.8-11.1c5-2.7,10.7-4,17.1-4c6,0,11.4,1.2,16.3,3.7c4.9,2.5,8.8,6.1,11.7,10.7
			c2.9,4.7,4.4,10.3,4.4,17c0,0.7,0,1.6-0.1,2.6c-0.1,1-0.2,1.9-0.2,2.7h-47.9V98.3h36.6l-8,3.1c0.1-2.7-0.4-5-1.5-7.1
			c-1.1-2-2.6-3.6-4.4-4.7c-1.9-1.1-4.1-1.7-6.6-1.7c-2.6,0-4.9,0.6-6.8,1.7c-1.9,1.1-3.4,2.7-4.4,4.7c-1,2-1.5,4.5-1.5,7.2v3.2
			c0,3,0.6,5.5,1.8,7.7c1.2,2.2,3,3.8,5.3,5c2.3,1.2,5.1,1.7,8.3,1.7c3.1,0,5.6-0.4,7.7-1.3c2.1-0.9,4.2-2.2,6.3-4l11.1,11.7
			c-2.8,3.1-6.4,5.5-10.6,7.2C181.1,134.5,176.1,135.4,170.4,135.4z"/>
		<path class="st1" d="M203.9,91.9V76h43.9v15.9H203.9z M212.7,134.3V74.6c0-7.4,2.2-13.2,6.6-17.6c4.4-4.4,10.6-6.5,18.7-6.5
			c2.5,0,5.1,0.3,7.7,0.8c2.6,0.5,4.7,1.3,6.4,2.3l-5.3,15c-0.9-0.5-1.9-0.9-3-1.3c-1.1-0.3-2.3-0.5-3.5-0.5c-2.1,0-3.8,0.7-5.1,2
			c-1.3,1.3-2,3.3-2,6.1v4.1l0.7,9v46.4H212.7z"/>
		<path class="st1" d="M281.1,135.4c-4.9,0-9.3-1-13.2-2.9c-3.9-1.9-7-5-9.2-9.1c-2.2-4.1-3.3-9.4-3.3-15.8V73.7h21.2v30.4
			c0,4.7,0.9,8.1,2.6,10.1c1.7,2,4.2,3.1,7.4,3.1c2.1,0,4-0.5,5.8-1.5c1.7-1,3.1-2.5,4.1-4.6c1-2.1,1.5-4.8,1.5-8.1V73.7h21.2v60.7
			h-20.1v-17.1l3.9,4.8c-2.2,4.5-5.2,7.8-9.1,10C290,134.3,285.7,135.4,281.1,135.4z"/>
		<path class="st1" d="M332.9,134.3V73.7h20.3v17.8l-3.1-5c1.9-4.5,4.8-8,8.8-10.3c4-2.3,8.8-3.5,14.6-3.5v19.2
			c-1-0.1-1.8-0.2-2.6-0.3c-0.7,0-1.5-0.1-2.2-0.1c-4.3,0-7.8,1.2-10.5,3.5c-2.7,2.3-4,6.2-4,11.5v27.8H332.9z"/>
		<path class="st1" d="M382.2,134.3V51.5h21.2V84l-1.1,20l0.2,20v10.4H382.2z M420.3,135.4c-5.4,0-10-1.1-13.6-3.4
			c-3.6-2.2-6.3-5.7-8.1-10.3c-1.8-4.6-2.7-10.5-2.7-17.6c0-7.1,0.9-13,2.8-17.7c1.9-4.6,4.7-8.1,8.3-10.3c3.6-2.3,8-3.4,13.2-3.4
			c5.5,0,10.5,1.3,15,3.9c4.5,2.6,8.1,6.2,10.7,10.8c2.6,4.7,4,10.2,4,16.7c0,6.4-1.3,11.9-4,16.6c-2.6,4.7-6.2,8.3-10.7,10.8
			C430.8,134.1,425.8,135.4,420.3,135.4z M415.8,118.5c2.4,0,4.5-0.6,6.4-1.7c1.9-1.1,3.4-2.8,4.6-5c1.2-2.2,1.7-4.8,1.7-7.8
			c0-3.2-0.6-5.8-1.7-7.9c-1.2-2.1-2.7-3.7-4.6-4.8c-1.9-1.1-4-1.7-6.4-1.7c-2.4,0-4.5,0.6-6.4,1.7c-1.9,1.1-3.4,2.7-4.6,4.8
			c-1.2,2.1-1.7,4.7-1.7,7.9c0,3,0.6,5.6,1.7,7.8c1.2,2.2,2.7,3.9,4.6,5C411.3,117.9,413.4,118.5,415.8,118.5z"/>
		<path class="st1" d="M470.5,67.1c-3.9,0-7.1-1.1-9.4-3.2c-2.3-2.2-3.5-4.8-3.5-8c0-3.2,1.2-5.9,3.5-8s5.5-3.2,9.4-3.2
			c3.9,0,7,1,9.4,3c2.4,2,3.6,4.6,3.6,7.7c0,3.4-1.2,6.1-3.5,8.4C477.6,66,474.4,67.1,470.5,67.1z M459.8,134.3V73.7h21.2v60.7
			H459.8z"/>
		<path class="st1" d="M516.8,135.4c-5.1,0-10.1-0.6-15-1.8c-4.9-1.2-8.8-2.7-11.8-4.5l6.3-14.5c2.9,1.7,6.3,3.1,10.1,4.1
			c3.8,1,7.5,1.6,11.2,1.6c3.6,0,6-0.4,7.4-1.2c1.4-0.8,2.1-1.8,2.1-3.2c0-1.1-0.6-2-1.9-2.6c-1.3-0.6-3-1-5.1-1.3
			c-2.2-0.3-4.5-0.6-7-0.9c-2.5-0.3-5-0.9-7.7-1.6c-2.6-0.7-5-1.7-7.1-3c-2.1-1.3-3.8-3-5.1-5.3c-1.3-2.2-1.9-5.1-1.9-8.5
			c0-3.9,1.1-7.3,3.4-10.3c2.3-3,5.6-5.4,9.9-7.2c4.4-1.8,9.7-2.7,16.1-2.7c4.2,0,8.5,0.4,12.9,1.3c4.4,0.9,8,2.2,11,3.9l-6.4,14.5
			c-3-1.8-6-3-8.9-3.6c-3-0.6-5.8-0.9-8.4-0.9c-3.6,0-6.1,0.4-7.7,1.2c-1.5,0.8-2.3,1.8-2.3,3c0,1.2,0.7,2.1,2,2.7
			c1.3,0.6,3.1,1.1,5.1,1.5c2.1,0.3,4.4,0.7,7,1c2.6,0.3,5.1,0.8,7.7,1.5c2.5,0.7,4.8,1.7,6.9,3c2.1,1.3,3.8,3.1,5.1,5.3
			c1.3,2.2,2,5,2,8.5c0,3.6-1.1,7-3.4,9.9c-2.2,3-5.6,5.4-10.1,7.1C528.9,134.5,523.4,135.4,516.8,135.4z"/>
		<path class="st1" d="M595.3,72.7c4.7,0,8.9,1,12.7,2.9c3.8,1.9,6.8,4.9,9,8.8c2.2,3.9,3.3,9,3.3,15.3v34.6H599v-31.2
			c0-4.3-0.9-7.5-2.6-9.4c-1.8-2-4.1-3-7.1-3c-2.3,0-4.4,0.5-6.3,1.5c-1.9,1-3.3,2.6-4.4,4.6c-1,2.1-1.6,4.8-1.6,8.3v29.2h-21.2
			V51.5h21.2V91l-4.9-5c2.3-4.3,5.5-7.6,9.5-9.9C585.7,73.8,590.3,72.7,595.3,72.7z"/>
		<path class="st1" d="M666.3,135.4c-7.2,0-13.5-1.4-18.8-4.1c-5.3-2.7-9.5-6.4-12.4-11.2c-2.9-4.7-4.4-10.1-4.4-16
			c0-6.1,1.4-11.5,4.3-16.3c2.9-4.7,6.8-8.4,11.8-11.1c5-2.7,10.7-4,17.1-4c6,0,11.4,1.2,16.3,3.7c4.9,2.5,8.8,6.1,11.7,10.7
			c2.9,4.7,4.4,10.3,4.4,17c0,0.7,0,1.6-0.1,2.6c-0.1,1-0.2,1.9-0.2,2.7h-47.9V98.3h36.6l-8,3.1c0.1-2.7-0.4-5-1.5-7.1
			c-1.1-2-2.6-3.6-4.4-4.7c-1.9-1.1-4.1-1.7-6.6-1.7c-2.6,0-4.9,0.6-6.8,1.7c-1.9,1.1-3.4,2.7-4.4,4.7c-1,2-1.5,4.5-1.5,7.2v3.2
			c0,3,0.6,5.5,1.8,7.7c1.2,2.2,3,3.8,5.3,5c2.3,1.2,5.1,1.7,8.3,1.7c3.1,0,5.6-0.4,7.7-1.3c2.1-0.9,4.2-2.2,6.3-4l11.1,11.7
			c-2.8,3.1-6.4,5.5-10.6,7.2C677,134.5,672,135.4,666.3,135.4z"/>
		<path class="st1" d="M732.5,135.4c-5.4,0-10.4-1.3-15-3.9c-4.5-2.6-8.1-6.2-10.8-10.8c-2.6-4.7-4-10.2-4-16.6c0-6.5,1.3-12,4-16.7
			c2.6-4.7,6.2-8.3,10.8-10.8c4.5-2.6,9.5-3.9,15-3.9c5.1,0,9.5,1.1,13.2,3.4c3.6,2.3,6.4,5.7,8.3,10.3c1.9,4.6,2.8,10.5,2.8,17.7
			c0,7.1-0.9,13-2.6,17.6c-1.8,4.6-4.4,8-8,10.3C742.5,134.2,738,135.4,732.5,135.4z M737,118.5c2.4,0,4.5-0.6,6.4-1.7
			c1.9-1.1,3.4-2.8,4.5-5c1.1-2.2,1.7-4.8,1.7-7.8c0-3.2-0.6-5.8-1.7-7.9c-1.1-2.1-2.6-3.7-4.5-4.8c-1.9-1.1-4-1.7-6.4-1.7
			c-2.5,0-4.6,0.6-6.5,1.7c-1.9,1.1-3.4,2.7-4.5,4.8c-1.1,2.1-1.7,4.7-1.7,7.9c0,3,0.6,5.6,1.7,7.8c1.1,2.2,2.6,3.9,4.5,5
			C732.4,117.9,734.5,118.5,737,118.5z M750.3,134.3V124l0.1-20l-1.1-20V51.5h21.2v82.9H750.3z"/>
	</g>
</g>
</svg>
