<?xml version="1.0" encoding="utf-8"?>
<!-- Generator: Adobe Illustrator 24.3.0, SVG Export Plug-In . SVG Version: 6.00 Build 0)  -->
<svg version="1.1" id="Layer_1" xmlns="http://www.w3.org/2000/svg" xmlns:xlink="http://www.w3.org/1999/xlink" x="0px" y="0px"
	 viewBox="0 0 890 869" style="enable-background:new 0 0 890 869;" xml:space="preserve">
<style type="text/css">
	.st0{fill:#8C4819;stroke:#1F1F1F;stroke-width:4.5;stroke-linecap:round;stroke-linejoin:round;}
	.st1{stroke:#1F1F1F;stroke-width:4.5;stroke-linecap:round;stroke-linejoin:round;}
	.st2{fill:#3C0E40;stroke:#3C2370;stroke-width:4.5;stroke-miterlimit:10;}
	.st3{fill:#1F1F1F;stroke:#1F1F1F;stroke-width:4.5;stroke-linecap:round;stroke-linejoin:round;}
	.st4{fill:none;stroke:#1F1F1F;stroke-width:4.5;stroke-linecap:round;stroke-linejoin:round;}
	.st5{fill:#DBA277;stroke:#8C4819;stroke-width:3;stroke-miterlimit:10;}
	.st6{fill:#F6CF94;stroke:#8C4819;stroke-width:3;stroke-miterlimit:10;}
	.st7{fill:#442723;}
	.st8{fill:#5C3731;}
	.st9{fill:#1A2E35;}
	.st10{fill:#FFFFFF;}
	.st11{fill:#FFFFFF;stroke:url(#SVGID_1_);stroke-width:4.5;stroke-linecap:round;stroke-linejoin:round;}
</style>
<g>
	<g>
		<path class="st0" d="M404.4,332.9c0-0.2,0.1-0.5,0.2-0.8c-3.8-1.1-8-1-11.8,0.2c-14,4.1-11.3,21.1-3.3,31.8
			c5.8,7.7,12.3,12.5,17.6,15.3C402.3,364.2,400.7,347.3,404.4,332.9L404.4,332.9z M564,350c-3.1-7.5-10.5-7.1-15.6-5.8
			c0,3.3-0.2,6.7-0.8,10c-2.1,11-8,23.2-17.2,35c4.8-1.6,9.5-3.6,13.8-6.1C556.5,375.9,569,362.2,564,350z"/>
		<path class="st0" d="M406,332.9c-5.1,27.8,3.8,65,16.5,81.3c16.5,21.2,54.3,23.6,75.4,8.2c25.9-18.9,43.6-46,47.1-68.3
			s-4.7-66-56.6-76.6C434.5,266.5,410.7,307,406,332.9L406,332.9z"/>
		<path class="st1" d="M497.3,278.1c-0.2,0.2-0.4,0.4-0.5,0.6c-0.2,0.2-0.4,0.4-0.5,0.6c44.9,13.2,52.2,53.4,48.8,74.7
			c-1.4,8.9-5,18.5-10.5,28c-30-4.5-53.2-48.1-53.2-48.1s-23.6,20-49.5,25.9c-8.8,2.1-17.9,2.5-26.8,1.1c-0.9-9.4-0.6-18.9,0.9-28.2
			c4.1-22.6,22.8-56.3,63.3-57.2c0.4-0.8,0.7-1.7,1.1-2.5c-2.9,0.5-12.1,1.7-17.4-3.6c-7.7-7.8-2.6-25.2,6.3-33.7
			c14.9-14.3,46.5-10.1,54.5,5.8c3.4,6.8,2.6,15.7-0.8,22.6C508.2,273.9,499.3,277.4,497.3,278.1z"/>
		<path class="st2" d="M731.2,502.3c-30.6-43.6-83.7-51.9-120.2-43.6c-36.5,8.2-83.7,20-148.5,17.7c-64.8-2.3-100.2-17.7-150.8-31.8
			c-43.1-12-84.8-1.2-121.4,40.1C158.4,520.7,49.3,660.6,50,659.9c19.4-20,63.5,2.2,119.6,41.1c54,37.5,87.2,69,81.8,90.1l17.8-39
			l14.2,76.6h388.9l-4.7-72.4c-2.7-25.5,16.5-46.8,51.9-65.2c41.7-21.7,111-34.6,137.2-7.5C837.5,655.8,758.1,540.5,731.2,502.3
			L731.2,502.3z"/>
		<path class="st3" d="M48.4,661.7c18.4-23.2,63.5-0.8,121.2,39.2s91.6,73.3,80.1,94.3c-12.7,23.2-54.2,18.9-110.7-20
			C82.5,736.3,24.8,691.5,48.4,661.7z M667.6,756.3c-2.7-25.5,16.5-46.8,51.9-65.2c44.2-23,119.2-36.1,141.4-2.4
			c30.2,46-40.7,77.2-97.2,89.6C721.6,787.5,669.8,776.9,667.6,756.3z"/>
		<path class="st4" d="M10.6,828.7h868.8"/>
		<path class="st0" d="M817.7,668.6c0,0,14.9,24.9,29.9,56.7c15,31.8,3.5,103.4-46,103.4h-236c-31.8,0-63.6-22.3-63.6-59.6V618.9
			c0-10.6,14.2-13.5,17.7,3c2.6,12.2,20.9,89.6,29.7,126.8c2.7,11.2,13.6,18.5,25,16.6l93-18.1c0,0,0.7-13.8,13.3-28
			c18-20.3,53.8-38.1,88.2-46.1C798.6,666.3,817.7,668.6,817.7,668.6L817.7,668.6z"/>
		<path class="st4" d="M767.7,725.3l-100.3,22l-47-85.6"/>
		<path class="st0" d="M504.6,475.9c-8.6-13.3-13.7-31.4-15.5-48.6c-18.4,8.1-43.3,6.3-59.2-5.8c-8.6,19.1-21.2,35.5-34.7,46.5
			c-16.9-3.7-32.5-8.3-48.5-13.1l-3.1-0.9c0,0,47,109.9,127.1,98.1c76.5-11.3,102.5-79.4,104.7-85.6
			C552,471.3,528.4,474.5,504.6,475.9L504.6,475.9z"/>
		<path class="st0" d="M91.7,656.6c0,0-19.2,24.5-33.4,72.3c-14.1,47.7,0,99.9,37.1,99.9h72.5L259.8,674c0,0,44.2-23,70.7-51.3
			c26.5-28.3,53-76.6,53-76.6H433c7.7,0,11.8-15.3,0.6-20.4c-6.4-2.9-17.3-0.8-17.3-0.8s-2-5.5-11.2-5.7c-11.3-0.2-15.5,2-15.5,2
			s-3.3-4.5-18.3-4.3c-17.8,0.2-80.9,12.8-104.5,33.4S155.1,691.2,155.1,691.2s-9.7-6.9-29.7-18.5
			C105.5,661.1,91.7,656.6,91.7,656.6L91.7,656.6z"/>
		<path class="st4" d="M389.7,521.2c4.6,4.7,5.5,11.8,2.2,17.5c-3.7,5.8-8.2,7.5-8.2,7.5 M416.4,525c1.6,2.8,2.6,9,0.2,13.7
			c-3.1,6.1-8.3,7.5-8.3,7.5 M155.2,691.1l-40.3,53 M269.3,752.1l10.6-22.7"/>
		<path class="st4" d="M457.1,408.7c-11.2-2.4-10.6-4.6-5.3-9.3c5.3-4.7,9.1-15.2,9.1-19.9"/>
		<path class="st4" d="M502.3,656.6c0,0,0.9-10.8,9.4-13c8.2-2.1,13.5,4.4,14.7,8.5 M502.3,635.7c0,0,0.7-8,7.4-9.1
			c6.7-1.2,11.8,4.4,13.6,10.9"/>
		<g>
			<rect x="246.3" y="609.6" class="st5" width="252.7" height="217.3"/>
			<polygon class="st6" points="442.1,548.6 296.7,548.6 246.3,609.6 499,609.6 			"/>
			<rect x="339" y="548.6" class="st7" width="60.1" height="61.1"/>
			<rect x="339" y="609.6" class="st8" width="60.1" height="30.5"/>
			<g>
				<g>
					<polygon class="st9" points="308.2,817.3 306.4,817.3 306.8,791.5 308.6,791.5 					"/>
					<polygon class="st9" points="312.4,817.4 310.6,817.4 311,791.5 312.8,791.6 					"/>
					<polygon class="st9" points="316.6,817.5 314.8,817.5 315.3,791.6 317,791.6 					"/>
					<polygon class="st9" points="320.8,817.6 319,817.5 319.5,791.7 321.2,791.7 					"/>
					<polygon class="st9" points="325,817.6 323.2,817.6 323.7,791.8 325.4,791.8 					"/>
					<polygon class="st9" points="329.2,817.7 327.4,817.7 327.9,791.8 329.6,791.9 					"/>
					<polygon class="st9" points="333.4,817.8 331.6,817.8 332.1,791.9 333.8,791.9 					"/>
					<polygon class="st9" points="337.6,817.9 335.9,817.8 336.3,792 338,792 					"/>
					<polygon class="st9" points="341.8,817.9 340.1,817.9 340.5,792.1 342.2,792.1 					"/>
				</g>
				<path class="st9" d="M289.2,815l6.7,2.1l-15.8-0.3l6.8-1.9l0.2-9.5c-4.8-0.8-6.7-5.8-6.5-14.5l15.8,0.3
					c-0.1,8.7-2.1,13.7-7,14.2L289.2,815z"/>
				<polygon class="st9" points="276.6,804.1 272.5,804 272.3,816.7 261.7,816.5 261.9,803.8 257.8,803.7 267.4,790.7 				"/>
			</g>
			<rect x="383.8" y="787.1" class="st10" width="99.3" height="32.4"/>
		</g>
		<g>
			<radialGradient id="SVGID_1_" cx="369.0432" cy="697.3437" r="66.256" gradientUnits="userSpaceOnUse">
				<stop  offset="0" style="stop-color:#BCAEEB"/>
				<stop  offset="1" style="stop-color:#8D83B0"/>
			</radialGradient>
			<path class="st11" d="M369,761.3c35.3,0,64-28.7,64-64s-28.7-64-64-64c-35.3,0-64,28.7-64,64S333.7,761.3,369,761.3z"/>
			<polyline class="st4" points="345.9,684.9 367.7,710.1 402.5,675.2 			"/>
		</g>
	</g>
	<path class="st0" d="M448.8,374.4c-2.3-5.8-8.1-8.6-12.4-7.1c-4,1.4-5.4,5.9-5.5,6.5"/>
	<path class="st0" d="M505.7,376.1c-2.3-5.8-8.1-8.6-12.4-7.1c-4,1.4-5.4,5.9-5.5,6.5"/>
	<path class="st0" d="M550.1,350.8c6,2,9.1,7.5,7.9,11.9c-1.1,4.1-5.6,5.8-6.1,5.9"/>
	<path class="st0" d="M399.1,341c-6,2-9.1,7.5-7.9,11.9c1.1,4.1,5.6,5.8,6.1,5.9"/>
	<path class="st0" d="M464.5,419.5c5.3,2.7,10,2.7,11.5,0.6c0.3-0.4,1.9-1.9,1.7-3.5"/>
	<ellipse cx="439.8" cy="377.4" rx="5.1" ry="6.8"/>
	<ellipse cx="496.7" cy="380.5" rx="5.1" ry="6.8"/>
</g>
</svg>
