<?xml version="1.0" encoding="utf-8"?>
<!-- Generator: Adobe Illustrator 24.3.0, SVG Export Plug-In . SVG Version: 6.00 Build 0)  -->
<svg version="1.1" id="Layer_1" xmlns="http://www.w3.org/2000/svg" xmlns:xlink="http://www.w3.org/1999/xlink" x="0px" y="0px"
	 viewBox="0 0 890 869" style="enable-background:new 0 0 890 869;" xml:space="preserve">
<style type="text/css">
	.st0{fill:#894818;stroke:#1F1F1F;stroke-width:4.5;stroke-linecap:round;stroke-linejoin:round;}
	.st1{fill:#8C9EFF;}
	.st2{fill:none;stroke:#FFFFFF;stroke-width:2;stroke-miterlimit:10;}
	.st3{fill:#1F1F1F;stroke:#1F1F1F;stroke-width:4.5;stroke-linecap:round;stroke-linejoin:round;}
	.st4{stroke:#1F1F1F;stroke-width:4.5;stroke-linecap:round;stroke-linejoin:round;}
	.st5{fill:#3C0E40;stroke:#3C2370;stroke-width:4.5;stroke-miterlimit:10;}
	.st6{fill:none;stroke:#1F1F1F;stroke-width:4.5;stroke-linecap:round;stroke-linejoin:round;}
</style>
<g>
	<g>
		<path class="st0" d="M210.6,553.4c-7.3-0.5-13.7,2.6-23.2,4.9s-20.6,5.9-28.5,13c-9,8.2-2.2,21,6,19.4c7.4-1.4,9.5-6.2,17.9-10.6
			c8.4-4.4,14.6-7.1,21.8-8.2c6.1-0.9,14.1-4.4,15-8.4C220.8,558.5,219,553.9,210.6,553.4L210.6,553.4z"/>
		<path class="st0" d="M150.4,562.6c0.2,9.9,11.7,14.1,20.6,7.4c8.9-6.7,32.9-15.3,41.8-14.1c5.4,0.7,16.7,0.6,20.3-2.5
			c4.5-3.7,3.7-13.4-5.4-15.8c-10.7-2.9-29.5-2.2-45.6,2.2C160.5,545.7,150.1,552.6,150.4,562.6z"/>
		<path class="st0" d="M182.3,520.4c-19.2,5.3-28.4,11.5-28.2,20.3c0.2,8.8,10.4,12.6,18.3,6.6s29.3-13.7,37.3-12.6
			c4.9,0.7,14.8,0.5,18.1-2.2c4-3.3,3.3-11.9-4.9-14.1C213.3,515.8,196.6,516.4,182.3,520.4L182.3,520.4z"/>
	</g>
	<path class="st0" d="M161.4,520.6c-52.1,34.2-71.6,121.8-52.8,194.5c14.3,55.3,47.7,96.2,94,115.2c30.9,12.7,84.8,18.1,133.1-17.8
		c31.9-23.7,59.8-53.8,74-77.5l1.4-2.4c-8.4-7.5-17.3-14.3-26.8-20.4c-31.8-20.5-54.8-29.5-75.5-31c-1.9,3.2-3.8,6-5.5,8.2
		c-20.7,27.8-38.5,57.1-77.3,53.4c-32.2-3.1-49.5-32.9-61.8-60c-13.2-29.1-14.6-49-14.6-49s22.5-30.4,21.2-63.5
		c0,0,21.8-21.2,35.4-33.3c6.2-5.5,5.7-14.8,0-17.9c0,0,5.2-3.6,11-8.4c7.3-6,3.3-15-7.3-14.1C200.6,497.4,180.6,508,161.4,520.6
		L161.4,520.6z"/>
</g>
<g>
	
		<rect x="115.1" y="477.2" transform="matrix(-0.4773 -0.8787 0.8787 -0.4773 -195.1688 847.4005)" class="st1" width="78.7" height="9"/>
	
		<rect x="195" y="624.4" transform="matrix(-0.4773 -0.8787 0.8787 -0.4773 -206.3816 1135.0543)" class="st1" width="78.7" height="9"/>
	
		<ellipse transform="matrix(0.8787 -0.4773 0.4773 0.8787 -257.1755 174.6447)" class="st1" cx="215.1" cy="593.4" rx="12" ry="10.4"/>
	
		<rect x="153.7" y="548.3" transform="matrix(-0.4773 -0.8787 0.8787 -0.4773 -200.5854 986.3585)" class="st1" width="78.7" height="9"/>
	
		<ellipse transform="matrix(0.8787 -0.4773 0.4773 0.8787 -225.8753 145.6932)" class="st1" cx="173.8" cy="517.3" rx="12" ry="10.4"/>
	
		<ellipse transform="matrix(0.8787 -0.4773 0.4773 0.8787 -196.6249 118.6377)" class="st1" cx="135.2" cy="446.3" rx="12" ry="10.4"/>
	
		<rect x="73.8" y="401.2" transform="matrix(-0.4773 -0.8787 0.8787 -0.4773 -189.3726 698.7047)" class="st1" width="78.7" height="9"/>
	
		<ellipse transform="matrix(0.8787 -0.4773 0.4773 0.8787 -165.3247 89.6861)" class="st1" cx="93.8" cy="370.2" rx="12" ry="10.4"/>
	
		<ellipse transform="matrix(0.8787 -0.4773 0.4773 0.8787 -257.1755 174.6447)" class="st2" cx="215.1" cy="593.4" rx="5.7" ry="5"/>
	
		<ellipse transform="matrix(0.8787 -0.4773 0.4773 0.8787 -225.4495 145.2993)" class="st2" cx="173.2" cy="516.3" rx="5.7" ry="5"/>
	
		<ellipse transform="matrix(0.8787 -0.4773 0.4773 0.8787 -196.6249 118.6377)" class="st2" cx="135.2" cy="446.3" rx="5.7" ry="5"/>
	
		<ellipse transform="matrix(0.8787 -0.4773 0.4773 0.8787 -286.0001 201.3064)" class="st1" cx="253.2" cy="663.5" rx="12" ry="10.4"/>
	
		<ellipse transform="matrix(0.8787 -0.4773 0.4773 0.8787 -286.0001 201.3064)" class="st2" cx="253.2" cy="663.5" rx="5.7" ry="5"/>
	<ellipse transform="matrix(0.8787 -0.4773 0.4773 0.8787 -164.8989 89.2923)" class="st2" cx="93.3" cy="369.2" rx="5.7" ry="5"/>
</g>
<g>
	<path class="st3" d="M265,674.4c-1.9,24.4,22.9,55.6,51.8,75.8c47.5,33.1,83.1,31.5,83.1,31.5c16.2-0.9,26.2-7.3,26.2-21.2
		s-26.6-43.8-58.9-64.7c-37.3-24.1-62.5-32.2-86.1-31.1C271.3,665.2,266.2,666.8,265,674.4L265,674.4z"/>
	<path class="st3" d="M722.7,735.4c6.2-1.3,35.3-8.5,70.2-31.8c28.7-19.1,43.8-45.6,40.7-66.9c-5-18.5-47.1-9-67.9-0.6
		c-23.1,9.3-50.5,23.4-64.2,32.4L722.7,735.4z"/>
	<g>
		<path class="st4" d="M569.9,351.4c4.4-21.2,16.9-34.8,34.7-38.6c24-5.1,42.6,12.7,46.2,34.7c3.8,23.3-6.6,37.9-11.4,44.7
			c-9.2,13.2-27.1,24.8-46,15.5C573.2,397.7,564.9,375.6,569.9,351.4L569.9,351.4z"/>
		<path class="st0" d="M425.9,382.4c-3.6,4-1.7,7.6,3.7,9.3c2.4,0.7,4.8,1.1,7.3,1.3c0,0,4.6,21.4,9.9,31.7
			c5.3,10.3,18.6,4.4,30.2,4.4c11.6,0,16.9-1.7,16.9-1.7s4.9,5.1,3.9,23.9c-1.2,21.8-9.5,30.7-9.5,30.7s-16.4-2.3-26.1-3.4
			c20.4,16.8,57.6,39.8,91.9,36.3c44.7-4.6,64.3-38.5,66.4-58.6c-7.7,2.4-15.3,5.3-22.7,8.6c-14.9-10.3-31.1-26.1-37.4-41.7
			c-6.3-15.6-3.7-26.5,2.3-45.4c6-18.8,8.6-30.1,6.3-51.3c-2.4-22-13-36.8-29.5-48.7c-15.6-11.3-35.1-13.2-54.6-8.9
			c-19.5,4.3-39.1,19.2-48,36.7s-8.2,41.5-6.2,51.8s2.9,14.2-0.8,18.2L425.9,382.4z M708.5,688.7l45.2,143.3
			c31-8.5,59.9-29.5,69.2-69.2c8.7-37.3-18.4-99.5-34.9-132.5c-7.3,1.7-14.4,4-21.4,6.7c-23.1,9.3-50.5,23.4-64.2,32.4L708.5,688.7
			L708.5,688.7z"/>
		<path class="st4" d="M456,345.5c11,3.1,17.2,0.4,19.4-6.2c2.2-6.6,7.9-18.2,20.4-14.5c9.9,3,15.8,16.5,12.9,30.5
			c-3,14.4,0.3,32.9,7.9,40.1c10.3,9.6,29.5,11.1,41.8,6.9c0.5-7.4,2.7-15.2,5.8-25.1c6-18.8,8.6-30.1,6.3-51.3
			c-2.4-22-13-36.8-29.5-48.7c-15.6-11.3-35.1-13.2-54.6-8.9c-19.5,4.3-39.1,19.2-48,36.7c-3.4,6.9-5.3,14.4-5.4,22.1
			C438.3,334.7,446.8,343,456,345.5z"/>
		<ellipse cx="449.3" cy="359.9" rx="5.7" ry="7.7"/>
		<path class="st0" d="M492.2,346.3c3.2,6.4,1.2,13.3-3.3,15.8c-4.1,2.3-9,0.1-9.6-0.2"/>
		<path class="st0" d="M455,407.8c-6,3.1-11.3,3-13,0.7c-0.3-0.5-2.2-2.1-1.9-3.9"/>
	</g>
	<path class="st5" d="M792.9,703.6c-39.7,26.5-70.2,31.8-70.2,31.8l42.4,135H393l6.9-88.7c0,0-35.6,1.6-83.1-31.5
		c-32.8-22.8-60.3-59.9-49.7-85.1c10.6-25.2,29.2-58.3,58.3-116.5c29.1-58.3,51.6-75.5,96.7-74.2c45,1.3,115.2,14.6,115.2,14.6
		s23.8-9.3,59.6-25.2s75.5-23.8,113.9,4S806.4,581,830,625.5C841.8,648,826.9,680.9,792.9,703.6z"/>
</g>
<g>
	<path class="st6" d="M146.4,553.6c0,0,37.1-27.1,43.7-31.8c6.6-4.6,10.6-7.3,16.6-4.2"/>
	<path class="st0" d="M146.4,553.6l52.2-36.8c0,0,19.3,0.4,8.1,19.7L170.9,570c0,0-2.5,35.8-13.2,50.5"/>
</g>
</svg>
