<?xml version="1.0" encoding="utf-8"?>
<!-- Generator: Adobe Illustrator 24.3.0, SVG Export Plug-In . SVG Version: 6.00 Build 0)  -->
<svg version="1.1" id="Layer_1" xmlns="http://www.w3.org/2000/svg" xmlns:xlink="http://www.w3.org/1999/xlink" x="0px" y="0px"
	 viewBox="0 0 16 16" style="enable-background:new 0 0 16 16;" xml:space="preserve">
<style type="text/css">
	.st0{fill:none;stroke:#3C0E40;stroke-width:7;stroke-linecap:round;stroke-linejoin:round;stroke-miterlimit:10;}
</style>
<g>
	<path class="st0" d="M-8.1-36.3C0.9-36.6,8-36.6,8-36.6s39.4,0,49.4,2.7c5.4,1.4,9.7,5.9,11.1,11.4c2.7,10,2.7,31,2.7,31
		s0,20.9-2.7,31C67,45,62.8,49.5,57.4,50.9C47.4,53.6,8,53.6,8,53.6s-39.5,0-49.4-2.7c-5.5-1.4-9.7-5.9-11.2-11.4
		c-2.6-10.1-2.6-31-2.6-31s0-21,2.6-31c1.4-5.5,5.7-9.9,11.2-11.4c0.9-0.3,2-0.5,3.2-0.6"/>
	<polyline class="st0" points="16.1,3.5 26,8.5 -10,26.5 -10,-9.5 7.5,-0.8 	"/>
</g>
</svg>
