<svg id="Layer_1" data-name="Layer 1" xmlns="http://www.w3.org/2000/svg" xmlns:xlink="http://www.w3.org/1999/xlink" viewBox="0 0 403 227"><defs><style>.cls-1{fill:#0088c4;}.cls-2{fill:url(#radial-gradient);}.cls-3{fill:#262626;}</style><radialGradient id="radial-gradient" cx="97.51" cy="113.5" r="13.16" gradientUnits="userSpaceOnUse"><stop offset="0.11" stop-color="#e95d56"/><stop offset="0.25" stop-color="#d45353"/><stop offset="0.54" stop-color="#9d3a4c"/><stop offset="0.95" stop-color="#461341"/><stop offset="1" stop-color="#3c0e40"/></radialGradient></defs><rect class="cls-1" width="403" height="227"/><path class="cls-2" d="M105.6,113.8a.6.6,0,0,1,.1-1,8.1,8.1,0,0,0,2.9-1.9,6.9,6.9,0,0,0,.2-8.3,5.8,5.8,0,0,0-3.2-2.2,17.5,17.5,0,0,0-5-.6H90.7a1.6,1.6,0,0,0-1.5,1.3l-3.6,22h4.6l2.3-.6h1.1l1.1-.6,1-.7c.1-.1.2-.2.2-.3h.4l.2-.2h.1c0-.1.1-.1.1-.2l.2-.2.2-.5a7.6,7.6,0,0,0,.4-1.1v-.6h0v-.2h0V116c-.1,0-.1-.1-.1-.2l-.4-.9-.6-.8-.7-.6h-.2a.1.1,0,0,0-.1-.1H90.5l.2-.3.3-.2.3-.3.2-.2h.2a3.4,3.4,0,0,1,1.5-.6h2.4a.1.1,0,0,0,.1.1h.8l1.1.7a4.8,4.8,0,0,1,.9,1.1l.2.3c.1.1.1.3.2.4l.3.7v1.3c0,.1.1.2,0,.3h0v.2h0a2.4,2.4,0,0,1-.2.8c-.1.2-.1.5-.2.7a4.3,4.3,0,0,1-.4.7,6,6,0,0,1-.9,1.3l-.3.3H97v.2l-.3.2-1.2.8-1.3.5-.3.2h-1a11.8,11.8,0,0,1-2.5.4H87.1l-.9-.2h-.7l-.6,3.7H99.6c3.3,0,5.7-.8,7.1-2.4a8.3,8.3,0,0,0,2.1-5.6A5.5,5.5,0,0,0,105.6,113.8Zm-15.1-.2-.2.4h-.1v.2l-.3.8a3.2,3.2,0,0,0-.1,1.4,3.4,3.4,0,0,0,.4,1.6l.4.8.3.4h.3a6.4,6.4,0,0,0,1.8,1l1.8.4h-.3l-1,.6H92.3l-.6.2h-.1l-.7-.4a4.3,4.3,0,0,1-1-.9h-.4v-.2l-.3-.6-.3-.6c0-.2-.1-.4-.1-.6a5,5,0,0,1-.1-2.1,2.6,2.6,0,0,1,.6-1.5,3.2,3.2,0,0,1,.6-.8l.2-.2h.1Zm13.2,1a5.7,5.7,0,0,1-.1,1.3l-.3,1.3-.6,1.2-.2.4a.1.1,0,0,1-.1.1v.2h-.1v.2H102v.2l-1.1,1a13.5,13.5,0,0,1-2.6,1.5l-.7.3-.7.2h-.4a1,1,0,0,0,.5-.4h.3l.3-.2.2-.2v-.2l.3-.2h0a12.5,12.5,0,0,0,.9-1.2l.9-.6a3.9,3.9,0,0,0,1-.8h.5V118h.1a6.7,6.7,0,0,0,1-2.1,8.9,8.9,0,0,0,.3-2.2v-.9a3.1,3.1,0,0,1-.1-.9c-.1-.3-.1-.5-.2-.8l-.4.7a.5.5,0,0,1-.8-.2l-.2-4a.2.2,0,0,1,.4-.2l2.5,3.2a.4.4,0,0,1-.3.6l-.8-.2.3.7a3,3,0,0,1,.2,1c.1.3.1.6.2,1Z"/><path class="cls-3" d="M120.7,127V107.1h9.4c2.4,0,4.2.4,5.4,1.4a4.3,4.3,0,0,1,1.9,3.7,5.1,5.1,0,0,1-.7,2.8,5.5,5.5,0,0,1-2,1.7,6,6,0,0,1-2.7.6l.5-1a7.3,7.3,0,0,1,3,.6,4.6,4.6,0,0,1,2.1,1.8,5,5,0,0,1,.8,2.9,4.8,4.8,0,0,1-2,4,10,10,0,0,1-5.7,1.4Zm3.7-2.9h6a5.8,5.8,0,0,0,3.2-.7,2.8,2.8,0,0,0,0-4.4,6.9,6.9,0,0,0-3.2-.7h-6.3v-2.8h5.6a5.9,5.9,0,0,0,2.9-.7,2.6,2.6,0,0,0,0-4.2,6,6,0,0,0-2.9-.6h-5.3Z"/><path class="cls-3" d="M141.5,127V112.5h3.2v4l-.4-1.2a4.7,4.7,0,0,1,2-2.2,7.5,7.5,0,0,1,3.5-.8v3.3H149a4.5,4.5,0,0,0-3.1,1.1,5,5,0,0,0-1.1,3.4v7Z"/><path class="cls-3" d="M156,127.2a6.1,6.1,0,0,1-2.8-.6,4.2,4.2,0,0,1-1.9-1.5,3.7,3.7,0,0,1-.7-2.3,3.8,3.8,0,0,1,2.5-3.7,8.8,8.8,0,0,1,3.5-.6h4.2v2.3h-3.9a4.3,4.3,0,0,0-2.4.5,2,2,0,0,0-.6,1.4,1.9,1.9,0,0,0,.8,1.5,3.7,3.7,0,0,0,2,.5,4,4,0,0,0,2.2-.6,2.9,2.9,0,0,0,1.5-1.6l.5,2a4.1,4.1,0,0,1-1.7,2A7.2,7.2,0,0,1,156,127.2Zm4.5-.2v-8.7a3,3,0,0,0-.9-2.3,4.3,4.3,0,0,0-2.8-.8,5.9,5.9,0,0,0-2.3.4,5.4,5.4,0,0,0-2,1l-1.4-2.5a12,12,0,0,1,2.8-1.3,12.7,12.7,0,0,1,3.4-.5,6.5,6.5,0,0,1,4.8,1.6c1.2,1,1.7,2.5,1.7,4.6V127Z"/><path class="cls-3" d="M176.2,112.3a7.4,7.4,0,0,1,3.1.7,6.3,6.3,0,0,1,2.2,2.1,7.4,7.4,0,0,1,.8,3.6V127h-3.4v-7.9a3.8,3.8,0,0,0-.9-2.8,3,3,0,0,0-2.5-1,5.4,5.4,0,0,0-2.2.5,3.8,3.8,0,0,0-1.4,1.4,6.2,6.2,0,0,0-.5,2.5V127h-3.3V112.5h3.2v4l-.6-1.3a5,5,0,0,1,2.2-2.1A7.3,7.3,0,0,1,176.2,112.3Z"/><path class="cls-3" d="M192.7,127.2a7.5,7.5,0,0,1-3.7-.9,7.2,7.2,0,0,1-2.6-2.6,8.1,8.1,0,0,1,0-7.8,5.9,5.9,0,0,1,2.6-2.6,6.6,6.6,0,0,1,3.7-1,7.3,7.3,0,0,1,3.3.8,7,7,0,0,1,2.3,2.5,10.1,10.1,0,0,1,.8,4.2,10,10,0,0,1-.8,4.1,6.2,6.2,0,0,1-2.3,2.5A6.7,6.7,0,0,1,192.7,127.2Zm.4-2.9a4,4,0,0,0,2.2-.6,3.5,3.5,0,0,0,1.6-1.6,5.2,5.2,0,0,0,.5-2.3,5.4,5.4,0,0,0-.5-2.4,4.1,4.1,0,0,0-1.6-1.6,4,4,0,0,0-2.2-.6,3.7,3.7,0,0,0-2.1.6,4.1,4.1,0,0,0-1.6,1.6,4.3,4.3,0,0,0-.6,2.4,4.1,4.1,0,0,0,.6,2.3,3.5,3.5,0,0,0,1.6,1.6A3.7,3.7,0,0,0,193.1,124.3Zm4.4,2.7v-7.3l-.2-3.8v-9h3.4V127Z"/><path class="cls-3" d="M213,127V108h8.3a11.2,11.2,0,0,1,5.3,1.2,9.1,9.1,0,0,1,3.7,3.3,10.3,10.3,0,0,1,1.3,5,10,10,0,0,1-1.3,5,9.1,9.1,0,0,1-3.7,3.3,11.2,11.2,0,0,1-5.3,1.2Zm3.5-3H221a8.1,8.1,0,0,0,3.7-.8,5.6,5.6,0,0,0,2.5-2.3,6.4,6.4,0,0,0,.9-3.4,6.2,6.2,0,0,0-3.4-5.7,8.1,8.1,0,0,0-3.7-.8h-4.5Z"/><path class="cls-3" d="M236.7,110.9a2.5,2.5,0,0,1-1.5-.5,2.1,2.1,0,0,1,3-2.8,1.6,1.6,0,0,1,.6,1.3,1.7,1.7,0,0,1-.6,1.4A2,2,0,0,1,236.7,110.9ZM235.1,127V112.2h3.2V127Z"/><path class="cls-3" d="M242.9,127V106.9h3.3V127Z"/><path class="cls-3" d="M255,127.2a6.4,6.4,0,0,1-2.8-.6,5.8,5.8,0,0,1-1.9-1.5,4.4,4.4,0,0,1-.6-2.3,5.4,5.4,0,0,1,.5-2.2,4.6,4.6,0,0,1,2-1.5,8.2,8.2,0,0,1,3.5-.6h4.2v2.3h-4a4.1,4.1,0,0,0-2.3.5,2,2,0,0,0-.6,1.4,1.8,1.8,0,0,0,.7,1.5,4.1,4.1,0,0,0,2.1.5,4.3,4.3,0,0,0,2.2-.6,3.2,3.2,0,0,0,1.4-1.6l.6,2a4.3,4.3,0,0,1-1.8,2A7.2,7.2,0,0,1,255,127.2Zm4.6-.2v-3l-.2-.6v-5.1a3,3,0,0,0-.9-2.3,4.1,4.1,0,0,0-2.7-.8,6.7,6.7,0,0,0-2.4.4,6.3,6.3,0,0,0-2,1l-1.3-2.5a10.4,10.4,0,0,1,2.8-1.3,12,12,0,0,1,3.3-.5,6.9,6.9,0,0,1,4.9,1.6,5.9,5.9,0,0,1,1.7,4.6V127Z"/><path class="cls-3" d="M265.2,115.3v-2.7h9.6v2.7Zm7.3,11.9a4.5,4.5,0,0,1-4.9-4.9v-13h3.3v12.9a2.1,2.1,0,0,0,.6,1.6,1.8,1.8,0,0,0,1.5.6,2.8,2.8,0,0,0,1.8-.6l1,2.4a3.5,3.5,0,0,1-1.5.7A5.7,5.7,0,0,1,272.5,127.2Z"/><path class="cls-3" d="M280.3,110.8a2,2,0,0,1-1.5-.6,1.8,1.8,0,0,1-.6-1.4,1.6,1.6,0,0,1,.6-1.3,2,2,0,0,1,1.5-.6,2.5,2.5,0,0,1,1.5.5,1.8,1.8,0,0,1,.6,1.4,2,2,0,0,1-.6,1.4A2,2,0,0,1,280.3,110.8ZM278.7,127V112.2h3.2V127Z"/><path class="cls-3" d="M292.9,127.2a7.3,7.3,0,0,1-3.9-1,7,7,0,0,1-2.8-2.6,8,8,0,0,1-1-3.8,8.1,8.1,0,0,1,1-3.9,7,7,0,0,1,2.8-2.6,8.1,8.1,0,0,1,3.9-1,8.8,8.8,0,0,1,4,1,6.2,6.2,0,0,1,2.7,2.6,7.1,7.1,0,0,1,1,3.9,7,7,0,0,1-1,3.8,6.2,6.2,0,0,1-2.7,2.6A7.7,7.7,0,0,1,292.9,127.2Zm0-2.9a3.8,3.8,0,0,0,2.2-.6,3.5,3.5,0,0,0,1.6-1.6,5.2,5.2,0,0,0,.5-2.3,5.4,5.4,0,0,0-.5-2.4,4.1,4.1,0,0,0-1.6-1.6,3.8,3.8,0,0,0-2.2-.6,3.7,3.7,0,0,0-2.1.6,4.1,4.1,0,0,0-1.6,1.6,4.3,4.3,0,0,0-.6,2.4,4.1,4.1,0,0,0,.6,2.3,3.5,3.5,0,0,0,1.6,1.6A3.7,3.7,0,0,0,292.9,124.3Z"/><path class="cls-3" d="M312.1,112.3a7.4,7.4,0,0,1,3.1.7,5.3,5.3,0,0,1,2.1,2.1,6.4,6.4,0,0,1,.8,3.6V127h-3.4v-7.9a3.8,3.8,0,0,0-.9-2.8,2.9,2.9,0,0,0-2.5-1,4.6,4.6,0,0,0-2.1.5,3.2,3.2,0,0,0-1.4,1.4,4.9,4.9,0,0,0-.5,2.5V127h-3.4V112.5h3.2v4l-.5-1.3a5.3,5.3,0,0,1,2.1-2.1A7.4,7.4,0,0,1,312.1,112.3Z"/></svg>