<svg width="403" height="227" viewBox="0 0 403 227" fill="none" xmlns="http://www.w3.org/2000/svg">
<rect width="403" height="227" fill="#F5F5F5"/>
<path d="M280.094 124.642C275.919 124.642 273.43 121.608 273.43 117.589C273.43 113.569 275.919 110.535 280.094 110.535C284.269 110.535 286.758 113.465 286.758 117.848V118.626H276.671C276.956 120.726 278.149 122.075 280.094 122.075C281.676 122.075 282.739 121.401 283.309 120.208H286.499C285.617 122.879 283.309 124.642 280.094 124.642ZM276.697 116.292H283.465C283.128 114.321 281.961 113.102 280.094 113.102C278.227 113.102 277.06 114.321 276.697 116.292Z" fill="#CCCCCC"/>
<path d="M271.966 124.331H268.828V122.464C267.921 123.812 266.495 124.642 264.55 124.642C260.634 124.642 258.508 121.608 258.508 117.589C258.508 113.569 260.634 110.535 264.55 110.535C266.417 110.535 267.791 111.287 268.699 112.532V105.66H271.966V124.331ZM261.827 117.589C261.827 120.182 262.916 121.919 265.302 121.919C267.661 121.919 268.751 120.182 268.751 117.589C268.751 114.996 267.661 113.258 265.302 113.258C262.916 113.258 261.827 114.996 261.827 117.589Z" fill="#CCCCCC"/>
<path d="M253.828 124.331V110.846H257.069V124.331H253.828ZM253.828 108.694V105.66H257.095V108.694H253.828Z" fill="#CCCCCC"/>
<path d="M242.855 118.963C242.855 120.597 243.581 121.79 245.448 121.79C246.563 121.79 248.326 121.167 248.559 118.808V110.847H251.827V124.331H248.663V122.49C247.73 123.735 246.329 124.642 244.41 124.642C241.299 124.642 239.613 122.516 239.613 119.352V110.847H242.855V118.963Z" fill="#CCCCCC"/>
<path d="M230.759 129.828C226.973 129.828 224.873 128.039 224.665 125.135H227.855C228.063 126.691 229.229 127.287 230.863 127.287C232.523 127.287 234.312 126.691 234.312 123.968V122.36C233.404 123.579 232.03 124.305 230.163 124.305C226.247 124.305 224.121 121.349 224.121 117.407C224.121 113.491 226.247 110.535 230.163 110.535C232.108 110.535 233.508 111.313 234.416 112.61V110.846H237.579V123.968C237.579 128.013 234.571 129.828 230.759 129.828ZM227.44 117.407C227.44 119.948 228.529 121.634 230.915 121.634C233.275 121.634 234.364 119.948 234.364 117.407C234.364 114.892 233.275 113.18 230.915 113.18C228.529 113.18 227.44 114.892 227.44 117.407Z" fill="#CCCCCC"/>
<path d="M222.658 124.331H219.52V122.464C218.612 123.812 217.186 124.642 215.241 124.642C211.325 124.642 209.199 121.608 209.199 117.589C209.199 113.569 211.325 110.535 215.241 110.535C217.108 110.535 218.483 111.287 219.39 112.532V105.66H222.658V124.331ZM212.518 117.589C212.518 120.182 213.607 121.919 215.993 121.919C218.353 121.919 219.442 120.182 219.442 117.589C219.442 114.996 218.353 113.258 215.993 113.258C213.607 113.258 212.518 114.996 212.518 117.589Z" fill="#CCCCCC"/>
<path d="M204.503 116.214C204.503 114.58 203.777 113.388 201.91 113.388C200.795 113.388 199.032 114.01 198.798 116.37V124.331H195.531V110.846H198.695V112.687C199.628 111.443 201.029 110.535 202.948 110.535C206.059 110.535 207.745 112.662 207.745 115.825V124.331H204.503V116.214Z" fill="#CCCCCC"/>
<path d="M190.784 124.331V122.775C189.617 124.175 188.191 124.642 186.505 124.642C183.575 124.642 181.578 123.19 181.578 120.571C181.578 118.185 183.263 116.992 186.764 116.396L190.68 115.696V114.918C190.68 113.699 189.954 113.051 188.216 113.051C186.738 113.051 185.494 113.673 185.416 115.151H182.2C182.252 111.935 184.949 110.535 188.191 110.535C192.028 110.535 193.87 112.091 193.87 114.555V124.331H190.784ZM184.923 120.467C184.923 121.53 185.649 122.23 187.231 122.23C188.943 122.23 190.68 121.323 190.68 119.093V117.9L187.361 118.574C185.831 118.885 184.923 119.248 184.923 120.467Z" fill="#CCCCCC"/>
<path d="M172.723 124.33V110.846H175.887V113.258C176.795 111.365 178.247 110.69 179.958 110.69H181.022V113.698H179.829C177.547 113.698 175.991 114.658 175.991 117.796V124.33H172.723Z" fill="#CCCCCC"/>
<path d="M156.414 124.331V105.66H163.882C168.446 105.66 170.702 107.657 170.702 110.639C170.702 112.351 169.95 113.673 168.446 114.503C170.469 115.359 171.48 116.966 171.48 118.937C171.48 122.282 169.224 124.331 164.66 124.331H156.414ZM159.889 121.401H164.66C166.89 121.401 167.902 120.493 167.902 118.833C167.902 117.148 166.89 116.24 164.66 116.24H159.889V121.401ZM159.889 113.414H163.986C166.216 113.414 167.253 112.506 167.253 111.002C167.253 109.498 166.216 108.59 163.986 108.59H159.889V113.414Z" fill="#CCCCCC"/>
<path d="M131.071 97.4492H112.242V116.278C116.479 116.278 120.389 114.879 123.536 112.517C123.768 112.343 123.996 112.163 124.219 111.979C126.298 110.263 128.002 108.111 129.191 105.661C130.396 103.18 131.071 100.393 131.071 97.4492Z" fill="#CCCCCC"/>
<path d="M144.768 105.661H131.765C130.074 109.677 127.18 113.062 123.535 115.365V126.895C135.262 126.895 144.768 117.389 144.768 105.661Z" fill="#CCCCCC"/>
<line x1="89.7969" y1="124.206" x2="309.367" y2="124.206" stroke="#808080" stroke-width="0.25" stroke-dasharray="0.5 0.5"/>
<line x1="89.7969" y1="105.535" x2="309.367" y2="105.535" stroke="#808080" stroke-width="0.25" stroke-dasharray="0.5 0.5"/>
<line x1="89.7969" y1="129.703" x2="309.367" y2="129.703" stroke="#808080" stroke-width="0.25" stroke-dasharray="0.5 0.5"/>
<line x1="89.7969" y1="86.0195" x2="309.367" y2="86.0195" stroke="#808080" stroke-width="0.25" stroke-dasharray="0.5 0.5"/>
<line x1="89.7969" y1="97.3242" x2="309.367" y2="97.3242" stroke="#808080" stroke-width="0.25" stroke-dasharray="0.5 0.5"/>
<line x1="112.531" y1="86.1445" x2="112.531" y2="141.133" stroke="#808080" stroke-width="0.25" stroke-dasharray="0.5 0.5"/>
<line x1="89.9219" y1="86.1445" x2="89.9219" y2="141.133" stroke="#808080" stroke-width="0.25" stroke-dasharray="0.5 0.5"/>
<line x1="286.883" y1="86.1445" x2="286.883" y2="141.133" stroke="#808080" stroke-width="0.25" stroke-dasharray="0.5 0.5"/>
<line x1="144.895" y1="86.1445" x2="144.895" y2="141.133" stroke="#808080" stroke-width="0.25" stroke-dasharray="0.5 0.5"/>
<line x1="123.836" y1="86.1445" x2="123.836" y2="141.133" stroke="#808080" stroke-width="0.25" stroke-dasharray="0.5 0.5"/>
<line x1="112.531" y1="86.1445" x2="112.531" y2="141.133" stroke="#808080" stroke-width="0.25" stroke-dasharray="0.5 0.5"/>
<line x1="89.7969" y1="141.008" x2="309.367" y2="141.008" stroke="#808080" stroke-width="0.25" stroke-dasharray="0.5 0.5"/>
<line x1="309.492" y1="86.1445" x2="309.492" y2="141.133" stroke="#808080" stroke-width="0.25" stroke-dasharray="0.5 0.5"/>
<line x1="156.199" y1="86.1445" x2="156.199" y2="141.133" stroke="#808080" stroke-width="0.25" stroke-dasharray="0.5 0.5"/>
<path d="M116.42 137V134.704L115.808 135.14V134.58L116.456 134.12H116.96V137H116.42ZM120.11 137L119.414 135.976L118.718 137H118.114L119.114 135.532L118.154 134.12H118.778L119.426 135.072L120.07 134.12H120.678L119.726 135.516L120.734 137H120.11Z" fill="#262626"/>
<path d="M98.2929 116.589V116.153L99.4409 115.105C99.6209 114.937 99.7609 114.745 99.7609 114.509C99.7609 114.269 99.5849 114.117 99.3089 114.117C99.0129 114.117 98.8089 114.289 98.8129 114.645H98.2929C98.2929 114.025 98.6609 113.661 99.3089 113.661C99.8969 113.661 100.285 114.017 100.285 114.485C100.285 114.865 100.041 115.173 99.7849 115.405L98.9929 116.133H100.317V116.589H98.2929ZM101.993 116.589L101.521 115.921L101.045 116.589H100.477L101.237 115.525L100.513 114.509H101.089L101.525 115.117L101.957 114.509H102.525L101.809 115.517L102.569 116.589H101.993Z" fill="#262626"/>
<path d="M136.242 136.716L133.946 136.716L134.382 137.328L133.822 137.328L133.362 136.68L133.362 136.176L136.242 136.176L136.242 136.716ZM136.242 134.402L135.574 134.874L136.242 135.35L136.242 135.918L135.178 135.158L134.162 135.882L134.162 135.306L134.77 134.87L134.162 134.438L134.162 133.87L135.17 134.586L136.242 133.826L136.242 134.402Z" fill="#262626"/>
<path d="M136.242 93.0329L133.946 93.0329L134.382 93.6449L133.822 93.6449L133.362 92.9969L133.362 92.4929L136.242 92.4929L136.242 93.0329ZM136.242 90.718L135.574 91.19L136.242 91.666L136.242 92.234L135.178 91.474L134.162 92.198L134.162 91.622L134.77 91.186L134.162 90.754L134.162 90.186L135.17 90.902L136.242 90.142L136.242 90.718Z" fill="#262626"/>
<path d="M295.727 117.834V117.398L296.875 116.35C297.055 116.182 297.195 115.99 297.195 115.754C297.195 115.514 297.019 115.362 296.743 115.362C296.447 115.362 296.243 115.534 296.247 115.89H295.727C295.727 115.27 296.095 114.906 296.743 114.906C297.331 114.906 297.719 115.262 297.719 115.73C297.719 116.11 297.475 116.418 297.219 116.65L296.427 117.378H297.751V117.834H295.727ZM299.427 117.834L298.955 117.166L298.479 117.834H297.911L298.671 116.77L297.947 115.754H298.523L298.959 116.362L299.391 115.754H299.959L299.243 116.762L300.003 117.834H299.427Z" fill="#262626"/>
</svg>
