<svg width="403" height="227" viewBox="0 0 403 227" fill="none" xmlns="http://www.w3.org/2000/svg">
<rect width="403" height="227" fill="#F5F5F5"/>
<path d="M282.094 124.503C277.919 124.503 275.43 121.469 275.43 117.45C275.43 113.43 277.919 110.396 282.094 110.396C286.269 110.396 288.758 113.326 288.758 117.709V118.487H278.671C278.956 120.587 280.149 121.936 282.094 121.936C283.676 121.936 284.739 121.262 285.309 120.069H288.499C287.617 122.74 285.309 124.503 282.094 124.503ZM278.697 116.153H285.465C285.128 114.182 283.961 112.963 282.094 112.963C280.227 112.963 279.06 114.182 278.697 116.153Z" fill="#262626"/>
<path d="M273.966 124.192H270.828V122.325C269.921 123.673 268.495 124.503 266.55 124.503C262.634 124.503 260.508 121.469 260.508 117.45C260.508 113.43 262.634 110.396 266.55 110.396C268.417 110.396 269.791 111.148 270.699 112.393V105.521H273.966V124.192ZM263.827 117.45C263.827 120.043 264.916 121.78 267.302 121.78C269.661 121.78 270.751 120.043 270.751 117.45C270.751 114.857 269.661 113.119 267.302 113.119C264.916 113.119 263.827 114.857 263.827 117.45Z" fill="#262626"/>
<path d="M255.828 124.192V110.707H259.069V124.192H255.828ZM255.828 108.555V105.521H259.095V108.555H255.828Z" fill="#262626"/>
<path d="M244.855 118.824C244.855 120.458 245.581 121.651 247.448 121.651C248.563 121.651 250.326 121.028 250.559 118.669V110.708H253.827V124.192H250.663V122.351C249.73 123.596 248.329 124.503 246.41 124.503C243.299 124.503 241.613 122.377 241.613 119.213V110.708H244.855V118.824Z" fill="#262626"/>
<path d="M232.759 129.689C228.973 129.689 226.873 127.9 226.665 124.996H229.855C230.063 126.552 231.229 127.148 232.863 127.148C234.523 127.148 236.312 126.552 236.312 123.829V122.221C235.404 123.44 234.03 124.166 232.163 124.166C228.247 124.166 226.121 121.21 226.121 117.268C226.121 113.352 228.247 110.396 232.163 110.396C234.108 110.396 235.508 111.174 236.416 112.471V110.707H239.579V123.829C239.579 127.874 236.571 129.689 232.759 129.689ZM229.44 117.268C229.44 119.809 230.529 121.495 232.915 121.495C235.275 121.495 236.364 119.809 236.364 117.268C236.364 114.753 235.275 113.041 232.915 113.041C230.529 113.041 229.44 114.753 229.44 117.268Z" fill="#262626"/>
<path d="M224.658 124.192H221.52V122.325C220.612 123.673 219.186 124.503 217.241 124.503C213.325 124.503 211.199 121.469 211.199 117.45C211.199 113.43 213.325 110.396 217.241 110.396C219.108 110.396 220.483 111.148 221.39 112.393V105.521H224.658V124.192ZM214.518 117.45C214.518 120.043 215.607 121.78 217.993 121.78C220.353 121.78 221.442 120.043 221.442 117.45C221.442 114.857 220.353 113.119 217.993 113.119C215.607 113.119 214.518 114.857 214.518 117.45Z" fill="#262626"/>
<path d="M206.503 116.075C206.503 114.441 205.777 113.249 203.91 113.249C202.795 113.249 201.032 113.871 200.798 116.231V124.192H197.531V110.707H200.695V112.548C201.628 111.304 203.029 110.396 204.948 110.396C208.059 110.396 209.745 112.523 209.745 115.686V124.192H206.503V116.075Z" fill="#262626"/>
<path d="M192.784 124.192V122.636C191.617 124.036 190.191 124.503 188.505 124.503C185.575 124.503 183.578 123.051 183.578 120.432C183.578 118.046 185.263 116.853 188.764 116.257L192.68 115.557V114.779C192.68 113.56 191.954 112.912 190.216 112.912C188.738 112.912 187.494 113.534 187.416 115.012H184.2C184.252 111.796 186.949 110.396 190.191 110.396C194.028 110.396 195.87 111.952 195.87 114.416V124.192H192.784ZM186.923 120.328C186.923 121.391 187.649 122.091 189.231 122.091C190.943 122.091 192.68 121.184 192.68 118.954V117.761L189.361 118.435C187.831 118.746 186.923 119.109 186.923 120.328Z" fill="#262626"/>
<path d="M174.723 124.192V110.708H177.887V113.12C178.795 111.227 180.247 110.552 181.958 110.552H183.022V113.56H181.829C179.547 113.56 177.991 114.52 177.991 117.658V124.192H174.723Z" fill="#262626"/>
<path d="M158.414 124.192V105.521H165.882C170.446 105.521 172.702 107.518 172.702 110.5C172.702 112.212 171.95 113.534 170.446 114.364C172.469 115.22 173.48 116.827 173.48 118.798C173.48 122.143 171.224 124.192 166.66 124.192H158.414ZM161.889 121.262H166.66C168.89 121.262 169.902 120.354 169.902 118.694C169.902 117.009 168.89 116.101 166.66 116.101H161.889V121.262ZM161.889 113.275H165.986C168.216 113.275 169.253 112.367 169.253 110.863C169.253 109.359 168.216 108.451 165.986 108.451H161.889V113.275Z" fill="#262626"/>
<path d="M133.071 97.3105H114.242V116.14C118.479 116.14 122.389 114.741 125.536 112.379C125.768 112.205 125.996 112.025 126.219 111.841C128.298 110.125 130.002 107.973 131.191 105.523C132.396 103.042 133.071 100.255 133.071 97.3105Z" fill="#006AFF"/>
<path d="M146.768 105.522H133.765C132.074 109.538 129.18 112.923 125.535 115.226V126.756C137.262 126.756 146.768 117.25 146.768 105.522Z" fill="#006AFF"/>
</svg>
