<?xml version="1.0" encoding="utf-8"?>
<!-- Generator: Adobe Illustrator 24.3.0, SVG Export Plug-In . SVG Version: 6.00 Build 0)  -->
<svg version="1.1" id="Layer_1" xmlns="http://www.w3.org/2000/svg" xmlns:xlink="http://www.w3.org/1999/xlink" x="0px" y="0px"
	 viewBox="0 0 403 227" style="enable-background:new 0 0 403 227;" xml:space="preserve">
<style type="text/css">
	.st0{fill:#3C0E40;}
	.st1{fill:#F5F5F5;}
</style>
<rect class="st0" width="403" height="226.7"/>
<g>
	<path class="st1" d="M226.2,114.4c-1.2-0.6-1.1-2.4,0.2-2.9c3.5-1.3,6.4-3.3,8.7-5.9c3.2-3.5,4.8-7.9,4.8-12.9
		c0-4.6-1.3-8.7-4-12.1c-2.7-3.4-6-5.7-9.9-6.8c-3.9-1.1-9-1.7-15.2-1.7h-29.9c-2.3,0-4.3,1.7-4.7,4l-11,66.6
		c0.7,0.1,1.4,0.3,2.3,0.4c0.8,0.1,1.7,0.2,2.6,0.3c0.5,0,0.9,0,1.4,0.1c0.1,0,0.2,0,0.4,0c0.1,0,0.2,0,0.4,0c0.2,0,0.5,0,0.7,0
		c2,0,4.2-0.1,6.4-0.5c2.2-0.3,4.6-0.9,6.9-1.7c0.3-0.1,0.6-0.2,0.9-0.3c0.2-0.1,0.3-0.1,0.5-0.2c0.2-0.1,0.3-0.1,0.4-0.2
		c0.3-0.1,0.6-0.2,0.8-0.4c0.3-0.1,0.6-0.3,0.9-0.4c1.1-0.5,2.2-1.1,3.3-1.8c1.1-0.7,2.1-1.4,3-2.2c0.2-0.2,0.5-0.4,0.7-0.6l0.3-0.3
		l0.2-0.2h0v0l0,0v0l0,0l0.1-0.1l0.4-0.4l0,0l0,0l0.1-0.1l0.1-0.2c0.2-0.2,0.4-0.5,0.6-0.7c0.1-0.1,0.2-0.2,0.3-0.4
		c0.1-0.1,0.2-0.2,0.3-0.4c0.2-0.3,0.3-0.5,0.5-0.8c0.3-0.5,0.6-1.1,0.8-1.6c0.5-1.1,0.8-2.2,1-3.3c0.1-0.6,0.2-1.1,0.2-1.6l0-0.2v0
		l0,0l0-0.1l0-0.5l0-0.3l0-0.1l0-0.1c0,0,0,0,0,0l0-0.3l0-0.3l-0.1-0.4c0-0.1,0-0.3-0.1-0.4c0-0.1-0.1-0.3-0.1-0.4
		c-0.1-0.3-0.1-0.5-0.2-0.8c-0.1-0.2-0.1-0.5-0.2-0.7c-0.3-1-0.7-1.9-1.2-2.8c-0.5-0.9-1.1-1.7-1.7-2.4c-0.6-0.7-1.3-1.3-2.1-1.8
		l-0.1-0.1l0,0c0,0,0,0,0,0h0c0,0,0,0,0,0c0,0,0,0,0.1,0l-0.1-0.1c-0.1-0.1-0.2-0.1-0.4-0.2c-0.1-0.1-0.2-0.1-0.4-0.2l-0.1-0.1
		l-0.1,0l-0.1-0.1c-0.2-0.1-0.3-0.2-0.5-0.3c-0.2-0.1-0.4-0.2-0.6-0.3l-0.1-0.1l-0.2-0.1c-0.1,0-0.2-0.1-0.3-0.1
		c-0.2-0.1-0.4-0.2-0.6-0.2c-0.2-0.1-0.4-0.1-0.6-0.2c-0.2,0-0.4-0.1-0.6-0.1c-0.1,0-0.2,0-0.3-0.1c-0.1,0-0.2,0-0.3,0
		c-0.2,0-0.4-0.1-0.6-0.1c-0.2,0-0.4,0-0.6-0.1c-0.2,0-0.4,0-0.6,0c-1.5-0.1-2.8,0.1-4,0.3c-0.1,0-0.3,0.1-0.4,0.1l0,0
		c-0.1,0-0.2,0.1-0.3,0.1c-0.3,0.1-0.5,0.1-0.7,0.2c-0.2,0.1-0.4,0.1-0.6,0.2c-0.2,0.1-0.4,0.1-0.5,0.2c-0.6,0.2-0.9,0.4-0.9,0.4
		l-1.1,0.5l0.7-0.9c0,0,0.2-0.3,0.7-0.8c0.2-0.2,0.6-0.5,0.9-0.8c0.2-0.1,0.4-0.3,0.6-0.5c0.1,0,0.1-0.1,0.2-0.1
		c0.1,0,0.1-0.1,0.2-0.1c0.1-0.1,0.3-0.2,0.4-0.3c1.1-0.7,2.6-1.3,4.4-1.7c0.5-0.1,0.9-0.2,1.4-0.2c0.2,0,0.5,0,0.8-0.1
		c0.1,0,0.3,0,0.4,0c0.1,0,0.3,0,0.4,0c1.1,0,2.2,0.1,3.4,0.3c0.3,0.1,0.6,0.1,0.9,0.2c0.2,0,0.3,0.1,0.5,0.1
		c0.2,0.1,0.3,0.1,0.5,0.2l0.2,0.1l0.1,0l0.1,0c0.1,0,0.3,0.1,0.4,0.2c0.1,0.1,0.3,0.1,0.4,0.2l0.1,0l0,0l0.1,0.1l0.1,0l0.2,0.1
		c1.2,0.6,2.3,1.4,3.4,2.3c1.1,0.9,2,2,2.9,3.3c0.2,0.3,0.4,0.6,0.6,1c0.2,0.3,0.4,0.7,0.5,1c0.3,0.7,0.6,1.4,0.9,2.1
		c0.1,0.4,0.2,0.8,0.3,1.1c0,0.2,0.1,0.4,0.1,0.6c0,0.2,0.1,0.4,0.1,0.6c0,0.2,0.1,0.4,0.1,0.6c0,0.2,0,0.4,0.1,0.6
		c0,0.2,0.1,0.4,0.1,0.6c0,0.3,0.1,0.6,0,1c0,0.1,0,0.2,0,0.4c0,0,0,0.1,0,0.1l0,0.1l0,0.1l0,0.3l0,0.5l0,0.2l0,0.2l0,0.3
		c-0.1,0.8-0.3,1.6-0.5,2.4c-0.2,0.8-0.5,1.5-0.8,2.3c-0.3,0.7-0.7,1.4-1.1,2.1c-0.8,1.4-1.7,2.6-2.7,3.8c-0.3,0.3-0.5,0.6-0.8,0.9
		l-0.2,0.2l-0.1,0.1l-0.1,0.1l0,0l-0.4,0.4l-0.2,0.2l-0.2,0.2l-0.4,0.4c-0.3,0.2-0.6,0.5-0.9,0.7c-1.2,0.9-2.5,1.7-3.7,2.4
		c-1.3,0.7-2.6,1.2-3.9,1.7c-0.3,0.1-0.7,0.2-1,0.3c-0.3,0.1-0.7,0.2-1,0.3c-0.2,0.1-0.3,0.1-0.5,0.1c-0.2,0-0.3,0.1-0.5,0.1l0,0
		c0,0,0,0,0,0l-0.1,0l-0.1,0l-0.2,0.1c-0.2,0-0.3,0.1-0.5,0.1c-2.6,0.6-5.2,1-7.6,1.1c-2.4,0.1-4.7,0-6.8-0.2
		c-0.3,0-0.5-0.1-0.8-0.1c-0.1,0-0.3,0-0.4,0c-0.1,0-0.3,0-0.4-0.1c-0.5-0.1-1-0.2-1.5-0.2c-0.9-0.2-1.8-0.4-2.6-0.6
		c-0.2-0.1-0.4-0.1-0.6-0.2c-0.1,0-0.2-0.1-0.3-0.1c-0.1,0-0.2-0.1-0.3-0.1c-0.3-0.1-0.7-0.2-1-0.3l-1.8,11.2h44.8
		c10,0,17.2-2.4,21.5-7.3c4.3-4.9,6.5-10.5,6.5-17C235.9,123.3,232.7,117.8,226.2,114.4z M180.3,113.8l-0.8,1.2c0,0,0,0.1-0.1,0.2
		c-0.1,0.1-0.2,0.4-0.4,0.7c-0.3,0.6-0.7,1.4-1,2.6c-0.3,1.1-0.5,2.5-0.4,4.1c0.1,1.5,0.5,3.3,1.2,5c0.4,0.8,0.8,1.7,1.4,2.5
		c0.3,0.4,0.6,0.8,0.9,1.1c0.1,0.1,0.2,0.2,0.2,0.3c0.1,0.1,0.2,0.2,0.2,0.2l0.2,0.2l0,0l0,0c0,0,0,0,0,0c0,0,0,0,0,0l0.1,0.1
		c0.1,0.1,0.2,0.2,0.3,0.3c1.5,1.3,3.4,2.4,5.5,3.1c1.6,0.6,3.4,0.9,5.2,1.1c-0.2,0.2-0.5,0.3-0.7,0.4c-1,0.6-2,1.2-3.1,1.7
		c-0.3,0.1-0.5,0.2-0.8,0.4l0,0c-0.2,0.1-0.4,0.2-0.7,0.3l-0.1,0.1c-0.1,0-0.2,0.1-0.4,0.1l-0.4,0.2l-0.8,0.3
		c-0.6,0.2-1.2,0.4-1.8,0.6c-0.1-0.1-0.3-0.1-0.4-0.2c-0.7-0.4-1.3-0.7-1.9-1.2c-1.2-0.8-2.3-1.8-3.3-2.9c-0.1-0.1-0.2-0.3-0.3-0.4
		l-0.1-0.1l0,0l0,0l0,0l-0.1-0.2c-0.1-0.1-0.2-0.3-0.3-0.5c-0.1-0.1-0.2-0.3-0.3-0.4c-0.4-0.6-0.7-1.2-1-1.8
		c-0.3-0.6-0.6-1.2-0.8-1.8c-0.2-0.6-0.4-1.2-0.5-1.8c-0.5-2.4-0.5-4.7-0.2-6.6c0.4-1.9,1-3.5,1.8-4.6c0.7-1.2,1.5-1.9,2-2.4
		c0.3-0.2,0.5-0.4,0.6-0.5c0.1-0.1,0.2-0.2,0.2-0.2L180.3,113.8z M220.4,117c0,1.2-0.1,2.5-0.4,3.8c-0.2,1.3-0.5,2.6-1,3.9
		c-0.4,1.3-1,2.6-1.7,3.9c-0.2,0.3-0.3,0.6-0.5,0.9c-0.1,0.2-0.2,0.3-0.3,0.5c-0.1,0.1-0.2,0.3-0.3,0.5l-0.2,0.2l-0.2,0.2
		c-0.1,0.2-0.2,0.3-0.3,0.5l-0.3,0.4l-0.4,0.4c-1,1.2-2.1,2.2-3.3,3.2c-2.4,1.9-5.1,3.4-7.9,4.6c-0.7,0.3-1.4,0.6-2.1,0.8
		c-0.7,0.2-1.4,0.5-2.2,0.7l-0.6,0.1c-0.1,0-0.2,0-0.3,0.1l-0.3,0.1c0,0-0.1,0-0.1,0c0.5-0.3,1.1-0.7,1.6-1.1
		c0.2-0.2,0.4-0.3,0.6-0.5c0.1-0.1,0.2-0.1,0.3-0.2l0,0l0.7-0.6l0.7-0.6l0.4-0.4c0.3-0.3,0.5-0.5,0.7-0.8l0.2-0.2
		c1-1.1,1.9-2.4,2.8-3.8c1-0.5,1.9-1.1,2.8-1.7c1-0.7,2-1.5,2.8-2.4l0.3-0.3l0.3-0.3c0.1-0.1,0.2-0.2,0.3-0.3l0.1-0.2l0.1-0.2
		c0.1-0.1,0.2-0.2,0.3-0.4l0.3-0.4l0.3-0.4l0.3-0.4c1.4-2,2.3-4.3,2.9-6.5c0.6-2.2,0.9-4.4,0.9-6.5c0-1,0-2-0.1-3
		c-0.1-0.9-0.2-1.8-0.3-2.7c-0.1-0.8-0.3-1.5-0.5-2.2l-1.1,1.9c-0.7,1.1-2.3,0.7-2.4-0.6L212.6,95c-0.1-0.8,0.9-1.2,1.4-0.6l7.5,9.7
		c0.6,0.8-0.1,1.9-1,1.7l-2.2-0.5c0.3,0.7,0.5,1.4,0.8,2.3c0.3,0.9,0.5,1.8,0.7,2.8c0.2,1,0.4,2,0.5,3.2
		C220.3,114.6,220.4,115.8,220.4,117z"/>
</g>
</svg>
