<?xml version="1.0" encoding="utf-8"?>
<!-- Generator: Adobe Illustrator 24.3.0, SVG Export Plug-In . SVG Version: 6.00 Build 0)  -->
<svg version="1.1" id="Layer_1" xmlns="http://www.w3.org/2000/svg" xmlns:xlink="http://www.w3.org/1999/xlink" x="0px" y="0px"
	 viewBox="0 0 403 227" style="enable-background:new 0 0 403 227;" xml:space="preserve">
<style type="text/css">
	.st0{fill:#F5F5F5;}
	.st1{fill:#CCCCCC;}
	.st2{fill:none;stroke:#808080;stroke-width:0.25;stroke-miterlimit:10;stroke-dasharray:0.5,0.5;}
</style>
<g>
	<rect x="-0.1" class="st0" width="403" height="227"/>
	<g>
		<g>
			<g>
				<path class="st1" d="M113.7,113.7c-0.3-0.2-0.3-0.7,0-0.8c1-0.4,1.8-0.9,2.5-1.7c0.9-1,1.3-2.2,1.3-3.7c0-1.3-0.4-2.5-1.1-3.4
					c-0.8-1-1.7-1.6-2.8-1.9c-1.1-0.3-2.5-0.5-4.3-0.5h-8.5c-0.7,0-1.2,0.5-1.3,1.1l-3.1,18.9c0.2,0,0.4,0.1,0.6,0.1
					c0.2,0,0.5,0.1,0.7,0.1c0.1,0,0.3,0,0.4,0c0,0,0.1,0,0.1,0c0,0,0.1,0,0.1,0c0.1,0,0.1,0,0.2,0c0.6,0,1.2,0,1.8-0.1
					c0.6-0.1,1.3-0.3,2-0.5c0.1,0,0.2-0.1,0.2-0.1c0,0,0.1,0,0.1,0c0,0,0.1,0,0.1,0c0.1,0,0.2-0.1,0.2-0.1c0.1,0,0.2-0.1,0.2-0.1
					c0.3-0.1,0.6-0.3,0.9-0.5c0.3-0.2,0.6-0.4,0.9-0.6c0.1-0.1,0.1-0.1,0.2-0.2l0.1-0.1l0,0h0v0l0,0v0l0,0l0,0l0.1-0.1l0,0l0,0l0,0
					l0,0c0.1-0.1,0.1-0.1,0.2-0.2c0,0,0.1-0.1,0.1-0.1c0,0,0.1-0.1,0.1-0.1c0-0.1,0.1-0.1,0.1-0.2c0.1-0.1,0.2-0.3,0.2-0.5
					c0.1-0.3,0.2-0.6,0.3-0.9c0-0.2,0-0.3,0-0.5l0-0.1v0l0,0l0,0l0-0.1l0-0.1l0,0l0,0c0,0,0,0,0,0l0-0.1l0-0.1l0-0.1
					c0,0,0-0.1,0-0.1c0,0,0-0.1,0-0.1c0-0.1,0-0.1-0.1-0.2c0-0.1,0-0.1-0.1-0.2c-0.1-0.3-0.2-0.5-0.4-0.8c-0.1-0.2-0.3-0.5-0.5-0.7
					c-0.2-0.2-0.4-0.4-0.6-0.5l0,0l0,0c0,0,0,0,0,0h0c0,0,0,0,0,0c0,0,0,0,0,0l0,0c0,0-0.1,0-0.1-0.1c0,0-0.1,0-0.1-0.1l0,0l0,0l0,0
					c0,0-0.1-0.1-0.1-0.1c-0.1,0-0.1-0.1-0.2-0.1l0,0l0,0c0,0-0.1,0-0.1,0c-0.1,0-0.1,0-0.2-0.1c-0.1,0-0.1,0-0.2-0.1
					c-0.1,0-0.1,0-0.2,0c0,0-0.1,0-0.1,0c0,0-0.1,0-0.1,0c-0.1,0-0.1,0-0.2,0c-0.1,0-0.1,0-0.2,0c-0.1,0-0.1,0-0.2,0
					c-0.4,0-0.8,0-1.1,0.1c0,0-0.1,0-0.1,0l0,0c0,0-0.1,0-0.1,0c-0.1,0-0.1,0-0.2,0.1c-0.1,0-0.1,0-0.2,0.1c-0.1,0-0.1,0-0.1,0
					c-0.2,0.1-0.3,0.1-0.3,0.1l-0.3,0.1l0.2-0.3c0,0,0.1-0.1,0.2-0.2c0.1-0.1,0.2-0.1,0.3-0.2c0.1,0,0.1-0.1,0.2-0.1c0,0,0,0,0.1,0
					c0,0,0,0,0.1,0c0,0,0.1,0,0.1-0.1c0.3-0.2,0.7-0.4,1.3-0.5c0.1,0,0.3,0,0.4-0.1c0.1,0,0.1,0,0.2,0c0,0,0.1,0,0.1,0
					c0,0,0.1,0,0.1,0c0.3,0,0.6,0,1,0.1c0.1,0,0.2,0,0.3,0.1c0,0,0.1,0,0.1,0c0,0,0.1,0,0.1,0l0.1,0l0,0l0,0c0,0,0.1,0,0.1,0
					c0,0,0.1,0,0.1,0l0,0l0,0l0,0l0,0l0.1,0c0.3,0.2,0.7,0.4,1,0.7c0.3,0.3,0.6,0.6,0.8,0.9c0.1,0.1,0.1,0.2,0.2,0.3
					c0.1,0.1,0.1,0.2,0.1,0.3c0.1,0.2,0.2,0.4,0.2,0.6c0,0.1,0.1,0.2,0.1,0.3c0,0.1,0,0.1,0,0.2c0,0.1,0,0.1,0,0.2
					c0,0.1,0,0.1,0,0.2c0,0.1,0,0.1,0,0.2c0,0.1,0,0.1,0,0.2c0,0.1,0,0.2,0,0.3c0,0,0,0.1,0,0.1c0,0,0,0,0,0l0,0l0,0l0,0.1l0,0.1
					l0,0.1l0,0l0,0.1c0,0.2-0.1,0.5-0.1,0.7c-0.1,0.2-0.1,0.4-0.2,0.6c-0.1,0.2-0.2,0.4-0.3,0.6c-0.2,0.4-0.5,0.7-0.8,1.1
					c-0.1,0.1-0.1,0.2-0.2,0.2l-0.1,0.1l0,0l0,0l0,0l-0.1,0.1l-0.1,0.1l-0.1,0.1l-0.1,0.1c-0.1,0.1-0.2,0.1-0.3,0.2
					c-0.3,0.3-0.7,0.5-1.1,0.7c-0.4,0.2-0.7,0.4-1.1,0.5c-0.1,0-0.2,0.1-0.3,0.1c-0.1,0-0.2,0.1-0.3,0.1c0,0-0.1,0-0.1,0
					c0,0-0.1,0-0.1,0l0,0c0,0,0,0,0,0l0,0l0,0l-0.1,0c0,0-0.1,0-0.1,0c-0.7,0.2-1.5,0.3-2.2,0.3c-0.7,0-1.3,0-1.9-0.1
					c-0.1,0-0.1,0-0.2,0c0,0-0.1,0-0.1,0c0,0-0.1,0-0.1,0c-0.1,0-0.3,0-0.4-0.1c-0.3-0.1-0.5-0.1-0.8-0.2c-0.1,0-0.1,0-0.2,0
					c0,0-0.1,0-0.1,0c0,0-0.1,0-0.1,0c-0.1,0-0.2-0.1-0.3-0.1l-0.5,3.2h12.7c2.8,0,4.9-0.7,6.1-2.1c1.2-1.4,1.8-3,1.8-4.8
					C116.5,116.3,115.6,114.7,113.7,113.7z M100.7,113.6l-0.2,0.4c0,0,0,0,0,0.1c0,0-0.1,0.1-0.1,0.2c-0.1,0.2-0.2,0.4-0.3,0.7
					c-0.1,0.3-0.1,0.7-0.1,1.2c0,0.4,0.1,0.9,0.3,1.4c0.1,0.2,0.2,0.5,0.4,0.7c0.1,0.1,0.2,0.2,0.3,0.3c0,0,0,0.1,0.1,0.1
					c0,0,0,0,0.1,0.1l0,0l0,0l0,0c0,0,0,0,0,0c0,0,0,0,0,0l0,0c0,0,0.1,0,0.1,0.1c0.4,0.4,1,0.7,1.6,0.9c0.5,0.2,1,0.3,1.5,0.3
					c-0.1,0-0.1,0.1-0.2,0.1c-0.3,0.2-0.6,0.3-0.9,0.5c-0.1,0-0.2,0.1-0.2,0.1l0,0c-0.1,0-0.1,0.1-0.2,0.1l0,0c0,0-0.1,0-0.1,0
					l-0.1,0l-0.2,0.1c-0.2,0.1-0.3,0.1-0.5,0.2c0,0-0.1,0-0.1-0.1c-0.2-0.1-0.4-0.2-0.5-0.3c-0.3-0.2-0.7-0.5-0.9-0.8
					c0,0-0.1-0.1-0.1-0.1l0,0l0,0l0,0l0,0l0-0.1c0,0-0.1-0.1-0.1-0.1c0,0-0.1-0.1-0.1-0.1c-0.1-0.2-0.2-0.3-0.3-0.5
					c-0.1-0.2-0.2-0.3-0.2-0.5c-0.1-0.2-0.1-0.3-0.1-0.5c-0.2-0.7-0.1-1.3,0-1.9c0.1-0.5,0.3-1,0.5-1.3c0.2-0.3,0.4-0.5,0.6-0.7
					c0.1-0.1,0.1-0.1,0.2-0.1c0,0,0.1,0,0.1,0L100.7,113.6z M112.1,114.5c0,0.3,0,0.7-0.1,1.1c-0.1,0.4-0.2,0.7-0.3,1.1
					c-0.1,0.4-0.3,0.7-0.5,1.1c0,0.1-0.1,0.2-0.2,0.3c0,0-0.1,0.1-0.1,0.1c0,0-0.1,0.1-0.1,0.1l0,0.1l0,0.1c0,0-0.1,0.1-0.1,0.1
					l-0.1,0.1l-0.1,0.1c-0.3,0.3-0.6,0.6-0.9,0.9c-0.7,0.5-1.4,1-2.2,1.3c-0.2,0.1-0.4,0.2-0.6,0.2c-0.2,0.1-0.4,0.1-0.6,0.2l-0.2,0
					c0,0,0,0-0.1,0l-0.1,0c0,0,0,0,0,0c0.2-0.1,0.3-0.2,0.4-0.3c0.1,0,0.1-0.1,0.2-0.1c0,0,0.1,0,0.1-0.1l0,0l0.2-0.2l0.2-0.2
					l0.1-0.1c0.1-0.1,0.1-0.1,0.2-0.2l0,0c0.3-0.3,0.5-0.7,0.8-1.1c0.3-0.1,0.6-0.3,0.8-0.5c0.3-0.2,0.6-0.4,0.8-0.7l0.1-0.1
					l0.1-0.1c0,0,0.1-0.1,0.1-0.1l0,0l0,0c0,0,0-0.1,0.1-0.1l0.1-0.1l0.1-0.1l0.1-0.1c0.4-0.6,0.7-1.2,0.8-1.8
					c0.2-0.6,0.3-1.3,0.3-1.8c0-0.3,0-0.6,0-0.8c0-0.3-0.1-0.5-0.1-0.8c0-0.2-0.1-0.4-0.1-0.6l-0.3,0.5c-0.2,0.3-0.7,0.2-0.7-0.2
					l-0.2-3.4c0-0.2,0.3-0.3,0.4-0.2l2.1,2.7c0.2,0.2,0,0.5-0.3,0.5l-0.6-0.1c0.1,0.2,0.2,0.4,0.2,0.6c0.1,0.2,0.1,0.5,0.2,0.8
					c0.1,0.3,0.1,0.6,0.1,0.9C112.1,113.8,112.1,114.1,112.1,114.5z"/>
			</g>
			<path class="st1" d="M125,125.3v-17.8h8.4c2.1,0,3.7,0.4,4.9,1.3c1.1,0.8,1.7,2,1.7,3.4c0,1-0.2,1.8-0.7,2.4
				c-0.4,0.7-1,1.2-1.8,1.6c-0.7,0.4-1.5,0.5-2.4,0.5l0.5-0.9c1,0,1.9,0.2,2.7,0.5c0.8,0.4,1.4,0.9,1.9,1.6c0.5,0.7,0.7,1.6,0.7,2.6
				c0,1.5-0.6,2.7-1.7,3.6c-1.2,0.8-2.9,1.3-5.2,1.3H125z M128.3,122.7h5.4c1.2,0,2.2-0.2,2.8-0.6c0.7-0.4,1-1.1,1-2
				c0-0.9-0.3-1.5-1-1.9c-0.7-0.4-1.6-0.6-2.8-0.6h-5.6V115h4.9c1.1,0,2-0.2,2.7-0.6c0.6-0.4,0.9-1,0.9-1.8c0-0.8-0.3-1.5-0.9-1.9
				c-0.6-0.4-1.5-0.6-2.7-0.6h-4.7V122.7z"/>
			<path class="st1" d="M143.6,125.3v-12.9h2.9v3.6l-0.3-1c0.4-0.9,1-1.5,1.8-2c0.8-0.5,1.9-0.7,3.1-0.7v2.9c-0.1,0-0.2,0-0.3,0
				c-0.1,0-0.2,0-0.3,0c-1.2,0-2.1,0.3-2.8,1c-0.7,0.7-1,1.7-1,3v6.3H143.6z"/>
			<path class="st1" d="M156.6,125.4c-1,0-1.8-0.2-2.5-0.5c-0.7-0.3-1.3-0.8-1.7-1.4c-0.4-0.6-0.6-1.3-0.6-2c0-0.7,0.2-1.4,0.5-2
				c0.3-0.6,0.9-1,1.7-1.4c0.8-0.3,1.8-0.5,3.2-0.5h3.8v2h-3.5c-1,0-1.7,0.2-2.1,0.5c-0.4,0.3-0.5,0.7-0.5,1.2c0,0.5,0.2,1,0.7,1.3
				c0.4,0.3,1,0.5,1.8,0.5c0.7,0,1.4-0.2,2-0.5c0.6-0.3,1-0.8,1.3-1.5l0.5,1.8c-0.3,0.8-0.8,1.3-1.6,1.8
				C158.7,125.2,157.7,125.4,156.6,125.4z M160.6,125.3v-2.6l-0.1-0.5v-4.6c0-0.9-0.3-1.6-0.8-2.1c-0.5-0.5-1.4-0.7-2.5-0.7
				c-0.7,0-1.4,0.1-2.1,0.3c-0.7,0.2-1.3,0.5-1.8,0.9l-1.2-2.2c0.7-0.5,1.5-0.9,2.5-1.2c1-0.3,1.9-0.4,3-0.4c1.9,0,3.3,0.5,4.4,1.4
				c1,0.9,1.5,2.3,1.5,4.2v7.6H160.6z"/>
			<path class="st1" d="M174.7,112.2c1.1,0,2,0.2,2.8,0.6c0.8,0.4,1.4,1,1.9,1.9c0.5,0.8,0.7,1.9,0.7,3.2v7.4h-3v-7
				c0-1.1-0.3-2-0.8-2.6c-0.5-0.6-1.3-0.8-2.3-0.8c-0.7,0-1.3,0.1-1.9,0.4c-0.5,0.3-1,0.7-1.3,1.3c-0.3,0.6-0.4,1.3-0.4,2.2v6.5h-3
				v-12.9h2.9v3.5l-0.5-1.1c0.4-0.8,1.1-1.5,2-1.9C172.6,112.4,173.6,112.2,174.7,112.2z"/>
			<path class="st1" d="M189.5,125.4c-1.2,0-2.4-0.3-3.4-0.8c-1-0.5-1.8-1.3-2.3-2.3c-0.6-1-0.8-2.2-0.8-3.5c0-1.3,0.3-2.5,0.8-3.5
				c0.6-1,1.3-1.8,2.3-2.3c1-0.5,2.1-0.8,3.4-0.8c1.1,0,2.1,0.2,2.9,0.7c0.9,0.5,1.5,1.2,2,2.2s0.8,2.2,0.8,3.7
				c0,1.5-0.2,2.7-0.7,3.7c-0.5,1-1.2,1.7-2,2.2C191.6,125.2,190.6,125.4,189.5,125.4z M189.8,122.9c0.7,0,1.4-0.2,2-0.5
				c0.6-0.3,1-0.8,1.4-1.4c0.3-0.6,0.5-1.3,0.5-2.1c0-0.8-0.2-1.5-0.5-2.1c-0.3-0.6-0.8-1.1-1.4-1.4c-0.6-0.3-1.2-0.5-2-0.5
				c-0.7,0-1.4,0.2-2,0.5c-0.6,0.3-1,0.8-1.4,1.4c-0.3,0.6-0.5,1.3-0.5,2.1c0,0.8,0.2,1.5,0.5,2.1c0.3,0.6,0.8,1.1,1.4,1.4
				C188.5,122.7,189.1,122.9,189.8,122.9z M193.8,125.3v-3.1l0.1-3.4l-0.2-3.4v-8h3.1v18H193.8z"/>
			<path class="st1" d="M207.6,125.3v-17h7.4c1.8,0,3.4,0.4,4.8,1.1c1.4,0.7,2.5,1.7,3.3,3c0.8,1.3,1.2,2.8,1.2,4.5
				c0,1.7-0.4,3.2-1.2,4.5c-0.8,1.3-1.9,2.3-3.3,3c-1.4,0.7-3,1.1-4.8,1.1H207.6z M210.7,122.6h4.1c1.3,0,2.4-0.2,3.3-0.7
				c0.9-0.5,1.7-1.2,2.2-2s0.8-1.9,0.8-3.1c0-1.2-0.3-2.2-0.8-3.1c-0.5-0.9-1.3-1.5-2.2-2c-0.9-0.5-2-0.7-3.3-0.7h-4.1V122.6z"/>
			<path class="st1" d="M228.8,110.9c-0.5,0-1-0.2-1.3-0.5c-0.3-0.3-0.5-0.8-0.5-1.2c0-0.5,0.2-0.9,0.5-1.2c0.3-0.3,0.8-0.5,1.3-0.5
				c0.5,0,1,0.2,1.3,0.5c0.3,0.3,0.5,0.7,0.5,1.2c0,0.5-0.2,0.9-0.5,1.3C229.8,110.7,229.4,110.9,228.8,110.9z M227.4,125.3V112h2.9
				v13.3H227.4z"/>
			<path class="st1" d="M234.4,125.3v-18h3v18H234.4z"/>
			<path class="st1" d="M245.3,125.4c-1,0-1.8-0.2-2.5-0.5c-0.7-0.3-1.3-0.8-1.7-1.4c-0.4-0.6-0.6-1.3-0.6-2c0-0.7,0.2-1.4,0.5-2
				c0.3-0.6,0.9-1,1.7-1.4c0.8-0.3,1.8-0.5,3.2-0.5h3.8v2H246c-1,0-1.7,0.2-2.1,0.5c-0.4,0.3-0.5,0.7-0.5,1.2c0,0.5,0.2,1,0.7,1.3
				c0.4,0.3,1,0.5,1.8,0.5c0.7,0,1.4-0.2,2-0.5c0.6-0.3,1-0.8,1.3-1.5l0.5,1.8c-0.3,0.8-0.8,1.3-1.6,1.8
				C247.4,125.2,246.4,125.4,245.3,125.4z M249.3,125.3v-2.6l-0.1-0.5v-4.6c0-0.9-0.3-1.6-0.8-2.1c-0.5-0.5-1.4-0.7-2.5-0.7
				c-0.7,0-1.4,0.1-2.1,0.3c-0.7,0.2-1.3,0.5-1.8,0.9l-1.2-2.2c0.7-0.5,1.5-0.9,2.5-1.2c1-0.3,1.9-0.4,3-0.4c1.9,0,3.3,0.5,4.4,1.4
				c1,0.9,1.5,2.3,1.5,4.2v7.6H249.3z"/>
			<path class="st1" d="M254.3,114.9v-2.4h8.6v2.4H254.3z M260.9,125.4c-1.4,0-2.5-0.4-3.3-1.1c-0.8-0.7-1.2-1.8-1.2-3.2v-11.6h3
				V121c0,0.6,0.2,1.1,0.5,1.4s0.8,0.5,1.4,0.5c0.7,0,1.2-0.2,1.6-0.5l0.9,2.2c-0.4,0.3-0.8,0.5-1.3,0.7
				C262,125.4,261.5,125.4,260.9,125.4z"/>
			<path class="st1" d="M267.9,110.8c-0.5,0-1-0.2-1.3-0.5c-0.3-0.3-0.5-0.8-0.5-1.3c0-0.5,0.2-0.9,0.5-1.2c0.3-0.3,0.8-0.5,1.3-0.5
				c0.5,0,1,0.2,1.3,0.5c0.3,0.3,0.5,0.7,0.5,1.2c0,0.5-0.2,0.9-0.5,1.3C268.9,110.6,268.4,110.8,267.9,110.8z M266.4,125.3V112h2.9
				v13.3H266.4z"/>
			<path class="st1" d="M279.2,125.4c-1.3,0-2.5-0.3-3.5-0.9c-1-0.6-1.9-1.4-2.5-2.4c-0.6-1-0.9-2.1-0.9-3.4c0-1.3,0.3-2.5,0.9-3.4
				c0.6-1,1.4-1.8,2.4-2.3s2.2-0.9,3.5-0.9c1.3,0,2.5,0.3,3.6,0.9s1.9,1.4,2.4,2.3c0.6,1,0.9,2.1,0.9,3.4c0,1.3-0.3,2.4-0.9,3.4
				c-0.6,1-1.4,1.8-2.5,2.4C281.7,125.2,280.5,125.4,279.2,125.4z M279.2,122.9c0.7,0,1.4-0.2,2-0.5c0.6-0.3,1-0.8,1.4-1.4
				c0.3-0.6,0.5-1.3,0.5-2.1c0-0.8-0.2-1.5-0.5-2.1c-0.3-0.6-0.8-1.1-1.4-1.4c-0.6-0.3-1.2-0.5-2-0.5c-0.7,0-1.4,0.2-2,0.5
				c-0.6,0.3-1,0.8-1.4,1.4c-0.3,0.6-0.5,1.3-0.5,2.1c0,0.8,0.2,1.5,0.5,2.1c0.3,0.6,0.8,1.1,1.4,1.4
				C277.8,122.7,278.5,122.9,279.2,122.9z"/>
			<path class="st1" d="M296.3,112.2c1.1,0,2,0.2,2.8,0.6c0.8,0.4,1.4,1,1.9,1.9c0.5,0.8,0.7,1.9,0.7,3.2v7.4h-3v-7
				c0-1.1-0.3-2-0.8-2.6c-0.5-0.6-1.3-0.8-2.3-0.8c-0.7,0-1.3,0.1-1.9,0.4c-0.5,0.3-1,0.7-1.3,1.3c-0.3,0.6-0.4,1.3-0.4,2.2v6.5h-3
				v-12.9h2.9v3.5l-0.5-1.1c0.4-0.8,1.1-1.5,2-1.9C294.2,112.4,295.2,112.2,296.3,112.2z"/>
		</g>
		<line class="st2" x1="141.9" y1="112.1" x2="314.9" y2="112.1"/>
		<g>
			<line class="st2" x1="87.8" y1="125.3" x2="314.9" y2="125.3"/>
			<line class="st2" x1="87.8" y1="107.4" x2="314.9" y2="107.4"/>
			<line class="st2" x1="87.8" y1="101.7" x2="314.9" y2="101.7"/>
			<line class="st2" x1="87.8" y1="96.2" x2="314.9" y2="96.2"/>
			<line class="st2" x1="87.8" y1="130.8" x2="314.9" y2="130.8"/>
			<line class="st2" x1="117.6" y1="101.7" x2="117.6" y2="125.3"/>
			<line class="st2" x1="196.7" y1="101.7" x2="196.7" y2="125.3"/>
			<line class="st2" x1="207.6" y1="101.7" x2="207.6" y2="125.3"/>
			<line class="st2" x1="301.8" y1="101.7" x2="301.8" y2="125.3"/>
			<line class="st2" x1="95.9" y1="101.7" x2="95.9" y2="125.3"/>
			<line class="st2" x1="125" y1="101.7" x2="125" y2="125.3"/>
			<line class="st2" x1="117.6" y1="115.8" x2="124.7" y2="115.8"/>
		</g>
	</g>
</g>
</svg>
