<?xml version="1.0" encoding="utf-8"?>
<!-- Generator: Adobe Illustrator 24.3.0, SVG Export Plug-In . SVG Version: 6.00 Build 0)  -->
<svg version="1.1" id="Layer_1" xmlns="http://www.w3.org/2000/svg" xmlns:xlink="http://www.w3.org/1999/xlink" x="0px" y="0px"
	 viewBox="0 0 403 227" style="enable-background:new 0 0 403 227;" xml:space="preserve">
<style type="text/css">
	.st0{fill:#F5F5F5;}
	.st1{fill:#262626;}
</style>
<rect class="st0" width="403" height="227"/>
<g>
	<g>
		<path class="st1" d="M105.6,113.9c-0.4-0.2-0.4-0.8,0.1-1c1.2-0.4,2.1-1.1,2.9-2c1-1.2,1.6-2.6,1.6-4.3c0-1.5-0.4-2.9-1.3-4
			c-0.9-1.1-2-1.9-3.3-2.3c-1.3-0.4-3-0.6-5-0.6h-9.9c-0.8,0-1.4,0.6-1.5,1.3l-3.6,21.9c0.2,0,0.5,0.1,0.7,0.1
			c0.3,0,0.6,0.1,0.9,0.1c0.2,0,0.3,0,0.5,0h0.1h0.1c0.1,0,0.2,0,0.2,0c0.7,0,1.4,0,2.1-0.1c0.7-0.1,1.5-0.3,2.3-0.6
			c0.1,0,0.2-0.1,0.3-0.1c0,0,0.1,0,0.1-0.1c0.1,0,0.1,0,0.1-0.1c0.1,0,0.2-0.1,0.3-0.1c0.1,0,0.2-0.1,0.3-0.1
			c0.4-0.2,0.7-0.4,1.1-0.6c0.4-0.2,0.7-0.5,1-0.7c0.1-0.1,0.1-0.1,0.2-0.2l0.1-0.1l0.1-0.1l0,0l0,0l0,0l0,0l0,0l0,0l0.1-0.1l0,0
			l0,0l0,0V120c0.1-0.1,0.1-0.2,0.2-0.2l0.1-0.1l0.1-0.1c0.1-0.1,0.1-0.2,0.2-0.3c0.1-0.2,0.2-0.3,0.3-0.5c0.2-0.4,0.3-0.7,0.3-1.1
			c0-0.2,0-0.4,0.1-0.5v-0.1l0,0l0,0l0,0v-0.2v-0.1l0,0l0,0l0,0v-0.1v-0.1v-0.1v-0.1v-0.1c0-0.1,0-0.2-0.1-0.2c0-0.1,0-0.2-0.1-0.2
			c-0.1-0.3-0.2-0.6-0.4-0.9s-0.4-0.5-0.6-0.8c-0.2-0.2-0.4-0.4-0.7-0.6l0,0l0,0l0,0l0,0l0,0l0,0l0,0c0,0-0.1,0-0.1-0.1
			c0,0-0.1,0-0.1-0.1l0,0l0,0l0,0c-0.1,0-0.1-0.1-0.2-0.1c-0.1,0-0.1-0.1-0.2-0.1l0,0l0,0h-0.1c-0.1,0-0.1-0.1-0.2-0.1
			c-0.1,0-0.1,0-0.2-0.1c-0.1,0-0.1,0-0.2,0h-0.1h-0.1c-0.1,0-0.1,0-0.2,0c-0.1,0-0.1,0-0.2,0c-0.1,0-0.1,0-0.2,0
			c-0.5,0-0.9,0-1.3,0.1h-0.1l0,0H92c-0.1,0-0.2,0-0.2,0.1c-0.1,0-0.1,0-0.2,0.1c-0.1,0-0.1,0-0.2,0.1c-0.2,0.1-0.3,0.1-0.3,0.1
			l-0.4,0.2l0.2-0.3c0,0,0.1-0.1,0.2-0.3c0.1-0.1,0.2-0.2,0.3-0.3c0.1,0,0.1-0.1,0.2-0.2c0,0,0,0,0.1,0c0,0,0,0,0.1,0l0.1-0.1
			c0.4-0.2,0.9-0.4,1.5-0.6c0.1,0,0.3-0.1,0.5-0.1c0.1,0,0.2,0,0.3,0h0.1h0.1c0.4,0,0.7,0,1.1,0.1c0.1,0,0.2,0,0.3,0.1
			c0,0,0.1,0,0.2,0c0.1,0,0.1,0,0.2,0.1h0.1l0,0l0,0h0.1c0,0,0.1,0,0.1,0.1l0,0l0,0l0,0l0,0h0.1c0.4,0.2,0.8,0.4,1.1,0.8
			c0.3,0.3,0.7,0.7,0.9,1.1c0.1,0.1,0.1,0.2,0.2,0.3c0.1,0.1,0.1,0.2,0.2,0.3c0.1,0.2,0.2,0.5,0.3,0.7c0,0.1,0.1,0.2,0.1,0.4
			c0,0.1,0,0.1,0,0.2c0,0.1,0,0.1,0,0.2c0,0.1,0,0.1,0,0.2c0,0.1,0,0.1,0,0.2c0,0.1,0,0.1,0,0.2c0,0.1,0,0.2,0,0.3v0.1l0,0l0,0l0,0
			v0.1v0.2v0.1l0,0v0.1c0,0.3-0.1,0.5-0.2,0.8c-0.1,0.3-0.2,0.5-0.3,0.7s-0.2,0.5-0.3,0.7c-0.3,0.4-0.6,0.9-0.9,1.2
			c-0.1,0.1-0.2,0.2-0.3,0.3l-0.1,0.1l0,0l0,0l0,0l-0.1,0.1l-0.1,0.1l-0.1,0.1l-0.1,0.1c-0.1,0.1-0.2,0.2-0.3,0.2
			c-0.4,0.3-0.8,0.6-1.2,0.8c-0.4,0.2-0.9,0.4-1.3,0.6c-0.1,0-0.2,0.1-0.3,0.1s-0.2,0.1-0.3,0.1s-0.1,0-0.2,0c-0.1,0-0.1,0-0.2,0
			l0,0l0,0l0,0l0,0H93c-0.1,0-0.1,0-0.2,0c-0.9,0.2-1.7,0.3-2.5,0.4c-0.8,0-1.6,0-2.2-0.1c-0.1,0-0.2,0-0.3,0h-0.1h-0.1
			c-0.2,0-0.3-0.1-0.5-0.1c-0.3-0.1-0.6-0.1-0.9-0.2c-0.1,0-0.1,0-0.2-0.1h-0.1h-0.1c-0.1,0-0.2-0.1-0.3-0.1l-0.6,3.7h14.7
			c3.3,0,5.7-0.8,7.1-2.4c1.4-1.6,2.1-3.5,2.1-5.6C108.8,116.8,107.8,115,105.6,113.9z M90.5,113.7l-0.3,0.4c0,0,0,0,0,0.1
			c0,0-0.1,0.1-0.1,0.2c-0.1,0.2-0.2,0.5-0.3,0.8c-0.1,0.4-0.2,0.8-0.1,1.3c0,0.5,0.1,1.1,0.4,1.6c0.1,0.3,0.3,0.5,0.4,0.8
			c0.1,0.1,0.2,0.3,0.3,0.4l0.1,0.1c0,0,0,0,0.1,0.1l0.1,0.1l0,0l0,0l0,0l0,0l0,0l0.1,0.1c0.5,0.4,1.1,0.8,1.8,1
			c0.5,0.2,1.1,0.3,1.7,0.4c-0.1,0.1-0.1,0.1-0.2,0.1c-0.3,0.2-0.7,0.4-1,0.6c-0.1,0-0.2,0.1-0.3,0.1l0,0c-0.1,0-0.1,0.1-0.2,0.1
			l0,0h-0.1l-0.1,0.1l-0.3,0.1c-0.2,0.1-0.4,0.1-0.6,0.2c0,0-0.1,0-0.1-0.1c-0.2-0.1-0.4-0.2-0.6-0.4c-0.4-0.3-0.8-0.6-1.1-1
			l-0.1-0.1l0,0l0,0l0,0l0,0v-0.1c0,0-0.1-0.1-0.1-0.2l-0.1-0.1c-0.1-0.2-0.2-0.4-0.3-0.6c-0.1-0.2-0.2-0.4-0.3-0.6
			c-0.1-0.2-0.1-0.4-0.2-0.6c-0.2-0.8-0.2-1.5-0.1-2.2c0.1-0.6,0.3-1.1,0.6-1.5c0.2-0.4,0.5-0.6,0.7-0.8c0.1-0.1,0.2-0.1,0.2-0.2
			l0.1-0.1V113.7z M103.7,114.7c0,0.4,0,0.8-0.1,1.2c-0.1,0.4-0.2,0.9-0.3,1.3c-0.1,0.4-0.3,0.9-0.6,1.3c-0.1,0.1-0.1,0.2-0.2,0.3
			c0,0.1-0.1,0.1-0.1,0.2c0,0-0.1,0.1-0.1,0.2l-0.1,0.1l-0.1,0.1c0,0.1-0.1,0.1-0.1,0.1l-0.1,0.1l-0.1,0.1c-0.3,0.4-0.7,0.7-1.1,1
			c-0.8,0.6-1.7,1.1-2.6,1.5c-0.2,0.1-0.5,0.2-0.7,0.3c-0.2,0.1-0.5,0.2-0.7,0.2h-0.2h-0.1h-0.1l0,0c0.2-0.1,0.3-0.2,0.5-0.4
			c0.1-0.1,0.1-0.1,0.2-0.2c0,0,0.1,0,0.1-0.1l0,0l0.2-0.2l0.2-0.2l0.1-0.1c0.1-0.1,0.2-0.2,0.2-0.2l0.1-0.1
			c0.3-0.4,0.6-0.8,0.9-1.2c0.3-0.2,0.6-0.4,0.9-0.6s0.6-0.5,0.9-0.8l0.1-0.1l0.1-0.1l0.1-0.1v-0.1v-0.1l0.1-0.1l0.1-0.1l0.1-0.1
			l0.1-0.1c0.4-0.7,0.8-1.4,1-2.1s0.3-1.5,0.3-2.1c0-0.3,0-0.7,0-1s-0.1-0.6-0.1-0.9s-0.1-0.5-0.2-0.7l-0.4,0.6
			c-0.2,0.4-0.8,0.2-0.8-0.2l-0.3-4c0-0.3,0.3-0.4,0.5-0.2l2.5,3.2c0.2,0.3,0,0.6-0.3,0.6l-0.7-0.2c0.1,0.2,0.2,0.5,0.3,0.7
			c0.1,0.3,0.2,0.6,0.2,0.9c0.1,0.3,0.1,0.7,0.2,1C103.7,114,103.7,114.3,103.7,114.7z"/>
	</g>
	<g>
		<path class="st1" d="M120.7,127.1v-19.9h9.4c2.4,0,4.2,0.5,5.4,1.4c1.3,0.9,1.9,2.2,1.9,3.8c0,1.1-0.2,2-0.7,2.7s-1.2,1.3-2,1.7
			s-1.7,0.6-2.7,0.6l0.5-1c1.1,0,2.1,0.2,3,0.6c0.9,0.4,1.6,1,2.1,1.8s0.8,1.7,0.8,2.9c0,1.7-0.7,3-2,4c-1.3,0.9-3.2,1.4-5.8,1.4
			H120.7z M124.4,124.2h6c1.4,0,2.4-0.2,3.2-0.7c0.7-0.5,1.1-1.2,1.1-2.2s-0.4-1.7-1.1-2.2c-0.7-0.5-1.8-0.7-3.2-0.7h-6.3v-2.9h5.5
			c1.3,0,2.3-0.2,3-0.7s1.1-1.1,1.1-2c0-0.9-0.4-1.6-1.1-2.1c-0.7-0.5-1.7-0.7-3-0.7h-5.2C124.4,110,124.4,124.2,124.4,124.2z"/>
		<path class="st1" d="M141.5,127.1v-14.5h3.2v4l-0.4-1.2c0.4-1,1.1-1.7,2-2.2s2.1-0.8,3.4-0.8v3.2c-0.1,0-0.3,0-0.4,0
			c-0.1,0-0.2,0-0.4,0c-1.3,0-2.3,0.4-3.1,1.1s-1.1,1.9-1.1,3.4v7H141.5z"/>
		<path class="st1" d="M156,127.3c-1.1,0-2-0.2-2.8-0.6c-0.8-0.4-1.4-0.9-1.9-1.5c-0.5-0.6-0.7-1.4-0.7-2.2s0.2-1.5,0.6-2.2
			c0.4-0.6,1-1.2,1.9-1.5c0.9-0.4,2.1-0.6,3.5-0.6h4.2v2.2h-4c-1.1,0-1.9,0.2-2.3,0.6c-0.4,0.4-0.6,0.8-0.6,1.4
			c0,0.6,0.2,1.1,0.7,1.4c0.5,0.4,1.2,0.5,2,0.5s1.6-0.2,2.2-0.6c0.7-0.4,1.1-0.9,1.4-1.7l0.5,2c-0.3,0.8-0.9,1.5-1.7,2
			C158.4,127,157.3,127.3,156,127.3z M160.5,127.1v-3l-0.2-0.6v-5.1c0-1-0.3-1.8-0.9-2.3c-0.6-0.6-1.5-0.8-2.7-0.8
			c-0.8,0-1.6,0.1-2.4,0.4c-0.8,0.3-1.4,0.6-2,1.1l-1.3-2.5c0.8-0.6,1.7-1,2.8-1.4c1.1-0.3,2.2-0.5,3.3-0.5c2.1,0,3.7,0.5,4.9,1.5
			c1.1,1,1.7,2.6,1.7,4.7v8.5C163.7,127.1,160.5,127.1,160.5,127.1z"/>
		<path class="st1" d="M176.2,112.4c1.2,0,2.2,0.2,3.1,0.7c0.9,0.5,1.6,1.1,2.1,2.1c0.5,0.9,0.8,2.1,0.8,3.6v8.3h-3.4v-7.9
			c0-1.3-0.3-2.2-0.9-2.9c-0.6-0.6-1.4-0.9-2.5-0.9c-0.8,0-1.5,0.2-2.1,0.5s-1.1,0.8-1.4,1.4c-0.3,0.6-0.5,1.4-0.5,2.4v7.3H168
			v-14.5h3.2v3.9l-0.6-1.2c0.5-0.9,1.2-1.6,2.2-2.1C173.9,112.7,175,112.4,176.2,112.4z"/>
		<path class="st1" d="M192.7,127.3c-1.4,0-2.6-0.3-3.7-0.9c-1.1-0.6-2-1.5-2.6-2.6c-0.6-1.1-0.9-2.4-0.9-3.9s0.3-2.8,0.9-3.9
			c0.6-1.1,1.5-2,2.6-2.6c1.1-0.6,2.4-0.9,3.7-0.9c1.2,0,2.3,0.3,3.2,0.8c1,0.5,1.7,1.3,2.3,2.4c0.6,1.1,0.8,2.5,0.8,4.2
			s-0.3,3.1-0.8,4.2c-0.5,1.1-1.3,1.9-2.2,2.4S194,127.3,192.7,127.3z M193.1,124.4c0.8,0,1.5-0.2,2.2-0.6c0.6-0.4,1.2-0.9,1.5-1.6
			c0.4-0.7,0.6-1.5,0.6-2.4c0-0.9-0.2-1.7-0.6-2.4c-0.4-0.7-0.9-1.2-1.5-1.6c-0.6-0.4-1.4-0.6-2.2-0.6s-1.5,0.2-2.2,0.6
			c-0.6,0.4-1.2,0.9-1.5,1.6c-0.4,0.7-0.6,1.5-0.6,2.4c0,0.9,0.2,1.7,0.6,2.4c0.4,0.7,0.9,1.2,1.5,1.6
			C191.6,124.2,192.3,124.4,193.1,124.4z M197.5,127.1v-3.4l0.1-3.8l-0.3-3.8v-9h3.4v20H197.5z"/>
		<path class="st1" d="M213,127.1v-19h8.3c2,0,3.8,0.4,5.4,1.2c1.6,0.8,2.8,1.9,3.6,3.3c0.9,1.4,1.3,3.1,1.3,5c0,1.9-0.4,3.6-1.3,5
			c-0.9,1.4-2.1,2.5-3.6,3.3c-1.6,0.8-3.4,1.2-5.4,1.2H213z M216.5,124.1h4.6c1.4,0,2.7-0.3,3.7-0.8s1.9-1.3,2.4-2.3
			s0.9-2.1,0.9-3.4s-0.3-2.5-0.9-3.4c-0.6-1-1.4-1.7-2.4-2.2s-2.3-0.8-3.7-0.8h-4.6V124.1z"/>
		<path class="st1" d="M236.7,111c-0.6,0-1.1-0.2-1.5-0.6c-0.4-0.4-0.6-0.8-0.6-1.4c0-0.5,0.2-1,0.6-1.3c0.4-0.4,0.9-0.6,1.5-0.6
			s1.1,0.2,1.5,0.5c0.4,0.4,0.6,0.8,0.6,1.4c0,0.6-0.2,1-0.6,1.4C237.8,110.8,237.3,111,236.7,111z M235.1,127.1v-14.8h3.2v14.8
			H235.1z"/>
		<path class="st1" d="M242.9,127.1V107h3.4v20.1H242.9z"/>
		<path class="st1" d="M255,127.3c-1.1,0-2-0.2-2.8-0.6c-0.8-0.4-1.4-0.9-1.9-1.5c-0.5-0.6-0.7-1.4-0.7-2.2s0.2-1.5,0.6-2.2
			c0.4-0.6,1-1.2,1.9-1.5c0.9-0.4,2.1-0.6,3.5-0.6h4.2v2.2h-4c-1.1,0-1.9,0.2-2.3,0.6c-0.4,0.4-0.6,0.8-0.6,1.4
			c0,0.6,0.2,1.1,0.7,1.4c0.5,0.4,1.2,0.5,2,0.5c0.8,0,1.6-0.2,2.2-0.6c0.7-0.4,1.1-0.9,1.4-1.7l0.5,2c-0.3,0.8-0.9,1.5-1.7,2
			C257.4,127,256.3,127.3,255,127.3z M259.6,127.1v-3l-0.2-0.6v-5.1c0-1-0.3-1.8-0.9-2.3c-0.6-0.6-1.5-0.8-2.7-0.8
			c-0.8,0-1.6,0.1-2.4,0.4c-0.8,0.3-1.4,0.6-2,1.1l-1.3-2.5c0.8-0.6,1.7-1,2.8-1.4c1.1-0.3,2.2-0.5,3.3-0.5c2.1,0,3.7,0.5,4.9,1.5
			c1.1,1,1.7,2.6,1.7,4.7v8.5C262.8,127.1,259.6,127.1,259.6,127.1z"/>
		<path class="st1" d="M265.2,115.4v-2.7h9.6v2.7H265.2z M272.5,127.3c-1.6,0-2.8-0.4-3.7-1.2c-0.9-0.8-1.3-2-1.3-3.6v-13h3.4v12.9
			c0,0.7,0.2,1.2,0.5,1.6c0.4,0.4,0.9,0.6,1.5,0.6c0.7,0,1.4-0.2,1.8-0.6l1,2.4c-0.4,0.3-0.9,0.6-1.5,0.7
			C273.7,127.2,273.1,127.3,272.5,127.3z"/>
		<path class="st1" d="M280.3,110.9c-0.6,0-1.1-0.2-1.5-0.6c-0.4-0.4-0.6-0.8-0.6-1.4c0-0.5,0.2-1,0.6-1.4c0.4-0.4,0.9-0.6,1.5-0.6
			s1.1,0.2,1.5,0.5c0.4,0.4,0.6,0.8,0.6,1.4c0,0.6-0.2,1-0.6,1.4C281.4,110.7,280.9,110.9,280.3,110.9z M278.7,127.1v-14.8h3.2v14.8
			H278.7z"/>
		<path class="st1" d="M292.9,127.3c-1.5,0-2.8-0.3-3.9-1c-1.2-0.6-2.1-1.5-2.7-2.6c-0.7-1.1-1-2.4-1-3.8c0-1.5,0.3-2.7,1-3.8
			c0.7-1.1,1.6-2,2.7-2.6c1.2-0.6,2.5-1,4-1s2.8,0.3,4,1s2.1,1.5,2.7,2.6c0.7,1.1,1,2.4,1,3.8c0,1.4-0.3,2.7-1,3.8s-1.6,2-2.7,2.6
			C295.7,127,294.4,127.3,292.9,127.3z M292.9,124.4c0.8,0,1.6-0.2,2.2-0.6c0.7-0.4,1.2-0.9,1.5-1.6s0.6-1.5,0.6-2.4
			c0-0.9-0.2-1.7-0.6-2.4s-0.9-1.2-1.5-1.6c-0.6-0.4-1.4-0.6-2.2-0.6c-0.8,0-1.5,0.2-2.2,0.6c-0.6,0.4-1.2,0.9-1.5,1.6
			c-0.4,0.7-0.6,1.5-0.6,2.4c0,0.9,0.2,1.7,0.6,2.4c0.4,0.7,0.9,1.2,1.5,1.6C291.4,124.2,292.1,124.4,292.9,124.4z"/>
		<path class="st1" d="M312.1,112.4c1.2,0,2.2,0.2,3.1,0.7s1.6,1.1,2.1,2.1c0.5,0.9,0.8,2.1,0.8,3.6v8.3h-3.4v-7.9
			c0-1.3-0.3-2.2-0.9-2.9c-0.6-0.6-1.4-0.9-2.5-0.9c-0.8,0-1.5,0.2-2.1,0.5s-1.1,0.8-1.4,1.4c-0.3,0.6-0.5,1.4-0.5,2.4v7.3h-3.4
			v-14.5h3.2v3.9l-0.6-1.2c0.5-0.9,1.2-1.6,2.2-2.1C309.7,112.7,310.8,112.4,312.1,112.4z"/>
	</g>
</g>
</svg>
