<?xml version="1.0" encoding="utf-8"?>
<!-- Generator: Adobe Illustrator 24.3.0, SVG Export Plug-In . SVG Version: 6.00 Build 0)  -->
<svg version="1.1" id="Layer_1" xmlns="http://www.w3.org/2000/svg" xmlns:xlink="http://www.w3.org/1999/xlink" x="0px" y="0px"
	 viewBox="0 0 32 32" style="enable-background:new 0 0 32 32;" xml:space="preserve">
<style type="text/css">
	.st0{fill:#3C0E40;}
	.st1{fill:#FFFFFF;}
</style>
<g>
	<path class="st0" d="M8.2,4h15.7C26.1,4,28,5.9,28,8.2v15.7c0,2.3-1.9,4.2-4.2,4.2H8.2C5.9,28,4,26.1,4,23.8V8.2C4,5.9,5.9,4,8.2,4
		z"/>
	<g>
		<path class="st1" d="M20.2,16.1c-0.2-0.1-0.2-0.4,0-0.5c0.6-0.2,1.1-0.6,1.5-1c0.5-0.6,0.8-1.3,0.8-2.2c0-0.8-0.2-1.5-0.7-2.1
			c-0.5-0.6-1-1-1.7-1.2c-0.7-0.2-1.5-0.3-2.6-0.3h-5.1c-0.4,0-0.7,0.3-0.8,0.7L9.8,21c0.1,0,0.2,0,0.4,0.1c0.1,0,0.3,0,0.4,0
			c0.1,0,0.2,0,0.2,0c0,0,0,0,0.1,0c0,0,0,0,0.1,0c0,0,0.1,0,0.1,0c0.3,0,0.7,0,1.1-0.1c0.4-0.1,0.8-0.2,1.2-0.3c0,0,0.1,0,0.1-0.1
			c0,0,0.1,0,0.1,0c0,0,0.1,0,0.1,0c0,0,0.1,0,0.1-0.1c0,0,0.1,0,0.1-0.1c0.2-0.1,0.4-0.2,0.6-0.3c0.2-0.1,0.4-0.2,0.5-0.4
			c0,0,0.1-0.1,0.1-0.1l0.1-0.1l0,0h0v0l0,0v0l0,0l0,0l0.1-0.1l0,0l0,0l0,0l0,0c0,0,0.1-0.1,0.1-0.1c0,0,0,0,0-0.1c0,0,0,0,0-0.1
			c0,0,0.1-0.1,0.1-0.1c0.1-0.1,0.1-0.2,0.1-0.3c0.1-0.2,0.1-0.4,0.2-0.6c0-0.1,0-0.2,0-0.3l0,0v0l0,0l0,0l0-0.1l0,0l0,0l0,0
			c0,0,0,0,0,0l0-0.1l0-0.1l0-0.1c0,0,0,0,0-0.1c0,0,0,0,0-0.1c0,0,0-0.1,0-0.1c0,0,0-0.1,0-0.1c-0.1-0.2-0.1-0.3-0.2-0.5
			c-0.1-0.1-0.2-0.3-0.3-0.4c-0.1-0.1-0.2-0.2-0.4-0.3l0,0l0,0c0,0,0,0,0,0h0c0,0,0,0,0,0c0,0,0,0,0,0l0,0c0,0,0,0-0.1,0
			c0,0,0,0-0.1,0l0,0l0,0l0,0c0,0-0.1,0-0.1,0c0,0-0.1,0-0.1,0l0,0l0,0c0,0,0,0-0.1,0c0,0-0.1,0-0.1,0c0,0-0.1,0-0.1,0
			c0,0-0.1,0-0.1,0c0,0,0,0-0.1,0c0,0,0,0-0.1,0c0,0-0.1,0-0.1,0c0,0-0.1,0-0.1,0c0,0-0.1,0-0.1,0c-0.3,0-0.5,0-0.7,0c0,0,0,0-0.1,0
			l0,0c0,0,0,0-0.1,0c0,0-0.1,0-0.1,0c0,0-0.1,0-0.1,0c0,0-0.1,0-0.1,0c-0.1,0-0.2,0.1-0.2,0.1l-0.2,0.1l0.1-0.2c0,0,0,0,0.1-0.1
			c0,0,0.1-0.1,0.2-0.1c0,0,0.1-0.1,0.1-0.1c0,0,0,0,0,0c0,0,0,0,0,0c0,0,0,0,0.1,0c0.2-0.1,0.4-0.2,0.8-0.3c0.1,0,0.2,0,0.2,0
			c0,0,0.1,0,0.1,0c0,0,0,0,0.1,0c0,0,0,0,0.1,0c0.2,0,0.4,0,0.6,0.1c0.1,0,0.1,0,0.2,0c0,0,0.1,0,0.1,0c0,0,0.1,0,0.1,0l0,0l0,0
			l0,0c0,0,0,0,0.1,0c0,0,0,0,0.1,0l0,0l0,0l0,0l0,0l0,0c0.2,0.1,0.4,0.2,0.6,0.4c0.2,0.2,0.3,0.3,0.5,0.6c0,0.1,0.1,0.1,0.1,0.2
			c0,0.1,0.1,0.1,0.1,0.2c0.1,0.1,0.1,0.2,0.1,0.4c0,0.1,0,0.1,0.1,0.2c0,0,0,0.1,0,0.1c0,0,0,0.1,0,0.1c0,0,0,0.1,0,0.1
			c0,0,0,0.1,0,0.1c0,0,0,0.1,0,0.1c0,0.1,0,0.1,0,0.2c0,0,0,0,0,0.1c0,0,0,0,0,0l0,0l0,0l0,0l0,0.1l0,0l0,0l0,0.1
			c0,0.1,0,0.3-0.1,0.4c0,0.1-0.1,0.3-0.1,0.4c-0.1,0.1-0.1,0.2-0.2,0.4c-0.1,0.2-0.3,0.4-0.5,0.6c0,0-0.1,0.1-0.1,0.1l0,0l0,0l0,0
			l0,0l-0.1,0.1l0,0l0,0l-0.1,0.1c-0.1,0-0.1,0.1-0.2,0.1c-0.2,0.2-0.4,0.3-0.6,0.4c-0.2,0.1-0.4,0.2-0.7,0.3c-0.1,0-0.1,0-0.2,0.1
			c-0.1,0-0.1,0-0.2,0.1c0,0-0.1,0-0.1,0c0,0-0.1,0-0.1,0l0,0c0,0,0,0,0,0l0,0l0,0l0,0c0,0-0.1,0-0.1,0c-0.4,0.1-0.9,0.2-1.3,0.2
			c-0.4,0-0.8,0-1.2,0c0,0-0.1,0-0.1,0c0,0,0,0-0.1,0c0,0,0,0-0.1,0c-0.1,0-0.2,0-0.2,0c-0.2,0-0.3-0.1-0.5-0.1c0,0-0.1,0-0.1,0
			c0,0,0,0-0.1,0c0,0,0,0,0,0c-0.1,0-0.1,0-0.2-0.1l-0.3,1.9h7.6c1.7,0,2.9-0.4,3.7-1.2c0.7-0.8,1.1-1.8,1.1-2.9
			C21.9,17.7,21.3,16.7,20.2,16.1z M12.4,16l-0.1,0.2c0,0,0,0,0,0c0,0,0,0.1-0.1,0.1c-0.1,0.1-0.1,0.2-0.2,0.4
			c0,0.2-0.1,0.4-0.1,0.7c0,0.3,0.1,0.6,0.2,0.8c0.1,0.1,0.1,0.3,0.2,0.4c0,0.1,0.1,0.1,0.2,0.2c0,0,0,0,0,0c0,0,0,0,0,0l0,0l0,0
			l0,0c0,0,0,0,0,0c0,0,0,0,0,0l0,0c0,0,0,0,0,0c0.3,0.2,0.6,0.4,0.9,0.5c0.3,0.1,0.6,0.2,0.9,0.2c0,0-0.1,0.1-0.1,0.1
			c-0.2,0.1-0.3,0.2-0.5,0.3c0,0-0.1,0-0.1,0.1l0,0c0,0-0.1,0-0.1,0l0,0c0,0,0,0-0.1,0l-0.1,0l-0.1,0c-0.1,0-0.2,0.1-0.3,0.1
			c0,0-0.1,0-0.1,0c-0.1-0.1-0.2-0.1-0.3-0.2c-0.2-0.1-0.4-0.3-0.6-0.5c0,0,0,0-0.1-0.1l0,0l0,0l0,0l0,0l0,0c0,0,0-0.1-0.1-0.1
			c0,0,0,0-0.1-0.1c-0.1-0.1-0.1-0.2-0.2-0.3c-0.1-0.1-0.1-0.2-0.1-0.3c0-0.1-0.1-0.2-0.1-0.3c-0.1-0.4-0.1-0.8,0-1.1
			c0.1-0.3,0.2-0.6,0.3-0.8c0.1-0.2,0.3-0.3,0.3-0.4c0,0,0.1-0.1,0.1-0.1c0,0,0,0,0,0L12.4,16z M19.2,16.6c0,0.2,0,0.4-0.1,0.6
			c0,0.2-0.1,0.4-0.2,0.7c-0.1,0.2-0.2,0.4-0.3,0.7c0,0.1-0.1,0.1-0.1,0.2c0,0,0,0.1,0,0.1c0,0,0,0.1-0.1,0.1l0,0l0,0
			c0,0,0,0.1-0.1,0.1l-0.1,0.1l-0.1,0.1c-0.2,0.2-0.4,0.4-0.6,0.5c-0.4,0.3-0.9,0.6-1.4,0.8c-0.1,0-0.2,0.1-0.4,0.1
			c-0.1,0-0.2,0.1-0.4,0.1l-0.1,0c0,0,0,0,0,0l-0.1,0c0,0,0,0,0,0c0.1-0.1,0.2-0.1,0.3-0.2c0,0,0.1-0.1,0.1-0.1c0,0,0,0,0,0l0,0
			l0.1-0.1l0.1-0.1l0.1-0.1c0,0,0.1-0.1,0.1-0.1l0,0c0.2-0.2,0.3-0.4,0.5-0.6c0.2-0.1,0.3-0.2,0.5-0.3c0.2-0.1,0.3-0.3,0.5-0.4
			l0.1-0.1l0.1-0.1c0,0,0,0,0.1-0.1l0,0l0,0c0,0,0,0,0-0.1l0-0.1l0-0.1l0-0.1c0.2-0.3,0.4-0.7,0.5-1.1c0.1-0.4,0.2-0.8,0.2-1.1
			c0-0.2,0-0.3,0-0.5c0-0.2,0-0.3-0.1-0.5c0-0.1-0.1-0.3-0.1-0.4L18.4,15c-0.1,0.2-0.4,0.1-0.4-0.1l-0.1-2.1c0-0.1,0.2-0.2,0.2-0.1
			l1.3,1.7c0.1,0.1,0,0.3-0.2,0.3l-0.4-0.1c0,0.1,0.1,0.2,0.1,0.4c0,0.1,0.1,0.3,0.1,0.5c0,0.2,0.1,0.3,0.1,0.5
			C19.2,16.2,19.2,16.4,19.2,16.6z"/>
	</g>
</g>
</svg>
