<?xml version="1.0" encoding="utf-8"?>
<!-- Generator: Adobe Illustrator 24.3.0, SVG Export Plug-In . SVG Version: 6.00 Build 0)  -->
<svg version="1.1" id="Layer_1" xmlns="http://www.w3.org/2000/svg" xmlns:xlink="http://www.w3.org/1999/xlink" x="0px" y="0px"
	 viewBox="0 0 129.25 20.42" style="enable-background:new 0 0 129.25 20.42;" xml:space="preserve">
<style type="text/css">
	.st0{fill:url(#SVGID_1_);}
	.st1{fill:#FFFFFF;}
</style>
<g>
	<radialGradient id="SVGID_1_" cx="8.7646" cy="10.8426" r="8.5347" gradientUnits="userSpaceOnUse">
		<stop  offset="0.1056" style="stop-color:#E95D56"/>
		<stop  offset="0.2465" style="stop-color:#D45353"/>
		<stop  offset="0.5381" style="stop-color:#9D3A4C"/>
		<stop  offset="0.9523" style="stop-color:#461341"/>
		<stop  offset="1" style="stop-color:#3C0E40"/>
	</radialGradient>
	<path class="st0" d="M14.04,11.03c-0.26-0.14-0.23-0.51,0.04-0.62c0.75-0.29,1.37-0.71,1.87-1.27c0.68-0.76,1.01-1.68,1.01-2.76
		c0-0.99-0.28-1.85-0.85-2.59c-0.57-0.74-1.27-1.22-2.11-1.46c-0.84-0.24-1.92-0.36-3.24-0.36H4.36c-0.49,0-0.91,0.36-1,0.85
		L1.01,17.05c0.15,0.03,0.31,0.06,0.48,0.08c0.17,0.03,0.36,0.04,0.55,0.06c0.1,0.01,0.2,0.01,0.3,0.02c0.03,0,0.05,0,0.08,0
		c0.03,0,0.05,0,0.08,0c0.05,0,0.11,0,0.16,0c0.43,0,0.89-0.02,1.37-0.1c0.48-0.07,0.98-0.19,1.48-0.36
		c0.06-0.02,0.12-0.04,0.18-0.06c0.03-0.01,0.06-0.02,0.1-0.04c0.03-0.01,0.07-0.02,0.09-0.04C5.94,16.6,6,16.57,6.07,16.55
		c0.06-0.03,0.12-0.05,0.18-0.08c0.24-0.11,0.48-0.24,0.71-0.38c0.23-0.14,0.44-0.3,0.64-0.47c0.05-0.04,0.1-0.09,0.15-0.13
		l0.07-0.07l0.03-0.03h0v0l0,0v0l0.01-0.01l0.02-0.02l0.08-0.08l0.01-0.01l0.01-0.01l0.01-0.02l0.03-0.03
		c0.04-0.04,0.08-0.1,0.12-0.15c0.02-0.02,0.04-0.05,0.06-0.08c0.02-0.03,0.04-0.05,0.06-0.08c0.03-0.05,0.07-0.11,0.1-0.16
		c0.07-0.11,0.12-0.22,0.18-0.34c0.1-0.23,0.17-0.47,0.21-0.71c0.02-0.12,0.03-0.24,0.03-0.35l0-0.04v0l0-0.01l0-0.01l0-0.11l0-0.05
		l0-0.03l0-0.01c0,0,0-0.01,0-0.01l-0.01-0.07L8.75,12.9l-0.01-0.08c0-0.03-0.01-0.06-0.01-0.08c0-0.03-0.01-0.05-0.02-0.08
		c-0.01-0.05-0.02-0.11-0.04-0.16c-0.02-0.05-0.03-0.11-0.05-0.16c-0.07-0.21-0.16-0.41-0.27-0.59c-0.11-0.18-0.23-0.35-0.37-0.51
		c-0.14-0.15-0.28-0.29-0.44-0.39l-0.03-0.02l-0.01-0.01c0,0,0,0,0,0h0c0,0,0,0,0,0c0,0,0.01,0,0.01,0.01L7.5,10.81
		c-0.03-0.02-0.05-0.03-0.08-0.05c-0.03-0.02-0.05-0.03-0.07-0.05l-0.02-0.01L7.32,10.7l-0.03-0.01c-0.04-0.02-0.07-0.04-0.11-0.06
		c-0.04-0.02-0.08-0.04-0.13-0.06l-0.03-0.01l-0.03-0.01c-0.02-0.01-0.04-0.02-0.06-0.02c-0.04-0.02-0.09-0.03-0.13-0.04
		c-0.04-0.01-0.09-0.03-0.13-0.04c-0.04-0.01-0.09-0.02-0.13-0.03c-0.02,0-0.04-0.01-0.06-0.01c-0.02,0-0.04-0.01-0.06-0.01
		c-0.04-0.01-0.08-0.01-0.13-0.02c-0.04,0-0.08-0.01-0.12-0.01c-0.04,0-0.08-0.01-0.12-0.01c-0.32-0.02-0.61,0.01-0.84,0.06
		c-0.03,0.01-0.06,0.01-0.09,0.02l-0.01,0c-0.02,0-0.05,0.01-0.07,0.02c-0.05,0.01-0.11,0.03-0.15,0.04
		c-0.05,0.01-0.09,0.03-0.13,0.04c-0.04,0.01-0.08,0.02-0.11,0.04c-0.12,0.05-0.19,0.08-0.19,0.08l-0.23,0.1l0.15-0.2
		c0,0,0.05-0.06,0.15-0.17c0.05-0.05,0.12-0.11,0.2-0.18c0.04-0.03,0.09-0.07,0.14-0.1c0.01-0.01,0.03-0.02,0.04-0.03
		c0.01-0.01,0.03-0.02,0.04-0.03C4.97,10.01,5,9.99,5.03,9.98C5.27,9.83,5.58,9.69,5.97,9.6c0.1-0.02,0.2-0.04,0.31-0.05
		c0.05,0,0.11-0.01,0.16-0.01c0.03,0,0.06,0,0.08-0.01c0.03,0,0.06,0,0.08,0C6.84,9.52,7.08,9.55,7.33,9.6
		c0.06,0.01,0.13,0.03,0.19,0.04c0.03,0.01,0.07,0.02,0.1,0.03c0.03,0.01,0.07,0.02,0.1,0.03l0.05,0.02L7.8,9.73l0.02,0.01
		c0.03,0.01,0.05,0.02,0.08,0.03C7.93,9.78,7.96,9.8,7.99,9.81l0.02,0.01l0.01,0l0.03,0.01l0.01,0.01L8.1,9.86
		c0.26,0.12,0.5,0.29,0.73,0.49c0.23,0.2,0.43,0.43,0.61,0.7c0.04,0.07,0.08,0.14,0.13,0.2c0.04,0.07,0.08,0.14,0.11,0.22
		c0.07,0.15,0.13,0.3,0.18,0.46C9.88,12,9.9,12.09,9.92,12.17c0.01,0.04,0.02,0.08,0.03,0.12c0.01,0.04,0.01,0.08,0.02,0.13
		c0.01,0.04,0.01,0.08,0.02,0.13c0,0.04,0.01,0.09,0.01,0.13c0,0.04,0.01,0.09,0.02,0.13c0,0.07,0.01,0.14,0,0.2
		c0,0.03,0,0.05,0,0.08c0,0.01,0,0.01,0,0.02l0,0.01l0,0.03l0,0.05L10,13.3l0,0.05l0,0.03l-0.01,0.06
		c-0.02,0.17-0.06,0.34-0.11,0.51c-0.05,0.16-0.1,0.33-0.17,0.48c-0.07,0.16-0.14,0.31-0.23,0.45c-0.17,0.29-0.36,0.56-0.58,0.81
		c-0.06,0.06-0.11,0.12-0.17,0.18l-0.05,0.05l-0.02,0.02l-0.01,0.01l-0.01,0.01l-0.08,0.08l-0.05,0.04l-0.05,0.04L8.37,16.2
		c-0.06,0.05-0.12,0.1-0.19,0.15c-0.26,0.19-0.52,0.36-0.8,0.5C7.11,17,6.83,17.12,6.55,17.22c-0.07,0.03-0.14,0.05-0.21,0.07
		c-0.07,0.02-0.14,0.05-0.21,0.07c-0.04,0.01-0.07,0.02-0.1,0.03c-0.03,0.01-0.07,0.02-0.1,0.03l-0.01,0c-0.01,0-0.01,0-0.01,0
		l-0.01,0l-0.03,0.01l-0.05,0.01c-0.03,0.01-0.07,0.02-0.1,0.03c-0.56,0.13-1.1,0.21-1.62,0.24c-0.52,0.03-1.01,0.01-1.46-0.04
		c-0.06-0.01-0.11-0.01-0.17-0.02c-0.03,0-0.05-0.01-0.08-0.01c-0.03,0-0.05-0.01-0.08-0.01C2.2,17.61,2.1,17.6,2,17.58
		c-0.2-0.04-0.39-0.08-0.57-0.13c-0.04-0.01-0.09-0.02-0.13-0.03c-0.02-0.01-0.04-0.01-0.06-0.02c-0.02-0.01-0.04-0.01-0.06-0.02
		c-0.07-0.02-0.14-0.04-0.21-0.06l-0.39,2.39h9.56c2.14,0,3.67-0.52,4.59-1.56c0.92-1.04,1.38-2.25,1.38-3.62
		C16.11,12.93,15.42,11.76,14.04,11.03z M4.24,10.9l-0.17,0.27c0,0-0.01,0.02-0.03,0.05c-0.02,0.03-0.04,0.08-0.08,0.14
		c-0.06,0.12-0.15,0.31-0.21,0.55c-0.06,0.24-0.1,0.54-0.08,0.87c0.02,0.33,0.1,0.7,0.25,1.06c0.08,0.18,0.18,0.36,0.29,0.52
		c0.06,0.08,0.12,0.16,0.19,0.24c0.02,0.02,0.03,0.04,0.05,0.06c0.02,0.02,0.03,0.03,0.05,0.05l0.03,0.03l0.01,0.01l0,0c0,0,0,0,0,0
		c0,0,0,0,0,0l0.01,0.01c0.02,0.02,0.04,0.04,0.06,0.05c0.32,0.29,0.72,0.51,1.17,0.66c0.35,0.12,0.72,0.2,1.11,0.23
		c-0.05,0.03-0.1,0.06-0.15,0.1c-0.21,0.13-0.43,0.25-0.67,0.36c-0.06,0.03-0.11,0.05-0.17,0.08l-0.01,0
		c-0.05,0.02-0.09,0.04-0.14,0.06L5.75,16.3c-0.02,0.01-0.05,0.02-0.08,0.03l-0.09,0.03L5.4,16.43c-0.12,0.04-0.25,0.08-0.38,0.12
		c-0.03-0.02-0.06-0.03-0.09-0.05c-0.14-0.08-0.28-0.16-0.41-0.25c-0.26-0.18-0.5-0.39-0.7-0.62c-0.03-0.03-0.05-0.06-0.07-0.09
		l-0.02-0.02L3.7,15.51l0,0L3.69,15.5l-0.03-0.04c-0.02-0.03-0.05-0.07-0.07-0.1c-0.02-0.03-0.04-0.06-0.07-0.09
		c-0.08-0.13-0.16-0.25-0.22-0.38c-0.06-0.13-0.12-0.26-0.16-0.39c-0.05-0.13-0.08-0.26-0.11-0.39c-0.12-0.51-0.11-0.99-0.03-1.4
		c0.08-0.41,0.22-0.74,0.38-0.99c0.15-0.25,0.31-0.41,0.43-0.51c0.06-0.05,0.1-0.08,0.13-0.11c0.03-0.02,0.05-0.03,0.05-0.03
		L4.24,10.9z M12.79,11.58c-0.01,0.26-0.03,0.53-0.08,0.8c-0.05,0.27-0.12,0.55-0.21,0.83c-0.09,0.28-0.21,0.56-0.36,0.83
		c-0.04,0.07-0.07,0.14-0.11,0.2c-0.02,0.03-0.04,0.07-0.06,0.1c-0.02,0.03-0.04,0.07-0.07,0.1l-0.03,0.05l-0.03,0.05
		c-0.02,0.03-0.05,0.07-0.07,0.1l-0.07,0.1l-0.08,0.09c-0.21,0.25-0.44,0.48-0.7,0.68c-0.51,0.41-1.09,0.72-1.69,0.97
		c-0.15,0.06-0.3,0.12-0.46,0.17c-0.15,0.05-0.31,0.1-0.46,0.14l-0.12,0.03c-0.02,0-0.03,0.01-0.06,0.01l-0.07,0.01
		c-0.01,0-0.01,0-0.02,0c0.11-0.07,0.22-0.15,0.33-0.23c0.05-0.04,0.09-0.07,0.14-0.11c0.02-0.02,0.04-0.03,0.06-0.05l0.01,0
		l0.15-0.13l0.15-0.14l0.08-0.08c0.06-0.06,0.1-0.11,0.15-0.16l0.03-0.04c0.21-0.24,0.41-0.51,0.59-0.81
		c0.21-0.11,0.41-0.23,0.6-0.36c0.22-0.15,0.42-0.33,0.6-0.52l0.07-0.07l0.06-0.07c0.02-0.02,0.04-0.05,0.06-0.07l0.03-0.04
		l0.03-0.04c0.02-0.02,0.04-0.05,0.06-0.08l0.06-0.08l0.06-0.08l0.05-0.08c0.29-0.44,0.5-0.91,0.63-1.38
		c0.13-0.47,0.19-0.94,0.2-1.38c0-0.22,0-0.43-0.02-0.63c-0.02-0.2-0.04-0.39-0.07-0.57c-0.03-0.17-0.06-0.33-0.1-0.47l-0.24,0.4
		c-0.14,0.23-0.49,0.15-0.51-0.12l-0.18-2.58c-0.01-0.17,0.2-0.25,0.3-0.12l1.61,2.07c0.13,0.17-0.02,0.4-0.22,0.36l-0.47-0.1
		c0.06,0.15,0.11,0.31,0.17,0.48c0.06,0.18,0.11,0.38,0.15,0.59c0.04,0.21,0.08,0.44,0.1,0.67C12.79,11.08,12.8,11.32,12.79,11.58z"
		/>
</g>
<g>
	<g>
		<path class="st1" d="M20.79,16.28V6.11h4.78c1.21,0,2.14,0.24,2.77,0.72c0.64,0.48,0.96,1.12,0.96,1.92c0,0.54-0.13,1-0.38,1.39
			c-0.25,0.38-0.59,0.68-1.01,0.89c-0.42,0.21-0.88,0.31-1.37,0.31l0.26-0.52c0.57,0,1.08,0.1,1.54,0.31s0.81,0.51,1.07,0.91
			c0.26,0.4,0.39,0.89,0.39,1.48c0,0.87-0.33,1.55-0.99,2.03c-0.66,0.48-1.65,0.73-2.96,0.73H20.79z M22.68,14.8h3.06
			c0.7,0,1.23-0.12,1.61-0.35c0.38-0.23,0.57-0.6,0.57-1.12c0-0.5-0.19-0.87-0.57-1.11c-0.38-0.24-0.92-0.36-1.61-0.36h-3.21V10.4
			h2.82c0.65,0,1.15-0.12,1.51-0.35C27.22,9.82,27.4,9.47,27.4,9c0-0.47-0.18-0.83-0.54-1.06C26.5,7.71,26,7.6,25.35,7.6h-2.67V14.8
			z"/>
		<path class="st1" d="M31.68,16.28V8.53h1.73v2.13l-0.2-0.62c0.22-0.52,0.59-0.92,1.09-1.2c0.5-0.28,1.12-0.41,1.84-0.41v1.73
			c-0.07-0.01-0.14-0.02-0.2-0.02s-0.13-0.01-0.19-0.01c-0.7,0-1.25,0.2-1.66,0.59c-0.41,0.4-0.61,1-0.61,1.82v3.75H31.68z"/>
		<path class="st1" d="M40.1,16.38c-0.58,0-1.09-0.1-1.52-0.3c-0.44-0.2-0.77-0.47-1.01-0.83s-0.36-0.75-0.36-1.2
			c0-0.44,0.1-0.83,0.31-1.18s0.55-0.62,1.02-0.83c0.47-0.2,1.1-0.3,1.89-0.3h2.25v1.21h-2.12c-0.61,0-1.02,0.1-1.24,0.3
			C39.11,13.45,39,13.7,39,14c0,0.32,0.13,0.58,0.39,0.77c0.26,0.19,0.62,0.29,1.09,0.29c0.45,0,0.84-0.1,1.2-0.31
			c0.35-0.2,0.61-0.5,0.78-0.9l0.29,1.09c-0.17,0.46-0.48,0.81-0.93,1.06C41.37,16.26,40.8,16.38,40.1,16.38z M42.54,16.28V14.7
			l-0.09-0.32v-2.75c0-0.53-0.16-0.95-0.49-1.24c-0.32-0.29-0.82-0.44-1.47-0.44c-0.43,0-0.85,0.07-1.26,0.2
			c-0.42,0.14-0.77,0.33-1.07,0.57L37.45,9.4c0.43-0.32,0.92-0.56,1.5-0.73c0.57-0.17,1.17-0.25,1.79-0.25c1.13,0,2,0.27,2.61,0.81
			c0.61,0.54,0.92,1.37,0.92,2.5v4.55H42.54z"/>
		<path class="st1" d="M50.97,8.42c0.63,0,1.18,0.12,1.66,0.36c0.48,0.24,0.86,0.61,1.15,1.12c0.29,0.5,0.43,1.15,0.43,1.93v4.44
			h-1.82v-4.21c0-0.69-0.16-1.2-0.48-1.54c-0.32-0.34-0.77-0.51-1.36-0.51c-0.43,0-0.8,0.09-1.13,0.26
			c-0.33,0.17-0.58,0.43-0.76,0.78c-0.18,0.34-0.27,0.78-0.27,1.3v3.92h-1.8V8.53h1.73v2.11L48,9.98c0.26-0.49,0.65-0.88,1.17-1.15
			C49.69,8.56,50.29,8.42,50.97,8.42z"/>
		<path class="st1" d="M59.8,16.38c-0.75,0-1.42-0.16-2.01-0.49c-0.6-0.33-1.06-0.79-1.4-1.39s-0.51-1.29-0.51-2.1
			c0-0.79,0.17-1.49,0.51-2.09s0.81-1.06,1.4-1.39c0.6-0.33,1.27-0.49,2.01-0.49c0.65,0,1.23,0.14,1.74,0.43
			c0.51,0.29,0.92,0.72,1.22,1.31c0.3,0.58,0.45,1.33,0.45,2.24c0,0.9-0.15,1.65-0.44,2.24c-0.29,0.59-0.69,1.03-1.2,1.31
			C61.07,16.24,60.47,16.38,59.8,16.38z M60.01,14.84c0.44,0,0.83-0.1,1.17-0.3s0.62-0.48,0.83-0.86c0.21-0.37,0.31-0.8,0.31-1.29
			c0-0.49-0.1-0.92-0.31-1.29c-0.21-0.36-0.48-0.64-0.83-0.84s-0.73-0.3-1.17-0.3s-0.83,0.1-1.17,0.3c-0.34,0.2-0.62,0.48-0.83,0.84
			c-0.21,0.36-0.31,0.79-0.31,1.29c0,0.48,0.1,0.91,0.31,1.29c0.21,0.37,0.48,0.66,0.83,0.86C59.19,14.74,59.58,14.84,60.01,14.84z
			 M62.38,16.28v-1.83l0.04-2.06l-0.15-2.06V5.5h1.83v10.78H62.38z"/>
		<path class="st1" d="M70.65,16.28V6.11h4.46c1.08,0,2.05,0.21,2.88,0.63s1.49,1.01,1.95,1.78c0.46,0.76,0.7,1.66,0.7,2.67
			s-0.23,1.91-0.7,2.67c-0.46,0.77-1.12,1.36-1.95,1.78s-1.8,0.63-2.88,0.63H70.65z M72.53,14.68h2.45c0.76,0,1.43-0.15,1.98-0.44
			s0.99-0.7,1.31-1.22c0.31-0.52,0.47-1.13,0.47-1.83c0-0.72-0.16-1.33-0.47-1.84c-0.31-0.51-0.75-0.92-1.31-1.21
			c-0.56-0.29-1.22-0.44-1.98-0.44h-2.45V14.68z"/>
		<path class="st1" d="M83.38,7.25c-0.34,0-0.62-0.11-0.83-0.32c-0.22-0.21-0.33-0.47-0.33-0.78c0-0.29,0.11-0.54,0.33-0.75
			c0.22-0.21,0.5-0.32,0.83-0.32c0.34,0,0.62,0.1,0.83,0.3c0.22,0.2,0.33,0.45,0.33,0.76s-0.11,0.57-0.32,0.79
			C84.01,7.14,83.73,7.25,83.38,7.25z M82.48,16.28V8.53h1.8v7.75H82.48z"/>
		<path class="st1" d="M86.69,16.28V5.5h1.8v10.78H86.69z"/>
		<path class="st1" d="M93.23,16.38c-0.58,0-1.09-0.1-1.52-0.3c-0.44-0.2-0.77-0.47-1.01-0.83s-0.36-0.75-0.36-1.2
			c0-0.44,0.1-0.83,0.31-1.18s0.55-0.62,1.02-0.83c0.47-0.2,1.1-0.3,1.89-0.3h2.25v1.21h-2.12c-0.61,0-1.02,0.1-1.24,0.3
			c-0.22,0.2-0.33,0.45-0.33,0.75c0,0.32,0.13,0.58,0.39,0.77c0.26,0.19,0.62,0.29,1.09,0.29c0.45,0,0.84-0.1,1.2-0.31
			c0.35-0.2,0.61-0.5,0.78-0.9l0.29,1.09c-0.17,0.46-0.48,0.81-0.93,1.06C94.5,16.26,93.92,16.38,93.23,16.38z M95.67,16.28V14.7
			l-0.09-0.32v-2.75c0-0.53-0.16-0.95-0.49-1.24c-0.32-0.29-0.82-0.44-1.47-0.44c-0.43,0-0.85,0.07-1.26,0.2
			c-0.42,0.14-0.77,0.33-1.07,0.57L90.57,9.4c0.43-0.32,0.92-0.56,1.5-0.73c0.57-0.17,1.17-0.25,1.79-0.25c1.13,0,2,0.27,2.61,0.81
			c0.61,0.54,0.92,1.37,0.92,2.5v4.55H95.67z"/>
		<path class="st1" d="M98.66,10.04V8.58h5.17v1.45H98.66z M102.61,16.38c-0.85,0-1.51-0.22-1.98-0.66c-0.46-0.44-0.7-1.09-0.7-1.94
			V6.81h1.8v6.91c0,0.37,0.1,0.65,0.29,0.86c0.19,0.2,0.46,0.3,0.81,0.3c0.4,0,0.73-0.11,0.99-0.32l0.52,1.29
			c-0.22,0.17-0.49,0.3-0.8,0.39C103.24,16.34,102.93,16.38,102.61,16.38z"/>
		<path class="st1" d="M106.76,7.25c-0.34,0-0.62-0.11-0.83-0.32c-0.22-0.21-0.33-0.47-0.33-0.78c0-0.29,0.11-0.54,0.33-0.75
			c0.22-0.21,0.5-0.32,0.83-0.32c0.34,0,0.62,0.1,0.83,0.3c0.22,0.2,0.33,0.45,0.33,0.76s-0.11,0.57-0.32,0.79
			C107.39,7.14,107.11,7.25,106.76,7.25z M105.86,16.28V8.53h1.8v7.75H105.86z"/>
		<path class="st1" d="M113.54,16.38c-0.78,0-1.49-0.17-2.11-0.52s-1.12-0.82-1.47-1.42c-0.36-0.6-0.54-1.28-0.54-2.05
			c0-0.78,0.18-1.47,0.54-2.06c0.36-0.59,0.85-1.06,1.47-1.4s1.33-0.52,2.12-0.52c0.8,0,1.52,0.17,2.14,0.52s1.11,0.81,1.47,1.4
			c0.35,0.59,0.53,1.28,0.53,2.06c0,0.78-0.18,1.46-0.53,2.06c-0.35,0.59-0.85,1.06-1.47,1.41
			C115.05,16.21,114.34,16.38,113.54,16.38z M113.54,14.84c0.45,0,0.84-0.1,1.19-0.3s0.62-0.48,0.82-0.86c0.2-0.37,0.3-0.8,0.3-1.29
			c0-0.49-0.1-0.92-0.3-1.29c-0.2-0.36-0.47-0.64-0.82-0.84s-0.74-0.3-1.18-0.3s-0.83,0.1-1.18,0.3s-0.62,0.48-0.83,0.84
			c-0.2,0.36-0.3,0.79-0.3,1.29c0,0.48,0.1,0.91,0.3,1.29c0.2,0.37,0.48,0.66,0.83,0.86S113.12,14.84,113.54,14.84z"/>
		<path class="st1" d="M123.83,8.42c0.63,0,1.18,0.12,1.66,0.36c0.48,0.24,0.86,0.61,1.15,1.12c0.29,0.5,0.43,1.15,0.43,1.93v4.44
			h-1.82v-4.21c0-0.69-0.16-1.2-0.48-1.54s-0.77-0.51-1.37-0.51c-0.43,0-0.8,0.09-1.13,0.26c-0.33,0.17-0.58,0.43-0.76,0.78
			c-0.18,0.34-0.27,0.78-0.27,1.3v3.92h-1.8V8.53h1.73v2.11l-0.3-0.65c0.26-0.49,0.65-0.88,1.17-1.15
			C122.55,8.56,123.15,8.42,123.83,8.42z"/>
	</g>
</g>
</svg>
