<svg id="ba5903d9-4839-40e1-9331-8c4a20fdca25" data-name="Layer 1" xmlns="http://www.w3.org/2000/svg" xmlns:xlink="http://www.w3.org/1999/xlink" width="3424.03" height="523.12" viewBox="0 0 3424.03 523.12">
  <defs>
    <style>
      .ae3d9004-4844-4ad0-9b4d-114f1af10f16 {
        fill: url(#af92402e-1ca0-44c8-b988-e0705c297fba);
      }
    </style>
    <radialGradient id="af92402e-1ca0-44c8-b988-e0705c297fba" cx="514" cy="540" r="251.79" gradientUnits="userSpaceOnUse">
      <stop offset="0.11" stop-color="#e95d56"/>
      <stop offset="0.25" stop-color="#d45353"/>
      <stop offset="0.54" stop-color="#9d3a4c"/>
      <stop offset="0.95" stop-color="#461341"/>
      <stop offset="1" stop-color="#3c0e40"/>
    </radialGradient>
  </defs>
  <g>
    <path class="ae3d9004-4844-4ad0-9b4d-114f1af10f16" d="M669.55,545.4a10.06,10.06,0,0,1,1.07-18.22q33.06-12.73,55.07-37.39,29.94-33.53,29.94-81.43,0-43.69-25.2-76.27T668.08,289q-37.16-10.55-95.52-10.54H384a29.9,29.9,0,0,0-29.39,25.16l-69.3,419.47c4.37.87,9.11,1.71,14.2,2.39s10.58,1.24,16.31,1.82l8.86.48,2.27.11,2.31,0L334,728a255.42,255.42,0,0,0,40.42-2.85,249,249,0,0,0,43.54-10.63l5.42-1.85,2.87-1.07c1-.36,1.93-.72,2.79-1.08,1.77-.72,3.54-1.41,5.35-2.21s3.6-1.58,5.39-2.4a183.89,183.89,0,0,0,20.84-11.19,148.39,148.39,0,0,0,18.91-14c1.49-1.26,2.87-2.63,4.31-3.94l2.06-2,1-1h0l.06-.06h0l.28-.3.55-.59,2.22-2.37.28-.3.22-.26.43-.52.88-1c1.14-1.3,2.34-2.87,3.53-4.36.6-.74,1.13-1.55,1.69-2.32s1.13-1.53,1.66-2.33c1-1.6,2.13-3.15,3-4.81a88.44,88.44,0,0,0,11.47-30.82,81.58,81.58,0,0,0,1-10.34l0-1.28v-.69l-.06-3.17,0-1.59v-1.19a2.16,2.16,0,0,0,0-.29l-.28-2.13-.2-2.12-.42-2.44c-.13-.81-.26-1.63-.38-2.44s-.36-1.6-.53-2.41c-.36-1.6-.68-3.19-1.18-4.76s-.82-3.16-1.43-4.67a94.12,94.12,0,0,0-7.85-17.51A90.14,90.14,0,0,0,491,551.65a73.89,73.89,0,0,0-13-11.59l-.84-.64-.2-.15h0l-.08-.06.39.19-.55-.34-2.22-1.33-2.2-1.34-.54-.32-.41-.21-.82-.42c-1.1-.56-2.12-1.16-3.27-1.74L463.46,532l-.93-.42-.95-.35-1.9-.69c-1.26-.46-2.51-1-3.79-1.3l-3.78-1.14c-1.27-.31-2.53-.58-3.79-.86l-1.87-.44-1.87-.31-3.7-.63c-1.22-.14-2.43-.24-3.64-.35s-2.4-.31-3.56-.32a100.9,100.9,0,0,0-24.89,1.72l-2.56.53-.21,0-2,.49-4.52,1.22c-1.37.39-2.57.86-3.73,1.24s-2.23.71-3.16,1.08c-3.65,1.52-5.73,2.3-5.73,2.3l-6.78,2.89,4.55-5.85s1.45-1.71,4.41-4.88c1.54-1.48,3.5-3.28,5.93-5.32l4.07-3,1.12-.83,1.21-.75,2.54-1.59a91.06,91.06,0,0,1,27.82-11c2.87-.7,5.89-1.07,9-1.55l4.79-.41,2.46-.2h2.5a94.27,94.27,0,0,1,21.28,2l5.6,1.3c1,.22,2,.61,3,.92l3,1,1.53.53.77.27.6.23,2.39.95c.8.33,1.61.64,2.41,1l.61.25.15.06.73.38.36.17,1.39.7a95.93,95.93,0,0,1,21.45,14.46,106.09,106.09,0,0,1,18,20.6l3.71,6c1.15,2.07,2.22,4.21,3.32,6.35a105.73,105.73,0,0,1,5.38,13.52c.83,2.3,1.36,4.74,2,7.13.27,1.21.65,2.4.84,3.63s.43,2.46.64,3.7.44,2.47.6,3.71.25,2.52.36,3.79.33,2.51.44,3.78a35.24,35.24,0,0,1,.08,6l.12,2.33c0,.17-.11.39-.12.52l-.09.4-.09.79-.13,1.58-.26,3.17-.13,1.54-.13,1-.27,1.89a113.33,113.33,0,0,1-3.15,14.9,122.83,122.83,0,0,1-5.13,14.19,128.5,128.5,0,0,1-6.65,13.34A148.77,148.77,0,0,1,518,683.06c-1.63,1.8-3.2,3.58-5,5.41l-1.34,1.35-.67.68-.33.33-.3.28-2.38,2.21-1.41,1.32-1.36,1.18-2.7,2.34c-1.86,1.47-3.67,3-5.57,4.41a164.37,164.37,0,0,1-23.55,14.9,195.07,195.07,0,0,1-24.6,10.81c-2.07.75-4.14,1.48-6.21,2.15s-4.17,1.34-6.27,2c-1.08.34-2.06.62-3,.89l-3,.83-.18,0-.3.09-.39.09-.77.2-1.55.38-3.08.76a259.69,259.69,0,0,1-47.85,7,270.9,270.9,0,0,1-42.93-1.24l-4.89-.56-2.4-.28-2.36-.38-9.16-1.51c-5.9-1.26-11.5-2.32-16.68-3.74l-3.83-1-1.86-.48-1.82-.54L284,731.12l-11.64,70.44h282q94.76,0,135.51-46t40.75-106.92Q730.62,578,669.55,545.4Zm-289.13-3.82-5,7.84s-.29.48-.83,1.41-1.32,2.31-2.25,4.13a76.93,76.93,0,0,0-6.06,16.15,83.19,83.19,0,0,0-2.3,25.57,92.93,92.93,0,0,0,7.48,31.21A86,86,0,0,0,380,643.33a72.9,72.9,0,0,0,5.62,7.07c.5.56,1,1.12,1.53,1.67s.95.95,1.45,1.47l1,1,.25.26.13.12-.05-.06h0l.44.4,1.74,1.61a100.8,100.8,0,0,0,34.6,19.59,135.81,135.81,0,0,0,32.81,6.71q-2.13,1.46-4.31,2.81a177,177,0,0,1-19.71,10.59c-1.63.75-3.36,1.54-5.06,2.25l-.17.07c-1.4.61-2.78,1.17-4.25,1.77l-.94.37c-.66.28-1.48.59-2.44.94L420,703l-5.29,1.81q-5.49,1.89-11.18,3.51c-.94-.46-1.87-.91-2.79-1.39a128.09,128.09,0,0,1-12.19-7.32,115.28,115.28,0,0,1-20.77-18.27c-.74-.85-1.47-1.71-2.2-2.56l-.55-.64-.27-.32-.1-.14-.23-.28-.87-1.12c-.72-.93-1.55-2-2.17-2.87s-1.31-1.83-1.93-2.76a100.77,100.77,0,0,1-6.54-11.32A91.32,91.32,0,0,1,348,647.84a103.74,103.74,0,0,1-3.33-11.4,102.17,102.17,0,0,1-1-41.33A83.9,83.9,0,0,1,354.86,566a67.38,67.38,0,0,1,12.56-15c1.67-1.47,3-2.5,3.93-3.17l1.39-1Zm252.31,20.29a163.45,163.45,0,0,1-19,72.72c-1.08,2-2.19,4-3.35,5.95l-1.8,2.91c-.5.85-1.25,1.93-1.93,2.94l-1,1.53-1,1.45c-.71,1-1.37,1.93-2.1,2.87l-2.17,2.82L598,657.81a145.27,145.27,0,0,1-20.51,20.07c-15,12.15-32.14,21.39-49.82,28.67-4.43,1.83-8.92,3.48-13.44,5s-9,3-13.62,4.26l-3.51.93c-.54.14-1,.28-1.63.42l-1.92.43-.52.11q5-3.29,9.8-6.9c1.45-1.06,2.79-2.16,4.08-3.2l1.73-1.4.17-.13,4.37-3.79,4.36-4.06,2.46-2.49c1.68-1.66,3.1-3.23,4.47-4.75l1-1.07A158,158,0,0,0,542.89,666a142.57,142.57,0,0,0,17.82-10.71A124.73,124.73,0,0,0,578.51,640l2-2.1,1.91-2.16c.65-.71,1.23-1.47,1.85-2.2l.9-1.09.83-1.06c.57-.72,1.09-1.35,1.74-2.28l1.73-2.38,1.67-2.39,1.61-2.4a145.56,145.56,0,0,0,18.55-40.78,161.86,161.86,0,0,0,5.87-40.71,175.11,175.11,0,0,0-.65-18.59c-.5-5.92-1.25-11.52-2.17-16.77-.87-5-1.91-9.66-3-14l-7,11.76a8.14,8.14,0,0,1-15.13-3.67l-5.38-76a5,5,0,0,1,9-3.5l47.43,60.95a6.66,6.66,0,0,1-6.54,10.65l-14-3c1.71,4.35,3.38,9.09,5,14.24,1.64,5.38,3.18,11.2,4.46,17.42A190.3,190.3,0,0,1,632,539.88,181.17,181.17,0,0,1,632.73,561.87Z" transform="translate(-272.37 -278.44)"/>
    <g>
      <path d="M933.32,652.22V386.39h124.94q47.48,0,72.54,18.79t25.06,50.32q0,21.27-9.87,36.27a66,66,0,0,1-26.39,23.16,79.83,79.83,0,0,1-35.89,8.17l6.83-13.67q22.41,0,40.26,8.16a65.46,65.46,0,0,1,28.1,23.74q10.26,15.57,10.25,38.73,0,34.19-26,53.17t-77.28,19Zm49.37-38.74h80.13q27.35,0,42.15-9.11t14.82-29.25q0-19.74-14.82-29t-42.15-9.3H978.9V498.41h73.67q25.44,0,39.49-9.11t14-27.34q0-18.6-14-27.72t-39.49-9.12H982.69Z" transform="translate(-272.37 -278.44)"/>
      <path d="M1218.14,652.22V449.43h45.19v55.82L1258,488.92a63,63,0,0,1,28.48-31.33q19.74-10.81,48.23-10.82V492c-1.77-.25-3.55-.44-5.31-.57s-3.42-.19-4.94-.19q-27.35,0-43.29,15.57t-16,47.47v98Z" transform="translate(-272.37 -278.44)"/>
      <path d="M1422.07,654.87q-22.78,0-39.88-7.78t-26.39-21.65a54.87,54.87,0,0,1-9.31-31.33,58.79,58.79,0,0,1,8.17-30.76q8.16-13.67,26.77-21.64t49.37-8h58.86v31.52h-55.44q-23.92,0-32.47,7.79a25.33,25.33,0,0,0-8.55,19.55q0,12.54,10.26,20.13t28.48,7.6a61.69,61.69,0,0,0,31.33-8,47.07,47.07,0,0,0,20.32-23.54l7.59,28.48q-6.84,17.85-24.3,27.72T1422.07,654.87Zm63.8-2.65v-41.4l-2.28-8.35V530.69q0-20.88-12.73-32.47t-38.54-11.58a106.22,106.22,0,0,0-33,5.32,87.28,87.28,0,0,0-28.1,14.81l-18.61-34.56a119.87,119.87,0,0,1,39.12-19,167.94,167.94,0,0,1,46.71-6.45q44.43,0,68.35,21.26t23.93,65.32V652.22Z" transform="translate(-272.37 -278.44)"/>
      <path d="M1706.12,446.77q24.68,0,43.48,9.49t30,29.24q11.2,19.75,11.21,50.51V652.22h-47.47V542.09q0-27-12.54-40.26t-35.69-13.29q-16.72,0-29.62,6.84a46.81,46.81,0,0,0-19.94,20.31q-7,13.48-7,34V652.22h-47.09V449.43h45.19v55.06l-8-17.09a70.66,70.66,0,0,1,30.57-30Q1679.53,446.78,1706.12,446.77Z" transform="translate(-272.37 -278.44)"/>
      <path d="M1937.39,654.87q-29.25,0-52.6-12.91a93.4,93.4,0,0,1-36.65-36.26q-13.29-23.36-13.29-54.88,0-31.14,13.29-54.68a93.12,93.12,0,0,1,36.65-36.46q23.36-12.9,52.6-12.91,25.44,0,45.57,11.2t31.9,34.18q11.76,23,11.77,58.67,0,35.32-11.39,58.48t-31.33,34.37Q1964,654.88,1937.39,654.87Zm5.69-40.25a59.9,59.9,0,0,0,30.57-7.79,57.59,57.59,0,0,0,21.65-22.4q8.16-14.61,8.16-33.61,0-19.37-8.16-33.61a58.41,58.41,0,0,0-21.65-22,63.88,63.88,0,0,0-61.14,0,58.32,58.32,0,0,0-21.64,22q-8.17,14.25-8.17,33.61,0,19,8.17,33.61a57.5,57.5,0,0,0,21.64,22.4A59.93,59.93,0,0,0,1943.08,614.62Zm61.9,37.6V604.37l1.14-53.93-3.79-53.92V370.44h47.84V652.22Z" transform="translate(-272.37 -278.44)"/>
      <path d="M2221.06,652.22V386.39h116.58q42.54,0,75.39,16.52t51.07,46.52q18.24,30,18.23,69.87t-18.23,69.88q-18.22,30-51.07,46.52t-75.39,16.52Zm49.37-41.78h64.18q30,0,51.83-11.39a84.78,84.78,0,0,0,34.18-31.9Q2433,546.65,2433,519.3q0-28.09-12.34-48.23a85.75,85.75,0,0,0-34.18-31.52q-21.84-11.39-51.83-11.39h-64.18Z" transform="translate(-272.37 -278.44)"/>
      <path d="M2554.1,416q-13.29,0-21.83-8.36a27.53,27.53,0,0,1-8.55-20.5,26.7,26.7,0,0,1,8.55-19.75q8.54-8.36,21.83-8.36t21.84,7.79q8.54,7.79,8.54,19.94a28.53,28.53,0,0,1-8.35,20.69Q2567.76,416,2554.1,416Zm-23.54,236.21V449.43h47.09V652.22Z" transform="translate(-272.37 -278.44)"/>
      <path d="M2640.68,652.22V370.44h47.09V652.22Z" transform="translate(-272.37 -278.44)"/>
      <path d="M2811.57,654.87q-22.79,0-39.87-7.78t-26.4-21.65a54.94,54.94,0,0,1-9.3-31.33,58.79,58.79,0,0,1,8.17-30.76q8.16-13.67,26.77-21.64t49.37-8h58.86v31.52h-55.45q-23.92,0-32.47,7.79a25.35,25.35,0,0,0-8.54,19.55q0,12.54,10.25,20.13t28.49,7.6a61.69,61.69,0,0,0,31.33-8,47,47,0,0,0,20.31-23.54l7.6,28.48q-6.84,17.85-24.31,27.72T2811.57,654.87Zm63.8-2.65v-41.4l-2.28-8.35V530.69q0-20.88-12.72-32.47t-38.54-11.58a106.18,106.18,0,0,0-33,5.32,87.44,87.44,0,0,0-28.11,14.81l-18.6-34.56a119.81,119.81,0,0,1,39.11-19,168,168,0,0,1,46.71-6.45q44.43,0,68.36,21.26t23.92,65.32V652.22Z" transform="translate(-272.37 -278.44)"/>
      <path d="M2953.6,488.92V451h135.19v38Zm103.29,166q-33.42,0-51.65-17.27T2987,586.9V404.61h47.09V585.38q0,14.43,7.6,22.4t21.26,8q15.57,0,25.83-8.36l13.67,33.8a59.76,59.76,0,0,1-20.89,10.26A90.67,90.67,0,0,1,3056.89,654.87Z" transform="translate(-272.37 -278.44)"/>
      <path d="M3165.5,416q-13.3,0-21.84-8.36a27.56,27.56,0,0,1-8.54-20.5,26.73,26.73,0,0,1,8.54-19.75q8.55-8.36,21.84-8.36t21.83,7.79q8.55,7.79,8.55,19.94a28.5,28.5,0,0,1-8.36,20.69Q3179.17,416,3165.5,416ZM3142,652.22V449.43H3189V652.22Z" transform="translate(-272.37 -278.44)"/>
      <path d="M3342.84,654.87q-30.77,0-55.25-13.48a100.3,100.3,0,0,1-38.55-37Q3235,580.82,3235,550.82q0-30.77,14.05-53.92a101.69,101.69,0,0,1,38.36-36.65q24.3-13.47,55.44-13.48,31.51,0,56,13.48a99.88,99.88,0,0,1,38.35,36.65q13.86,23.16,13.86,53.92,0,30.39-13.86,53.74a99,99,0,0,1-38.54,36.83Q3374,654.88,3342.84,654.87Zm0-40.25q17.46,0,31.14-7.79a54.58,54.58,0,0,0,21.46-22.4q7.77-14.61,7.78-33.61,0-19.37-7.78-33.61a55.27,55.27,0,0,0-21.46-22,64.63,64.63,0,0,0-61.52,0,56.57,56.57,0,0,0-21.64,22q-8,14.25-8,33.61,0,19,8,33.61a55.82,55.82,0,0,0,21.64,22.4A60.22,60.22,0,0,0,3342.84,614.62Z" transform="translate(-272.37 -278.44)"/>
      <path d="M3611.71,446.77q24.67,0,43.48,9.49t30,29.24q11.19,19.75,11.2,50.51V652.22h-47.47V542.09q0-27-12.53-40.26t-35.7-13.29q-16.71,0-29.62,6.84a46.86,46.86,0,0,0-19.94,20.31q-7,13.48-7,34V652.22H3497V449.43h45.19v55.06l-8-17.09a70.66,70.66,0,0,1,30.57-30Q3585.12,446.78,3611.71,446.77Z" transform="translate(-272.37 -278.44)"/>
    </g>
  </g>
</svg>
