<?xml version="1.0" encoding="utf-8"?>
<!-- Generator: Adobe Illustrator 24.3.0, SVG Export Plug-In . SVG Version: 6.00 Build 0)  -->
<svg version="1.1" id="Layer_1" xmlns="http://www.w3.org/2000/svg" xmlns:xlink="http://www.w3.org/1999/xlink" x="0px" y="0px"
	 viewBox="0 0 841 493" style="enable-background:new 0 0 841 493;" xml:space="preserve">
<style type="text/css">
	.st0{fill:#3C0E40;}
	.st1{fill:#FF6666;}
</style>
<rect class="st0" width="841" height="493"/>
<g>
	<g>
		<g>
			<g>
				<path class="st1" d="M664.4,268.6C664.4,268.6,664.4,268.6,664.4,268.6c-0.3,0-0.5-0.2-0.5-0.5l0.7-8.2c0-2.4-1.8-2.9-1.9-2.9
					l-7.1-1.1c-0.2,0-0.4-0.2-0.4-0.4v-4.7c0-0.2,0.2-0.5,0.5-0.5s0.5,0.2,0.5,0.5v4.4l6.7,1.1c0,0,0,0,0,0c0,0,2.7,0.6,2.7,3.8
					c0,0,0,0,0,0l-0.7,8.2C664.8,268.4,664.6,268.6,664.4,268.6z"/>
				<path class="st1" d="M653,268.9c-0.1,0-0.2,0-0.3-0.1l-7.5-7.2c-0.9-0.9-0.9-2.3,0-3.2l0.2-0.2c0.4-0.4,1-0.6,1.6-0.6
					c0,0,0,0,0,0c0.6,0,1.2,0.2,1.6,0.7l2.6,2.5v-12c0-1.2,1-2.2,2.3-2.2h0.2c1.1,0,2,0.7,2.3,1.7c0.1,0.2-0.1,0.5-0.4,0.5
					c-0.3,0.1-0.5-0.1-0.6-0.3c-0.1-0.6-0.7-1-1.4-1h-0.2c-0.8,0-1.4,0.6-1.4,1.3v13.1c0,0.2-0.1,0.3-0.3,0.4
					c-0.2,0.1-0.4,0-0.5-0.1l-3.4-3.3c-0.3-0.3-0.6-0.4-1-0.4c0,0,0,0,0,0c-0.4,0-0.7,0.1-1,0.4l-0.2,0.2c-0.5,0.5-0.5,1.4,0,1.9
					l7.5,7.2c0.2,0.2,0.2,0.5,0,0.6C653.2,268.8,653.1,268.9,653,268.9z"/>
			</g>
			<g>
				<path class="st1" d="M657.7,241.1c-0.2,0-0.3-0.1-0.4-0.2l-3.1-4.5c-0.1-0.2-0.1-0.5,0.1-0.6c0.2-0.1,0.5-0.1,0.6,0.1l3.1,4.5
					c0.1,0.2,0.1,0.5-0.1,0.6C657.9,241.1,657.8,241.1,657.7,241.1z"/>
				<path class="st1" d="M657.7,241.1c-0.1,0-0.2,0-0.3-0.1c-0.2-0.1-0.3-0.4-0.1-0.6l3.1-4.5c0.1-0.2,0.4-0.3,0.6-0.1
					c0.2,0.1,0.3,0.4,0.1,0.6l-3.1,4.5C658,241.1,657.8,241.1,657.7,241.1z"/>
				<path class="st1" d="M657.7,245.7c-0.3,0-0.5-0.2-0.5-0.5v-4.6c0-0.2,0.2-0.5,0.5-0.5c0.3,0,0.5,0.2,0.5,0.5v4.6
					C658.1,245.5,657.9,245.7,657.7,245.7z"/>
			</g>
			<path class="st1" d="M648.3,245.7c-1.8,0-3.3-1.5-3.3-3.3v-6.3c0-0.2,0.2-0.5,0.5-0.5s0.5,0.2,0.5,0.5v6.3c0,1.3,1.1,2.4,2.4,2.4
				s2.4-1.1,2.4-2.4v-6.3c0-0.2,0.2-0.5,0.5-0.5c0.3,0,0.5,0.2,0.5,0.5v6.3C651.7,244.2,650.2,245.7,648.3,245.7z"/>
			<g>
				<path class="st1" d="M639.3,245.7h-3c-0.3,0-0.5-0.2-0.5-0.5v-9.1c0-0.2,0.2-0.5,0.5-0.5h3c1.5,0,2.7,1.2,2.7,2.6v0.2
					c0,0.9-0.5,1.7-1.2,2.2c0.7,0.5,1.2,1.3,1.2,2.2v0.2C642,244.5,640.8,245.7,639.3,245.7z M636.7,244.8h2.6c1,0,1.8-0.8,1.8-1.7
					v-0.2c0-1-0.8-1.7-1.8-1.7h-2.6V244.8z M639.3,240.2c1,0,1.8-0.8,1.8-1.7v-0.2c0-1-0.8-1.7-1.8-1.7h-2.6v3.7H639.3z"/>
			</g>
			<path class="st1" d="M661,251.1h-5.3c-0.3,0-0.5-0.2-0.5-0.5c0-0.2,0.2-0.5,0.5-0.5h5.3c2.6,0,4.7-2.1,4.7-4.6v-10
				c0-2.5-2.1-4.6-4.7-4.6c-0.3,0-0.5-0.2-0.5-0.5s0.2-0.5,0.5-0.5c3.1,0,5.7,2.5,5.7,5.5v10C666.6,248.7,664.1,251.1,661,251.1z"/>
			<path class="st1" d="M651.7,251.1H635c-3.1,0-5.7-2.5-5.7-5.5v-10c0-3,2.5-5.5,5.7-5.5h18.9c0.3,0,0.5,0.2,0.5,0.5
				s-0.2,0.5-0.5,0.5H635c-2.6,0-4.7,2.1-4.7,4.6v10c0,2.5,2.1,4.6,4.7,4.6h16.8c0.3,0,0.5,0.2,0.5,0.5
				C652.2,250.9,652,251.1,651.7,251.1z"/>
		</g>
		<g>
			<path class="st1" d="M537.4,254.7c-2.3,0-4.1-1.8-4.1-4v-15.6c0-2.2,1.8-4,4.1-4h30.5c2.3,0,4.1,1.8,4.1,4v10.2
				c0,0.3-0.3,0.5-0.6,0.5s-0.6-0.2-0.6-0.5v-10.2c0-1.6-1.3-2.9-3-2.9h-30.5c-1.6,0-3,1.3-3,2.9v15.6c0,1.6,1.3,2.9,3,2.9l19.3,0
				c0,0,0,0,0,0c0.3,0,0.6,0.2,0.6,0.5c0,0.3-0.3,0.5-0.6,0.5L537.4,254.7z"/>
			<path class="st1" d="M571.2,238h-31.9c-0.3,0-0.6-0.2-0.6-0.5c0-0.3,0.3-0.5,0.6-0.5h31.9c0.3,0,0.6,0.2,0.6,0.5
				C571.7,237.7,571.5,238,571.2,238z"/>
			<path class="st1" d="M550.4,248.6C550.4,248.6,550.4,248.6,550.4,248.6l-11.1,0c-0.3,0-0.6-0.2-0.6-0.5c0-0.3,0.3-0.5,0.6-0.5
				c0,0,0,0,0,0l11.1,0c0.3,0,0.6,0.2,0.6,0.5C551,248.4,550.7,248.6,550.4,248.6z"/>
			<path class="st1" d="M566.9,263c-0.3,0-0.6-0.2-0.6-0.5v-4.6c0-0.3,0.3-0.5,0.6-0.5c0.3,0,0.6,0.2,0.6,0.5v4.6
				C567.5,262.8,567.3,263,566.9,263z"/>
			<path class="st1" d="M566.9,259.1c-0.8,0-1.5-0.7-1.5-1.5c0-0.8,0.7-1.5,1.5-1.5s1.5,0.7,1.5,1.5
				C568.5,258.4,567.8,259.1,566.9,259.1z M566.9,257.3c-0.2,0-0.4,0.2-0.4,0.4c0,0.2,0.2,0.4,0.4,0.4c0.2,0,0.4-0.2,0.4-0.4
				C567.3,257.4,567.2,257.3,566.9,257.3z"/>
			<g>
				<path class="st1" d="M575.5,267.8c-0.3,0-0.6-0.2-0.6-0.5c0-0.3,0.3-0.5,0.6-0.5c0.5,0,0.9-0.4,0.9-0.9V253
					c0-0.5-0.4-0.9-0.9-0.9h-16.9c-0.5,0-0.9,0.4-0.9,0.9v12.8c0,0.5,0.4,0.9,0.9,0.9h13.2c0.3,0,0.6,0.2,0.6,0.5
					c0,0.3-0.3,0.5-0.6,0.5h-13.2c-1.1,0-2.1-0.9-2.1-2V253c0-1.1,0.9-2,2.1-2h16.9c1.1,0,2.1,0.9,2.1,2v12.8
					C577.5,266.9,576.6,267.8,575.5,267.8z"/>
				<path class="st1" d="M573.1,252c-0.3,0-0.6-0.2-0.6-0.5v-2.6c0-2.2-1.8-3.9-4-3.9h-3c-1.9,0-3.6,1.3-4,3.1
					c-0.1,0.3-0.4,0.5-0.7,0.4c-0.3-0.1-0.5-0.3-0.4-0.6c0.5-2.3,2.6-4,5.1-4h3c2.8,0,5.2,2.2,5.2,5v2.6
					C573.6,251.7,573.4,252,573.1,252z"/>
			</g>
		</g>
		<g>
			<path class="st1" d="M753.8,266.6h-28.2c-1.5,0-3-1.2-3.3-2.6l-3-13.8c-0.1-0.3,0.1-0.5,0.4-0.6c0.3-0.1,0.5,0.1,0.6,0.4l3,13.8
				c0.2,1,1.3,1.9,2.4,1.9h28.2c1.1,0,2.1-0.9,2.4-1.9l3-13.8c0.1-0.3,0.3-0.4,0.6-0.4c0.3,0.1,0.4,0.3,0.4,0.6l-3,13.8
				C756.8,265.4,755.3,266.6,753.8,266.6z"/>
			<path class="st1" d="M717.3,250.3h-1.8c-0.3,0-0.5-0.2-0.5-0.5v-5.9c0-0.3,0.2-0.5,0.5-0.5h28c0.3,0,0.5,0.2,0.5,0.5
				c0,0.3-0.2,0.5-0.5,0.5H716v5h1.3c0.3,0,0.5,0.2,0.5,0.5C717.8,250.1,717.5,250.3,717.3,250.3z"/>
			<path class="st1" d="M763.9,250.3h-44.2c-0.3,0-0.5-0.2-0.5-0.5c0-0.3,0.2-0.5,0.5-0.5h43.7v-5h-12.6c-0.3,0-0.5-0.2-0.5-0.5
				c0-0.3,0.2-0.5,0.5-0.5h13.1c0.3,0,0.5,0.2,0.5,0.5v5.9C764.4,250.1,764.2,250.3,763.9,250.3z"/>
			<g>
				<path class="st1" d="M728.4,262.9c-0.2,0-0.5-0.2-0.5-0.4l-1.2-8.7c0-0.3,0.2-0.5,0.4-0.5c0.3,0,0.5,0.2,0.6,0.4l1.2,8.7
					C729,262.6,728.8,262.8,728.4,262.9C728.5,262.9,728.4,262.9,728.4,262.9z"/>
				<path class="st1" d="M734,262.9c-0.3,0-0.5-0.2-0.5-0.5l-0.6-8.7c0-0.3,0.2-0.5,0.5-0.5c0.3,0,0.5,0.2,0.5,0.5l0.6,8.7
					C734.5,262.6,734.3,262.9,734,262.9C734,262.9,734,262.9,734,262.9z"/>
				<path class="st1" d="M750.9,262.9C750.9,262.9,750.9,262.9,750.9,262.9c-0.3,0-0.5-0.3-0.5-0.6l1.2-8.7c0-0.3,0.3-0.5,0.6-0.4
					c0.3,0,0.5,0.3,0.4,0.5l-1.2,8.7C751.4,262.7,751.2,262.9,750.9,262.9z"/>
				<path class="st1" d="M745.3,262.9C745.3,262.9,745.3,262.9,745.3,262.9c-0.3,0-0.5-0.2-0.5-0.5l0.6-8.7c0-0.3,0.3-0.5,0.5-0.5
					c0.3,0,0.5,0.2,0.5,0.5l-0.6,8.7C745.8,262.7,745.6,262.9,745.3,262.9z"/>
				<path class="st1" d="M739.7,262.9c-0.3,0-0.5-0.2-0.5-0.5v-8.7c0-0.3,0.2-0.5,0.5-0.5c0.3,0,0.5,0.2,0.5,0.5v8.7
					C740.2,262.7,739.9,262.9,739.7,262.9z"/>
			</g>
			<g>
				<g>
					<path class="st1" d="M727.1,246.7c-0.1,0-0.2,0-0.3-0.1c-0.2-0.1-0.3-0.4-0.2-0.7l8.7-13.3c0.1-0.2,0.5-0.3,0.7-0.2
						s0.3,0.4,0.2,0.7l-8.7,13.3C727.5,246.6,727.3,246.7,727.1,246.7z"/>
				</g>
				<g>
					<path class="st1" d="M752.2,246.7c-0.2,0-0.3-0.1-0.4-0.2l-8.7-13.3c-0.1-0.2-0.1-0.5,0.2-0.7c0.2-0.1,0.5-0.1,0.7,0.2
						l8.7,13.3c0.1,0.2,0.1,0.5-0.2,0.7C752.4,246.6,752.3,246.7,752.2,246.7z"/>
				</g>
			</g>
		</g>
		<g>
			<path class="st1" d="M456.5,244c-0.3,0-0.5-0.2-0.5-0.5v-7.1c0-3.9,3.3-7.1,7.3-7.1c4,0,7.3,3.2,7.3,7.1v7.1
				c0,0.3-0.2,0.5-0.5,0.5s-0.5-0.2-0.5-0.5v-7.1c0-3.3-2.8-6-6.2-6c-3.4,0-6.2,2.7-6.2,6v7.1C457.1,243.8,456.8,244,456.5,244z"/>
			<path class="st1" d="M476.6,263.9h-9.4c-0.3,0-0.5-0.2-0.5-0.5s0.2-0.5,0.5-0.5h9.4c0.3,0,0.5,0.2,0.5,0.5
				S476.9,263.9,476.6,263.9z"/>
			<path class="st1" d="M461.6,263.9h-11.7c-0.3,0-0.5-0.2-0.5-0.5s0.2-0.5,0.5-0.5h11.7c0.3,0,0.5,0.2,0.5,0.5
				S461.9,263.9,461.6,263.9z"/>
			<path class="st1" d="M476.8,269.7h-27c-1.5,0-2.5-0.3-3.1-1c-0.5-0.5-0.7-1.2-0.7-2l1.3-27.3c0-0.3,0.3-0.5,0.5-0.5h30.8
				c0.3,0,0.5,0.2,0.5,0.5c0,0.3-0.2,0.5-0.5,0.5h-30.3l-1.3,26.8c0,0.5,0.1,0.9,0.4,1.2c0.4,0.4,1.2,0.6,2.3,0.6h27
				c1.1,0,1.9-0.2,2.3-0.6c0.3-0.3,0.4-0.7,0.4-1.2l-1.1-22.3c0-0.3,0.2-0.5,0.5-0.6c0.3,0,0.6,0.2,0.6,0.5l1.1,22.3
				c0,0.8-0.2,1.5-0.7,2C479.2,269.4,478.2,269.7,476.8,269.7z"/>
			<path class="st1" d="M476.6,265.8h-26.7c-0.3,0-0.5-0.2-0.5-0.5s0.2-0.5,0.5-0.5h26.7c0.3,0,0.5,0.2,0.5,0.5
				S476.9,265.8,476.6,265.8z"/>
		</g>
		<g>
			<path class="st1" d="M386.9,245.9c-0.2,0-0.4-0.1-0.6-0.2l-13.6-14.2c-0.2-0.2-0.4-0.3-0.6-0.3s-0.5,0.1-0.6,0.3L358,245.7
				c-0.3,0.3-0.8,0.3-1.1,0c-0.3-0.3-0.3-0.7,0-1l13.6-14.2c0.5-0.5,1.1-0.7,1.8-0.7s1.3,0.3,1.8,0.7l13.6,14.2c0.3,0.3,0.3,0.8,0,1
				C387.3,245.8,387.1,245.9,386.9,245.9z"/>
			<path class="st1" d="M383.9,259.9h-23.4c-0.4,0-0.8-0.3-0.8-0.7V242c0-0.4,0.3-0.7,0.8-0.7s0.8,0.3,0.8,0.7v16.4h21.8v-12.2
				c0-0.4,0.3-0.7,0.8-0.7s0.8,0.3,0.8,0.7v12.9C384.6,259.5,384.3,259.9,383.9,259.9z"/>
			<path class="st1" d="M375.9,255.2h-7.4c-0.4,0-0.8-0.3-0.8-0.7c0-0.4,0.3-0.7,0.8-0.7h7.4c0.4,0,0.8,0.3,0.8,0.7
				C376.6,254.9,376.3,255.2,375.9,255.2z"/>
			<path class="st1" d="M372.2,263.8c-0.4,0-0.8-0.3-0.8-0.7v-3.9c0-0.4,0.3-0.7,0.8-0.7s0.8,0.3,0.8,0.7v3.9
				C372.9,263.5,372.6,263.8,372.2,263.8z"/>
			<path class="st1" d="M392.7,267h-17.4c-0.4,0-0.8-0.3-0.8-0.7c0-0.4,0.3-0.7,0.8-0.7h17.4c0.4,0,0.8,0.3,0.8,0.7
				C393.4,266.7,393.1,267,392.7,267z"/>
			<path class="st1" d="M368.9,267h-17.2c-0.4,0-0.8-0.3-0.8-0.7c0-0.4,0.3-0.7,0.8-0.7h17.2c0.4,0,0.8,0.3,0.8,0.7
				C369.6,266.7,369.3,267,368.9,267z"/>
			<path class="st1" d="M374.1,269.3c-0.2,0-0.4-0.1-0.6-0.3c-0.3-0.3-0.2-0.8,0.1-1c0.6-0.4,0.9-1.1,0.9-1.8c0-1.3-1.1-2.3-2.4-2.3
				s-2.4,1-2.4,2.3c0,0.7,0.3,1.3,0.9,1.8c0.3,0.3,0.4,0.7,0.1,1c-0.3,0.3-0.8,0.4-1.1,0.1c-0.9-0.7-1.4-1.8-1.4-2.9
				c0-2.1,1.8-3.8,3.9-3.8s3.9,1.7,3.9,3.8c0,1.1-0.5,2.2-1.4,2.9C374.4,269.2,374.3,269.3,374.1,269.3z"/>
		</g>
		<g>
			<path class="st1" d="M298.6,263h-18.3c-0.4,0-0.6-0.3-0.6-0.6c0-0.3,0.3-0.6,0.6-0.6h18.3c0.9,0,1.6-0.6,1.8-1.5l2.8-21.1
				c0.1-0.5-0.1-1-0.4-1.4c-0.3-0.4-0.8-0.6-1.3-0.6h-21.8c-0.9,0-1.6,0.6-1.8,1.5l-2.8,21.1c-0.1,0.5,0.1,1,0.4,1.4
				c0.3,0.4,0.8,0.6,1.3,0.6c0.4,0,0.6,0.3,0.6,0.6c0,0.3-0.3,0.6-0.6,0.6c-0.9,0-1.7-0.4-2.3-1c-0.6-0.6-0.8-1.5-0.7-2.3l2.8-21.1
				c0.2-1.5,1.5-2.6,3-2.6h21.8c0.9,0,1.7,0.4,2.3,1c0.6,0.6,0.8,1.5,0.7,2.3l-2.8,21.1C301.4,261.9,300.1,263,298.6,263z"/>
			<path class="st1" d="M295.2,244.7h-9.9c-0.2,0-0.4-0.1-0.5-0.2c-0.1-0.1-0.2-0.3-0.2-0.5l0.8-7.5c0-0.3,0.4-0.6,0.7-0.6
				c0.4,0,0.6,0.3,0.6,0.7l-0.8,6.8h8.6l0.5-4.1c0-0.3,0.4-0.6,0.7-0.6c0.4,0,0.6,0.3,0.6,0.7l-0.5,4.7
				C295.8,244.5,295.5,244.7,295.2,244.7z"/>
			<path class="st1" d="M297,258h-18.5c-0.4,0-0.6-0.3-0.6-0.6c0-0.3,0.3-0.6,0.6-0.6H297c0.4,0,0.6,0.3,0.6,0.6
				C297.7,257.7,297.4,258,297,258z"/>
			<path class="st1" d="M273.4,242.6h-7.5c-0.4,0-0.6-0.3-0.6-0.6s0.3-0.6,0.6-0.6h7.5c0.4,0,0.6,0.3,0.6,0.6
				S273.8,242.6,273.4,242.6z"/>
			<g>
				<path class="st1" d="M270.4,250.1h-7.5c-0.4,0-0.6-0.3-0.6-0.6c0-0.3,0.3-0.6,0.6-0.6h7.5c0.4,0,0.6,0.3,0.6,0.6
					C271.1,249.8,270.8,250.1,270.4,250.1z"/>
			</g>
			<g>
				<path class="st1" d="M266.5,257.6H259c-0.4,0-0.6-0.3-0.6-0.6s0.3-0.6,0.6-0.6h7.5c0.4,0,0.6,0.3,0.6,0.6
					S266.9,257.6,266.5,257.6z"/>
			</g>
		</g>
		<g>
			<path class="st1" d="M204.7,266.3h-27.3c-2.1,0-3.8-1.6-3.8-3.6v-26.4c0-2,1.7-3.6,3.8-3.6h27.3c2.1,0,3.8,1.6,3.8,3.6v26.4
				C208.5,264.7,206.8,266.3,204.7,266.3z M177.4,234c-1.3,0-2.4,1.1-2.4,2.4v26.4c0,1.3,1.1,2.4,2.4,2.4h27.3
				c1.3,0,2.4-1.1,2.4-2.4v-26.4c0-1.3-1.1-2.4-2.4-2.4H177.4z M196.2,253.4c-2.2,0-3.9-1.7-3.9-3.8c0,0,0-0.1,0-0.1
				c0-0.3,0.3-0.6,0.7-0.6c0.4,0,0.6,0.3,0.6,0.7c0,0,0,0,0,0.1c0,1.4,1.2,2.5,2.6,2.5c1.4,0,2.6-1.1,2.6-2.5c0,0,0,0,0-0.1
				c0-0.3,0.3-0.7,0.6-0.7c0.4,0,0.7,0.2,0.7,0.6c0,0,0,0.1,0,0.1C200.2,251.7,198.4,253.4,196.2,253.4z"/>
			<g>
				<path class="st1" d="M202.3,240h-12.9c-0.4,0-0.7-0.3-0.7-0.6s0.3-0.6,0.7-0.6h12.9c0.4,0,0.7,0.3,0.7,0.6S202.7,240,202.3,240z
					"/>
				<path class="st1" d="M182.9,240h-3.3c-0.4,0-0.7-0.3-0.7-0.6s0.3-0.6,0.7-0.6h3.3c0.4,0,0.7,0.3,0.7,0.6S183.2,240,182.9,240z"
					/>
				<path class="st1" d="M192.9,250.1h-13.2c-0.4,0-0.7-0.3-0.7-0.6c0-0.4,0.3-0.6,0.7-0.6h13.2c0.4,0,0.7,0.3,0.7,0.6
					C193.6,249.8,193.3,250.1,192.9,250.1z"/>
				<path class="st1" d="M202.4,250.1h-3c-0.4,0-0.7-0.3-0.7-0.6c0-0.4,0.3-0.6,0.7-0.6h3c0.4,0,0.7,0.3,0.7,0.6
					C203.1,249.8,202.8,250.1,202.4,250.1z"/>
				<path class="st1" d="M202.6,260.3h-13.1c-0.4,0-0.7-0.3-0.7-0.6s0.3-0.6,0.7-0.6h13.1c0.4,0,0.7,0.3,0.7,0.6
					S202.9,260.3,202.6,260.3z"/>
				<path class="st1" d="M182.9,260.3h-3.1c-0.4,0-0.7-0.3-0.7-0.6s0.3-0.6,0.7-0.6h3.1c0.4,0,0.7,0.3,0.7,0.6
					S183.2,260.3,182.9,260.3z"/>
			</g>
			<path class="st1" d="M186.2,243c-0.4,0-0.7-0.3-0.7-0.6s0.3-0.6,0.7-0.6c1.4,0,2.6-1.1,2.6-2.5s-1.2-2.5-2.6-2.5
				c-1.4,0-2.6,1.1-2.6,2.5c0,0.4-0.3,0.6-0.7,0.6s-0.7-0.3-0.7-0.6c0-2.1,1.8-3.8,3.9-3.8c2.2,0,3.9,1.7,3.9,3.8
				S188.3,243,186.2,243z"/>
			<path class="st1" d="M199.5,249.5"/>
			<path class="st1" d="M192.9,250.1C192.9,250.1,192.9,250.1,192.9,250.1c-0.4,0-0.7-0.3-0.7-0.7c0.1-2.1,1.8-3.7,3.9-3.7
				c0.4,0,0.7,0.3,0.7,0.6c0,0.4-0.3,0.6-0.7,0.6c-1.4,0-2.6,1.1-2.6,2.5C193.6,249.9,193.3,250.1,192.9,250.1z"/>
			<path class="st1" d="M186.2,263.6c-2.2,0-3.9-1.7-3.9-3.8s1.8-3.8,3.9-3.8c2.2,0,3.9,1.7,3.9,3.8c0,0.4-0.3,0.6-0.7,0.6
				s-0.7-0.3-0.7-0.6c0-1.4-1.2-2.5-2.6-2.5c-1.4,0-2.6,1.1-2.6,2.5s1.2,2.5,2.6,2.5c0.4,0,0.7,0.3,0.7,0.6
				C186.8,263.3,186.5,263.6,186.2,263.6z"/>
		</g>
		<g>
			<path class="st1" d="M106.5,255.2c-2.6,0-5.3-1-7.3-2.9c-1.9-1.9-3-4.4-3-7s1.1-5.2,3-7c4-3.9,10.5-3.9,14.5,0v0
				c1.9,1.9,3,4.4,3,7s-1.1,5.2-3,7C111.7,254.2,109.1,255.2,106.5,255.2z M106.5,236.4c-2.3,0-4.7,0.9-6.4,2.6
				c-1.7,1.7-2.7,3.9-2.7,6.2c0,2.3,0.9,4.6,2.7,6.2c3.5,3.4,9.3,3.4,12.9,0c1.7-1.7,2.7-3.9,2.7-6.2c0-2.3-0.9-4.6-2.7-6.2
				c0,0,0,0,0,0C111.1,237.3,108.8,236.4,106.5,236.4z"/>
			<path class="st1" d="M120.6,263.8c-0.9,0-1.8-0.4-2.5-1l-5.1-4.9c-0.2-0.2-0.2-0.6,0-0.8c0.2-0.2,0.6-0.2,0.8,0l5.1,4.9
				c0.4,0.4,1,0.6,1.6,0.6c0.6,0,1.2-0.2,1.6-0.6c0.9-0.9,0.9-2.3,0-3.1l-8-7.7c-0.2-0.2-0.2-0.6,0-0.8c0.2-0.2,0.6-0.2,0.8,0l8,7.7
				c1.4,1.3,1.4,3.5,0,4.8C122.4,263.4,121.5,263.8,120.6,263.8z"/>
			<path class="st1" d="M99,236.4H82.8c-0.3,0-0.6-0.3-0.6-0.6c0-0.3,0.3-0.6,0.6-0.6H99c0.3,0,0.6,0.3,0.6,0.6
				C99.6,236.1,99.4,236.4,99,236.4z"/>
			<path class="st1" d="M93.4,245.3H77.2c-0.3,0-0.6-0.3-0.6-0.6c0-0.3,0.3-0.6,0.6-0.6h16.2c0.3,0,0.6,0.3,0.6,0.6
				C94,245,93.8,245.3,93.4,245.3z"/>
			<path class="st1" d="M97.2,254.2H78.4c-0.3,0-0.6-0.3-0.6-0.6c0-0.3,0.3-0.6,0.6-0.6h18.8c0.3,0,0.6,0.3,0.6,0.6
				C97.8,253.9,97.6,254.2,97.2,254.2z"/>
		</g>
	</g>
	<g>
		<g>
			<g>
				<path class="st1" d="M659.4,339.4h-11.9c-0.3,0-0.5-0.2-0.6-0.5l-2.6-12.1h-4.4c-0.3,0-0.6-0.3-0.6-0.6c0-0.3,0.3-0.6,0.6-0.6
					h4.9c0.3,0,0.5,0.2,0.6,0.5l2.6,12.1h11.4c0.3,0,0.6,0.3,0.6,0.6C659.9,339.1,659.7,339.4,659.4,339.4z"/>
				<path class="st1" d="M658.6,335.3h-11.8c-0.3,0-0.6-0.3-0.6-0.6c0-0.3,0.3-0.6,0.6-0.6h11.4l1.4-4.2h-14c-0.3,0-0.6-0.3-0.6-0.6
					c0-0.3,0.3-0.6,0.6-0.6h14.8c0.2,0,0.4,0.1,0.5,0.2c0.1,0.1,0.1,0.3,0.1,0.5l-1.8,5.4C659.1,335.1,658.9,335.3,658.6,335.3z"/>
				<g>
					<g>
						<path class="st1" d="M648.8,343.8c-0.6,0-1.1-0.5-1.1-1.1c0-0.6,0.5-1.1,1.1-1.1c0.6,0,1.1,0.5,1.1,1.1
							C650,343.3,649.5,343.8,648.8,343.8z M648.8,342.7C648.8,342.7,648.8,342.7,648.8,342.7c-0.1,0.1,0,0.1,0,0.1
							C648.9,342.8,648.9,342.8,648.8,342.7C648.9,342.7,648.9,342.7,648.8,342.7z"/>
					</g>
				</g>
				<g>
					<g>
						<path class="st1" d="M656.7,343.8c-0.6,0-1.1-0.5-1.1-1.1c0-0.6,0.5-1.1,1.1-1.1c0.6,0,1.1,0.5,1.1,1.1
							C657.9,343.3,657.4,343.8,656.7,343.8z M656.7,342.7C656.7,342.7,656.7,342.7,656.7,342.7c-0.1,0.1,0,0.1,0,0.1
							C656.8,342.8,656.8,342.8,656.7,342.7C656.8,342.7,656.8,342.7,656.7,342.7z"/>
					</g>
				</g>
			</g>
			<path class="st1" d="M671.9,346.8c-0.3,0-0.6-0.3-0.6-0.6v-21.1c0-1.3-1.1-2.3-2.4-2.3h-29.6c-0.3,0-0.6-0.3-0.6-0.6
				c0-0.3,0.3-0.6,0.6-0.6H669c1.9,0,3.5,1.5,3.5,3.4v21.1C672.5,346.5,672.2,346.8,671.9,346.8z"/>
			<path class="st1" d="M631.7,346.8c-0.3,0-0.6-0.3-0.6-0.6v-21.1c0-1.9,1.6-3.4,3.5-3.4c0.3,0,0.6,0.3,0.6,0.6
				c0,0.3-0.3,0.6-0.6,0.6c-1.3,0-2.3,1-2.3,2.3v21.1C632.3,346.5,632,346.8,631.7,346.8z"/>
			<path class="st1" d="M672.9,351.6h-42.2c-3.3,0-4.2-4.9-4.3-5.1c0-0.2,0-0.3,0.1-0.5c0.1-0.1,0.3-0.2,0.4-0.2h37.7
				c0.3,0,0.6,0.3,0.6,0.6c0,0.3-0.3,0.6-0.6,0.6h-36.9c0.3,1.2,1.2,3.5,2.9,3.5h42.2c1.7,0,2.6-2.3,3-3.5H672
				c-0.3,0-0.6-0.3-0.6-0.6c0-0.3,0.3-0.6,0.6-0.6h4.6c0.2,0,0.3,0.1,0.4,0.2c0.1,0.1,0.2,0.3,0.1,0.5
				C677.1,346.7,676.2,351.6,672.9,351.6z"/>
		</g>
		<g>
			<g>
				<path class="st1" d="M750.6,336.4h-10.2c-0.3,0-0.5-0.2-0.5-0.4l-2.4-11.3h-3.2c-0.3,0-0.5-0.2-0.5-0.5c0-0.3,0.2-0.5,0.5-0.5
					h3.7c0.3,0,0.5,0.2,0.5,0.4l2.4,11.3h9.8c0.3,0,0.5,0.2,0.5,0.5S750.9,336.4,750.6,336.4z"/>
				<path class="st1" d="M749.9,332.6h-7.5c-0.3,0-0.5-0.2-0.5-0.5s0.2-0.5,0.5-0.5h7.1l1.3-3.9h-12.3c-0.3,0-0.5-0.2-0.5-0.5
					c0-0.3,0.2-0.5,0.5-0.5h13.1c0.2,0,0.3,0.1,0.4,0.2c0.1,0.1,0.1,0.3,0.1,0.5l-1.7,5C750.4,332.4,750.2,332.6,749.9,332.6z"/>
				<g>
					<g>
						<path class="st1" d="M741.5,341.2c-0.6,0-1.1-0.5-1.1-1.1c0-0.6,0.5-1.1,1.1-1.1c0.6,0,1.1,0.5,1.1,1.1
							C742.6,340.7,742.1,341.2,741.5,341.2z M741.5,340.1C741.5,340.1,741.5,340.1,741.5,340.1
							C741.5,340.1,741.5,340.1,741.5,340.1C741.5,340.1,741.5,340.1,741.5,340.1z"/>
					</g>
				</g>
				<g>
					<g>
						<path class="st1" d="M748.8,341.2c-0.6,0-1.1-0.5-1.1-1.1c0-0.6,0.5-1.1,1.1-1.1c0.6,0,1.1,0.5,1.1,1.1
							C749.9,340.7,749.4,341.2,748.8,341.2z M748.8,340.1C748.8,340.1,748.8,340.1,748.8,340.1
							C748.8,340.1,748.9,340.1,748.8,340.1C748.9,340.1,748.8,340.1,748.8,340.1z"/>
					</g>
				</g>
			</g>
			<g>
				<path class="st1" d="M754.1,359.3h-21.2c-1.4,0-2.6-1.1-2.6-2.5v-40.2c0-1.4,1.2-2.5,2.6-2.5h21.2c1.4,0,2.6,1.1,2.6,2.5
					c0,0.3-0.2,0.5-0.5,0.5c-0.3,0-0.5-0.2-0.5-0.5c0-0.8-0.7-1.5-1.5-1.5h-21.2c-0.8,0-1.5,0.7-1.5,1.5v40.2c0,0.8,0.7,1.5,1.5,1.5
					h21.2c0.8,0,1.5-0.7,1.5-1.5v-34.9c0-0.3,0.2-0.5,0.5-0.5c0.3,0,0.5,0.2,0.5,0.5v34.9C756.7,358.1,755.5,359.3,754.1,359.3z"/>
				<path class="st1" d="M756.2,350.6h-21c-0.3,0-0.5-0.2-0.5-0.5s0.2-0.5,0.5-0.5h21c0.3,0,0.5,0.2,0.5,0.5
					S756.5,350.6,756.2,350.6z"/>
				<path class="st1" d="M745.2,354.8h-3.4c-0.3,0-0.5-0.2-0.5-0.5s0.2-0.5,0.5-0.5h3.4c0.3,0,0.5,0.2,0.5,0.5
					S745.5,354.8,745.2,354.8z"/>
			</g>
			<path class="st1" d="M745.2,354.8h-3.4c-0.3,0-0.5-0.2-0.5-0.5s0.2-0.5,0.5-0.5h3.4c0.3,0,0.5,0.2,0.5,0.5
				S745.5,354.8,745.2,354.8z"/>
		</g>
		<g>
			<g>
				<path class="st1" d="M568,339.5c-0.2,0-0.4-0.2-0.5-0.4c0-0.3,0.1-0.5,0.4-0.5l4.5-0.6c0.3,0,0.5,0.1,0.5,0.4
					c0,0.3-0.1,0.5-0.4,0.5L568,339.5C568,339.5,568,339.5,568,339.5z"/>
				<path class="st1" d="M572.4,348.3h-19.9c-2.2,0-3.9-1.7-3.9-3.8c0-2.1,1.7-3.8,3.9-3.8l12.2-1.7c0.3,0,0.5,0.1,0.5,0.4
					c0,0.3-0.1,0.5-0.4,0.5l-12.2,1.7c0,0,0,0-0.1,0c-1.6,0-3,1.3-3,2.9c0,1.6,1.3,2.9,3,2.9h19.9c0.3,0,0.5,0.2,0.5,0.5
					C572.9,348.1,572.7,348.3,572.4,348.3z"/>
				<path class="st1" d="M572.5,338.8c0,0-0.1,0-0.1,0c-0.3-0.1-0.4-0.3-0.3-0.6l1.4-4.3c0.1-0.2,0.3-0.4,0.6-0.3
					c0.3,0.1,0.4,0.3,0.3,0.6l-1.4,4.3C572.9,338.7,572.7,338.8,572.5,338.8z"/>
				<path class="st1" d="M567.8,324.2h-19.9c-0.3,0-0.5-0.2-0.5-0.5s0.2-0.5,0.5-0.5h19.9c0.3,0,0.5,0.2,0.5,0.5
					S568.1,324.2,567.8,324.2z"/>
				<path class="st1" d="M551.5,341.7c-0.2,0-0.4-0.1-0.4-0.3l-8.6-22.1c-0.1-0.2,0-0.5,0.3-0.6c0.2-0.1,0.5,0,0.6,0.3l8.6,22.1
					c0.1,0.2,0,0.5-0.3,0.6C551.6,341.7,551.5,341.7,551.5,341.7z"/>
				<path class="st1" d="M542.9,319.7h-5.4c-0.3,0-0.5-0.2-0.5-0.5s0.2-0.5,0.5-0.5h5.4c0.3,0,0.5,0.2,0.5,0.5
					S543.1,319.7,542.9,319.7z"/>
				<path class="st1" d="M568.1,331.9h-20.1c-0.3,0-0.5-0.2-0.5-0.5c0-0.3,0.2-0.5,0.5-0.5h20.1c0.3,0,0.5,0.2,0.5,0.5
					C568.5,331.7,568.3,331.9,568.1,331.9z"/>
				<path class="st1" d="M556.5,338.2c-0.2,0-0.4-0.1-0.5-0.4l-3.3-14c-0.1-0.2,0.1-0.5,0.4-0.6c0.3-0.1,0.5,0.1,0.6,0.3l3.3,14
					c0.1,0.2-0.1,0.5-0.4,0.6C556.6,338.2,556.6,338.2,556.5,338.2z"/>
				<path class="st1" d="M562.7,340c-0.2,0-0.5-0.2-0.5-0.4l-1.4-15.8c0-0.3,0.2-0.5,0.4-0.5c0.3,0,0.5,0.2,0.5,0.4l1.4,15.8
					C563.2,339.8,563,340,562.7,340C562.7,340,562.7,340,562.7,340z"/>
				<path class="st1" d="M568,339.4C567.9,339.4,567.9,339.4,568,339.4c-0.3,0-0.5-0.3-0.5-0.5l0.8-7c0-0.3,0.3-0.4,0.5-0.4
					c0.3,0,0.4,0.3,0.4,0.5l-0.8,7C568.4,339.2,568.2,339.4,568,339.4z"/>
				<g>
					<path class="st1" d="M553.3,354.5c-1.4,0-2.5-1.1-2.5-2.4c0-1.3,1.1-2.4,2.5-2.4s2.5,1.1,2.5,2.4
						C555.8,353.5,554.7,354.5,553.3,354.5z M553.3,350.6c-0.8,0-1.5,0.7-1.5,1.5s0.7,1.5,1.5,1.5c0.8,0,1.5-0.7,1.5-1.5
						S554.2,350.6,553.3,350.6z"/>
					<path class="st1" d="M568.2,354.5c-1.4,0-2.5-1.1-2.5-2.4c0-1.3,1.1-2.4,2.5-2.4s2.5,1.1,2.5,2.4
						C570.7,353.5,569.6,354.5,568.2,354.5z M568.2,350.6c-0.8,0-1.5,0.7-1.5,1.5s0.7,1.5,1.5,1.5c0.8,0,1.5-0.7,1.5-1.5
						S569,350.6,568.2,350.6z"/>
				</g>
			</g>
			<path class="st1" d="M573.9,334.5c-4.2,0-7.6-3.3-7.6-7.3c0-4,3.4-7.3,7.6-7.3c0.3,0,0.5,0.2,0.5,0.5c0,0.3-0.2,0.5-0.5,0.5
				c-3.6,0-6.6,2.9-6.6,6.4c0,3.5,3,6.4,6.6,6.4c3.6,0,6.6-2.9,6.6-6.4c0-2.4-1.4-4.6-3.6-5.7c-0.2-0.1-0.3-0.4-0.2-0.6
				c0.1-0.2,0.4-0.3,0.6-0.2c2.5,1.3,4.1,3.8,4.1,6.5C581.5,331.3,578.1,334.5,573.9,334.5z"/>
			<path class="st1" d="M576.2,327.7h-4.6c-0.3,0-0.5-0.2-0.5-0.5c0-0.3,0.2-0.5,0.5-0.5h4.6c0.3,0,0.5,0.2,0.5,0.5
				C576.7,327.5,576.5,327.7,576.2,327.7z"/>
		</g>
		<g>
			<g>
				<path class="st1" d="M475.8,339.4c-0.2,0-0.4-0.2-0.4-0.4c0-0.2,0.1-0.4,0.4-0.5l4.5-0.6c0.2,0,0.5,0.1,0.5,0.4
					c0,0.2-0.1,0.4-0.4,0.5L475.8,339.4C475.9,339.4,475.8,339.4,475.8,339.4z"/>
				<path class="st1" d="M480.3,348.3h-20c-2.1,0-3.9-1.7-3.9-3.8c0-2.1,1.7-3.8,3.9-3.8l12.2-1.7c0.2,0,0.5,0.1,0.5,0.4
					c0,0.2-0.1,0.4-0.4,0.5l-12.2,1.7c0,0,0,0-0.1,0c-1.7,0-3,1.3-3,2.9s1.4,2.9,3,2.9h20c0.2,0,0.4,0.2,0.4,0.4
					C480.7,348.1,480.5,348.3,480.3,348.3z"/>
				<path class="st1" d="M480.4,338.8c0,0-0.1,0-0.1,0c-0.2-0.1-0.4-0.3-0.3-0.5l1.4-4.3c0.1-0.2,0.3-0.3,0.5-0.3
					c0.2,0.1,0.4,0.3,0.3,0.5l-1.4,4.3C480.7,338.7,480.5,338.8,480.4,338.8z"/>
				<path class="st1" d="M475.7,324.1h-20c-0.2,0-0.4-0.2-0.4-0.4c0-0.2,0.2-0.4,0.4-0.4h20c0.2,0,0.4,0.2,0.4,0.4
					C476.1,323.9,475.9,324.1,475.7,324.1z"/>
				<path class="st1" d="M459.3,341.7c-0.2,0-0.3-0.1-0.4-0.3l-8.6-22.1c-0.1-0.2,0-0.5,0.3-0.5c0.2-0.1,0.5,0,0.6,0.2l8.6,22.1
					c0.1,0.2,0,0.5-0.3,0.5C459.4,341.7,459.3,341.7,459.3,341.7z"/>
				<path class="st1" d="M450.7,319.6h-5.4c-0.2,0-0.4-0.2-0.4-0.4s0.2-0.4,0.4-0.4h5.4c0.2,0,0.4,0.2,0.4,0.4
					S450.9,319.6,450.7,319.6z"/>
				<path class="st1" d="M475.9,331.8h-20.2c-0.2,0-0.4-0.2-0.4-0.4c0-0.2,0.2-0.4,0.4-0.4h20.2c0.2,0,0.4,0.2,0.4,0.4
					C476.3,331.6,476.1,331.8,475.9,331.8z"/>
				<path class="st1" d="M464.3,338.1c-0.2,0-0.4-0.1-0.4-0.3l-3.3-14c-0.1-0.2,0.1-0.5,0.3-0.5c0.2-0.1,0.5,0.1,0.5,0.3l3.3,14
					C464.8,337.8,464.7,338.1,464.3,338.1C464.4,338.1,464.4,338.1,464.3,338.1z"/>
				<path class="st1" d="M470.5,340c-0.2,0-0.4-0.2-0.4-0.4l-1.4-15.9c0-0.2,0.2-0.4,0.4-0.5c0.2,0,0.4,0.2,0.5,0.4l1.4,15.9
					C471,339.8,470.8,340,470.5,340C470.5,340,470.5,340,470.5,340z"/>
				<path class="st1" d="M475.8,339.4C475.8,339.4,475.8,339.4,475.8,339.4c-0.3,0-0.5-0.2-0.4-0.5l0.8-7c0-0.2,0.2-0.4,0.5-0.4
					c0.2,0,0.4,0.2,0.4,0.5l-0.8,7C476.2,339.2,476,339.4,475.8,339.4z"/>
				<g>
					<path class="st1" d="M461.1,354.5c-1.4,0-2.5-1.1-2.5-2.4c0-1.3,1.1-2.4,2.5-2.4s2.5,1.1,2.5,2.4
						C463.6,353.5,462.5,354.5,461.1,354.5z M461.1,350.6c-0.9,0-1.6,0.7-1.6,1.5c0,0.8,0.7,1.5,1.6,1.5s1.6-0.7,1.6-1.5
						C462.7,351.3,462,350.6,461.1,350.6z"/>
					<path class="st1" d="M476,354.5c-1.4,0-2.5-1.1-2.5-2.4c0-1.3,1.1-2.4,2.5-2.4c1.4,0,2.5,1.1,2.5,2.4
						C478.5,353.5,477.4,354.5,476,354.5z M476,350.6c-0.9,0-1.6,0.7-1.6,1.5c0,0.8,0.7,1.5,1.6,1.5c0.9,0,1.6-0.7,1.6-1.5
						C477.6,351.3,476.9,350.6,476,350.6z"/>
				</g>
			</g>
			<path class="st1" d="M481.8,334.5c-4.2,0-7.5-3.3-7.5-7.3c0-4,3.4-7.3,7.5-7.3c0.2,0,0.4,0.2,0.4,0.4c0,0.2-0.2,0.4-0.4,0.4
				c-3.7,0-6.7,2.9-6.7,6.4c0,3.6,3,6.4,6.7,6.4c3.7,0,6.7-2.9,6.7-6.4c0-2.4-1.4-4.6-3.6-5.7c-0.2-0.1-0.3-0.4-0.2-0.6
				c0.1-0.2,0.4-0.3,0.6-0.2c2.5,1.3,4.1,3.7,4.1,6.5C489.3,331.2,485.9,334.5,481.8,334.5z"/>
			<g>
				<path class="st1" d="M485.1,327.6h-6.6c-0.2,0-0.4-0.2-0.4-0.4s0.2-0.4,0.4-0.4h6.6c0.2,0,0.4,0.2,0.4,0.4
					S485.3,327.6,485.1,327.6z"/>
				<path class="st1" d="M481.8,330.8c-0.2,0-0.4-0.2-0.4-0.4V324c0-0.2,0.2-0.4,0.4-0.4c0.2,0,0.4,0.2,0.4,0.4v6.3
					C482.2,330.6,482,330.8,481.8,330.8z"/>
			</g>
		</g>
		<g>
			<path class="st1" d="M376.1,354.9c-0.1,0-0.1,0-0.2,0c-6-1.4-10.4-4.3-13.2-8.8c-5.5-8.9-2.3-20.5-2.2-20.9
				c0.1-0.2,0.2-0.4,0.4-0.4l14.8-6.3c0.4-0.1,0.8,0,0.9,0.3c0.2,0.3,0,0.7-0.4,0.9l-14.5,6.1c-0.5,1.9-2.6,12,2.1,19.6
				c2.5,4.1,6.7,6.9,12.3,8.1c0.4,0.1,0.6,0.4,0.5,0.8C376.7,354.7,376.4,354.9,376.1,354.9z"/>
			<path class="st1" d="M376,354.9c-0.3,0-0.6-0.2-0.7-0.5c-0.1-0.4,0.1-0.7,0.5-0.8c13.4-3.1,15.7-13.6,15.2-21.9
				c0-0.4,0.3-0.7,0.7-0.7c0.4,0,0.7,0.3,0.7,0.6c0.4,7.2-1.2,19.8-16.3,23.3C376.1,354.9,376,354.9,376,354.9z"/>
			<path class="st1" d="M390.8,326c-0.1,0-0.2,0-0.3-0.1l-14.8-6.3c-0.4-0.1-0.5-0.5-0.4-0.9c0.2-0.3,0.6-0.5,0.9-0.3l14.8,6.3
				c0.4,0.1,0.5,0.5,0.4,0.9C391.3,325.9,391.1,326,390.8,326z"/>
		</g>
		<g>
			<path class="st1" d="M294.6,355.9h-18.9c-0.4,0-0.6-0.3-0.6-0.6s0.3-0.6,0.6-0.6h18.9c1.2,0,2.3-1,2.3-2.2v-31.6
				c0-1.2-1-2.2-2.3-2.2h-21.8c-1.2,0-2.3,1-2.3,2.2v31.6c0,0.3-0.3,0.6-0.6,0.6s-0.6-0.3-0.6-0.6v-31.6c0-1.9,1.6-3.4,3.6-3.4h21.8
				c2,0,3.6,1.5,3.6,3.4v31.6C298.2,354.3,296.6,355.9,294.6,355.9z"/>
			<path class="st1" d="M300.5,350.7c-0.4,0-0.6-0.3-0.6-0.6v-26.9c0-0.3,0.3-0.6,0.6-0.6s0.6,0.3,0.6,0.6v26.9
				C301.2,350.4,300.9,350.7,300.5,350.7z"/>
			<path class="st1" d="M283.7,326.1c-4.7,0-8.4-3.5-8.6-8c0-0.3,0.3-0.6,0.6-0.6c0.4,0,0.7,0.3,0.7,0.6c0.1,3.8,3.3,6.8,7.3,6.8
				c2.3,0,4.4-1,5.8-2.8c0.2-0.3,0.6-0.3,0.9-0.1c0.3,0.2,0.3,0.6,0.1,0.9C289,324.9,286.5,326.1,283.7,326.1z"/>
			<path class="st1" d="M293.8,329.6h-14c-0.4,0-0.6-0.3-0.6-0.6s0.3-0.6,0.6-0.6h14c0.4,0,0.6,0.3,0.6,0.6S294.2,329.6,293.8,329.6
				z"/>
			<path class="st1" d="M277.8,329.6h-4.2c-0.4,0-0.6-0.3-0.6-0.6s0.3-0.6,0.6-0.6h4.2c0.4,0,0.6,0.3,0.6,0.6
				S278.2,329.6,277.8,329.6z"/>
			<path class="st1" d="M293.8,335.8h-20.2c-0.4,0-0.6-0.3-0.6-0.6c0-0.3,0.3-0.6,0.6-0.6h20.2c0.4,0,0.6,0.3,0.6,0.6
				C294.5,335.5,294.2,335.8,293.8,335.8z"/>
			<path class="st1" d="M288,342h-14.3c-0.4,0-0.6-0.3-0.6-0.6s0.3-0.6,0.6-0.6H288c0.4,0,0.6,0.3,0.6,0.6S288.3,342,288,342z"/>
			<path class="st1" d="M293.8,348.2h-15.1c-0.4,0-0.6-0.3-0.6-0.6s0.3-0.6,0.6-0.6h15.1c0.4,0,0.6,0.3,0.6,0.6
				S294.2,348.2,293.8,348.2z"/>
		</g>
		<g>
			<path class="st1" d="M197.7,355.8h-19.8c-1.5,0-2.8-1.2-2.8-2.7v-22c0-0.7,0.2-1.3,0.7-1.8l9.9-10.9c0.5-0.6,1.3-0.9,2.1-0.9
				c0.8,0,1.6,0.3,2.1,0.9l9.9,10.9c0.4,0.5,0.7,1.1,0.7,1.8v22C200.5,354.6,199.3,355.8,197.7,355.8z M187.8,318.8
				c-0.4,0-0.8,0.2-1.1,0.5l-9.9,10.9c-0.2,0.3-0.4,0.6-0.4,0.9v22c0,0.8,0.6,1.4,1.4,1.4h19.8c0.8,0,1.4-0.6,1.4-1.4v-22
				c0-0.3-0.1-0.7-0.4-0.9l-9.9-10.9C188.6,319,188.2,318.8,187.8,318.8z"/>
			<path class="st1" d="M204.8,346.3c-0.2,0-0.4-0.1-0.6-0.3c-0.2-0.3-0.1-0.7,0.2-0.9l8.4-5.6c0.5-0.3,0.6-1,0.3-1.5l-11.3-15.7
				c-0.2-0.2-0.4-0.4-0.7-0.4l-12.6-3c-0.2,0-0.3,0-0.5,0c-0.4,0.1-0.7-0.1-0.8-0.5c-0.1-0.4,0.2-0.7,0.5-0.8c0.4-0.1,0.7-0.1,1.1,0
				l12.6,3c0.6,0.1,1.1,0.5,1.5,1l11.3,15.7c0.8,1.1,0.5,2.6-0.6,3.4l-8.4,5.6C205.1,346.3,205,346.3,204.8,346.3z"/>
			<ellipse class="st1" cx="187.9" cy="324.9" rx="1.5" ry="1.4"/>
			<g>
				<path class="st1" d="M186.7,337.5c0,2.7-1.5,4.1-3.2,4.1c-1.7,0-3.1-1.3-3.1-3.9c0-2.6,1.5-4,3.2-4
					C185.5,333.6,186.7,335,186.7,337.5z M181.8,337.6c0,1.7,0.6,2.9,1.7,2.9c1.2,0,1.7-1.2,1.7-2.9c0-1.6-0.5-2.9-1.7-2.9
					C182.4,334.7,181.8,336,181.8,337.6z M183.4,347l7.9-13.4h1.2l-7.9,13.4H183.4z M195.4,342.9c0,2.7-1.5,4.1-3.2,4.1
					c-1.7,0-3.1-1.3-3.1-3.9c0-2.6,1.5-4.1,3.2-4.1C194.2,339,195.4,340.4,195.4,342.9z M190.5,343c0,1.7,0.6,2.9,1.8,2.9
					c1.2,0,1.7-1.2,1.7-2.9c0-1.6-0.5-2.9-1.7-2.9C191.2,340.1,190.5,341.4,190.5,343z"/>
			</g>
		</g>
		<g>
			<g>
				<path class="st1" d="M107,355.9H87.1c-1.5,0-2.8-1.2-2.8-2.7v-22.2c0-0.7,0.2-1.3,0.7-1.8l10-10.9c0.5-0.6,1.3-0.9,2.1-0.9
					s1.6,0.3,2.1,0.9l10,10.9c0.5,0.5,0.7,1.1,0.7,1.8v22.2C109.8,354.7,108.6,355.9,107,355.9z M97.1,318.7c-0.4,0-0.8,0.2-1.1,0.5
					l-10,10.9c-0.2,0.3-0.4,0.6-0.4,0.9v22.2c0,0.8,0.6,1.4,1.4,1.4H107c0.8,0,1.4-0.6,1.4-1.4v-22.2c0-0.3-0.1-0.7-0.4-0.9
					l-10-10.9C97.9,318.9,97.5,318.7,97.1,318.7z"/>
				<path class="st1" d="M114.2,346.4c-0.2,0-0.4-0.1-0.6-0.3c-0.2-0.3-0.1-0.7,0.2-0.9l8.4-5.7c0.5-0.3,0.6-1,0.3-1.5l-11.3-15.8
					c-0.2-0.2-0.4-0.4-0.7-0.4l-12.7-3c-0.2,0-0.3,0-0.5,0c-0.4,0.1-0.7-0.1-0.8-0.5c-0.1-0.4,0.2-0.7,0.5-0.8
					c0.4-0.1,0.7-0.1,1.1,0l12.7,3c0.6,0.1,1.1,0.5,1.5,1l11.3,15.8c0.8,1.1,0.5,2.6-0.6,3.4l-8.4,5.7
					C114.5,346.3,114.3,346.4,114.2,346.4z"/>
				<ellipse class="st1" cx="97.2" cy="324.9" rx="1.5" ry="1.4"/>
			</g>
			<g>
				<path class="st1" d="M96.2,351.1v-2.6c-1.5,0-3.1-0.5-4.1-1.1l0.6-1.7c1,0.6,2.3,1.1,3.8,1.1c1.9,0,3.2-1.1,3.2-2.5
					c0-1.4-1-2.3-3-3.1c-2.7-1-4.4-2.2-4.4-4.4c0-2.1,1.6-3.7,4-4.1V330h1.6v2.5c1.6,0.1,2.7,0.5,3.5,0.9l-0.7,1.7
					c-0.6-0.3-1.6-0.9-3.3-0.9c-2,0-2.8,1.2-2.8,2.2c0,1.3,1,2,3.3,2.9c2.7,1.1,4.1,2.4,4.1,4.7c0,2-1.5,3.9-4.2,4.4v2.7H96.2z"/>
			</g>
		</g>
	</g>
	<g>
		<g>
			<path class="st1" d="M739.7,151.5c-0.2,0-0.4-0.1-0.5-0.3c-1.4-2.8-3-6.5-3-7.9c0-2.2,1.9-4,4.1-4c2.3,0,4.1,1.8,4.1,4
				c0,1.4-1.6,5.1-3,7.9c-0.1,0.2-0.4,0.4-0.7,0.2c-0.3-0.1-0.4-0.4-0.2-0.7c1.8-3.7,2.9-6.5,2.9-7.4c0-1.7-1.4-3-3.1-3
				c-1.7,0-3.1,1.3-3.1,3c0,0.9,1.1,3.7,2.9,7.5c0.1,0.2,0,0.5-0.2,0.7C739.8,151.5,739.8,151.5,739.7,151.5z"/>
			<g>
				<path class="st1" d="M738.1,152.1c-2.6,0-6.7-0.1-8-0.7c-1-0.5-1.8-1.3-2.1-2.3c-0.4-1-0.3-2.1,0.1-3.1c0.5-1,1.3-1.7,2.3-2.1
					c1-0.4,2.2-0.3,3.2,0.1h0c1.9,0.8,6.5,6.5,7.1,7.1c0.1,0.1,0.1,0.4,0.1,0.5c-0.1,0.2-0.3,0.3-0.5,0.3
					C740,152.1,739.1,152.1,738.1,152.1z M731.8,144.8c-0.4,0-0.7,0.1-1.1,0.2c-0.8,0.3-1.4,0.8-1.8,1.6c-0.4,0.7-0.4,1.5-0.1,2.3
					c0.3,0.8,0.9,1.4,1.6,1.7c1.2,0.5,6,0.6,8.7,0.6c-1.7-2-4.8-5.5-6-6c0,0,0,0,0,0C732.7,144.9,732.2,144.8,731.8,144.8z"/>
				<path class="st1" d="M742.6,152.1c-1.1,0-1.9,0-2.1,0c-0.3,0-0.5-0.2-0.5-0.5c0-0.3,0.2-0.5,0.5-0.5c0,0,0,0,0,0
					c2.2,0.1,8.3,0.1,9.7-0.6c0.8-0.3,1.3-0.9,1.6-1.7c0.3-0.8,0.2-1.6-0.1-2.3c-0.4-0.7-1-1.3-1.8-1.6c-0.8-0.3-1.6-0.2-2.4,0.1
					c-0.1,0.1-0.3,0.1-0.4,0.3c-0.2,0.2-0.6,0.1-0.7-0.1c-0.2-0.2-0.1-0.5,0.1-0.7c0.2-0.2,0.4-0.3,0.6-0.4c1-0.5,2.1-0.5,3.2-0.1
					c1,0.4,1.9,1.1,2.3,2.1c0.5,1,0.5,2.1,0.1,3.1c-0.4,1-1.1,1.8-2.1,2.3C749.3,152,745.2,152.1,742.6,152.1z"/>
			</g>
			<path class="st1" d="M755.3,176.8h-26.6c-0.3,0-0.5-0.2-0.5-0.5c0-0.3,0.2-0.5,0.5-0.5h26v-16.7c0-0.3,0.2-0.5,0.5-0.5
				s0.5,0.2,0.5,0.5v17.2C755.9,176.6,755.6,176.8,755.3,176.8z"/>
			<path class="st1" d="M725.3,176.8c-0.3,0-0.5-0.2-0.5-0.5v-17.2c0-0.3,0.2-0.5,0.5-0.5c0.3,0,0.5,0.2,0.5,0.5v17.2
				C725.8,176.6,725.6,176.8,725.3,176.8z"/>
			<path class="st1" d="M737.4,159.3H723c-0.3,0-0.5-0.2-0.5-0.5v-7.1c0-0.3,0.2-0.5,0.5-0.5h2.3c0.3,0,0.5,0.2,0.5,0.5
				c0,0.3-0.2,0.5-0.5,0.5h-1.8v6.1h13.9c0.3,0,0.5,0.2,0.5,0.5C737.9,159,737.7,159.3,737.4,159.3z"/>
			<path class="st1" d="M757.7,159.3h-2.4c-0.3,0-0.5-0.2-0.5-0.5c0-0.3,0.2-0.5,0.5-0.5h1.9v-6.1h-21.4c-0.3,0-0.5-0.2-0.5-0.5
				c0-0.3,0.2-0.5,0.5-0.5h21.9c0.3,0,0.5,0.2,0.5,0.5v7.1C758.2,159,757.9,159.3,757.7,159.3z"/>
			<path class="st1" d="M750.7,159.3h-7.8c-0.3,0-0.5-0.2-0.5-0.5c0-0.3,0.2-0.5,0.5-0.5h7.8c0.3,0,0.5,0.2,0.5,0.5
				C751.3,159,751,159.3,750.7,159.3z"/>
			<g>
				<path class="st1" d="M737.8,176.7c-0.3,0-0.5-0.2-0.5-0.5v-24.4c0-0.3,0.2-0.5,0.5-0.5s0.5,0.2,0.5,0.5v24.4
					C738.3,176.5,738.1,176.7,737.8,176.7z"/>
				<path class="st1" d="M742.9,176.7c-0.3,0-0.5-0.2-0.5-0.5v-24.4c0-0.3,0.2-0.5,0.5-0.5s0.5,0.2,0.5,0.5v24.4
					C743.4,176.5,743.2,176.7,742.9,176.7z"/>
			</g>
		</g>
		<g>
			<path class="st1" d="M476.7,150.3c-0.2,0-0.5-0.1-0.6-0.4c-0.1-0.3,0-0.6,0.3-0.8l7.3-2.9c0.3-0.1,0.7,0,0.8,0.3
				c0.1,0.3,0,0.6-0.3,0.8l-7.3,2.9C476.9,150.3,476.8,150.3,476.7,150.3z"/>
			<path class="st1" d="M469.7,175.9c-0.2,0-0.5-0.1-0.6-0.4c-0.1-0.3,0-0.6,0.3-0.8l14-5.8v-22.3c0-0.3,0.3-0.6,0.6-0.6
				s0.6,0.3,0.6,0.6v22.7c0,0.2-0.1,0.4-0.4,0.5l-14.4,5.9C469.8,175.9,469.8,175.9,469.7,175.9z"/>
			<path class="st1" d="M463.8,178.4c-0.3,0-0.6-0.3-0.6-0.6v-22.9c0-0.2,0.1-0.5,0.4-0.5l8-3.2c0.3-0.1,0.7,0,0.8,0.3
				c0.1,0.3,0,0.6-0.3,0.8l-7.6,3.1v22.5C464.4,178.1,464.1,178.4,463.8,178.4z"/>
			<path class="st1" d="M463.8,178.4c-0.1,0-0.2,0-0.2,0l-20.1-8.3c-0.2-0.1-0.4-0.3-0.4-0.5v-22.7c0-0.2,0.1-0.4,0.3-0.5
				c0.2-0.1,0.4-0.1,0.6-0.1l20.1,8.2c0.3,0.1,0.5,0.5,0.3,0.8c-0.1,0.3-0.5,0.4-0.8,0.3l-19.2-7.8v21.4l19.7,8.2
				c0.3,0.1,0.5,0.5,0.3,0.8C464.3,178.2,464,178.4,463.8,178.4z"/>
			<path class="st1" d="M484.1,147.4c-0.1,0-0.2,0-0.2,0l-16.3-6.6c-0.3-0.1-0.5-0.5-0.3-0.8c0.1-0.3,0.5-0.4,0.8-0.3l16.3,6.6
				c0.3,0.1,0.5,0.5,0.3,0.8C484.5,147.2,484.3,147.4,484.1,147.4z"/>
			<path class="st1" d="M443.7,147.4c-0.2,0-0.5-0.1-0.6-0.3c-0.1-0.3,0-0.6,0.3-0.8l19.6-8.5c0.3-0.1,0.7,0,0.8,0.3
				c0.1,0.3,0,0.6-0.3,0.8l-19.6,8.5C443.9,147.3,443.8,147.4,443.7,147.4z"/>
			<polygon class="st1" points="471.2,159.1 471.2,152.1 451.4,144 451.9,143 472.4,151.3 472.4,157.4 476.1,155.8 476.1,150.1 
				456.3,142 456.8,140.9 477.4,149.3 477.4,156.6 			"/>
			<path class="st1" d="M459.4,172.4c-0.3,0-0.6-0.3-0.6-0.6v-5.4c0-0.3,0.3-0.6,0.6-0.6s0.6,0.3,0.6,0.6v5.4
				C460,172.1,459.7,172.4,459.4,172.4z"/>
			<path class="st1" d="M455.8,170.9c-0.3,0-0.6-0.3-0.6-0.6V165c0-0.3,0.3-0.6,0.6-0.6s0.6,0.3,0.6,0.6v5.4
				C456.4,170.7,456.1,170.9,455.8,170.9z"/>
		</g>
		<g>
			<g>
				<g>
					<g>
						<path class="st1" d="M636.6,161.2c-0.6,0-1.1-0.5-1.1-1c0-0.6,0.5-1,1.1-1c0.6,0,1.1,0.5,1.1,1
							C637.7,160.7,637.2,161.2,636.6,161.2z M636.6,160.2C636.6,160.2,636.6,160.2,636.6,160.2L636.6,160.2
							C636.6,160.2,636.6,160.2,636.6,160.2z"/>
					</g>
				</g>
				<g>
					<g>
						<path class="st1" d="M656.1,161.2c-0.6,0-1.1-0.5-1.1-1c0-0.6,0.5-1,1.1-1c0.6,0,1.1,0.5,1.1,1
							C657.2,160.7,656.7,161.2,656.1,161.2z M656.1,160.2C656.1,160.2,656.1,160.2,656.1,160.2L656.1,160.2
							C656.1,160.2,656.1,160.2,656.1,160.2z"/>
					</g>
				</g>
			</g>
			<path class="st1" d="M665.9,167.9c-0.3,0-0.5-0.2-0.5-0.5V150h-38.5c-0.3,0-0.5-0.2-0.5-0.5s0.2-0.5,0.5-0.5h39
				c0.3,0,0.5,0.2,0.5,0.5v17.9C666.4,167.6,666.2,167.9,665.9,167.9z"/>
			<path class="st1" d="M665.9,171.4h-39c-0.3,0-0.5-0.2-0.5-0.5v-17.4c0-0.3,0.2-0.5,0.5-0.5c0.3,0,0.5,0.2,0.5,0.5v16.9h38.5
				c0.3,0,0.5,0.2,0.5,0.5C666.4,171.2,666.2,171.4,665.9,171.4z"/>
			<path class="st1" d="M670.4,167.9c-0.3,0-0.5-0.2-0.5-0.5v-21.6H631c-0.3,0-0.5-0.2-0.5-0.5c0-0.3,0.2-0.5,0.5-0.5h39.4
				c0.3,0,0.5,0.2,0.5,0.5v22.1C670.9,167.6,670.7,167.9,670.4,167.9z"/>
			<path class="st1" d="M659,167.4h-25.2c-0.3,0-0.5-0.2-0.5-0.5c0-1.2-1-2.2-2.3-2.2c-0.3,0-0.5-0.2-0.5-0.5v-8
				c0-0.3,0.2-0.5,0.5-0.5c1.2,0,2.3-1,2.3-2.2c0-0.3,0.2-0.5,0.5-0.5H659c0.3,0,0.5,0.2,0.5,0.5c0,1.2,1,2.2,2.3,2.2
				c0.3,0,0.5,0.2,0.5,0.5v8c0,0.3-0.2,0.5-0.5,0.5c-1.2,0-2.3,1-2.3,2.2C659.5,167.2,659.3,167.4,659,167.4z M634.3,166.4h24.2
				c0.2-1.4,1.3-2.4,2.7-2.7v-7.1c-1.4-0.2-2.5-1.3-2.7-2.7h-24.2c-0.2,1.4-1.3,2.4-2.7,2.7v7.1C632.9,163.9,634,165,634.3,166.4z"
				/>
			<path class="st1" d="M646.4,164.3c-2.2,0-4-1.8-4-4.1c0-1.1,0.5-2.2,1.3-3c0.2-0.2,0.6-0.2,0.8,0c0.2,0.2,0.2,0.5,0,0.7
				c-0.6,0.6-0.9,1.4-0.9,2.3c0,1.7,1.3,3,2.9,3c1.6,0,2.9-1.4,2.9-3c0-1.1-0.6-2.1-1.5-2.7c-0.3-0.1-0.3-0.5-0.2-0.7
				c0.2-0.2,0.5-0.3,0.7-0.2c1.3,0.7,2,2.1,2,3.6C650.3,162.4,648.6,164.3,646.4,164.3z"/>
		</g>
		<g>
			<path class="st1" d="M560.8,169.1c-0.1,0-0.3-0.1-0.4-0.2c-0.2-0.2-0.2-0.6,0-0.8l7.6-7.3c0.2-0.2,0.6-0.2,0.8,0
				c0.2,0.2,0.2,0.6,0,0.8l-7.6,7.3C561.1,169,560.9,169.1,560.8,169.1z"/>
			<g>
				<path class="st1" d="M538.8,175.1c-0.3,0-0.6-0.2-0.6-0.6v-18.1c0-0.3,0.3-0.6,0.6-0.6s0.6,0.2,0.6,0.6v18.1
					C539.4,174.9,539.1,175.1,538.8,175.1z"/>
				<path class="st1" d="M573.3,171.5c-0.3,0-0.6-0.2-0.6-0.6v-14.5c0-0.3,0.3-0.6,0.6-0.6s0.6,0.2,0.6,0.6v14.5
					C573.9,171.2,573.6,171.5,573.3,171.5z"/>
				<path class="st1" d="M549.7,175.1c-0.3,0-0.6-0.2-0.6-0.6v-18.1c0-0.3,0.3-0.6,0.6-0.6s0.6,0.2,0.6,0.6v18.1
					C550.3,174.8,550,175.1,549.7,175.1z"/>
			</g>
			<path class="st1" d="M545.9,165.3c-0.3,0-0.6-0.2-0.6-0.6v-2.4c0-0.3,0.3-0.6,0.6-0.6s0.6,0.2,0.6,0.6v2.4
				C546.5,165.1,546.3,165.3,545.9,165.3z"/>
			<g>
				<path class="st1" d="M548.2,157.2c-2.4,0-4.4-1.9-4.4-4.3c0-0.3,0.3-0.6,0.6-0.6s0.6,0.2,0.6,0.6c0,1.8,1.5,3.2,3.3,3.2
					c1.8,0,3.3-1.4,3.3-3.2c0-0.3,0.3-0.6,0.6-0.6s0.6,0.2,0.6,0.6C552.7,155.3,550.7,157.2,548.2,157.2z"/>
				<path class="st1" d="M556,157.2c-2.5,0-4.5-1.9-4.5-4.3c0-0.3,0.3-0.6,0.6-0.6s0.6,0.2,0.6,0.6c0,1.8,1.5,3.2,3.3,3.2
					c1.8,0,3.3-1.4,3.3-3.2c0-0.3,0.3-0.6,0.6-0.6c0.3,0,0.6,0.2,0.6,0.6C560.5,155.3,558.5,157.2,556,157.2z"/>
				<path class="st1" d="M563.8,157.2c-2.5,0-4.5-1.9-4.5-4.3c0-0.3,0.3-0.6,0.6-0.6c0.3,0,0.6,0.2,0.6,0.6c0,1.8,1.5,3.2,3.3,3.2
					c1.9,0,3.4-1.4,3.4-3.2c0-0.3,0.3-0.6,0.6-0.6s0.6,0.2,0.6,0.6C568.3,155.3,566.3,157.2,563.8,157.2z"/>
				<path class="st1" d="M536.6,150.2c-0.3,0-0.6-0.2-0.6-0.6c0-0.3,0.3-0.6,0.6-0.6l35.4,0c0,0,0,0,0,0c0.3,0,0.6,0.2,0.6,0.6
					c0,0.3-0.3,0.6-0.6,0.6L536.6,150.2C536.6,150.2,536.6,150.2,536.6,150.2z"/>
			</g>
			<path class="st1" d="M571.7,157.2c-1.2,0-2.3-0.5-3.2-1.3c-0.2-0.2-0.2-0.6,0-0.8c0.2-0.2,0.6-0.2,0.8,0c0.6,0.6,1.5,1,2.4,1
				c1.8,0,3.3-1.4,3.3-3.2v-3.1l-4.5-7.7h-28.8l-4.6,7.7v3.1c0,1.8,1.5,3.2,3.3,3.2c1.8,0,3.3-1.4,3.3-3.2c0-0.3,0.3-0.6,0.6-0.6
				s0.6,0.2,0.6,0.6c0,2.4-2,4.3-4.4,4.3c-2.5,0-4.5-1.9-4.5-4.3v-3.3c0-0.1,0-0.2,0.1-0.3l4.9-8.1c0.1-0.2,0.3-0.3,0.5-0.3h29.4
				c0.2,0,0.4,0.1,0.5,0.3l4.8,8.1c0,0.1,0.1,0.2,0.1,0.3v3.3C576.2,155.3,574.2,157.2,571.7,157.2z"/>
			<g>
				<path class="st1" d="M552.6,146.7C552.6,146.7,552.6,146.7,552.6,146.7c-0.4,0-0.6-0.3-0.6-0.6l0.3-4.5c0-0.3,0.3-0.5,0.6-0.5
					c0.3,0,0.6,0.3,0.5,0.6l-0.3,4.5C553.2,146.4,552.9,146.7,552.6,146.7z"/>
				<path class="st1" d="M545.8,146.7c0,0-0.1,0-0.1,0c-0.3-0.1-0.5-0.4-0.4-0.7l1.1-4.5c0.1-0.3,0.4-0.5,0.7-0.4
					c0.3,0.1,0.5,0.4,0.4,0.7l-1.1,4.5C546.3,146.5,546.1,146.7,545.8,146.7z"/>
				<path class="st1" d="M559.3,146.7c-0.3,0-0.5-0.2-0.6-0.5l-0.3-4.5c0-0.3,0.2-0.6,0.5-0.6c0.3,0,0.6,0.2,0.6,0.5l0.3,4.5
					C559.9,146.4,559.7,146.6,559.3,146.7C559.4,146.7,559.4,146.7,559.3,146.7z"/>
				<path class="st1" d="M566.2,146.7c-0.3,0-0.5-0.2-0.6-0.4l-1.1-4.5c-0.1-0.3,0.1-0.6,0.4-0.7c0.3-0.1,0.6,0.1,0.7,0.4l1.1,4.5
					c0.1,0.3-0.1,0.6-0.4,0.7C566.3,146.7,566.2,146.7,566.2,146.7z"/>
			</g>
			<path class="st1" d="M576.8,175.1h-41.4c-0.3,0-0.6-0.2-0.6-0.6s0.3-0.6,0.6-0.6h41.4c0.3,0,0.6,0.2,0.6,0.6
				S577.1,175.1,576.8,175.1z"/>
			<path class="st1" d="M562.7,170.9c-0.1,0-0.3-0.1-0.4-0.2c-0.2-0.2-0.2-0.6,0-0.8l7.6-7.3c0.2-0.2,0.6-0.2,0.8,0
				c0.2,0.2,0.2,0.6,0,0.8l-7.6,7.3C563,170.9,562.9,170.9,562.7,170.9z"/>
		</g>
		<g>
			<path class="st1" d="M294,156.4h-23.9c-2.7,0-4.9-2.1-4.9-4.7c0-2.6,2.2-4.7,4.9-4.7H294c2.7,0,4.9,2.1,4.9,4.7
				C298.9,154.2,296.7,156.4,294,156.4z M270.1,148.4c-1.9,0-3.4,1.5-3.4,3.3s1.5,3.3,3.4,3.3H294c1.9,0,3.4-1.5,3.4-3.3
				s-1.5-3.3-3.4-3.3H270.1z"/>
			<path class="st1" d="M294.1,179.4H270c-0.4,0-0.8-0.3-0.8-0.7v-23.1c0-0.4,0.3-0.7,0.8-0.7c0.4,0,0.8,0.3,0.8,0.7V178h22.5v-22.3
				c0-0.4,0.3-0.7,0.8-0.7s0.8,0.3,0.8,0.7v23.1C294.9,179.1,294.5,179.4,294.1,179.4z"/>
			<path class="st1" d="M284.2,152.3h-4.3c-0.4,0-0.8-0.3-0.8-0.7c0-0.4,0.3-0.7,0.8-0.7h4.3c0.4,0,0.8,0.3,0.8,0.7
				C285,152,284.6,152.3,284.2,152.3z"/>
			<path class="st1" d="M277.9,176h-4.3c-0.4,0-0.8-0.3-0.8-0.7s0.3-0.7,0.8-0.7h4.3c0.4,0,0.8,0.3,0.8,0.7S278.3,176,277.9,176z"/>
			<path class="st1" d="M282,175.6c-0.4,0-0.8-0.3-0.8-0.7v-19.3c0-0.4,0.3-0.7,0.8-0.7c0.4,0,0.8,0.3,0.8,0.7v19.3
				C282.8,175.3,282.5,175.6,282,175.6z"/>
			<path class="st1" d="M287.9,167.9h-17.8c-0.4,0-0.8-0.3-0.8-0.7s0.3-0.7,0.8-0.7h17.8c0.4,0,0.8,0.3,0.8,0.7
				S288.3,167.9,287.9,167.9z"/>
			<path class="st1" d="M275.6,148.4c-0.2,0-0.3,0-0.4-0.1c-2.3-1.6-3.6-2.8-4.1-3.7c-0.7-1.3-0.8-2.7-0.4-4.1
				c0.4-1.4,1.4-2.5,2.7-3.2c1.3-0.7,2.8-0.8,4.3-0.4c1.4,0.4,2.6,1.4,3.3,2.7c0.3,0.6,0.6,1.6,0.7,3c0,0,0,0,0,0.1
				c0,0.4-0.3,0.7-0.8,0.7c-0.4,0-0.7-0.3-0.8-0.7c-0.1-1.5-0.3-2.1-0.5-2.4c-0.5-0.9-1.3-1.6-2.4-1.9c-1-0.3-2.1-0.2-3.1,0.3
				c-1,0.5-1.7,1.3-2,2.3c-0.3,1-0.2,2.1,0.3,3c0.2,0.4,1,1.3,3.6,3.2c0.3,0.2,0.4,0.7,0.2,1C276,148.3,275.8,148.4,275.6,148.4z"/>
			<path class="st1" d="M280.8,148.4c-0.4,0-0.7-0.3-0.8-0.7c-0.1-2-0.1-3.7,0-5.1c0,0,0,0,0,0c0.1-1.4,0.3-2.4,0.7-3
				c0.7-1.3,1.8-2.2,3.3-2.7c1.4-0.4,2.9-0.3,4.3,0.4c2.7,1.4,3.8,4.6,2.4,7.3c-0.2,0.4-0.5,0.8-1,1.3c-0.3,0.3-0.8,0.3-1.1,0
				c-0.3-0.3-0.3-0.7,0-1c0.5-0.4,0.7-0.7,0.7-0.9c1-1.9,0.3-4.3-1.7-5.3c-1-0.5-2.1-0.6-3.1-0.3c-1,0.3-1.9,1-2.4,1.9
				c-0.2,0.3-0.4,1-0.5,2.4c0,0,0,0,0,0c-0.1,1.3-0.1,2.9,0,4.9C281.6,148,281.2,148.4,280.8,148.4
				C280.8,148.4,280.8,148.4,280.8,148.4z"/>
		</g>
		<g>
			<path class="st1" d="M204.9,172.5h-26.3c-2.6,0-4.7-2-4.7-4.5v-25.4c0-2.5,2.1-4.5,4.7-4.5h26.3c2.6,0,4.7,2,4.7,4.5V168
				C209.5,170.5,207.4,172.5,204.9,172.5z M178.6,139.4c-1.8,0-3.3,1.4-3.3,3.2V168c0,1.8,1.5,3.2,3.3,3.2h26.3
				c1.8,0,3.3-1.4,3.3-3.2v-25.4c0-1.8-1.5-3.2-3.3-3.2H178.6z"/>
			<path class="st1" d="M202.2,167h-27.6c-0.4,0-0.7-0.3-0.7-0.7c0-0.4,0.3-0.7,0.7-0.7h27.6c0.4,0,0.7,0.3,0.7,0.7
				C202.9,166.7,202.6,167,202.2,167z"/>
			<path class="st1" d="M199.4,159H189c-1,0-1.8-0.8-1.8-1.8v-10.8h-4.2c-0.4,0-0.7-0.3-0.7-0.7s0.3-0.7,0.7-0.7h4.9
				c0.4,0,0.7,0.3,0.7,0.7v11.4c0,0.3,0.2,0.5,0.5,0.5h10.4c0.3,0,0.5-0.2,0.5-0.5v-6.7c0-0.3-0.2-0.5-0.5-0.5H193
				c-0.4,0-0.7-0.3-0.7-0.7s0.3-0.7,0.7-0.7h6.4c1,0,1.8,0.8,1.8,1.8v6.7C201.2,158.2,200.4,159,199.4,159z"/>
			<path class="st1" d="M191.5,161.5h-2.3c-0.4,0-0.7-0.3-0.7-0.7c0-0.4,0.3-0.7,0.7-0.7h2.3c0.4,0,0.7,0.3,0.7,0.7
				C192.2,161.2,191.9,161.5,191.5,161.5z"/>
			<path class="st1" d="M199.5,161.5h-2.3c-0.4,0-0.7-0.3-0.7-0.7c0-0.4,0.3-0.7,0.7-0.7h2.3c0.4,0,0.7,0.3,0.7,0.7
				C200.2,161.2,199.9,161.5,199.5,161.5z"/>
			<g>
				<path class="st1" d="M186.1,175.3c-0.4,0-0.7-0.3-0.7-0.7v-2.8c0-0.4,0.3-0.7,0.7-0.7c0.4,0,0.7,0.3,0.7,0.7v2.8
					C186.8,175,186.5,175.3,186.1,175.3z"/>
				<path class="st1" d="M197.3,178c-0.4,0-0.7-0.3-0.7-0.7v-5.5c0-0.4,0.3-0.7,0.7-0.7s0.7,0.3,0.7,0.7v5.5
					C198,177.7,197.7,178,197.3,178z"/>
			</g>
			<path class="st1" d="M202.2,178h-21c-0.4,0-0.7-0.3-0.7-0.7c0-0.4,0.3-0.7,0.7-0.7h21c0.4,0,0.7,0.3,0.7,0.7
				C202.9,177.7,202.6,178,202.2,178z"/>
		</g>
		<g>
			<path class="st1" d="M389.7,164.5h-21.6c-0.3,0-0.5-0.2-0.6-0.4l-5.4-24.2h-8.4c-0.3,0-0.6-0.2-0.6-0.5c0-0.3,0.3-0.5,0.6-0.5
				h8.8c0.3,0,0.5,0.2,0.6,0.4l5.4,24.2h21.1c0.9,0,1.5-0.7,1.5-1.5v-13.5c0-0.8-0.7-1.5-1.5-1.5h-20.5c-0.3,0-0.6-0.2-0.6-0.5
				c0-0.3,0.3-0.5,0.6-0.5h20.5c1.5,0,2.7,1.2,2.7,2.6V162C392.4,163.4,391.2,164.5,389.7,164.5z"/>
			<path class="st1" d="M390.6,170.9H366c-2.1,0-3.9-1.7-3.9-3.7c0-2.1,1.7-3.7,3.9-3.7h23.4c0.3,0,0.6,0.2,0.6,0.5
				c0,0.3-0.3,0.5-0.6,0.5H366c-1.5,0-2.7,1.2-2.7,2.7s1.2,2.7,2.7,2.7h24.6c0.3,0,0.6,0.2,0.6,0.5
				C391.1,170.7,390.9,170.9,390.6,170.9z"/>
			<path class="st1" d="M370.7,177.3c-2.1,0-3.9-1.7-3.9-3.7c0-0.8,0.3-1.6,0.8-2.3c0.2-0.2,0.5-0.3,0.8-0.1
				c0.2,0.2,0.3,0.5,0.1,0.8c-0.4,0.5-0.6,1-0.6,1.6c0,1.5,1.2,2.7,2.7,2.7c1.5,0,2.7-1.2,2.7-2.7c0-1.5-1.2-2.7-2.7-2.7
				c-0.3,0-0.6-0.2-0.6-0.5c0-0.3,0.3-0.5,0.6-0.5c2.1,0,3.9,1.7,3.9,3.7C374.6,175.6,372.9,177.3,370.7,177.3z"/>
			<path class="st1" d="M387.4,177.3c-2.1,0-3.9-1.7-3.9-3.7c0-0.6,0.2-1.3,0.5-1.8c0.2-0.3,0.5-0.4,0.8-0.2
				c0.3,0.1,0.4,0.5,0.2,0.7c-0.2,0.4-0.4,0.8-0.4,1.3c0,1.5,1.2,2.7,2.7,2.7c1.5,0,2.7-1.2,2.7-2.7c0-1.5-1.2-2.7-2.7-2.7
				c-0.3,0-0.6-0.2-0.6-0.5c0-0.3,0.3-0.5,0.6-0.5c2.1,0,3.9,1.7,3.9,3.7C391.2,175.6,389.5,177.3,387.4,177.3z"/>
		</g>
		<g>
			<path class="st1" d="M101,178.3c-0.5,0-1-0.3-1.3-0.7l-3.8-5.9h-9.5c-2,0-3.6-1.6-3.6-3.5v-16.5c0-1.9,1.6-3.5,3.6-3.5h29.2
				c2,0,3.6,1.6,3.6,3.5v16.5c0,1.9-1.6,3.5-3.6,3.5h-9.5l-3.8,5.9C102,178,101.5,178.3,101,178.3z M86.4,149.5
				c-1.3,0-2.3,1-2.3,2.2v16.5c0,1.2,1,2.2,2.3,2.2h9.9c0.2,0,0.4,0.1,0.6,0.3l4,6.2c0.1,0.1,0.1,0.1,0.2,0.1c0,0,0.1,0,0.2-0.1
				l4-6.2c0.1-0.2,0.3-0.3,0.6-0.3h9.9c1.3,0,2.3-1,2.3-2.2v-16.5c0-1.2-1-2.2-2.3-2.2H86.4z"/>
			<path class="st1" d="M83.5,158.4c-0.4,0-0.6-0.3-0.6-0.6v-16.5c0-1.9,1.6-3.5,3.6-3.5h25.8c2,0,3.6,1.6,3.6,3.5v3.7
				c0,0.3-0.3,0.6-0.6,0.6c-0.4,0-0.6-0.3-0.6-0.6v-3.7c0-1.2-1-2.2-2.3-2.2H86.4c-1.3,0-2.3,1-2.3,2.2v16.5
				C84.1,158.1,83.8,158.4,83.5,158.4z"/>
			<path class="st1" d="M103,153.7H88.2c-0.4,0-0.6-0.3-0.6-0.6c0-0.3,0.3-0.6,0.6-0.6H103c0.4,0,0.6,0.3,0.6,0.6
				C103.7,153.4,103.4,153.7,103,153.7z"/>
			<path class="st1" d="M106.5,158.3H88.3c-0.4,0-0.6-0.3-0.6-0.6c0-0.3,0.3-0.6,0.6-0.6h18.2c0.4,0,0.6,0.3,0.6,0.6
				C107.2,158,106.9,158.3,106.5,158.3z"/>
			<path class="st1" d="M110.1,162.9H88.4c-0.4,0-0.6-0.3-0.6-0.6s0.3-0.6,0.6-0.6h21.7c0.4,0,0.6,0.3,0.6,0.6
				S110.4,162.9,110.1,162.9z"/>
			<path class="st1" d="M113,167.5H88.5c-0.4,0-0.6-0.3-0.6-0.6c0-0.3,0.3-0.6,0.6-0.6H113c0.4,0,0.6,0.3,0.6,0.6
				C113.6,167.2,113.4,167.5,113,167.5z"/>
		</g>
	</g>
	<g>
		<g>
			<path class="st1" d="M746.3,408.5h-29.2c-0.2,0-0.4-0.2-0.4-0.4s0.2-0.4,0.4-0.4h29.2c0.2,0,0.4,0.2,0.4,0.4
				S746.5,408.5,746.3,408.5z"/>
			<path class="st1" d="M757.8,430.7h-41.2v-18.2c0-0.2,0.2-0.4,0.4-0.4c0.2,0,0.4,0.2,0.4,0.4v17.4H757v-26c0-0.2,0.2-0.4,0.4-0.4
				s0.4,0.2,0.4,0.4V430.7z"/>
			<path class="st1" d="M737.9,414.4h-15.1c-0.2,0-0.4-0.2-0.4-0.4s0.2-0.4,0.4-0.4h15.1c0.2,0,0.4,0.2,0.4,0.4
				S738.2,414.4,737.9,414.4z"/>
			<path class="st1" d="M737.9,419.3h-15.1c-0.2,0-0.4-0.2-0.4-0.4c0-0.2,0.2-0.4,0.4-0.4h15.1c0.2,0,0.4,0.2,0.4,0.4
				C738.4,419.1,738.2,419.3,737.9,419.3z"/>
			<path class="st1" d="M749.9,425.2h-9.7c-0.2,0-0.4-0.2-0.4-0.4s0.2-0.4,0.4-0.4h9.7c0.2,0,0.4,0.2,0.4,0.4
				S750.2,425.2,749.9,425.2z"/>
			<path class="st1" d="M744.9,421.4c-0.1,0-0.1,0-0.2,0c-0.2-0.1-0.3-0.3-0.2-0.6l1.1-2.4c0.1-0.2,0.4-0.3,0.6-0.2
				c0.2,0.1,0.3,0.3,0.2,0.6l-1.1,2.4C745.3,421.3,745.1,421.4,744.9,421.4z"/>
			<g>
				<path class="st1" d="M750.6,416.1l-5.9-2.5l0-0.3c1.3-8.7,5.2-16.7,11.2-23.3l0,0c0.6-0.6,1.9-0.9,2.8-0.5l0.1,0.1
					c0.1,0,0.2,0.1,0.2,0.1c0.9,0.4,1.6,1.4,1.6,2.3l0,0c-0.4,4.3-1.5,8.6-3.2,12.6c-1.7,4.1-3.9,7.8-6.7,11.2L750.6,416.1z
					 M745.7,413.1l4.7,1.9c5.4-6.7,8.7-14.7,9.5-23.1c0-0.6-0.5-1.2-1-1.5c-0.1,0-0.2-0.1-0.2-0.1l-0.1-0.1
					c-0.6-0.2-1.4-0.1-1.8,0.3C750.8,396.9,747,404.7,745.7,413.1z"/>
			</g>
			<path class="st1" d="M747.2,419.4l-2.8-1.2l0.6-4.5c0-0.2,0.2-0.4,0.5-0.4c0.2,0,0.4,0.2,0.4,0.5l-0.5,3.9l1.5,0.6l2.6-3
				c0.2-0.2,0.4-0.2,0.6-0.1c0.2,0.2,0.2,0.4,0.1,0.6L747.2,419.4z"/>
			<path class="st1" d="M745.1,400.5c-0.1,0-0.1,0-0.2,0c-0.2-0.1-0.3-0.3-0.2-0.6c2-4.7,5.4-9.1,5.4-9.2l0.2-0.3l3.9,1.9
				c0.2,0.1,0.3,0.4,0.2,0.6c-0.1,0.2-0.4,0.3-0.6,0.2l-3.2-1.6c-0.8,1-3.4,4.8-5.1,8.7C745.4,400.4,745.2,400.5,745.1,400.5z"/>
			<path class="st1" d="M757.4,403.9c-0.1,0-0.1,0-0.2,0l-4.6-1.9c-0.2-0.1-0.3-0.3-0.2-0.6c0.1-0.2,0.4-0.3,0.6-0.2l4.6,1.9
				c0.2,0.1,0.3,0.3,0.2,0.6C757.7,403.8,757.5,403.9,757.4,403.9z"/>
			<path class="st1" d="M749.9,427.2h-9.7c-0.2,0-0.4-0.2-0.4-0.4s0.2-0.4,0.4-0.4h9.7c0.2,0,0.4,0.2,0.4,0.4
				S750.2,427.2,749.9,427.2z"/>
		</g>
		<g>
			<path class="st1" d="M666.8,415.9h-20c-0.3,0-0.5-0.2-0.5-0.5c0-0.3,0.2-0.5,0.5-0.5h20c0.8,0,1.4-0.6,1.4-1.4v-15
				c0-0.3,0.2-0.5,0.5-0.5c0.3,0,0.5,0.2,0.5,0.5v15C669.1,414.9,668.1,415.9,666.8,415.9z"/>
			<path class="st1" d="M638.3,407.3c-0.3,0-0.5-0.2-0.5-0.5v-12.7c0-1.3,1.1-2.3,2.4-2.3h26.6c1.3,0,2.4,1,2.4,2.3
				c0,0.3-0.2,0.5-0.5,0.5c-0.3,0-0.5-0.2-0.5-0.5c0-0.8-0.6-1.4-1.4-1.4h-26.6c-0.8,0-1.4,0.6-1.4,1.4v12.7
				C638.8,407.1,638.6,407.3,638.3,407.3z"/>
			<g>
				<path class="st1" d="M637.3,428.1c-0.1,0-0.2,0-0.3-0.1c-0.2-0.2-0.2-0.5,0-0.6l6.2-6c3.1-3,4-7.3,2.2-10.5
					c-0.1-0.2,0-0.5,0.2-0.6c0.2-0.1,0.5,0,0.6,0.2c2,3.5,1,8.3-2.4,11.6l-6.2,6C637.5,428.1,637.4,428.1,637.3,428.1z"/>
				<path class="st1" d="M625.3,416.5c-0.1,0-0.2,0-0.3-0.1c-0.2-0.2-0.2-0.5,0-0.6l6.2-6c3.5-3.4,8.7-4.3,12.3-2.1
					c0.2,0.1,0.3,0.4,0.2,0.6c-0.1,0.2-0.4,0.3-0.6,0.2c-3.3-1.9-8-1.1-11.2,2l-6.2,6C625.5,416.5,625.4,416.5,625.3,416.5z"/>
				<path class="st1" d="M639.8,420.7c0,0-0.1,0-0.1,0c-0.2-0.1-4.5-1.5-7.1-6.8c-0.1-0.2,0-0.4,0.1-0.5l1.1-1c2.6-2.5,6.5-3,8.6-1
					c0,0,0,0,0,0c1.2,1.2,1.3,2.8,1.2,3.7c-0.1,1.6-1,3.3-2.3,4.6l-1.1,1C640,420.6,639.9,420.7,639.8,420.7z M633.5,413.7
					c2.1,4,5.2,5.6,6.2,6l0.8-0.8c1.2-1.1,1.9-2.6,2-4c0.1-0.7,0-2-1-3c0,0,0,0,0,0c-1.7-1.6-5-1.1-7.2,1L633.5,413.7z"/>
			</g>
			<g>
				<path class="st1" d="M660,407.3h-8.8c-0.2,0-0.4-0.2-0.5-0.4l-2.1-9.8h-2.8c-0.3,0-0.5-0.2-0.5-0.5s0.2-0.5,0.5-0.5h3.2
					c0.2,0,0.4,0.2,0.5,0.4l2.1,9.8h8.5c0.3,0,0.5,0.2,0.5,0.5S660.3,407.3,660,407.3z"/>
				<path class="st1" d="M655.8,404h-5.2c-0.3,0-0.5-0.2-0.5-0.5s0.2-0.5,0.5-0.5h5.2c0.3,0,0.5,0.2,0.5,0.5S656,404,655.8,404z"/>
				<path class="st1" d="M659.4,404c0,0-0.1,0-0.1,0c-0.2-0.1-0.4-0.3-0.3-0.6l1.3-3.7h-10.6c-0.3,0-0.5-0.2-0.5-0.5
					s0.2-0.5,0.5-0.5h11.3c0.2,0,0.3,0.1,0.4,0.2c0.1,0.1,0.1,0.3,0.1,0.4l-1.5,4.3C659.8,403.9,659.6,404,659.4,404z"/>
				<g>
					<g>
						<path class="st1" d="M652.1,411.5c-0.5,0-1-0.4-1-0.9c0-0.5,0.4-0.9,1-0.9c0.5,0,1,0.4,1,0.9C653,411,652.6,411.5,652.1,411.5
							z M652.1,410.5C652,410.5,652,410.5,652.1,410.5C652,410.5,652.1,410.5,652.1,410.5C652.1,410.5,652.1,410.5,652.1,410.5z"/>
					</g>
				</g>
				<g>
					<g>
						<path class="st1" d="M658.4,411.5c-0.5,0-1-0.4-1-0.9c0-0.5,0.4-0.9,1-0.9c0.5,0,1,0.4,1,0.9C659.4,411,659,411.5,658.4,411.5
							z M658.4,410.5C658.4,410.5,658.4,410.5,658.4,410.5C658.4,410.5,658.4,410.5,658.4,410.5
							C658.4,410.5,658.4,410.5,658.4,410.5z"/>
					</g>
				</g>
			</g>
		</g>
		<g>
			<path class="st1" d="M479.5,408.8c-0.3,0-0.5-0.2-0.5-0.5v-13.3c0-0.9-0.8-1.6-1.7-1.6h-29.1c-0.3,0-0.5-0.2-0.5-0.5
				s0.2-0.5,0.5-0.5h29.1c1.4,0,2.6,1.1,2.6,2.5v13.3C480,408.6,479.8,408.8,479.5,408.8z"/>
			<path class="st1" d="M467.8,421.6h-24.7c-1.4,0-2.6-1.1-2.6-2.5v-24c0-1.4,1.2-2.5,2.6-2.5c0.3,0,0.5,0.2,0.5,0.5
				s-0.2,0.5-0.5,0.5c-0.9,0-1.7,0.7-1.7,1.6v24c0,0.9,0.8,1.6,1.7,1.6h24.7c0.3,0,0.5,0.2,0.5,0.5S468.1,421.6,467.8,421.6z"/>
			<g>
				<path class="st1" d="M446.1,417.1c-0.3,0-0.5-0.2-0.5-0.5v-19.5c0-0.3,0.2-0.5,0.5-0.5s0.5,0.2,0.5,0.5v19.5
					C446.6,416.9,446.4,417.1,446.1,417.1z"/>
				<path class="st1" d="M450.8,417.1c-0.3,0-0.5-0.2-0.5-0.5v-19.5c0-0.3,0.2-0.5,0.5-0.5s0.5,0.2,0.5,0.5v19.5
					C451.3,416.9,451.1,417.1,450.8,417.1z"/>
				<path class="st1" d="M460.2,414.8c-0.3,0-0.5-0.2-0.5-0.5v-17.1c0-0.3,0.2-0.5,0.5-0.5c0.3,0,0.5,0.2,0.5,0.5v17.1
					C460.7,414.6,460.5,414.8,460.2,414.8z"/>
				<path class="st1" d="M455.5,417.1c-0.3,0-0.5-0.2-0.5-0.5v-19.6c0-0.3,0.2-0.5,0.5-0.5s0.5,0.2,0.5,0.5v19.6
					C456,416.9,455.8,417.1,455.5,417.1z"/>
				<path class="st1" d="M464.9,409.2c-0.3,0-0.5-0.2-0.5-0.5v-11.7c0-0.3,0.2-0.5,0.5-0.5s0.5,0.2,0.5,0.5v11.7
					C465.4,409,465.2,409.2,464.9,409.2z"/>
				<path class="st1" d="M469.6,406.1c-0.3,0-0.5-0.2-0.5-0.5v-8.6c0-0.3,0.2-0.5,0.5-0.5s0.5,0.2,0.5,0.5v8.6
					C470.1,405.9,469.9,406.1,469.6,406.1z"/>
				<path class="st1" d="M474.3,404.5c-0.3,0-0.5-0.2-0.5-0.5v-6.9c0-0.3,0.2-0.5,0.5-0.5c0.3,0,0.5,0.2,0.5,0.5v6.9
					C474.8,404.3,474.6,404.5,474.3,404.5z"/>
			</g>
			<path class="st1" d="M474.7,424.7c-5.1,0-9.3-4-9.3-9c0-5,4.2-9,9.3-9c1.8,0,3.5,0.5,4.9,1.4c0.2,0.1,0.3,0.4,0.1,0.6
				c-0.1,0.2-0.4,0.3-0.6,0.1c-1.3-0.8-2.9-1.2-4.4-1.2c-4.6,0-8.4,3.6-8.4,8.1c0,4.5,3.8,8.1,8.4,8.1c4.6,0,8.4-3.6,8.4-8.1
				c0-1.3-0.3-2.5-0.9-3.7c-0.1-0.2,0-0.5,0.2-0.6c0.2-0.1,0.5,0,0.6,0.2c0.7,1.3,1,2.7,1,4.1C484,420.7,479.8,424.7,474.7,424.7z"
				/>
			<path class="st1" d="M483.5,427.4c-0.1,0-0.3-0.1-0.4-0.2l-3.6-4.4c-0.2-0.2-0.1-0.5,0.1-0.6c0.2-0.2,0.5-0.1,0.7,0.1l3.6,4.4
				c0.2,0.2,0.1,0.5-0.1,0.6C483.7,427.4,483.6,427.4,483.5,427.4z"/>
			<path class="st1" d="M475.7,420.8c-0.3,0-0.5-0.2-0.5-0.5v-2.5h-4.5c-0.2,0-0.3-0.1-0.4-0.3c-0.1-0.2-0.1-0.3,0-0.5l4.9-6.2
				c0.1-0.2,0.3-0.2,0.5-0.2c0.2,0.1,0.3,0.2,0.3,0.4v5.7h2.4c0.3,0,0.5,0.2,0.5,0.5c0,0.3-0.2,0.5-0.5,0.5h-2.4v2.5
				C476.2,420.6,476,420.8,475.7,420.8z M471.8,417h3.5v-4.4L471.8,417z"/>
		</g>
		<g>
			<path class="st1" d="M560.1,398.7c-0.3,0-0.5-0.2-0.5-0.5v-6.9c0-1.3-1.1-2.3-2.4-2.3h-5.6c-1.3,0-2.4,1.1-2.4,2.3v6.9
				c0,0.3-0.2,0.5-0.5,0.5c-0.3,0-0.5-0.2-0.5-0.5v-6.9c0-1.8,1.5-3.3,3.4-3.3h5.6c1.9,0,3.4,1.5,3.4,3.3v6.9
				C560.6,398.5,560.4,398.7,560.1,398.7z"/>
			<path class="st1" d="M551.2,431.9C551.2,431.9,551.2,431.9,551.2,431.9c-8.8-1.5-15.1-8.8-15.1-17.4c0-9.7,8.2-17.6,18.2-17.6
				s18.2,7.9,18.2,17.6c0,8.1-5.7,15.1-13.8,17.1c-0.3,0.1-0.5-0.1-0.6-0.3c-0.1-0.2,0.1-0.5,0.3-0.6c7.7-1.9,13-8.5,13-16.2
				c0-9.2-7.8-16.7-17.3-16.7s-17.3,7.5-17.3,16.7c0,8.1,6,15,14.2,16.4c0.3,0,0.4,0.3,0.4,0.5C551.7,431.8,551.5,431.9,551.2,431.9
				z"/>
			<path class="st1" d="M554.4,427.2c-7.2,0-13.1-5.7-13.1-12.7c0-0.4,0-0.9,0.1-1.3c0-0.3,0.3-0.4,0.5-0.4c0.3,0,0.5,0.3,0.4,0.5
				c0,0.4-0.1,0.8-0.1,1.2c0,6.5,5.5,11.8,12.2,11.8c6.7,0,12.2-5.3,12.2-11.8c0-6.5-5.5-11.8-12.2-11.8c-4.2,0-8.2,2.2-10.4,5.7
				c-0.1,0.2-0.4,0.3-0.7,0.2c-0.2-0.1-0.3-0.4-0.2-0.6c1.1-1.8,2.8-3.4,4.7-4.5c2-1.1,4.3-1.7,6.6-1.7c7.2,0,13.1,5.7,13.1,12.7
				C567.5,421.6,561.6,427.2,554.4,427.2z"/>
			<path class="st1" d="M572.2,401.4c-0.1,0-0.3-0.1-0.4-0.2c-1.5-1.8-3.3-3.4-5.3-4.7c-0.2-0.1-0.3-0.4-0.1-0.6
				c0.1-0.2,0.4-0.3,0.7-0.1c2.1,1.3,4,3,5.6,4.9c0.2,0.2,0.1,0.5-0.1,0.6C572.4,401.4,572.3,401.4,572.2,401.4z"/>
			<path class="st1" d="M554.4,397.8c-0.3,0-0.5-0.2-0.5-0.5v-4.9c0-0.3,0.2-0.5,0.5-0.5c0.3,0,0.5,0.2,0.5,0.5v4.9
				C554.9,397.6,554.7,397.8,554.4,397.8z"/>
			<path class="st1" d="M550.8,413.7c-0.1,0-0.1,0-0.2,0l-7.8-2.8c-0.2-0.1-0.4-0.4-0.3-0.6c0.1-0.2,0.4-0.4,0.6-0.3l7.8,2.8
				c0.2,0.1,0.4,0.4,0.3,0.6C551.1,413.6,551,413.7,550.8,413.7z"/>
			<path class="st1" d="M560.9,417.4c-0.1,0-0.1,0-0.2,0l-2.9-1c-0.2-0.1-0.4-0.4-0.3-0.6c0.1-0.2,0.4-0.4,0.6-0.3l2.9,1
				c0.2,0.1,0.4,0.4,0.3,0.6C561.3,417.3,561.1,417.4,560.9,417.4z"/>
			<path class="st1" d="M554.4,418.7c-2.3,0-4.2-1.8-4.2-4.1c0-1.9,1.4-3.6,3.4-4c0.3-0.1,0.5,0.1,0.6,0.4s-0.1,0.5-0.4,0.5
				c-1.5,0.3-2.6,1.6-2.6,3.1c0,1.8,1.5,3.2,3.3,3.2c1.8,0,3.3-1.4,3.3-3.2c0-0.7-0.3-1.5-0.8-2c-0.2-0.2-0.1-0.5,0.1-0.7
				c0.2-0.2,0.5-0.1,0.7,0.1c0.6,0.7,1,1.7,1,2.6C558.6,416.8,556.7,418.7,554.4,418.7z"/>
		</g>
		<g>
			<path class="st1" d="M300.2,421.1h-1.2c-0.3,0-0.6-0.3-0.6-0.6s0.3-0.6,0.6-0.6h1.2c0.4,0,0.8-0.3,0.8-0.8v-9.3
				c0-0.4-0.4-0.8-0.8-0.8h-5.7c-0.3,0-0.5-0.2-0.6-0.4l-3.7-15.3c-0.1-0.3-0.4-0.6-0.8-0.6h-18.7c-0.3,0-0.6-0.3-0.6-0.6
				c0-0.3,0.3-0.6,0.6-0.6h18.7c0.9,0,1.7,0.6,1.9,1.5l3.6,14.9h5.2c1.1,0,2,0.9,2,1.9v9.3C302.1,420.2,301.3,421.1,300.2,421.1z"/>
			<path class="st1" d="M280.3,421.1h-19.7c-0.6,0-1.2-0.3-1.5-0.7c-0.4-0.4-0.5-1-0.4-1.6l5.4-25.7c0.2-0.9,1-1.5,1.9-1.5
				c0.3,0,0.6,0.3,0.6,0.6c0,0.3-0.3,0.6-0.6,0.6c-0.4,0-0.7,0.3-0.8,0.6l-5.4,25.7c0,0.2,0,0.4,0.2,0.6c0.1,0.2,0.4,0.3,0.6,0.3
				h19.7c0.3,0,0.6,0.3,0.6,0.6S280.7,421.1,280.3,421.1z"/>
			<path class="st1" d="M287.9,428.4c-4.5,0-8.2-3.6-8.2-7.9s3.7-7.9,8.2-7.9s8.2,3.6,8.2,7.9S292.5,428.4,287.9,428.4z
				 M287.9,413.7c-3.9,0-7,3-7,6.8c0,3.7,3.1,6.8,7,6.8s7-3,7-6.8C294.9,416.7,291.8,413.7,287.9,413.7z"/>
			<path class="st1" d="M280.3,397.2h-8.8c-0.3,0-0.6-0.3-0.6-0.6c0-0.3,0.3-0.6,0.6-0.6h8.8c0.3,0,0.6,0.3,0.6,0.6
				C280.9,397,280.7,397.2,280.3,397.2z"/>
			<path class="st1" d="M277.7,403h-8.8c-0.3,0-0.6-0.3-0.6-0.6s0.3-0.6,0.6-0.6h8.8c0.3,0,0.6,0.3,0.6,0.6S278.1,403,277.7,403z"/>
			<path class="st1" d="M275.1,408.8h-8.8c-0.3,0-0.6-0.3-0.6-0.6c0-0.3,0.3-0.6,0.6-0.6h8.8c0.3,0,0.6,0.3,0.6,0.6
				C275.7,408.6,275.5,408.8,275.1,408.8z"/>
			<path class="st1" d="M272.5,414.7h-8.8c-0.3,0-0.6-0.3-0.6-0.6c0-0.3,0.3-0.6,0.6-0.6h8.8c0.3,0,0.6,0.3,0.6,0.6
				C273.1,414.4,272.9,414.7,272.5,414.7z"/>
			<path class="st1" d="M289.1,405.6h-3.4c-0.3,0-0.6-0.3-0.6-0.6c0-0.3,0.3-0.6,0.6-0.6h2.8v-4.5c0-1.4-1.2-2.6-2.7-2.6h-0.2
				c-1.5,0-2.7,1.2-2.7,2.6v5.1c0,0.3-0.3,0.6-0.6,0.6c-0.3,0-0.6-0.3-0.6-0.6v-5.1c0-2.1,1.7-3.8,3.9-3.8h0.2
				c2.2,0,3.9,1.7,3.9,3.8v5.1C289.7,405.3,289.5,405.6,289.1,405.6z"/>
		</g>
		<g>
			<path class="st1" d="M194.6,401h-14c-0.3,0-0.6-0.2-0.6-0.5s0.3-0.5,0.6-0.5h14c0.3,0,0.6,0.2,0.6,0.5S194.9,401,194.6,401z"/>
			<path class="st1" d="M208.6,420.4h-23.7c-0.3,0-0.5-0.2-0.5-0.4l-5.9-26.7h-9.3c-0.3,0-0.6-0.2-0.6-0.5s0.3-0.5,0.6-0.5h9.7
				c0.3,0,0.5,0.2,0.5,0.4l5.9,26.7h23.3c1,0,1.8-0.8,1.8-1.7v-14.9c0-0.9-0.8-1.7-1.8-1.7h-5c-0.3,0-0.6-0.2-0.6-0.5
				s0.3-0.5,0.6-0.5h5c1.6,0,2.9,1.2,2.9,2.8v14.9C211.5,419.1,210.2,420.4,208.6,420.4z"/>
			<path class="st1" d="M209.6,427.4h-27c-2.3,0-4.2-1.8-4.2-4.1s1.9-4.1,4.2-4.1h25.7c0.3,0,0.6,0.2,0.6,0.5s-0.3,0.5-0.6,0.5
				h-25.7c-1.7,0-3.1,1.3-3.1,3c0,1.6,1.4,3,3.1,3h27c0.3,0,0.6,0.2,0.6,0.5S209.9,427.4,209.6,427.4z"/>
			<path class="st1" d="M187.7,434.4c-2.3,0-4.2-1.8-4.2-4.1s1.9-4.1,4.2-4.1c2.3,0,4.2,1.8,4.2,4.1S190,434.4,187.7,434.4z
				 M187.7,427.4c-1.7,0-3.1,1.3-3.1,3c0,1.6,1.4,3,3.1,3c1.7,0,3.1-1.3,3.1-3C190.8,428.7,189.4,427.4,187.7,427.4z"/>
			<path class="st1" d="M206,434.4c-2.3,0-4.2-1.8-4.2-4.1s1.9-4.1,4.2-4.1c2.3,0,4.2,1.8,4.2,4.1S208.3,434.4,206,434.4z
				 M206,427.4c-1.7,0-3.1,1.3-3.1,3c0,1.6,1.4,3,3.1,3s3.1-1.3,3.1-3C209.1,428.7,207.7,427.4,206,427.4z"/>
			<path class="st1" d="M206.7,416.5h-18.8c-0.3,0-0.6-0.2-0.6-0.5s0.3-0.5,0.6-0.5h18.8c0.3,0,0.6,0.2,0.6,0.5
				S207,416.5,206.7,416.5z"/>
			<path class="st1" d="M197.3,409.3c-1.7,0-3.2-1.4-3.2-3.1v-9.3h-4.6c-0.2,0-0.4-0.1-0.5-0.3c-0.1-0.2-0.1-0.4,0-0.6l7.8-10.3
				c0.1-0.1,0.3-0.2,0.5-0.2c0.2,0,0.3,0.1,0.5,0.2l7.8,10.3c0.2,0.2,0.1,0.6-0.1,0.8c-0.2,0.2-0.6,0.1-0.8-0.1l-7.3-9.7l-6.7,8.8
				h4.1c0.3,0,0.6,0.2,0.6,0.5v9.9c0,1.1,0.9,2,2.1,2c1.1,0,2.1-0.9,2.1-2v-9.9c0-0.3,0.3-0.5,0.6-0.5h2.9c0.3,0,0.6,0.2,0.6,0.5
				s-0.3,0.5-0.6,0.5h-2.3v9.3C200.5,407.9,199.1,409.3,197.3,409.3z"/>
		</g>
		<g>
			<path class="st1" d="M355.8,431.3c-0.1,0-0.1,0-0.2,0c-0.2-0.1-0.4-0.3-0.4-0.5v-41.6c0-0.3,0.3-0.6,0.6-0.6h30.7
				c0.3,0,0.6,0.3,0.6,0.6v41.6c0,0.3-0.3,0.6-0.6,0.6s-0.6-0.3-0.6-0.6v-41h-29.5v39.6l14.3-14.5c0.2-0.2,0.6-0.2,0.8,0l11.9,12
				c0.2,0.2,0.2,0.6,0,0.8c-0.2,0.2-0.6,0.2-0.8,0l-11.5-11.6l-14.9,15.1C356.1,431.3,356,431.3,355.8,431.3z"/>
			<g>
				<path class="st1" d="M371.2,411.8c-0.1,0-0.3-0.1-0.4-0.2l-6.4-6.2c-2-1.9-2-5.1,0-7c1-0.9,2.2-1.4,3.6-1.4
					c0.3,0,0.6,0.3,0.6,0.6c0,0.3-0.3,0.6-0.6,0.6c-1.1,0-2.1,0.4-2.8,1.1c-1.5,1.5-1.5,3.9,0,5.4l6.4,6.2c0.2,0.2,0.2,0.6,0,0.8
					C371.5,411.7,371.3,411.8,371.2,411.8z"/>
				<path class="st1" d="M371.2,411.8c-0.1,0-0.3-0.1-0.4-0.2l-6.4-6.2c-0.2-0.2-0.2-0.6,0-0.8c0.2-0.2,0.6-0.2,0.8,0l6,5.8l6-5.8
					c1.5-1.5,1.5-3.9,0-5.4c-0.7-0.7-1.7-1.1-2.8-1.1c-1.1,0-2.1,0.4-2.8,1.1c-0.2,0.2-0.6,0.2-0.8,0c-0.2-0.2-0.2-0.6,0-0.8
					c1-0.9,2.2-1.4,3.6-1.4c1.4,0,2.7,0.5,3.6,1.4c2,1.9,2,5.1,0,7l-6.4,6.2C371.5,411.7,371.3,411.8,371.2,411.8z"/>
			</g>
			<g>
				<path class="st1" d="M366.1,392.5h-5.6c-0.3,0-0.6-0.3-0.6-0.6c0-0.3,0.3-0.6,0.6-0.6h5.6c0.3,0,0.6,0.3,0.6,0.6
					C366.6,392.3,366.4,392.5,366.1,392.5z"/>
				<path class="st1" d="M381.9,392.5h-5.6c-0.3,0-0.6-0.3-0.6-0.6c0-0.3,0.3-0.6,0.6-0.6h5.6c0.3,0,0.6,0.3,0.6,0.6
					C382.5,392.3,382.2,392.5,381.9,392.5z"/>
			</g>
		</g>
		<g>
			<path class="st1" d="M113.1,428.4h-23c-0.4,0-0.7-0.3-0.7-0.7s0.3-0.7,0.7-0.7h23c2.1,0,3.9-1.7,3.9-3.8v-26.6
				c0-2.1-1.7-3.8-3.9-3.8H85.6c-2.1,0-3.9,1.7-3.9,3.8v26.6c0,1.5,0.9,2.9,2.4,3.5c0.4,0.1,0.5,0.5,0.4,0.9
				c-0.2,0.3-0.6,0.5-0.9,0.4c-2-0.8-3.2-2.7-3.2-4.7v-26.6c0-2.8,2.4-5.1,5.3-5.1h27.5c2.9,0,5.3,2.3,5.3,5.1v26.6
				C118.4,426.1,116,428.4,113.1,428.4z"/>
			<g>
				<path class="st1" d="M87.7,402.3l-1.1,3.1h-1.4l3.5-9.8h1.6l3.5,9.8h-1.4l-1.1-3.1H87.7z M91,401.3l-1-2.8
					c-0.2-0.6-0.4-1.2-0.5-1.8h0c-0.2,0.6-0.3,1.2-0.5,1.8l-1,2.8H91z"/>
			</g>
			<g>
				<path class="st1" d="M105.8,423.1l5-7.1v0h-4.6v-0.9h6.1v0.7l-5,7.1v0h5.1v0.9h-6.6V423.1z"/>
			</g>
			<path class="st1" d="M88.5,421.2c-0.2,0-0.4-0.1-0.5-0.2c-0.3-0.3-0.3-0.7,0-1l21.7-21c0.3-0.3,0.7-0.3,1,0c0.3,0.3,0.3,0.7,0,1
				L89,421C88.8,421.1,88.7,421.2,88.5,421.2z"/>
			<g>
				<path class="st1" d="M110.2,400.1h-6.8c-0.4,0-0.7-0.3-0.7-0.7c0-0.4,0.3-0.7,0.7-0.7h6.8c0.4,0,0.7,0.3,0.7,0.7
					C110.9,399.8,110.6,400.1,110.2,400.1z"/>
				<path class="st1" d="M110.3,406.8c-0.4,0-0.7-0.3-0.7-0.7v-6.6c0-0.4,0.3-0.7,0.7-0.7c0.4,0,0.7,0.3,0.7,0.7v6.6
					C111,406.5,110.7,406.8,110.3,406.8z"/>
			</g>
			<g>
				<path class="st1" d="M95.4,421.3h-6.8c-0.4,0-0.7-0.3-0.7-0.7c0-0.4,0.3-0.7,0.7-0.7h6.8c0.4,0,0.7,0.3,0.7,0.7
					C96.1,421,95.8,421.3,95.4,421.3z"/>
				<path class="st1" d="M88.5,421.2c-0.4,0-0.7-0.3-0.7-0.7v-6.6c0-0.4,0.3-0.7,0.7-0.7c0.4,0,0.7,0.3,0.7,0.7v6.6
					C89.2,420.9,88.9,421.2,88.5,421.2z"/>
			</g>
		</g>
	</g>
	<g>
		<g>
			<g>
				<path class="st1" d="M658.4,85.6h-13c-0.2,0-0.4-0.2-0.5-0.4L642,71.8h-5c-0.3,0-0.5-0.2-0.5-0.5c0-0.3,0.2-0.5,0.5-0.5h5.4
					c0.2,0,0.4,0.2,0.5,0.4l2.9,13.4h12.6c0.3,0,0.5,0.2,0.5,0.5C658.8,85.4,658.6,85.6,658.4,85.6z"/>
				<path class="st1" d="M657.5,81.1h-13c-0.3,0-0.5-0.2-0.5-0.5c0-0.3,0.2-0.5,0.5-0.5h12.6l0.7-2.1c0.1-0.2,0.3-0.4,0.6-0.3
					c0.2,0.1,0.4,0.3,0.3,0.6l-0.8,2.4C657.9,81,657.8,81.1,657.5,81.1z"/>
				<path class="st1" d="M659.5,75.2h-16.4c-0.3,0-0.5-0.2-0.5-0.5c0-0.3,0.2-0.5,0.5-0.5h16.4c0.3,0,0.5,0.2,0.5,0.5
					C660,75,659.8,75.2,659.5,75.2z"/>
				<g>
					<g>
						<path class="st1" d="M646.8,89.4c-0.6,0-1-0.5-1-1c0-0.6,0.5-1,1-1c0.6,0,1,0.5,1,1C647.9,88.9,647.4,89.4,646.8,89.4z
							 M646.8,88.3c-0.1,0-0.1,0-0.1,0.1c0,0.1,0,0.1,0.1,0.1c0.1,0,0.1,0,0.1-0.1C647,88.3,646.9,88.3,646.8,88.3z"/>
					</g>
				</g>
				<g>
					<g>
						<path class="st1" d="M655.5,89.4c-0.6,0-1-0.5-1-1c0-0.6,0.5-1,1-1c0.6,0,1,0.5,1,1C656.6,88.9,656.1,89.4,655.5,89.4z
							 M655.5,88.3c-0.1,0-0.1,0-0.1,0.1c0,0.1,0,0.1,0.1,0.1c0.1,0,0.1,0,0.1-0.1C655.6,88.3,655.6,88.3,655.5,88.3z"/>
					</g>
				</g>
			</g>
			<g>
				<path class="st1" d="M665.7,95.7H627c-1.4,0-2.5-1.1-2.5-2.5V67c0-1.4,1.1-2.5,2.5-2.5h31.4c0.3,0,0.5,0.2,0.5,0.5
					c0,0.3-0.2,0.5-0.5,0.5H627c-0.9,0-1.6,0.7-1.6,1.5v26.3c0,0.9,0.7,1.5,1.6,1.5h38.8c0.9,0,1.6-0.7,1.6-1.5V67
					c0-0.9-0.7-1.5-1.6-1.5c-0.3,0-0.5-0.2-0.5-0.5c0-0.3,0.2-0.5,0.5-0.5c1.4,0,2.5,1.1,2.5,2.5v26.3
					C668.3,94.6,667.1,95.7,665.7,95.7z"/>
				<path class="st1" d="M633,91.3c-0.3,0-0.5-0.2-0.5-0.5V65.2c0-0.3,0.2-0.5,0.5-0.5s0.5,0.2,0.5,0.5v25.7
					C633.5,91.1,633.3,91.3,633,91.3z"/>
				<path class="st1" d="M629,82.1c-0.3,0-0.5-0.2-0.5-0.5v-3c0-0.3,0.2-0.5,0.5-0.5s0.5,0.2,0.5,0.5v3
					C629.5,81.9,629.3,82.1,629,82.1z"/>
			</g>
		</g>
		<g>
			<path class="st1" d="M460.2,98.4c-0.1,0-3.2,0-6.4-2.6c-1.8-1.5-3.3-3.6-4.4-6.2c-1.3-3.2-2-7.2-2.1-11.8c0-0.2,0.1-0.3,0.2-0.4
				c0.1-0.1,0.3-0.2,0.5-0.1c0,0,2.9,0.4,6-0.4c4.2-1,6.8-3.5,8-7.5c0.1-0.2,0.2-0.4,0.4-0.4c0.2,0,0.4,0,0.6,0.2
				c0,0,2.2,2.6,5.3,4.2c0.3,0.1,0.4,0.5,0.2,0.8c-0.2,0.3-0.5,0.4-0.8,0.2c-2.2-1.2-4-2.8-4.9-3.7c-1.4,3.8-4.4,6.3-8.6,7.3
				c-2.5,0.6-4.7,0.6-5.8,0.5c0.3,9.7,3.5,14.3,6.1,16.5c2.7,2.2,5.3,2.4,5.6,2.4c5.9-0.7,9.7-4.6,11.2-11.6
				c1.2-5.3,0.5-10.4,0.5-10.5c0-0.3,0.2-0.6,0.5-0.6c0.3,0,0.6,0.2,0.7,0.5c0,0.2,0.7,5.4-0.5,10.8
				C470.9,93.3,466.7,97.6,460.2,98.4C460.3,98.4,460.2,98.4,460.2,98.4z"/>
			<path class="st1" d="M477.1,94.9c-2.6,0-5.1-1.8-6.9-3.4c-0.2-0.2-0.3-0.6,0-0.8c0.2-0.2,0.6-0.3,0.8,0c2.2,1.9,5.5,4.3,8.4,2.4
				c0,0,0.2-0.1,0.3-0.2c0.1-0.1,0.2-0.1,0.3-0.2c-0.5-0.4-1-1-1.4-1.6c-1.7-2.8-1.2-6.2-0.8-9.1c0-0.2,0.1-0.4,0.1-0.6
				c0.6-4.4-0.2-8.6-2.3-11.7c-1.8-2.6-4.6-4.6-8-5.6c-3.1-0.9-6.7-1.2-10.7-0.8c-6.5,0.6-12.1,5.1-13.6,10.9
				c-0.4,1.6-0.6,3.4-0.4,5.1c0.1,1.1,0.3,2.2,0.6,3.3c0.5,2.1,1,4.4,0.2,6.6c-0.1,0.3-0.4,0.5-0.7,0.4c-0.3-0.1-0.5-0.4-0.4-0.7
				c0.7-2,0.2-4-0.3-6.1c-0.3-1.1-0.5-2.3-0.6-3.5c-0.1-1.8,0-3.7,0.5-5.4c0.8-3.2,2.7-6,5.4-8.1c2.6-2,5.9-3.3,9.2-3.7
				c4.1-0.4,7.9-0.1,11.1,0.8c3.6,1,6.6,3.2,8.6,6.1c2.3,3.4,3.2,7.8,2.5,12.5c0,0.2-0.1,0.4-0.1,0.6c-0.4,2.9-0.9,5.9,0.6,8.4
				c0.4,0.7,1,1.3,1.7,1.7c0,0,0,0,0,0c0.3,0.2,0.4,0.5,0.2,0.8c-0.1,0.1-0.2,0.2-0.3,0.2c-0.2,0.1-0.6,0.4-0.8,0.6
				c-0.2,0.2-0.3,0.2-0.4,0.3C479,94.6,478,94.9,477.1,94.9z"/>
			<path class="st1" d="M444.4,94.6c-1.7,0-3.2-0.5-4.6-1.5c-0.3-0.2-0.3-0.5-0.1-0.8c0.2-0.2,0.6-0.3,0.8-0.1
				c1.9,1.4,4.1,1.7,6.6,0.8c1.9-0.7,3.3-1.8,3.3-1.8c0.2-0.2,0.6-0.2,0.8,0.1c0.2,0.2,0.2,0.6-0.1,0.8c-0.1,0.1-1.5,1.3-3.6,2
				C446.5,94.4,445.5,94.6,444.4,94.6z"/>
			<g>
				<ellipse class="st1" cx="454.9" cy="81.7" rx="1.3" ry="1.3"/>
				<ellipse class="st1" cx="465.7" cy="81.7" rx="1.3" ry="1.3"/>
			</g>
			<path class="st1" d="M462.8,93.3h-5c-0.8,0-1.4-0.6-1.4-1.3v-2.1c0-0.7,0.6-1.3,1.4-1.3h5c0.8,0,1.4,0.6,1.4,1.3V92
				C464.2,92.7,463.6,93.3,462.8,93.3z M457.8,89.7c-0.1,0-0.2,0.1-0.2,0.2V92c0,0.1,0.1,0.2,0.2,0.2h5c0.1,0,0.2-0.1,0.2-0.2v-2.1
				c0-0.1-0.1-0.2-0.2-0.2H457.8z"/>
			<path class="st1" d="M464,91.5c-0.3,0-0.5-0.2-0.6-0.5c0-0.3,0.2-0.6,0.5-0.6c5.8-0.6,10.1-4.8,9.6-9.4c0-0.3,0.2-0.6,0.5-0.6
				c0.3,0,0.6,0.2,0.6,0.5C475.3,86.1,470.5,90.8,464,91.5C464,91.5,464,91.5,464,91.5z"/>
		</g>
		<g>
			<path class="st1" d="M565.2,92.4h-21c-2.2,0-4.1-1.8-4.1-3.9c0-2.2,1.8-3.9,4-3.9l20.9-2.9c0.2,0,0.5,0.1,0.5,0.4
				c0,0.2-0.1,0.4-0.4,0.5l-21,2.9c0,0,0,0-0.1,0c-1.8,0-3.2,1.4-3.2,3.1c0,1.7,1.4,3.1,3.2,3.1h21c0.2,0,0.4,0.2,0.4,0.4
				C565.7,92.2,565.5,92.4,565.2,92.4z"/>
			<path class="st1" d="M565.3,82.4c0,0-0.1,0-0.1,0c-0.2-0.1-0.4-0.3-0.3-0.5l5-15.4c0.1-0.2,0.3-0.3,0.5-0.3
				c0.2,0.1,0.4,0.3,0.3,0.5l-5,15.4C565.6,82.3,565.5,82.4,565.3,82.4z"/>
			<path class="st1" d="M566,67h-30c-0.2,0-0.4-0.2-0.4-0.4c0-0.2,0.2-0.4,0.4-0.4h30c0.2,0,0.4,0.2,0.4,0.4
				C566.4,66.8,566.2,67,566,67z"/>
			<path class="st1" d="M543.1,85.4c-0.2,0-0.3-0.1-0.4-0.3l-9-23.2c-0.1-0.2,0-0.5,0.3-0.5c0.2-0.1,0.5,0,0.6,0.2l9,23.2
				c0.1,0.2,0,0.5-0.3,0.5C543.2,85.4,543.2,85.4,543.1,85.4z"/>
			<path class="st1" d="M534.1,62.2h-5.7c-0.2,0-0.4-0.2-0.4-0.4s0.2-0.4,0.4-0.4h5.7c0.2,0,0.4,0.2,0.4,0.4S534.4,62.2,534.1,62.2z
				"/>
			<path class="st1" d="M558,75.1h-18.6c-0.2,0-0.4-0.2-0.4-0.4s0.2-0.4,0.4-0.4H558c0.2,0,0.4,0.2,0.4,0.4S558.3,75.1,558,75.1z"/>
			<path class="st1" d="M567.7,75.1h-6.2c-0.2,0-0.4-0.2-0.4-0.4s0.2-0.4,0.4-0.4h6.2c0.2,0,0.4,0.2,0.4,0.4S567.9,75.1,567.7,75.1z
				"/>
			<path class="st1" d="M548.5,81.7c-0.2,0-0.4-0.1-0.4-0.3l-3.5-14.7c-0.1-0.2,0.1-0.5,0.3-0.5c0.2-0.1,0.5,0.1,0.5,0.3l3.5,14.7
				C549,81.4,548.8,81.6,548.5,81.7C548.5,81.7,548.5,81.7,548.5,81.7z"/>
			<path class="st1" d="M554.9,83.7c-0.2,0-0.4-0.2-0.4-0.4L553,66.6c0-0.2,0.2-0.4,0.4-0.5c0.2,0,0.5,0.2,0.5,0.4l1.5,16.7
				C555.4,83.4,555.2,83.6,554.9,83.7C555,83.7,554.9,83.7,554.9,83.7z"/>
			<path class="st1" d="M560.5,83C560.5,83,560.5,83,560.5,83c-0.3,0-0.5-0.2-0.4-0.5l0.9-8c0-0.2,0.2-0.4,0.5-0.4
				c0.2,0,0.4,0.2,0.4,0.5l-0.9,8C560.9,82.9,560.7,83,560.5,83z"/>
			<path class="st1" d="M561.4,75C561.4,75,561.4,75,561.4,75c-0.3,0-0.5-0.2-0.4-0.5l0.9-8c0-0.2,0.2-0.4,0.5-0.4
				c0.2,0,0.4,0.2,0.4,0.5l-0.9,8C561.8,74.8,561.7,75,561.4,75z"/>
			<g>
				<path class="st1" d="M545.1,98.9c-1.4,0-2.6-1.1-2.6-2.5c0-1.4,1.1-2.5,2.6-2.5c1.4,0,2.6,1.1,2.6,2.5
					C547.7,97.8,546.5,98.9,545.1,98.9z M545.1,94.8c-0.9,0-1.7,0.7-1.7,1.6s0.8,1.6,1.7,1.6c0.9,0,1.7-0.7,1.7-1.6
					S546,94.8,545.1,94.8z"/>
				<path class="st1" d="M560.7,98.9c-1.4,0-2.6-1.1-2.6-2.5c0-1.4,1.1-2.5,2.6-2.5c1.4,0,2.6,1.1,2.6,2.5
					C563.3,97.8,562.2,98.9,560.7,98.9z M560.7,94.8c-0.9,0-1.7,0.7-1.7,1.6s0.8,1.6,1.7,1.6c0.9,0,1.7-0.7,1.7-1.6
					S561.7,94.8,560.7,94.8z"/>
			</g>
		</g>
		<g>
			<path class="st1" d="M716.2,81.2c-0.2,0-0.4-0.1-0.4-0.3l-1-6.7c0,0,0,0,0-0.1c0-0.5,0.2-1,0.7-1.4c0.4-0.4,1-0.5,1.5-0.4
				l5.1,0.5c0.5,0,0.9-0.1,1.2-0.5c1.5-1.7,3.5-3.1,5.8-4.1l-1.7-4.5c0-0.1,0-0.3,0.1-0.4c0.1-0.1,0.2-0.2,0.3-0.2
				c0.2,0,4.2,0,6.4,3.6c2.1-0.3,4.2-0.3,6.3,0c0.2,0,0.4,0.2,0.4,0.5c0,0.2-0.2,0.4-0.5,0.3c-2.1-0.3-4.3-0.3-6.3,0.1
				c-0.2,0-0.4-0.1-0.4-0.2c-1.5-2.6-4.1-3.2-5.2-3.4l1.6,4.3c0.1,0.2,0,0.4-0.2,0.5c-2.3,1-4.3,2.4-5.8,4c-0.5,0.5-1.2,0.8-2,0.7
				l-5.1-0.5c-0.3,0-0.6,0.1-0.9,0.3c-0.2,0.2-0.4,0.5-0.4,0.8l1,6.7C716.6,80.9,716.4,81.1,716.2,81.2
				C716.2,81.2,716.2,81.2,716.2,81.2z"/>
			<path class="st1" d="M743.8,100.5h-2.3c-1.1,0-2-0.9-2-1.9v-4.1c-1.4,0.1-2.8,0.1-4.2,0v4.1c0,1.1-0.9,1.9-2,1.9H731
				c-1.1,0-2-0.9-2-1.9v-5.7c-4.2-1.8-7.3-4.9-8.5-8.6h-3.9c-0.2,0-0.4-0.2-0.4-0.4c0-0.2,0.2-0.4,0.4-0.4h4.2
				c0.2,0,0.3,0.1,0.4,0.3c1.1,3.6,4.2,6.7,8.4,8.5c0.2,0.1,0.3,0.2,0.3,0.4v5.9c0,0.6,0.5,1.1,1.2,1.1h2.3c0.6,0,1.2-0.5,1.2-1.1
				V94c0-0.1,0.1-0.2,0.1-0.3c0.1-0.1,0.2-0.1,0.3-0.1c1.6,0.2,3.3,0.2,4.9,0c0.1,0,0.2,0,0.3,0.1c0.1,0.1,0.1,0.2,0.1,0.3v4.5
				c0,0.6,0.5,1.1,1.2,1.1h2.3c0.6,0,1.2-0.5,1.2-1.1v-3c0-0.2,0.2-0.4,0.4-0.4s0.4,0.2,0.4,0.4v3
				C745.8,99.6,744.9,100.5,743.8,100.5z"/>
			<path class="st1" d="M745.3,93c-0.2,0-0.3-0.1-0.4-0.2c-0.1-0.2,0-0.4,0.2-0.5c5.5-2.3,8.9-6.8,8.9-11.7c0-1.8-0.5-3.6-1.4-5.3
				c-1.3-2.5-3.6-4.5-6.4-5.9c-0.2-0.1-0.3-0.3-0.2-0.5c0.1-0.2,0.4-0.3,0.6-0.2c3,1.5,5.4,3.7,6.8,6.3c1,1.8,1.5,3.7,1.5,5.7
				c0,5.2-3.6,10-9.4,12.5C745.5,93,745.4,93,745.3,93z"/>
			<path class="st1" d="M744.4,69.8c-2.8,0-5.1-2.2-5.1-5c0-2.7,2.3-5,5.1-5s5.1,2.2,5.1,5c0,0.8-0.2,1.5-0.6,2.2
				c-0.1,0.2-0.4,0.3-0.6,0.2c-0.2-0.1-0.3-0.3-0.2-0.5c0.3-0.6,0.5-1.2,0.5-1.9c0-2.3-1.9-4.2-4.3-4.2c-2.4,0-4.3,1.9-4.3,4.2
				c0,2.3,1.9,4.2,4.3,4.2c0.6,0,1.3-0.1,1.8-0.4c0.2-0.1,0.5,0,0.6,0.2c0.1,0.2,0,0.4-0.2,0.5C745.9,69.6,745.2,69.8,744.4,69.8z"
				/>
			<path class="st1" d="M753.1,75.4c-0.2,0-0.3-0.1-0.4-0.2c-0.1-0.2,0-0.4,0.2-0.5l8.8-4.1c0.2-0.1,0.5,0,0.6,0.2
				c0.1,0.2,0,0.4-0.2,0.5l-8.8,4.1C753.2,75.4,753.1,75.4,753.1,75.4z"/>
			<path class="st1" d="M744.4,72.7c-0.1,0-0.1,0-0.2,0c-1.6-0.7-3.4-1.1-5.3-1.1c-1.4,0-2.8,0.2-4,0.6c-0.2,0.1-0.5,0-0.5-0.3
				c-0.1-0.2,0-0.4,0.3-0.5c1.3-0.4,2.8-0.6,4.3-0.6c2,0,4,0.4,5.7,1.2c0.2,0.1,0.3,0.3,0.2,0.5C744.7,72.6,744.6,72.7,744.4,72.7z"
				/>
			<ellipse class="st1" cx="727.1" cy="74.2" rx="0.9" ry="0.8"/>
		</g>
		<g>
			<path class="st1" d="M104.8,101.7H82.9c-1,0-2-0.3-2.7-1c-0.3-0.2-0.3-0.7-0.1-1c0.3-0.3,0.7-0.3,1-0.1c0.5,0.4,1.1,0.6,1.8,0.6
				h21.9c1.5,0,2.7-1.2,2.7-2.6V62.6c0-1.5-1.2-2.6-2.7-2.6H82.9c-1.5,0-2.7,1.2-2.7,2.6V95c0,0.4-0.3,0.7-0.7,0.7
				c-0.4,0-0.7-0.3-0.7-0.7V62.6c0-2.2,1.9-4,4.1-4h21.9c2.3,0,4.1,1.8,4.1,4v35.1C108.9,99.9,107,101.7,104.8,101.7z"/>
			<path class="st1" d="M99.2,64.9H88.5c-1.4,0-2.6-1.1-2.6-2.5v-3.1c0-0.4,0.3-0.7,0.7-0.7s0.7,0.3,0.7,0.7v3.1
				c0,0.6,0.5,1.1,1.2,1.1h10.7c0.7,0,1.2-0.5,1.2-1.1c0-0.4,0.3-0.7,0.7-0.7c0.4,0,0.7,0.3,0.7,0.7
				C101.8,63.7,100.6,64.9,99.2,64.9z"/>
			<g>
				<path class="st1" d="M93.1,87.1v-1.8c-1.1,0-2.2-0.3-2.9-0.8l0.5-1.2c0.7,0.4,1.7,0.8,2.7,0.8c1.3,0,2.2-0.7,2.2-1.8
					c0-1-0.7-1.6-2.1-2.2c-1.9-0.7-3.1-1.6-3.1-3.1c0-1.5,1.1-2.7,2.8-2.9v-1.8h1.2v1.8c1.1,0,1.9,0.3,2.4,0.6l-0.5,1.2
					c-0.4-0.2-1.2-0.6-2.4-0.6c-1.4,0-2,0.8-2,1.6c0,0.9,0.7,1.4,2.3,2.1c1.9,0.8,2.9,1.7,2.9,3.3c0,1.4-1,2.8-3,3.1v1.9H93.1z"/>
			</g>
			<path class="st1" d="M96.5,97h-5.2c-0.4,0-0.7-0.3-0.7-0.7c0-0.4,0.3-0.7,0.7-0.7h5.2c0.4,0,0.7,0.3,0.7,0.7
				C97.2,96.7,96.8,97,96.5,97z"/>
		</g>
		<g>
			<path class="st1" d="M202,90.7h-22.4c-0.3,0-0.6-0.2-0.6-0.5s0.3-0.5,0.6-0.5H202c2.2,0,3.9-1.7,3.9-3.8V69.4
				c0-2.1-1.8-3.8-3.9-3.8h-33.4c-2.2,0-3.9,1.7-3.9,3.8v16.4c0,2.1,1.8,3.8,3.9,3.8c0.3,0,0.6,0.2,0.6,0.5s-0.3,0.5-0.6,0.5
				c-2.8,0-5-2.2-5-4.9V69.4c0-2.7,2.3-4.9,5-4.9H202c2.8,0,5,2.2,5,4.9v16.4C207,88.6,204.8,90.7,202,90.7z"/>
			<path class="st1" d="M206.5,70.7h-38.8c-0.3,0-0.6-0.2-0.6-0.5s0.3-0.5,0.6-0.5h38.8c0.3,0,0.6,0.2,0.6,0.5
				S206.8,70.7,206.5,70.7z"/>
			<path class="st1" d="M197.9,87.1c-0.1,0-0.2,0-0.3-0.1c-1.1-0.7-1.7-1.8-1.7-3.1c0-2,1.7-3.6,3.7-3.6c2.1,0,3.7,1.6,3.7,3.6
				c0,1.1-0.5,2.2-1.5,2.9c-0.2,0.2-0.6,0.1-0.8-0.1c-0.2-0.2-0.1-0.6,0.1-0.8c0.7-0.5,1-1.2,1-2c0-1.4-1.2-2.5-2.6-2.5
				c-1.4,0-2.6,1.1-2.6,2.5c0,0.9,0.5,1.7,1.2,2.1c0.3,0.2,0.3,0.5,0.2,0.7C198.3,87.1,198.1,87.1,197.9,87.1z"/>
			<path class="st1" d="M173.3,75.2h-5.6c-0.3,0-0.6-0.2-0.6-0.5c0-0.3,0.3-0.5,0.6-0.5h5.6c0.3,0,0.6,0.2,0.6,0.5
				C173.8,74.9,173.6,75.2,173.3,75.2z"/>
			<path class="st1" d="M183.3,75.2h-5.6c-0.3,0-0.6-0.2-0.6-0.5c0-0.3,0.3-0.5,0.6-0.5h5.6c0.3,0,0.6,0.2,0.6,0.5
				C183.9,74.9,183.7,75.2,183.3,75.2z"/>
			<path class="st1" d="M193.4,75.2h-5.6c-0.3,0-0.6-0.2-0.6-0.5c0-0.3,0.3-0.5,0.6-0.5h5.6c0.3,0,0.6,0.2,0.6,0.5
				C194,74.9,193.7,75.2,193.4,75.2z"/>
			<path class="st1" d="M203.5,75.2h-5.6c-0.3,0-0.6-0.2-0.6-0.5c0-0.3,0.3-0.5,0.6-0.5h5.6c0.3,0,0.6,0.2,0.6,0.5
				C204.1,74.9,203.8,75.2,203.5,75.2z"/>
			<g>
				<path class="st1" d="M178.5,95.7h-8.8c-0.9,0-1.7-0.7-1.7-1.6v-7.4c0-0.9,0.8-1.6,1.7-1.6h0.7c0.3,0,0.6,0.2,0.6,0.5
					s-0.3,0.5-0.6,0.5h-0.7c-0.3,0-0.6,0.2-0.6,0.5v7.4c0,0.3,0.3,0.5,0.6,0.5h8.8c0.3,0,0.6-0.2,0.6-0.5v-7.4
					c0-0.3-0.3-0.5-0.6-0.5h-0.7c-0.3,0-0.6-0.2-0.6-0.5s0.3-0.5,0.6-0.5h0.7c0.9,0,1.7,0.7,1.7,1.6v7.4
					C180.2,95,179.4,95.7,178.5,95.7z"/>
				<path class="st1" d="M177.7,86.2h-7.3c-0.3,0-0.6-0.2-0.6-0.5v-1.7c0-2.2,1.9-4.1,4.2-4.1c1.1,0,2.2,0.4,3,1.2
					c0.5,0.5,0.9,1.1,1.1,1.8c0.1,0.3-0.1,0.6-0.4,0.7c-0.3,0.1-0.6-0.1-0.7-0.4c-0.1-0.5-0.4-1-0.8-1.3c-0.6-0.6-1.4-0.9-2.2-0.9
					c-1.7,0-3.1,1.3-3.1,3v1.2h6.7c0.3,0,0.6,0.2,0.6,0.5S178.1,86.2,177.7,86.2z"/>
			</g>
		</g>
		<g>
			<g>
				<path class="st1" d="M373.3,85.8c-2.6,0-5.3-1-7.3-2.9c-1.9-1.9-3-4.4-3-7s1.1-5.2,3-7c4-3.9,10.5-3.9,14.5,0v0
					c1.9,1.9,3,4.4,3,7s-1.1,5.2-3,7C378.6,84.8,375.9,85.8,373.3,85.8z M373.3,67.1c-2.3,0-4.7,0.9-6.4,2.6
					c-1.7,1.7-2.7,3.9-2.7,6.2c0,2.3,0.9,4.6,2.7,6.2c3.5,3.4,9.3,3.4,12.9,0c1.7-1.7,2.7-3.9,2.7-6.2c0-2.3-0.9-4.6-2.7-6.2
					c0,0,0,0,0,0C377.9,67.9,375.6,67.1,373.3,67.1z"/>
				<path class="st1" d="M387.4,94.4c-0.9,0-1.8-0.4-2.5-1l-5.1-4.9c-0.2-0.2-0.2-0.6,0-0.8c0.2-0.2,0.6-0.2,0.8,0l5.1,4.9
					c0.4,0.4,1,0.6,1.6,0.6c0.6,0,1.2-0.2,1.6-0.6c0.9-0.9,0.9-2.3,0-3.1l-8-7.7c-0.2-0.2-0.2-0.6,0-0.8c0.2-0.2,0.6-0.2,0.8,0
					l8,7.7c1.4,1.3,1.4,3.5,0,4.8C389.2,94.1,388.3,94.4,387.4,94.4z"/>
			</g>
			<path class="st1" d="M359.2,72.4c-0.3,0-0.6-0.3-0.6-0.6v-8.8c0-0.3,0.3-0.6,0.6-0.6h9.6c0.3,0,0.6,0.3,0.6,0.6
				c0,0.3-0.3,0.6-0.6,0.6h-9v8.2C359.8,72.1,359.5,72.4,359.2,72.4z"/>
			<path class="st1" d="M369.4,97.9h-10.2c-0.3,0-0.6-0.3-0.6-0.6v-8.4c0-0.3,0.3-0.6,0.6-0.6s0.6,0.3,0.6,0.6v7.9h9.6
				c0.3,0,0.6,0.3,0.6,0.6C370,97.7,369.7,97.9,369.4,97.9z"/>
			<path class="st1" d="M394.8,97.9h-10c-0.3,0-0.6-0.3-0.6-0.6c0-0.3,0.3-0.6,0.6-0.6h9.4v-7.2c0-0.3,0.3-0.6,0.6-0.6
				s0.6,0.3,0.6,0.6v7.8C395.4,97.7,395.1,97.9,394.8,97.9z"/>
			<path class="st1" d="M394.8,70.9c-0.3,0-0.6-0.3-0.6-0.6v-6.8h-8.9c-0.3,0-0.6-0.3-0.6-0.6c0-0.3,0.3-0.6,0.6-0.6h9.5
				c0.3,0,0.6,0.3,0.6,0.6v7.4C395.4,70.7,395.1,70.9,394.8,70.9z"/>
		</g>
		<g>
			<path class="st1" d="M291.6,93.9h-36.5c-3,0-5.5-2.4-5.5-5.3V67.2c0-0.3,0.3-0.6,0.6-0.6c0.3,0,0.6,0.3,0.6,0.6v21.4
				c0,2.3,1.9,4.1,4.3,4.1h36.5c2.3,0,4.3-1.8,4.3-4.1V67.2c0-0.3,0.3-0.6,0.6-0.6s0.6,0.3,0.6,0.6v21.4
				C297.1,91.5,294.7,93.9,291.6,93.9z"/>
			<path class="st1" d="M285.1,75.2c-0.1,0-0.2,0-0.3-0.1l-11.4-7.4L262,75.1c-0.2,0.1-0.5,0.1-0.7,0L250,67.7
				c-0.3-0.2-0.3-0.5-0.2-0.8c0.2-0.3,0.6-0.3,0.8-0.2l11.1,7.2l11.4-7.4c0.2-0.1,0.5-0.1,0.7,0l11.4,7.4l11.1-7.2
				c0.3-0.2,0.6-0.1,0.8,0.2c0.2,0.3,0.1,0.6-0.2,0.8l-11.4,7.4C285.3,75.2,285.2,75.2,285.1,75.2z"/>
			<path class="st1" d="M296.5,86.6h-40c-0.3,0-0.6-0.3-0.6-0.6c0-0.3,0.3-0.6,0.6-0.6h40c0.3,0,0.6,0.3,0.6,0.6
				C297.1,86.3,296.8,86.6,296.5,86.6z"/>
			<path class="st1" d="M270.3,80.8c-0.2,0-0.3-0.1-0.5-0.2c-0.7-0.8-1.1-1.8-1.1-2.9c0-2.5,2.1-4.5,4.7-4.5c2.6,0,4.7,2,4.7,4.5
				c0,1.1-0.4,2.1-1.1,2.9c-0.2,0.2-0.6,0.3-0.8,0.1c-0.3-0.2-0.3-0.6-0.1-0.8c0.5-0.6,0.8-1.4,0.8-2.2c0-1.8-1.6-3.3-3.5-3.3
				c-1.9,0-3.5,1.5-3.5,3.3c0,0.8,0.3,1.6,0.8,2.2c0.2,0.2,0.2,0.6-0.1,0.8C270.6,80.8,270.4,80.8,270.3,80.8z"/>
			<g>
				<path class="st1" d="M287,78.2h-6.2c-0.3,0-0.6-0.3-0.6-0.6c0-0.3,0.3-0.6,0.6-0.6h6.2c0.3,0,0.6,0.3,0.6,0.6
					C287.6,77.9,287.3,78.2,287,78.2z"/>
				<path class="st1" d="M266,78.2h-6.2c-0.3,0-0.6-0.3-0.6-0.6c0-0.3,0.3-0.6,0.6-0.6h6.2c0.3,0,0.6,0.3,0.6,0.6
					C266.6,77.9,266.3,78.2,266,78.2z"/>
			</g>
		</g>
	</g>
</g>
</svg>
