<?xml version="1.0" encoding="utf-8"?>
<!-- Generator: Adobe Illustrator 24.3.0, SVG Export Plug-In . SVG Version: 6.00 Build 0)  -->
<svg version="1.1" id="Layer_1" xmlns="http://www.w3.org/2000/svg" xmlns:xlink="http://www.w3.org/1999/xlink" x="0px" y="0px"
	 viewBox="0 0 841 493" style="enable-background:new 0 0 841 493;" xml:space="preserve">
<style type="text/css">
	.st0{fill:#F5F5F5;}
	.st1{fill:#252525;}
</style>
<rect class="st0" width="841" height="493"/>
<g>
	<g>
		<g>
			<g>
				<path class="st1" d="M663.4,261.5C663.4,261.5,663.4,261.5,663.4,261.5c-0.3,0-0.5-0.2-0.5-0.5l0.7-8.2c0-2.4-1.8-2.9-1.9-2.9
					l-7.1-1.1c-0.2,0-0.4-0.2-0.4-0.4v-4.7c0-0.2,0.2-0.5,0.5-0.5s0.5,0.2,0.5,0.5v4.4l6.7,1.1c0,0,0,0,0,0c0,0,2.7,0.6,2.7,3.8
					c0,0,0,0,0,0l-0.7,8.2C663.8,261.3,663.6,261.5,663.4,261.5z"/>
				<path class="st1" d="M652,261.8c-0.1,0-0.2,0-0.3-0.1l-7.5-7.2c-0.9-0.9-0.9-2.3,0-3.2l0.2-0.2c0.4-0.4,1-0.6,1.6-0.6
					c0,0,0,0,0,0c0.6,0,1.2,0.2,1.6,0.7l2.6,2.5v-12c0-1.2,1-2.2,2.3-2.2h0.2c1.1,0,2,0.7,2.3,1.7c0.1,0.2-0.1,0.5-0.4,0.5
					c-0.3,0.1-0.5-0.1-0.6-0.3c-0.1-0.6-0.7-1-1.4-1h-0.2c-0.8,0-1.4,0.6-1.4,1.3v13.1c0,0.2-0.1,0.3-0.3,0.4
					c-0.2,0.1-0.4,0-0.5-0.1l-3.4-3.3c-0.3-0.3-0.6-0.4-1-0.4c0,0,0,0,0,0c-0.4,0-0.7,0.1-1,0.4l-0.2,0.2c-0.5,0.5-0.5,1.4,0,1.9
					l7.5,7.2c0.2,0.2,0.2,0.5,0,0.6C652.3,261.7,652.1,261.8,652,261.8z"/>
			</g>
			<g>
				<path class="st1" d="M656.7,234c-0.2,0-0.3-0.1-0.4-0.2l-3.1-4.5c-0.1-0.2-0.1-0.5,0.1-0.6c0.2-0.1,0.5-0.1,0.6,0.1l3.1,4.5
					c0.1,0.2,0.1,0.5-0.1,0.6C656.9,234,656.8,234,656.7,234z"/>
				<path class="st1" d="M656.7,234c-0.1,0-0.2,0-0.3-0.1c-0.2-0.1-0.3-0.4-0.1-0.6l3.1-4.5c0.1-0.2,0.4-0.3,0.6-0.1
					c0.2,0.1,0.3,0.4,0.1,0.6l-3.1,4.5C657,234,656.8,234,656.7,234z"/>
				<path class="st1" d="M656.7,238.6c-0.3,0-0.5-0.2-0.5-0.5v-4.6c0-0.2,0.2-0.5,0.5-0.5s0.5,0.2,0.5,0.5v4.6
					C657.2,238.4,656.9,238.6,656.7,238.6z"/>
			</g>
			<path class="st1" d="M647.3,238.6c-1.8,0-3.3-1.5-3.3-3.3V229c0-0.2,0.2-0.5,0.5-0.5s0.5,0.2,0.5,0.5v6.3c0,1.3,1.1,2.4,2.4,2.4
				s2.4-1.1,2.4-2.4V229c0-0.2,0.2-0.5,0.5-0.5s0.5,0.2,0.5,0.5v6.3C650.7,237.1,649.2,238.6,647.3,238.6z"/>
			<g>
				<path class="st1" d="M638.3,238.6h-3c-0.3,0-0.5-0.2-0.5-0.5V229c0-0.2,0.2-0.5,0.5-0.5h3c1.5,0,2.7,1.2,2.7,2.6v0.2
					c0,0.9-0.5,1.7-1.2,2.2c0.7,0.5,1.2,1.3,1.2,2.2v0.2C641,237.4,639.8,238.6,638.3,238.6z M635.7,237.7h2.6c1,0,1.8-0.8,1.8-1.7
					v-0.2c0-1-0.8-1.7-1.8-1.7h-2.6V237.7z M638.3,233.1c1,0,1.8-0.8,1.8-1.7v-0.2c0-1-0.8-1.7-1.8-1.7h-2.6v3.7H638.3z"/>
			</g>
			<path class="st1" d="M660,244h-5.3c-0.3,0-0.5-0.2-0.5-0.5s0.2-0.5,0.5-0.5h5.3c2.6,0,4.7-2.1,4.7-4.6v-10c0-2.5-2.1-4.6-4.7-4.6
				c-0.3,0-0.5-0.2-0.5-0.5s0.2-0.5,0.5-0.5c3.1,0,5.7,2.5,5.7,5.5v10C665.6,241.6,663.1,244,660,244z"/>
			<path class="st1" d="M650.8,244H634c-3.1,0-5.7-2.5-5.7-5.5v-10c0-3,2.5-5.5,5.7-5.5h18.9c0.3,0,0.5,0.2,0.5,0.5
				s-0.2,0.5-0.5,0.5H634c-2.6,0-4.7,2.1-4.7,4.6v10c0,2.5,2.1,4.6,4.7,4.6h16.8c0.3,0,0.5,0.2,0.5,0.5S651,244,650.8,244z"/>
		</g>
		<g>
			<path class="st1" d="M536.4,247.6c-2.3,0-4.1-1.8-4.1-4v-15.6c0-2.2,1.8-4,4.1-4h30.5c2.3,0,4.1,1.8,4.1,4v10.2
				c0,0.3-0.3,0.5-0.6,0.5s-0.6-0.2-0.6-0.5v-10.2c0-1.6-1.3-2.9-3-2.9h-30.5c-1.6,0-3,1.3-3,2.9v15.6c0,1.6,1.3,2.9,3,2.9l19.3,0
				c0,0,0,0,0,0c0.3,0,0.6,0.2,0.6,0.5c0,0.3-0.3,0.5-0.6,0.5L536.4,247.6z"/>
			<path class="st1" d="M570.2,230.9h-31.9c-0.3,0-0.6-0.2-0.6-0.5c0-0.3,0.3-0.5,0.6-0.5h31.9c0.3,0,0.6,0.2,0.6,0.5
				C570.7,230.6,570.5,230.9,570.2,230.9z"/>
			<path class="st1" d="M549.4,241.5C549.4,241.5,549.4,241.5,549.4,241.5l-11.1,0c-0.3,0-0.6-0.2-0.6-0.5c0-0.3,0.3-0.5,0.6-0.5
				c0,0,0,0,0,0l11.1,0c0.3,0,0.6,0.2,0.6,0.5C550,241.3,549.7,241.5,549.4,241.5z"/>
			<path class="st1" d="M566,255.9c-0.3,0-0.6-0.2-0.6-0.5v-4.6c0-0.3,0.3-0.5,0.6-0.5c0.3,0,0.6,0.2,0.6,0.5v4.6
				C566.5,255.7,566.3,255.9,566,255.9z"/>
			<path class="st1" d="M566,252c-0.8,0-1.5-0.7-1.5-1.5c0-0.8,0.7-1.5,1.5-1.5c0.8,0,1.5,0.7,1.5,1.5
				C567.5,251.3,566.8,252,566,252z M566,250.2c-0.2,0-0.4,0.2-0.4,0.4c0,0.2,0.2,0.4,0.4,0.4c0.2,0,0.4-0.2,0.4-0.4
				C566.3,250.3,566.2,250.2,566,250.2z"/>
			<g>
				<path class="st1" d="M574.5,260.7c-0.3,0-0.6-0.2-0.6-0.5c0-0.3,0.3-0.5,0.6-0.5c0.5,0,0.9-0.4,0.9-0.9v-12.8
					c0-0.5-0.4-0.9-0.9-0.9h-16.9c-0.5,0-0.9,0.4-0.9,0.9v12.8c0,0.5,0.4,0.9,0.9,0.9h13.2c0.3,0,0.6,0.2,0.6,0.5
					c0,0.3-0.3,0.5-0.6,0.5h-13.2c-1.1,0-2.1-0.9-2.1-2v-12.8c0-1.1,0.9-2,2.1-2h16.9c1.1,0,2.1,0.9,2.1,2v12.8
					C576.5,259.8,575.6,260.7,574.5,260.7z"/>
				<path class="st1" d="M572.1,244.9c-0.3,0-0.6-0.2-0.6-0.5v-2.6c0-2.2-1.8-3.9-4-3.9h-3c-1.9,0-3.6,1.3-4,3.1
					c-0.1,0.3-0.4,0.5-0.7,0.4c-0.3-0.1-0.5-0.3-0.4-0.6c0.5-2.3,2.6-4,5.1-4h3c2.8,0,5.2,2.2,5.2,5v2.6
					C572.6,244.6,572.4,244.9,572.1,244.9z"/>
			</g>
		</g>
		<g>
			<path class="st1" d="M752.8,259.5h-28.2c-1.5,0-3-1.2-3.3-2.6l-3-13.8c-0.1-0.3,0.1-0.5,0.4-0.6c0.3-0.1,0.5,0.1,0.6,0.4l3,13.8
				c0.2,1,1.3,1.9,2.4,1.9h28.2c1.1,0,2.1-0.9,2.4-1.9l3-13.8c0.1-0.3,0.3-0.4,0.6-0.4c0.3,0.1,0.4,0.3,0.4,0.6l-3,13.8
				C755.8,258.3,754.3,259.5,752.8,259.5z"/>
			<path class="st1" d="M716.3,243.2h-1.8c-0.3,0-0.5-0.2-0.5-0.5v-5.9c0-0.3,0.2-0.5,0.5-0.5h28c0.3,0,0.5,0.2,0.5,0.5
				c0,0.3-0.2,0.5-0.5,0.5H715v5h1.3c0.3,0,0.5,0.2,0.5,0.5C716.8,243,716.6,243.2,716.3,243.2z"/>
			<path class="st1" d="M762.9,243.2h-44.2c-0.3,0-0.5-0.2-0.5-0.5c0-0.3,0.2-0.5,0.5-0.5h43.7v-5h-12.6c-0.3,0-0.5-0.2-0.5-0.5
				c0-0.3,0.2-0.5,0.5-0.5h13.1c0.3,0,0.5,0.2,0.5,0.5v5.9C763.4,243,763.2,243.2,762.9,243.2z"/>
			<g>
				<path class="st1" d="M727.4,255.8c-0.2,0-0.5-0.2-0.5-0.4l-1.2-8.7c0-0.3,0.2-0.5,0.4-0.5c0.3,0,0.5,0.2,0.6,0.4l1.2,8.7
					C728,255.5,727.8,255.7,727.4,255.8C727.5,255.8,727.4,255.8,727.4,255.8z"/>
				<path class="st1" d="M733,255.8c-0.3,0-0.5-0.2-0.5-0.5l-0.6-8.7c0-0.3,0.2-0.5,0.5-0.5c0.3,0,0.5,0.2,0.5,0.5l0.6,8.7
					C733.5,255.5,733.3,255.8,733,255.8C733.1,255.8,733,255.8,733,255.8z"/>
				<path class="st1" d="M749.9,255.8C749.9,255.8,749.9,255.8,749.9,255.8c-0.3,0-0.5-0.3-0.5-0.6l1.2-8.7c0-0.3,0.3-0.5,0.6-0.4
					c0.3,0,0.5,0.3,0.4,0.5l-1.2,8.7C750.4,255.6,750.2,255.8,749.9,255.8z"/>
				<path class="st1" d="M744.3,255.8C744.3,255.8,744.3,255.8,744.3,255.8c-0.3,0-0.5-0.2-0.5-0.5l0.6-8.7c0-0.3,0.3-0.5,0.5-0.5
					c0.3,0,0.5,0.2,0.5,0.5l-0.6,8.7C744.8,255.6,744.6,255.8,744.3,255.8z"/>
				<path class="st1" d="M738.7,255.8c-0.3,0-0.5-0.2-0.5-0.5v-8.7c0-0.3,0.2-0.5,0.5-0.5s0.5,0.2,0.5,0.5v8.7
					C739.2,255.6,739,255.8,738.7,255.8z"/>
			</g>
			<g>
				<g>
					<path class="st1" d="M726.1,239.6c-0.1,0-0.2,0-0.3-0.1c-0.2-0.1-0.3-0.4-0.2-0.7l8.7-13.3c0.1-0.2,0.5-0.3,0.7-0.2
						c0.2,0.1,0.3,0.4,0.2,0.7l-8.7,13.3C726.5,239.5,726.3,239.6,726.1,239.6z"/>
				</g>
				<g>
					<path class="st1" d="M751.2,239.6c-0.2,0-0.3-0.1-0.4-0.2l-8.7-13.3c-0.1-0.2-0.1-0.5,0.2-0.7c0.2-0.1,0.5-0.1,0.7,0.2
						l8.7,13.3c0.1,0.2,0.1,0.5-0.2,0.7C751.4,239.5,751.3,239.6,751.2,239.6z"/>
				</g>
			</g>
		</g>
		<g>
			<path class="st1" d="M455.5,236.9c-0.3,0-0.5-0.2-0.5-0.5v-7.1c0-3.9,3.3-7.1,7.3-7.1c4,0,7.3,3.2,7.3,7.1v7.1
				c0,0.3-0.2,0.5-0.5,0.5c-0.3,0-0.5-0.2-0.5-0.5v-7.1c0-3.3-2.8-6-6.2-6c-3.4,0-6.2,2.7-6.2,6v7.1
				C456.1,236.7,455.8,236.9,455.5,236.9z"/>
			<path class="st1" d="M475.6,256.8h-9.4c-0.3,0-0.5-0.2-0.5-0.5c0-0.3,0.2-0.5,0.5-0.5h9.4c0.3,0,0.5,0.2,0.5,0.5
				C476.1,256.6,475.9,256.8,475.6,256.8z"/>
			<path class="st1" d="M460.6,256.8h-11.7c-0.3,0-0.5-0.2-0.5-0.5c0-0.3,0.2-0.5,0.5-0.5h11.7c0.3,0,0.5,0.2,0.5,0.5
				C461.2,256.6,460.9,256.8,460.6,256.8z"/>
			<path class="st1" d="M475.8,262.6h-27c-1.5,0-2.5-0.3-3.1-1c-0.5-0.5-0.7-1.2-0.7-2l1.3-27.3c0-0.3,0.3-0.5,0.5-0.5h30.8
				c0.3,0,0.5,0.2,0.5,0.5c0,0.3-0.2,0.5-0.5,0.5h-30.3l-1.3,26.8c0,0.5,0.1,0.9,0.4,1.2c0.4,0.4,1.2,0.6,2.3,0.6h27
				c1.1,0,1.9-0.2,2.3-0.6c0.3-0.3,0.4-0.7,0.4-1.2l-1.1-22.3c0-0.3,0.2-0.5,0.5-0.6c0.3,0,0.6,0.2,0.6,0.5l1.1,22.3
				c0,0.8-0.2,1.5-0.7,2C478.2,262.3,477.2,262.6,475.8,262.6z"/>
			<path class="st1" d="M475.6,258.7h-26.7c-0.3,0-0.5-0.2-0.5-0.5c0-0.3,0.2-0.5,0.5-0.5h26.7c0.3,0,0.5,0.2,0.5,0.5
				C476.1,258.4,475.9,258.7,475.6,258.7z"/>
		</g>
		<g>
			<path class="st1" d="M386,238.8c-0.2,0-0.4-0.1-0.6-0.2l-13.6-14.2c-0.2-0.2-0.4-0.3-0.6-0.3s-0.5,0.1-0.6,0.3L357,238.6
				c-0.3,0.3-0.8,0.3-1.1,0c-0.3-0.3-0.3-0.7,0-1l13.6-14.2c0.5-0.5,1.1-0.7,1.8-0.7c0.7,0,1.3,0.3,1.8,0.7l13.6,14.2
				c0.3,0.3,0.3,0.8,0,1C386.3,238.8,386.1,238.8,386,238.8z"/>
			<path class="st1" d="M382.9,252.8h-23.4c-0.4,0-0.8-0.3-0.8-0.7v-17.2c0-0.4,0.3-0.7,0.8-0.7c0.4,0,0.8,0.3,0.8,0.7v16.4h21.8
				v-12.2c0-0.4,0.3-0.7,0.8-0.7c0.4,0,0.8,0.3,0.8,0.7V252C383.6,252.4,383.3,252.8,382.9,252.8z"/>
			<path class="st1" d="M374.9,248.1h-7.4c-0.4,0-0.8-0.3-0.8-0.7c0-0.4,0.3-0.7,0.8-0.7h7.4c0.4,0,0.8,0.3,0.8,0.7
				C375.6,247.8,375.3,248.1,374.9,248.1z"/>
			<path class="st1" d="M371.2,256.7c-0.4,0-0.8-0.3-0.8-0.7V252c0-0.4,0.3-0.7,0.8-0.7c0.4,0,0.8,0.3,0.8,0.7v3.9
				C372,256.4,371.6,256.7,371.2,256.7z"/>
			<path class="st1" d="M391.7,259.9h-17.4c-0.4,0-0.8-0.3-0.8-0.7s0.3-0.7,0.8-0.7h17.4c0.4,0,0.8,0.3,0.8,0.7
				S392.1,259.9,391.7,259.9z"/>
			<path class="st1" d="M367.9,259.9h-17.2c-0.4,0-0.8-0.3-0.8-0.7s0.3-0.7,0.8-0.7h17.2c0.4,0,0.8,0.3,0.8,0.7
				S368.3,259.9,367.9,259.9z"/>
			<path class="st1" d="M373.1,262.2c-0.2,0-0.4-0.1-0.6-0.3c-0.3-0.3-0.2-0.8,0.1-1c0.6-0.4,0.9-1.1,0.9-1.8c0-1.3-1.1-2.3-2.4-2.3
				c-1.3,0-2.4,1-2.4,2.3c0,0.7,0.3,1.3,0.9,1.8c0.3,0.3,0.4,0.7,0.1,1c-0.3,0.3-0.8,0.4-1.1,0.1c-0.9-0.7-1.4-1.8-1.4-2.9
				c0-2.1,1.8-3.8,3.9-3.8c2.2,0,3.9,1.7,3.9,3.8c0,1.1-0.5,2.2-1.4,2.9C373.4,262.1,373.3,262.2,373.1,262.2z"/>
		</g>
		<g>
			<path class="st1" d="M297.6,255.9h-18.3c-0.4,0-0.6-0.3-0.6-0.6s0.3-0.6,0.6-0.6h18.3c0.9,0,1.6-0.6,1.8-1.5l2.8-21.1
				c0.1-0.5-0.1-1-0.4-1.4c-0.3-0.4-0.8-0.6-1.3-0.6h-21.8c-0.9,0-1.6,0.6-1.8,1.5l-2.8,21.1c-0.1,0.5,0.1,1,0.4,1.4
				c0.3,0.4,0.8,0.6,1.3,0.6c0.4,0,0.6,0.3,0.6,0.6s-0.3,0.6-0.6,0.6c-0.9,0-1.7-0.4-2.3-1c-0.6-0.6-0.8-1.5-0.7-2.3l2.8-21.1
				c0.2-1.5,1.5-2.6,3-2.6h21.8c0.9,0,1.7,0.4,2.3,1c0.6,0.6,0.8,1.5,0.7,2.3l-2.8,21.1C300.4,254.8,299.1,255.9,297.6,255.9z"/>
			<path class="st1" d="M294.2,237.6h-9.9c-0.2,0-0.4-0.1-0.5-0.2c-0.1-0.1-0.2-0.3-0.2-0.5l0.8-7.5c0-0.3,0.4-0.6,0.7-0.6
				c0.4,0,0.6,0.3,0.6,0.7l-0.8,6.8h8.6l0.5-4.1c0-0.3,0.4-0.6,0.7-0.6c0.4,0,0.6,0.3,0.6,0.7l-0.5,4.7
				C294.8,237.4,294.6,237.6,294.2,237.6z"/>
			<path class="st1" d="M296.1,250.9h-18.5c-0.4,0-0.6-0.3-0.6-0.6c0-0.3,0.3-0.6,0.6-0.6h18.5c0.4,0,0.6,0.3,0.6,0.6
				C296.7,250.6,296.4,250.9,296.1,250.9z"/>
			<path class="st1" d="M272.4,235.6h-7.5c-0.4,0-0.6-0.3-0.6-0.6s0.3-0.6,0.6-0.6h7.5c0.4,0,0.6,0.3,0.6,0.6
				S272.8,235.6,272.4,235.6z"/>
			<g>
				<path class="st1" d="M269.4,243h-7.5c-0.4,0-0.6-0.3-0.6-0.6c0-0.3,0.3-0.6,0.6-0.6h7.5c0.4,0,0.6,0.3,0.6,0.6
					C270.1,242.7,269.8,243,269.4,243z"/>
			</g>
			<g>
				<path class="st1" d="M265.6,250.5H258c-0.4,0-0.6-0.3-0.6-0.6s0.3-0.6,0.6-0.6h7.5c0.4,0,0.6,0.3,0.6,0.6
					S265.9,250.5,265.6,250.5z"/>
			</g>
		</g>
		<g>
			<path class="st1" d="M203.7,259.2h-27.3c-2.1,0-3.8-1.6-3.8-3.6v-26.4c0-2,1.7-3.6,3.8-3.6h27.3c2.1,0,3.8,1.6,3.8,3.6v26.4
				C207.5,257.6,205.8,259.2,203.7,259.2z M176.5,226.9c-1.3,0-2.4,1.1-2.4,2.4v26.4c0,1.3,1.1,2.4,2.4,2.4h27.3
				c1.3,0,2.4-1.1,2.4-2.4v-26.4c0-1.3-1.1-2.4-2.4-2.4H176.5z M195.2,246.3c-2.2,0-3.9-1.7-3.9-3.8c0,0,0-0.1,0-0.1
				c0-0.3,0.3-0.6,0.7-0.6c0.4,0,0.6,0.3,0.6,0.7c0,0,0,0,0,0.1c0,1.4,1.2,2.5,2.6,2.5c1.4,0,2.6-1.1,2.6-2.5c0,0,0,0,0-0.1
				c0-0.3,0.3-0.7,0.6-0.7c0.4,0,0.7,0.2,0.7,0.6c0,0,0,0.1,0,0.1C199.2,244.6,197.4,246.3,195.2,246.3z"/>
			<g>
				<path class="st1" d="M201.3,232.9h-12.9c-0.4,0-0.7-0.3-0.7-0.6s0.3-0.6,0.7-0.6h12.9c0.4,0,0.7,0.3,0.7,0.6
					S201.7,232.9,201.3,232.9z"/>
				<path class="st1" d="M181.9,232.9h-3.3c-0.4,0-0.7-0.3-0.7-0.6s0.3-0.6,0.7-0.6h3.3c0.4,0,0.7,0.3,0.7,0.6
					S182.2,232.9,181.9,232.9z"/>
				<path class="st1" d="M191.9,243h-13.2c-0.4,0-0.7-0.3-0.7-0.6c0-0.4,0.3-0.6,0.7-0.6h13.2c0.4,0,0.7,0.3,0.7,0.6
					C192.6,242.8,192.3,243,191.9,243z"/>
				<path class="st1" d="M201.5,243h-3c-0.4,0-0.7-0.3-0.7-0.6c0-0.4,0.3-0.6,0.7-0.6h3c0.4,0,0.7,0.3,0.7,0.6
					C202.1,242.8,201.8,243,201.5,243z"/>
				<path class="st1" d="M201.6,253.2h-13.1c-0.4,0-0.7-0.3-0.7-0.6c0-0.4,0.3-0.6,0.7-0.6h13.1c0.4,0,0.7,0.3,0.7,0.6
					C202.2,252.9,201.9,253.2,201.6,253.2z"/>
				<path class="st1" d="M181.9,253.2h-3.1c-0.4,0-0.7-0.3-0.7-0.6c0-0.4,0.3-0.6,0.7-0.6h3.1c0.4,0,0.7,0.3,0.7,0.6
					C182.5,252.9,182.2,253.2,181.9,253.2z"/>
			</g>
			<path class="st1" d="M185.2,236c-0.4,0-0.7-0.3-0.7-0.6s0.3-0.6,0.7-0.6c1.4,0,2.6-1.1,2.6-2.5s-1.2-2.5-2.6-2.5
				c-1.4,0-2.6,1.1-2.6,2.5c0,0.4-0.3,0.6-0.7,0.6c-0.4,0-0.7-0.3-0.7-0.6c0-2.1,1.8-3.8,3.9-3.8c2.2,0,3.9,1.7,3.9,3.8
				S187.3,236,185.2,236z"/>
			<path class="st1" d="M198.5,242.4"/>
			<path class="st1" d="M191.9,243C191.9,243,191.9,243,191.9,243c-0.4,0-0.7-0.3-0.7-0.7c0.1-2.1,1.8-3.7,3.9-3.7
				c0.4,0,0.7,0.3,0.7,0.6c0,0.4-0.3,0.6-0.7,0.6c-1.4,0-2.6,1.1-2.6,2.5C192.6,242.8,192.3,243,191.9,243z"/>
			<path class="st1" d="M185.2,256.5c-2.2,0-3.9-1.7-3.9-3.8c0-2.1,1.8-3.8,3.9-3.8c2.2,0,3.9,1.7,3.9,3.8c0,0.4-0.3,0.6-0.7,0.6
				s-0.7-0.3-0.7-0.6c0-1.4-1.2-2.5-2.6-2.5c-1.4,0-2.6,1.1-2.6,2.5c0,1.4,1.2,2.5,2.6,2.5c0.4,0,0.7,0.3,0.7,0.6
				C185.8,256.2,185.5,256.5,185.2,256.5z"/>
		</g>
		<g>
			<path class="st1" d="M105.5,248.1c-2.6,0-5.3-1-7.3-2.9c-1.9-1.9-3-4.4-3-7s1.1-5.2,3-7c4-3.9,10.5-3.9,14.5,0v0
				c1.9,1.9,3,4.4,3,7s-1.1,5.2-3,7C110.7,247.1,108.1,248.1,105.5,248.1z M105.5,229.3c-2.3,0-4.7,0.9-6.4,2.6
				c-1.7,1.7-2.7,3.9-2.7,6.2c0,2.3,0.9,4.6,2.7,6.2c3.5,3.4,9.3,3.4,12.9,0c1.7-1.7,2.7-3.9,2.7-6.2c0-2.3-0.9-4.6-2.7-6.2
				c0,0,0,0,0,0C110.1,230.2,107.8,229.3,105.5,229.3z"/>
			<path class="st1" d="M119.6,256.7c-0.9,0-1.8-0.4-2.5-1l-5.1-4.9c-0.2-0.2-0.2-0.6,0-0.8c0.2-0.2,0.6-0.2,0.8,0l5.1,4.9
				c0.4,0.4,1,0.6,1.6,0.6c0.6,0,1.2-0.2,1.6-0.6c0.9-0.9,0.9-2.3,0-3.1l-8-7.7c-0.2-0.2-0.2-0.6,0-0.8c0.2-0.2,0.6-0.2,0.8,0l8,7.7
				c1.4,1.3,1.4,3.5,0,4.8C121.4,256.3,120.5,256.7,119.6,256.7z"/>
			<path class="st1" d="M98,229.3H81.8c-0.3,0-0.6-0.3-0.6-0.6c0-0.3,0.3-0.6,0.6-0.6H98c0.3,0,0.6,0.3,0.6,0.6
				C98.6,229,98.4,229.3,98,229.3z"/>
			<path class="st1" d="M92.4,238.2H76.2c-0.3,0-0.6-0.3-0.6-0.6s0.3-0.6,0.6-0.6h16.2c0.3,0,0.6,0.3,0.6,0.6S92.8,238.2,92.4,238.2
				z"/>
			<path class="st1" d="M96.2,247.1H77.4c-0.3,0-0.6-0.3-0.6-0.6c0-0.3,0.3-0.6,0.6-0.6h18.8c0.3,0,0.6,0.3,0.6,0.6
				C96.8,246.8,96.6,247.1,96.2,247.1z"/>
		</g>
	</g>
	<g>
		<g>
			<g>
				<path class="st1" d="M661.2,326.8h-11.9c-0.3,0-0.5-0.2-0.6-0.5l-2.6-12.1h-4.4c-0.3,0-0.6-0.3-0.6-0.6c0-0.3,0.3-0.6,0.6-0.6
					h4.9c0.3,0,0.5,0.2,0.6,0.5l2.6,12.1h11.4c0.3,0,0.6,0.3,0.6,0.6C661.8,326.6,661.5,326.8,661.2,326.8z"/>
				<path class="st1" d="M660.4,322.7h-11.8c-0.3,0-0.6-0.3-0.6-0.6c0-0.3,0.3-0.6,0.6-0.6H660l1.4-4.2h-14c-0.3,0-0.6-0.3-0.6-0.6
					c0-0.3,0.3-0.6,0.6-0.6h14.8c0.2,0,0.4,0.1,0.5,0.2c0.1,0.1,0.1,0.3,0.1,0.5l-1.8,5.4C660.9,322.5,660.7,322.7,660.4,322.7z"/>
				<g>
					<g>
						<path class="st1" d="M650.7,331.3c-0.6,0-1.1-0.5-1.1-1.1c0-0.6,0.5-1.1,1.1-1.1c0.6,0,1.1,0.5,1.1,1.1
							C651.8,330.8,651.3,331.3,650.7,331.3z M650.7,330.1C650.6,330.1,650.6,330.2,650.7,330.1c-0.1,0.1,0,0.1,0,0.1
							C650.7,330.2,650.7,330.2,650.7,330.1C650.7,330.2,650.7,330.1,650.7,330.1z"/>
					</g>
				</g>
				<g>
					<g>
						<path class="st1" d="M658.6,331.3c-0.6,0-1.1-0.5-1.1-1.1c0-0.6,0.5-1.1,1.1-1.1c0.6,0,1.1,0.5,1.1,1.1
							C659.7,330.8,659.2,331.3,658.6,331.3z M658.6,330.1C658.5,330.1,658.5,330.2,658.6,330.1c-0.1,0.1,0,0.1,0,0.1
							C658.6,330.2,658.6,330.2,658.6,330.1C658.6,330.2,658.6,330.1,658.6,330.1z"/>
					</g>
				</g>
			</g>
			<path class="st1" d="M673.7,334.2c-0.3,0-0.6-0.3-0.6-0.6v-21.1c0-1.3-1.1-2.3-2.4-2.3h-29.6c-0.3,0-0.6-0.3-0.6-0.6
				c0-0.3,0.3-0.6,0.6-0.6h29.6c1.9,0,3.5,1.5,3.5,3.4v21.1C674.3,334,674,334.2,673.7,334.2z"/>
			<path class="st1" d="M633.5,334.2c-0.3,0-0.6-0.3-0.6-0.6v-21.1c0-1.9,1.6-3.4,3.5-3.4c0.3,0,0.6,0.3,0.6,0.6
				c0,0.3-0.3,0.6-0.6,0.6c-1.3,0-2.3,1-2.3,2.3v21.1C634.1,334,633.9,334.2,633.5,334.2z"/>
			<path class="st1" d="M674.7,339h-42.2c-3.3,0-4.2-4.9-4.3-5.1c0-0.2,0-0.3,0.1-0.5c0.1-0.1,0.3-0.2,0.4-0.2h37.7
				c0.3,0,0.6,0.3,0.6,0.6c0,0.3-0.3,0.6-0.6,0.6h-36.9c0.3,1.2,1.2,3.5,2.9,3.5h42.2c1.7,0,2.6-2.3,3-3.5h-3.8
				c-0.3,0-0.6-0.3-0.6-0.6c0-0.3,0.3-0.6,0.6-0.6h4.6c0.2,0,0.3,0.1,0.4,0.2c0.1,0.1,0.2,0.3,0.1,0.5
				C678.9,334.1,678,339,674.7,339z"/>
		</g>
		<g>
			<g>
				<path class="st1" d="M752.5,323.8h-10.2c-0.3,0-0.5-0.2-0.5-0.4l-2.4-11.3h-3.2c-0.3,0-0.5-0.2-0.5-0.5c0-0.3,0.2-0.5,0.5-0.5
					h3.7c0.3,0,0.5,0.2,0.5,0.4l2.4,11.3h9.8c0.3,0,0.5,0.2,0.5,0.5S752.8,323.8,752.5,323.8z"/>
				<path class="st1" d="M751.8,320h-7.5c-0.3,0-0.5-0.2-0.5-0.5s0.2-0.5,0.5-0.5h7.1l1.3-3.9h-12.3c-0.3,0-0.5-0.2-0.5-0.5
					c0-0.3,0.2-0.5,0.5-0.5h13.1c0.2,0,0.3,0.1,0.4,0.2c0.1,0.1,0.1,0.3,0.1,0.5l-1.7,5C752.2,319.9,752,320,751.8,320z"/>
				<g>
					<g>
						<path class="st1" d="M743.3,328.6c-0.6,0-1.1-0.5-1.1-1.1c0-0.6,0.5-1.1,1.1-1.1c0.6,0,1.1,0.5,1.1,1.1
							C744.4,328.1,743.9,328.6,743.3,328.6z M743.3,327.5C743.3,327.5,743.3,327.5,743.3,327.5
							C743.3,327.6,743.3,327.6,743.3,327.5C743.3,327.5,743.3,327.5,743.3,327.5z"/>
					</g>
				</g>
				<g>
					<g>
						<path class="st1" d="M750.7,328.6c-0.6,0-1.1-0.5-1.1-1.1c0-0.6,0.5-1.1,1.1-1.1c0.6,0,1.1,0.5,1.1,1.1
							C751.8,328.1,751.3,328.6,750.7,328.6z M750.7,327.5C750.6,327.5,750.6,327.5,750.7,327.5
							C750.6,327.6,750.7,327.6,750.7,327.5C750.7,327.5,750.7,327.5,750.7,327.5z"/>
					</g>
				</g>
			</g>
			<g>
				<path class="st1" d="M755.9,346.7h-21.2c-1.4,0-2.6-1.1-2.6-2.5V304c0-1.4,1.2-2.5,2.6-2.5h21.2c1.4,0,2.6,1.1,2.6,2.5
					c0,0.3-0.2,0.5-0.5,0.5s-0.5-0.2-0.5-0.5c0-0.8-0.7-1.5-1.5-1.5h-21.2c-0.8,0-1.5,0.7-1.5,1.5v40.2c0,0.8,0.7,1.5,1.5,1.5h21.2
					c0.8,0,1.5-0.7,1.5-1.5v-34.9c0-0.3,0.2-0.5,0.5-0.5s0.5,0.2,0.5,0.5v34.9C758.5,345.6,757.4,346.7,755.9,346.7z"/>
				<path class="st1" d="M758,338h-21c-0.3,0-0.5-0.2-0.5-0.5s0.2-0.5,0.5-0.5h21c0.3,0,0.5,0.2,0.5,0.5S758.3,338,758,338z"/>
				<path class="st1" d="M747.1,342.3h-3.4c-0.3,0-0.5-0.2-0.5-0.5s0.2-0.5,0.5-0.5h3.4c0.3,0,0.5,0.2,0.5,0.5
					S747.4,342.3,747.1,342.3z"/>
			</g>
			<path class="st1" d="M747,342.3h-3.4c-0.3,0-0.5-0.2-0.5-0.5s0.2-0.5,0.5-0.5h3.4c0.3,0,0.5,0.2,0.5,0.5S747.3,342.3,747,342.3z"
				/>
		</g>
		<g>
			<g>
				<path class="st1" d="M569.8,326.9c-0.2,0-0.4-0.2-0.5-0.4c0-0.3,0.1-0.5,0.4-0.5l4.5-0.6c0.3,0,0.5,0.1,0.5,0.4
					c0,0.3-0.1,0.5-0.4,0.5L569.8,326.9C569.8,326.9,569.8,326.9,569.8,326.9z"/>
				<path class="st1" d="M574.3,335.7h-19.9c-2.2,0-3.9-1.7-3.9-3.8c0-2.1,1.7-3.8,3.9-3.8l12.2-1.7c0.3,0,0.5,0.1,0.5,0.4
					c0,0.3-0.1,0.5-0.4,0.5l-12.2,1.7c0,0,0,0-0.1,0c-1.6,0-3,1.3-3,2.9c0,1.6,1.3,2.9,3,2.9h19.9c0.3,0,0.5,0.2,0.5,0.5
					C574.8,335.5,574.5,335.7,574.3,335.7z"/>
				<path class="st1" d="M574.3,326.2c0,0-0.1,0-0.1,0c-0.3-0.1-0.4-0.3-0.3-0.6l1.4-4.3c0.1-0.2,0.3-0.4,0.6-0.3
					c0.3,0.1,0.4,0.3,0.3,0.6l-1.4,4.3C574.7,326.1,574.5,326.2,574.3,326.2z"/>
				<path class="st1" d="M569.7,311.6h-19.9c-0.3,0-0.5-0.2-0.5-0.5s0.2-0.5,0.5-0.5h19.9c0.3,0,0.5,0.2,0.5,0.5
					S569.9,311.6,569.7,311.6z"/>
				<path class="st1" d="M553.3,329.2c-0.2,0-0.4-0.1-0.4-0.3l-8.6-22.1c-0.1-0.2,0-0.5,0.3-0.6c0.2-0.1,0.5,0,0.6,0.3l8.6,22.1
					c0.1,0.2,0,0.5-0.3,0.6C553.4,329.2,553.3,329.2,553.3,329.2z"/>
				<path class="st1" d="M544.7,307.1h-5.4c-0.3,0-0.5-0.2-0.5-0.5c0-0.3,0.2-0.5,0.5-0.5h5.4c0.3,0,0.5,0.2,0.5,0.5
					C545.2,306.9,545,307.1,544.7,307.1z"/>
				<path class="st1" d="M569.9,319.3h-20.1c-0.3,0-0.5-0.2-0.5-0.5s0.2-0.5,0.5-0.5h20.1c0.3,0,0.5,0.2,0.5,0.5
					S570.2,319.3,569.9,319.3z"/>
				<path class="st1" d="M558.4,325.6c-0.2,0-0.4-0.1-0.5-0.4l-3.3-14c-0.1-0.2,0.1-0.5,0.4-0.6c0.3-0.1,0.5,0.1,0.6,0.3l3.3,14
					c0.1,0.2-0.1,0.5-0.4,0.6C558.4,325.6,558.4,325.6,558.4,325.6z"/>
				<path class="st1" d="M564.5,327.5c-0.2,0-0.5-0.2-0.5-0.4l-1.4-15.8c0-0.3,0.2-0.5,0.4-0.5c0.3,0,0.5,0.2,0.5,0.4L565,327
					C565,327.2,564.8,327.4,564.5,327.5C564.5,327.5,564.5,327.5,564.5,327.5z"/>
				<path class="st1" d="M569.8,326.9C569.8,326.9,569.8,326.9,569.8,326.9c-0.3,0-0.5-0.3-0.5-0.5l0.8-7c0-0.3,0.3-0.4,0.5-0.4
					c0.3,0,0.4,0.3,0.4,0.5l-0.8,7C570.2,326.7,570,326.9,569.8,326.9z"/>
				<g>
					<path class="st1" d="M555.2,342c-1.4,0-2.5-1.1-2.5-2.4c0-1.3,1.1-2.4,2.5-2.4c1.4,0,2.5,1.1,2.5,2.4
						C557.6,340.9,556.5,342,555.2,342z M555.2,338.1c-0.8,0-1.5,0.7-1.5,1.5c0,0.8,0.7,1.5,1.5,1.5c0.8,0,1.5-0.7,1.5-1.5
						C556.7,338.7,556,338.1,555.2,338.1z"/>
					<path class="st1" d="M570,342c-1.4,0-2.5-1.1-2.5-2.4c0-1.3,1.1-2.4,2.5-2.4s2.5,1.1,2.5,2.4C572.5,340.9,571.4,342,570,342z
						 M570,338.1c-0.8,0-1.5,0.7-1.5,1.5c0,0.8,0.7,1.5,1.5,1.5s1.5-0.7,1.5-1.5C571.6,338.7,570.9,338.1,570,338.1z"/>
				</g>
			</g>
			<path class="st1" d="M575.8,322c-4.2,0-7.6-3.3-7.6-7.3c0-4,3.4-7.3,7.6-7.3c0.3,0,0.5,0.2,0.5,0.5s-0.2,0.5-0.5,0.5
				c-3.6,0-6.6,2.9-6.6,6.4c0,3.5,3,6.4,6.6,6.4c3.6,0,6.6-2.9,6.6-6.4c0-2.4-1.4-4.6-3.6-5.7c-0.2-0.1-0.3-0.4-0.2-0.6
				c0.1-0.2,0.4-0.3,0.6-0.2c2.5,1.3,4.1,3.8,4.1,6.5C583.3,318.7,579.9,322,575.8,322z"/>
			<path class="st1" d="M578,315.1h-4.6c-0.3,0-0.5-0.2-0.5-0.5c0-0.3,0.2-0.5,0.5-0.5h4.6c0.3,0,0.5,0.2,0.5,0.5
				C578.5,314.9,578.3,315.1,578,315.1z"/>
		</g>
		<g>
			<g>
				<path class="st1" d="M477.6,326.9c-0.2,0-0.4-0.2-0.4-0.4c0-0.2,0.1-0.4,0.4-0.5l4.5-0.6c0.2,0,0.5,0.1,0.5,0.4
					c0,0.2-0.1,0.4-0.4,0.5L477.6,326.9C477.7,326.9,477.7,326.9,477.6,326.9z"/>
				<path class="st1" d="M482.1,335.7h-20c-2.1,0-3.9-1.7-3.9-3.8c0-2.1,1.7-3.8,3.9-3.8l12.2-1.7c0.2,0,0.5,0.1,0.5,0.4
					c0,0.2-0.1,0.4-0.4,0.5l-12.2,1.7c0,0,0,0-0.1,0c-1.7,0-3,1.3-3,2.9c0,1.6,1.4,2.9,3,2.9h20c0.2,0,0.4,0.2,0.4,0.4
					S482.4,335.7,482.1,335.7z"/>
				<path class="st1" d="M482.2,326.2c0,0-0.1,0-0.1,0c-0.2-0.1-0.4-0.3-0.3-0.5l1.4-4.3c0.1-0.2,0.3-0.3,0.5-0.3
					c0.2,0.1,0.4,0.3,0.3,0.5l-1.4,4.3C482.5,326.1,482.4,326.2,482.2,326.2z"/>
				<path class="st1" d="M477.5,311.6h-20c-0.2,0-0.4-0.2-0.4-0.4s0.2-0.4,0.4-0.4h20c0.2,0,0.4,0.2,0.4,0.4
					S477.7,311.6,477.5,311.6z"/>
				<path class="st1" d="M461.1,329.1c-0.2,0-0.3-0.1-0.4-0.3l-8.6-22.1c-0.1-0.2,0-0.5,0.3-0.5c0.2-0.1,0.5,0,0.6,0.2l8.6,22.1
					c0.1,0.2,0,0.5-0.3,0.5C461.2,329.1,461.1,329.1,461.1,329.1z"/>
				<path class="st1" d="M452.5,307h-5.4c-0.2,0-0.4-0.2-0.4-0.4c0-0.2,0.2-0.4,0.4-0.4h5.4c0.2,0,0.4,0.2,0.4,0.4
					C452.9,306.8,452.7,307,452.5,307z"/>
				<path class="st1" d="M477.7,319.3h-20.2c-0.2,0-0.4-0.2-0.4-0.4s0.2-0.4,0.4-0.4h20.2c0.2,0,0.4,0.2,0.4,0.4
					S478,319.3,477.7,319.3z"/>
				<path class="st1" d="M466.2,325.6c-0.2,0-0.4-0.1-0.4-0.3l-3.3-14c-0.1-0.2,0.1-0.5,0.3-0.5c0.2-0.1,0.5,0.1,0.5,0.3l3.3,14
					C466.7,325.3,466.5,325.5,466.2,325.6C466.2,325.6,466.2,325.6,466.2,325.6z"/>
				<path class="st1" d="M472.3,327.4c-0.2,0-0.4-0.2-0.4-0.4l-1.4-15.9c0-0.2,0.2-0.4,0.4-0.5c0.2,0,0.4,0.2,0.5,0.4l1.4,15.9
					C472.8,327.2,472.6,327.4,472.3,327.4C472.4,327.4,472.3,327.4,472.3,327.4z"/>
				<path class="st1" d="M477.6,326.8C477.6,326.8,477.6,326.8,477.6,326.8c-0.3,0-0.5-0.2-0.4-0.5l0.8-7c0-0.2,0.2-0.4,0.5-0.4
					c0.2,0,0.4,0.2,0.4,0.5l-0.8,7C478,326.7,477.9,326.8,477.6,326.8z"/>
				<g>
					<path class="st1" d="M463,342c-1.4,0-2.5-1.1-2.5-2.4c0-1.3,1.1-2.4,2.5-2.4s2.5,1.1,2.5,2.4C465.4,340.9,464.3,342,463,342z
						 M463,338.1c-0.9,0-1.6,0.7-1.6,1.5s0.7,1.5,1.6,1.5s1.6-0.7,1.6-1.5S463.8,338.1,463,338.1z"/>
					<path class="st1" d="M477.9,342c-1.4,0-2.5-1.1-2.5-2.4c0-1.3,1.1-2.4,2.5-2.4c1.4,0,2.5,1.1,2.5,2.4
						C480.3,340.9,479.2,342,477.9,342z M477.9,338.1c-0.9,0-1.6,0.7-1.6,1.5s0.7,1.5,1.6,1.5s1.6-0.7,1.6-1.5
						S478.7,338.1,477.9,338.1z"/>
				</g>
			</g>
			<path class="st1" d="M483.6,321.9c-4.2,0-7.5-3.3-7.5-7.3c0-4,3.4-7.3,7.5-7.3c0.2,0,0.4,0.2,0.4,0.4s-0.2,0.4-0.4,0.4
				c-3.7,0-6.7,2.9-6.7,6.4c0,3.6,3,6.4,6.7,6.4c3.7,0,6.7-2.9,6.7-6.4c0-2.4-1.4-4.6-3.6-5.7c-0.2-0.1-0.3-0.4-0.2-0.6
				c0.1-0.2,0.4-0.3,0.6-0.2c2.5,1.3,4.1,3.7,4.1,6.5C491.2,318.7,487.8,321.9,483.6,321.9z"/>
			<g>
				<path class="st1" d="M486.9,315.1h-6.6c-0.2,0-0.4-0.2-0.4-0.4c0-0.2,0.2-0.4,0.4-0.4h6.6c0.2,0,0.4,0.2,0.4,0.4
					C487.3,314.9,487.1,315.1,486.9,315.1z"/>
				<path class="st1" d="M483.6,318.2c-0.2,0-0.4-0.2-0.4-0.4v-6.3c0-0.2,0.2-0.4,0.4-0.4c0.2,0,0.4,0.2,0.4,0.4v6.3
					C484.1,318,483.9,318.2,483.6,318.2z"/>
			</g>
		</g>
		<g>
			<path class="st1" d="M377.9,342.3c-0.1,0-0.1,0-0.2,0c-6-1.4-10.4-4.3-13.2-8.8c-5.5-8.9-2.3-20.5-2.2-20.9
				c0.1-0.2,0.2-0.4,0.4-0.4l14.8-6.3c0.4-0.1,0.8,0,0.9,0.3c0.2,0.3,0,0.7-0.4,0.9l-14.5,6.1c-0.5,1.9-2.6,12,2.1,19.6
				c2.5,4.1,6.7,6.9,12.3,8.1c0.4,0.1,0.6,0.4,0.5,0.8C378.5,342.1,378.2,342.3,377.9,342.3z"/>
			<path class="st1" d="M377.8,342.3c-0.3,0-0.6-0.2-0.7-0.5c-0.1-0.4,0.1-0.7,0.5-0.8c13.4-3.1,15.7-13.6,15.2-21.9
				c0-0.4,0.3-0.7,0.7-0.7c0.4,0,0.7,0.3,0.7,0.6c0.4,7.2-1.2,19.8-16.3,23.3C377.9,342.3,377.9,342.3,377.8,342.3z"/>
			<path class="st1" d="M392.6,313.4c-0.1,0-0.2,0-0.3-0.1l-14.8-6.3c-0.4-0.1-0.5-0.5-0.4-0.9c0.2-0.3,0.6-0.5,0.9-0.3l14.8,6.3
				c0.4,0.1,0.5,0.5,0.4,0.9C393.2,313.3,392.9,313.4,392.6,313.4z"/>
		</g>
		<g>
			<path class="st1" d="M296.5,343.3h-18.9c-0.4,0-0.6-0.3-0.6-0.6s0.3-0.6,0.6-0.6h18.9c1.2,0,2.3-1,2.3-2.2v-31.6
				c0-1.2-1-2.2-2.3-2.2h-21.8c-1.2,0-2.3,1-2.3,2.2v31.6c0,0.3-0.3,0.6-0.6,0.6s-0.6-0.3-0.6-0.6v-31.6c0-1.9,1.6-3.4,3.6-3.4h21.8
				c2,0,3.6,1.5,3.6,3.4v31.6C300,341.8,298.4,343.3,296.5,343.3z"/>
			<path class="st1" d="M302.4,338.2c-0.4,0-0.6-0.3-0.6-0.6v-26.9c0-0.3,0.3-0.6,0.6-0.6s0.6,0.3,0.6,0.6v26.9
				C303,337.9,302.7,338.2,302.4,338.2z"/>
			<path class="st1" d="M285.6,313.5c-4.7,0-8.4-3.5-8.6-8c0-0.3,0.3-0.6,0.6-0.6c0.4,0,0.7,0.3,0.7,0.6c0.1,3.8,3.3,6.8,7.3,6.8
				c2.3,0,4.4-1,5.8-2.8c0.2-0.3,0.6-0.3,0.9-0.1c0.3,0.2,0.3,0.6,0.1,0.9C290.8,312.3,288.3,313.5,285.6,313.5z"/>
			<path class="st1" d="M295.7,317h-14c-0.4,0-0.6-0.3-0.6-0.6c0-0.3,0.3-0.6,0.6-0.6h14c0.4,0,0.6,0.3,0.6,0.6
				C296.3,316.7,296,317,295.7,317z"/>
			<path class="st1" d="M279.7,317h-4.2c-0.4,0-0.6-0.3-0.6-0.6c0-0.3,0.3-0.6,0.6-0.6h4.2c0.4,0,0.6,0.3,0.6,0.6
				C280.3,316.7,280,317,279.7,317z"/>
			<path class="st1" d="M295.7,323.2h-20.2c-0.4,0-0.6-0.3-0.6-0.6s0.3-0.6,0.6-0.6h20.2c0.4,0,0.6,0.3,0.6,0.6
				S296,323.2,295.7,323.2z"/>
			<path class="st1" d="M289.8,329.4h-14.3c-0.4,0-0.6-0.3-0.6-0.6s0.3-0.6,0.6-0.6h14.3c0.4,0,0.6,0.3,0.6,0.6
				S290.2,329.4,289.8,329.4z"/>
			<path class="st1" d="M295.7,335.7h-15.1c-0.4,0-0.6-0.3-0.6-0.6s0.3-0.6,0.6-0.6h15.1c0.4,0,0.6,0.3,0.6,0.6
				S296,335.7,295.7,335.7z"/>
		</g>
		<g>
			<path class="st1" d="M199.6,343.3h-19.8c-1.5,0-2.8-1.2-2.8-2.7v-22c0-0.7,0.2-1.3,0.7-1.8l9.9-10.9c0.5-0.6,1.3-0.9,2.1-0.9
				c0.8,0,1.6,0.3,2.1,0.9l9.9,10.9c0.4,0.5,0.7,1.1,0.7,1.8v22C202.3,342.1,201.1,343.3,199.6,343.3z M189.7,306.3
				c-0.4,0-0.8,0.2-1.1,0.5l-9.9,10.9c-0.2,0.3-0.4,0.6-0.4,0.9v22c0,0.8,0.6,1.4,1.4,1.4h19.8c0.8,0,1.4-0.6,1.4-1.4v-22
				c0-0.3-0.1-0.7-0.4-0.9l-9.9-10.9C190.4,306.4,190.1,306.3,189.7,306.3z"/>
			<path class="st1" d="M206.7,333.7c-0.2,0-0.4-0.1-0.6-0.3c-0.2-0.3-0.1-0.7,0.2-0.9l8.4-5.6c0.5-0.3,0.6-1,0.3-1.5l-11.3-15.7
				c-0.2-0.2-0.4-0.4-0.7-0.4l-12.6-3c-0.2,0-0.3,0-0.5,0c-0.4,0.1-0.7-0.1-0.8-0.5c-0.1-0.4,0.2-0.7,0.5-0.8c0.4-0.1,0.7-0.1,1.1,0
				l12.6,3c0.6,0.1,1.1,0.5,1.5,1l11.3,15.7c0.8,1.1,0.5,2.6-0.6,3.4l-8.4,5.6C207,333.7,206.8,333.7,206.7,333.7z"/>
			<ellipse class="st1" cx="189.8" cy="312.4" rx="1.5" ry="1.4"/>
			<g>
				<path class="st1" d="M188.6,324.9c0,2.7-1.5,4.1-3.2,4.1c-1.7,0-3.1-1.3-3.1-3.9c0-2.6,1.5-4,3.2-4
					C187.3,321.1,188.6,322.5,188.6,324.9z M183.6,325.1c0,1.7,0.6,2.9,1.7,2.9c1.2,0,1.7-1.2,1.7-2.9c0-1.6-0.5-2.9-1.7-2.9
					C184.2,322.1,183.6,323.4,183.6,325.1z M185.2,334.5l7.9-13.4h1.2l-7.9,13.4H185.2z M197.3,330.3c0,2.7-1.5,4.1-3.2,4.1
					c-1.7,0-3.1-1.3-3.1-3.9c0-2.6,1.5-4.1,3.2-4.1C196.1,326.4,197.3,327.8,197.3,330.3z M192.4,330.4c0,1.7,0.6,2.9,1.8,2.9
					c1.2,0,1.7-1.2,1.7-2.9c0-1.6-0.5-2.9-1.7-2.9C193,327.5,192.4,328.8,192.4,330.4z"/>
			</g>
		</g>
		<g>
			<g>
				<path class="st1" d="M108.8,343.4H88.9c-1.5,0-2.8-1.2-2.8-2.7v-22.2c0-0.7,0.2-1.3,0.7-1.8l10-10.9c0.5-0.6,1.3-0.9,2.1-0.9
					s1.6,0.3,2.1,0.9l10,10.9c0.5,0.5,0.7,1.1,0.7,1.8v22.2C111.7,342.1,110.4,343.4,108.8,343.4z M98.9,306.2
					c-0.4,0-0.8,0.2-1.1,0.5l-10,10.9c-0.2,0.3-0.4,0.6-0.4,0.9v22.2c0,0.8,0.6,1.4,1.4,1.4h19.9c0.8,0,1.4-0.6,1.4-1.4v-22.2
					c0-0.3-0.1-0.7-0.4-0.9l-10-10.9C99.7,306.3,99.3,306.2,98.9,306.2z"/>
				<path class="st1" d="M116,333.8c-0.2,0-0.4-0.1-0.6-0.3c-0.2-0.3-0.1-0.7,0.2-0.9l8.4-5.7c0.5-0.3,0.6-1,0.3-1.5L113,309.6
					c-0.2-0.2-0.4-0.4-0.7-0.4l-12.7-3c-0.2,0-0.3,0-0.5,0c-0.4,0.1-0.7-0.1-0.8-0.5c-0.1-0.4,0.2-0.7,0.5-0.8
					c0.4-0.1,0.7-0.1,1.1,0l12.7,3c0.6,0.1,1.1,0.5,1.5,1l11.3,15.8c0.8,1.1,0.5,2.6-0.6,3.4l-8.4,5.7
					C116.3,333.8,116.1,333.8,116,333.8z"/>
				<ellipse class="st1" cx="99" cy="312.3" rx="1.5" ry="1.4"/>
			</g>
			<g>
				<path class="st1" d="M98.1,338.5v-2.6c-1.5,0-3.1-0.5-4.1-1.1l0.6-1.7c1,0.6,2.3,1.1,3.8,1.1c1.9,0,3.2-1.1,3.2-2.5
					c0-1.4-1-2.3-3-3.1c-2.7-1-4.4-2.2-4.4-4.4c0-2.1,1.6-3.7,4-4.1v-2.6h1.6v2.5c1.6,0.1,2.7,0.5,3.5,0.9l-0.7,1.7
					c-0.6-0.3-1.6-0.9-3.3-0.9c-2,0-2.8,1.2-2.8,2.2c0,1.3,1,2,3.3,2.9c2.7,1.1,4.1,2.4,4.1,4.7c0,2-1.5,3.9-4.2,4.4v2.7H98.1z"/>
			</g>
		</g>
	</g>
	<g>
		<g>
			<path class="st1" d="M742.9,155.4c-0.2,0-0.4-0.1-0.5-0.3c-1.4-2.8-3-6.5-3-7.9c0-2.2,1.9-4,4.1-4c2.3,0,4.1,1.8,4.1,4
				c0,1.4-1.6,5.1-3,7.9c-0.1,0.2-0.4,0.4-0.7,0.2c-0.3-0.1-0.4-0.4-0.2-0.7c1.8-3.7,2.9-6.5,2.9-7.4c0-1.7-1.4-3-3.1-3
				c-1.7,0-3.1,1.3-3.1,3c0,0.9,1.1,3.7,2.9,7.5c0.1,0.2,0,0.5-0.2,0.7C743.1,155.4,743,155.4,742.9,155.4z"/>
			<g>
				<path class="st1" d="M741.3,156.1c-2.6,0-6.7-0.1-8-0.7c-1-0.5-1.8-1.3-2.1-2.3c-0.4-1-0.3-2.1,0.1-3.1c0.5-1,1.3-1.7,2.3-2.1
					c1-0.4,2.2-0.3,3.2,0.1h0c1.9,0.8,6.5,6.5,7.1,7.1c0.1,0.1,0.1,0.4,0.1,0.5c-0.1,0.2-0.3,0.3-0.5,0.3
					C743.2,156,742.4,156.1,741.3,156.1z M735,148.7c-0.4,0-0.7,0.1-1.1,0.2c-0.8,0.3-1.4,0.8-1.8,1.6c-0.4,0.7-0.4,1.5-0.1,2.3
					c0.3,0.8,0.9,1.4,1.6,1.7c1.2,0.5,6,0.6,8.7,0.6c-1.7-2-4.8-5.5-6-6c0,0,0,0,0,0C735.9,148.8,735.5,148.7,735,148.7z"/>
				<path class="st1" d="M745.9,156.1c-1.1,0-1.9,0-2.1,0c-0.3,0-0.5-0.2-0.5-0.5c0-0.3,0.2-0.5,0.5-0.5c0,0,0,0,0,0
					c2.2,0.1,8.3,0.1,9.7-0.6c0.8-0.3,1.3-0.9,1.6-1.7c0.3-0.8,0.2-1.6-0.1-2.3c-0.4-0.7-1-1.3-1.8-1.6c-0.8-0.3-1.6-0.2-2.4,0.1
					c-0.1,0.1-0.3,0.1-0.4,0.3c-0.2,0.2-0.6,0.1-0.7-0.1c-0.2-0.2-0.1-0.5,0.1-0.7c0.2-0.2,0.4-0.3,0.6-0.4c1-0.5,2.1-0.5,3.2-0.1
					c1,0.4,1.9,1.1,2.3,2.1c0.5,1,0.5,2.1,0.1,3.1c-0.4,1-1.1,1.8-2.1,2.3C752.6,156,748.5,156.1,745.9,156.1z"/>
			</g>
			<path class="st1" d="M758.6,180.7H732c-0.3,0-0.5-0.2-0.5-0.5s0.2-0.5,0.5-0.5h26V163c0-0.3,0.2-0.5,0.5-0.5s0.5,0.2,0.5,0.5
				v17.2C759.1,180.5,758.9,180.7,758.6,180.7z"/>
			<path class="st1" d="M728.6,180.7c-0.3,0-0.5-0.2-0.5-0.5V163c0-0.3,0.2-0.5,0.5-0.5c0.3,0,0.5,0.2,0.5,0.5v17.2
				C729.1,180.5,728.9,180.7,728.6,180.7z"/>
			<path class="st1" d="M740.6,163.2h-14.4c-0.3,0-0.5-0.2-0.5-0.5v-7.1c0-0.3,0.2-0.5,0.5-0.5h2.3c0.3,0,0.5,0.2,0.5,0.5
				s-0.2,0.5-0.5,0.5h-1.8v6.1h13.9c0.3,0,0.5,0.2,0.5,0.5C741.1,162.9,740.9,163.2,740.6,163.2z"/>
			<path class="st1" d="M760.9,163.2h-2.4c-0.3,0-0.5-0.2-0.5-0.5c0-0.3,0.2-0.5,0.5-0.5h1.9V156H739c-0.3,0-0.5-0.2-0.5-0.5
				s0.2-0.5,0.5-0.5h21.9c0.3,0,0.5,0.2,0.5,0.5v7.1C761.4,162.9,761.2,163.2,760.9,163.2z"/>
			<path class="st1" d="M754,163.2h-7.8c-0.3,0-0.5-0.2-0.5-0.5c0-0.3,0.2-0.5,0.5-0.5h7.8c0.3,0,0.5,0.2,0.5,0.5
				C754.5,162.9,754.3,163.2,754,163.2z"/>
			<g>
				<path class="st1" d="M741,180.6c-0.3,0-0.5-0.2-0.5-0.5v-24.4c0-0.3,0.2-0.5,0.5-0.5s0.5,0.2,0.5,0.5v24.4
					C741.5,180.4,741.3,180.6,741,180.6z"/>
				<path class="st1" d="M746.1,180.6c-0.3,0-0.5-0.2-0.5-0.5v-24.4c0-0.3,0.2-0.5,0.5-0.5s0.5,0.2,0.5,0.5v24.4
					C746.7,180.4,746.4,180.6,746.1,180.6z"/>
			</g>
		</g>
		<g>
			<path class="st1" d="M480,154.2c-0.2,0-0.5-0.1-0.6-0.4c-0.1-0.3,0-0.6,0.3-0.8l7.3-2.9c0.3-0.1,0.7,0,0.8,0.3
				c0.1,0.3,0,0.6-0.3,0.8l-7.3,2.9C480.1,154.2,480.1,154.2,480,154.2z"/>
			<path class="st1" d="M472.9,179.9c-0.2,0-0.5-0.1-0.6-0.4c-0.1-0.3,0-0.6,0.3-0.8l14-5.8v-22.3c0-0.3,0.3-0.6,0.6-0.6
				s0.6,0.3,0.6,0.6v22.7c0,0.2-0.1,0.4-0.4,0.5l-14.4,5.9C473.1,179.8,473,179.9,472.9,179.9z"/>
			<path class="st1" d="M467.1,182.3c-0.3,0-0.6-0.3-0.6-0.6v-22.9c0-0.2,0.1-0.5,0.4-0.5l8-3.2c0.3-0.1,0.7,0,0.8,0.3
				c0.1,0.3,0,0.6-0.3,0.8l-7.6,3.1v22.5C467.7,182,467.4,182.3,467.1,182.3z"/>
			<path class="st1" d="M467.1,182.3c-0.1,0-0.2,0-0.2,0l-20.1-8.3c-0.2-0.1-0.4-0.3-0.4-0.5v-22.7c0-0.2,0.1-0.4,0.3-0.5
				c0.2-0.1,0.4-0.1,0.6-0.1l20.1,8.2c0.3,0.1,0.5,0.5,0.3,0.8c-0.1,0.3-0.5,0.4-0.8,0.3l-19.2-7.8V173l19.7,8.2
				c0.3,0.1,0.5,0.5,0.3,0.8C467.5,182.1,467.3,182.3,467.1,182.3z"/>
			<path class="st1" d="M487.3,151.3c-0.1,0-0.2,0-0.2,0l-16.3-6.6c-0.3-0.1-0.5-0.5-0.3-0.8c0.1-0.3,0.5-0.4,0.8-0.3l16.3,6.6
				c0.3,0.1,0.5,0.5,0.3,0.8C487.8,151.1,487.5,151.3,487.3,151.3z"/>
			<path class="st1" d="M447,151.3c-0.2,0-0.5-0.1-0.6-0.3c-0.1-0.3,0-0.6,0.3-0.8l19.6-8.5c0.3-0.1,0.7,0,0.8,0.3
				c0.1,0.3,0,0.6-0.3,0.8l-19.6,8.5C447.1,151.3,447.1,151.3,447,151.3z"/>
			<polygon class="st1" points="474.4,163.1 474.4,156 454.7,148 455.2,146.9 475.6,155.2 475.6,161.3 479.4,159.8 479.4,154 
				459.5,145.9 460,144.8 480.6,153.2 480.6,160.5 			"/>
			<path class="st1" d="M462.6,176.3c-0.3,0-0.6-0.3-0.6-0.6v-5.4c0-0.3,0.3-0.6,0.6-0.6s0.6,0.3,0.6,0.6v5.4
				C463.2,176,463,176.3,462.6,176.3z"/>
			<path class="st1" d="M459,174.9c-0.3,0-0.6-0.3-0.6-0.6v-5.4c0-0.3,0.3-0.6,0.6-0.6s0.6,0.3,0.6,0.6v5.4
				C459.6,174.6,459.3,174.9,459,174.9z"/>
		</g>
		<g>
			<g>
				<g>
					<g>
						<path class="st1" d="M639.9,165.1c-0.6,0-1.1-0.5-1.1-1c0-0.6,0.5-1,1.1-1c0.6,0,1.1,0.5,1.1,1
							C641,164.7,640.5,165.1,639.9,165.1z M639.9,164.1C639.9,164.1,639.9,164.1,639.9,164.1L639.9,164.1
							C639.9,164.1,639.9,164.1,639.9,164.1z"/>
					</g>
				</g>
				<g>
					<g>
						<path class="st1" d="M659.4,165.1c-0.6,0-1.1-0.5-1.1-1c0-0.6,0.5-1,1.1-1c0.6,0,1.1,0.5,1.1,1
							C660.4,164.7,660,165.1,659.4,165.1z M659.4,164.1C659.4,164.1,659.4,164.1,659.4,164.1L659.4,164.1
							C659.4,164.1,659.4,164.1,659.4,164.1z"/>
					</g>
				</g>
			</g>
			<path class="st1" d="M669.1,171.8c-0.3,0-0.5-0.2-0.5-0.5v-17.3h-38.5c-0.3,0-0.5-0.2-0.5-0.5c0-0.3,0.2-0.5,0.5-0.5h39
				c0.3,0,0.5,0.2,0.5,0.5v17.9C669.7,171.5,669.4,171.8,669.1,171.8z"/>
			<path class="st1" d="M669.1,175.3h-39c-0.3,0-0.5-0.2-0.5-0.5v-17.4c0-0.3,0.2-0.5,0.5-0.5s0.5,0.2,0.5,0.5v16.9h38.5
				c0.3,0,0.5,0.2,0.5,0.5C669.7,175.1,669.4,175.3,669.1,175.3z"/>
			<path class="st1" d="M673.6,171.8c-0.3,0-0.5-0.2-0.5-0.5v-21.6h-38.8c-0.3,0-0.5-0.2-0.5-0.5s0.2-0.5,0.5-0.5h39.4
				c0.3,0,0.5,0.2,0.5,0.5v22.1C674.2,171.5,673.9,171.8,673.6,171.8z"/>
			<path class="st1" d="M662.2,171.3H637c-0.3,0-0.5-0.2-0.5-0.5c0-1.2-1-2.2-2.3-2.2c-0.3,0-0.5-0.2-0.5-0.5v-8
				c0-0.3,0.2-0.5,0.5-0.5c1.2,0,2.3-1,2.3-2.2c0-0.3,0.2-0.5,0.5-0.5h25.2c0.3,0,0.5,0.2,0.5,0.5c0,1.2,1,2.2,2.3,2.2
				c0.3,0,0.5,0.2,0.5,0.5v8c0,0.3-0.2,0.5-0.5,0.5c-1.2,0-2.3,1-2.3,2.2C662.8,171.1,662.5,171.3,662.2,171.3z M637.5,170.3h24.2
				c0.2-1.4,1.3-2.4,2.7-2.7v-7.1c-1.4-0.2-2.5-1.3-2.7-2.7h-24.2c-0.2,1.4-1.3,2.4-2.7,2.7v7.1
				C636.2,167.8,637.3,168.9,637.5,170.3z"/>
			<path class="st1" d="M649.6,168.2c-2.2,0-4-1.8-4-4.1c0-1.1,0.5-2.2,1.3-3c0.2-0.2,0.6-0.2,0.8,0c0.2,0.2,0.2,0.5,0,0.7
				c-0.6,0.6-0.9,1.4-0.9,2.3c0,1.7,1.3,3,2.9,3c1.6,0,2.9-1.4,2.9-3c0-1.1-0.6-2.1-1.5-2.7c-0.3-0.1-0.3-0.5-0.2-0.7
				c0.2-0.2,0.5-0.3,0.7-0.2c1.3,0.7,2,2.1,2,3.6C653.6,166.3,651.8,168.2,649.6,168.2z"/>
		</g>
		<g>
			<path class="st1" d="M564,173c-0.1,0-0.3-0.1-0.4-0.2c-0.2-0.2-0.2-0.6,0-0.8l7.6-7.3c0.2-0.2,0.6-0.2,0.8,0
				c0.2,0.2,0.2,0.6,0,0.8l-7.6,7.3C564.3,172.9,564.2,173,564,173z"/>
			<g>
				<path class="st1" d="M542.1,179c-0.3,0-0.6-0.2-0.6-0.6v-18.1c0-0.3,0.3-0.6,0.6-0.6s0.6,0.2,0.6,0.6v18.1
					C542.6,178.8,542.4,179,542.1,179z"/>
				<path class="st1" d="M576.6,175.4c-0.3,0-0.6-0.2-0.6-0.6v-14.5c0-0.3,0.3-0.6,0.6-0.6s0.6,0.2,0.6,0.6v14.5
					C577.1,175.1,576.9,175.4,576.6,175.4z"/>
				<path class="st1" d="M552.9,179c-0.3,0-0.6-0.2-0.6-0.6v-18.1c0-0.3,0.3-0.6,0.6-0.6s0.6,0.2,0.6,0.6v18.1
					C553.5,178.7,553.3,179,552.9,179z"/>
			</g>
			<path class="st1" d="M549.2,169.2c-0.3,0-0.6-0.2-0.6-0.6v-2.4c0-0.3,0.3-0.6,0.6-0.6s0.6,0.2,0.6,0.6v2.4
				C549.8,169,549.5,169.2,549.2,169.2z"/>
			<g>
				<path class="st1" d="M551.4,161.1c-2.4,0-4.4-1.9-4.4-4.3c0-0.3,0.3-0.6,0.6-0.6s0.6,0.2,0.6,0.6c0,1.8,1.5,3.2,3.3,3.2
					c1.8,0,3.3-1.4,3.3-3.2c0-0.3,0.3-0.6,0.6-0.6s0.6,0.2,0.6,0.6C555.9,159.2,553.9,161.1,551.4,161.1z"/>
				<path class="st1" d="M559.2,161.1c-2.5,0-4.5-1.9-4.5-4.3c0-0.3,0.3-0.6,0.6-0.6s0.6,0.2,0.6,0.6c0,1.8,1.5,3.2,3.3,3.2
					c1.8,0,3.3-1.4,3.3-3.2c0-0.3,0.3-0.6,0.6-0.6c0.3,0,0.6,0.2,0.6,0.6C563.7,159.2,561.7,161.1,559.2,161.1z"/>
				<path class="st1" d="M567,161.1c-2.5,0-4.5-1.9-4.5-4.3c0-0.3,0.3-0.6,0.6-0.6c0.3,0,0.6,0.2,0.6,0.6c0,1.8,1.5,3.2,3.3,3.2
					c1.9,0,3.4-1.4,3.4-3.2c0-0.3,0.3-0.6,0.6-0.6s0.6,0.2,0.6,0.6C571.6,159.2,569.5,161.1,567,161.1z"/>
				<path class="st1" d="M539.8,154.1c-0.3,0-0.6-0.2-0.6-0.6c0-0.3,0.3-0.6,0.6-0.6l35.4,0c0,0,0,0,0,0c0.3,0,0.6,0.2,0.6,0.6
					c0,0.3-0.3,0.6-0.6,0.6L539.8,154.1C539.8,154.1,539.8,154.1,539.8,154.1z"/>
			</g>
			<path class="st1" d="M574.9,161.1c-1.2,0-2.3-0.5-3.2-1.3c-0.2-0.2-0.2-0.6,0-0.8c0.2-0.2,0.6-0.2,0.8,0c0.6,0.6,1.5,1,2.4,1
				c1.8,0,3.3-1.4,3.3-3.2v-3.1l-4.5-7.7H545l-4.6,7.7v3.1c0,1.8,1.5,3.2,3.3,3.2c1.8,0,3.3-1.4,3.3-3.2c0-0.3,0.3-0.6,0.6-0.6
				s0.6,0.2,0.6,0.6c0,2.4-2,4.3-4.4,4.3c-2.5,0-4.5-1.9-4.5-4.3v-3.3c0-0.1,0-0.2,0.1-0.3l4.9-8.1c0.1-0.2,0.3-0.3,0.5-0.3h29.4
				c0.2,0,0.4,0.1,0.5,0.3l4.8,8.1c0,0.1,0.1,0.2,0.1,0.3v3.3C579.4,159.2,577.4,161.1,574.9,161.1z"/>
			<g>
				<path class="st1" d="M555.9,150.6C555.9,150.6,555.9,150.6,555.9,150.6c-0.4,0-0.6-0.3-0.6-0.6l0.3-4.5c0-0.3,0.3-0.5,0.6-0.5
					c0.3,0,0.6,0.3,0.5,0.6l-0.3,4.5C556.4,150.4,556.2,150.6,555.9,150.6z"/>
				<path class="st1" d="M549.1,150.6c0,0-0.1,0-0.1,0c-0.3-0.1-0.5-0.4-0.4-0.7l1.1-4.5c0.1-0.3,0.4-0.5,0.7-0.4
					c0.3,0.1,0.5,0.4,0.4,0.7l-1.1,4.5C549.6,150.4,549.3,150.6,549.1,150.6z"/>
				<path class="st1" d="M562.6,150.6c-0.3,0-0.5-0.2-0.6-0.5l-0.3-4.5c0-0.3,0.2-0.6,0.5-0.6c0.3,0,0.6,0.2,0.6,0.5l0.3,4.5
					C563.2,150.3,562.9,150.6,562.6,150.6C562.6,150.6,562.6,150.6,562.6,150.6z"/>
				<path class="st1" d="M569.4,150.6c-0.3,0-0.5-0.2-0.6-0.4l-1.1-4.5c-0.1-0.3,0.1-0.6,0.4-0.7c0.3-0.1,0.6,0.1,0.7,0.4l1.1,4.5
					c0.1,0.3-0.1,0.6-0.4,0.7C569.5,150.6,569.5,150.6,569.4,150.6z"/>
			</g>
			<path class="st1" d="M580,179h-41.4c-0.3,0-0.6-0.2-0.6-0.6s0.3-0.6,0.6-0.6H580c0.3,0,0.6,0.2,0.6,0.6S580.3,179,580,179z"/>
			<path class="st1" d="M566,174.9c-0.1,0-0.3-0.1-0.4-0.2c-0.2-0.2-0.2-0.6,0-0.8l7.6-7.3c0.2-0.2,0.6-0.2,0.8,0
				c0.2,0.2,0.2,0.6,0,0.8l-7.6,7.3C566.2,174.8,566.1,174.9,566,174.9z"/>
		</g>
		<g>
			<path class="st1" d="M297.3,160.3h-23.9c-2.7,0-4.9-2.1-4.9-4.7c0-2.6,2.2-4.7,4.9-4.7h23.9c2.7,0,4.9,2.1,4.9,4.7
				C302.2,158.2,300,160.3,297.3,160.3z M273.3,152.3c-1.9,0-3.4,1.5-3.4,3.3c0,1.8,1.5,3.3,3.4,3.3h23.9c1.9,0,3.4-1.5,3.4-3.3
				c0-1.8-1.5-3.3-3.4-3.3H273.3z"/>
			<path class="st1" d="M297.3,183.4h-24.1c-0.4,0-0.8-0.3-0.8-0.7v-23.1c0-0.4,0.3-0.7,0.8-0.7c0.4,0,0.8,0.3,0.8,0.7v22.3h22.5
				v-22.3c0-0.4,0.3-0.7,0.8-0.7s0.8,0.3,0.8,0.7v23.1C298.1,183,297.8,183.4,297.3,183.4z"/>
			<path class="st1" d="M287.4,156.2h-4.3c-0.4,0-0.8-0.3-0.8-0.7s0.3-0.7,0.8-0.7h4.3c0.4,0,0.8,0.3,0.8,0.7
				S287.9,156.2,287.4,156.2z"/>
			<path class="st1" d="M281.1,179.9h-4.3c-0.4,0-0.8-0.3-0.8-0.7c0-0.4,0.3-0.7,0.8-0.7h4.3c0.4,0,0.8,0.3,0.8,0.7
				C281.9,179.6,281.5,179.9,281.1,179.9z"/>
			<path class="st1" d="M285.3,179.5c-0.4,0-0.8-0.3-0.8-0.7v-19.3c0-0.4,0.3-0.7,0.8-0.7c0.4,0,0.8,0.3,0.8,0.7v19.3
				C286,179.2,285.7,179.5,285.3,179.5z"/>
			<path class="st1" d="M291.1,171.8h-17.8c-0.4,0-0.8-0.3-0.8-0.7c0-0.4,0.3-0.7,0.8-0.7h17.8c0.4,0,0.8,0.3,0.8,0.7
				C291.9,171.5,291.6,171.8,291.1,171.8z"/>
			<path class="st1" d="M278.8,152.3c-0.2,0-0.3,0-0.4-0.1c-2.3-1.6-3.6-2.8-4.1-3.7c-0.7-1.3-0.8-2.7-0.4-4.1
				c0.4-1.4,1.4-2.5,2.7-3.2c1.3-0.7,2.8-0.8,4.3-0.4c1.4,0.4,2.6,1.4,3.3,2.7c0.3,0.6,0.6,1.6,0.7,3c0,0,0,0,0,0.1
				c0,0.4-0.3,0.7-0.8,0.7c-0.4,0-0.7-0.3-0.8-0.7c-0.1-1.5-0.3-2.1-0.5-2.4c-0.5-0.9-1.3-1.6-2.4-1.9c-1-0.3-2.1-0.2-3.1,0.3
				c-1,0.5-1.7,1.3-2,2.3c-0.3,1-0.2,2.1,0.3,3c0.2,0.4,1,1.3,3.6,3.2c0.3,0.2,0.4,0.7,0.2,1C279.3,152.2,279,152.3,278.8,152.3z"/>
			<path class="st1" d="M284,152.3c-0.4,0-0.7-0.3-0.8-0.7c-0.1-2-0.1-3.7,0-5.1c0,0,0,0,0,0c0.1-1.4,0.3-2.4,0.7-3
				c0.7-1.3,1.8-2.2,3.3-2.7c1.4-0.4,2.9-0.3,4.3,0.4c2.7,1.4,3.8,4.6,2.4,7.3c-0.2,0.4-0.5,0.8-1,1.3c-0.3,0.3-0.8,0.3-1.1,0
				c-0.3-0.3-0.3-0.7,0-1c0.5-0.4,0.7-0.7,0.7-0.9c1-1.9,0.3-4.3-1.7-5.3c-1-0.5-2.1-0.6-3.1-0.3c-1,0.3-1.9,1-2.4,1.9
				c-0.2,0.3-0.4,1-0.5,2.4c0,0,0,0,0,0c-0.1,1.3-0.1,2.9,0,4.9C284.8,151.9,284.5,152.3,284,152.3C284.1,152.3,284,152.3,284,152.3
				z"/>
		</g>
		<g>
			<path class="st1" d="M208.1,176.4h-26.3c-2.6,0-4.7-2-4.7-4.5v-25.4c0-2.5,2.1-4.5,4.7-4.5h26.3c2.6,0,4.7,2,4.7,4.5v25.4
				C212.8,174.4,210.7,176.4,208.1,176.4z M181.9,143.3c-1.8,0-3.3,1.4-3.3,3.2v25.4c0,1.8,1.5,3.2,3.3,3.2h26.3
				c1.8,0,3.3-1.4,3.3-3.2v-25.4c0-1.8-1.5-3.2-3.3-3.2H181.9z"/>
			<path class="st1" d="M205.5,170.9h-27.6c-0.4,0-0.7-0.3-0.7-0.7c0-0.4,0.3-0.7,0.7-0.7h27.6c0.4,0,0.7,0.3,0.7,0.7
				C206.2,170.6,205.9,170.9,205.5,170.9z"/>
			<path class="st1" d="M202.6,162.9h-10.4c-1,0-1.8-0.8-1.8-1.8v-10.8h-4.2c-0.4,0-0.7-0.3-0.7-0.7c0-0.4,0.3-0.7,0.7-0.7h4.9
				c0.4,0,0.7,0.3,0.7,0.7v11.4c0,0.3,0.2,0.5,0.5,0.5h10.4c0.3,0,0.5-0.2,0.5-0.5v-6.7c0-0.3-0.2-0.5-0.5-0.5h-6.4
				c-0.4,0-0.7-0.3-0.7-0.7s0.3-0.7,0.7-0.7h6.4c1,0,1.8,0.8,1.8,1.8v6.7C204.5,162.1,203.6,162.9,202.6,162.9z"/>
			<path class="st1" d="M194.8,165.4h-2.3c-0.4,0-0.7-0.3-0.7-0.7c0-0.4,0.3-0.7,0.7-0.7h2.3c0.4,0,0.7,0.3,0.7,0.7
				C195.4,165.1,195.1,165.4,194.8,165.4z"/>
			<path class="st1" d="M202.7,165.4h-2.3c-0.4,0-0.7-0.3-0.7-0.7c0-0.4,0.3-0.7,0.7-0.7h2.3c0.4,0,0.7,0.3,0.7,0.7
				C203.4,165.1,203.1,165.4,202.7,165.4z"/>
			<g>
				<path class="st1" d="M189.4,179.2c-0.4,0-0.7-0.3-0.7-0.7v-2.8c0-0.4,0.3-0.7,0.7-0.7c0.4,0,0.7,0.3,0.7,0.7v2.8
					C190.1,178.9,189.8,179.2,189.4,179.2z"/>
				<path class="st1" d="M200.6,181.9c-0.4,0-0.7-0.3-0.7-0.7v-5.5c0-0.4,0.3-0.7,0.7-0.7s0.7,0.3,0.7,0.7v5.5
					C201.3,181.6,201,181.9,200.6,181.9z"/>
			</g>
			<path class="st1" d="M205.5,181.9h-21c-0.4,0-0.7-0.3-0.7-0.7s0.3-0.7,0.7-0.7h21c0.4,0,0.7,0.3,0.7,0.7S205.9,181.9,205.5,181.9
				z"/>
		</g>
		<g>
			<path class="st1" d="M393,168.5h-21.6c-0.3,0-0.5-0.2-0.6-0.4l-5.4-24.2h-8.4c-0.3,0-0.6-0.2-0.6-0.5c0-0.3,0.3-0.5,0.6-0.5h8.8
				c0.3,0,0.5,0.2,0.6,0.4l5.4,24.2H393c0.9,0,1.5-0.7,1.5-1.5v-13.5c0-0.8-0.7-1.5-1.5-1.5h-20.5c-0.3,0-0.6-0.2-0.6-0.5
				c0-0.3,0.3-0.5,0.6-0.5H393c1.5,0,2.7,1.2,2.7,2.6v13.5C395.7,167.3,394.5,168.5,393,168.5z"/>
			<path class="st1" d="M393.8,174.8h-24.6c-2.1,0-3.9-1.7-3.9-3.7c0-2.1,1.7-3.7,3.9-3.7h23.4c0.3,0,0.6,0.2,0.6,0.5
				c0,0.3-0.3,0.5-0.6,0.5h-23.4c-1.5,0-2.7,1.2-2.7,2.7s1.2,2.7,2.7,2.7h24.6c0.3,0,0.6,0.2,0.6,0.5
				C394.4,174.6,394.1,174.8,393.8,174.8z"/>
			<path class="st1" d="M374,181.2c-2.1,0-3.9-1.7-3.9-3.7c0-0.8,0.3-1.6,0.8-2.3c0.2-0.2,0.5-0.3,0.8-0.1c0.2,0.2,0.3,0.5,0.1,0.8
				c-0.4,0.5-0.6,1-0.6,1.6c0,1.5,1.2,2.7,2.7,2.7c1.5,0,2.7-1.2,2.7-2.7c0-1.5-1.2-2.7-2.7-2.7c-0.3,0-0.6-0.2-0.6-0.5
				c0-0.3,0.3-0.5,0.6-0.5c2.1,0,3.9,1.7,3.9,3.7S376.1,181.2,374,181.2z"/>
			<path class="st1" d="M390.6,181.2c-2.1,0-3.9-1.7-3.9-3.7c0-0.6,0.2-1.3,0.5-1.8c0.2-0.3,0.5-0.4,0.8-0.2
				c0.3,0.1,0.4,0.5,0.2,0.7c-0.2,0.4-0.4,0.8-0.4,1.3c0,1.5,1.2,2.7,2.7,2.7c1.5,0,2.7-1.2,2.7-2.7c0-1.5-1.2-2.7-2.7-2.7
				c-0.3,0-0.6-0.2-0.6-0.5c0-0.3,0.3-0.5,0.6-0.5c2.1,0,3.9,1.7,3.9,3.7S392.7,181.2,390.6,181.2z"/>
		</g>
		<g>
			<path class="st1" d="M104.3,182.2c-0.5,0-1-0.3-1.3-0.7l-3.8-5.9h-9.5c-2,0-3.6-1.6-3.6-3.5v-16.5c0-1.9,1.6-3.5,3.6-3.5h29.2
				c2,0,3.6,1.6,3.6,3.5v16.5c0,1.9-1.6,3.5-3.6,3.5h-9.5l-3.8,5.9C105.3,182,104.8,182.2,104.3,182.2z M89.6,153.4
				c-1.3,0-2.3,1-2.3,2.2v16.5c0,1.2,1,2.2,2.3,2.2h9.9c0.2,0,0.4,0.1,0.6,0.3l4,6.2c0.1,0.1,0.1,0.1,0.2,0.1c0,0,0.1,0,0.2-0.1
				l4-6.2c0.1-0.2,0.3-0.3,0.6-0.3h9.9c1.3,0,2.3-1,2.3-2.2v-16.5c0-1.2-1-2.2-2.3-2.2H89.6z"/>
			<path class="st1" d="M86.7,162.3c-0.4,0-0.6-0.3-0.6-0.6v-16.5c0-1.9,1.6-3.5,3.6-3.5h25.8c2,0,3.6,1.6,3.6,3.5v3.7
				c0,0.3-0.3,0.6-0.6,0.6c-0.4,0-0.6-0.3-0.6-0.6v-3.7c0-1.2-1-2.2-2.3-2.2H89.6c-1.3,0-2.3,1-2.3,2.2v16.5
				C87.4,162,87.1,162.3,86.7,162.3z"/>
			<path class="st1" d="M106.3,157.6H91.4c-0.4,0-0.6-0.3-0.6-0.6s0.3-0.6,0.6-0.6h14.9c0.4,0,0.6,0.3,0.6,0.6
				S106.6,157.6,106.3,157.6z"/>
			<path class="st1" d="M109.7,162.2H91.5c-0.4,0-0.6-0.3-0.6-0.6c0-0.3,0.3-0.6,0.6-0.6h18.2c0.4,0,0.6,0.3,0.6,0.6
				C110.4,161.9,110.1,162.2,109.7,162.2z"/>
			<path class="st1" d="M113.3,166.8H91.6c-0.4,0-0.6-0.3-0.6-0.6c0-0.3,0.3-0.6,0.6-0.6h21.7c0.4,0,0.6,0.3,0.6,0.6
				C114,166.5,113.7,166.8,113.3,166.8z"/>
			<path class="st1" d="M116.2,171.4H91.8c-0.4,0-0.6-0.3-0.6-0.6c0-0.3,0.3-0.6,0.6-0.6h24.5c0.4,0,0.6,0.3,0.6,0.6
				C116.9,171.2,116.6,171.4,116.2,171.4z"/>
		</g>
	</g>
	<g>
		<g>
			<path class="st1" d="M750.9,408.5h-29.2c-0.2,0-0.4-0.2-0.4-0.4s0.2-0.4,0.4-0.4h29.2c0.2,0,0.4,0.2,0.4,0.4
				S751.2,408.5,750.9,408.5z"/>
			<path class="st1" d="M762.5,430.7h-41.2v-18.2c0-0.2,0.2-0.4,0.4-0.4s0.4,0.2,0.4,0.4v17.4h39.5v-26c0-0.2,0.2-0.4,0.4-0.4
				c0.2,0,0.4,0.2,0.4,0.4V430.7z"/>
			<path class="st1" d="M742.6,414.4h-15.1c-0.2,0-0.4-0.2-0.4-0.4s0.2-0.4,0.4-0.4h15.1c0.2,0,0.4,0.2,0.4,0.4
				S742.8,414.4,742.6,414.4z"/>
			<path class="st1" d="M742.6,419.3h-15.1c-0.2,0-0.4-0.2-0.4-0.4c0-0.2,0.2-0.4,0.4-0.4h15.1c0.2,0,0.4,0.2,0.4,0.4
				C743,419.1,742.8,419.3,742.6,419.3z"/>
			<path class="st1" d="M754.6,425.2h-9.7c-0.2,0-0.4-0.2-0.4-0.4s0.2-0.4,0.4-0.4h9.7c0.2,0,0.4,0.2,0.4,0.4
				S754.8,425.2,754.6,425.2z"/>
			<path class="st1" d="M749.6,421.4c-0.1,0-0.1,0-0.2,0c-0.2-0.1-0.3-0.3-0.2-0.6l1.1-2.4c0.1-0.2,0.4-0.3,0.6-0.2
				c0.2,0.1,0.3,0.3,0.2,0.6l-1.1,2.4C749.9,421.3,749.8,421.4,749.6,421.4z"/>
			<g>
				<path class="st1" d="M755.3,416.1l-5.9-2.5l0-0.3c1.3-8.7,5.2-16.7,11.2-23.3l0,0c0.6-0.6,1.9-0.9,2.8-0.5l0.1,0.1
					c0.1,0,0.2,0.1,0.2,0.1c0.9,0.4,1.6,1.4,1.6,2.3l0,0c-0.4,4.3-1.5,8.6-3.2,12.6c-1.7,4.1-3.9,7.8-6.7,11.2L755.3,416.1z
					 M750.3,413.1l4.7,1.9c5.4-6.7,8.7-14.7,9.5-23.1c0-0.6-0.5-1.2-1-1.5c-0.1,0-0.2-0.1-0.2-0.1l-0.1-0.1
					c-0.6-0.2-1.4-0.1-1.8,0.3C755.4,396.9,751.7,404.7,750.3,413.1z"/>
			</g>
			<path class="st1" d="M751.9,419.4l-2.8-1.2l0.6-4.5c0-0.2,0.2-0.4,0.5-0.4c0.2,0,0.4,0.2,0.4,0.5l-0.5,3.9l1.5,0.6l2.6-3
				c0.2-0.2,0.4-0.2,0.6-0.1c0.2,0.2,0.2,0.4,0.1,0.6L751.9,419.4z"/>
			<path class="st1" d="M749.7,400.5c-0.1,0-0.1,0-0.2,0c-0.2-0.1-0.3-0.3-0.2-0.6c2-4.7,5.4-9.1,5.4-9.2l0.2-0.3l3.9,1.9
				c0.2,0.1,0.3,0.4,0.2,0.6c-0.1,0.2-0.4,0.3-0.6,0.2l-3.2-1.6c-0.8,1-3.4,4.8-5.1,8.7C750.1,400.4,749.9,400.5,749.7,400.5z"/>
			<path class="st1" d="M762,403.9c-0.1,0-0.1,0-0.2,0l-4.6-1.9c-0.2-0.1-0.3-0.3-0.2-0.6c0.1-0.2,0.4-0.3,0.6-0.2l4.6,1.9
				c0.2,0.1,0.3,0.3,0.2,0.6C762.4,403.8,762.2,403.9,762,403.9z"/>
			<path class="st1" d="M754.6,427.2h-9.7c-0.2,0-0.4-0.2-0.4-0.4s0.2-0.4,0.4-0.4h9.7c0.2,0,0.4,0.2,0.4,0.4
				S754.8,427.2,754.6,427.2z"/>
		</g>
		<g>
			<path class="st1" d="M671.4,415.9h-20c-0.3,0-0.5-0.2-0.5-0.5c0-0.3,0.2-0.5,0.5-0.5h20c0.8,0,1.4-0.6,1.4-1.4v-15
				c0-0.3,0.2-0.5,0.5-0.5s0.5,0.2,0.5,0.5v15C673.8,414.9,672.7,415.9,671.4,415.9z"/>
			<path class="st1" d="M643,407.3c-0.3,0-0.5-0.2-0.5-0.5v-12.7c0-1.3,1.1-2.3,2.4-2.3h26.6c1.3,0,2.4,1,2.4,2.3
				c0,0.3-0.2,0.5-0.5,0.5s-0.5-0.2-0.5-0.5c0-0.8-0.6-1.4-1.4-1.4h-26.6c-0.8,0-1.4,0.6-1.4,1.4v12.7
				C643.4,407.1,643.2,407.3,643,407.3z"/>
			<g>
				<path class="st1" d="M641.9,428.1c-0.1,0-0.2,0-0.3-0.1c-0.2-0.2-0.2-0.5,0-0.6l6.2-6c3.1-3,4-7.3,2.2-10.5
					c-0.1-0.2,0-0.5,0.2-0.6c0.2-0.1,0.5,0,0.6,0.2c2,3.5,1,8.3-2.4,11.6l-6.2,6C642.2,428.1,642.1,428.1,641.9,428.1z"/>
				<path class="st1" d="M629.9,416.5c-0.1,0-0.2,0-0.3-0.1c-0.2-0.2-0.2-0.5,0-0.6l6.2-6c3.5-3.4,8.7-4.3,12.3-2.1
					c0.2,0.1,0.3,0.4,0.2,0.6c-0.1,0.2-0.4,0.3-0.6,0.2c-3.3-1.9-8-1.1-11.2,2l-6.2,6C630.2,416.5,630,416.5,629.9,416.5z"/>
				<path class="st1" d="M644.4,420.7c0,0-0.1,0-0.1,0c-0.2-0.1-4.5-1.5-7.1-6.8c-0.1-0.2,0-0.4,0.1-0.5l1.1-1c2.6-2.5,6.5-3,8.6-1
					c0,0,0,0,0,0c1.2,1.2,1.3,2.8,1.2,3.7c-0.1,1.6-1,3.3-2.3,4.6l-1.1,1C644.7,420.6,644.6,420.7,644.4,420.7z M638.2,413.7
					c2.1,4,5.2,5.6,6.2,6l0.8-0.8c1.2-1.1,1.9-2.6,2-4c0.1-0.7,0-2-1-3c0,0,0,0,0,0c-1.7-1.6-5-1.1-7.2,1L638.2,413.7z"/>
			</g>
			<g>
				<path class="st1" d="M664.7,407.3h-8.8c-0.2,0-0.4-0.2-0.5-0.4l-2.1-9.8h-2.8c-0.3,0-0.5-0.2-0.5-0.5s0.2-0.5,0.5-0.5h3.2
					c0.2,0,0.4,0.2,0.5,0.4l2.1,9.8h8.5c0.3,0,0.5,0.2,0.5,0.5S664.9,407.3,664.7,407.3z"/>
				<path class="st1" d="M660.4,404h-5.2c-0.3,0-0.5-0.2-0.5-0.5s0.2-0.5,0.5-0.5h5.2c0.3,0,0.5,0.2,0.5,0.5S660.7,404,660.4,404z"
					/>
				<path class="st1" d="M664,404c0,0-0.1,0-0.1,0c-0.2-0.1-0.4-0.3-0.3-0.6l1.3-3.7h-10.6c-0.3,0-0.5-0.2-0.5-0.5s0.2-0.5,0.5-0.5
					h11.3c0.2,0,0.3,0.1,0.4,0.2c0.1,0.1,0.1,0.3,0.1,0.4l-1.5,4.3C664.4,403.9,664.2,404,664,404z"/>
				<g>
					<g>
						<path class="st1" d="M656.7,411.5c-0.5,0-1-0.4-1-0.9c0-0.5,0.4-0.9,1-0.9c0.5,0,1,0.4,1,0.9
							C657.7,411,657.2,411.5,656.7,411.5z M656.7,410.5C656.7,410.5,656.7,410.5,656.7,410.5C656.7,410.5,656.7,410.5,656.7,410.5
							C656.7,410.5,656.7,410.5,656.7,410.5z"/>
					</g>
				</g>
				<g>
					<g>
						<path class="st1" d="M663.1,411.5c-0.5,0-1-0.4-1-0.9c0-0.5,0.4-0.9,1-0.9c0.5,0,1,0.4,1,0.9C664,411,663.6,411.5,663.1,411.5
							z M663.1,410.5C663.1,410.5,663.1,410.5,663.1,410.5C663.1,410.5,663.1,410.5,663.1,410.5
							C663.1,410.5,663.1,410.5,663.1,410.5z"/>
					</g>
				</g>
			</g>
		</g>
		<g>
			<path class="st1" d="M484.2,408.8c-0.3,0-0.5-0.2-0.5-0.5v-13.3c0-0.9-0.8-1.6-1.7-1.6h-29.1c-0.3,0-0.5-0.2-0.5-0.5
				s0.2-0.5,0.5-0.5H482c1.4,0,2.6,1.1,2.6,2.5v13.3C484.6,408.6,484.4,408.8,484.2,408.8z"/>
			<path class="st1" d="M472.5,421.6h-24.7c-1.4,0-2.6-1.1-2.6-2.5v-24c0-1.4,1.2-2.5,2.6-2.5c0.3,0,0.5,0.2,0.5,0.5
				s-0.2,0.5-0.5,0.5c-0.9,0-1.7,0.7-1.7,1.6v24c0,0.9,0.8,1.6,1.7,1.6h24.7c0.3,0,0.5,0.2,0.5,0.5S472.7,421.6,472.5,421.6z"/>
			<g>
				<path class="st1" d="M450.8,417.1c-0.3,0-0.5-0.2-0.5-0.5v-19.5c0-0.3,0.2-0.5,0.5-0.5s0.5,0.2,0.5,0.5v19.5
					C451.2,416.9,451,417.1,450.8,417.1z"/>
				<path class="st1" d="M455.5,417.1c-0.3,0-0.5-0.2-0.5-0.5v-19.5c0-0.3,0.2-0.5,0.5-0.5s0.5,0.2,0.5,0.5v19.5
					C455.9,416.9,455.7,417.1,455.5,417.1z"/>
				<path class="st1" d="M464.9,414.8c-0.3,0-0.5-0.2-0.5-0.5v-17.1c0-0.3,0.2-0.5,0.5-0.5c0.3,0,0.5,0.2,0.5,0.5v17.1
					C465.3,414.6,465.1,414.8,464.9,414.8z"/>
				<path class="st1" d="M460.2,417.1c-0.3,0-0.5-0.2-0.5-0.5v-19.6c0-0.3,0.2-0.5,0.5-0.5s0.5,0.2,0.5,0.5v19.6
					C460.6,416.9,460.4,417.1,460.2,417.1z"/>
				<path class="st1" d="M469.6,409.2c-0.3,0-0.5-0.2-0.5-0.5v-11.7c0-0.3,0.2-0.5,0.5-0.5s0.5,0.2,0.5,0.5v11.7
					C470,409,469.8,409.2,469.6,409.2z"/>
				<path class="st1" d="M474.3,406.1c-0.3,0-0.5-0.2-0.5-0.5v-8.6c0-0.3,0.2-0.5,0.5-0.5s0.5,0.2,0.5,0.5v8.6
					C474.7,405.9,474.5,406.1,474.3,406.1z"/>
				<path class="st1" d="M479,404.5c-0.3,0-0.5-0.2-0.5-0.5v-6.9c0-0.3,0.2-0.5,0.5-0.5s0.5,0.2,0.5,0.5v6.9
					C479.5,404.3,479.2,404.5,479,404.5z"/>
			</g>
			<path class="st1" d="M479.3,424.7c-5.1,0-9.3-4-9.3-9c0-5,4.2-9,9.3-9c1.8,0,3.5,0.5,4.9,1.4c0.2,0.1,0.3,0.4,0.1,0.6
				c-0.1,0.2-0.4,0.3-0.6,0.1c-1.3-0.8-2.9-1.2-4.4-1.2c-4.6,0-8.4,3.6-8.4,8.1c0,4.5,3.8,8.1,8.4,8.1c4.6,0,8.4-3.6,8.4-8.1
				c0-1.3-0.3-2.5-0.9-3.7c-0.1-0.2,0-0.5,0.2-0.6c0.2-0.1,0.5,0,0.6,0.2c0.7,1.3,1,2.7,1,4.1C488.7,420.7,484.5,424.7,479.3,424.7z
				"/>
			<path class="st1" d="M488.2,427.4c-0.1,0-0.3-0.1-0.4-0.2l-3.6-4.4c-0.2-0.2-0.1-0.5,0.1-0.6c0.2-0.2,0.5-0.1,0.7,0.1l3.6,4.4
				c0.2,0.2,0.1,0.5-0.1,0.6C488.4,427.4,488.3,427.4,488.2,427.4z"/>
			<path class="st1" d="M480.4,420.8c-0.3,0-0.5-0.2-0.5-0.5v-2.5h-4.5c-0.2,0-0.3-0.1-0.4-0.3c-0.1-0.2-0.1-0.3,0-0.5l4.9-6.2
				c0.1-0.2,0.3-0.2,0.5-0.2c0.2,0.1,0.3,0.2,0.3,0.4v5.7h2.4c0.3,0,0.5,0.2,0.5,0.5c0,0.3-0.2,0.5-0.5,0.5h-2.4v2.5
				C480.9,420.6,480.7,420.8,480.4,420.8z M476.4,417h3.5v-4.4L476.4,417z"/>
		</g>
		<g>
			<path class="st1" d="M564.8,398.7c-0.3,0-0.5-0.2-0.5-0.5v-6.9c0-1.3-1.1-2.3-2.4-2.3h-5.6c-1.3,0-2.4,1.1-2.4,2.3v6.9
				c0,0.3-0.2,0.5-0.5,0.5c-0.3,0-0.5-0.2-0.5-0.5v-6.9c0-1.8,1.5-3.3,3.4-3.3h5.6c1.9,0,3.4,1.5,3.4,3.3v6.9
				C565.2,398.5,565,398.7,564.8,398.7z"/>
			<path class="st1" d="M555.9,431.9C555.9,431.9,555.8,431.9,555.9,431.9c-8.8-1.5-15.1-8.8-15.1-17.4c0-9.7,8.2-17.6,18.2-17.6
				c10.1,0,18.2,7.9,18.2,17.6c0,8.1-5.7,15.1-13.8,17.1c-0.3,0.1-0.5-0.1-0.6-0.3c-0.1-0.2,0.1-0.5,0.3-0.6c7.7-1.9,13-8.5,13-16.2
				c0-9.2-7.8-16.7-17.3-16.7s-17.3,7.5-17.3,16.7c0,8.1,6,15,14.2,16.4c0.3,0,0.4,0.3,0.4,0.5C556.3,431.8,556.1,431.9,555.9,431.9
				z"/>
			<path class="st1" d="M559.1,427.2c-7.2,0-13.1-5.7-13.1-12.7c0-0.4,0-0.9,0.1-1.3c0-0.3,0.3-0.4,0.5-0.4c0.3,0,0.5,0.3,0.4,0.5
				c0,0.4-0.1,0.8-0.1,1.2c0,6.5,5.5,11.8,12.2,11.8s12.2-5.3,12.2-11.8c0-6.5-5.5-11.8-12.2-11.8c-4.2,0-8.2,2.2-10.4,5.7
				c-0.1,0.2-0.4,0.3-0.7,0.2c-0.2-0.1-0.3-0.4-0.2-0.6c1.1-1.8,2.8-3.4,4.7-4.5c2-1.1,4.3-1.7,6.6-1.7c7.2,0,13.1,5.7,13.1,12.7
				C572.2,421.6,566.3,427.2,559.1,427.2z"/>
			<path class="st1" d="M576.8,401.4c-0.1,0-0.3-0.1-0.4-0.2c-1.5-1.8-3.3-3.4-5.3-4.7c-0.2-0.1-0.3-0.4-0.1-0.6
				c0.1-0.2,0.4-0.3,0.7-0.1c2.1,1.3,4,3,5.6,4.9c0.2,0.2,0.1,0.5-0.1,0.6C577,401.4,576.9,401.4,576.8,401.4z"/>
			<path class="st1" d="M559.1,397.8c-0.3,0-0.5-0.2-0.5-0.5v-4.9c0-0.3,0.2-0.5,0.5-0.5s0.5,0.2,0.5,0.5v4.9
				C559.5,397.6,559.3,397.8,559.1,397.8z"/>
			<path class="st1" d="M555.4,413.7c-0.1,0-0.1,0-0.2,0l-7.8-2.8c-0.2-0.1-0.4-0.4-0.3-0.6c0.1-0.2,0.4-0.4,0.6-0.3l7.8,2.8
				c0.2,0.1,0.4,0.4,0.3,0.6C555.8,413.6,555.6,413.7,555.4,413.7z"/>
			<path class="st1" d="M565.6,417.4c-0.1,0-0.1,0-0.2,0l-2.9-1c-0.2-0.1-0.4-0.4-0.3-0.6c0.1-0.2,0.4-0.4,0.6-0.3l2.9,1
				c0.2,0.1,0.4,0.4,0.3,0.6C565.9,417.3,565.8,417.4,565.6,417.4z"/>
			<path class="st1" d="M559.1,418.7c-2.3,0-4.2-1.8-4.2-4.1c0-1.9,1.4-3.6,3.4-4c0.3-0.1,0.5,0.1,0.6,0.4c0.1,0.2-0.1,0.5-0.4,0.5
				c-1.5,0.3-2.6,1.6-2.6,3.1c0,1.8,1.5,3.2,3.3,3.2c1.8,0,3.3-1.4,3.3-3.2c0-0.7-0.3-1.5-0.8-2c-0.2-0.2-0.1-0.5,0.1-0.7
				c0.2-0.2,0.5-0.1,0.7,0.1c0.6,0.7,1,1.7,1,2.6C563.3,416.8,561.4,418.7,559.1,418.7z"/>
		</g>
		<g>
			<path class="st1" d="M304.8,421.1h-1.2c-0.3,0-0.6-0.3-0.6-0.6s0.3-0.6,0.6-0.6h1.2c0.4,0,0.8-0.3,0.8-0.8v-9.3
				c0-0.4-0.4-0.8-0.8-0.8h-5.7c-0.3,0-0.5-0.2-0.6-0.4l-3.7-15.3c-0.1-0.3-0.4-0.6-0.8-0.6h-18.7c-0.3,0-0.6-0.3-0.6-0.6
				c0-0.3,0.3-0.6,0.6-0.6h18.7c0.9,0,1.7,0.6,1.9,1.5l3.6,14.9h5.2c1.1,0,2,0.9,2,1.9v9.3C306.8,420.2,305.9,421.1,304.8,421.1z"/>
			<path class="st1" d="M285,421.1h-19.7c-0.6,0-1.2-0.3-1.5-0.7c-0.4-0.4-0.5-1-0.4-1.6l5.4-25.7c0.2-0.9,1-1.5,1.9-1.5
				c0.3,0,0.6,0.3,0.6,0.6c0,0.3-0.3,0.6-0.6,0.6c-0.4,0-0.7,0.3-0.8,0.6l-5.4,25.7c0,0.2,0,0.4,0.2,0.6c0.1,0.2,0.4,0.3,0.6,0.3
				H285c0.3,0,0.6,0.3,0.6,0.6S285.3,421.1,285,421.1z"/>
			<path class="st1" d="M292.6,428.4c-4.5,0-8.2-3.6-8.2-7.9s3.7-7.9,8.2-7.9s8.2,3.6,8.2,7.9S297.1,428.4,292.6,428.4z
				 M292.6,413.7c-3.9,0-7,3-7,6.8c0,3.7,3.1,6.8,7,6.8s7-3,7-6.8C299.6,416.7,296.5,413.7,292.6,413.7z"/>
			<path class="st1" d="M285,397.2h-8.8c-0.3,0-0.6-0.3-0.6-0.6c0-0.3,0.3-0.6,0.6-0.6h8.8c0.3,0,0.6,0.3,0.6,0.6
				C285.6,397,285.3,397.2,285,397.2z"/>
			<path class="st1" d="M282.4,403h-8.8c-0.3,0-0.6-0.3-0.6-0.6s0.3-0.6,0.6-0.6h8.8c0.3,0,0.6,0.3,0.6,0.6S282.7,403,282.4,403z"/>
			<path class="st1" d="M279.8,408.8H271c-0.3,0-0.6-0.3-0.6-0.6c0-0.3,0.3-0.6,0.6-0.6h8.8c0.3,0,0.6,0.3,0.6,0.6
				C280.4,408.6,280.1,408.8,279.8,408.8z"/>
			<path class="st1" d="M277.2,414.7h-8.8c-0.3,0-0.6-0.3-0.6-0.6c0-0.3,0.3-0.6,0.6-0.6h8.8c0.3,0,0.6,0.3,0.6,0.6
				C277.8,414.4,277.5,414.7,277.2,414.7z"/>
			<path class="st1" d="M293.8,405.6h-3.4c-0.3,0-0.6-0.3-0.6-0.6c0-0.3,0.3-0.6,0.6-0.6h2.8v-4.5c0-1.4-1.2-2.6-2.7-2.6h-0.2
				c-1.5,0-2.7,1.2-2.7,2.6v5.1c0,0.3-0.3,0.6-0.6,0.6c-0.3,0-0.6-0.3-0.6-0.6v-5.1c0-2.1,1.7-3.8,3.9-3.8h0.2
				c2.2,0,3.9,1.7,3.9,3.8v5.1C294.4,405.3,294.1,405.6,293.8,405.6z"/>
		</g>
		<g>
			<path class="st1" d="M199.3,401h-14c-0.3,0-0.6-0.2-0.6-0.5s0.3-0.5,0.6-0.5h14c0.3,0,0.6,0.2,0.6,0.5S199.6,401,199.3,401z"/>
			<path class="st1" d="M213.3,420.4h-23.7c-0.3,0-0.5-0.2-0.5-0.4l-5.9-26.7h-9.3c-0.3,0-0.6-0.2-0.6-0.5s0.3-0.5,0.6-0.5h9.7
				c0.3,0,0.5,0.2,0.5,0.4l5.9,26.7h23.3c1,0,1.8-0.8,1.8-1.7v-14.9c0-0.9-0.8-1.7-1.8-1.7h-5c-0.3,0-0.6-0.2-0.6-0.5
				s0.3-0.5,0.6-0.5h5c1.6,0,2.9,1.2,2.9,2.8v14.9C216.2,419.1,214.9,420.4,213.3,420.4z"/>
			<path class="st1" d="M214.2,427.4h-27c-2.3,0-4.2-1.8-4.2-4.1s1.9-4.1,4.2-4.1h25.7c0.3,0,0.6,0.2,0.6,0.5s-0.3,0.5-0.6,0.5
				h-25.7c-1.7,0-3.1,1.3-3.1,3c0,1.6,1.4,3,3.1,3h27c0.3,0,0.6,0.2,0.6,0.5S214.5,427.4,214.2,427.4z"/>
			<path class="st1" d="M192.4,434.4c-2.3,0-4.2-1.8-4.2-4.1s1.9-4.1,4.2-4.1c2.3,0,4.2,1.8,4.2,4.1S194.7,434.4,192.4,434.4z
				 M192.4,427.4c-1.7,0-3.1,1.3-3.1,3c0,1.6,1.4,3,3.1,3c1.7,0,3.1-1.3,3.1-3C195.5,428.7,194.1,427.4,192.4,427.4z"/>
			<path class="st1" d="M210.7,434.4c-2.3,0-4.2-1.8-4.2-4.1s1.9-4.1,4.2-4.1s4.2,1.8,4.2,4.1S213,434.4,210.7,434.4z M210.7,427.4
				c-1.7,0-3.1,1.3-3.1,3c0,1.6,1.4,3,3.1,3s3.1-1.3,3.1-3C213.7,428.7,212.4,427.4,210.7,427.4z"/>
			<path class="st1" d="M211.3,416.5h-18.8c-0.3,0-0.6-0.2-0.6-0.5s0.3-0.5,0.6-0.5h18.8c0.3,0,0.6,0.2,0.6,0.5
				S211.6,416.5,211.3,416.5z"/>
			<path class="st1" d="M202,409.3c-1.7,0-3.2-1.4-3.2-3.1v-9.3h-4.6c-0.2,0-0.4-0.1-0.5-0.3c-0.1-0.2-0.1-0.4,0-0.6l7.8-10.3
				c0.1-0.1,0.3-0.2,0.5-0.2c0.2,0,0.3,0.1,0.5,0.2l7.8,10.3c0.2,0.2,0.1,0.6-0.1,0.8c-0.2,0.2-0.6,0.1-0.8-0.1L202,387l-6.7,8.8
				h4.1c0.3,0,0.6,0.2,0.6,0.5v9.9c0,1.1,0.9,2,2.1,2c1.1,0,2.1-0.9,2.1-2v-9.9c0-0.3,0.3-0.5,0.6-0.5h2.9c0.3,0,0.6,0.2,0.6,0.5
				s-0.3,0.5-0.6,0.5h-2.3v9.3C205.2,407.9,203.7,409.3,202,409.3z"/>
		</g>
		<g>
			<path class="st1" d="M360.5,431.3c-0.1,0-0.1,0-0.2,0c-0.2-0.1-0.4-0.3-0.4-0.5v-41.6c0-0.3,0.3-0.6,0.6-0.6h30.7
				c0.3,0,0.6,0.3,0.6,0.6v41.6c0,0.3-0.3,0.6-0.6,0.6s-0.6-0.3-0.6-0.6v-41h-29.5v39.6l14.3-14.5c0.2-0.2,0.6-0.2,0.8,0l11.9,12
				c0.2,0.2,0.2,0.6,0,0.8c-0.2,0.2-0.6,0.2-0.8,0l-11.5-11.6l-14.9,15.1C360.8,431.3,360.7,431.3,360.5,431.3z"/>
			<g>
				<path class="st1" d="M375.8,411.8c-0.1,0-0.3-0.1-0.4-0.2l-6.4-6.2c-2-1.9-2-5.1,0-7c1-0.9,2.2-1.4,3.6-1.4
					c0.3,0,0.6,0.3,0.6,0.6c0,0.3-0.3,0.6-0.6,0.6c-1.1,0-2.1,0.4-2.8,1.1c-1.5,1.5-1.5,3.9,0,5.4l6.4,6.2c0.2,0.2,0.2,0.6,0,0.8
					C376.1,411.7,376,411.8,375.8,411.8z"/>
				<path class="st1" d="M375.8,411.8c-0.1,0-0.3-0.1-0.4-0.2l-6.4-6.2c-0.2-0.2-0.2-0.6,0-0.8c0.2-0.2,0.6-0.2,0.8,0l6,5.8l6-5.8
					c1.5-1.5,1.5-3.9,0-5.4c-0.7-0.7-1.7-1.1-2.8-1.1c-1.1,0-2.1,0.4-2.8,1.1c-0.2,0.2-0.6,0.2-0.8,0c-0.2-0.2-0.2-0.6,0-0.8
					c1-0.9,2.2-1.4,3.6-1.4c1.4,0,2.7,0.5,3.6,1.4c2,1.9,2,5.1,0,7l-6.4,6.2C376.1,411.7,376,411.8,375.8,411.8z"/>
			</g>
			<g>
				<path class="st1" d="M370.7,392.5h-5.6c-0.3,0-0.6-0.3-0.6-0.6c0-0.3,0.3-0.6,0.6-0.6h5.6c0.3,0,0.6,0.3,0.6,0.6
					C371.3,392.3,371,392.5,370.7,392.5z"/>
				<path class="st1" d="M386.5,392.5h-5.6c-0.3,0-0.6-0.3-0.6-0.6c0-0.3,0.3-0.6,0.6-0.6h5.6c0.3,0,0.6,0.3,0.6,0.6
					C387.1,392.3,386.9,392.5,386.5,392.5z"/>
			</g>
		</g>
		<g>
			<path class="st1" d="M117.8,428.4h-23c-0.4,0-0.7-0.3-0.7-0.7s0.3-0.7,0.7-0.7h23c2.1,0,3.9-1.7,3.9-3.8v-26.6
				c0-2.1-1.7-3.8-3.9-3.8H90.2c-2.1,0-3.9,1.7-3.9,3.8v26.6c0,1.5,0.9,2.9,2.4,3.5c0.4,0.1,0.5,0.5,0.4,0.9
				c-0.2,0.3-0.6,0.5-0.9,0.4c-2-0.8-3.2-2.7-3.2-4.7v-26.6c0-2.8,2.4-5.1,5.3-5.1h27.5c2.9,0,5.3,2.3,5.3,5.1v26.6
				C123.1,426.1,120.7,428.4,117.8,428.4z"/>
			<g>
				<path class="st1" d="M92.3,402.3l-1.1,3.1h-1.4l3.5-9.8h1.6l3.5,9.8H97l-1.1-3.1H92.3z M95.6,401.3l-1-2.8
					c-0.2-0.6-0.4-1.2-0.5-1.8h0c-0.2,0.6-0.3,1.2-0.5,1.8l-1,2.8H95.6z"/>
			</g>
			<g>
				<path class="st1" d="M110.5,423.1l5-7.1v0h-4.6v-0.9h6.1v0.7l-5,7.1v0h5.1v0.9h-6.6V423.1z"/>
			</g>
			<path class="st1" d="M93.1,421.2c-0.2,0-0.4-0.1-0.5-0.2c-0.3-0.3-0.3-0.7,0-1l21.7-21c0.3-0.3,0.7-0.3,1,0c0.3,0.3,0.3,0.7,0,1
				l-21.7,21C93.5,421.1,93.3,421.2,93.1,421.2z"/>
			<g>
				<path class="st1" d="M114.9,400.1h-6.8c-0.4,0-0.7-0.3-0.7-0.7c0-0.4,0.3-0.7,0.7-0.7h6.8c0.4,0,0.7,0.3,0.7,0.7
					C115.6,399.8,115.3,400.1,114.9,400.1z"/>
				<path class="st1" d="M115,406.8c-0.4,0-0.7-0.3-0.7-0.7v-6.6c0-0.4,0.3-0.7,0.7-0.7c0.4,0,0.7,0.3,0.7,0.7v6.6
					C115.7,406.5,115.4,406.8,115,406.8z"/>
			</g>
			<g>
				<path class="st1" d="M100,421.3h-6.8c-0.4,0-0.7-0.3-0.7-0.7c0-0.4,0.3-0.7,0.7-0.7h6.8c0.4,0,0.7,0.3,0.7,0.7
					C100.7,421,100.4,421.3,100,421.3z"/>
				<path class="st1" d="M93.1,421.2c-0.4,0-0.7-0.3-0.7-0.7v-6.6c0-0.4,0.3-0.7,0.7-0.7c0.4,0,0.7,0.3,0.7,0.7v6.6
					C93.8,420.9,93.5,421.2,93.1,421.2z"/>
			</g>
		</g>
	</g>
	<g>
		<g>
			<g>
				<path class="st1" d="M658.8,85.6h-13c-0.2,0-0.4-0.2-0.5-0.4l-2.9-13.4h-5c-0.3,0-0.5-0.2-0.5-0.5c0-0.3,0.2-0.5,0.5-0.5h5.4
					c0.2,0,0.4,0.2,0.5,0.4l2.9,13.4h12.6c0.3,0,0.5,0.2,0.5,0.5C659.3,85.4,659.1,85.6,658.8,85.6z"/>
				<path class="st1" d="M658,81.1h-13c-0.3,0-0.5-0.2-0.5-0.5c0-0.3,0.2-0.5,0.5-0.5h12.6l0.7-2.1c0.1-0.2,0.3-0.4,0.6-0.3
					c0.2,0.1,0.4,0.3,0.3,0.6l-0.8,2.4C658.4,81,658.2,81.1,658,81.1z"/>
				<path class="st1" d="M660,75.2h-16.4c-0.3,0-0.5-0.2-0.5-0.5c0-0.3,0.2-0.5,0.5-0.5H660c0.3,0,0.5,0.2,0.5,0.5
					C660.4,75,660.2,75.2,660,75.2z"/>
				<g>
					<g>
						<path class="st1" d="M647.3,89.4c-0.6,0-1-0.5-1-1c0-0.6,0.5-1,1-1c0.6,0,1,0.5,1,1C648.3,88.9,647.8,89.4,647.3,89.4z
							 M647.3,88.3c-0.1,0-0.1,0-0.1,0.1c0,0.1,0,0.1,0.1,0.1c0.1,0,0.1,0,0.1-0.1C647.4,88.3,647.3,88.3,647.3,88.3z"/>
					</g>
				</g>
				<g>
					<g>
						<path class="st1" d="M655.9,89.4c-0.6,0-1-0.5-1-1c0-0.6,0.5-1,1-1c0.6,0,1,0.5,1,1C657,88.9,656.5,89.4,655.9,89.4z
							 M655.9,88.3c-0.1,0-0.1,0-0.1,0.1c0,0.1,0,0.1,0.1,0.1c0.1,0,0.1,0,0.1-0.1C656,88.3,656,88.3,655.9,88.3z"/>
					</g>
				</g>
			</g>
			<g>
				<path class="st1" d="M666.1,95.7h-38.8c-1.4,0-2.5-1.1-2.5-2.5V67c0-1.4,1.1-2.5,2.5-2.5h31.4c0.3,0,0.5,0.2,0.5,0.5
					c0,0.3-0.2,0.5-0.5,0.5h-31.4c-0.9,0-1.6,0.7-1.6,1.5v26.3c0,0.9,0.7,1.5,1.6,1.5h38.8c0.9,0,1.6-0.7,1.6-1.5V67
					c0-0.9-0.7-1.5-1.6-1.5c-0.3,0-0.5-0.2-0.5-0.5c0-0.3,0.2-0.5,0.5-0.5c1.4,0,2.5,1.1,2.5,2.5v26.3
					C668.7,94.6,667.5,95.7,666.1,95.7z"/>
				<path class="st1" d="M633.4,91.3c-0.3,0-0.5-0.2-0.5-0.5V65.2c0-0.3,0.2-0.5,0.5-0.5s0.5,0.2,0.5,0.5v25.7
					C633.9,91.1,633.7,91.3,633.4,91.3z"/>
				<path class="st1" d="M629.4,82.1c-0.3,0-0.5-0.2-0.5-0.5v-3c0-0.3,0.2-0.5,0.5-0.5s0.5,0.2,0.5,0.5v3
					C629.9,81.9,629.7,82.1,629.4,82.1z"/>
			</g>
		</g>
		<g>
			<path class="st1" d="M460.6,98.4c-0.1,0-3.2,0-6.4-2.6c-1.8-1.5-3.3-3.6-4.4-6.2c-1.3-3.2-2-7.2-2.1-11.8c0-0.2,0.1-0.3,0.2-0.4
				c0.1-0.1,0.3-0.2,0.5-0.1c0,0,2.9,0.4,6-0.4c4.2-1,6.8-3.5,8-7.5c0.1-0.2,0.2-0.4,0.4-0.4c0.2,0,0.4,0,0.6,0.2
				c0,0,2.2,2.6,5.3,4.2c0.3,0.1,0.4,0.5,0.2,0.8c-0.2,0.3-0.5,0.4-0.8,0.2c-2.2-1.2-4-2.8-4.9-3.7c-1.4,3.8-4.4,6.3-8.6,7.3
				c-2.5,0.6-4.7,0.6-5.8,0.5c0.3,9.7,3.5,14.3,6.1,16.5c2.7,2.2,5.3,2.4,5.6,2.4c5.9-0.7,9.7-4.6,11.2-11.6
				c1.2-5.3,0.5-10.4,0.5-10.5c0-0.3,0.2-0.6,0.5-0.6c0.3,0,0.6,0.2,0.7,0.5c0,0.2,0.7,5.4-0.5,10.8
				C471.4,93.3,467.1,97.6,460.6,98.4C460.7,98.4,460.7,98.4,460.6,98.4z"/>
			<path class="st1" d="M477.5,94.9c-2.6,0-5.1-1.8-6.9-3.4c-0.2-0.2-0.3-0.6,0-0.8c0.2-0.2,0.6-0.3,0.8,0c2.2,1.9,5.5,4.3,8.4,2.4
				c0,0,0.2-0.1,0.3-0.2c0.1-0.1,0.2-0.1,0.3-0.2c-0.5-0.4-1-1-1.4-1.6c-1.7-2.8-1.2-6.2-0.8-9.1c0-0.2,0.1-0.4,0.1-0.6
				c0.6-4.4-0.2-8.6-2.3-11.7c-1.8-2.6-4.6-4.6-8-5.6c-3.1-0.9-6.7-1.2-10.7-0.8c-6.5,0.6-12.1,5.1-13.6,10.9
				c-0.4,1.6-0.6,3.4-0.4,5.1c0.1,1.1,0.3,2.2,0.6,3.3c0.5,2.1,1,4.4,0.2,6.6c-0.1,0.3-0.4,0.5-0.7,0.4c-0.3-0.1-0.5-0.4-0.4-0.7
				c0.7-2,0.2-4-0.3-6.1c-0.3-1.1-0.5-2.3-0.6-3.5c-0.1-1.8,0-3.7,0.5-5.4c0.8-3.2,2.7-6,5.4-8.1c2.6-2,5.9-3.3,9.2-3.7
				c4.1-0.4,7.9-0.1,11.1,0.8c3.6,1,6.6,3.2,8.6,6.1c2.3,3.4,3.2,7.8,2.5,12.5c0,0.2-0.1,0.4-0.1,0.6c-0.4,2.9-0.9,5.9,0.6,8.4
				c0.4,0.7,1,1.3,1.7,1.7c0,0,0,0,0,0c0.3,0.2,0.4,0.5,0.2,0.8c-0.1,0.1-0.2,0.2-0.3,0.2c-0.2,0.1-0.6,0.4-0.8,0.6
				c-0.2,0.2-0.3,0.2-0.4,0.3C479.5,94.6,478.5,94.9,477.5,94.9z"/>
			<path class="st1" d="M444.9,94.6c-1.7,0-3.2-0.5-4.6-1.5c-0.3-0.2-0.3-0.5-0.1-0.8c0.2-0.2,0.6-0.3,0.8-0.1
				c1.9,1.4,4.1,1.7,6.6,0.8c1.9-0.7,3.3-1.8,3.3-1.8c0.2-0.2,0.6-0.2,0.8,0.1c0.2,0.2,0.2,0.6-0.1,0.8c-0.1,0.1-1.5,1.3-3.6,2
				C447,94.4,445.9,94.6,444.9,94.6z"/>
			<g>
				<ellipse class="st1" cx="455.3" cy="81.7" rx="1.3" ry="1.3"/>
				<ellipse class="st1" cx="466.2" cy="81.7" rx="1.3" ry="1.3"/>
			</g>
			<path class="st1" d="M463.2,93.3h-5c-0.8,0-1.4-0.6-1.4-1.3v-2.1c0-0.7,0.6-1.3,1.4-1.3h5c0.8,0,1.4,0.6,1.4,1.3V92
				C464.6,92.7,464,93.3,463.2,93.3z M458.2,89.7c-0.1,0-0.2,0.1-0.2,0.2V92c0,0.1,0.1,0.2,0.2,0.2h5c0.1,0,0.2-0.1,0.2-0.2v-2.1
				c0-0.1-0.1-0.2-0.2-0.2H458.2z"/>
			<path class="st1" d="M464.4,91.5c-0.3,0-0.5-0.2-0.6-0.5c0-0.3,0.2-0.6,0.5-0.6c5.8-0.6,10.1-4.8,9.6-9.4c0-0.3,0.2-0.6,0.5-0.6
				c0.3,0,0.6,0.2,0.6,0.5C475.7,86.1,470.9,90.8,464.4,91.5C464.5,91.5,464.4,91.5,464.4,91.5z"/>
		</g>
		<g>
			<path class="st1" d="M565.6,92.4h-21c-2.2,0-4.1-1.8-4.1-3.9c0-2.2,1.8-3.9,4-3.9l20.9-2.9c0.2,0,0.5,0.1,0.5,0.4
				c0,0.2-0.1,0.4-0.4,0.5l-21,2.9c0,0,0,0-0.1,0c-1.8,0-3.2,1.4-3.2,3.1c0,1.7,1.4,3.1,3.2,3.1h21c0.2,0,0.4,0.2,0.4,0.4
				C566.1,92.2,565.9,92.4,565.6,92.4z"/>
			<path class="st1" d="M565.7,82.4c0,0-0.1,0-0.1,0c-0.2-0.1-0.4-0.3-0.3-0.5l5-15.4c0.1-0.2,0.3-0.3,0.5-0.3
				c0.2,0.1,0.4,0.3,0.3,0.5l-5,15.4C566.1,82.3,565.9,82.4,565.7,82.4z"/>
			<path class="st1" d="M566.4,67h-30c-0.2,0-0.4-0.2-0.4-0.4c0-0.2,0.2-0.4,0.4-0.4h30c0.2,0,0.4,0.2,0.4,0.4
				C566.9,66.8,566.7,67,566.4,67z"/>
			<path class="st1" d="M543.6,85.4c-0.2,0-0.3-0.1-0.4-0.3l-9-23.2c-0.1-0.2,0-0.5,0.3-0.5c0.2-0.1,0.5,0,0.6,0.2l9,23.2
				c0.1,0.2,0,0.5-0.3,0.5C543.7,85.4,543.6,85.4,543.6,85.4z"/>
			<path class="st1" d="M534.5,62.2h-5.7c-0.2,0-0.4-0.2-0.4-0.4s0.2-0.4,0.4-0.4h5.7c0.2,0,0.4,0.2,0.4,0.4S534.8,62.2,534.5,62.2z
				"/>
			<path class="st1" d="M558.4,75.1h-18.6c-0.2,0-0.4-0.2-0.4-0.4s0.2-0.4,0.4-0.4h18.6c0.2,0,0.4,0.2,0.4,0.4
				S558.7,75.1,558.4,75.1z"/>
			<path class="st1" d="M568.1,75.1h-6.2c-0.2,0-0.4-0.2-0.4-0.4s0.2-0.4,0.4-0.4h6.2c0.2,0,0.4,0.2,0.4,0.4S568.3,75.1,568.1,75.1z
				"/>
			<path class="st1" d="M548.9,81.7c-0.2,0-0.4-0.1-0.4-0.3L545,66.7c-0.1-0.2,0.1-0.5,0.3-0.5c0.2-0.1,0.5,0.1,0.5,0.3l3.5,14.7
				C549.4,81.4,549.2,81.6,548.9,81.7C549,81.7,548.9,81.7,548.9,81.7z"/>
			<path class="st1" d="M555.4,83.7c-0.2,0-0.4-0.2-0.4-0.4l-1.5-16.7c0-0.2,0.2-0.4,0.4-0.5c0.2,0,0.5,0.2,0.5,0.4l1.5,16.7
				C555.8,83.4,555.6,83.6,555.4,83.7C555.4,83.7,555.4,83.7,555.4,83.7z"/>
			<path class="st1" d="M560.9,83C560.9,83,560.9,83,560.9,83c-0.3,0-0.5-0.2-0.4-0.5l0.9-8c0-0.2,0.2-0.4,0.5-0.4
				c0.2,0,0.4,0.2,0.4,0.5l-0.9,8C561.3,82.9,561.1,83,560.9,83z"/>
			<path class="st1" d="M561.9,75C561.8,75,561.8,75,561.9,75c-0.3,0-0.5-0.2-0.4-0.5l0.9-8c0-0.2,0.2-0.4,0.5-0.4
				c0.2,0,0.4,0.2,0.4,0.5l-0.9,8C562.3,74.8,562.1,75,561.9,75z"/>
			<g>
				<path class="st1" d="M545.5,98.9c-1.4,0-2.6-1.1-2.6-2.5c0-1.4,1.1-2.5,2.6-2.5c1.4,0,2.6,1.1,2.6,2.5
					C548.1,97.8,546.9,98.9,545.5,98.9z M545.5,94.8c-0.9,0-1.7,0.7-1.7,1.6s0.8,1.6,1.7,1.6c0.9,0,1.7-0.7,1.7-1.6
					S546.4,94.8,545.5,94.8z"/>
				<path class="st1" d="M561.2,98.9c-1.4,0-2.6-1.1-2.6-2.5c0-1.4,1.1-2.5,2.6-2.5c1.4,0,2.6,1.1,2.6,2.5
					C563.7,97.8,562.6,98.9,561.2,98.9z M561.2,94.8c-0.9,0-1.7,0.7-1.7,1.6s0.8,1.6,1.7,1.6c0.9,0,1.7-0.7,1.7-1.6
					S562.1,94.8,561.2,94.8z"/>
			</g>
		</g>
		<g>
			<path class="st1" d="M716.6,81.2c-0.2,0-0.4-0.1-0.4-0.3l-1-6.7c0,0,0,0,0-0.1c0-0.5,0.2-1,0.7-1.4c0.4-0.4,1-0.5,1.5-0.4
				l5.1,0.5c0.5,0,0.9-0.1,1.2-0.5c1.5-1.7,3.5-3.1,5.8-4.1l-1.7-4.5c0-0.1,0-0.3,0.1-0.4c0.1-0.1,0.2-0.2,0.3-0.2
				c0.2,0,4.2,0,6.4,3.6c2.1-0.3,4.2-0.3,6.3,0c0.2,0,0.4,0.2,0.4,0.5c0,0.2-0.2,0.4-0.5,0.3c-2.1-0.3-4.3-0.3-6.3,0.1
				c-0.2,0-0.4-0.1-0.4-0.2c-1.5-2.6-4.1-3.2-5.2-3.4l1.6,4.3c0.1,0.2,0,0.4-0.2,0.5c-2.3,1-4.3,2.4-5.8,4c-0.5,0.5-1.2,0.8-2,0.7
				l-5.1-0.5c-0.3,0-0.6,0.1-0.9,0.3c-0.2,0.2-0.4,0.5-0.4,0.8l1,6.7C717,80.9,716.9,81.1,716.6,81.2
				C716.6,81.2,716.6,81.2,716.6,81.2z"/>
			<path class="st1" d="M744.2,100.5h-2.3c-1.1,0-2-0.9-2-1.9v-4.1c-1.4,0.1-2.8,0.1-4.2,0v4.1c0,1.1-0.9,1.9-2,1.9h-2.3
				c-1.1,0-2-0.9-2-1.9v-5.7c-4.2-1.8-7.3-4.9-8.5-8.6h-3.9c-0.2,0-0.4-0.2-0.4-0.4c0-0.2,0.2-0.4,0.4-0.4h4.2
				c0.2,0,0.3,0.1,0.4,0.3c1.1,3.6,4.2,6.7,8.4,8.5c0.2,0.1,0.3,0.2,0.3,0.4v5.9c0,0.6,0.5,1.1,1.2,1.1h2.3c0.6,0,1.2-0.5,1.2-1.1
				V94c0-0.1,0.1-0.2,0.1-0.3c0.1-0.1,0.2-0.1,0.3-0.1c1.6,0.2,3.3,0.2,4.9,0c0.1,0,0.2,0,0.3,0.1c0.1,0.1,0.1,0.2,0.1,0.3v4.5
				c0,0.6,0.5,1.1,1.2,1.1h2.3c0.6,0,1.2-0.5,1.2-1.1v-3c0-0.2,0.2-0.4,0.4-0.4s0.4,0.2,0.4,0.4v3
				C746.2,99.6,745.3,100.5,744.2,100.5z"/>
			<path class="st1" d="M745.8,93c-0.2,0-0.3-0.1-0.4-0.2c-0.1-0.2,0-0.4,0.2-0.5c5.5-2.3,8.9-6.8,8.9-11.7c0-1.8-0.5-3.6-1.4-5.3
				c-1.3-2.5-3.6-4.5-6.4-5.9c-0.2-0.1-0.3-0.3-0.2-0.5c0.1-0.2,0.4-0.3,0.6-0.2c3,1.5,5.4,3.7,6.8,6.3c1,1.8,1.5,3.7,1.5,5.7
				c0,5.2-3.6,10-9.4,12.5C745.9,93,745.8,93,745.8,93z"/>
			<path class="st1" d="M744.8,69.8c-2.8,0-5.1-2.2-5.1-5c0-2.7,2.3-5,5.1-5s5.1,2.2,5.1,5c0,0.8-0.2,1.5-0.6,2.2
				c-0.1,0.2-0.4,0.3-0.6,0.2c-0.2-0.1-0.3-0.3-0.2-0.5c0.3-0.6,0.5-1.2,0.5-1.9c0-2.3-1.9-4.2-4.3-4.2s-4.3,1.9-4.3,4.2
				c0,2.3,1.9,4.2,4.3,4.2c0.6,0,1.3-0.1,1.8-0.4c0.2-0.1,0.5,0,0.6,0.2c0.1,0.2,0,0.4-0.2,0.5C746.4,69.6,745.6,69.8,744.8,69.8z"
				/>
			<path class="st1" d="M753.5,75.4c-0.2,0-0.3-0.1-0.4-0.2c-0.1-0.2,0-0.4,0.2-0.5l8.8-4.1c0.2-0.1,0.5,0,0.6,0.2
				c0.1,0.2,0,0.4-0.2,0.5l-8.8,4.1C753.6,75.4,753.5,75.4,753.5,75.4z"/>
			<path class="st1" d="M744.8,72.7c-0.1,0-0.1,0-0.2,0c-1.6-0.7-3.4-1.1-5.3-1.1c-1.4,0-2.8,0.2-4,0.6c-0.2,0.1-0.5,0-0.5-0.3
				c-0.1-0.2,0-0.4,0.3-0.5c1.3-0.4,2.8-0.6,4.3-0.6c2,0,4,0.4,5.7,1.2c0.2,0.1,0.3,0.3,0.2,0.5C745.2,72.6,745,72.7,744.8,72.7z"/>
			<ellipse class="st1" cx="727.5" cy="74.2" rx="0.9" ry="0.8"/>
		</g>
		<g>
			<path class="st1" d="M105.2,101.7H83.3c-1,0-2-0.3-2.7-1c-0.3-0.2-0.3-0.7-0.1-1c0.3-0.3,0.7-0.3,1-0.1c0.5,0.4,1.1,0.6,1.8,0.6
				h21.9c1.5,0,2.7-1.2,2.7-2.6V62.6c0-1.5-1.2-2.6-2.7-2.6H83.3c-1.5,0-2.7,1.2-2.7,2.6V95c0,0.4-0.3,0.7-0.7,0.7
				c-0.4,0-0.7-0.3-0.7-0.7V62.6c0-2.2,1.9-4,4.1-4h21.9c2.3,0,4.1,1.8,4.1,4v35.1C109.3,99.9,107.5,101.7,105.2,101.7z"/>
			<path class="st1" d="M99.6,64.9H88.9c-1.4,0-2.6-1.1-2.6-2.5v-3.1c0-0.4,0.3-0.7,0.7-0.7c0.4,0,0.7,0.3,0.7,0.7v3.1
				c0,0.6,0.5,1.1,1.2,1.1h10.7c0.7,0,1.2-0.5,1.2-1.1c0-0.4,0.3-0.7,0.7-0.7c0.4,0,0.7,0.3,0.7,0.7C102.2,63.7,101,64.9,99.6,64.9z
				"/>
			<g>
				<path class="st1" d="M93.5,87.1v-1.8c-1.1,0-2.2-0.3-2.9-0.8l0.5-1.2c0.7,0.4,1.7,0.8,2.7,0.8c1.3,0,2.2-0.7,2.2-1.8
					c0-1-0.7-1.6-2.1-2.2c-1.9-0.7-3.1-1.6-3.1-3.1c0-1.5,1.1-2.7,2.8-2.9v-1.8h1.2v1.8c1.1,0,1.9,0.3,2.4,0.6l-0.5,1.2
					c-0.4-0.2-1.2-0.6-2.4-0.6c-1.4,0-2,0.8-2,1.6c0,0.9,0.7,1.4,2.3,2.1c1.9,0.8,2.9,1.7,2.9,3.3c0,1.4-1,2.8-3,3.1v1.9H93.5z"/>
			</g>
			<path class="st1" d="M96.9,97h-5.2c-0.4,0-0.7-0.3-0.7-0.7c0-0.4,0.3-0.7,0.7-0.7h5.2c0.4,0,0.7,0.3,0.7,0.7
				C97.6,96.7,97.3,97,96.9,97z"/>
		</g>
		<g>
			<path class="st1" d="M202.4,90.7H180c-0.3,0-0.6-0.2-0.6-0.5s0.3-0.5,0.6-0.5h22.4c2.2,0,3.9-1.7,3.9-3.8V69.4
				c0-2.1-1.8-3.8-3.9-3.8H169c-2.2,0-3.9,1.7-3.9,3.8v16.4c0,2.1,1.8,3.8,3.9,3.8c0.3,0,0.6,0.2,0.6,0.5s-0.3,0.5-0.6,0.5
				c-2.8,0-5-2.2-5-4.9V69.4c0-2.7,2.3-4.9,5-4.9h33.4c2.8,0,5,2.2,5,4.9v16.4C207.5,88.6,205.2,90.7,202.4,90.7z"/>
			<path class="st1" d="M206.9,70.7h-38.8c-0.3,0-0.6-0.2-0.6-0.5s0.3-0.5,0.6-0.5h38.8c0.3,0,0.6,0.2,0.6,0.5
				S207.2,70.7,206.9,70.7z"/>
			<path class="st1" d="M198.3,87.1c-0.1,0-0.2,0-0.3-0.1c-1.1-0.7-1.7-1.8-1.7-3.1c0-2,1.7-3.6,3.7-3.6s3.7,1.6,3.7,3.6
				c0,1.1-0.5,2.2-1.5,2.9c-0.2,0.2-0.6,0.1-0.8-0.1c-0.2-0.2-0.1-0.6,0.1-0.8c0.7-0.5,1-1.2,1-2c0-1.4-1.2-2.5-2.6-2.5
				c-1.4,0-2.6,1.1-2.6,2.5c0,0.9,0.5,1.7,1.2,2.1c0.3,0.2,0.3,0.5,0.2,0.7C198.7,87.1,198.5,87.1,198.3,87.1z"/>
			<path class="st1" d="M173.7,75.2h-5.6c-0.3,0-0.6-0.2-0.6-0.5c0-0.3,0.3-0.5,0.6-0.5h5.6c0.3,0,0.6,0.2,0.6,0.5
				C174.3,74.9,174,75.2,173.7,75.2z"/>
			<path class="st1" d="M183.8,75.2h-5.6c-0.3,0-0.6-0.2-0.6-0.5c0-0.3,0.3-0.5,0.6-0.5h5.6c0.3,0,0.6,0.2,0.6,0.5
				C184.3,74.9,184.1,75.2,183.8,75.2z"/>
			<path class="st1" d="M193.8,75.2h-5.6c-0.3,0-0.6-0.2-0.6-0.5c0-0.3,0.3-0.5,0.6-0.5h5.6c0.3,0,0.6,0.2,0.6,0.5
				C194.4,74.9,194.1,75.2,193.8,75.2z"/>
			<path class="st1" d="M203.9,75.2h-5.6c-0.3,0-0.6-0.2-0.6-0.5c0-0.3,0.3-0.5,0.6-0.5h5.6c0.3,0,0.6,0.2,0.6,0.5
				C204.5,74.9,204.2,75.2,203.9,75.2z"/>
			<g>
				<path class="st1" d="M178.9,95.7h-8.8c-0.9,0-1.7-0.7-1.7-1.6v-7.4c0-0.9,0.8-1.6,1.7-1.6h0.7c0.3,0,0.6,0.2,0.6,0.5
					s-0.3,0.5-0.6,0.5h-0.7c-0.3,0-0.6,0.2-0.6,0.5v7.4c0,0.3,0.3,0.5,0.6,0.5h8.8c0.3,0,0.6-0.2,0.6-0.5v-7.4
					c0-0.3-0.3-0.5-0.6-0.5h-0.7c-0.3,0-0.6-0.2-0.6-0.5s0.3-0.5,0.6-0.5h0.7c0.9,0,1.7,0.7,1.7,1.6v7.4
					C180.6,95,179.8,95.7,178.9,95.7z"/>
				<path class="st1" d="M178.2,86.2h-7.3c-0.3,0-0.6-0.2-0.6-0.5v-1.7c0-2.2,1.9-4.1,4.2-4.1c1.1,0,2.2,0.4,3,1.2
					c0.5,0.5,0.9,1.1,1.1,1.8c0.1,0.3-0.1,0.6-0.4,0.7c-0.3,0.1-0.6-0.1-0.7-0.4c-0.1-0.5-0.4-1-0.8-1.3c-0.6-0.6-1.4-0.9-2.2-0.9
					c-1.7,0-3.1,1.3-3.1,3v1.2h6.7c0.3,0,0.6,0.2,0.6,0.5S178.5,86.2,178.2,86.2z"/>
			</g>
		</g>
		<g>
			<g>
				<path class="st1" d="M373.7,85.8c-2.6,0-5.3-1-7.3-2.9c-1.9-1.9-3-4.4-3-7s1.1-5.2,3-7c4-3.9,10.5-3.9,14.5,0v0
					c1.9,1.9,3,4.4,3,7s-1.1,5.2-3,7C379,84.8,376.3,85.8,373.7,85.8z M373.7,67.1c-2.3,0-4.7,0.9-6.4,2.6c-1.7,1.7-2.7,3.9-2.7,6.2
					c0,2.3,0.9,4.6,2.7,6.2c3.5,3.4,9.3,3.4,12.9,0c1.7-1.7,2.7-3.9,2.7-6.2c0-2.3-0.9-4.6-2.7-6.2c0,0,0,0,0,0
					C378.4,67.9,376,67.1,373.7,67.1z"/>
				<path class="st1" d="M387.8,94.4c-0.9,0-1.8-0.4-2.5-1l-5.1-4.9c-0.2-0.2-0.2-0.6,0-0.8c0.2-0.2,0.6-0.2,0.8,0l5.1,4.9
					c0.4,0.4,1,0.6,1.6,0.6c0.6,0,1.2-0.2,1.6-0.6c0.9-0.9,0.9-2.3,0-3.1l-8-7.7c-0.2-0.2-0.2-0.6,0-0.8c0.2-0.2,0.6-0.2,0.8,0
					l8,7.7c1.4,1.3,1.4,3.5,0,4.8C389.6,94.1,388.8,94.4,387.8,94.4z"/>
			</g>
			<path class="st1" d="M359.6,72.4c-0.3,0-0.6-0.3-0.6-0.6v-8.8c0-0.3,0.3-0.6,0.6-0.6h9.6c0.3,0,0.6,0.3,0.6,0.6
				c0,0.3-0.3,0.6-0.6,0.6h-9v8.2C360.2,72.1,359.9,72.4,359.6,72.4z"/>
			<path class="st1" d="M369.8,97.9h-10.2c-0.3,0-0.6-0.3-0.6-0.6v-8.4c0-0.3,0.3-0.6,0.6-0.6s0.6,0.3,0.6,0.6v7.9h9.6
				c0.3,0,0.6,0.3,0.6,0.6C370.4,97.7,370.1,97.9,369.8,97.9z"/>
			<path class="st1" d="M395.2,97.9h-10c-0.3,0-0.6-0.3-0.6-0.6c0-0.3,0.3-0.6,0.6-0.6h9.4v-7.2c0-0.3,0.3-0.6,0.6-0.6
				s0.6,0.3,0.6,0.6v7.8C395.8,97.7,395.5,97.9,395.2,97.9z"/>
			<path class="st1" d="M395.2,70.9c-0.3,0-0.6-0.3-0.6-0.6v-6.8h-8.9c-0.3,0-0.6-0.3-0.6-0.6c0-0.3,0.3-0.6,0.6-0.6h9.5
				c0.3,0,0.6,0.3,0.6,0.6v7.4C395.8,70.7,395.5,70.9,395.2,70.9z"/>
		</g>
		<g>
			<path class="st1" d="M292.1,93.9h-36.5c-3,0-5.5-2.4-5.5-5.3V67.2c0-0.3,0.3-0.6,0.6-0.6c0.3,0,0.6,0.3,0.6,0.6v21.4
				c0,2.3,1.9,4.1,4.3,4.1h36.5c2.3,0,4.3-1.8,4.3-4.1V67.2c0-0.3,0.3-0.6,0.6-0.6s0.6,0.3,0.6,0.6v21.4
				C297.5,91.5,295.1,93.9,292.1,93.9z"/>
			<path class="st1" d="M285.5,75.2c-0.1,0-0.2,0-0.3-0.1l-11.4-7.4l-11.4,7.4c-0.2,0.1-0.5,0.1-0.7,0l-11.4-7.4
				c-0.3-0.2-0.3-0.5-0.2-0.8c0.2-0.3,0.6-0.3,0.8-0.2l11.1,7.2l11.4-7.4c0.2-0.1,0.5-0.1,0.7,0l11.4,7.4l11.1-7.2
				c0.3-0.2,0.6-0.1,0.8,0.2c0.2,0.3,0.1,0.6-0.2,0.8l-11.4,7.4C285.7,75.2,285.6,75.2,285.5,75.2z"/>
			<path class="st1" d="M296.9,86.6h-40c-0.3,0-0.6-0.3-0.6-0.6c0-0.3,0.3-0.6,0.6-0.6h40c0.3,0,0.6,0.3,0.6,0.6
				C297.5,86.3,297.3,86.6,296.9,86.6z"/>
			<path class="st1" d="M270.7,80.8c-0.2,0-0.3-0.1-0.5-0.2c-0.7-0.8-1.1-1.8-1.1-2.9c0-2.5,2.1-4.5,4.7-4.5c2.6,0,4.7,2,4.7,4.5
				c0,1.1-0.4,2.1-1.1,2.9c-0.2,0.2-0.6,0.3-0.8,0.1c-0.3-0.2-0.3-0.6-0.1-0.8c0.5-0.6,0.8-1.4,0.8-2.2c0-1.8-1.6-3.3-3.5-3.3
				c-1.9,0-3.5,1.5-3.5,3.3c0,0.8,0.3,1.6,0.8,2.2c0.2,0.2,0.2,0.6-0.1,0.8C271,80.8,270.8,80.8,270.7,80.8z"/>
			<g>
				<path class="st1" d="M287.4,78.2h-6.2c-0.3,0-0.6-0.3-0.6-0.6c0-0.3,0.3-0.6,0.6-0.6h6.2c0.3,0,0.6,0.3,0.6,0.6
					C288,77.9,287.7,78.2,287.4,78.2z"/>
				<path class="st1" d="M266.4,78.2h-6.2c-0.3,0-0.6-0.3-0.6-0.6c0-0.3,0.3-0.6,0.6-0.6h6.2c0.3,0,0.6,0.3,0.6,0.6
					C267,77.9,266.7,78.2,266.4,78.2z"/>
			</g>
		</g>
	</g>
</g>
</svg>
