<?xml version="1.0" encoding="utf-8"?>
<!-- Generator: Adobe Illustrator 24.3.0, SVG Export Plug-In . SVG Version: 6.00 Build 0)  -->
<svg version="1.1" id="Layer_1" xmlns="http://www.w3.org/2000/svg" xmlns:xlink="http://www.w3.org/1999/xlink" x="0px" y="0px"
	 viewBox="0 0 403 227" style="enable-background:new 0 0 403 227;" xml:space="preserve">
<style type="text/css">
	.st0{fill:#F5F5F5;}
	.st1{fill:url(#SVGID_1_);}
</style>
<rect y="0.2" class="st0" width="403" height="226.7"/>
<g>
	<radialGradient id="SVGID_1_" cx="201.5" cy="113.5" r="42.7317" gradientUnits="userSpaceOnUse">
		<stop  offset="0.1056" style="stop-color:#E95D56"/>
		<stop  offset="0.2465" style="stop-color:#D45353"/>
		<stop  offset="0.5381" style="stop-color:#9D3A4C"/>
		<stop  offset="0.9523" style="stop-color:#461341"/>
		<stop  offset="1" style="stop-color:#3C0E40"/>
	</radialGradient>
	<path class="st1" d="M227.9,114.4c-1.3-0.7-1.2-2.6,0.2-3.1c3.7-1.4,6.9-3.6,9.3-6.3c3.4-3.8,5.1-8.4,5.1-13.8
		c0-4.9-1.4-9.3-4.3-12.9c-2.9-3.7-6.4-6.1-10.6-7.3c-4.2-1.2-9.6-1.8-16.2-1.8h-32c-2.5,0-4.6,1.8-5,4.3l-11.8,71.2
		c0.7,0.1,1.5,0.3,2.4,0.4c0.9,0.1,1.8,0.2,2.8,0.3c0.5,0,1,0.1,1.5,0.1c0.1,0,0.3,0,0.4,0c0.1,0,0.3,0,0.4,0c0.3,0,0.5,0,0.8,0
		c2.1,0,4.5-0.1,6.9-0.5c2.4-0.4,4.9-0.9,7.4-1.8c0.3-0.1,0.6-0.2,0.9-0.3c0.2-0.1,0.3-0.1,0.5-0.2c0.2-0.1,0.3-0.1,0.5-0.2
		c0.3-0.1,0.6-0.2,0.9-0.4c0.3-0.1,0.6-0.3,0.9-0.4c1.2-0.6,2.4-1.2,3.5-1.9c1.1-0.7,2.2-1.5,3.2-2.4c0.3-0.2,0.5-0.4,0.7-0.7
		l0.4-0.3l0.2-0.2h0v0l0,0v0l0-0.1l0.1-0.1l0.4-0.4l0-0.1l0,0l0.1-0.1l0.1-0.2c0.2-0.2,0.4-0.5,0.6-0.7c0.1-0.1,0.2-0.3,0.3-0.4
		c0.1-0.1,0.2-0.3,0.3-0.4c0.2-0.3,0.4-0.5,0.5-0.8c0.3-0.5,0.6-1.1,0.9-1.7c0.5-1.2,0.9-2.4,1.1-3.5c0.1-0.6,0.2-1.2,0.2-1.8l0-0.2
		v0l0,0l0-0.1l0-0.5l0-0.3l0-0.1l0-0.1c0,0,0,0,0,0l0-0.4l0-0.4l-0.1-0.4c0-0.1,0-0.3-0.1-0.4c0-0.1-0.1-0.3-0.1-0.4
		c-0.1-0.3-0.1-0.5-0.2-0.8c-0.1-0.3-0.1-0.5-0.2-0.8c-0.3-1-0.8-2-1.3-3c-0.5-0.9-1.2-1.8-1.8-2.5c-0.7-0.8-1.4-1.4-2.2-2l-0.1-0.1
		l0,0c0,0,0,0,0,0h0c0,0,0,0,0,0c0,0,0,0,0.1,0l-0.1-0.1c-0.1-0.1-0.3-0.2-0.4-0.2c-0.1-0.1-0.3-0.2-0.4-0.2l-0.1-0.1l-0.1,0
		l-0.1-0.1c-0.2-0.1-0.4-0.2-0.6-0.3c-0.2-0.1-0.4-0.2-0.6-0.3l-0.2-0.1l-0.2-0.1c-0.1,0-0.2-0.1-0.3-0.1c-0.2-0.1-0.4-0.2-0.6-0.2
		c-0.2-0.1-0.4-0.1-0.6-0.2c-0.2-0.1-0.4-0.1-0.6-0.1c-0.1,0-0.2,0-0.3-0.1c-0.1,0-0.2,0-0.3-0.1c-0.2,0-0.4-0.1-0.6-0.1
		c-0.2,0-0.4,0-0.6-0.1c-0.2,0-0.4-0.1-0.6-0.1c-1.6-0.1-3,0.1-4.2,0.3c-0.1,0-0.3,0.1-0.4,0.1l0,0c-0.1,0-0.3,0.1-0.3,0.1
		c-0.3,0.1-0.5,0.1-0.8,0.2c-0.2,0.1-0.4,0.1-0.6,0.2c-0.2,0.1-0.4,0.1-0.5,0.2c-0.6,0.3-1,0.4-1,0.4l-1.2,0.5l0.8-1
		c0,0,0.2-0.3,0.7-0.8c0.3-0.3,0.6-0.6,1-0.9c0.2-0.2,0.4-0.3,0.7-0.5c0.1,0,0.1-0.1,0.2-0.1c0.1,0,0.1-0.1,0.2-0.1
		c0.1-0.1,0.3-0.2,0.4-0.3c1.2-0.7,2.8-1.4,4.7-1.9c0.5-0.1,1-0.2,1.5-0.3c0.3,0,0.5,0,0.8-0.1c0.1,0,0.3,0,0.4,0c0.1,0,0.3,0,0.4,0
		c1.1,0,2.4,0.1,3.6,0.3c0.3,0.1,0.6,0.1,1,0.2c0.2,0,0.3,0.1,0.5,0.2c0.2,0.1,0.3,0.1,0.5,0.2l0.3,0.1l0.1,0l0.1,0
		c0.1,0.1,0.3,0.1,0.4,0.2c0.1,0.1,0.3,0.1,0.4,0.2l0.1,0l0,0l0.1,0.1l0.1,0l0.2,0.1c1.3,0.6,2.5,1.5,3.6,2.5c1.1,1,2.2,2.2,3.1,3.5
		c0.2,0.3,0.4,0.7,0.6,1c0.2,0.4,0.4,0.7,0.6,1.1c0.4,0.7,0.7,1.5,0.9,2.3c0.1,0.4,0.2,0.8,0.3,1.2c0,0.2,0.1,0.4,0.1,0.6
		c0,0.2,0.1,0.4,0.1,0.6c0,0.2,0.1,0.4,0.1,0.6c0,0.2,0,0.4,0.1,0.6c0,0.2,0.1,0.4,0.1,0.6c0,0.3,0.1,0.7,0,1c0,0.1,0,0.3,0,0.4
		c0,0,0,0.1,0,0.1l0,0.1l0,0.1l0,0.3l0,0.5l0,0.3l0,0.2l0,0.3c-0.1,0.9-0.3,1.7-0.5,2.5c-0.3,0.8-0.5,1.6-0.9,2.4
		c-0.3,0.8-0.7,1.5-1.1,2.3c-0.8,1.4-1.8,2.8-2.9,4c-0.3,0.3-0.5,0.6-0.9,0.9l-0.2,0.2L201,139l-0.1,0.1l0,0l-0.4,0.4l-0.2,0.2
		l-0.2,0.2l-0.5,0.4c-0.3,0.3-0.6,0.5-0.9,0.7c-1.3,1-2.6,1.8-4,2.5c-1.4,0.7-2.8,1.3-4.2,1.8c-0.4,0.1-0.7,0.3-1.1,0.4
		c-0.3,0.1-0.7,0.2-1.1,0.3c-0.2,0.1-0.4,0.1-0.5,0.2c-0.2,0-0.3,0.1-0.5,0.1l0,0c0,0,0,0-0.1,0l-0.1,0l-0.1,0l-0.3,0.1
		c-0.2,0-0.3,0.1-0.5,0.1c-2.8,0.7-5.5,1.1-8.1,1.2c-2.6,0.1-5,0-7.3-0.2c-0.3,0-0.6-0.1-0.8-0.1c-0.1,0-0.3,0-0.4,0
		c-0.1,0-0.3,0-0.4-0.1c-0.5-0.1-1-0.2-1.6-0.3c-1-0.2-2-0.4-2.8-0.6c-0.2-0.1-0.4-0.1-0.7-0.2c-0.1,0-0.2-0.1-0.3-0.1
		c-0.1,0-0.2-0.1-0.3-0.1c-0.4-0.1-0.7-0.2-1-0.3l-2,12h47.9c10.7,0,18.4-2.6,23-7.8c4.6-5.2,6.9-11.3,6.9-18.1
		C238.3,123.9,234.8,118.1,227.9,114.4z M178.8,113.8l-0.9,1.3c0,0,0,0.1-0.1,0.2c-0.1,0.2-0.2,0.4-0.4,0.7c-0.3,0.6-0.7,1.5-1,2.7
		c-0.3,1.2-0.5,2.7-0.4,4.3c0.1,1.7,0.5,3.5,1.3,5.3c0.4,0.9,0.9,1.8,1.5,2.6c0.3,0.4,0.6,0.8,1,1.2c0.1,0.1,0.2,0.2,0.3,0.3
		c0.1,0.1,0.2,0.2,0.2,0.3l0.2,0.2l0,0l0,0c0,0,0,0,0,0c0,0,0,0,0,0l0.1,0.1c0.1,0.1,0.2,0.2,0.3,0.3c1.6,1.4,3.6,2.6,5.9,3.3
		c1.7,0.6,3.6,1,5.6,1.1c-0.2,0.2-0.5,0.3-0.7,0.5c-1,0.6-2.2,1.2-3.3,1.8c-0.3,0.1-0.6,0.3-0.9,0.4l0,0c-0.2,0.1-0.5,0.2-0.7,0.3
		l-0.2,0.1c-0.1,0-0.3,0.1-0.4,0.2l-0.5,0.2l-0.9,0.3c-0.6,0.2-1.3,0.4-1.9,0.6c-0.2-0.1-0.3-0.2-0.5-0.2c-0.7-0.4-1.4-0.8-2.1-1.2
		c-1.3-0.9-2.5-2-3.5-3.1c-0.1-0.1-0.2-0.3-0.4-0.4l-0.1-0.1l0-0.1l0,0l0,0l-0.1-0.2c-0.1-0.2-0.3-0.3-0.4-0.5
		c-0.1-0.2-0.2-0.3-0.3-0.5c-0.4-0.6-0.8-1.3-1.1-1.9c-0.3-0.6-0.6-1.3-0.8-1.9c-0.2-0.7-0.4-1.3-0.6-1.9c-0.6-2.6-0.6-5-0.2-7
		c0.4-2,1.1-3.7,1.9-4.9c0.8-1.2,1.6-2,2.1-2.5c0.3-0.2,0.5-0.4,0.7-0.5c0.2-0.1,0.2-0.2,0.2-0.2L178.8,113.8z M221.7,117.2
		c0,1.3-0.2,2.6-0.4,4c-0.2,1.4-0.6,2.8-1,4.2c-0.5,1.4-1.1,2.8-1.8,4.2c-0.2,0.3-0.4,0.7-0.6,1c-0.1,0.2-0.2,0.3-0.3,0.5
		c-0.1,0.1-0.2,0.3-0.3,0.5l-0.2,0.3l-0.2,0.2c-0.1,0.2-0.2,0.3-0.4,0.5l-0.4,0.5l-0.4,0.5c-1,1.2-2.2,2.4-3.5,3.4
		c-2.5,2.1-5.5,3.6-8.5,4.9c-0.8,0.3-1.5,0.6-2.3,0.9c-0.8,0.3-1.5,0.5-2.3,0.7l-0.6,0.2c-0.1,0-0.2,0-0.3,0.1l-0.3,0.1
		c0,0-0.1,0-0.1,0c0.6-0.4,1.1-0.8,1.7-1.2c0.2-0.2,0.5-0.4,0.7-0.5c0.1-0.1,0.2-0.2,0.3-0.2l0,0l0.7-0.6l0.7-0.7l0.4-0.4
		c0.3-0.3,0.5-0.5,0.8-0.8l0.2-0.2c1.1-1.2,2.1-2.6,3-4.1c1.1-0.5,2.1-1.1,3-1.8c1.1-0.8,2.1-1.6,3-2.6l0.3-0.4l0.3-0.4
		c0.1-0.1,0.2-0.2,0.3-0.4l0.2-0.2l0.1-0.2c0.1-0.1,0.2-0.2,0.3-0.4l0.3-0.4l0.3-0.4l0.3-0.4c1.4-2.2,2.5-4.6,3.1-6.9
		c0.7-2.4,1-4.7,1-6.9c0-1.1,0-2.2-0.1-3.2c-0.1-1-0.2-2-0.4-2.8c-0.1-0.8-0.3-1.6-0.5-2.4l-1.2,2c-0.7,1.2-2.5,0.7-2.6-0.6
		l-0.9-12.9c-0.1-0.8,1-1.3,1.5-0.6l8,10.3c0.6,0.8-0.1,2-1.1,1.8l-2.4-0.5c0.3,0.7,0.6,1.5,0.8,2.4c0.3,0.9,0.5,1.9,0.8,3
		c0.2,1.1,0.4,2.2,0.5,3.4C221.6,114.7,221.7,115.9,221.7,117.2z"/>
</g>
</svg>
