<svg id="a5c345b3-443e-447a-8930-f657d38ab395" data-name="Layer 1" xmlns="http://www.w3.org/2000/svg" xmlns:xlink="http://www.w3.org/1999/xlink" viewBox="0 0 948.93 468.48">
  <defs>
    <style>
      .a9d7a5c9-1628-4017-9015-38363f94d712 {
        fill: none;
        stroke-miterlimit: 10;
        stroke: url(#be2a69f2-6c31-4cee-9f33-9eaffe19aab2);
      }
    </style>
    <radialGradient id="be2a69f2-6c31-4cee-9f33-9eaffe19aab2" data-name="New Gradient Swatch 1" cx="1163.92" cy="136.84" r="368.94" gradientTransform="translate(173.15 -992.42) rotate(63.21)" gradientUnits="userSpaceOnUse">
      <stop offset="0.11" stop-color="#e95d56"/>
      <stop offset="0.25" stop-color="#d45353"/>
      <stop offset="0.54" stop-color="#9d3a4c"/>
      <stop offset="0.95" stop-color="#461341"/>
      <stop offset="1" stop-color="#3c0e40"/>
    </radialGradient>
  </defs>
  <path class="a9d7a5c9-1628-4017-9015-38363f94d712" d="M579,0l.14,1.08.09,1c.13,1.33.24,2.66.36,4s.24,2.67.36,4l.08,1,0,.25v4.33a148.74,148.74,0,0,1-5,39.93,164.84,164.84,0,0,1-16,39.48q-2.85,4.66-5.75,9.38c-2.07,3-4.3,6-6.5,9.06a164.66,164.66,0,0,1-15,16.95c-2.62,2.77-5.63,5.21-8.51,7.76-1.49,1.24-2.88,2.59-4.45,3.73s-3.12,2.32-4.7,3.48-3.12,2.34-4.74,3.43-3.32,2.12-5,3.15-3.26,2.24-4.94,3.27c-2.73,1.46-5.27,3.33-8.26,4.31l-3.16,1.81c-.22.14-.61.11-.81.19l-.61.16-1.16.43-2.29.92L478.63,165l-2.23.91-1.41.48-2.82.95a176.6,176.6,0,0,1-22.91,6.08,190.17,190.17,0,0,1-23.3,2.83,199.45,199.45,0,0,1-23.19.13,232.32,232.32,0,0,1-45.07-7.13c-3.66-1-7.23-1.94-11.06-3.22l-2.82-.9-1.41-.46-.69-.23-.6-.21-4.74-1.76-2.82-1L331,160.36l-5.14-2.11c-3.35-1.55-6.77-3-10.05-4.65a258,258,0,0,1-37.2-22.25,303.44,303.44,0,0,1-32.27-26.59c-2.49-2.36-4.95-4.71-7.33-7.12s-4.79-4.84-7.15-7.32c-1.23-1.27-2.3-2.43-3.37-3.6l-3.22-3.52L225,83l-.33-.36-.4-.47-2.43-2.82-3.22-3.74a405.32,405.32,0,0,1-43.3-61.54q-4-7.05-7.66-14M976.39,0q25.33,56.91,33.93,101.33,11.4,59-16.15,116.83t-88.25,88.5q-66.52,33.6-134.1,15.53-49.68-13.29-90.56-50.26c-9.86-8.92-25.75-2-26,11.29Q654.07,334.76,631,373q-25.14,41.61-76.32,67.46Q470,483.2,377.56,458.86q-64.37-17-116.11-85.86-22.6-30.09-42.81-70.09L65.67,0M529.42,0V1.88l-.07,1-.3,4c-.1,1.32-.21,2.68-.31,4l-.08,1c0-.39,0-.58,0-.67a1,1,0,0,0,0,.15h0v0l-.07.38-.31,1.63a114.12,114.12,0,0,1-7,26.19,140.8,140.8,0,0,1-13.1,25.53A145.37,145.37,0,0,1,489.34,88.3c-1.66,1.91-3.63,3.52-5.47,5.26s-3.82,3.35-5.79,5c-1,.81-1.95,1.67-3,2.43s-2.09,1.48-3.13,2.24l-3.09,2.29-2.81,1.77-2.76,1.88a3.67,3.67,0,0,1-.38.24l-.54.3-1.09.56-2.2,1.15-4.36,2.31-.55.29-.28.15-.11.06-1.81.84a122.55,122.55,0,0,1-15.06,5.88,136.75,136.75,0,0,1-33.31,5.89,137.09,137.09,0,0,1-17.54-.19c-2.93-.11-5.87-.56-8.81-.86-1.48-.17-2.93-.44-4.4-.67s-3-.4-4.4-.73c-2.91-.59-5.93-1.16-8.55-1.84l-2-.49-1-.24-.51-.12-.61-.17-4.86-1.43-1.21-.35-.6-.17h0l-.12,0h0l-2.14-.71-4.3-1.42c-2.82-1.09-5.69-2-8.48-3.23a229,229,0,0,1-32.71-16.44,287.77,287.77,0,0,1-30.16-21.09c-2.39-1.91-4.78-3.82-7.11-5.81s-4.59-3.93-6.83-5.88c-1.09-.94-2.28-2-3.45-3.12l-3.51-3.23-6.37-6.23A388.17,388.17,0,0,1,199,0m45,0-.15,1.05a199.16,199.16,0,0,0-1.63,22.07c0,1.61,0,3.23,0,4.85Q248.58,34.74,255,41l6.23,6.07,3.34,3.08c1.16,1.08,2.16,2,3,2.73l1.17,1c1.86,1.63,3.61,3.16,5.45,4.67l.21.19c2.18,1.85,4.49,3.71,6.67,5.45A275,275,0,0,0,309.66,84.2c2.26,1.38,4.58,2.72,6.92,4a212.33,212.33,0,0,1-13.69-50.29A168,168,0,0,1,301.74,0m463,78.45-101.8,60.79c-10.76,6.42-6.95,22.71,5.51,23.58l21.26,1.49c-5.21,4.56-10.94,9.27-17.28,14-6.64,5-13.9,9.93-21.77,14.78a273.29,273.29,0,0,1-25.35,14,252.12,252.12,0,0,1-60.66,20.4A226.92,226.92,0,0,1,495,230.26l-4.48-.56-4.48-.65-4.52-.72c-1.76-.26-3-.54-4.39-.82l-2.05-.41-2.16-.49c-1.45-.35-2.9-.62-4.34-1l-4.35-1.14-4.31-1.28a195.18,195.18,0,0,1-33.68-14,221,221,0,0,1-27.39-17.24,245.86,245.86,0,0,1-45.39-7.42l-2.18-.59c-3.07-.85-6.24-1.71-9.73-2.88l-5.19-1.67-8.7-3.21-8.31-3.42-.31-.13c-1-.49-2.11-1-3.15-1.42-2.36-1.06-4.82-2.16-7.32-3.43q-8.35-4.08-16.44-8.76l.51.63,1.95,2.36c.61.75,1.15,1.32,1.72,2l3.75,4.22q7.47,8.18,15.47,15.94c5.3,5.2,10.74,10.27,16.38,15.14,22.52,19.45,47.39,36.82,74.77,49.1a227.31,227.31,0,0,0,42.26,14.41l5.41,1.2,5.44,1c1.81.36,3.63.6,5.45.9l2.74.42,2.85.36c1.88.23,3.9.51,5.43.62l5.3.46c3.55.23,7.08.39,10.62.47a256,256,0,0,0,41.38-2.54A257.25,257.25,0,0,0,572,257a256.63,256.63,0,0,0,34.49-13.38,279.13,279.13,0,0,0,30-16.45,294,294,0,0,0,25.53-18c7.74-6.15,14.74-12.36,21.07-18.42,6-5.8,11.45-11.45,16.29-16.86l5.67,21.53c2.45,9.27,15.25,10.34,19.37,1.62l51.4-108.63C779.19,81.43,771.41,74.46,764.72,78.45Z" transform="translate(-65.22 0.29)"/>
</svg>
