<?xml version="1.0" encoding="utf-8"?>
<!-- Generator: Adobe Illustrator 24.3.0, SVG Export Plug-In . SVG Version: 6.00 Build 0)  -->
<svg version="1.1" id="Layer_1" xmlns="http://www.w3.org/2000/svg" xmlns:xlink="http://www.w3.org/1999/xlink" x="0px" y="0px"
	 viewBox="0 0 841 494" style="enable-background:new 0 0 841 494;" xml:space="preserve">
<style type="text/css">
	.st0{clip-path:url(#SVGID_2_);fill:none;stroke:#FFFFFF;stroke-miterlimit:10;}
	.st1{clip-path:url(#SVGID_2_);fill:#000;stroke:#FFFFFF;stroke-miterlimit:10;}
	.st2{clip-path:url(#SVGID_2_);}
	.st3{fill:none;stroke:#FFFFFF;stroke-miterlimit:10;}
</style>
<g>
	<defs>
		<rect id="SVGID_1_" x="-0.85" width="842.71" height="494"/>
	</defs>
	<clipPath id="SVGID_2_">
		<use xlink:href="#SVGID_1_"  style="overflow:visible;"/>
	</clipPath>
	<rect x="-0.85" class="st0" width="842.71" height="494"/>
	<rect x="-0.85" y="2.09" class="st1" width="842.71" height="494"/>
	<rect x="-0.85" class="st0" width="842.71" height="494"/>
	<g class="st2">
		<path class="st3" d="M600.68,126.2c-3.87-10.3,6.22-20.5,16.53-16.68c28.51,10.56,56.84,14.14,85,10.75
			c38.29-4.61,71.04-22.32,98.21-53.17c24.78-28.13,38.29-59.82,40.55-95.09c2.25-35.27-5.59-66.83-23.52-94.68
			c-17.94-27.86-45.7-58.35-83.27-91.45L552.1-374.55c-14.06-12.39-35.11-12.69-49.78-0.71L78.48-29.15
			c3.48,4.56,7.33,9.41,11.67,14.39c4.22,5.13,9.17,10.2,14.2,15.63c2.66,2.61,5.36,5.27,8.16,8c0.7,0.69,1.4,1.35,2.09,2.05
			c0.72,0.67,1.46,1.33,2.2,1.99c1.47,1.33,2.96,2.7,4.46,4.06c12.08,10.84,25.94,21.65,41.47,31.65
			c15.52,9.95,32.64,19.2,51.08,26.78c2.26,0.94,4.52,1.88,6.8,2.82c1.23,0.47,2.46,0.93,3.68,1.41c1.24,0.48,2.48,0.95,3.61,1.33
			c2.32,0.81,4.63,1.64,7.05,2.41c2.41,0.81,4.82,1.55,7.25,2.27c9.71,2.91,19.62,5.28,29.65,6.92c10.01,1.68,20.13,2.51,30.17,2.57
			c2.51,0.06,5.01-0.1,7.51-0.13l3.73-0.23l1.86-0.12l0.01,0.01l0.01-0.01l0.1-0.01l0.01-0.01l0.52-0.05l1.04-0.1l4.16-0.4
			l0.52-0.05l0.43-0.07l0.86-0.13l1.71-0.25c2.22-0.29,4.71-0.78,7.13-1.21c1.21-0.19,2.41-0.52,3.6-0.79
			c1.2-0.29,2.4-0.52,3.59-0.84c2.35-0.68,4.74-1.23,7.03-2.05c4.68-1.41,9.16-3.29,13.53-5.24c8.72-4.01,16.71-9.06,23.77-14.76
			c3.45-2.94,6.82-5.89,9.76-9.15l1.13-1.2l0.07-0.08l0.16-0.21l0.33-0.39l2.64-3.11l1.33-1.56l0.67-0.77l0.33-0.39
			c0.11-0.12,0.13-0.21,0.22-0.31l1.54-2.29l1.61-2.22l1.67-2.72c0.56-0.9,1.14-1.8,1.71-2.68c0.54-0.9,1.02-1.86,1.53-2.78
			c1.02-1.86,2.06-3.66,2.92-5.6c0.87-1.91,1.89-3.74,2.58-5.72c3.28-7.69,5.73-15.64,7.32-23.59c1.56-7.96,2.3-15.91,2.22-23.63
			c-0.1-7.7-0.89-15.24-2.7-22.26l-0.27-1.34l-0.06-0.32c0,0,0,0,0-0.01l-0.01-0.01c0-0.03-0.02-0.07-0.02-0.12
			c0.03,0.07,0.08,0.22,0.21,0.51l-0.24-0.79c-0.34-1.07-0.68-2.13-1.01-3.18c-0.33-1.07-0.67-2.11-1-3.16l-0.25-0.77l-0.22-0.55
			l-0.43-1.1c-0.58-1.49-1.06-2.92-1.68-4.47c-0.73-1.62-1.46-3.23-2.17-4.81l-0.53-1.19l-0.63-1.15c-0.42-0.76-0.83-1.52-1.24-2.28
			c-0.83-1.53-1.61-3.07-2.55-4.48c-0.9-1.46-1.8-2.9-2.68-4.32c-0.95-1.38-1.96-2.71-2.92-4.06c-0.47-0.67-0.96-1.34-1.44-2.01
			c-0.51-0.65-1.03-1.27-1.54-1.9c-1.03-1.27-2.03-2.52-3.04-3.75c-1.06-1.18-2.14-2.3-3.21-3.44c-1.05-1.14-2.05-2.34-3.17-3.33
			c-8.66-8.5-17.59-14.92-25.5-19.51c-1.01-0.57-1.97-1.13-2.91-1.67l-0.25-0.14c-0.66-0.35-1.73-0.92-2.39-1.27
			c-1.93-0.95-3.73-1.84-5.42-2.67c-1.64-0.79-3.21-1.36-4.66-1.98c-1.44-0.58-2.76-1.21-3.96-1.64c-4.82-1.64-7.5-2.66-7.5-2.66
			l-9.01-2.99l9.38-1.77c0,0,2.85-0.41,8.41-0.95c2.75-0.12,6.18-0.18,10.26-0.09c2.01,0.16,4.2,0.34,6.51,0.52
			c0.58,0.05,1.19,0.1,1.8,0.15c0.58,0.1,1.19,0.19,1.81,0.3c1.23,0.19,2.5,0.41,3.81,0.63c10.38,1.87,22.98,5.67,36.23,13.05
			c3.36,1.76,6.6,3.98,10.02,6.18c1.63,1.2,3.29,2.43,4.98,3.67c0.83,0.64,1.68,1.27,2.53,1.9c0.81,0.7,1.62,1.4,2.43,2.11
			c6.68,5.52,12.96,12.3,18.86,20.02c1.43,1.98,2.86,3.99,4.31,6.02c0.73,1.02,1.4,2.28,2.09,3.43c0.69,1.18,1.37,2.38,2.07,3.57
			l1.03,1.81l0.51,0.92l0.38,0.74c0.5,0.98,1,1.97,1.5,2.95c0.49,0.98,1.01,1.98,1.51,2.97l0.37,0.75l0.09,0.18l0.39,1l0.19,0.46
			l0.75,1.87c4.18,9.95,6.99,20.84,8.41,32.21c1.44,11.38,1.48,23.25-0.13,35.23c-0.5,2.97-1.02,5.97-1.54,8.98
			c-0.65,2.97-1.45,5.95-2.21,8.96c-1.68,5.95-3.76,11.84-6.3,17.63c-1.16,2.93-2.72,5.73-4.14,8.58c-0.77,1.41-1.41,2.87-2.27,4.23
			c-0.84,1.38-1.68,2.75-2.53,4.12c-0.86,1.36-1.68,2.75-2.58,4.09c-0.93,1.32-1.9,2.65-2.87,3.96c-0.96,1.3-1.82,2.72-2.79,4.03
			c-1.65,1.96-3.03,4.17-5.03,5.85c-0.63,0.79-1.24,1.57-1.87,2.36c-0.13,0.17-0.44,0.27-0.56,0.39l-0.42,0.32l-0.76,0.69
			l-1.48,1.42l-2.94,2.83l-1.44,1.38l-0.93,0.8l-1.87,1.6c-4.94,4.33-10.29,8.12-15.73,11.71c-5.54,3.42-11.16,6.66-17.02,9.33
			c-5.8,2.81-11.77,5.14-17.78,7.23c-12.09,3.98-24.4,6.87-36.81,8.38c-3.12,0.35-6.14,0.74-9.48,0.92l-2.44,0.17l-1.22,0.08
			l-0.61,0.03l-0.52,0.02l-4.19,0.11l-2.48,0.07l-2.32-0.02l-4.6-0.04c-3.06-0.16-6.11-0.22-9.14-0.48
			c-12.12-0.89-23.99-2.82-35.41-5.65c-11.41-2.81-22.45-6.3-32.96-10.49c-2.64-1.05-5.25-2.09-7.82-3.21
			c-2.56-1.07-5.16-2.26-7.73-3.43c-1.33-0.59-2.52-1.16-3.69-1.73c-1.19-0.57-2.37-1.15-3.56-1.71l-0.23-0.11
			c-0.34-0.15-0.23-0.11-0.36-0.17l-0.45-0.24l-0.91-0.47l-1.83-0.95c-1.21-0.64-2.42-1.26-3.62-1.88
			c-19.22-10.13-36.73-21.66-52.17-33.94c-15.44-12.25-28.89-25.11-40.4-37.71c-1.44-1.59-2.85-3.15-4.25-4.7
			c-0.7-0.78-1.4-1.55-2.08-2.31c-0.66-0.8-1.31-1.59-1.96-2.38c-2.59-3.16-5.1-6.24-7.56-9.25c-4.64-6.24-9.14-12.02-12.93-17.8
			c-0.97-1.43-1.92-2.83-2.87-4.21c-0.47-0.69-0.93-1.37-1.38-2.05c-0.44-0.7-0.86-1.38-1.29-2.07c-1.5-2.43-2.95-4.79-4.36-7.05
			L-0.83,35.62l272.32,239.94c61,53.75,117.67,77.39,169.98,70.89c52.32-6.49,95.76-29.36,130.33-68.58
			C611.9,232.36,621.53,181.8,600.68,126.2z M324.72-123.49l-11.52,3.3c0,0-0.68,0.22-2,0.66c-1.3,0.45-3.23,1.11-5.68,2.07
			c-4.87,1.94-11.85,5.11-19.6,10.44c-7.73,5.31-16.26,12.75-23.97,22.74c-7.72,9.92-14.76,22.3-19.33,36.5
			c-2.38,7.04-3.95,14.56-4.86,22.22c-0.42,3.83-0.64,7.71-0.58,11.6c0.01,0.96,0.01,1.95,0.06,2.92c0.01,1.05,0.1,1.72,0.14,2.66
			l0.12,1.83l0.03,0.46l0.01,0.23c0.01-0.04,0-0.07,0-0.1c0.02,0.01,0.02,0.02,0.02,0.02l0.08,0.76c0.1,1.01,0.22,2.02,0.32,3.04
			c1.97,16.21,7.74,32.67,16.74,48.37c6.89,12.08,15.67,23.71,25.97,34.41c-2.2-0.28-4.39-0.59-6.55-0.96
			c-9.07-1.49-18.5-3.69-28.05-6.54c-2.21-0.67-4.55-1.37-6.79-2.13l-0.22-0.08c-1.88-0.59-3.69-1.23-5.62-1.92l-1.22-0.43
			c-0.88-0.3-1.93-0.7-3.16-1.17l-3.51-1.33l-6.66-2.75c-4.6-1.9-9.2-3.95-13.78-6.12c-0.51-1.24-1.03-2.47-1.52-3.72
			c-2.18-5.74-4.03-11.58-5.54-17.45c-2.96-11.76-4.45-23.7-4.51-35.31c0.02-1.46,0.04-2.9,0.06-4.34l0.02-1.09l0.01-0.53l0.02-0.24
			l0.02-0.46l0.11-1.83c0.1-1.51,0.19-3.24,0.35-4.63c0.13-1.44,0.3-2.88,0.48-4.3c0.77-5.69,1.9-11.2,3.31-16.49
			c1.4-5.3,3.11-10.38,5.1-15.22c1.96-4.85,4.11-9.47,6.49-13.85c9.54-17.49,21.8-31.07,34.22-40.74
			c12.46-9.71,24.98-15.57,35.55-18.67c10.6-3.13,19.15-3.76,24.84-3.74c2.87,0.01,5.04,0.14,6.49,0.29c1.45,0.14,2.2,0.22,2.2,0.22
			L324.72-123.49z M551.12,110.79c-6.71,7.21-14.15,14.26-22.38,20.87c-8.22,6.62-17.19,12.88-26.88,18.48
			c-9.68,5.59-20.06,10.55-31,14.68c-2.74,1.02-5.51,1.99-8.3,2.9c-1.41,0.42-2.8,0.85-4.22,1.27c-1.21,0.39-2.84,0.8-4.36,1.19
			l-2.3,0.61l-2.23,0.52c-1.5,0.33-2.96,0.71-4.46,0.98l-4.5,0.88l-4.52,0.74c-12.11,1.85-24.53,2.49-36.89,1.93
			c-24.8-1.02-49.23-6.7-72.5-14.71c-5.84-2-11.56-4.23-17.23-6.6c-5.67-2.34-11.28-4.82-16.78-7.49l-4.18-2.08
			c-0.65-0.33-1.23-0.61-1.93-1l-2.23-1.22c-0.21-0.11-0.39-0.22-0.58-0.33c5.09,0.74,10.21,1.3,15.33,1.68
			c2.31,0.21,4.53,0.29,6.67,0.38c0.94,0.03,1.91,0.07,2.86,0.12l0.28,0.01l7.44,0.06l7.66-0.22l4.5-0.31
			c3.04-0.17,5.73-0.48,8.36-0.78l1.86-0.22c12.04-1.46,24.53-4.25,37.14-8.26c8.73,2.26,17.54,3.88,26.32,4.81
			c10.16,1.11,20.27,1.19,30.18,0.41l3.71-0.34l3.68-0.46c1.23-0.13,2.43-0.38,3.65-0.55l1.81-0.29l1.7-0.32
			c1.16-0.22,2.2-0.38,3.62-0.73l3.69-0.83l3.64-0.88l3.61-0.94c19.19-5.21,36.97-13.47,52.6-23.59
			c15.6-10.17,29.13-22.02,40.31-34.32c5.62-6.13,10.65-12.36,15.18-18.51c4.55-6.14,8.6-12.19,12.18-18.04
			c3.42-5.57,6.37-10.96,8.97-16.05l-16.78,5.4c-9.84,3.16-17.77-8.18-11.49-16.41l59.49-77.98c3.91-5.12,12.02-2.16,11.63,4.24
			l-6.06,99.23c-0.48,7.97-10.65,11.08-15.38,4.71l-10.99-14.77c-2.06,5.65-4.47,11.65-7.32,17.96c-3,6.6-6.46,13.52-10.51,20.62
			c-4.09,7.08-8.74,14.36-14.07,21.66C563.8,96.24,557.81,103.59,551.12,110.79z"/>
	</g>
	<rect x="-0.85" class="st0" width="842.71" height="494"/>
	<g class="st2">
		<path class="st3" d="M1004.12,474c-3.28-8.74,5.27-17.38,14.01-14.14c24.17,8.94,48.18,11.98,72.05,9.12
			c32.46-3.9,60.21-18.92,83.25-45.06c21-23.84,32.46-50.7,34.37-80.6c1.9-29.89-4.74-56.64-19.94-80.25
			c-15.21-23.62-38.74-49.46-70.58-77.52l-154.33-136c-11.91-10.5-29.76-10.75-42.2-0.6L561.49,342.31
			c2.95,3.87,6.22,7.97,9.9,12.19c3.58,4.35,7.77,8.65,12.03,13.26c2.25,2.2,4.55,4.47,6.91,6.78c0.59,0.58,1.18,1.15,1.77,1.73
			c0.61,0.56,1.24,1.13,1.86,1.69c1.24,1.13,2.51,2.28,3.78,3.45c10.24,9.19,21.99,18.36,35.15,26.81
			c13.16,8.44,27.67,16.27,43.3,22.71c1.91,0.8,3.84,1.59,5.77,2.39c1.04,0.4,2.08,0.79,3.13,1.18c1.05,0.41,2.1,0.81,3.07,1.13
			c1.96,0.68,3.92,1.39,5.97,2.04c2.04,0.69,4.09,1.31,6.14,1.92c8.24,2.48,16.63,4.48,25.13,5.87c8.49,1.42,17.06,2.12,25.57,2.18
			c2.12,0.05,4.24-0.08,6.36-0.11l3.17-0.19l1.57-0.1l0.01,0.01l0.01-0.01l0.09-0.01l0.01-0.01l0.44-0.04l0.88-0.09l3.53-0.34
			l0.44-0.04l0.37-0.06l0.73-0.11l1.45-0.21c1.88-0.24,4-0.66,6.04-1.03c1.02-0.17,2.04-0.45,3.06-0.67
			c1.01-0.24,2.03-0.44,3.04-0.71c1.99-0.57,4.02-1.04,5.96-1.74c3.97-1.19,7.77-2.79,11.46-4.45c7.38-3.41,14.17-7.68,20.15-12.52
			c2.92-2.5,5.78-4.99,8.27-7.76l0.96-1.02l0.06-0.07l0.14-0.17l0.28-0.33l2.23-2.64l1.13-1.32l0.56-0.65l0.28-0.33
			c0.09-0.1,0.11-0.17,0.18-0.26l1.31-1.94l1.36-1.88l1.42-2.3c0.48-0.76,0.96-1.52,1.45-2.27c0.46-0.76,0.86-1.57,1.29-2.35
			c0.86-1.57,1.75-3.11,2.47-4.75c0.74-1.61,1.6-3.18,2.18-4.85c2.79-6.52,4.86-13.27,6.21-20c1.32-6.74,1.94-13.49,1.87-20.03
			c-0.08-6.53-0.76-12.93-2.28-18.87l-0.23-1.14l-0.05-0.27c0,0,0,0,0-0.01l-0.01-0.01c0-0.03-0.02-0.06-0.02-0.1
			c0.02,0.06,0.07,0.18,0.17,0.44l-0.2-0.67c-0.29-0.9-0.57-1.81-0.85-2.7c-0.28-0.9-0.56-1.79-0.84-2.68l-0.21-0.65l-0.18-0.47
			l-0.37-0.92c-0.5-1.26-0.9-2.49-1.42-3.8c-0.62-1.37-1.23-2.74-1.84-4.08l-0.45-1.01l-0.53-0.97c-0.36-0.65-0.7-1.29-1.05-1.93
			c-0.7-1.29-1.37-2.6-2.16-3.8c-0.76-1.24-1.52-2.46-2.27-3.67c-0.81-1.17-1.65-2.29-2.47-3.44c-0.4-0.56-0.81-1.13-1.22-1.7
			c-0.43-0.54-0.87-1.07-1.3-1.6c-0.87-1.07-1.72-2.13-2.58-3.18c-0.9-1-1.82-1.94-2.73-2.92c-0.89-0.97-1.74-1.98-2.7-2.83
			c-7.34-7.2-14.91-12.65-21.61-16.54c-0.85-0.49-1.67-0.95-2.47-1.41l-0.21-0.12c-0.55-0.3-1.47-0.78-2.02-1.08
			c-1.63-0.8-3.17-1.55-4.59-2.25c-1.39-0.67-2.73-1.15-3.95-1.67c-1.22-0.5-2.33-1.02-3.36-1.39c-4.09-1.39-6.36-2.24-6.36-2.24
			l-7.64-2.54l7.95-1.5c0,0,2.41-0.35,7.12-0.81c2.33-0.1,5.24-0.16,8.7-0.08c1.7,0.14,3.56,0.28,5.52,0.44
			c0.5,0.04,1.01,0.09,1.52,0.13c0.5,0.08,1.01,0.16,1.53,0.25c1.04,0.17,2.11,0.35,3.23,0.53c8.8,1.58,19.48,4.81,30.71,11.06
			c2.85,1.5,5.59,3.37,8.49,5.24c1.38,1.02,2.79,2.06,4.22,3.12c0.71,0.54,1.43,1.07,2.15,1.61c0.68,0.59,1.37,1.18,2.05,1.78
			c5.66,4.68,10.98,10.43,15.99,16.97c1.2,1.67,2.42,3.38,3.65,5.1c0.62,0.86,1.18,1.92,1.77,2.91c0.58,1,1.16,2.01,1.75,3.03
			l0.87,1.53l0.43,0.78l0.32,0.63c0.42,0.83,0.84,1.67,1.27,2.51c0.42,0.84,0.85,1.67,1.28,2.52l0.32,0.64l0.08,0.16l0.33,0.84
			l0.17,0.39l0.63,1.58c3.54,8.44,5.92,17.67,7.13,27.31c1.22,9.64,1.25,19.71-0.11,29.86c-0.43,2.52-0.86,5.06-1.3,7.61
			c-0.55,2.53-1.22,5.05-1.87,7.59c-1.43,5.04-3.19,10.04-5.34,14.94c-0.98,2.49-2.3,4.86-3.52,7.27c-0.65,1.19-1.19,2.43-1.92,3.58
			c-0.71,1.17-1.43,2.32-2.15,3.5c-0.73,1.16-1.42,2.33-2.19,3.47c-0.79,1.12-1.61,2.24-2.43,3.36c-0.81,1.1-1.54,2.3-2.36,3.42
			c-1.4,1.66-2.57,3.55-4.26,4.96c-0.53,0.67-1.05,1.33-1.58,2c-0.11,0.15-0.37,0.23-0.48,0.33l-0.36,0.27l-0.64,0.58l-1.25,1.2
			l-2.5,2.4l-1.21,1.17l-0.79,0.68l-1.58,1.35c-4.19,3.67-8.73,6.88-13.33,9.93c-4.69,2.9-9.46,5.64-14.42,7.92
			c-4.91,2.37-9.97,4.36-15.07,6.13c-10.25,3.37-20.68,5.83-31.19,7.1c-2.65,0.3-5.21,0.62-8.04,0.79l-2.07,0.15l-1.04,0.07
			l-0.51,0.03l-0.44,0.02l-3.55,0.09l-2.1,0.06l-1.96-0.02l-3.9-0.03c-2.59-0.13-5.18-0.18-7.75-0.41
			c-10.28-0.76-20.34-2.39-30.02-4.79c-9.67-2.38-19.03-5.34-27.94-8.9c-2.23-0.88-4.45-1.77-6.62-2.72
			c-2.17-0.9-4.38-1.91-6.56-2.91c-1.13-0.5-2.13-0.98-3.14-1.46c-1.01-0.48-2.01-0.97-3.02-1.45l-0.19-0.09
			c-0.29-0.13-0.19-0.09-0.31-0.15l-0.38-0.2l-0.77-0.4l-1.54-0.8c-1.03-0.53-2.04-1.06-3.07-1.59
			c-16.29-8.59-31.14-18.37-44.22-28.77c-13.09-10.4-24.49-21.3-34.24-31.98c-1.22-1.34-2.41-2.67-3.6-3.99
			c-0.59-0.66-1.18-1.31-1.76-1.95c-0.56-0.68-1.11-1.35-1.66-2.01c-2.18-2.68-4.33-5.29-6.4-7.84
			c-3.93-5.28-7.75-10.19-10.95-15.09c-0.82-1.21-1.63-2.39-2.43-3.56c-0.4-0.58-0.79-1.16-1.17-1.73c-0.37-0.59-0.73-1.17-1.1-1.75
			c-1.27-2.05-2.51-4.06-3.7-5.97l-60.33,49.26l230.82,203.38c51.7,45.56,99.73,65.59,144.08,60.09
			c44.34-5.5,81.17-24.88,110.46-58.14C1013.63,563.98,1021.79,521.13,1004.12,474z M770.22,262.35l-9.77,2.8
			c0,0-0.57,0.18-1.69,0.55c-1.1,0.38-2.75,0.94-4.82,1.76c-4.13,1.64-10.04,4.33-16.61,8.85c-6.55,4.51-13.78,10.81-20.32,19.27
			c-6.54,8.41-12.52,18.91-16.38,30.93c-2.01,5.96-3.35,12.33-4.12,18.83c-0.36,3.25-0.54,6.53-0.49,9.83
			c0.01,0.82,0.01,1.65,0.05,2.48c0.01,0.88,0.09,1.46,0.12,2.25l0.1,1.54l0.02,0.39l0.01,0.19c0-0.03,0-0.06,0-0.08
			c0.01,0.01,0.02,0.02,0.02,0.02l0.07,0.64c0.09,0.85,0.18,1.71,0.27,2.57c1.67,13.74,6.56,27.7,14.19,40.99
			c5.84,10.24,13.29,20.09,22.01,29.16c-1.86-0.24-3.73-0.51-5.56-0.82c-7.69-1.26-15.68-3.13-23.77-5.54
			c-1.87-0.56-3.86-1.17-5.76-1.8l-0.19-0.07c-1.59-0.5-3.13-1.04-4.77-1.62l-1.03-0.37c-0.74-0.25-1.63-0.59-2.68-0.99l-2.98-1.13
			l-5.64-2.33c-3.9-1.61-7.8-3.35-11.68-5.19c-0.44-1.05-0.87-2.09-1.28-3.16c-1.85-4.87-3.42-9.82-4.7-14.79
			c-2.51-9.97-3.78-20.08-3.83-29.93c0.01-1.23,0.03-2.46,0.05-3.68l0.02-0.92l0.01-0.45l0.01-0.2l0.02-0.39l0.09-1.54
			c0.09-1.28,0.17-2.75,0.29-3.92c0.11-1.22,0.25-2.44,0.41-3.65c0.65-4.82,1.61-9.49,2.81-13.98c1.18-4.5,2.64-8.8,4.32-12.9
			c1.66-4.11,3.49-8.03,5.5-11.73c8.09-14.82,18.48-26.33,29.01-34.54c10.56-8.24,21.17-13.2,30.14-15.83
			c8.98-2.66,16.23-3.19,21.06-3.18c2.43,0.01,4.27,0.12,5.5,0.24c1.22,0.12,1.86,0.18,1.86,0.18L770.22,262.35z M962.11,460.93
			c-5.69,6.11-11.98,12.08-18.97,17.7c-6.96,5.61-14.57,10.92-22.78,15.67c-8.21,4.74-17.01,8.94-26.27,12.44
			c-2.32,0.86-4.67,1.68-7.03,2.45c-1.19,0.36-2.37,0.72-3.58,1.08c-1.02,0.33-2.41,0.67-3.7,1.01l-1.95,0.51l-1.89,0.44
			c-1.27,0.28-2.52,0.6-3.79,0.83l-3.82,0.74l-3.84,0.63c-10.27,1.56-20.78,2.11-31.26,1.63c-21.02-0.85-41.73-5.68-61.45-12.48
			c-4.94-1.69-9.8-3.59-14.61-5.59c-4.81-1.98-9.57-4.09-14.22-6.34l-3.54-1.76c-0.54-0.28-1.04-0.51-1.63-0.84l-1.88-1.03
			c-0.17-0.09-0.33-0.18-0.5-0.28c4.32,0.62,8.65,1.1,12.99,1.42c1.95,0.17,3.85,0.24,5.65,0.32c0.8,0.03,1.62,0.06,2.42,0.1
			l0.23,0.01l6.3,0.06l6.5-0.18l3.82-0.26c2.58-0.15,4.86-0.41,7.08-0.66l1.57-0.18c10.21-1.23,20.79-3.6,31.48-7
			c7.41,1.91,14.87,3.29,22.32,4.08c8.61,0.94,17.18,1.01,25.58,0.35l3.15-0.29l3.13-0.39c1.04-0.12,2.06-0.32,3.1-0.47l1.53-0.24
			l1.44-0.27c0.98-0.18,1.85-0.32,3.07-0.61l3.14-0.7l3.09-0.75l3.07-0.8c16.26-4.42,31.33-11.42,44.59-20
			c13.23-8.62,24.69-18.67,34.17-29.09c4.76-5.2,9.03-10.48,12.87-15.68c3.86-5.21,7.28-10.33,10.32-15.29
			c2.9-4.72,5.4-9.28,7.61-13.61l-14.22,4.57c-8.34,2.69-15.06-6.93-9.74-13.92l50.39-66.08c3.32-4.34,10.19-1.83,9.86,3.6
			l-5.14,84.1c-0.41,6.75-9.02,9.39-13.03,4l-9.3-12.54c-1.74,4.79-3.79,9.88-6.21,15.23c-2.54,5.59-5.48,11.46-8.92,17.48
			c-3.47,6-7.4,12.17-11.92,18.37C972.86,448.6,967.79,454.83,962.11,460.93z"/>
	</g>
	<g class="st2">
		<path class="st3" d="M202.62,393.38c-9.6,4.84-20.55-3.89-17.93-14.3c7.26-28.8,7.76-56.69,1.52-83.67
			c-8.49-36.7-29.13-66.64-61.95-89.8c-29.91-21.12-62.11-30.91-96.62-29.4c-34.49,1.52-64.31,12.45-89.48,32.78
			c-25.17,20.35-51.87,50.5-80.07,90.47l-136.68,193.67c-10.56,14.96-8.63,35.43,4.54,48.43l380.62,375.29
			c4.07-3.85,8.36-8.12,12.75-12.85c4.54-4.63,8.94-9.97,13.7-15.43c2.24-2.85,4.55-5.77,6.91-8.76c0.59-0.75,1.18-1.5,1.77-2.24
			c0.57-0.77,1.14-1.56,1.71-2.34c1.14-1.56,2.31-3.16,3.48-4.77c9.26-12.87,18.3-27.47,26.37-43.6
			c8.04-16.12,15.22-33.71,20.65-52.43c0.68-2.3,1.36-4.59,2.03-6.9c0.33-1.24,0.65-2.49,0.97-3.73c0.34-1.26,0.66-2.52,0.92-3.65
			c0.55-2.34,1.11-4.66,1.61-7.09c0.54-2.42,0.99-4.85,1.44-7.28c1.81-9.75,3.07-19.62,3.62-29.52c0.58-9.9,0.32-19.81-0.67-29.57
			c-0.21-2.44-0.62-4.85-0.92-7.28l-0.61-3.6l-0.32-1.8l0.01-0.01l-0.01-0.01l-0.02-0.1l-0.01-0.01l-0.1-0.49l-0.21-1l-0.83-4
			l-0.1-0.49l-0.12-0.42l-0.21-0.83l-0.42-1.64c-0.51-2.13-1.25-4.49-1.92-6.8c-0.32-1.16-0.76-2.28-1.15-3.42
			c-0.4-1.13-0.75-2.28-1.19-3.39c-0.91-2.21-1.7-4.48-2.73-6.61c-1.86-4.39-4.16-8.54-6.51-12.59
			c-4.81-8.04-10.55-15.28-16.83-21.53c-3.22-3.03-6.43-6.01-9.91-8.51l-1.29-0.97l-0.09-0.06l-0.21-0.13l-0.42-0.28l-3.3-2.24
			l-1.65-1.13l-0.82-0.57l-0.42-0.28c-0.13-0.09-0.21-0.11-0.32-0.18l-2.38-1.26l-2.32-1.33l-2.81-1.34
			c-0.93-0.46-1.86-0.92-2.79-1.38c-0.93-0.44-1.91-0.79-2.86-1.19c-1.91-0.79-3.77-1.62-5.74-2.24c-1.94-0.65-3.83-1.44-5.83-1.91
			c-7.82-2.38-15.8-3.93-23.68-4.64c-7.89-0.68-15.69-0.56-23.19,0.33c-7.48,0.9-14.71,2.47-21.33,4.96l-1.28,0.4l-0.3,0.09
			c0,0,0,0-0.01,0l-0.01,0.01c-0.03,0-0.08,0.03-0.12,0.03c0.07-0.04,0.2-0.11,0.48-0.26l-0.74,0.32c-1,0.44-2.01,0.88-2.99,1.31
			c-0.99,0.44-1.99,0.87-2.97,1.3l-0.72,0.32l-0.51,0.27l-1.02,0.53c-1.38,0.73-2.73,1.34-4.17,2.1c-1.49,0.88-2.98,1.75-4.45,2.62
			l-1.11,0.64l-1.05,0.73c-0.7,0.49-1.38,0.97-2.08,1.45c-1.39,0.96-2.81,1.89-4.08,2.96c-1.33,1.03-2.64,2.05-3.92,3.06
			c-1.24,1.07-2.43,2.19-3.63,3.26c-0.6,0.53-1.2,1.08-1.8,1.61c-0.57,0.57-1.13,1.13-1.68,1.7c-1.13,1.13-2.23,2.24-3.32,3.35
			c-1.03,1.15-2,2.33-3.01,3.48c-1,1.14-2.05,2.25-2.91,3.44c-7.35,9.3-12.64,18.65-16.28,26.81c-0.46,1.03-0.89,2.03-1.31,3.01
			l-0.11,0.25c-0.27,0.67-0.71,1.78-0.99,2.46c-0.72,1.98-1.39,3.82-2.02,5.54c-0.59,1.68-0.99,3.27-1.43,4.73
			c-0.42,1.46-0.89,2.81-1.18,4.02c-1.09,4.86-1.79,7.56-1.79,7.56l-1.96,9.06l-2.71-8.92c0,0-0.7-2.73-1.81-8.06
			c-0.41-2.66-0.83-5.98-1.18-9.95c-0.06-1.98-0.12-4.11-0.18-6.38c-0.01-0.58-0.03-1.17-0.04-1.76c0.03-0.58,0.06-1.18,0.1-1.79
			c0.07-1.22,0.14-2.47,0.21-3.76c0.72-10.28,3.1-22.91,8.87-36.56c1.37-3.45,3.18-6.82,4.95-10.38c1-1.7,2.02-3.45,3.04-5.22
			c0.53-0.88,1.06-1.77,1.58-2.67c0.59-0.86,1.19-1.72,1.79-2.58c4.65-7.06,10.59-13.87,17.47-20.42c1.77-1.59,3.57-3.19,5.39-4.82
			c0.91-0.81,2.07-1.59,3.11-2.39c1.08-0.79,2.16-1.58,3.25-2.39l1.65-1.18l0.84-0.6l0.68-0.44c0.9-0.59,1.81-1.18,2.71-1.77
			c0.91-0.58,1.82-1.19,2.73-1.78l0.69-0.45l0.17-0.11l0.92-0.48l0.42-0.24l1.73-0.92c9.23-5.1,19.51-8.97,30.39-11.55
			c10.9-2.6,22.43-3.88,34.23-3.58c2.94,0.18,5.9,0.37,8.87,0.54c2.96,0.32,5.93,0.78,8.92,1.2c5.95,1.01,11.89,2.41,17.79,4.27
			c2.97,0.82,5.86,2.04,8.76,3.13c1.45,0.6,2.94,1.07,4.35,1.76c1.43,0.67,2.85,1.35,4.27,2.03c1.41,0.69,2.85,1.34,4.24,2.08
			c1.39,0.77,2.76,1.57,4.15,2.37c1.37,0.79,2.83,1.48,4.21,2.28c2.08,1.4,4.38,2.5,6.21,4.27c0.84,0.52,1.65,1.03,2.49,1.56
			c0.18,0.11,0.31,0.4,0.44,0.51l0.35,0.38l0.74,0.66l1.54,1.29l3.06,2.56l1.49,1.25l0.88,0.82l1.75,1.65
			c4.72,4.35,8.96,9.14,13.02,14.04c3.89,5.02,7.64,10.14,10.86,15.55c3.33,5.33,6.22,10.89,8.89,16.51
			c5.14,11.32,9.24,22.98,12.01,34.86c0.67,2.98,1.36,5.89,1.9,9.1l0.42,2.35l0.21,1.18l0.1,0.58l0.07,0.51l0.55,4.05l0.33,2.4
			l0.22,2.25l0.44,4.47c0.16,2.98,0.44,5.96,0.49,8.93c0.4,11.87-0.22,23.61-1.77,34.99c-1.53,11.38-3.76,22.46-6.73,33.1
			c-0.73,2.67-1.49,5.31-2.29,7.93c-0.77,2.61-1.64,5.25-2.52,7.88c-0.44,1.36-0.86,2.57-1.29,3.77c-0.43,1.22-0.86,2.42-1.29,3.63
			l-0.08,0.23c-0.11,0.35-0.08,0.23-0.13,0.37l-0.18,0.47L222.2,778l-0.73,1.87c-0.49,1.24-0.97,2.48-1.44,3.71
			c-7.82,19.74-17.18,37.95-27.48,54.23c-10.29,16.29-21.38,30.7-32.4,43.2c-1.38,1.56-2.77,3.1-4.12,4.62
			c-0.68,0.76-1.36,1.52-2.03,2.26c-0.71,0.73-1.4,1.44-2.1,2.15c-2.8,2.84-5.52,5.61-8.2,8.31c-5.56,5.16-10.72,10.14-15.93,14.42
			c-1.28,1.09-2.54,2.17-3.78,3.23c-0.62,0.53-1.23,1.05-1.85,1.56c-0.62,0.5-1.25,0.98-1.88,1.47c-2.2,1.71-4.34,3.38-6.39,4.98
			l63.92,63.02L382.23,697.4c45.79-64.89,62.8-122.4,51.01-172.53c-11.8-50.12-38.56-89.93-80.29-119.37
			C304.55,371.34,254.44,367.3,202.62,393.38z M-10.9,687.59l4.42,10.85c0,0,0.28,0.64,0.84,1.88c0.57,1.22,1.41,3.03,2.61,5.3
			c2.4,4.53,6.2,10.97,12.2,17.94c5.98,6.96,14.09,14.45,24.6,20.89c10.45,6.45,23.21,11.99,37.48,14.93
			c7.08,1.57,14.55,2.31,22.09,2.39c3.76,0.01,7.56-0.19,11.33-0.65c0.94-0.11,1.89-0.22,2.83-0.36c1.01-0.12,1.66-0.29,2.56-0.42
			l1.76-0.31l0.45-0.08l0.22-0.04c-0.04,0-0.08,0.02-0.1,0.01c0.01-0.02,0.02-0.02,0.02-0.02l0.72-0.16
			c0.97-0.21,1.94-0.42,2.91-0.63c15.53-3.62,30.91-10.95,45.21-21.33c11.01-7.96,21.37-17.72,30.68-28.84
			c-0.04,2.16-0.12,4.33-0.25,6.48c-0.5,8.96-1.64,18.35-3.41,27.92c-0.42,2.21-0.86,4.57-1.36,6.82l-0.05,0.22
			c-0.37,1.89-0.8,3.71-1.26,5.66l-0.29,1.23c-0.2,0.88-0.47,1.95-0.8,3.19l-0.93,3.55l-1.97,6.75c-1.36,4.67-2.87,9.35-4.5,14.03
			c-1.15,0.63-2.29,1.25-3.45,1.86c-5.36,2.72-10.83,5.14-16.37,7.21c-11.11,4.12-22.54,6.81-33.82,8.09
			c-1.41,0.14-2.82,0.26-4.22,0.4l-1.05,0.09l-0.51,0.05l-0.23,0.01l-0.45,0.03l-1.78,0.09c-1.48,0.06-3.17,0.15-4.53,0.15
			c-1.41,0.02-2.83,0.01-4.23-0.02c-5.6-0.15-11.08-0.67-16.37-1.49c-5.3-0.8-10.41-1.92-15.31-3.35c-4.91-1.39-9.62-3-14.13-4.85
			c-17.99-7.43-32.47-17.91-43.17-28.96C6.72,753.02-0.27,741.48-4.39,731.53c-4.15-9.96-5.67-18.21-6.24-23.74
			c-0.29-2.78-0.39-4.9-0.41-6.33c-0.02-1.42-0.02-2.15-0.02-2.15L-10.9,687.59z M192.86,443.14c7.7,5.76,15.33,12.24,22.62,19.55
			c7.29,7.29,14.32,15.34,20.78,24.16c6.45,8.82,12.35,18.38,17.5,28.56c1.27,2.56,2.5,5.14,3.69,7.75
			c0.56,1.32,1.12,2.64,1.68,3.96c0.51,1.13,1.07,2.68,1.62,4.11l0.83,2.17l0.74,2.11c0.47,1.42,0.99,2.81,1.42,4.23l1.33,4.28
			l1.19,4.32c3.06,11.57,5,23.55,5.74,35.62c1.62,24.19-1.34,48.52-6.67,71.96c-1.33,5.87-2.89,11.68-4.59,17.44
			c-1.68,5.76-3.5,11.46-5.51,17.09l-1.58,4.28c-0.26,0.65-0.46,1.26-0.76,1.98l-0.95,2.28c-0.08,0.22-0.16,0.4-0.26,0.6
			c0.18-5.02,0.19-10.05,0.02-15.06c-0.04-2.26-0.19-4.44-0.33-6.52c-0.06-0.93-0.14-1.86-0.19-2.79l-0.01-0.27l-0.72-7.23
			l-1.01-7.42l-0.78-4.34c-0.49-2.93-1.07-5.52-1.64-8.03l-0.41-1.78c-2.68-11.55-6.7-23.38-11.92-35.21
			c1.27-8.72,1.93-17.45,1.91-26.08c0.01-9.99-0.97-19.81-2.77-29.35l-0.72-3.56l-0.84-3.53c-0.26-1.18-0.61-2.32-0.92-3.49
			l-0.46-1.72l-0.48-1.62c-0.33-1.1-0.6-2.09-1.08-3.43l-1.2-3.5l-1.24-3.44l-1.29-3.41c-7.07-18.09-16.96-34.49-28.43-48.61
			c-11.51-14.09-24.44-25.98-37.57-35.55c-6.54-4.82-13.12-9.04-19.56-12.8c-6.44-3.77-12.74-7.07-18.8-9.93
			c-5.77-2.73-11.31-5.04-16.53-7.03l7,15.73c4.1,9.22-6.07,18.12-14.74,12.87l-81.97-49.58c-5.39-3.26-3.36-11.45,2.89-11.74
			l97-4.52c7.79-0.36,11.88,9.18,6.19,14.43l-13.21,12.21c5.7,1.4,11.78,3.12,18.21,5.23c6.72,2.22,13.81,4.85,21.12,8.05
			c7.3,3.23,14.87,6.99,22.52,11.38C177.4,432.34,185.16,437.38,192.86,443.14z"/>
	</g>
</g>
</svg>
