<?xml version="1.0" encoding="utf-8"?>
<!-- Generator: Adobe Illustrator 24.3.0, SVG Export Plug-In . SVG Version: 6.00 Build 0)  -->
<svg version="1.1" id="Layer_1" xmlns="http://www.w3.org/2000/svg" xmlns:xlink="http://www.w3.org/1999/xlink" x="0px" y="0px"
	 viewBox="0 0 403 227" style="enable-background:new 0 0 403 227;" xml:space="preserve">
<style type="text/css">
	.st0{fill:#F5F5F5;}
	.st1{fill:none;stroke:#808080;stroke-width:0.25;stroke-dasharray:0.5,0.5;}
	.st2{fill:#262626;}
	.st3{fill:#CCCCCC;}
</style>
<rect class="st0" width="403" height="227"/>
<g>
	<polyline class="st1" points="106.3,129.8 95,129.8 81.3,129.8 74,129.8 63.9,129.8 62.7,129.8 40,129.8 39.9,129.8 	"/>
	<polyline class="st1" points="106.3,86.1 95,86.1 39.9,86.1 	"/>
	<polyline class="st1" points="106.3,97.4 95,97.4 82.5,97.4 74,97.4 70.8,97.4 62.7,97.4 40,97.4 39.9,97.4 	"/>
	<line class="st1" x1="62.7" y1="86.1" x2="62.7" y2="141.2"/>
	<line class="st1" x1="40" y1="86.1" x2="40" y2="141.2"/>
	<line class="st1" x1="95" y1="86.1" x2="95" y2="141.2"/>
	<line class="st1" x1="74" y1="86.1" x2="74" y2="141.2"/>
	<line class="st1" x1="62.7" y1="86.1" x2="62.7" y2="141.2"/>
	<line class="st1" x1="340.1" y1="85.9" x2="340.1" y2="141.1"/>
	<line class="st1" x1="362.7" y1="85.9" x2="362.7" y2="141.1"/>
	<polyline class="st1" points="106.3,141.1 95,141.1 74,141.1 62.7,141.1 40,141.1 39.9,141.1 	"/>
	<line class="st1" x1="106.3" y1="86.1" x2="106.3" y2="141.2"/>
	<path class="st2" d="M66.5,137.1v-2.3l-0.6,0.4v-0.6l0.6-0.5h0.5v2.9H66.5z M70.2,137.1l-0.7-1l-0.7,1h-0.6l1-1.5l-1-1.4h0.6l0.6,1
		l0.6-1h0.6l-1,1.4l1,1.5H70.2z"/>
	<path class="st2" d="M203.2,136.8v-2.3l-0.6,0.4v-0.6l0.6-0.5h0.5v2.9H203.2z M206.9,136.8l-0.7-1l-0.7,1h-0.6l1-1.5l-1-1.4h0.6
		l0.6,1l0.6-1h0.6l-1,1.4l1,1.5H206.9z"/>
	<path class="st2" d="M98.8,117v-2.3l-0.6,0.4v-0.6l0.6-0.5h0.5v2.9H98.8z M102.5,117l-0.7-1l-0.7,1h-0.6l1-1.5l-1-1.4h0.6l0.6,1
		l0.6-1h0.6l-1,1.4l1,1.5H102.5z"/>
	<path class="st2" d="M205.5,93v-2.3l-0.6,0.4v-0.6l0.6-0.5h0.5V93H205.5z M209.1,93l-0.7-1l-0.7,1h-0.6l1-1.5l-1-1.4h0.6l0.6,1
		l0.6-1h0.6l-1,1.4l1,1.5H209.1z"/>
	<path class="st2" d="M48.4,116.6v-0.4l1.1-1c0.2-0.2,0.3-0.4,0.3-0.6c0-0.2-0.2-0.4-0.5-0.4c-0.3,0-0.5,0.2-0.5,0.5h-0.5
		c0-0.6,0.4-1,1-1c0.6,0,1,0.4,1,0.8c0,0.4-0.2,0.7-0.5,0.9l-0.8,0.7h1.3v0.5H48.4z M52.1,116.6l-0.5-0.7l-0.5,0.7h-0.6l0.8-1.1
		l-0.7-1h0.6l0.4,0.6l0.4-0.6h0.6l-0.7,1l0.8,1.1H52.1z"/>
	<path class="st2" d="M349.2,120.7v-0.4l1.1-1c0.2-0.2,0.3-0.4,0.3-0.6c0-0.2-0.2-0.4-0.5-0.4c-0.3,0-0.5,0.2-0.5,0.5h-0.5
		c0-0.6,0.4-1,1-1c0.6,0,1,0.4,1,0.8c0,0.4-0.2,0.7-0.5,0.9l-0.8,0.7h1.3v0.5H349.2z M352.9,120.7l-0.5-0.7l-0.5,0.7h-0.6l0.8-1.1
		l-0.7-1h0.6l0.4,0.6l0.4-0.6h0.6l-0.7,1l0.8,1.1H352.9z"/>
	<path class="st2" d="M86.4,136.8h-2.3l0.4,0.6h-0.6l-0.5-0.6v-0.5h2.9V136.8z M86.4,134.5l-0.7,0.5l0.7,0.5v0.6l-1.1-0.8l-1,0.7
		v-0.6l0.6-0.4l-0.6-0.4v-0.6l1,0.7l1.1-0.8V134.5z"/>
	<path class="st2" d="M86.4,93.1h-2.3l0.4,0.6h-0.6L83.5,93v-0.5h2.9V93.1z M86.4,90.8l-0.7,0.5l0.7,0.5v0.6l-1.1-0.8l-1,0.7v-0.6
		l0.6-0.4l-0.6-0.4v-0.6l1,0.7l1.1-0.8V90.8z"/>
	<g>
		<path class="st3" d="M88.5,113.9c-0.5-0.2-0.4-0.9,0.1-1.1c1.4-0.5,2.5-1.3,3.4-2.3c1.2-1.4,1.9-3.1,1.9-5c0-1.8-0.5-3.4-1.6-4.7
			c-1-1.3-2.3-2.2-3.9-2.7c-1.5-0.4-3.5-0.7-5.9-0.7H70.8c-0.9,0-1.7,0.7-1.8,1.6l-4.3,26c0.3,0.1,0.6,0.1,0.9,0.1
			c0.3,0.1,0.7,0.1,1,0.1c0.2,0,0.4,0,0.5,0c0,0,0.1,0,0.1,0c0,0,0.1,0,0.1,0c0.1,0,0.2,0,0.3,0c0.8,0,1.6,0,2.5-0.2
			c0.9-0.1,1.8-0.3,2.7-0.7c0.1,0,0.2-0.1,0.3-0.1c0.1,0,0.1,0,0.2-0.1c0.1,0,0.1,0,0.2-0.1c0.1,0,0.2-0.1,0.3-0.1
			c0.1,0,0.2-0.1,0.3-0.1c0.4-0.2,0.9-0.4,1.3-0.7c0.4-0.3,0.8-0.5,1.2-0.9c0.1-0.1,0.2-0.2,0.3-0.2l0.1-0.1l0.1-0.1h0v0l0,0v0l0,0
			l0,0l0.1-0.1l0,0l0,0l0,0l0.1-0.1c0.1-0.1,0.1-0.2,0.2-0.3c0,0,0.1-0.1,0.1-0.1c0,0,0.1-0.1,0.1-0.1c0.1-0.1,0.1-0.2,0.2-0.3
			c0.1-0.2,0.2-0.4,0.3-0.6c0.2-0.4,0.3-0.9,0.4-1.3c0-0.2,0.1-0.4,0.1-0.6l0-0.1v0l0,0l0,0l0-0.2l0-0.1l0,0l0,0c0,0,0,0,0,0l0-0.1
			l0-0.1l0-0.2c0-0.1,0-0.1,0-0.2c0,0,0-0.1,0-0.1c0-0.1,0-0.2-0.1-0.3c0-0.1-0.1-0.2-0.1-0.3c-0.1-0.4-0.3-0.7-0.5-1.1
			c-0.2-0.3-0.4-0.6-0.7-0.9c-0.2-0.3-0.5-0.5-0.8-0.7l-0.1,0l0,0c0,0,0,0,0,0h0c0,0,0,0,0,0c0,0,0,0,0,0l0,0c0,0-0.1-0.1-0.1-0.1
			c0,0-0.1-0.1-0.1-0.1l0,0l0,0l-0.1,0c-0.1,0-0.1-0.1-0.2-0.1c-0.1,0-0.2-0.1-0.2-0.1l-0.1,0l-0.1,0c0,0-0.1,0-0.1,0
			c-0.1,0-0.2-0.1-0.2-0.1c-0.1,0-0.2,0-0.2-0.1c-0.1,0-0.2,0-0.2-0.1c0,0-0.1,0-0.1,0c0,0-0.1,0-0.1,0c-0.1,0-0.2,0-0.2,0
			c-0.1,0-0.2,0-0.2,0c-0.1,0-0.1,0-0.2,0c-0.6,0-1.1,0-1.5,0.1c-0.1,0-0.1,0-0.2,0l0,0c0,0-0.1,0-0.1,0c-0.1,0-0.2,0.1-0.3,0.1
			c-0.1,0-0.2,0.1-0.2,0.1c-0.1,0-0.1,0-0.2,0.1c-0.2,0.1-0.4,0.1-0.4,0.1l-0.4,0.2l0.3-0.4c0,0,0.1-0.1,0.3-0.3
			c0.1-0.1,0.2-0.2,0.4-0.3c0.1-0.1,0.2-0.1,0.3-0.2c0,0,0,0,0.1-0.1c0,0,0,0,0.1,0c0.1,0,0.1-0.1,0.2-0.1c0.4-0.3,1-0.5,1.7-0.7
			c0.2,0,0.4-0.1,0.6-0.1c0.1,0,0.2,0,0.3,0c0.1,0,0.1,0,0.2,0c0.1,0,0.1,0,0.2,0c0.4,0,0.9,0,1.3,0.1c0.1,0,0.2,0.1,0.3,0.1
			c0.1,0,0.1,0,0.2,0.1c0.1,0,0.1,0,0.2,0.1l0.1,0l0,0l0,0c0,0,0.1,0,0.1,0.1c0,0,0.1,0,0.1,0.1l0,0l0,0l0,0l0,0l0.1,0
			c0.5,0.2,0.9,0.5,1.3,0.9c0.4,0.4,0.8,0.8,1.1,1.3c0.1,0.1,0.2,0.2,0.2,0.4c0.1,0.1,0.1,0.3,0.2,0.4c0.1,0.3,0.2,0.5,0.3,0.8
			c0.1,0.1,0.1,0.3,0.1,0.4c0,0.1,0,0.1,0.1,0.2c0,0.1,0,0.2,0,0.2c0,0.1,0,0.2,0,0.2c0,0.1,0,0.2,0,0.2c0,0.1,0,0.2,0,0.2
			c0,0.1,0,0.2,0,0.4c0,0,0,0.1,0,0.1c0,0,0,0,0,0l0,0l0,0l0,0.1l0,0.2l0,0.1l0,0.1l0,0.1c0,0.3-0.1,0.6-0.2,0.9
			c-0.1,0.3-0.2,0.6-0.3,0.9c-0.1,0.3-0.3,0.6-0.4,0.8c-0.3,0.5-0.7,1-1.1,1.5c-0.1,0.1-0.2,0.2-0.3,0.3l-0.1,0.1l0,0l0,0l0,0
			l-0.1,0.1l-0.1,0.1l-0.1,0.1l-0.2,0.1c-0.1,0.1-0.2,0.2-0.3,0.3c-0.5,0.4-1,0.7-1.5,0.9c-0.5,0.3-1,0.5-1.5,0.7
			c-0.1,0-0.3,0.1-0.4,0.1c-0.1,0-0.3,0.1-0.4,0.1c-0.1,0-0.1,0-0.2,0.1c-0.1,0-0.1,0-0.2,0.1l0,0c0,0,0,0,0,0l0,0l0,0l-0.1,0
			c-0.1,0-0.1,0-0.2,0c-1,0.2-2,0.4-3,0.4c-0.9,0-1.8,0-2.7-0.1c-0.1,0-0.2,0-0.3,0c0,0-0.1,0-0.1,0c0,0-0.1,0-0.1,0
			c-0.2,0-0.4-0.1-0.6-0.1c-0.4-0.1-0.7-0.1-1-0.2c-0.1,0-0.2,0-0.2-0.1c0,0-0.1,0-0.1,0c0,0-0.1,0-0.1,0c-0.1,0-0.3-0.1-0.4-0.1
			l-0.7,4.4h17.5c3.9,0,6.7-0.9,8.4-2.8c1.7-1.9,2.5-4.1,2.5-6.6C92.2,117.4,91,115.2,88.5,113.9z M70.6,113.7l-0.3,0.5
			c0,0,0,0-0.1,0.1c0,0.1-0.1,0.1-0.1,0.3c-0.1,0.2-0.3,0.6-0.4,1c-0.1,0.4-0.2,1-0.1,1.6c0,0.6,0.2,1.3,0.5,1.9
			c0.1,0.3,0.3,0.7,0.5,1c0.1,0.2,0.2,0.3,0.3,0.4c0,0,0.1,0.1,0.1,0.1c0,0,0.1,0.1,0.1,0.1l0.1,0.1l0,0l0,0c0,0,0,0,0,0
			c0,0,0,0,0,0l0,0c0,0,0.1,0.1,0.1,0.1c0.6,0.5,1.3,0.9,2.1,1.2c0.6,0.2,1.3,0.4,2,0.4c-0.1,0.1-0.2,0.1-0.3,0.2
			c-0.4,0.2-0.8,0.5-1.2,0.7c-0.1,0-0.2,0.1-0.3,0.1l0,0c-0.1,0-0.2,0.1-0.3,0.1l-0.1,0c0,0-0.1,0-0.2,0.1l-0.2,0.1l-0.3,0.1
			c-0.2,0.1-0.5,0.2-0.7,0.2c-0.1,0-0.1-0.1-0.2-0.1c-0.3-0.1-0.5-0.3-0.8-0.5c-0.5-0.3-0.9-0.7-1.3-1.1c0-0.1-0.1-0.1-0.1-0.2l0,0
			l0,0l0,0l0,0l-0.1-0.1c0-0.1-0.1-0.1-0.1-0.2c0-0.1-0.1-0.1-0.1-0.2c-0.2-0.2-0.3-0.5-0.4-0.7c-0.1-0.2-0.2-0.5-0.3-0.7
			c-0.1-0.2-0.2-0.5-0.2-0.7c-0.2-0.9-0.2-1.8-0.1-2.6c0.1-0.7,0.4-1.4,0.7-1.8c0.3-0.4,0.6-0.7,0.8-0.9c0.1-0.1,0.2-0.2,0.2-0.2
			c0.1,0,0.1-0.1,0.1-0.1L70.6,113.7z M86.2,114.9c0,0.5-0.1,1-0.1,1.5c-0.1,0.5-0.2,1-0.4,1.5c-0.2,0.5-0.4,1-0.7,1.5
			c-0.1,0.1-0.1,0.2-0.2,0.4c0,0.1-0.1,0.1-0.1,0.2c0,0.1-0.1,0.1-0.1,0.2l-0.1,0.1l-0.1,0.1c0,0.1-0.1,0.1-0.1,0.2l-0.1,0.2
			l-0.1,0.2c-0.4,0.5-0.8,0.9-1.3,1.2c-0.9,0.8-2,1.3-3.1,1.8c-0.3,0.1-0.6,0.2-0.8,0.3c-0.3,0.1-0.6,0.2-0.8,0.3l-0.2,0.1
			c0,0-0.1,0-0.1,0l-0.1,0c0,0,0,0,0,0c0.2-0.1,0.4-0.3,0.6-0.4c0.1-0.1,0.2-0.1,0.3-0.2c0,0,0.1-0.1,0.1-0.1l0,0l0.3-0.2l0.3-0.3
			l0.2-0.2c0.1-0.1,0.2-0.2,0.3-0.3l0.1-0.1c0.4-0.4,0.7-0.9,1.1-1.5c0.4-0.2,0.8-0.4,1.1-0.7c0.4-0.3,0.8-0.6,1.1-0.9l0.1-0.1
			l0.1-0.1c0,0,0.1-0.1,0.1-0.1l0.1-0.1l0.1-0.1c0,0,0.1-0.1,0.1-0.1l0.1-0.1l0.1-0.1l0.1-0.1c0.5-0.8,0.9-1.7,1.1-2.5
			c0.2-0.9,0.4-1.7,0.4-2.5c0-0.4,0-0.8,0-1.2c0-0.4-0.1-0.7-0.1-1c-0.1-0.3-0.1-0.6-0.2-0.9l-0.4,0.7c-0.3,0.4-0.9,0.3-0.9-0.2
			l-0.3-4.7c0-0.3,0.4-0.5,0.6-0.2l2.9,3.8c0.2,0.3,0,0.7-0.4,0.7l-0.9-0.2c0.1,0.3,0.2,0.6,0.3,0.9c0.1,0.3,0.2,0.7,0.3,1.1
			c0.1,0.4,0.1,0.8,0.2,1.2C86.2,114,86.2,114.4,86.2,114.9z"/>
	</g>
	<line class="st1" x1="110" y1="129.6" x2="363.1" y2="129.6"/>
	<line class="st1" x1="39.9" y1="105.9" x2="363.1" y2="105.9"/>
	<line class="st1" x1="106.3" y1="97.2" x2="363.1" y2="97.2"/>
	<line class="st1" x1="106.3" y1="85.9" x2="363.1" y2="85.9"/>
	<line class="st1" x1="106.3" y1="141.1" x2="363.1" y2="141.1"/>
	<g>
		<path class="st3" d="M106.3,129.5v-23.6h11.1c2.8,0,5,0.6,6.4,1.7c1.5,1.1,2.2,2.6,2.2,4.5c0,1.3-0.3,2.3-0.9,3.2
			c-0.6,0.9-1.4,1.6-2.3,2.1c-1,0.5-2,0.7-3.2,0.7l0.6-1.2c1.3,0,2.5,0.2,3.6,0.7c1.1,0.5,1.9,1.2,2.5,2.1c0.6,0.9,0.9,2.1,0.9,3.4
			c0,2-0.8,3.6-2.3,4.7c-1.5,1.1-3.8,1.7-6.9,1.7H106.3z M110.7,126.1h7.1c1.6,0,2.9-0.3,3.7-0.8c0.9-0.5,1.3-1.4,1.3-2.6
			c0-1.2-0.4-2-1.3-2.6c-0.9-0.6-2.1-0.8-3.7-0.8h-7.4v-3.4h6.5c1.5,0,2.7-0.3,3.5-0.8c0.8-0.5,1.2-1.3,1.2-2.4
			c0-1.1-0.4-1.9-1.2-2.5c-0.8-0.5-2-0.8-3.5-0.8h-6.2V126.1z"/>
		<path class="st3" d="M130.9,129.5v-17.1h3.8v4.7l-0.4-1.4c0.5-1.2,1.3-2,2.4-2.6c1.1-0.6,2.5-0.9,4.1-0.9v3.8c-0.2,0-0.3,0-0.4,0
			c-0.1,0-0.3,0-0.4,0c-1.5,0-2.8,0.4-3.7,1.3c-0.9,0.9-1.3,2.2-1.3,4v8.3H130.9z"/>
		<path class="st3" d="M148.1,129.8c-1.3,0-2.4-0.2-3.4-0.7c-1-0.4-1.7-1-2.2-1.8c-0.5-0.8-0.8-1.7-0.8-2.6c0-1,0.2-1.8,0.7-2.6
			c0.5-0.8,1.2-1.4,2.3-1.8c1-0.4,2.4-0.7,4.2-0.7h5v2.7h-4.7c-1.3,0-2.3,0.2-2.7,0.7c-0.5,0.4-0.7,1-0.7,1.7c0,0.7,0.3,1.3,0.9,1.7
			c0.6,0.4,1.4,0.6,2.4,0.6c1,0,1.9-0.2,2.6-0.7c0.8-0.4,1.4-1.1,1.7-2l0.6,2.4c-0.4,1-1.1,1.8-2.1,2.3
			C150.9,129.5,149.6,129.8,148.1,129.8z M153.5,129.5V126l-0.2-0.7v-6.1c0-1.2-0.4-2.1-1.1-2.7c-0.7-0.7-1.8-1-3.3-1
			c-0.9,0-1.9,0.2-2.8,0.4c-0.9,0.3-1.7,0.7-2.4,1.2l-1.6-2.9c0.9-0.7,2-1.2,3.3-1.6c1.3-0.4,2.6-0.5,3.9-0.5c2.5,0,4.4,0.6,5.8,1.8
			c1.3,1.2,2,3,2,5.5v10H153.5z"/>
		<path class="st3" d="M172.1,112.2c1.4,0,2.6,0.3,3.7,0.8c1.1,0.5,1.9,1.4,2.5,2.5c0.6,1.1,0.9,2.5,0.9,4.3v9.8h-4v-9.3
			c0-1.5-0.4-2.6-1.1-3.4c-0.7-0.7-1.7-1.1-3-1.1c-0.9,0-1.8,0.2-2.5,0.6c-0.7,0.4-1.3,1-1.7,1.7s-0.6,1.7-0.6,2.9v8.7h-4v-17.1h3.8
			v4.6l-0.7-1.4c0.6-1.1,1.4-1.9,2.6-2.5C169.2,112.5,170.6,112.2,172.1,112.2z"/>
		<path class="st3" d="M191.6,129.8c-1.6,0-3.1-0.4-4.4-1.1c-1.3-0.7-2.3-1.7-3.1-3.1c-0.7-1.3-1.1-2.9-1.1-4.6
			c0-1.8,0.4-3.3,1.1-4.6c0.7-1.3,1.8-2.4,3.1-3.1c1.3-0.7,2.8-1.1,4.4-1.1c1.4,0,2.7,0.3,3.8,0.9c1.1,0.6,2,1.6,2.7,2.9
			c0.7,1.3,1,2.9,1,5c0,2-0.3,3.6-1,4.9c-0.6,1.3-1.5,2.3-2.6,2.9C194.4,129.4,193.1,129.8,191.6,129.8z M192.1,126.4
			c1,0,1.8-0.2,2.6-0.7c0.8-0.4,1.4-1.1,1.8-1.9c0.5-0.8,0.7-1.8,0.7-2.8c0-1.1-0.2-2-0.7-2.8c-0.5-0.8-1.1-1.4-1.8-1.9
			c-0.8-0.4-1.6-0.7-2.6-0.7c-1,0-1.8,0.2-2.6,0.7c-0.8,0.4-1.4,1.1-1.8,1.9c-0.5,0.8-0.7,1.7-0.7,2.8c0,1.1,0.2,2,0.7,2.8
			c0.5,0.8,1.1,1.5,1.8,1.9C190.2,126.1,191.1,126.4,192.1,126.4z M197.3,129.5v-4l0.1-4.6l-0.3-4.6v-10.6h4v23.8H197.3z"/>
		<path class="st3" d="M215.5,129.5v-22.4h9.8c2.4,0,4.5,0.5,6.4,1.4c1.8,0.9,3.3,2.2,4.3,3.9c1,1.7,1.5,3.7,1.5,5.9
			s-0.5,4.2-1.5,5.9c-1,1.7-2.5,3-4.3,3.9c-1.8,0.9-4,1.4-6.4,1.4H215.5z M219.7,126h5.4c1.7,0,3.1-0.3,4.4-1
			c1.2-0.6,2.2-1.5,2.9-2.7c0.7-1.2,1-2.5,1-4c0-1.6-0.3-2.9-1-4.1c-0.7-1.1-1.7-2-2.9-2.7c-1.2-0.6-2.7-1-4.4-1h-5.4V126z"/>
		<path class="st3" d="M243.6,110.5c-0.7,0-1.3-0.2-1.8-0.7c-0.5-0.4-0.7-1-0.7-1.7c0-0.6,0.2-1.1,0.7-1.6c0.5-0.4,1-0.7,1.8-0.7
			c0.7,0,1.3,0.2,1.8,0.6c0.5,0.4,0.7,1,0.7,1.6c0,0.7-0.2,1.2-0.7,1.7C245,110.3,244.4,110.5,243.6,110.5z M241.7,129.5V112h3.8
			v17.5H241.7z"/>
		<path class="st3" d="M250.9,129.5v-23.8h4v23.8H250.9z"/>
		<path class="st3" d="M265.4,129.8c-1.3,0-2.4-0.2-3.4-0.7c-1-0.4-1.7-1-2.2-1.8c-0.5-0.8-0.8-1.7-0.8-2.6c0-1,0.2-1.8,0.7-2.6
			c0.5-0.8,1.2-1.4,2.3-1.8c1-0.4,2.4-0.7,4.2-0.7h5v2.7h-4.7c-1.3,0-2.3,0.2-2.7,0.7c-0.5,0.4-0.7,1-0.7,1.7c0,0.7,0.3,1.3,0.9,1.7
			c0.6,0.4,1.4,0.6,2.4,0.6c1,0,1.9-0.2,2.6-0.7c0.8-0.4,1.4-1.1,1.7-2l0.6,2.4c-0.4,1-1.1,1.8-2.1,2.3
			C268.2,129.5,266.9,129.8,265.4,129.8z M270.8,129.5V126l-0.2-0.7v-6.1c0-1.2-0.4-2.1-1.1-2.7c-0.7-0.7-1.8-1-3.3-1
			c-0.9,0-1.9,0.2-2.8,0.4c-0.9,0.3-1.7,0.7-2.4,1.2l-1.6-2.9c0.9-0.7,2-1.2,3.3-1.6c1.3-0.4,2.6-0.5,3.9-0.5c2.5,0,4.4,0.6,5.8,1.8
			c1.3,1.2,2,3,2,5.5v10H270.8z"/>
		<path class="st3" d="M277.4,115.7v-3.2h11.4v3.2H277.4z M286.1,129.8c-1.9,0-3.3-0.5-4.4-1.5c-1-1-1.5-2.4-1.5-4.3v-15.4h4v15.3
			c0,0.8,0.2,1.4,0.6,1.9c0.4,0.4,1,0.7,1.8,0.7c0.9,0,1.6-0.2,2.2-0.7l1.2,2.9c-0.5,0.4-1.1,0.7-1.8,0.9
			C287.5,129.7,286.8,129.8,286.1,129.8z"/>
		<path class="st3" d="M295.2,110.4c-0.7,0-1.3-0.2-1.8-0.7c-0.5-0.5-0.7-1-0.7-1.7c0-0.6,0.2-1.2,0.7-1.6c0.5-0.5,1.1-0.7,1.8-0.7
			c0.7,0,1.3,0.2,1.8,0.6c0.5,0.4,0.7,1,0.7,1.6c0,0.7-0.2,1.2-0.7,1.7C296.6,110.1,296,110.4,295.2,110.4z M293.3,129.5V112h3.8
			v17.5H293.3z"/>
		<path class="st3" d="M310.2,129.8c-1.7,0-3.3-0.4-4.7-1.1c-1.4-0.8-2.5-1.8-3.3-3.1c-0.8-1.3-1.2-2.8-1.2-4.5
			c0-1.7,0.4-3.2,1.2-4.6c0.8-1.3,1.9-2.3,3.2-3.1c1.4-0.8,2.9-1.1,4.7-1.1c1.8,0,3.4,0.4,4.7,1.1s2.5,1.8,3.2,3.1
			c0.8,1.3,1.2,2.8,1.2,4.6c0,1.7-0.4,3.2-1.2,4.5c-0.8,1.3-1.9,2.4-3.3,3.1C313.5,129.4,312,129.8,310.2,129.8z M310.2,126.4
			c1,0,1.9-0.2,2.6-0.7c0.8-0.4,1.4-1.1,1.8-1.9c0.4-0.8,0.7-1.8,0.7-2.8c0-1.1-0.2-2-0.7-2.8c-0.4-0.8-1-1.4-1.8-1.9
			c-0.8-0.4-1.6-0.7-2.6-0.7c-1,0-1.8,0.2-2.6,0.7c-0.8,0.4-1.4,1.1-1.8,1.9c-0.4,0.8-0.7,1.7-0.7,2.8c0,1.1,0.2,2,0.7,2.8
			c0.4,0.8,1.1,1.5,1.8,1.9C308.4,126.1,309.3,126.4,310.2,126.4z"/>
		<path class="st3" d="M332.9,112.2c1.4,0,2.6,0.3,3.7,0.8c1.1,0.5,1.9,1.4,2.5,2.5c0.6,1.1,0.9,2.5,0.9,4.3v9.8h-4v-9.3
			c0-1.5-0.4-2.6-1.1-3.4c-0.7-0.7-1.7-1.1-3-1.1c-0.9,0-1.8,0.2-2.5,0.6c-0.7,0.4-1.3,1-1.7,1.7s-0.6,1.7-0.6,2.9v8.7h-4v-17.1h3.8
			v4.6l-0.7-1.4c0.6-1.1,1.4-1.9,2.6-2.5C330.1,112.5,331.4,112.2,332.9,112.2z"/>
	</g>
</g>
</svg>
