<?xml version="1.0" encoding="utf-8"?>
<!-- Generator: Adobe Illustrator 24.3.0, SVG Export Plug-In . SVG Version: 6.00 Build 0)  -->
<svg version="1.1" id="Layer_1" xmlns="http://www.w3.org/2000/svg" xmlns:xlink="http://www.w3.org/1999/xlink" x="0px" y="0px"
	 viewBox="0 0 841 494" style="enable-background:new 0 0 841 494;" xml:space="preserve">
<style type="text/css">
	.st0{clip-path:url(#SVGID_2_);}
	.st1{fill:#3C0E40;}
	.st2{fill:#FFFFFF;}
	.st3{fill:none;stroke:url(#SVGID_3_);stroke-miterlimit:10;}
</style>
<g>
	<defs>
		<rect id="SVGID_1_" width="840.8" height="493.4"/>
	</defs>
	<clipPath id="SVGID_2_">
		<use xlink:href="#SVGID_1_"  style="overflow:visible;"/>
	</clipPath>
	<g class="st0">
		<rect class="st1" width="840.8" height="493.4"/>
		<path class="st2" d="M35.9,315.2v-51.4h21.6c12.5,0,18.8,7.2,18.8,16.6c0,9.4-6.3,16.6-18.8,16.6H45.4v18.2H35.9z M45.4,288.7H57
			c6.5,0,9.6-3.1,9.6-8.2c0-5.1-3.1-8.3-9.6-8.3H45.4V288.7z M82.3,315.2v-37.1H91v6.6c2.5-5.2,6.5-7.1,11.2-7.1h2.9v8.3h-3.3
			c-6.3,0-10.6,2.6-10.6,11.3v18H82.3z M128,316.1c-11.9,0-18.8-8.4-18.8-19.4s6.9-19.4,18.8-19.4c11.9,0,18.8,8.4,18.8,19.4
			S139.9,316.1,128,316.1z M118.4,296.7c0,7.1,3,11.9,9.6,11.9c6.6,0,9.6-4.8,9.6-11.9s-3-11.9-9.6-11.9
			C121.4,284.7,118.4,289.5,118.4,296.7z M156.7,273.3c0-7.5,4-9.5,10.3-9.5h8.1v6.9h-5.9c-2.6,0-3.6,1.1-3.6,3.5v3.9h9.4v6.9h-9.4
			v30.2h-8.9V285h-6.5v-6.9h6.5V273.3z M197.5,316.1c-11.5,0-18.3-8.4-18.3-19.4s6.9-19.4,18.3-19.4c11.5,0,18.3,8.1,18.3,20.1v2.1
			h-27.8c0.8,5.8,4.1,9.5,9.4,9.5c4.4,0,7.3-1.9,8.9-5.1h8.8C212.7,311.2,206.4,316.1,197.5,316.1z M188.1,293.1h18.6
			c-0.9-5.4-4.1-8.8-9.3-8.8C192.4,284.3,189.1,287.7,188.1,293.1z M236.4,316.1c-9.9,0-16.4-3.7-17-13.1h8.7c0.6,5,3.6,6.6,8.6,6.6
			c4.3,0,7.2-1.6,7.2-4.4c0-2.6-1.1-3.9-8.7-5.1c-11.6-2-14.9-5.6-14.9-11.7c0-7,6.1-11.1,15.3-11.1c10.7,0,16.1,4.9,16.3,12.6h-8.4
			c-0.2-4.9-3.8-6.1-7.9-6.1c-3.7,0-6.6,1.5-6.6,4.3c0,2.7,1.7,3.8,9.1,5c11.4,1.9,14.6,5.4,14.6,11.6
			C252.8,312.1,246,316.1,236.4,316.1z M272.5,316.1c-9.9,0-16.4-3.7-17-13.1h8.7c0.6,5,3.6,6.6,8.6,6.6c4.3,0,7.2-1.6,7.2-4.4
			c0-2.6-1.1-3.9-8.7-5.1c-11.6-2-14.9-5.6-14.9-11.7c0-7,6.1-11.1,15.3-11.1c10.7,0,16.1,4.9,16.3,12.6h-8.4
			c-0.2-4.9-3.8-6.1-7.9-6.1c-3.7,0-6.6,1.5-6.6,4.3c0,2.7,1.7,3.8,9.1,5c11.3,1.9,14.6,5.4,14.6,11.6
			C288.9,312.1,282.1,316.1,272.5,316.1z M294.1,315.2v-37.1h8.9v37.1H294.1z M294.1,272.2v-8.4h9v8.4H294.1z M327.9,316.1
			c-11.9,0-18.8-8.4-18.8-19.4s6.9-19.4,18.8-19.4c11.9,0,18.8,8.4,18.8,19.4S339.8,316.1,327.9,316.1z M318.2,296.7
			c0,7.1,3,11.9,9.6,11.9c6.6,0,9.6-4.8,9.6-11.9s-3-11.9-9.6-11.9C321.2,284.7,318.2,289.5,318.2,296.7z M377.5,292.9
			c0-4.5-2-7.8-7.1-7.8c-3.1,0-7.9,1.7-8.6,8.2v21.9h-9v-37.1h8.7v5.1c2.6-3.4,6.4-5.9,11.7-5.9c8.6,0,13.2,5.9,13.2,14.6v23.4h-8.9
			V292.9z M417.5,315.2v-4.3c-3.2,3.9-7.1,5.1-11.8,5.1c-8.1,0-13.6-4-13.6-11.2c0-6.6,4.6-9.9,14.3-11.5l10.8-1.9v-2.1
			c0-3.4-2-5.1-6.8-5.1c-4.1,0-7.5,1.7-7.7,5.8h-8.9c0.1-8.9,7.6-12.7,16.5-12.7c10.6,0,15.6,4.3,15.6,11.1v26.9H417.5z
			 M401.3,304.6c0,2.9,2,4.9,6.4,4.9c4.7,0,9.5-2.5,9.5-8.6v-3.3l-9.1,1.9C403.8,300.2,401.3,301.2,401.3,304.6z M432.7,263.8h9v41
			c0,2.4,0.9,3.5,3.6,3.5h4.9v6.9h-7.1c-6.3,0-10.3-2-10.3-9.5V263.8z M455,315.2v-11.1h10.2v11.1H455z M73,383.2l-4.3-11.7H46.4
			l-4.3,11.7h-9.9L52,331.8h11.1l20.1,51.4H73z M49.4,363.3h16.3l-8.1-22.5L49.4,363.3z M87.8,346.1h8.6v5.1c2.5-3.7,6.4-6,11.8-6
			c10.8,0,16.6,8.4,16.6,19.4s-5.9,19.4-16.6,19.4c-5.1,0-8.9-2.1-11.4-5.5v18.9h-9V346.1z M96.6,364.7c0,7.1,3,11.9,9.5,11.9
			c6.6,0,9.6-4.8,9.6-11.9s-3-11.9-9.6-11.9C99.6,352.7,96.6,357.5,96.6,364.7z M131,346.1h8.6v5.1c2.5-3.7,6.4-6,11.8-6
			c10.8,0,16.6,8.4,16.6,19.4s-5.9,19.4-16.6,19.4c-5.1,0-8.9-2.1-11.4-5.5v18.9h-9V346.1z M139.9,364.7c0,7.1,3,11.9,9.5,11.9
			c6.6,0,9.6-4.8,9.6-11.9s-3-11.9-9.6-11.9C142.9,352.7,139.9,357.5,139.9,364.7z M174.2,383.2v-37.1h8.7v6.6
			c2.5-5.2,6.5-7.1,11.2-7.1h2.9v8.3h-3.3c-6.3,0-10.6,2.6-10.6,11.3v18H174.2z M220,384.1c-11.9,0-18.8-8.4-18.8-19.4
			s6.9-19.4,18.8-19.4c11.9,0,18.8,8.4,18.8,19.4S231.9,384.1,220,384.1z M210.3,364.7c0,7.1,3,11.9,9.6,11.9
			c6.6,0,9.6-4.8,9.6-11.9s-3-11.9-9.6-11.9C213.3,352.7,210.3,357.5,210.3,364.7z M268.2,383.2v-4.3c-3.2,3.9-7.1,5.1-11.8,5.1
			c-8.1,0-13.6-4-13.6-11.2c0-6.6,4.6-9.9,14.3-11.5l10.8-1.9v-2.1c0-3.4-2-5.1-6.8-5.1c-4.1,0-7.5,1.7-7.7,5.8h-8.9
			c0.1-8.9,7.6-12.7,16.5-12.7c10.6,0,15.6,4.3,15.6,11.1v26.9H268.2z M252.1,372.6c0,2.9,2,4.9,6.4,4.9c4.7,0,9.5-2.5,9.5-8.6v-3.3
			l-9.1,1.9C254.6,368.2,252.1,369.2,252.1,372.6z M300.2,384.1c-11.4,0-18.2-8.4-18.2-19.4s6.9-19.4,18.2-19.4
			c10.2,0,16.1,5.8,17.2,14.1h-9c-0.9-4.1-3.8-6.6-8.2-6.6c-6.1,0-9.1,4.8-9.1,11.9s3,11.9,9.1,11.9c4.6,0,7.4-2.6,8.2-7.1h9
			C316.3,378.1,310.2,384.1,300.2,384.1z M322.9,383.2v-51.4h9v19c2.6-3.2,6.3-5.6,11.4-5.6c8.6,0,13.2,5.9,13.2,14.6v23.4h-8.9
			v-22.3c0-4.5-2-7.8-7.1-7.8c-3.1,0-7.9,1.7-8.6,8.2v21.9H322.9z M387.6,383.2v-4.3c-3.2,3.9-7.1,5.1-11.8,5.1
			c-8.1,0-13.6-4-13.6-11.2c0-6.6,4.6-9.9,14.3-11.5l10.8-1.9v-2.1c0-3.4-2-5.1-6.8-5.1c-4.1,0-7.5,1.7-7.7,5.8H364
			c0.1-8.9,7.6-12.7,16.5-12.7c10.6,0,15.6,4.3,15.6,11.1v26.9H387.6z M371.5,372.6c0,2.9,2,4.9,6.4,4.9c4.7,0,9.5-2.5,9.5-8.6v-3.3
			l-9.1,1.9C374,368.2,371.5,369.2,371.5,372.6z M402.8,383.2v-51.4h9v18.9c2.5-3.4,6.3-5.5,11.4-5.5c10.8,0,16.6,8.4,16.6,19.4
			s-5.9,19.4-16.6,19.4c-5.4,0-9.3-2.3-11.8-6v5.1H402.8z M411.7,364.7c0,7.1,3,11.9,9.5,11.9c6.6,0,9.6-4.8,9.6-11.9
			s-3-11.9-9.6-11.9C414.7,352.7,411.7,357.5,411.7,364.7z M446.1,331.8h9v41c0,2.4,0.9,3.5,3.6,3.5h4.9v6.9h-7.1
			c-6.3,0-10.3-2-10.3-9.5V331.8z M486,384.1c-11.5,0-18.3-8.4-18.3-19.4s6.9-19.4,18.3-19.4s18.3,8.1,18.3,20.1v2.1h-27.8
			c0.8,5.8,4.1,9.5,9.4,9.5c4.4,0,7.3-1.9,8.9-5.1h8.8C501.2,379.2,494.8,384.1,486,384.1z M476.6,361.1h18.6
			c-0.9-5.4-4.1-8.8-9.3-8.8C480.8,352.3,477.6,355.7,476.6,361.1z M509.5,383.2v-11.1h10.2v11.1H509.5z M49,451.2v-42.8H32.6v-8.6
			h42.6v8.6H58.7v42.8H49z M80.2,451.2v-37.1h8.7v6.6c2.5-5.2,6.5-7.1,11.2-7.1h2.9v8.3h-3.3c-6.3,0-10.6,2.6-10.6,11.3v18H80.2z
			 M132.1,451.2v-4.3c-3.2,3.9-7.1,5.1-11.8,5.1c-8.1,0-13.6-4-13.6-11.2c0-6.6,4.6-9.9,14.3-11.5l10.8-1.9v-2.1
			c0-3.4-2-5.1-6.8-5.1c-4.1,0-7.5,1.7-7.7,5.8h-8.9c0.1-8.9,7.6-12.7,16.5-12.7c10.6,0,15.6,4.3,15.6,11.1v26.9H132.1z
			 M115.9,440.6c0,2.9,2,4.9,6.4,4.9c4.7,0,9.5-2.5,9.5-8.6v-3.3l-9.1,1.9C118.4,436.2,115.9,437.2,115.9,440.6z M172,428.9
			c0-4.5-2-7.8-7.1-7.8c-3.1,0-7.9,1.7-8.6,8.2v21.9h-9v-37.1h8.7v5.1c2.6-3.4,6.4-5.9,11.7-5.9c8.6,0,13.2,5.9,13.2,14.6v23.4H172
			V428.9z M203.1,452.1c-9.9,0-16.4-3.7-17-13.1h8.7c0.6,5,3.6,6.6,8.6,6.6c4.3,0,7.2-1.6,7.2-4.4c0-2.6-1.1-3.9-8.7-5.1
			c-11.6-2-14.9-5.6-14.9-11.7c0-7,6.1-11.1,15.3-11.1c10.7,0,16.1,4.9,16.3,12.6h-8.4c-0.2-4.9-3.8-6.1-7.9-6.1
			c-3.7,0-6.6,1.5-6.6,4.3c0,2.7,1.7,3.8,9.1,5c11.4,1.9,14.6,5.4,14.6,11.6C219.5,448.1,212.7,452.1,203.1,452.1z M224.7,414.1h8.6
			v5.1c2.5-3.7,6.4-6,11.8-6c10.8,0,16.6,8.4,16.6,19.4s-5.9,19.4-16.6,19.4c-5.1,0-8.9-2.1-11.4-5.5v18.9h-9V414.1z M233.6,432.7
			c0,7.1,3,11.9,9.5,11.9c6.6,0,9.6-4.8,9.6-11.9s-3-11.9-9.6-11.9C236.6,420.7,233.6,425.5,233.6,432.7z M291.3,451.2v-4.3
			c-3.2,3.9-7.1,5.1-11.8,5.1c-8.1,0-13.6-4-13.6-11.2c0-6.6,4.6-9.9,14.3-11.5l10.8-1.9v-2.1c0-3.4-2-5.1-6.8-5.1
			c-4.1,0-7.5,1.7-7.7,5.8h-8.9c0.1-8.9,7.6-12.7,16.5-12.7c10.6,0,15.6,4.3,15.6,11.1v26.9H291.3z M275.1,440.6
			c0,2.9,2,4.9,6.4,4.9c4.7,0,9.5-2.5,9.5-8.6v-3.3l-9.1,1.9C277.6,436.2,275.1,437.2,275.1,440.6z M306.5,451.2v-37.1h8.7v6.6
			c2.5-5.2,6.5-7.1,11.2-7.1h2.9v8.3H326c-6.3,0-10.6,2.6-10.6,11.3v18H306.5z M351.8,452.1c-11.5,0-18.3-8.4-18.3-19.4
			s6.9-19.4,18.3-19.4c11.5,0,18.3,8.1,18.3,20.1v2.1h-27.8c0.8,5.8,4.1,9.5,9.4,9.5c4.4,0,7.3-1.9,8.9-5.1h8.8
			C367,447.2,360.6,452.1,351.8,452.1z M342.4,429.1h18.6c-0.9-5.4-4.1-8.8-9.3-8.8C346.6,420.3,343.4,423.7,342.4,429.1z
			 M400.9,428.9c0-4.5-2-7.8-7.1-7.8c-3.1,0-7.9,1.7-8.6,8.2v21.9h-9v-37.1h8.7v5.1c2.6-3.4,6.4-5.9,11.7-5.9
			c8.6,0,13.2,5.9,13.2,14.6v23.4h-8.9V428.9z M421.3,402.7h8.9v11.4h9.4v6.9h-9.4v19.8c0,2.4,0.9,3.5,3.6,3.5h5.9v6.9h-8.1
			c-6.3,0-10.3-2-10.3-9.5V421h-6.5v-6.9h6.5V402.7z M444.5,451.2v-11.1h10.2v11.1H444.5z"/>
		<path class="st2" d="M301.1,45l-2.9-7.9h1.6l2.2,6.5l2.2-6.5h1.6l-2.9,7.9H301.1z M309.8,45v-0.7c-0.5,0.6-1.1,0.8-1.8,0.8
			c-1.2,0-2.1-0.6-2.1-1.7c0-1,0.7-1.5,2.2-1.8l1.7-0.3V41c0-0.5-0.3-0.8-1-0.8c-0.6,0-1.2,0.3-1.2,0.9h-1.4c0-1.4,1.2-2,2.5-2
			c1.6,0,2.4,0.7,2.4,1.7V45H309.8z M307.3,43.4c0,0.5,0.3,0.7,1,0.7c0.7,0,1.5-0.4,1.5-1.3v-0.5l-1.4,0.3
			C307.7,42.7,307.3,42.8,307.3,43.4z M311.9,37.1h1.4v6.3c0,0.4,0.1,0.5,0.5,0.5h0.7V45h-1.1c-1,0-1.6-0.3-1.6-1.5V37.1z
			 M316.6,42.7c0,0.7,0.3,1.2,1.1,1.2c0.5,0,1.2-0.3,1.3-1.3v-3.4h1.4V45h-1.3v-0.8c-0.4,0.5-1,0.9-1.8,0.9c-1.3,0-2-0.9-2-2.2v-3.6
			h1.4V42.7z M324,45.1c-1.8,0-2.8-1.3-2.8-3c0-1.7,1.1-3,2.8-3s2.8,1.2,2.8,3.1v0.3h-4.3c0.1,0.9,0.6,1.5,1.5,1.5
			c0.7,0,1.1-0.3,1.4-0.8h1.4C326.3,44.4,325.4,45.1,324,45.1z M322.5,41.6h2.9c-0.1-0.8-0.6-1.4-1.4-1.4
			C323.2,40.2,322.7,40.8,322.5,41.6z M329.8,45.1c-1.5,0-2.5-0.6-2.6-2h1.3c0.1,0.8,0.6,1,1.3,1c0.7,0,1.1-0.2,1.1-0.7
			c0-0.4-0.2-0.6-1.3-0.8c-1.8-0.3-2.3-0.9-2.3-1.8c0-1.1,0.9-1.7,2.4-1.7c1.6,0,2.5,0.8,2.5,1.9h-1.3c0-0.8-0.6-0.9-1.2-0.9
			c-0.6,0-1,0.2-1,0.7c0,0.4,0.3,0.6,1.4,0.8c1.7,0.3,2.3,0.8,2.3,1.8C332.3,44.5,331.2,45.1,329.8,45.1z"/>
		<g>
			<g>
				<path class="st2" d="M33.8,31.7v-8.4h3.9c1,0,1.8,0.2,2.3,0.6c0.5,0.4,0.8,0.9,0.8,1.6c0,0.4-0.1,0.8-0.3,1.1
					c-0.2,0.3-0.5,0.6-0.8,0.7c-0.3,0.2-0.7,0.3-1.1,0.3l0.2-0.4c0.5,0,0.9,0.1,1.3,0.3c0.4,0.2,0.7,0.4,0.9,0.8
					c0.2,0.3,0.3,0.7,0.3,1.2c0,0.7-0.3,1.3-0.8,1.7c-0.5,0.4-1.4,0.6-2.4,0.6H33.8z M35.4,30.5h2.5c0.6,0,1-0.1,1.3-0.3
					c0.3-0.2,0.5-0.5,0.5-0.9c0-0.4-0.2-0.7-0.5-0.9c-0.3-0.2-0.8-0.3-1.3-0.3h-2.7v-1.2h2.3c0.5,0,1-0.1,1.2-0.3s0.4-0.5,0.4-0.9
					c0-0.4-0.1-0.7-0.4-0.9c-0.3-0.2-0.7-0.3-1.2-0.3h-2.2V30.5z"/>
				<path class="st2" d="M42.8,31.7v-6.4h1.4v1.8l-0.2-0.5c0.2-0.4,0.5-0.8,0.9-1s0.9-0.3,1.5-0.3v1.4c-0.1,0-0.1,0-0.2,0
					c-0.1,0-0.1,0-0.2,0c-0.6,0-1,0.2-1.4,0.5c-0.3,0.3-0.5,0.8-0.5,1.5v3.1H42.8z"/>
				<path class="st2" d="M49.8,31.8c-0.5,0-0.9-0.1-1.3-0.2c-0.4-0.2-0.6-0.4-0.8-0.7c-0.2-0.3-0.3-0.6-0.3-1c0-0.4,0.1-0.7,0.3-1
					c0.2-0.3,0.5-0.5,0.8-0.7s0.9-0.3,1.6-0.3h1.9v1h-1.8c-0.5,0-0.8,0.1-1,0.2c-0.2,0.2-0.3,0.4-0.3,0.6c0,0.3,0.1,0.5,0.3,0.6
					c0.2,0.2,0.5,0.2,0.9,0.2c0.4,0,0.7-0.1,1-0.3c0.3-0.2,0.5-0.4,0.6-0.7l0.2,0.9c-0.1,0.4-0.4,0.7-0.8,0.9
					C50.9,31.7,50.4,31.8,49.8,31.8z M51.8,31.7v-1.3l-0.1-0.3v-2.3c0-0.4-0.1-0.8-0.4-1c-0.3-0.2-0.7-0.4-1.2-0.4
					c-0.4,0-0.7,0.1-1,0.2c-0.3,0.1-0.6,0.3-0.9,0.5L47.6,26c0.4-0.3,0.8-0.5,1.2-0.6c0.5-0.1,1-0.2,1.5-0.2c0.9,0,1.7,0.2,2.2,0.7
					c0.5,0.4,0.8,1.1,0.8,2.1v3.8H51.8z"/>
				<path class="st2" d="M58.8,25.2c0.5,0,1,0.1,1.4,0.3s0.7,0.5,0.9,0.9s0.4,0.9,0.4,1.6v3.7H60v-3.5c0-0.6-0.1-1-0.4-1.3
					c-0.3-0.3-0.6-0.4-1.1-0.4c-0.4,0-0.7,0.1-0.9,0.2s-0.5,0.4-0.6,0.6c-0.1,0.3-0.2,0.6-0.2,1.1v3.2h-1.5v-6.4h1.4V27l-0.3-0.5
					c0.2-0.4,0.5-0.7,1-0.9C57.7,25.3,58.2,25.2,58.8,25.2z"/>
				<path class="st2" d="M66.1,31.8c-0.6,0-1.2-0.1-1.7-0.4c-0.5-0.3-0.9-0.7-1.2-1.1c-0.3-0.5-0.4-1.1-0.4-1.7
					c0-0.7,0.1-1.2,0.4-1.7c0.3-0.5,0.7-0.9,1.2-1.2c0.5-0.3,1-0.4,1.7-0.4c0.5,0,1,0.1,1.4,0.4c0.4,0.2,0.8,0.6,1,1.1
					c0.2,0.5,0.4,1.1,0.4,1.9c0,0.7-0.1,1.4-0.4,1.8c-0.2,0.5-0.6,0.9-1,1.1S66.6,31.8,66.1,31.8z M66.3,30.5c0.4,0,0.7-0.1,1-0.2
					c0.3-0.2,0.5-0.4,0.7-0.7c0.2-0.3,0.3-0.7,0.3-1.1c0-0.4-0.1-0.8-0.3-1.1c-0.2-0.3-0.4-0.5-0.7-0.7c-0.3-0.2-0.6-0.2-1-0.2
					s-0.7,0.1-1,0.2c-0.3,0.2-0.5,0.4-0.7,0.7c-0.2,0.3-0.3,0.7-0.3,1.1c0,0.4,0.1,0.8,0.3,1.1c0.2,0.3,0.4,0.5,0.7,0.7
					C65.6,30.4,65.9,30.5,66.3,30.5z M68.2,31.7v-1.5l0-1.7l-0.1-1.7v-4h1.5v8.9H68.2z"/>
				<path class="st2" d="M75,31.7v-8.4h3.7c0.9,0,1.7,0.2,2.4,0.5s1.2,0.8,1.6,1.5c0.4,0.6,0.6,1.4,0.6,2.2c0,0.8-0.2,1.6-0.6,2.2
					c-0.4,0.6-0.9,1.1-1.6,1.5s-1.5,0.5-2.4,0.5H75z M76.6,30.4h2c0.6,0,1.2-0.1,1.6-0.4c0.5-0.2,0.8-0.6,1.1-1
					c0.3-0.4,0.4-0.9,0.4-1.5c0-0.6-0.1-1.1-0.4-1.5c-0.3-0.4-0.6-0.8-1.1-1c-0.5-0.2-1-0.4-1.6-0.4h-2V30.4z"/>
				<path class="st2" d="M85.6,24.3c-0.3,0-0.5-0.1-0.7-0.3c-0.2-0.2-0.3-0.4-0.3-0.6c0-0.2,0.1-0.4,0.3-0.6
					c0.2-0.2,0.4-0.3,0.7-0.3c0.3,0,0.5,0.1,0.7,0.2c0.2,0.2,0.3,0.4,0.3,0.6c0,0.3-0.1,0.5-0.3,0.7C86.1,24.2,85.8,24.3,85.6,24.3z
					 M84.8,31.7v-6.4h1.5v6.4H84.8z"/>
				<path class="st2" d="M88.3,31.7v-8.9h1.5v8.9H88.3z"/>
				<path class="st2" d="M93.7,31.8c-0.5,0-0.9-0.1-1.3-0.2c-0.4-0.2-0.6-0.4-0.8-0.7c-0.2-0.3-0.3-0.6-0.3-1c0-0.4,0.1-0.7,0.3-1
					c0.2-0.3,0.5-0.5,0.8-0.7S93.3,28,94,28h1.9v1h-1.8c-0.5,0-0.8,0.1-1,0.2c-0.2,0.2-0.3,0.4-0.3,0.6c0,0.3,0.1,0.5,0.3,0.6
					c0.2,0.2,0.5,0.2,0.9,0.2c0.4,0,0.7-0.1,1-0.3c0.3-0.2,0.5-0.4,0.6-0.7l0.2,0.9c-0.1,0.4-0.4,0.7-0.8,0.9
					C94.7,31.7,94.3,31.8,93.7,31.8z M95.7,31.7v-1.3l-0.1-0.3v-2.3c0-0.4-0.1-0.8-0.4-1c-0.3-0.2-0.7-0.4-1.2-0.4
					c-0.4,0-0.7,0.1-1,0.2c-0.3,0.1-0.6,0.3-0.9,0.5L91.5,26c0.4-0.3,0.8-0.5,1.2-0.6c0.5-0.1,1-0.2,1.5-0.2c0.9,0,1.7,0.2,2.2,0.7
					c0.5,0.4,0.8,1.1,0.8,2.1v3.8H95.7z"/>
				<path class="st2" d="M98.2,26.6v-1.2h4.3v1.2H98.2z M101.4,31.8c-0.7,0-1.2-0.2-1.6-0.5c-0.4-0.4-0.6-0.9-0.6-1.6v-5.8h1.5v5.7
					c0,0.3,0.1,0.5,0.2,0.7s0.4,0.3,0.7,0.3c0.3,0,0.6-0.1,0.8-0.3l0.4,1.1c-0.2,0.1-0.4,0.3-0.7,0.3
					C102,31.8,101.7,31.8,101.4,31.8z"/>
				<path class="st2" d="M104.9,24.3c-0.3,0-0.5-0.1-0.7-0.3c-0.2-0.2-0.3-0.4-0.3-0.6c0-0.2,0.1-0.4,0.3-0.6
					c0.2-0.2,0.4-0.3,0.7-0.3c0.3,0,0.5,0.1,0.7,0.2c0.2,0.2,0.3,0.4,0.3,0.6c0,0.3-0.1,0.5-0.3,0.7
					C105.4,24.2,105.2,24.3,104.9,24.3z M104.1,31.7v-6.4h1.5v6.4H104.1z"/>
				<path class="st2" d="M110.5,31.8c-0.6,0-1.2-0.1-1.7-0.4c-0.5-0.3-0.9-0.7-1.2-1.2c-0.3-0.5-0.4-1.1-0.4-1.7
					c0-0.6,0.1-1.2,0.4-1.7c0.3-0.5,0.7-0.9,1.2-1.2c0.5-0.3,1.1-0.4,1.8-0.4c0.7,0,1.3,0.1,1.8,0.4c0.5,0.3,0.9,0.7,1.2,1.2
					c0.3,0.5,0.4,1.1,0.4,1.7c0,0.6-0.1,1.2-0.4,1.7c-0.3,0.5-0.7,0.9-1.2,1.2C111.7,31.7,111.1,31.8,110.5,31.8z M110.5,30.5
					c0.4,0,0.7-0.1,1-0.2c0.3-0.2,0.5-0.4,0.7-0.7c0.2-0.3,0.2-0.7,0.2-1.1c0-0.4-0.1-0.8-0.2-1.1c-0.2-0.3-0.4-0.5-0.7-0.7
					s-0.6-0.2-1-0.2s-0.7,0.1-1,0.2c-0.3,0.2-0.5,0.4-0.7,0.7c-0.2,0.3-0.3,0.7-0.3,1.1c0,0.4,0.1,0.8,0.3,1.1
					c0.2,0.3,0.4,0.5,0.7,0.7C109.8,30.4,110.1,30.5,110.5,30.5z"/>
				<path class="st2" d="M119,25.2c0.5,0,1,0.1,1.4,0.3s0.7,0.5,0.9,0.9s0.4,0.9,0.4,1.6v3.7h-1.5v-3.5c0-0.6-0.1-1-0.4-1.3
					c-0.3-0.3-0.6-0.4-1.1-0.4c-0.4,0-0.7,0.1-0.9,0.2s-0.5,0.4-0.6,0.6c-0.1,0.3-0.2,0.6-0.2,1.1v3.2h-1.5v-6.4h1.4V27l-0.3-0.5
					c0.2-0.4,0.5-0.7,1-0.9C117.9,25.3,118.4,25.2,119,25.2z"/>
				<path class="st2" d="M35.8,43.7l-3.1-7h0.8l2.9,6.6H36l2.9-6.6h0.8l-3.1,7H35.8z"/>
				<path class="st2" d="M41,37.3c-0.1,0-0.3,0-0.4-0.1s-0.1-0.2-0.1-0.4s0-0.3,0.1-0.4s0.2-0.1,0.4-0.1c0.1,0,0.3,0,0.4,0.1
					c0.1,0.1,0.1,0.2,0.1,0.3c0,0.1,0,0.3-0.1,0.4S41.2,37.3,41,37.3z M40.7,43.7v-5.2h0.7v5.2H40.7z"/>
				<path class="st2" d="M44.8,43.8c-0.4,0-0.8-0.1-1.2-0.2c-0.4-0.1-0.7-0.3-0.9-0.5l0.3-0.6c0.2,0.2,0.5,0.3,0.8,0.4
					c0.3,0.1,0.7,0.2,1.1,0.2c0.5,0,0.9-0.1,1.1-0.2c0.2-0.2,0.3-0.4,0.3-0.6c0-0.2-0.1-0.3-0.2-0.5c-0.1-0.1-0.3-0.2-0.5-0.2
					c-0.2-0.1-0.4-0.1-0.7-0.1c-0.2,0-0.5-0.1-0.7-0.1c-0.2-0.1-0.5-0.1-0.7-0.2c-0.2-0.1-0.4-0.2-0.5-0.4c-0.1-0.2-0.2-0.4-0.2-0.7
					c0-0.3,0.1-0.5,0.2-0.8s0.4-0.4,0.7-0.5s0.7-0.2,1.1-0.2c0.3,0,0.7,0,1,0.1c0.3,0.1,0.6,0.2,0.8,0.4l-0.3,0.6
					c-0.2-0.2-0.5-0.3-0.8-0.3S45.2,39,44.9,39c-0.5,0-0.8,0.1-1,0.2c-0.2,0.2-0.3,0.4-0.3,0.6c0,0.2,0.1,0.4,0.2,0.5
					c0.1,0.1,0.3,0.2,0.5,0.3c0.2,0.1,0.4,0.1,0.7,0.2c0.2,0,0.5,0.1,0.7,0.1c0.2,0.1,0.5,0.1,0.7,0.2c0.2,0.1,0.4,0.2,0.5,0.4
					c0.1,0.2,0.2,0.4,0.2,0.7c0,0.3-0.1,0.6-0.3,0.8c-0.2,0.2-0.4,0.4-0.7,0.5C45.6,43.7,45.2,43.8,44.8,43.8z"/>
				<path class="st2" d="M50.4,43.8c-0.4,0-0.8-0.1-1.2-0.2c-0.3-0.2-0.6-0.4-0.8-0.8c-0.2-0.3-0.3-0.8-0.3-1.2v-3h0.7v3
					c0,0.6,0.1,1,0.4,1.3c0.3,0.3,0.7,0.4,1.2,0.4c0.4,0,0.7-0.1,1-0.2s0.5-0.4,0.6-0.7c0.1-0.3,0.2-0.6,0.2-1v-2.8H53v5.2h-0.7
					v-1.4l0.1,0.3c-0.2,0.4-0.4,0.7-0.8,0.9C51.3,43.7,50.9,43.8,50.4,43.8z"/>
				<path class="st2" d="M56.5,43.8c-0.4,0-0.7-0.1-1-0.2s-0.5-0.3-0.7-0.5s-0.2-0.5-0.2-0.8c0-0.3,0.1-0.5,0.2-0.7
					c0.1-0.2,0.3-0.4,0.6-0.5c0.3-0.1,0.7-0.2,1.2-0.2h1.8v0.5h-1.8c-0.5,0-0.9,0.1-1.1,0.3c-0.2,0.2-0.3,0.4-0.3,0.7
					c0,0.3,0.1,0.5,0.4,0.7c0.2,0.2,0.6,0.3,1,0.3c0.4,0,0.7-0.1,1-0.3c0.3-0.2,0.5-0.4,0.6-0.8l0.2,0.5c-0.1,0.3-0.4,0.6-0.7,0.8
					C57.4,43.7,57,43.8,56.5,43.8z M58.3,43.7v-1.2l0-0.2v-1.9c0-0.4-0.1-0.8-0.4-1c-0.2-0.2-0.6-0.4-1.1-0.4c-0.3,0-0.7,0.1-1,0.2
					s-0.6,0.3-0.8,0.4l-0.3-0.5c0.3-0.2,0.6-0.4,1-0.5c0.4-0.1,0.8-0.2,1.2-0.2c0.7,0,1.2,0.2,1.6,0.5c0.4,0.3,0.6,0.8,0.6,1.5v3.3
					H58.3z"/>
				<path class="st2" d="M60.9,43.7v-7.4h0.7v7.4H60.9z"/>
				<path class="st2" d="M69.4,43.8c-0.5,0-1-0.1-1.5-0.3c-0.4-0.2-0.8-0.4-1.2-0.7c-0.3-0.3-0.6-0.7-0.8-1.1
					c-0.2-0.4-0.3-0.9-0.3-1.4c0-0.5,0.1-1,0.3-1.4s0.4-0.8,0.8-1.1c0.3-0.3,0.7-0.6,1.2-0.7c0.4-0.2,0.9-0.3,1.5-0.3
					c0.5,0,1,0.1,1.5,0.2c0.4,0.2,0.8,0.4,1.1,0.8l-0.5,0.5c-0.3-0.3-0.6-0.5-1-0.6c-0.4-0.1-0.7-0.2-1.1-0.2
					c-0.4,0-0.8,0.1-1.2,0.2c-0.4,0.1-0.7,0.3-1,0.6c-0.3,0.3-0.5,0.6-0.6,0.9c-0.1,0.3-0.2,0.7-0.2,1.2c0,0.4,0.1,0.8,0.2,1.1
					c0.1,0.4,0.4,0.7,0.6,0.9c0.3,0.3,0.6,0.5,1,0.6c0.4,0.1,0.8,0.2,1.2,0.2c0.4,0,0.8-0.1,1.1-0.2c0.4-0.1,0.7-0.3,1-0.6l0.4,0.6
					c-0.3,0.3-0.7,0.5-1.2,0.7S69.9,43.8,69.4,43.8z M71.3,42.8v-2.6H72v2.7L71.3,42.8z"/>
				<path class="st2" d="M76.1,43.8c-0.4,0-0.8-0.1-1.2-0.2c-0.3-0.2-0.6-0.4-0.8-0.8c-0.2-0.3-0.3-0.8-0.3-1.2v-3h0.7v3
					c0,0.6,0.1,1,0.4,1.3c0.3,0.3,0.7,0.4,1.2,0.4c0.4,0,0.7-0.1,1-0.2s0.5-0.4,0.6-0.7c0.1-0.3,0.2-0.6,0.2-1v-2.8h0.7v5.2H78v-1.4
					l0.1,0.3c-0.2,0.4-0.4,0.7-0.8,0.9C77,43.7,76.6,43.8,76.1,43.8z"/>
				<path class="st2" d="M81,37.3c-0.1,0-0.3,0-0.4-0.1s-0.1-0.2-0.1-0.4s0-0.3,0.1-0.4s0.2-0.1,0.4-0.1c0.1,0,0.3,0,0.4,0.1
					c0.1,0.1,0.1,0.2,0.1,0.3c0,0.1,0,0.3-0.1,0.4S81.1,37.3,81,37.3z M80.6,43.7v-5.2h0.7v5.2H80.6z"/>
				<path class="st2" d="M85.4,43.8c-0.5,0-0.9-0.1-1.3-0.3s-0.7-0.5-0.9-0.9s-0.3-0.9-0.3-1.4c0-0.5,0.1-1,0.3-1.4
					c0.2-0.4,0.5-0.7,0.9-0.9c0.4-0.2,0.8-0.3,1.3-0.3c0.5,0,0.9,0.1,1.2,0.3c0.4,0.2,0.7,0.5,0.9,0.9c0.2,0.4,0.3,0.9,0.3,1.5
					c0,0.6-0.1,1-0.3,1.4c-0.2,0.4-0.5,0.7-0.9,0.9C86.3,43.7,85.9,43.8,85.4,43.8z M85.5,43.1c0.4,0,0.7-0.1,1-0.3
					c0.3-0.2,0.5-0.4,0.7-0.7s0.3-0.7,0.3-1.1c0-0.4-0.1-0.8-0.3-1.1s-0.4-0.5-0.7-0.7c-0.3-0.2-0.6-0.3-1-0.3c-0.4,0-0.7,0.1-1,0.3
					c-0.3,0.2-0.5,0.4-0.7,0.7s-0.3,0.7-0.3,1.1c0,0.4,0.1,0.8,0.3,1.1s0.4,0.6,0.7,0.7C84.8,43,85.1,43.1,85.5,43.1z M87.4,43.7
					v-1.6l0.1-1.1L87.4,40v-3.7h0.7v7.4H87.4z"/>
				<path class="st2" d="M92.3,43.8c-0.5,0-1-0.1-1.4-0.3c-0.4-0.2-0.7-0.5-1-1s-0.4-0.9-0.4-1.4s0.1-1,0.3-1.4
					c0.2-0.4,0.5-0.7,0.9-0.9c0.4-0.2,0.8-0.3,1.3-0.3c0.5,0,0.9,0.1,1.3,0.3c0.4,0.2,0.7,0.5,0.9,0.9s0.3,0.9,0.3,1.4
					c0,0,0,0.1,0,0.1c0,0,0,0.1,0,0.1h-4.6v-0.5h4.2L94,41c0-0.4-0.1-0.7-0.2-1c-0.2-0.3-0.4-0.5-0.7-0.7s-0.6-0.2-1-0.2
					c-0.4,0-0.7,0.1-1,0.2s-0.5,0.4-0.7,0.7c-0.2,0.3-0.2,0.6-0.2,1v0.1c0,0.4,0.1,0.8,0.3,1.1s0.4,0.5,0.7,0.7
					c0.3,0.2,0.7,0.3,1.1,0.3c0.3,0,0.6-0.1,0.9-0.2c0.3-0.1,0.5-0.3,0.7-0.5l0.4,0.5c-0.2,0.3-0.5,0.5-0.9,0.6S92.8,43.8,92.3,43.8
					z"/>
				<path class="st2" d="M96.1,43.7v-7.4h0.7v7.4H96.1z"/>
				<path class="st2" d="M99.2,37.3c-0.1,0-0.3,0-0.4-0.1s-0.1-0.2-0.1-0.4s0-0.3,0.1-0.4s0.2-0.1,0.4-0.1c0.1,0,0.3,0,0.4,0.1
					c0.1,0.1,0.1,0.2,0.1,0.3c0,0.1,0,0.3-0.1,0.4S99.3,37.3,99.2,37.3z M98.8,43.7v-5.2h0.7v5.2H98.8z"/>
				<path class="st2" d="M104.2,38.4c0.4,0,0.8,0.1,1.1,0.2c0.3,0.2,0.6,0.4,0.8,0.7c0.2,0.3,0.3,0.8,0.3,1.3v3h-0.7v-3
					c0-0.6-0.1-1-0.4-1.3c-0.3-0.3-0.7-0.4-1.2-0.4c-0.4,0-0.7,0.1-1,0.2s-0.5,0.4-0.6,0.6c-0.1,0.3-0.2,0.6-0.2,1v2.8h-0.7v-5.2
					h0.7v1.4l-0.1-0.3c0.2-0.4,0.4-0.7,0.8-0.9C103.3,38.5,103.7,38.4,104.2,38.4z"/>
				<path class="st2" d="M110.5,43.8c-0.5,0-1-0.1-1.4-0.3c-0.4-0.2-0.7-0.5-1-1s-0.4-0.9-0.4-1.4s0.1-1,0.3-1.4
					c0.2-0.4,0.5-0.7,0.9-0.9c0.4-0.2,0.8-0.3,1.3-0.3c0.5,0,0.9,0.1,1.3,0.3c0.4,0.2,0.7,0.5,0.9,0.9s0.3,0.9,0.3,1.4
					c0,0,0,0.1,0,0.1c0,0,0,0.1,0,0.1h-4.6v-0.5h4.2l-0.3,0.2c0-0.4-0.1-0.7-0.2-1c-0.2-0.3-0.4-0.5-0.7-0.7s-0.6-0.2-1-0.2
					c-0.4,0-0.7,0.1-1,0.2s-0.5,0.4-0.7,0.7c-0.2,0.3-0.2,0.6-0.2,1v0.1c0,0.4,0.1,0.8,0.3,1.1s0.4,0.5,0.7,0.7
					c0.3,0.2,0.7,0.3,1.1,0.3c0.3,0,0.6-0.1,0.9-0.2c0.3-0.1,0.5-0.3,0.7-0.5l0.4,0.5c-0.2,0.3-0.5,0.5-0.9,0.6
					S110.9,43.8,110.5,43.8z"/>
			</g>
		</g>
		<g>
			
				<radialGradient id="SVGID_3_" cx="147.0877" cy="452.1382" r="274.6574" gradientTransform="matrix(0.7503 0.6611 -0.6611 0.7503 865.1577 -363.4892)" gradientUnits="userSpaceOnUse">
				<stop  offset="0.1056" style="stop-color:#E95D56"/>
				<stop  offset="0.2465" style="stop-color:#D45353"/>
				<stop  offset="0.5381" style="stop-color:#9D3A4C"/>
				<stop  offset="0.9523" style="stop-color:#461341"/>
				<stop  offset="1" style="stop-color:#3C0E40"/>
			</radialGradient>
			<path class="st3" d="M799.8,189.4c-3.3-8.7,5.3-17.3,14-14.1c24.1,8.9,48.1,12,71.9,9.1c32.4-3.9,60.1-18.9,83.1-45
				c21-23.8,32.4-50.6,34.3-80.4c1.9-29.8-4.7-56.5-19.9-80.1c-15.2-23.6-38.7-49.4-70.4-77.4l-154-135.7
				c-11.9-10.5-29.7-10.7-42.1-0.6L358.1,58c2.9,3.9,6.2,8,9.9,12.2c3.6,4.3,7.8,8.6,12,13.2c2.2,2.2,4.5,4.5,6.9,6.8
				c0.6,0.6,1.2,1.1,1.8,1.7c0.6,0.6,1.2,1.1,1.9,1.7c1.2,1.1,2.5,2.3,3.8,3.4c10.2,9.2,21.9,18.3,35.1,26.8
				c13.1,8.4,27.6,16.2,43.2,22.7c1.9,0.8,3.8,1.6,5.8,2.4c1,0.4,2.1,0.8,3.1,1.2c1.1,0.4,2.1,0.8,3.1,1.1c2,0.7,3.9,1.4,6,2
				c2,0.7,4.1,1.3,6.1,1.9c8.2,2.5,16.6,4.5,25.1,5.9c8.5,1.4,17,2.1,25.5,2.2c2.1,0,4.2-0.1,6.4-0.1l3.2-0.2l1.6-0.1l0,0l0,0l0.1,0
				l0,0l0.4,0l0.9-0.1l3.5-0.3l0.4,0l0.4-0.1l0.7-0.1l1.5-0.2c1.9-0.2,4-0.7,6-1c1-0.2,2-0.4,3-0.7c1-0.2,2-0.4,3-0.7
				c2-0.6,4-1,5.9-1.7c4-1.2,7.7-2.8,11.4-4.4c7.4-3.4,14.1-7.7,20.1-12.5c2.9-2.5,5.8-5,8.3-7.7l1-1l0.1-0.1l0.1-0.2l0.3-0.3
				l2.2-2.6l1.1-1.3l0.6-0.7l0.3-0.3c0.1-0.1,0.1-0.2,0.2-0.3l1.3-1.9l1.4-1.9l1.4-2.3c0.5-0.8,1-1.5,1.4-2.3
				c0.5-0.8,0.9-1.6,1.3-2.4c0.9-1.6,1.7-3.1,2.5-4.7c0.7-1.6,1.6-3.2,2.2-4.8c2.8-6.5,4.8-13.2,6.2-20c1.3-6.7,1.9-13.5,1.9-20
				c-0.1-6.5-0.8-12.9-2.3-18.8l-0.2-1.1l-0.1-0.3c0,0,0,0,0,0l0,0c0,0,0-0.1,0-0.1c0,0.1,0.1,0.2,0.2,0.4l-0.2-0.7
				c-0.3-0.9-0.6-1.8-0.9-2.7c-0.3-0.9-0.6-1.8-0.8-2.7l-0.2-0.6l-0.2-0.5l-0.4-0.9c-0.5-1.3-0.9-2.5-1.4-3.8
				c-0.6-1.4-1.2-2.7-1.8-4.1l-0.4-1l-0.5-1c-0.4-0.6-0.7-1.3-1.1-1.9c-0.7-1.3-1.4-2.6-2.2-3.8c-0.8-1.2-1.5-2.5-2.3-3.7
				c-0.8-1.2-1.7-2.3-2.5-3.4c-0.4-0.6-0.8-1.1-1.2-1.7c-0.4-0.5-0.9-1.1-1.3-1.6c-0.9-1.1-1.7-2.1-2.6-3.2c-0.9-1-1.8-1.9-2.7-2.9
				c-0.9-1-1.7-2-2.7-2.8c-7.3-7.2-14.9-12.6-21.6-16.5c-0.8-0.5-1.7-1-2.5-1.4l-0.2-0.1c-0.6-0.3-1.5-0.8-2-1.1
				c-1.6-0.8-3.2-1.6-4.6-2.3c-1.4-0.7-2.7-1.2-3.9-1.7c-1.2-0.5-2.3-1-3.4-1.4c-4.1-1.4-6.3-2.2-6.3-2.2l-7.6-2.5l7.9-1.5
				c0,0,2.4-0.3,7.1-0.8c2.3-0.1,5.2-0.2,8.7-0.1c1.7,0.1,3.5,0.3,5.5,0.4c0.5,0,1,0.1,1.5,0.1c0.5,0.1,1,0.2,1.5,0.3
				c1,0.2,2.1,0.3,3.2,0.5c8.8,1.6,19.4,4.8,30.6,11c2.8,1.5,5.6,3.4,8.5,5.2c1.4,1,2.8,2.1,4.2,3.1c0.7,0.5,1.4,1.1,2.1,1.6
				c0.7,0.6,1.4,1.2,2.1,1.8c5.6,4.7,11,10.4,16,16.9c1.2,1.7,2.4,3.4,3.6,5.1c0.6,0.9,1.2,1.9,1.8,2.9c0.6,1,1.2,2,1.8,3l0.9,1.5
				l0.4,0.8l0.3,0.6c0.4,0.8,0.8,1.7,1.3,2.5c0.4,0.8,0.9,1.7,1.3,2.5l0.3,0.6l0.1,0.2l0.3,0.8l0.2,0.4l0.6,1.6
				c3.5,8.4,5.9,17.6,7.1,27.2c1.2,9.6,1.3,19.7-0.1,29.8c-0.4,2.5-0.9,5-1.3,7.6c-0.6,2.5-1.2,5-1.9,7.6c-1.4,5-3.2,10-5.3,14.9
				c-1,2.5-2.3,4.8-3.5,7.3c-0.6,1.2-1.2,2.4-1.9,3.6c-0.7,1.2-1.4,2.3-2.1,3.5c-0.7,1.2-1.4,2.3-2.2,3.5c-0.8,1.1-1.6,2.2-2.4,3.3
				c-0.8,1.1-1.5,2.3-2.4,3.4c-1.4,1.7-2.6,3.5-4.3,4.9c-0.5,0.7-1,1.3-1.6,2c-0.1,0.1-0.4,0.2-0.5,0.3l-0.4,0.3l-0.6,0.6l-1.3,1.2
				l-2.5,2.4l-1.2,1.2l-0.8,0.7l-1.6,1.4c-4.2,3.7-8.7,6.9-13.3,9.9c-4.7,2.9-9.4,5.6-14.4,7.9c-4.9,2.4-10,4.3-15,6.1
				c-10.2,3.4-20.6,5.8-31.1,7.1c-2.6,0.3-5.2,0.6-8,0.8l-2.1,0.1l-1,0.1l-0.5,0l-0.4,0l-3.5,0.1l-2.1,0.1l-2,0l-3.9,0
				c-2.6-0.1-5.2-0.2-7.7-0.4c-10.3-0.8-20.3-2.4-30-4.8c-9.6-2.4-19-5.3-27.9-8.9c-2.2-0.9-4.4-1.8-6.6-2.7
				c-2.2-0.9-4.4-1.9-6.5-2.9c-1.1-0.5-2.1-1-3.1-1.5c-1-0.5-2-1-3-1.4l-0.2-0.1c-0.3-0.1-0.2-0.1-0.3-0.1l-0.4-0.2l-0.8-0.4
				l-1.5-0.8c-1-0.5-2-1.1-3.1-1.6c-16.3-8.6-31.1-18.3-44.1-28.7c-13.1-10.4-24.4-21.3-34.2-31.9c-1.2-1.3-2.4-2.7-3.6-4
				c-0.6-0.7-1.2-1.3-1.8-2c-0.6-0.7-1.1-1.3-1.7-2c-2.2-2.7-4.3-5.3-6.4-7.8c-3.9-5.3-7.7-10.2-10.9-15.1c-0.8-1.2-1.6-2.4-2.4-3.6
				c-0.4-0.6-0.8-1.2-1.2-1.7c-0.4-0.6-0.7-1.2-1.1-1.8c-1.3-2.1-2.5-4.1-3.7-6L291,112.8l230.4,203c51.6,45.5,99.5,65.5,143.8,60
				c44.3-5.5,81-24.8,110.2-58C809.3,279.2,817.5,236.4,799.8,189.4z M566.4-21.8l-9.7,2.8c0,0-0.6,0.2-1.7,0.6
				c-1.1,0.4-2.7,0.9-4.8,1.8c-4.1,1.6-10,4.3-16.6,8.8c-6.5,4.5-13.8,10.8-20.3,19.2c-6.5,8.4-12.5,18.9-16.3,30.9
				c-2,6-3.3,12.3-4.1,18.8c-0.4,3.2-0.5,6.5-0.5,9.8c0,0.8,0,1.6,0.1,2.5c0,0.9,0.1,1.5,0.1,2.2l0.1,1.5l0,0.4l0,0.2
				c0,0,0-0.1,0-0.1c0,0,0,0,0,0l0.1,0.6c0.1,0.9,0.2,1.7,0.3,2.6c1.7,13.7,6.6,27.6,14.2,40.9c5.8,10.2,13.3,20.1,22,29.1
				c-1.9-0.2-3.7-0.5-5.5-0.8c-7.7-1.3-15.6-3.1-23.7-5.5c-1.9-0.6-3.9-1.2-5.7-1.8l-0.2-0.1c-1.6-0.5-3.1-1-4.8-1.6l-1-0.4
				c-0.7-0.2-1.6-0.6-2.7-1l-3-1.1l-5.6-2.3c-3.9-1.6-7.8-3.3-11.7-5.2c-0.4-1-0.9-2.1-1.3-3.1c-1.8-4.9-3.4-9.8-4.7-14.8
				c-2.5-9.9-3.8-20-3.8-29.9c0-1.2,0-2.5,0-3.7l0-0.9l0-0.4l0-0.2l0-0.4l0.1-1.5c0.1-1.3,0.2-2.7,0.3-3.9c0.1-1.2,0.2-2.4,0.4-3.6
				c0.7-4.8,1.6-9.5,2.8-14c1.2-4.5,2.6-8.8,4.3-12.9c1.7-4.1,3.5-8,5.5-11.7c8.1-14.8,18.4-26.3,28.9-34.5
				c10.5-8.2,21.1-13.2,30.1-15.8c9-2.6,16.2-3.2,21-3.2c2.4,0,4.3,0.1,5.5,0.2c1.2,0.1,1.9,0.2,1.9,0.2L566.4-21.8z M757.9,176.3
				c-5.7,6.1-12,12.1-18.9,17.7c-7,5.6-14.5,10.9-22.7,15.6c-8.2,4.7-17,8.9-26.2,12.4c-2.3,0.9-4.7,1.7-7,2.5
				c-1.2,0.4-2.4,0.7-3.6,1.1c-1,0.3-2.4,0.7-3.7,1l-1.9,0.5l-1.9,0.4c-1.3,0.3-2.5,0.6-3.8,0.8l-3.8,0.7l-3.8,0.6
				c-10.2,1.6-20.7,2.1-31.2,1.6c-21-0.9-41.6-5.7-61.3-12.4c-4.9-1.7-9.8-3.6-14.6-5.6c-4.8-2-9.5-4.1-14.2-6.3l-3.5-1.8
				c-0.5-0.3-1-0.5-1.6-0.8l-1.9-1c-0.2-0.1-0.3-0.2-0.5-0.3c4.3,0.6,8.6,1.1,13,1.4c2,0.2,3.8,0.2,5.6,0.3c0.8,0,1.6,0.1,2.4,0.1
				l0.2,0l6.3,0.1l6.5-0.2l3.8-0.3c2.6-0.2,4.9-0.4,7.1-0.7l1.6-0.2c10.2-1.2,20.7-3.6,31.4-7c7.4,1.9,14.8,3.3,22.3,4.1
				c8.6,0.9,17.1,1,25.5,0.3l3.1-0.3l3.1-0.4c1-0.1,2.1-0.3,3.1-0.5l1.5-0.2l1.4-0.3c1-0.2,1.9-0.3,3.1-0.6l3.1-0.7l3.1-0.7l3.1-0.8
				c16.2-4.4,31.3-11.4,44.5-20c13.2-8.6,24.6-18.6,34.1-29c4.8-5.2,9-10.5,12.8-15.7c3.8-5.2,7.3-10.3,10.3-15.3
				c2.9-4.7,5.4-9.3,7.6-13.6l-14.2,4.6c-8.3,2.7-15-6.9-9.7-13.9l50.3-66c3.3-4.3,10.2-1.8,9.8,3.6l-5.1,83.9c-0.4,6.7-9,9.4-13,4
				l-9.3-12.5c-1.7,4.8-3.8,9.9-6.2,15.2c-2.5,5.6-5.5,11.4-8.9,17.4c-3.5,6-7.4,12.1-11.9,18.3C768.6,164,763.6,170.3,757.9,176.3z
				"/>
		</g>
		<g>
			<g>
				<path class="st2" d="M768.3,472.7c-0.8,0-1.6-0.1-2.3-0.4c-0.7-0.3-1.3-0.6-1.8-1.1c-0.5-0.5-0.9-1.1-1.1-1.7
					c-0.3-0.7-0.4-1.4-0.4-2.2c0-0.8,0.1-1.5,0.4-2.2c0.3-0.7,0.7-1.2,1.2-1.7c0.5-0.5,1.1-0.9,1.8-1.1c0.7-0.3,1.4-0.4,2.3-0.4
					c0.8,0,1.6,0.1,2.2,0.4s1.3,0.6,1.8,1.1s0.9,1,1.1,1.7c0.3,0.6,0.4,1.4,0.4,2.1c0,0.7-0.1,1.2-0.2,1.7c-0.2,0.5-0.4,0.9-0.7,1.1
					c-0.3,0.3-0.7,0.4-1.1,0.4c-0.4,0-0.7-0.1-1-0.4s-0.4-0.6-0.4-1V468l0.1-0.8l-0.1-1.2v-1.8h0.8v4.5c0,0.3,0.1,0.6,0.2,0.7
					c0.1,0.1,0.3,0.2,0.5,0.2c0.2,0,0.5-0.1,0.6-0.3c0.2-0.2,0.3-0.5,0.4-0.9c0.1-0.4,0.2-0.8,0.2-1.4c0-0.7-0.1-1.3-0.4-1.9
					s-0.6-1.1-1-1.5c-0.4-0.4-1-0.7-1.6-1c-0.6-0.2-1.3-0.3-2-0.3c-0.7,0-1.4,0.1-2,0.3c-0.6,0.2-1.1,0.6-1.6,1
					c-0.4,0.4-0.8,0.9-1,1.5c-0.2,0.6-0.4,1.2-0.4,2s0.1,1.4,0.4,2c0.2,0.6,0.6,1.1,1,1.5c0.4,0.4,0.9,0.8,1.5,1
					c0.6,0.2,1.3,0.4,2,0.4c0.4,0,0.7,0,1.2-0.1s0.8-0.2,1.1-0.4l0.2,0.6c-0.4,0.2-0.8,0.3-1.2,0.4S768.7,472.7,768.3,472.7z
					 M768.2,470.4c-0.6,0-1.1-0.1-1.5-0.4c-0.4-0.3-0.8-0.6-1.1-1.1c-0.3-0.5-0.4-1-0.4-1.6c0-0.6,0.1-1.1,0.4-1.6
					c0.3-0.5,0.6-0.8,1.1-1.1c0.4-0.3,1-0.4,1.5-0.4c0.6,0,1,0.1,1.5,0.4s0.8,0.6,1,1.1s0.4,1,0.4,1.7s-0.1,1.2-0.4,1.7
					s-0.6,0.8-1,1.1S768.8,470.4,768.2,470.4z M768.3,469.7c0.4,0,0.8-0.1,1.2-0.3c0.3-0.2,0.6-0.5,0.8-0.8c0.2-0.4,0.3-0.8,0.3-1.3
					c0-0.5-0.1-0.9-0.3-1.3c-0.2-0.4-0.5-0.6-0.8-0.8c-0.3-0.2-0.7-0.3-1.2-0.3c-0.4,0-0.8,0.1-1.2,0.3c-0.3,0.2-0.6,0.5-0.8,0.8
					c-0.2,0.4-0.3,0.8-0.3,1.3c0,0.5,0.1,0.9,0.3,1.3c0.2,0.4,0.5,0.6,0.8,0.8S767.9,469.7,768.3,469.7z"/>
				<path class="st2" d="M775,470.3v-0.6l3.5-3.4c0.3-0.3,0.6-0.6,0.7-0.8c0.2-0.2,0.3-0.5,0.3-0.7s0.1-0.4,0.1-0.6
					c0-0.5-0.2-0.9-0.5-1.2s-0.8-0.4-1.5-0.4c-0.5,0-0.9,0.1-1.3,0.2c-0.4,0.2-0.7,0.4-1,0.7l-0.6-0.5c0.3-0.4,0.7-0.7,1.3-0.9
					c0.5-0.2,1.1-0.3,1.7-0.3c0.6,0,1.1,0.1,1.5,0.3s0.7,0.4,1,0.8c0.2,0.3,0.3,0.7,0.3,1.2c0,0.3,0,0.5-0.1,0.8
					c-0.1,0.3-0.2,0.5-0.4,0.8c-0.2,0.3-0.5,0.6-0.9,1l-3.2,3.1l-0.2-0.3h5.2v0.8H775z"/>
				<path class="st2" d="M785.3,470.4c-0.6,0-1.2-0.2-1.7-0.5c-0.5-0.3-0.9-0.8-1.2-1.5c-0.3-0.6-0.4-1.4-0.4-2.3
					c0-0.9,0.1-1.7,0.4-2.3s0.7-1.1,1.2-1.5s1.1-0.5,1.7-0.5c0.6,0,1.2,0.2,1.7,0.5s0.9,0.8,1.2,1.5s0.4,1.4,0.4,2.3
					c0,0.9-0.1,1.7-0.4,2.3c-0.3,0.6-0.7,1.1-1.2,1.5C786.5,470.2,786,470.4,785.3,470.4z M785.3,469.6c0.5,0,0.9-0.1,1.3-0.4
					c0.4-0.3,0.7-0.7,0.9-1.2c0.2-0.5,0.3-1.2,0.3-1.9s-0.1-1.4-0.3-1.9c-0.2-0.5-0.5-0.9-0.9-1.2c-0.4-0.3-0.8-0.4-1.3-0.4
					c-0.5,0-0.9,0.1-1.3,0.4c-0.4,0.3-0.7,0.7-0.9,1.2c-0.2,0.5-0.3,1.1-0.3,1.9s0.1,1.4,0.3,1.9c0.2,0.5,0.5,0.9,0.9,1.2
					C784.4,469.5,784.8,469.6,785.3,469.6z"/>
				<path class="st2" d="M789.8,470.3v-0.6l3.5-3.4c0.3-0.3,0.6-0.6,0.7-0.8c0.2-0.2,0.3-0.5,0.3-0.7s0.1-0.4,0.1-0.6
					c0-0.5-0.2-0.9-0.5-1.2s-0.8-0.4-1.5-0.4c-0.5,0-0.9,0.1-1.3,0.2c-0.4,0.2-0.7,0.4-1,0.7l-0.6-0.5c0.3-0.4,0.7-0.7,1.3-0.9
					c0.5-0.2,1.1-0.3,1.7-0.3c0.6,0,1.1,0.1,1.5,0.3s0.7,0.4,1,0.8c0.2,0.3,0.3,0.7,0.3,1.2c0,0.3,0,0.5-0.1,0.8
					c-0.1,0.3-0.2,0.5-0.4,0.8c-0.2,0.3-0.5,0.6-0.9,1l-3.2,3.1l-0.2-0.3h5.2v0.8H789.8z"/>
				<path class="st2" d="M796.6,468.1v-0.6l4.5-5.6h1l-4.4,5.6l-0.5-0.1h6.8v0.8H796.6z M801.3,470.3v-2.2l0-0.8v-1.9h0.8v4.9H801.3
					z"/>
				<path class="st2" d="M804.7,467.4v-0.7h3.1v0.7H804.7z"/>
				<path class="st2" d="M809,470.3v-0.6l3.5-3.4c0.3-0.3,0.6-0.6,0.7-0.8c0.2-0.2,0.3-0.5,0.3-0.7s0.1-0.4,0.1-0.6
					c0-0.5-0.2-0.9-0.5-1.2s-0.8-0.4-1.5-0.4c-0.5,0-0.9,0.1-1.3,0.2c-0.4,0.2-0.7,0.4-1,0.7l-0.6-0.5c0.3-0.4,0.7-0.7,1.3-0.9
					c0.5-0.2,1.1-0.3,1.7-0.3c0.6,0,1.1,0.1,1.5,0.3s0.7,0.4,1,0.8c0.2,0.3,0.3,0.7,0.3,1.2c0,0.3,0,0.5-0.1,0.8
					c-0.1,0.3-0.2,0.5-0.4,0.8c-0.2,0.3-0.5,0.6-0.9,1l-3.2,3.1l-0.2-0.3h5.2v0.8H809z"/>
				<path class="st2" d="M818.7,470.4c-0.6,0-1.2-0.1-1.7-0.3s-1-0.5-1.3-0.8l0.4-0.7c0.3,0.3,0.6,0.5,1.1,0.7
					c0.5,0.2,1,0.3,1.5,0.3c0.7,0,1.3-0.2,1.6-0.5c0.4-0.3,0.6-0.7,0.6-1.2c0-0.4-0.1-0.7-0.3-0.9c-0.2-0.3-0.5-0.5-0.9-0.6
					c-0.4-0.1-1-0.2-1.7-0.2h-1.8l0.4-4.2h4.6v0.8H817l0.4-0.4l-0.4,3.5l-0.4-0.4h1.6c0.8,0,1.5,0.1,2,0.3s0.9,0.5,1.1,0.9
					c0.2,0.4,0.3,0.8,0.3,1.3c0,0.5-0.1,0.9-0.3,1.3c-0.2,0.4-0.6,0.7-1,0.9C819.9,470.3,819.3,470.4,818.7,470.4z"/>
			</g>
		</g>
	</g>
</g>
</svg>
