<?xml version="1.0" encoding="utf-8"?>
<!-- Generator: Adobe Illustrator 24.3.0, SVG Export Plug-In . SVG Version: 6.00 Build 0)  -->
<svg version="1.1" id="Layer_1" xmlns="http://www.w3.org/2000/svg" xmlns:xlink="http://www.w3.org/1999/xlink" x="0px" y="0px"
	 viewBox="0 0 256 256" style="enable-background:new 0 0 256 256;" xml:space="preserve">
<style type="text/css">
	.st0{fill:#3C0E40;}
	.st1{fill:#FFFFFF;}
</style>
<g>
	<path class="st0" d="M65,41h126c13.3,0,24,10.7,24,24v126c0,13.3-10.7,24-24,24H65c-13.3,0-24-10.7-24-24V65C41,51.7,51.7,41,65,41
		z"/>
	<g>
		<path class="st1" d="M158.6,129.1c-1.5-0.8-1.4-3,0.2-3.6c4.3-1.7,7.9-4.1,10.8-7.3c3.9-4.4,5.9-9.7,5.9-16c0-5.7-1.7-10.7-5-15
			c-3.3-4.3-7.4-7.1-12.3-8.5c-4.9-1.4-11.1-2.1-18.8-2.1h-37.1c-2.9,0-5.3,2.1-5.8,4.9L83.1,164c0.9,0.2,1.8,0.3,2.8,0.5
			c1,0.2,2.1,0.2,3.2,0.4c0.6,0,1.1,0.1,1.7,0.1c0.1,0,0.3,0,0.4,0c0.1,0,0.3,0,0.5,0c0.3,0,0.6,0,0.9,0c2.5,0,5.2-0.1,7.9-0.6
			c2.8-0.4,5.7-1.1,8.6-2.1c0.4-0.1,0.7-0.2,1.1-0.4c0.2-0.1,0.4-0.1,0.6-0.2c0.2-0.1,0.4-0.1,0.5-0.2c0.3-0.1,0.7-0.3,1.1-0.4
			c0.4-0.2,0.7-0.3,1.1-0.5c1.4-0.6,2.8-1.4,4.1-2.2c1.3-0.8,2.6-1.7,3.7-2.8c0.3-0.2,0.6-0.5,0.8-0.8l0.4-0.4l0.2-0.2h0v0l0,0v0
			l0.1-0.1l0.1-0.1l0.4-0.5l0.1-0.1l0-0.1l0.1-0.1l0.2-0.2c0.2-0.3,0.5-0.6,0.7-0.9c0.1-0.1,0.2-0.3,0.3-0.5
			c0.1-0.2,0.2-0.3,0.3-0.5c0.2-0.3,0.4-0.6,0.6-0.9c0.4-0.6,0.7-1.3,1-2c0.6-1.3,1-2.7,1.2-4.1c0.1-0.7,0.2-1.4,0.2-2l0-0.3v0l0,0
			l0-0.1l0-0.6l0-0.3l0-0.2l0-0.1c0,0,0,0,0-0.1l-0.1-0.4l0-0.4l-0.1-0.5c0-0.2-0.1-0.3-0.1-0.5c0-0.2-0.1-0.3-0.1-0.5
			c-0.1-0.3-0.1-0.6-0.2-0.9c-0.1-0.3-0.2-0.6-0.3-0.9c-0.4-1.2-0.9-2.4-1.5-3.4c-0.6-1.1-1.3-2.1-2.1-2.9c-0.8-0.9-1.6-1.7-2.6-2.3
			l-0.2-0.1l0,0c0,0,0,0,0,0h0c0,0,0,0,0,0c0,0,0,0,0.1,0l-0.1-0.1c-0.1-0.1-0.3-0.2-0.4-0.3c-0.1-0.1-0.3-0.2-0.4-0.3l-0.1-0.1
			l-0.1,0l-0.2-0.1c-0.2-0.1-0.4-0.2-0.6-0.3c-0.2-0.1-0.5-0.2-0.7-0.3l-0.2-0.1l-0.2-0.1c-0.1,0-0.2-0.1-0.4-0.1
			c-0.2-0.1-0.5-0.2-0.7-0.3c-0.3-0.1-0.5-0.2-0.7-0.2c-0.2-0.1-0.5-0.1-0.7-0.2c-0.1,0-0.2-0.1-0.4-0.1c-0.1,0-0.2,0-0.4-0.1
			c-0.2,0-0.5-0.1-0.7-0.1c-0.2,0-0.5,0-0.7-0.1c-0.2,0-0.5-0.1-0.7-0.1c-1.9-0.1-3.5,0.1-4.9,0.3c-0.2,0-0.3,0.1-0.5,0.1l0,0
			c-0.1,0-0.3,0.1-0.4,0.1c-0.3,0.1-0.6,0.2-0.9,0.2c-0.3,0.1-0.5,0.2-0.7,0.2c-0.2,0.1-0.4,0.1-0.6,0.2c-0.7,0.3-1.1,0.5-1.1,0.5
			l-1.3,0.6l0.9-1.1c0,0,0.3-0.3,0.9-1c0.3-0.3,0.7-0.6,1.2-1c0.2-0.2,0.5-0.4,0.8-0.6c0.1-0.1,0.1-0.1,0.2-0.2
			c0.1,0,0.2-0.1,0.2-0.1c0.2-0.1,0.3-0.2,0.5-0.3c1.4-0.8,3.2-1.7,5.5-2.2c0.6-0.1,1.2-0.2,1.8-0.3c0.3,0,0.6-0.1,0.9-0.1
			c0.2,0,0.3,0,0.5,0c0.2,0,0.3,0,0.5,0c1.3,0,2.7,0.1,4.2,0.4c0.4,0.1,0.7,0.2,1.1,0.3c0.2,0,0.4,0.1,0.6,0.2
			c0.2,0.1,0.4,0.1,0.6,0.2l0.3,0.1l0.2,0.1l0.1,0c0.2,0.1,0.3,0.1,0.5,0.2c0.2,0.1,0.3,0.1,0.5,0.2l0.1,0l0,0l0.1,0.1l0.1,0
			l0.3,0.1c1.5,0.7,2.9,1.7,4.2,2.8c1.3,1.2,2.5,2.5,3.5,4c0.2,0.4,0.5,0.8,0.7,1.2c0.2,0.4,0.4,0.8,0.7,1.2
			c0.4,0.9,0.8,1.7,1.1,2.7c0.2,0.5,0.3,0.9,0.4,1.4c0.1,0.2,0.1,0.5,0.2,0.7c0,0.2,0.1,0.5,0.1,0.7c0,0.2,0.1,0.5,0.1,0.7
			c0,0.2,0,0.5,0.1,0.7c0,0.2,0.1,0.5,0.1,0.7c0,0.4,0.1,0.8,0,1.2c0,0.2,0,0.3,0,0.5c0,0,0,0.1,0,0.1l0,0.1l0,0.2l0,0.3l-0.1,0.6
			l0,0.3l0,0.2l-0.1,0.4c-0.1,1-0.4,2-0.6,2.9c-0.3,0.9-0.6,1.9-1,2.8c-0.4,0.9-0.8,1.8-1.3,2.6c-1,1.7-2.1,3.3-3.4,4.7
			c-0.3,0.4-0.6,0.7-1,1.1l-0.3,0.3l-0.1,0.1l-0.1,0.1l-0.1,0.1l-0.5,0.4l-0.3,0.3l-0.3,0.2l-0.5,0.5c-0.4,0.3-0.7,0.6-1.1,0.9
			c-1.5,1.1-3,2.1-4.6,2.9c-1.6,0.8-3.2,1.5-4.8,2.1c-0.4,0.1-0.8,0.3-1.2,0.4c-0.4,0.1-0.8,0.3-1.2,0.4c-0.2,0.1-0.4,0.1-0.6,0.2
			c-0.2,0.1-0.4,0.1-0.6,0.2l0,0c-0.1,0,0,0-0.1,0l-0.1,0l-0.2,0l-0.3,0.1c-0.2,0.1-0.4,0.1-0.6,0.1c-3.2,0.8-6.4,1.2-9.4,1.4
			c-3,0.2-5.8,0-8.4-0.2c-0.3,0-0.6-0.1-1-0.1c-0.2,0-0.3,0-0.5-0.1c-0.2,0-0.3,0-0.5-0.1c-0.6-0.1-1.2-0.2-1.8-0.3
			c-1.2-0.2-2.3-0.5-3.3-0.7c-0.3-0.1-0.5-0.1-0.8-0.2c-0.1,0-0.2-0.1-0.4-0.1c-0.1,0-0.2-0.1-0.4-0.1c-0.4-0.1-0.8-0.2-1.2-0.4
			l-2.3,13.8h55.4c12.4,0,21.3-3,26.6-9c5.3-6,8-13,8-21C170.6,140.1,166.6,133.3,158.6,129.1z M101.7,128.3l-1,1.5
			c0,0-0.1,0.1-0.2,0.3c-0.1,0.2-0.3,0.5-0.4,0.8c-0.4,0.7-0.8,1.8-1.2,3.2c-0.3,1.4-0.6,3.1-0.5,5c0.1,1.9,0.6,4,1.5,6.1
			c0.4,1,1,2.1,1.7,3c0.3,0.5,0.7,0.9,1.1,1.4c0.1,0.1,0.2,0.2,0.3,0.3c0.1,0.1,0.2,0.2,0.3,0.3l0.2,0.2l0,0.1l0,0c0,0,0,0,0,0
			c0,0,0,0,0,0l0.1,0.1c0.1,0.1,0.2,0.2,0.3,0.3c1.9,1.7,4.2,3,6.8,3.9c2,0.7,4.2,1.1,6.4,1.3c-0.3,0.2-0.6,0.4-0.8,0.6
			c-1.2,0.7-2.5,1.4-3.9,2.1c-0.3,0.1-0.7,0.3-1,0.4l0,0c-0.3,0.1-0.5,0.2-0.8,0.3l-0.2,0.1c-0.1,0.1-0.3,0.1-0.5,0.2l-0.5,0.2
			l-1,0.4c-0.7,0.2-1.5,0.5-2.2,0.7c-0.2-0.1-0.4-0.2-0.5-0.3c-0.8-0.4-1.6-0.9-2.4-1.4c-1.5-1-2.9-2.3-4.1-3.6
			c-0.1-0.2-0.3-0.3-0.4-0.5l-0.1-0.1l-0.1-0.1l0,0l0-0.1l-0.2-0.2c-0.1-0.2-0.3-0.4-0.4-0.6c-0.1-0.2-0.3-0.4-0.4-0.5
			c-0.5-0.7-0.9-1.5-1.3-2.2c-0.4-0.7-0.7-1.5-1-2.3c-0.3-0.8-0.5-1.5-0.7-2.2c-0.7-3-0.6-5.8-0.2-8.1c0.4-2.4,1.3-4.3,2.2-5.7
			c0.9-1.4,1.8-2.4,2.5-2.9c0.3-0.3,0.6-0.5,0.8-0.6c0.2-0.1,0.3-0.2,0.3-0.2L101.7,128.3z M151.3,132.3c0,1.5-0.2,3.1-0.5,4.7
			c-0.3,1.6-0.7,3.2-1.2,4.8c-0.5,1.6-1.2,3.2-2.1,4.8c-0.2,0.4-0.4,0.8-0.7,1.2c-0.1,0.2-0.2,0.4-0.4,0.6c-0.1,0.2-0.2,0.4-0.4,0.6
			l-0.2,0.3l-0.2,0.3c-0.1,0.2-0.3,0.4-0.4,0.6l-0.4,0.6l-0.4,0.5c-1.2,1.4-2.6,2.8-4,3.9c-2.9,2.4-6.3,4.2-9.8,5.6
			c-0.9,0.4-1.8,0.7-2.6,1c-0.9,0.3-1.8,0.6-2.7,0.8l-0.7,0.2c-0.1,0-0.2,0.1-0.3,0.1l-0.4,0.1c0,0-0.1,0-0.1,0
			c0.7-0.4,1.3-0.9,1.9-1.4c0.3-0.2,0.5-0.4,0.8-0.6c0.1-0.1,0.2-0.2,0.3-0.3l0,0l0.9-0.7l0.9-0.8l0.5-0.5c0.3-0.3,0.6-0.6,0.9-0.9
			l0.2-0.2c1.2-1.4,2.4-3,3.4-4.7c1.2-0.6,2.4-1.3,3.5-2.1c1.3-0.9,2.4-1.9,3.5-3l0.4-0.4l0.4-0.4c0.1-0.1,0.2-0.3,0.4-0.4l0.2-0.2
			l0.2-0.2c0.1-0.1,0.2-0.3,0.3-0.4l0.3-0.5l0.3-0.5l0.3-0.5c1.7-2.5,2.9-5.3,3.6-8c0.8-2.7,1.1-5.5,1.2-8c0-1.3,0-2.5-0.1-3.7
			c-0.1-1.2-0.2-2.3-0.4-3.3c-0.2-1-0.4-1.9-0.6-2.7l-1.4,2.3c-0.8,1.4-2.9,0.9-3-0.7l-1.1-14.9c-0.1-1,1.2-1.5,1.8-0.7l9.3,12
			c0.7,1-0.1,2.3-1.3,2.1l-2.8-0.6c0.3,0.9,0.7,1.8,1,2.8c0.3,1.1,0.6,2.2,0.9,3.4c0.2,1.2,0.4,2.5,0.6,3.9
			C151.3,129.4,151.4,130.8,151.3,132.3z"/>
	</g>
</g>
</svg>
